<?xml version="1.0" encoding="UTF-8" standalone="no"?>
<svg
   width="392.27954pt"
   height="19.699629pt"
   viewBox="0 0 392.27955 19.699628"
   version="1.1"
   id="svg134"
   sodipodi:docname="all_SaCere_accuracy_legend.svg"
   inkscape:version="1.4 (86a8ad7, 2024-10-11)"
   xmlns:inkscape="http://www.inkscape.org/namespaces/inkscape"
   xmlns:sodipodi="http://sodipodi.sourceforge.net/DTD/sodipodi-0.dtd"
   xmlns:xlink="http://www.w3.org/1999/xlink"
   xmlns="http://www.w3.org/2000/svg"
   xmlns:svg="http://www.w3.org/2000/svg"
   xmlns:rdf="http://www.w3.org/1999/02/22-rdf-syntax-ns#"
   xmlns:cc="http://creativecommons.org/ns#"
   xmlns:dc="http://purl.org/dc/elements/1.1/">
  <sodipodi:namedview
     id="namedview134"
     pagecolor="#ffffff"
     bordercolor="#000000"
     borderopacity="0.25"
     inkscape:showpageshadow="2"
     inkscape:pageopacity="0.0"
     inkscape:pagecheckerboard="0"
     inkscape:deskcolor="#d1d1d1"
     inkscape:document-units="pt"
     showgrid="false"
     inkscape:zoom="1.7513021"
     inkscape:cx="249.52863"
     inkscape:cy="203.56283"
     inkscape:window-width="1920"
     inkscape:window-height="1009"
     inkscape:window-x="-8"
     inkscape:window-y="-8"
     inkscape:window-maximized="1"
     inkscape:current-layer="svg134" />
  <metadata
     id="metadata1">
    <rdf:RDF>
      <cc:Work>
        <dc:type
           rdf:resource="http://purl.org/dc/dcmitype/StillImage" />
        <dc:date>2025-06-24T10:38:53.650823</dc:date>
        <dc:format>image/svg+xml</dc:format>
        <dc:creator>
          <cc:Agent>
            <dc:title>Matplotlib v3.7.3, https://matplotlib.org/</dc:title>
          </cc:Agent>
        </dc:creator>
      </cc:Work>
    </rdf:RDF>
  </metadata>
  <defs
     id="defs1">
    <style
       type="text/css"
       id="style1">*{stroke-linejoin: round; stroke-linecap: butt}</style>
    <clipPath
       clipPathUnits="userSpaceOnUse"
       id="clipPath134">
      <rect
         style="opacity:0;fill:#000000;stroke:#ffc5cb;stroke-width:1.125;stroke-opacity:0"
         id="rect135"
         width="392.27954"
         height="19.699629"
         x="43.253532"
         y="20.127882" />
    </clipPath>
  </defs>
  <g
     id="figure_1"
     clip-path="url(#clipPath134)"
     transform="translate(-43.253532,-20.127882)">
    <g
       id="patch_1">
      <path
         d="M 0,345.6 H 460.8 V 0 H 0 Z"
         style="fill:#ffffff;stroke:#ffffff;stroke-linejoin:miter"
         id="path1" />
    </g>
    <g
       id="axes_1">
      <g
         id="patch_2">
        <path
           d="M 21.003938,319.68212 H 460.8 V 53.640661 H 21.003938 Z"
           style="fill:none"
           id="path2" />
      </g>
      <g
         id="matplotlib.axis_1">
        <g
           id="xtick_1" />
        <g
           id="xtick_2" />
        <g
           id="xtick_3" />
        <g
           id="xtick_4" />
        <g
           id="xtick_5" />
        <g
           id="xtick_6" />
        <g
           id="xtick_7" />
        <g
           id="xtick_8" />
      </g>
      <g
         id="matplotlib.axis_2">
        <g
           id="ytick_1" />
        <g
           id="ytick_2" />
        <g
           id="ytick_3" />
        <g
           id="ytick_4" />
        <g
           id="ytick_5" />
        <g
           id="ytick_6" />
        <g
           id="ytick_7" />
        <g
           id="ytick_8" />
        <g
           id="ytick_9" />
      </g>
      <g
         id="PathCollection_1">
        <path
           d="m 53.184137,160.37914 6.893228,-6.89323 -6.893228,-6.89323 -6.893228,6.89323 z"
           clip-path="url(#p0a2906da6e)"
           style="fill:#ff9900;stroke:#ff9900;stroke-width:0.886227"
           id="path3" />
        <path
           d="m 53.184137,162.84126 6.893228,-6.89323 -6.893228,-6.89323 -6.893228,6.89323 z"
           clip-path="url(#p0a2906da6e)"
           style="fill:#ff9900;stroke:#ff9900;stroke-width:0.886227"
           id="path4" />
        <path
           d="m 106.8178,124.20493 6.89323,-6.89323 -6.89323,-6.89323 -6.893224,6.89323 z"
           clip-path="url(#p0a2906da6e)"
           style="fill:#ff9900;stroke:#ff9900;stroke-width:0.886227"
           id="path5" />
        <path
           d="m 106.8178,115.55594 6.89323,-6.89322 -6.89323,-6.89323 -6.893224,6.89323 z"
           clip-path="url(#p0a2906da6e)"
           style="fill:#ff9900;stroke:#ff9900;stroke-width:0.886227"
           id="path6" />
        <path
           d="m 160.45147,86.894348 6.89323,-6.893228 -6.89323,-6.893227 -6.89323,6.893227 z"
           clip-path="url(#p0a2906da6e)"
           style="fill:#ff9900;stroke:#ff9900;stroke-width:0.886227"
           id="path7" />
        <path
           d="m 160.45147,80.960009 6.89323,-6.893228 -6.89323,-6.893227 -6.89323,6.893227 z"
           clip-path="url(#p0a2906da6e)"
           style="fill:#ff9900;stroke:#ff9900;stroke-width:0.886227"
           id="path8" />
        <path
           d="m 214.08514,85.442329 6.89322,-6.893228 -6.89322,-6.893227 -6.89323,6.893227 z"
           clip-path="url(#p0a2906da6e)"
           style="fill:#ff9900;stroke:#ff9900;stroke-width:0.886227"
           id="path9" />
        <path
           d="m 214.08514,76.982739 6.89322,-6.893227 -6.89322,-6.893228 -6.89323,6.893228 z"
           clip-path="url(#p0a2906da6e)"
           style="fill:#ff9900;stroke:#ff9900;stroke-width:0.886227"
           id="path10" />
        <path
           d="m 267.7188,201.22507 6.89323,-6.89323 -6.89323,-6.89323 -6.89323,6.89323 z"
           clip-path="url(#p0a2906da6e)"
           style="fill:#ff9900;stroke:#ff9900;stroke-width:0.886227"
           id="path11" />
        <path
           d="m 267.7188,179.69731 6.89323,-6.89323 -6.89323,-6.89323 -6.89323,6.89323 z"
           clip-path="url(#p0a2906da6e)"
           style="fill:#ff9900;stroke:#ff9900;stroke-width:0.886227"
           id="path12" />
        <path
           d="m 321.35247,143.77562 6.89323,-6.89323 -6.89323,-6.89323 -6.89323,6.89323 z"
           clip-path="url(#p0a2906da6e)"
           style="fill:#ff9900;stroke:#ff9900;stroke-width:0.886227"
           id="path13" />
        <path
           d="m 321.35247,133.92714 6.89323,-6.89323 -6.89323,-6.89322 -6.89323,6.89322 z"
           clip-path="url(#p0a2906da6e)"
           style="fill:#ff9900;stroke:#ff9900;stroke-width:0.886227"
           id="path14" />
        <path
           d="m 374.98613,109.811 6.89323,-6.89323 -6.89323,-6.893228 -6.89322,6.893228 z"
           clip-path="url(#p0a2906da6e)"
           style="fill:#ff9900;stroke:#ff9900;stroke-width:0.886227"
           id="path15" />
        <path
           d="m 374.98613,91.439799 6.89323,-6.893228 -6.89323,-6.893227 -6.89322,6.893227 z"
           clip-path="url(#p0a2906da6e)"
           style="fill:#ff9900;stroke:#ff9900;stroke-width:0.886227"
           id="path16" />
        <path
           d="m 428.6198,103.11908 6.89323,-6.893224 -6.89323,-6.893228 -6.89323,6.893228 z"
           clip-path="url(#p0a2906da6e)"
           style="fill:#ff9900;stroke:#ff9900;stroke-width:0.886227"
           id="path17" />
        <path
           d="m 428.6198,89.608993 6.89323,-6.893228 -6.89323,-6.893228 -6.89323,6.893228 z"
           clip-path="url(#p0a2906da6e)"
           style="fill:#ff9900;stroke:#ff9900;stroke-width:0.886227"
           id="path18" />
      </g>
      <g
         id="PathCollection_2">
        <path
           d="m 53.184137,170.20256 -4.874248,9.74849 h 9.748496 z"
           clip-path="url(#p0a2906da6e)"
           style="fill:#006699;stroke:#006699;stroke-width:0.886227"
           id="path19" />
        <path
           d="m 53.184137,171.14953 -4.874248,9.74849 h 9.748496 z"
           clip-path="url(#p0a2906da6e)"
           style="fill:#006699;stroke:#006699;stroke-width:0.886227"
           id="path20" />
        <path
           d="m 106.8178,136.80612 -4.87424,9.74849 h 9.74849 z"
           clip-path="url(#p0a2906da6e)"
           style="fill:#006699;stroke:#006699;stroke-width:0.886227"
           id="path21" />
        <path
           d="m 106.8178,119.06623 -4.87424,9.7485 h 9.74849 z"
           clip-path="url(#p0a2906da6e)"
           style="fill:#006699;stroke:#006699;stroke-width:0.886227"
           id="path22" />
        <path
           d="m 160.45147,72.727884 -4.87425,9.748496 h 9.7485 z"
           clip-path="url(#p0a2906da6e)"
           style="fill:#006699;stroke:#006699;stroke-width:0.886227"
           id="path23" />
        <path
           d="m 160.45147,69.066271 -4.87425,9.748496 h 9.7485 z"
           clip-path="url(#p0a2906da6e)"
           style="fill:#006699;stroke:#006699;stroke-width:0.886227"
           id="path24" />
        <path
           d="m 214.08514,68.561221 -4.87425,9.748496 h 9.74849 z"
           clip-path="url(#p0a2906da6e)"
           style="fill:#006699;stroke:#006699;stroke-width:0.886227"
           id="path25" />
        <path
           d="m 214.08514,60.859206 -4.87425,9.748497 h 9.74849 z"
           clip-path="url(#p0a2906da6e)"
           style="fill:#006699;stroke:#006699;stroke-width:0.886227"
           id="path26" />
        <path
           d="m 267.7188,228.91463 -4.87425,9.7485 h 9.7485 z"
           clip-path="url(#p0a2906da6e)"
           style="fill:#006699;stroke:#006699;stroke-width:0.886227"
           id="path27" />
        <path
           d="m 267.7188,220.89696 -4.87425,9.7485 h 9.7485 z"
           clip-path="url(#p0a2906da6e)"
           style="fill:#006699;stroke:#006699;stroke-width:0.886227"
           id="path28" />
        <path
           d="m 321.35247,181.75558 -4.87425,9.74849 h 9.7485 z"
           clip-path="url(#p0a2906da6e)"
           style="fill:#006699;stroke:#006699;stroke-width:0.886227"
           id="path29" />
        <path
           d="m 321.35247,175.56871 -4.87425,9.7485 h 9.7485 z"
           clip-path="url(#p0a2906da6e)"
           style="fill:#006699;stroke:#006699;stroke-width:0.886227"
           id="path30" />
        <path
           d="m 374.98613,102.77837 -4.87424,9.74849 h 9.74849 z"
           clip-path="url(#p0a2906da6e)"
           style="fill:#006699;stroke:#006699;stroke-width:0.886227"
           id="path31" />
        <path
           d="m 374.98613,107.07129 -4.87424,9.7485 h 9.74849 z"
           clip-path="url(#p0a2906da6e)"
           style="fill:#006699;stroke:#006699;stroke-width:0.886227"
           id="path32" />
        <path
           d="m 428.6198,77.967779 -4.87425,9.748496 h 9.7485 z"
           clip-path="url(#p0a2906da6e)"
           style="fill:#006699;stroke:#006699;stroke-width:0.886227"
           id="path33" />
        <path
           d="m 428.6198,73.737984 -4.87425,9.748497 h 9.7485 z"
           clip-path="url(#p0a2906da6e)"
           style="fill:#006699;stroke:#006699;stroke-width:0.886227"
           id="path34" />
      </g>
      <g
         id="PathCollection_3">
        <path
           d="m 53.184137,272.05957 c 1.292666,0 2.532561,-0.51358 3.446614,-1.42764 0.914053,-0.91405 1.427634,-2.15394 1.427634,-3.44661 0,-1.29266 -0.513581,-2.53256 -1.427634,-3.44661 -0.914053,-0.91406 -2.153948,-1.42764 -3.446614,-1.42764 -1.292666,0 -2.532561,0.51358 -3.446614,1.42764 -0.914052,0.91405 -1.427634,2.15395 -1.427634,3.44661 0,1.29267 0.513582,2.53256 1.427634,3.44661 0.914053,0.91406 2.153948,1.42764 3.446614,1.42764 z"
           clip-path="url(#p0a2906da6e)"
           style="fill:#006633;stroke:#006633;stroke-width:0.886227"
           id="path35" />
        <path
           d="m 53.184137,286.57976 c 1.292666,0 2.532561,-0.51358 3.446614,-1.42763 0.914053,-0.91406 1.427634,-2.15395 1.427634,-3.44662 0,-1.29266 -0.513581,-2.53256 -1.427634,-3.44661 -0.914053,-0.91405 -2.153948,-1.42764 -3.446614,-1.42764 -1.292666,0 -2.532561,0.51359 -3.446614,1.42764 -0.914052,0.91405 -1.427634,2.15395 -1.427634,3.44661 0,1.29267 0.513582,2.53256 1.427634,3.44662 0.914053,0.91405 2.153948,1.42763 3.446614,1.42763 z"
           clip-path="url(#p0a2906da6e)"
           style="fill:#006633;stroke:#006633;stroke-width:0.886227"
           id="path36" />
        <path
           d="m 106.8178,226.2894 c 1.29267,0 2.53256,-0.51358 3.44662,-1.42763 0.91405,-0.91406 1.42763,-2.15395 1.42763,-3.44662 0,-1.29266 -0.51358,-2.53256 -1.42763,-3.44661 -0.91406,-0.91405 -2.15395,-1.42763 -3.44662,-1.42763 -1.29266,0 -2.53256,0.51358 -3.44661,1.42763 -0.91405,0.91405 -1.42763,2.15395 -1.42763,3.44661 0,1.29267 0.51358,2.53256 1.42763,3.44662 0.91405,0.91405 2.15395,1.42763 3.44661,1.42763 z"
           clip-path="url(#p0a2906da6e)"
           style="fill:#006633;stroke:#006633;stroke-width:0.886227"
           id="path37" />
        <path
           d="m 106.8178,240.87272 c 1.29267,0 2.53256,-0.51358 3.44662,-1.42763 0.91405,-0.91405 1.42763,-2.15395 1.42763,-3.44661 0,-1.29267 -0.51358,-2.53257 -1.42763,-3.44662 -0.91406,-0.91405 -2.15395,-1.42763 -3.44662,-1.42763 -1.29266,0 -2.53256,0.51358 -3.44661,1.42763 -0.91405,0.91405 -1.42763,2.15395 -1.42763,3.44662 0,1.29266 0.51358,2.53256 1.42763,3.44661 0.91405,0.91405 2.15395,1.42763 3.44661,1.42763 z"
           clip-path="url(#p0a2906da6e)"
           style="fill:#006633;stroke:#006633;stroke-width:0.886227"
           id="path38" />
        <path
           d="m 160.45147,199.0167 c 1.29266,0 2.53256,-0.51359 3.44661,-1.42764 0.91406,-0.91405 1.42764,-2.15395 1.42764,-3.44661 0,-1.29267 -0.51358,-2.53256 -1.42764,-3.44662 -0.91405,-0.91405 -2.15395,-1.42763 -3.44661,-1.42763 -1.29267,0 -2.53256,0.51358 -3.44661,1.42763 -0.91406,0.91406 -1.42764,2.15395 -1.42764,3.44662 0,1.29266 0.51358,2.53256 1.42764,3.44661 0.91405,0.91405 2.15394,1.42764 3.44661,1.42764 z"
           clip-path="url(#p0a2906da6e)"
           style="fill:#006633;stroke:#006633;stroke-width:0.886227"
           id="path39" />
        <path
           d="m 160.45147,148.63795 c 1.29266,0 2.53256,-0.51359 3.44661,-1.42764 0.91406,-0.91405 1.42764,-2.15395 1.42764,-3.44661 0,-1.29267 -0.51358,-2.53256 -1.42764,-3.44662 -0.91405,-0.91405 -2.15395,-1.42763 -3.44661,-1.42763 -1.29267,0 -2.53256,0.51358 -3.44661,1.42763 -0.91406,0.91406 -1.42764,2.15395 -1.42764,3.44662 0,1.29266 0.51358,2.53256 1.42764,3.44661 0.91405,0.91405 2.15394,1.42764 3.44661,1.42764 z"
           clip-path="url(#p0a2906da6e)"
           style="fill:#006633;stroke:#006633;stroke-width:0.886227"
           id="path40" />
        <path
           d="m 214.08514,215.68335 c 1.29266,0 2.53256,-0.51358 3.44661,-1.42763 0.91405,-0.91406 1.42763,-2.15395 1.42763,-3.44662 0,-1.29266 -0.51358,-2.53256 -1.42763,-3.44661 -0.91405,-0.91406 -2.15395,-1.42764 -3.44661,-1.42764 -1.29267,0 -2.53257,0.51358 -3.44662,1.42764 -0.91405,0.91405 -1.42763,2.15395 -1.42763,3.44661 0,1.29267 0.51358,2.53256 1.42763,3.44662 0.91405,0.91405 2.15395,1.42763 3.44662,1.42763 z"
           clip-path="url(#p0a2906da6e)"
           style="fill:#006633;stroke:#006633;stroke-width:0.886227"
           id="path41" />
        <path
           d="m 214.08514,185.00155 c 1.29266,0 2.53256,-0.51358 3.44661,-1.42763 0.91405,-0.91405 1.42763,-2.15395 1.42763,-3.44661 0,-1.29267 -0.51358,-2.53256 -1.42763,-3.44662 -0.91405,-0.91405 -2.15395,-1.42763 -3.44661,-1.42763 -1.29267,0 -2.53257,0.51358 -3.44662,1.42763 -0.91405,0.91406 -1.42763,2.15395 -1.42763,3.44662 0,1.29266 0.51358,2.53256 1.42763,3.44661 0.91405,0.91405 2.15395,1.42763 3.44662,1.42763 z"
           clip-path="url(#p0a2906da6e)"
           style="fill:#006633;stroke:#006633;stroke-width:0.886227"
           id="path42" />
        <path
           d="m 267.7188,312.46358 c 1.29267,0 2.53256,-0.51358 3.44662,-1.42763 0.91405,-0.91406 1.42763,-2.15395 1.42763,-3.44662 0,-1.29266 -0.51358,-2.53256 -1.42763,-3.44661 -0.91406,-0.91406 -2.15395,-1.42764 -3.44662,-1.42764 -1.29266,0 -2.53256,0.51358 -3.44661,1.42764 -0.91406,0.91405 -1.42764,2.15395 -1.42764,3.44661 0,1.29267 0.51358,2.53256 1.42764,3.44662 0.91405,0.91405 2.15395,1.42763 3.44661,1.42763 z"
           clip-path="url(#p0a2906da6e)"
           style="fill:#006633;stroke:#006633;stroke-width:0.886227"
           id="path43" />
        <path
           d="m 267.7188,298.70096 c 1.29267,0 2.53256,-0.51358 3.44662,-1.42763 0.91405,-0.91405 1.42763,-2.15395 1.42763,-3.44662 0,-1.29266 -0.51358,-2.53256 -1.42763,-3.44661 -0.91406,-0.91405 -2.15395,-1.42763 -3.44662,-1.42763 -1.29266,0 -2.53256,0.51358 -3.44661,1.42763 -0.91406,0.91405 -1.42764,2.15395 -1.42764,3.44661 0,1.29267 0.51358,2.53257 1.42764,3.44662 0.91405,0.91405 2.15395,1.42763 3.44661,1.42763 z"
           clip-path="url(#p0a2906da6e)"
           style="fill:#006633;stroke:#006633;stroke-width:0.886227"
           id="path44" />
        <path
           d="m 321.35247,257.22372 c 1.29266,0 2.53256,-0.51358 3.44661,-1.42763 0.91406,-0.91406 1.42764,-2.15395 1.42764,-3.44662 0,-1.29266 -0.51358,-2.53256 -1.42764,-3.44661 -0.91405,-0.91405 -2.15395,-1.42763 -3.44661,-1.42763 -1.29267,0 -2.53256,0.51358 -3.44662,1.42763 -0.91405,0.91405 -1.42763,2.15395 -1.42763,3.44661 0,1.29267 0.51358,2.53256 1.42763,3.44662 0.91406,0.91405 2.15395,1.42763 3.44662,1.42763 z"
           clip-path="url(#p0a2906da6e)"
           style="fill:#006633;stroke:#006633;stroke-width:0.886227"
           id="path45" />
        <path
           d="m 321.35247,267.64038 c 1.29266,0 2.53256,-0.51358 3.44661,-1.42763 0.91406,-0.91406 1.42764,-2.15395 1.42764,-3.44662 0,-1.29266 -0.51358,-2.53256 -1.42764,-3.44661 -0.91405,-0.91405 -2.15395,-1.42764 -3.44661,-1.42764 -1.29267,0 -2.53256,0.51359 -3.44662,1.42764 -0.91405,0.91405 -1.42763,2.15395 -1.42763,3.44661 0,1.29267 0.51358,2.53256 1.42763,3.44662 0.91406,0.91405 2.15395,1.42763 3.44662,1.42763 z"
           clip-path="url(#p0a2906da6e)"
           style="fill:#006633;stroke:#006633;stroke-width:0.886227"
           id="path46" />
        <path
           d="m 374.98613,247.75403 c 1.29267,0 2.53256,-0.51358 3.44662,-1.42763 0.91405,-0.91405 1.42763,-2.15395 1.42763,-3.44662 0,-1.29266 -0.51358,-2.53256 -1.42763,-3.44661 -0.91406,-0.91405 -2.15395,-1.42763 -3.44662,-1.42763 -1.29266,0 -2.53256,0.51358 -3.44661,1.42763 -0.91405,0.91405 -1.42763,2.15395 -1.42763,3.44661 0,1.29267 0.51358,2.53257 1.42763,3.44662 0.91405,0.91405 2.15395,1.42763 3.44661,1.42763 z"
           clip-path="url(#p0a2906da6e)"
           style="fill:#006633;stroke:#006633;stroke-width:0.886227"
           id="path47" />
        <path
           d="m 374.98613,238.4106 c 1.29267,0 2.53256,-0.51358 3.44662,-1.42763 0.91405,-0.91405 1.42763,-2.15395 1.42763,-3.44661 0,-1.29267 -0.51358,-2.53256 -1.42763,-3.44662 -0.91406,-0.91405 -2.15395,-1.42763 -3.44662,-1.42763 -1.29266,0 -2.53256,0.51358 -3.44661,1.42763 -0.91405,0.91406 -1.42763,2.15395 -1.42763,3.44662 0,1.29266 0.51358,2.53256 1.42763,3.44661 0.91405,0.91405 2.15395,1.42763 3.44661,1.42763 z"
           clip-path="url(#p0a2906da6e)"
           style="fill:#006633;stroke:#006633;stroke-width:0.886227"
           id="path48" />
        <path
           d="m 428.6198,243.77676 c 1.29267,0 2.53256,-0.51358 3.44661,-1.42763 0.91406,-0.91405 1.42764,-2.15395 1.42764,-3.44662 0,-1.29266 -0.51358,-2.53256 -1.42764,-3.44661 -0.91405,-0.91405 -2.15394,-1.42763 -3.44661,-1.42763 -1.29267,0 -2.53256,0.51358 -3.44661,1.42763 -0.91406,0.91405 -1.42764,2.15395 -1.42764,3.44661 0,1.29267 0.51358,2.53257 1.42764,3.44662 0.91405,0.91405 2.15394,1.42763 3.44661,1.42763 z"
           clip-path="url(#p0a2906da6e)"
           style="fill:#006633;stroke:#006633;stroke-width:0.886227"
           id="path49" />
        <path
           d="m 428.6198,231.40303 c 1.29267,0 2.53256,-0.51358 3.44661,-1.42763 0.91406,-0.91405 1.42764,-2.15395 1.42764,-3.44661 0,-1.29267 -0.51358,-2.53256 -1.42764,-3.44662 -0.91405,-0.91405 -2.15394,-1.42763 -3.44661,-1.42763 -1.29267,0 -2.53256,0.51358 -3.44661,1.42763 -0.91406,0.91406 -1.42764,2.15395 -1.42764,3.44662 0,1.29266 0.51358,2.53256 1.42764,3.44661 0.91405,0.91405 2.15394,1.42763 3.44661,1.42763 z"
           clip-path="url(#p0a2906da6e)"
           style="fill:#006633;stroke:#006633;stroke-width:0.886227"
           id="path50" />
      </g>
      <g
         id="PathCollection_4">
        <path
           d="m 48.309889,153.68845 h 9.748496 v -9.7485 h -9.748496 z"
           clip-path="url(#p0a2906da6e)"
           style="fill:#cc0033;stroke:#cc0033;stroke-width:0.886227"
           id="path51" />
        <path
           d="m 48.309889,155.07733 h 9.748496 v -9.74849 h -9.748496 z"
           clip-path="url(#p0a2906da6e)"
           style="fill:#cc0033;stroke:#cc0033;stroke-width:0.886227"
           id="path52" />
        <path
           d="m 101.94356,117.4511 h 9.74849 v -9.74849 h -9.74849 z"
           clip-path="url(#p0a2906da6e)"
           style="fill:#cc0033;stroke:#cc0033;stroke-width:0.886227"
           id="path53" />
        <path
           d="m 101.94356,113.97888 h 9.74849 v -9.7485 h -9.74849 z"
           clip-path="url(#p0a2906da6e)"
           style="fill:#cc0033;stroke:#cc0033;stroke-width:0.886227"
           id="path54" />
        <path
           d="m 155.57722,79.572342 h 9.7485 v -9.748496 h -9.7485 z"
           clip-path="url(#p0a2906da6e)"
           style="fill:#cc0033;stroke:#cc0033;stroke-width:0.886227"
           id="path55" />
        <path
           d="m 155.57722,75.784466 h 9.7485 V 66.03597 h -9.7485 z"
           clip-path="url(#p0a2906da6e)"
           style="fill:#cc0033;stroke:#cc0033;stroke-width:0.886227"
           id="path56" />
        <path
           d="m 209.21089,75.216285 h 9.74849 v -9.748496 h -9.74849 z"
           clip-path="url(#p0a2906da6e)"
           style="fill:#cc0033;stroke:#cc0033;stroke-width:0.886227"
           id="path57" />
        <path
           d="m 209.21089,71.112753 h 9.74849 v -9.748497 h -9.74849 z"
           clip-path="url(#p0a2906da6e)"
           style="fill:#cc0033;stroke:#cc0033;stroke-width:0.886227"
           id="path58" />
        <path
           d="m 262.84455,183.6758 h 9.7485 v -9.7485 h -9.7485 z"
           clip-path="url(#p0a2906da6e)"
           style="fill:#cc0033;stroke:#cc0033;stroke-width:0.886227"
           id="path59" />
        <path
           d="m 262.84455,172.81722 h 9.7485 v -9.7485 h -9.7485 z"
           clip-path="url(#p0a2906da6e)"
           style="fill:#cc0033;stroke:#cc0033;stroke-width:0.886227"
           id="path60" />
        <path
           d="m 316.47822,138.66321 h 9.7485 v -9.7485 h -9.7485 z"
           clip-path="url(#p0a2906da6e)"
           style="fill:#cc0033;stroke:#cc0033;stroke-width:0.886227"
           id="path61" />
        <path
           d="m 316.47822,135.19099 h 9.7485 v -9.7485 h -9.7485 z"
           clip-path="url(#p0a2906da6e)"
           style="fill:#cc0033;stroke:#cc0033;stroke-width:0.886227"
           id="path62" />
        <path
           d="m 370.11189,96.302127 h 9.74849 v -9.748496 h -9.74849 z"
           clip-path="url(#p0a2906da6e)"
           style="fill:#cc0033;stroke:#cc0033;stroke-width:0.886227"
           id="path63" />
        <path
           d="m 370.11189,92.766777 h 9.74849 V 83.01828 h -9.74849 z"
           clip-path="url(#p0a2906da6e)"
           style="fill:#cc0033;stroke:#cc0033;stroke-width:0.886227"
           id="path64" />
        <path
           d="m 423.74555,91.251626 h 9.7485 V 81.50313 h -9.7485 z"
           clip-path="url(#p0a2906da6e)"
           style="fill:#cc0033;stroke:#cc0033;stroke-width:0.886227"
           id="path65" />
        <path
           d="m 423.74555,81.908199 h 9.7485 v -9.748496 h -9.7485 z"
           clip-path="url(#p0a2906da6e)"
           style="fill:#cc0033;stroke:#cc0033;stroke-width:0.886227"
           id="path66" />
      </g>
      <g
         id="line2d_1">
        <path
           d="m 53.184137,267.18532 v 14.52019 L 106.8178,221.41515 v 14.58333 l 53.63367,-41.85603 V 143.7637 l 53.63367,67.0454 v -30.68179 l 53.63366,127.46202 v -13.76262 l 53.63367,-41.47724 v 10.41666 l 53.63366,-19.88635 v -9.34342 l 53.63367,5.36615 v -12.37372"
           clip-path="url(#p0a2906da6e)"
           style="fill:none;stroke:#006633;stroke-width:1.77245"
           id="path67" />
      </g>
      <g
         id="line2d_2">
        <path
           d="m 53.184137,175.07681 v 0.94696 l 53.633663,-34.3434 v -17.73989 l 53.63367,-46.338348 v -3.661613 l 53.63367,-0.50505 V 65.733454 L 267.7188,233.78888 v -8.01767 l 53.63367,-39.14138 v -6.18687 l 53.63366,-72.79035 v 4.29293 L 428.6198,82.842027 v -4.229794"
           clip-path="url(#p0a2906da6e)"
           style="fill:none;stroke:#006699;stroke-width:1.77245"
           id="path68" />
      </g>
      <g
         id="line2d_3">
        <path
           d="m 53.184137,148.8142 v 1.38889 L 106.8178,112.57685 v -3.47222 l 53.63367,-34.406536 v -3.787876 l 53.63367,-0.568181 V 66.238505 L 267.7188,178.80155 v -10.85858 l 53.63367,-34.15401 v -3.47222 l 53.63366,-38.888861 v -3.53535 l 53.63367,-1.515151 v -9.343427"
           clip-path="url(#p0a2906da6e)"
           style="fill:none;stroke:#cc0033;stroke-width:1.77245"
           id="path69" />
      </g>
      <g
         id="line2d_4">
        <path
           d="m 53.184137,153.48591 v 2.46212 L 106.8178,117.3117 v -8.64898 l 53.63367,-28.6616 v -5.934339 l 53.63367,4.48232 V 70.089512 L 267.7188,194.33184 v -21.52776 l 53.63367,-35.92169 v -9.84848 l 53.63366,-24.11614 V 84.546571 L 428.6198,96.225856 V 82.715765"
           clip-path="url(#p0a2906da6e)"
           style="fill:none;stroke:#ff9900;stroke-width:1.77245"
           id="path70" />
      </g>
    </g>
    <g
       id="text_1">
      <!-- ploidy_het -->
      <g
         transform="matrix(0.11,0,0,-0.11,212.46611,338.39841)"
         id="g79">
        <defs
           id="defs70">
          <path
             id="DejaVuSans-70"
             d="M 1159,525 V -1331 H 581 v 4831 h 578 v -531 q 182,312 458,463 277,152 661,152 638,0 1036,-506 399,-506 399,-1331 0,-825 -399,-1332 -398,-506 -1036,-506 -384,0 -661,152 -276,152 -458,464 z m 1957,1222 q 0,634 -261,995 -261,361 -717,361 -457,0 -718,-361 -261,-361 -261,-995 0,-634 261,-995 261,-361 718,-361 456,0 717,361 261,361 261,995 z"
             transform="scale(0.015625)" />
          <path
             id="DejaVuSans-6c"
             d="m 603,4863 h 575 V 0 H 603 Z"
             transform="scale(0.015625)" />
          <path
             id="DejaVuSans-6f"
             d="m 1959,3097 q -462,0 -731,-361 -269,-361 -269,-989 0,-628 267,-989 268,-361 733,-361 460,0 728,362 269,363 269,988 0,622 -269,986 -268,364 -728,364 z m 0,487 q 750,0 1178,-488 429,-487 429,-1349 Q 3566,888 3137,398 2709,-91 1959,-91 1206,-91 779,398 353,888 353,1747 q 0,862 426,1349 427,488 1180,488 z"
             transform="scale(0.015625)" />
          <path
             id="DejaVuSans-69"
             d="m 603,3500 h 575 V 0 H 603 Z m 0,1363 h 575 V 4134 H 603 Z"
             transform="scale(0.015625)" />
          <path
             id="DejaVuSans-64"
             d="m 2906,2969 v 1894 h 575 V 0 H 2906 V 525 Q 2725,213 2448,61 2172,-91 1784,-91 1150,-91 751,415 353,922 353,1747 q 0,825 398,1331 399,506 1033,506 388,0 664,-152 277,-151 458,-463 z M 947,1747 q 0,-634 261,-995 261,-361 717,-361 456,0 718,361 263,361 263,995 0,634 -263,995 -262,361 -718,361 -456,0 -717,-361 -261,-361 -261,-995 z"
             transform="scale(0.015625)" />
          <path
             id="DejaVuSans-79"
             d="m 2059,-325 q -243,-625 -475,-815 -231,-191 -618,-191 H 506 v 481 h 338 q 237,0 368,113 132,112 291,531 L 1606,56 191,3500 H 800 L 1894,763 2988,3500 h 609 z"
             transform="scale(0.015625)" />
          <path
             id="DejaVuSans-5f"
             d="m 3263,-1063 v -446 H -63 v 446 z"
             transform="scale(0.015625)" />
          <path
             id="DejaVuSans-68"
             d="M 3513,2113 V 0 h -575 v 2094 q 0,497 -194,743 -194,247 -581,247 -466,0 -735,-297 -269,-296 -269,-809 V 0 H 581 v 4863 h 578 V 2956 q 207,316 486,472 280,156 646,156 603,0 912,-373 310,-373 310,-1098 z"
             transform="scale(0.015625)" />
          <path
             id="DejaVuSans-65"
             d="M 3597,1894 V 1613 H 953 q 38,-594 358,-905 320,-311 892,-311 331,0 642,81 311,81 618,244 V 178 Q 3153,47 2828,-22 2503,-91 2169,-91 1331,-91 842,396 353,884 353,1716 q 0,859 464,1363 464,505 1252,505 706,0 1117,-455 411,-454 411,-1235 z m -575,169 q -6,471 -264,752 -258,282 -683,282 -481,0 -770,-272 -289,-272 -333,-766 z"
             transform="scale(0.015625)" />
          <path
             id="DejaVuSans-74"
             d="M 1172,4494 V 3500 H 2356 V 3053 H 1172 V 1153 q 0,-428 117,-550 117,-122 477,-122 h 590 V 0 H 1766 Q 1100,0 847,248 594,497 594,1153 V 3053 H 172 v 447 h 422 v 994 z"
             transform="scale(0.015625)" />
        </defs>
        <use
           xlink:href="#DejaVuSans-70"
           id="use70" />
        <use
           xlink:href="#DejaVuSans-6c"
           x="63.476562"
           id="use71" />
        <use
           xlink:href="#DejaVuSans-6f"
           x="91.259766"
           id="use72" />
        <use
           xlink:href="#DejaVuSans-69"
           x="152.44141"
           id="use73" />
        <use
           xlink:href="#DejaVuSans-64"
           x="180.22461"
           id="use74" />
        <use
           xlink:href="#DejaVuSans-79"
           x="243.70117"
           id="use75" />
        <use
           xlink:href="#DejaVuSans-5f"
           x="302.88086"
           id="use76" />
        <use
           xlink:href="#DejaVuSans-68"
           x="352.88086"
           id="use77" />
        <use
           xlink:href="#DejaVuSans-65"
           x="416.25977"
           id="use78" />
        <use
           xlink:href="#DejaVuSans-74"
           x="477.7832"
           id="use79" />
      </g>
    </g>
    <g
       id="text_2">
      <!-- accuracy -->
      <g
         transform="matrix(0,-0.11,-0.11,0,8.358281,211.4767)"
         id="g87">
        <defs
           id="defs79">
          <path
             id="DejaVuSans-61"
             d="m 2194,1759 q -697,0 -966,-159 -269,-159 -269,-544 0,-306 202,-486 202,-179 548,-179 479,0 768,339 289,339 289,901 v 128 z m 1147,238 V 0 H 2766 V 531 Q 2569,213 2275,61 1981,-91 1556,-91 q -537,0 -855,302 -317,302 -317,808 0,590 395,890 396,300 1180,300 h 807 v 57 q 0,397 -261,614 -261,217 -733,217 -300,0 -585,-72 -284,-72 -546,-216 v 532 q 315,122 612,182 297,61 578,61 760,0 1135,-394 375,-393 375,-1193 z"
             transform="scale(0.015625)" />
          <path
             id="DejaVuSans-63"
             d="m 3122,3366 v -538 q -244,135 -489,202 -245,67 -495,67 -560,0 -870,-355 -309,-354 -309,-995 0,-641 309,-996 310,-354 870,-354 250,0 495,67 245,67 489,202 V 134 Q 2881,22 2623,-34 2366,-91 2075,-91 1284,-91 818,406 353,903 353,1747 q 0,856 470,1346 471,491 1290,491 265,0 518,-55 253,-54 491,-163 z"
             transform="scale(0.015625)" />
          <path
             id="DejaVuSans-75"
             d="m 544,1381 v 2119 h 575 V 1403 q 0,-497 193,-746 194,-248 582,-248 465,0 735,297 271,297 271,810 v 1984 h 575 V 0 H 2900 V 538 Q 2691,219 2414,64 2138,-91 1772,-91 1169,-91 856,284 544,659 544,1381 Z m 1447,2203 z"
             transform="scale(0.015625)" />
          <path
             id="DejaVuSans-72"
             d="m 2631,2963 q -97,56 -211,82 -114,27 -251,27 -488,0 -749,-317 -261,-317 -261,-911 V 0 H 581 v 3500 h 578 v -544 q 182,319 472,473 291,155 707,155 59,0 131,-8 72,-7 159,-23 z"
             transform="scale(0.015625)" />
        </defs>
        <use
           xlink:href="#DejaVuSans-61"
           id="use80" />
        <use
           xlink:href="#DejaVuSans-63"
           x="61.279297"
           id="use81" />
        <use
           xlink:href="#DejaVuSans-63"
           x="116.25977"
           id="use82" />
        <use
           xlink:href="#DejaVuSans-75"
           x="171.24023"
           id="use83" />
        <use
           xlink:href="#DejaVuSans-72"
           x="234.61914"
           id="use84" />
        <use
           xlink:href="#DejaVuSans-61"
           x="275.73242"
           id="use85" />
        <use
           xlink:href="#DejaVuSans-63"
           x="337.01172"
           id="use86" />
        <use
           xlink:href="#DejaVuSans-79"
           x="391.99219"
           id="use87" />
      </g>
    </g>
    <g
       id="patch_3">
      <path
         d="M 48.643304,39.816661 H 433.16063 V 5.608 H 48.643304 Z"
         style="fill:none"
         id="path87" />
    </g>
    <g
       id="text_3">
      <!-- tools -->
      <g
         transform="matrix(0.11,0,0,-0.11,48.843304,17.201594)"
         id="g92">
        <defs
           id="defs87">
          <path
             id="DejaVuSans-73"
             d="m 2834,3397 v -544 q -243,125 -506,187 -262,63 -544,63 -428,0 -642,-131 -214,-131 -214,-394 0,-200 153,-314 153,-114 616,-217 l 197,-44 q 612,-131 870,-370 258,-239 258,-667 0,-488 -386,-773 Q 2250,-91 1575,-91 1294,-91 989,-36 684,19 347,128 v 594 q 319,-166 628,-249 309,-82 613,-82 406,0 624,139 219,139 219,392 0,234 -158,359 -157,125 -692,241 l -200,47 q -534,112 -772,345 -237,233 -237,639 0,494 350,762 350,269 994,269 318,0 599,-47 282,-46 519,-140 z"
             transform="scale(0.015625)" />
        </defs>
        <use
           xlink:href="#DejaVuSans-74"
           id="use88" />
        <use
           xlink:href="#DejaVuSans-6f"
           x="39.208984"
           id="use89" />
        <use
           xlink:href="#DejaVuSans-6f"
           x="100.39062"
           id="use90" />
        <use
           xlink:href="#DejaVuSans-6c"
           x="161.57227"
           id="use91" />
        <use
           xlink:href="#DejaVuSans-73"
           x="189.35547"
           id="use92" />
      </g>
    </g>
    <g
       id="patch_4">
      <path
         d="M 48.843304,39.616661 H 67.398027 V 21.061938 H 48.843304 Z"
         clip-path="url(#p3400acaad5)"
         style="fill:none"
         id="path92" />
    </g>
    <g
       id="line2d_5">
      <path
         d="M 58.120665,30.339299"
         clip-path="url(#p3400acaad5)"
         style="fill:none;stroke:#1f77b4;stroke-width:1.5;stroke-linecap:square"
         id="path93" />
      <defs
         id="defs93">
        <path
           id="md5f2e93fca"
           d="m 0,4.874248 c 1.292666,0 2.532561,-0.513581 3.446614,-1.427634 C 4.360667,2.532561 4.874248,1.292666 4.874248,0 c 0,-1.292666 -0.513581,-2.532561 -1.427634,-3.446614 C 2.532561,-4.360667 1.292666,-4.874248 0,-4.874248 c -1.292666,0 -2.532561,0.513581 -3.446614,1.427634 C -4.360667,-2.532561 -4.874248,-1.292666 -4.874248,0 c 0,1.292666 0.513581,2.532561 1.427634,3.446614 C -2.532561,4.360667 -1.292666,4.874248 0,4.874248 Z"
           style="stroke:#006633;stroke-width:0.886227" />
      </defs>
      <g
         clip-path="url(#p3400acaad5)"
         id="g93">
        <use
           xlink:href="#md5f2e93fca"
           x="58.120667"
           y="30.339298"
           style="fill:#006633;stroke:#006633;stroke-width:0.886227"
           id="use93" />
      </g>
    </g>
    <g
       id="line2d_6">
      <path
         d="M 48.843304,30.339299 H 67.398027"
         clip-path="url(#p3400acaad5)"
         style="fill:none;stroke:#006633;stroke-width:1.77245"
         id="path94" />
    </g>
    <g
       id="text_4">
      <!-- flopp -->
      <g
         transform="matrix(0.14,0,0,-0.14,70.398027,34.202424)"
         id="g98">
        <defs
           id="defs94">
          <path
             id="DejaVuSans-66"
             d="m 2375,4863 v -479 h -550 q -309,0 -430,-125 -120,-125 -120,-450 v -309 h 947 V 3053 H 1275 V 0 H 697 V 3053 H 147 v 447 h 550 v 244 q 0,584 272,851 272,268 862,268 z"
             transform="scale(0.015625)" />
        </defs>
        <use
           xlink:href="#DejaVuSans-66"
           id="use94" />
        <use
           xlink:href="#DejaVuSans-6c"
           x="35.205078"
           id="use95" />
        <use
           xlink:href="#DejaVuSans-6f"
           x="62.988281"
           id="use96" />
        <use
           xlink:href="#DejaVuSans-70"
           x="124.16992"
           id="use97" />
        <use
           xlink:href="#DejaVuSans-70"
           x="187.64648"
           id="use98" />
      </g>
    </g>
    <g
       id="patch_5">
      <path
         d="m 110.55771,39.616661 h 18.55473 V 21.061938 h -18.55473 z"
         clip-path="url(#p6a63747cf1)"
         style="fill:none"
         id="path98" />
    </g>
    <g
       id="line2d_7">
      <path
         d="M 119.83508,30.339299"
         clip-path="url(#p6a63747cf1)"
         style="fill:none;stroke:#1f77b4;stroke-width:1.5;stroke-linecap:square"
         id="path99" />
      <defs
         id="defs99">
        <path
           id="m890242a8ae"
           d="M 0,-4.874248 -4.874248,4.874248 H 4.874248 Z"
           style="stroke:#006699;stroke-width:0.886227;stroke-linejoin:miter" />
      </defs>
      <g
         clip-path="url(#p6a63747cf1)"
         id="g99">
        <use
           xlink:href="#m890242a8ae"
           x="119.83508"
           y="30.339298"
           style="fill:#006699;stroke:#006699;stroke-width:0.886227;stroke-linejoin:miter"
           id="use99" />
      </g>
    </g>
    <g
       id="line2d_8">
      <path
         d="m 110.55771,30.339299 h 18.55473"
         clip-path="url(#p6a63747cf1)"
         style="fill:none;stroke:#006699;stroke-width:1.77245"
         id="path100" />
    </g>
    <g
       id="text_5">
      <!-- nPhase -->
      <g
         transform="matrix(0.14,0,0,-0.14,132.11244,34.202424)"
         id="g105">
        <defs
           id="defs100">
          <path
             id="DejaVuSans-6e"
             d="M 3513,2113 V 0 h -575 v 2094 q 0,497 -194,743 -194,247 -581,247 -466,0 -735,-297 -269,-296 -269,-809 V 0 H 581 v 3500 h 578 v -544 q 207,316 486,472 280,156 646,156 603,0 912,-373 310,-373 310,-1098 z"
             transform="scale(0.015625)" />
          <path
             id="DejaVuSans-50"
             d="M 1259,4147 V 2394 h 794 q 441,0 681,228 241,228 241,650 0,419 -241,647 -240,228 -681,228 z m -631,519 h 1425 q 785,0 1186,-355 402,-355 402,-1039 0,-691 -402,-1044 -401,-353 -1186,-353 H 1259 V 0 H 628 Z"
             transform="scale(0.015625)" />
        </defs>
        <use
           xlink:href="#DejaVuSans-6e"
           id="use100" />
        <use
           xlink:href="#DejaVuSans-50"
           x="63.378906"
           id="use101" />
        <use
           xlink:href="#DejaVuSans-68"
           x="123.68164"
           id="use102" />
        <use
           xlink:href="#DejaVuSans-61"
           x="187.06055"
           id="use103" />
        <use
           xlink:href="#DejaVuSans-73"
           x="248.33984"
           id="use104" />
        <use
           xlink:href="#DejaVuSans-65"
           x="300.43945"
           id="use105" />
      </g>
    </g>
    <g
       id="patch_6">
      <path
         d="M 187.78587,39.616661 H 206.3406 V 21.061938 h -18.55473 z"
         clip-path="url(#p0af433d991)"
         style="fill:none"
         id="path105" />
    </g>
    <g
       id="line2d_9">
      <path
         d="M 197.06324,30.339299"
         clip-path="url(#p0af433d991)"
         style="fill:none;stroke:#1f77b4;stroke-width:1.5;stroke-linecap:square"
         id="path106" />
      <defs
         id="defs106">
        <path
           id="mcf1bc1b2b7"
           d="M -4.874248,4.874248 H 4.874248 V -4.874248 H -4.874248 Z"
           style="stroke:#cc0033;stroke-width:0.886227;stroke-linejoin:miter" />
      </defs>
      <g
         clip-path="url(#p0af433d991)"
         id="g106">
        <use
           xlink:href="#mcf1bc1b2b7"
           x="197.06323"
           y="30.339298"
           style="fill:#cc0033;stroke:#cc0033;stroke-width:0.886227;stroke-linejoin:miter"
           id="use106" />
      </g>
    </g>
    <g
       id="line2d_10">
      <path
         d="M 187.78587,30.339299 H 206.3406"
         clip-path="url(#p0af433d991)"
         style="fill:none;stroke:#cc0033;stroke-width:1.77245"
         id="path107" />
    </g>
    <g
       id="text_6">
      <!-- nTChap -->
      <g
         transform="matrix(0.14,0,0,-0.14,209.3406,34.202424)"
         id="g112">
        <defs
           id="defs107">
          <path
             id="DejaVuSans-54"
             d="M -19,4666 H 3928 V 4134 H 2272 V 0 H 1638 V 4134 H -19 Z"
             transform="scale(0.015625)" />
          <path
             id="DejaVuSans-43"
             d="m 4122,4306 v -665 q -319,297 -680,443 -361,147 -767,147 -800,0 -1225,-489 -425,-489 -425,-1414 0,-922 425,-1411 425,-489 1225,-489 406,0 767,147 361,147 680,444 V 359 Q 3791,134 3420,21 3050,-91 2638,-91 1578,-91 968,557 359,1206 359,2328 q 0,1125 609,1773 610,649 1670,649 418,0 788,-111 371,-111 696,-333 z"
             transform="scale(0.015625)" />
        </defs>
        <use
           xlink:href="#DejaVuSans-6e"
           id="use107" />
        <use
           xlink:href="#DejaVuSans-54"
           x="63.378906"
           id="use108" />
        <use
           xlink:href="#DejaVuSans-43"
           x="118.58789"
           id="use109" />
        <use
           xlink:href="#DejaVuSans-68"
           x="188.41211"
           id="use110" />
        <use
           xlink:href="#DejaVuSans-61"
           x="251.79102"
           id="use111" />
        <use
           xlink:href="#DejaVuSans-70"
           x="313.07031"
           id="use112" />
      </g>
    </g>
    <g
       id="patch_7">
      <path
         d="m 267.05716,39.616661 h 18.55472 V 21.061938 h -18.55472 z"
         clip-path="url(#p69c4285f54)"
         style="fill:none"
         id="path112" />
    </g>
    <g
       id="line2d_11">
      <path
         d="M 276.33452,30.339299"
         clip-path="url(#p69c4285f54)"
         style="fill:none;stroke:#1f77b4;stroke-width:1.5;stroke-linecap:square"
         id="path113" />
      <defs
         id="defs113">
        <path
           id="me62dba9a1f"
           d="M 0,6.893228 6.893228,0 0,-6.893228 -6.893228,0 Z"
           style="stroke:#ff9900;stroke-width:0.886227;stroke-linejoin:miter" />
      </defs>
      <g
         clip-path="url(#p69c4285f54)"
         id="g113">
        <use
           xlink:href="#me62dba9a1f"
           x="276.33453"
           y="30.339298"
           style="fill:#ff9900;stroke:#ff9900;stroke-width:0.886227;stroke-linejoin:miter"
           id="use113" />
      </g>
    </g>
    <g
       id="line2d_12">
      <path
         d="m 267.05716,30.339299 h 18.55472"
         clip-path="url(#p69c4285f54)"
         style="fill:none;stroke:#ff9900;stroke-width:1.77245"
         id="path114" />
    </g>
    <g
       id="text_7">
      <!-- whatshap polyphase -->
      <g
         transform="matrix(0.14,0,0,-0.14,288.61188,34.202424)"
         id="g131">
        <defs
           id="defs114">
          <path
             id="DejaVuSans-77"
             d="m 269,3500 h 575 l 719,-2731 715,2731 h 678 l 719,-2731 716,2731 h 575 L 4050,0 H 3372 L 2619,2869 1863,0 h -679 z"
             transform="scale(0.015625)" />
          <path
             id="DejaVuSans-20"
             transform="scale(0.015625)"
             d="" />
        </defs>
        <use
           xlink:href="#DejaVuSans-77"
           id="use114" />
        <use
           xlink:href="#DejaVuSans-68"
           x="81.787109"
           id="use115" />
        <use
           xlink:href="#DejaVuSans-61"
           x="145.16602"
           id="use116" />
        <use
           xlink:href="#DejaVuSans-74"
           x="206.44531"
           id="use117" />
        <use
           xlink:href="#DejaVuSans-73"
           x="245.6543"
           id="use118" />
        <use
           xlink:href="#DejaVuSans-68"
           x="297.75391"
           id="use119" />
        <use
           xlink:href="#DejaVuSans-61"
           x="361.13281"
           id="use120" />
        <use
           xlink:href="#DejaVuSans-70"
           x="422.41211"
           id="use121" />
        <use
           xlink:href="#DejaVuSans-20"
           x="485.88867"
           id="use122" />
        <use
           xlink:href="#DejaVuSans-70"
           x="517.67578"
           id="use123" />
        <use
           xlink:href="#DejaVuSans-6f"
           x="581.15234"
           id="use124" />
        <use
           xlink:href="#DejaVuSans-6c"
           x="642.33398"
           id="use125" />
        <use
           xlink:href="#DejaVuSans-79"
           x="670.11719"
           id="use126" />
        <use
           xlink:href="#DejaVuSans-70"
           x="729.29688"
           id="use127" />
        <use
           xlink:href="#DejaVuSans-68"
           x="792.77344"
           id="use128" />
        <use
           xlink:href="#DejaVuSans-61"
           x="856.15234"
           id="use129" />
        <use
           xlink:href="#DejaVuSans-73"
           x="917.43164"
           id="use130" />
        <use
           xlink:href="#DejaVuSans-65"
           x="969.53125"
           id="use131" />
      </g>
    </g>
  </g>
  <defs
     id="defs134">
    <clipPath
       id="p0a2906da6e">
      <rect
         x="21.003939"
         y="53.640659"
         width="439.79605"
         height="266.04147"
         id="rect131" />
    </clipPath>
    <clipPath
       id="p3400acaad5">
      <path
         d="M 48.843304,39.616661 V 21.061938 h 18.554723 v 18.554723"
         id="path131" />
    </clipPath>
    <clipPath
       id="p6a63747cf1">
      <path
         d="M 110.55771,39.616661 V 21.061938 h 18.55473 v 18.554723"
         id="path132" />
    </clipPath>
    <clipPath
       id="p0af433d991">
      <path
         d="M 187.78587,39.616661 V 21.061938 h 18.55473 v 18.554723"
         id="path133" />
    </clipPath>
    <clipPath
       id="p69c4285f54">
      <path
         d="M 267.05716,39.616661 V 21.061938 h 18.55472 v 18.554723"
         id="path134" />
    </clipPath>
  </defs>
</svg>
