<?xml version="1.0" encoding="utf-8" standalone="no"?>
<!DOCTYPE svg PUBLIC "-//W3C//DTD SVG 1.1//EN"
  "http://www.w3.org/Graphics/SVG/1.1/DTD/svg11.dtd">
<svg xmlns:xlink="http://www.w3.org/1999/xlink" width="460.8pt" height="345.6pt" viewBox="0 0 460.8 345.6" xmlns="http://www.w3.org/2000/svg" version="1.1">
 <metadata>
  <rdf:RDF xmlns:dc="http://purl.org/dc/elements/1.1/" xmlns:cc="http://creativecommons.org/ns#" xmlns:rdf="http://www.w3.org/1999/02/22-rdf-syntax-ns#">
   <cc:Work>
    <dc:type rdf:resource="http://purl.org/dc/dcmitype/StillImage"/>
    <dc:date>2025-06-24T10:46:07.956529</dc:date>
    <dc:format>image/svg+xml</dc:format>
    <dc:creator>
     <cc:Agent>
      <dc:title>Matplotlib v3.7.3, https://matplotlib.org/</dc:title>
     </cc:Agent>
    </dc:creator>
   </cc:Work>
  </rdf:RDF>
 </metadata>
 <defs>
  <style type="text/css">*{stroke-linejoin: round; stroke-linecap: butt}</style>
 </defs>
 <g id="figure_1">
  <g id="patch_1">
   <path d="M 0 345.6 
L 460.8 345.6 
L 460.8 0 
L 0 0 
z
" style="fill: #ffffff; stroke: #ffffff; stroke-linejoin: miter"/>
  </g>
  <g id="axes_1">
   <g id="patch_2">
    <path d="M 21.003938 319.988062 
L 460.8 319.988062 
L 460.8 53.640661 
L 21.003938 53.640661 
L 21.003938 319.988062 
z
" style="fill: none"/>
   </g>
   <g id="matplotlib.axis_1">
    <g id="xtick_1"/>
    <g id="xtick_2"/>
    <g id="xtick_3"/>
    <g id="xtick_4"/>
    <g id="xtick_5"/>
    <g id="xtick_6"/>
    <g id="xtick_7"/>
   </g>
   <g id="matplotlib.axis_2">
    <g id="ytick_1"/>
    <g id="ytick_2"/>
    <g id="ytick_3"/>
    <g id="ytick_4"/>
    <g id="ytick_5"/>
    <g id="ytick_6"/>
    <g id="ytick_7"/>
    <g id="ytick_8"/>
    <g id="ytick_9"/>
    <g id="ytick_10"/>
    <g id="ytick_11"/>
    <g id="ytick_12"/>
   </g>
   <g id="PathCollection_1">
    <path d="M 40.994668 74.59098 
L 47.887895 67.697752 
L 40.994668 60.804525 
L 34.10144 67.697752 
z
" clip-path="url(#p99a7c67fa0)" style="fill: #ff9900; stroke: #ff9900; stroke-width: 0.886227"/>
    <path d="M 85.418512 72.640588 
L 92.31174 65.747361 
L 85.418512 58.854133 
L 78.525285 65.747361 
z
" clip-path="url(#p99a7c67fa0)" style="fill: #ff9900; stroke: #ff9900; stroke-width: 0.886227"/>
    <path d="M 129.842357 95.807437 
L 136.735585 88.914209 
L 129.842357 82.020981 
L 122.949129 88.914209 
z
" clip-path="url(#p99a7c67fa0)" style="fill: #ff9900; stroke: #ff9900; stroke-width: 0.886227"/>
    <path d="M 174.266202 117.452028 
L 181.159429 110.558801 
L 174.266202 103.665573 
L 167.372974 110.558801 
z
" clip-path="url(#p99a7c67fa0)" style="fill: #ff9900; stroke: #ff9900; stroke-width: 0.886227"/>
    <path d="M 218.690046 130.10579 
L 225.583274 123.212562 
L 218.690046 116.319334 
L 211.796819 123.212562 
z
" clip-path="url(#p99a7c67fa0)" style="fill: #ff9900; stroke: #ff9900; stroke-width: 0.886227"/>
    <path d="M 263.113891 152.416369 
L 270.007119 145.523141 
L 263.113891 138.629913 
L 256.220663 145.523141 
z
" clip-path="url(#p99a7c67fa0)" style="fill: #ff9900; stroke: #ff9900; stroke-width: 0.886227"/>
    <path d="M 307.537736 158.457826 
L 314.430964 151.564598 
L 307.537736 144.67137 
L 300.644508 151.564598 
z
" clip-path="url(#p99a7c67fa0)" style="fill: #ff9900; stroke: #ff9900; stroke-width: 0.886227"/>
    <path d="M 351.96158 170.302888 
L 358.854808 163.40966 
L 351.96158 156.516433 
L 345.068353 163.40966 
z
" clip-path="url(#p99a7c67fa0)" style="fill: #ff9900; stroke: #ff9900; stroke-width: 0.886227"/>
    <path d="M 396.385425 196.942385 
L 403.278653 190.049158 
L 396.385425 183.15593 
L 389.492197 190.049158 
z
" clip-path="url(#p99a7c67fa0)" style="fill: #ff9900; stroke: #ff9900; stroke-width: 0.886227"/>
    <path d="M 440.80927 196.371539 
L 447.702498 189.478311 
L 440.80927 182.585084 
L 433.916042 189.478311 
z
" clip-path="url(#p99a7c67fa0)" style="fill: #ff9900; stroke: #ff9900; stroke-width: 0.886227"/>
   </g>
   <g id="PathCollection_2">
    <path d="M 40.994668 108.015509 
L 36.12042 117.764005 
L 45.868916 117.764005 
z
" clip-path="url(#p99a7c67fa0)" style="fill: #006699; stroke: #006699; stroke-width: 0.886227"/>
    <path d="M 85.418512 115.436511 
L 80.544264 125.185008 
L 90.29276 125.185008 
z
" clip-path="url(#p99a7c67fa0)" style="fill: #006699; stroke: #006699; stroke-width: 0.886227"/>
    <path d="M 129.842357 121.002264 
L 124.968109 130.75076 
L 134.716605 130.75076 
z
" clip-path="url(#p99a7c67fa0)" style="fill: #006699; stroke: #006699; stroke-width: 0.886227"/>
    <path d="M 174.266202 153.730789 
L 169.391954 163.479285 
L 179.14045 163.479285 
z
" clip-path="url(#p99a7c67fa0)" style="fill: #006699; stroke: #006699; stroke-width: 0.886227"/>
    <path d="M 218.690046 157.869425 
L 213.815798 167.617921 
L 223.564294 167.617921 
z
" clip-path="url(#p99a7c67fa0)" style="fill: #006699; stroke: #006699; stroke-width: 0.886227"/>
    <path d="M 263.113891 163.482748 
L 258.239643 173.231244 
L 267.988139 173.231244 
z
" clip-path="url(#p99a7c67fa0)" style="fill: #006699; stroke: #006699; stroke-width: 0.886227"/>
    <path d="M 307.537736 195.450144 
L 302.663488 205.19864 
L 312.411984 205.19864 
z
" clip-path="url(#p99a7c67fa0)" style="fill: #006699; stroke: #006699; stroke-width: 0.886227"/>
    <path d="M 351.96158 197.067542 
L 347.087332 206.816038 
L 356.835829 206.816038 
z
" clip-path="url(#p99a7c67fa0)" style="fill: #006699; stroke: #006699; stroke-width: 0.886227"/>
    <path d="M 396.385425 222.660488 
L 391.511177 232.408984 
L 401.259673 232.408984 
z
" clip-path="url(#p99a7c67fa0)" style="fill: #006699; stroke: #006699; stroke-width: 0.886227"/>
    <path d="M 440.80927 232.650299 
L 435.935022 242.398795 
L 445.683518 242.398795 
z
" clip-path="url(#p99a7c67fa0)" style="fill: #006699; stroke: #006699; stroke-width: 0.886227"/>
   </g>
   <g id="PathCollection_3">
    <path d="M 40.994668 214.522464 
C 42.287333 214.522464 43.527229 214.008883 44.441281 213.09483 
C 45.355334 212.180778 45.868916 210.940882 45.868916 209.648216 
C 45.868916 208.355551 45.355334 207.115655 44.441281 206.201602 
C 43.527229 205.28755 42.287333 204.773968 40.994668 204.773968 
C 39.702002 204.773968 38.462106 205.28755 37.548054 206.201602 
C 36.634001 207.115655 36.12042 208.355551 36.12042 209.648216 
C 36.12042 210.940882 36.634001 212.180778 37.548054 213.09483 
C 38.462106 214.008883 39.702002 214.522464 40.994668 214.522464 
z
" clip-path="url(#p99a7c67fa0)" style="fill: #006633; stroke: #006633; stroke-width: 0.886227"/>
    <path d="M 85.418512 279.836803 
C 86.711178 279.836803 87.951074 279.323222 88.865126 278.409169 
C 89.779179 277.495116 90.29276 276.255221 90.29276 274.962555 
C 90.29276 273.669889 89.779179 272.429994 88.865126 271.515941 
C 87.951074 270.601889 86.711178 270.088307 85.418512 270.088307 
C 84.125847 270.088307 82.885951 270.601889 81.971898 271.515941 
C 81.057846 272.429994 80.544264 273.669889 80.544264 274.962555 
C 80.544264 276.255221 81.057846 277.495116 81.971898 278.409169 
C 82.885951 279.323222 84.125847 279.836803 85.418512 279.836803 
z
" clip-path="url(#p99a7c67fa0)" style="fill: #006633; stroke: #006633; stroke-width: 0.886227"/>
    <path d="M 129.842357 312.755611 
C 131.135023 312.755611 132.374918 312.242029 133.288971 311.327976 
C 134.203024 310.413924 134.716605 309.174028 134.716605 307.881362 
C 134.716605 306.588697 134.203024 305.348801 133.288971 304.434749 
C 132.374918 303.520696 131.135023 303.007114 129.842357 303.007114 
C 128.549691 303.007114 127.309796 303.520696 126.395743 304.434749 
C 125.48169 305.348801 124.968109 306.588697 124.968109 307.881362 
C 124.968109 309.174028 125.48169 310.413924 126.395743 311.327976 
C 127.309796 312.242029 128.549691 312.755611 129.842357 312.755611 
z
" clip-path="url(#p99a7c67fa0)" style="fill: #006633; stroke: #006633; stroke-width: 0.886227"/>
    <path d="M 174.266202 235.405927 
C 175.558867 235.405927 176.798763 234.892346 177.712816 233.978293 
C 178.626868 233.064241 179.14045 231.824345 179.14045 230.531679 
C 179.14045 229.239014 178.626868 227.999118 177.712816 227.085065 
C 176.798763 226.171013 175.558867 225.657431 174.266202 225.657431 
C 172.973536 225.657431 171.733641 226.171013 170.819588 227.085065 
C 169.905535 227.999118 169.391954 229.239014 169.391954 230.531679 
C 169.391954 231.824345 169.905535 233.064241 170.819588 233.978293 
C 171.733641 234.892346 172.973536 235.405927 174.266202 235.405927 
z
" clip-path="url(#p99a7c67fa0)" style="fill: #006633; stroke: #006633; stroke-width: 0.886227"/>
    <path d="M 218.690046 229.649893 
C 219.982712 229.649893 221.222608 229.136312 222.13666 228.222259 
C 223.050713 227.308206 223.564294 226.068311 223.564294 224.775645 
C 223.564294 223.482979 223.050713 222.243084 222.13666 221.329031 
C 221.222608 220.414979 219.982712 219.901397 218.690046 219.901397 
C 217.397381 219.901397 216.157485 220.414979 215.243433 221.329031 
C 214.32938 222.243084 213.815798 223.482979 213.815798 224.775645 
C 213.815798 226.068311 214.32938 227.308206 215.243433 228.222259 
C 216.157485 229.136312 217.397381 229.649893 218.690046 229.649893 
z
" clip-path="url(#p99a7c67fa0)" style="fill: #006633; stroke: #006633; stroke-width: 0.886227"/>
    <path d="M 263.113891 291.063448 
C 264.406557 291.063448 265.646452 290.549867 266.560505 289.635814 
C 267.474558 288.721762 267.988139 287.481866 267.988139 286.1892 
C 267.988139 284.896535 267.474558 283.656639 266.560505 282.742586 
C 265.646452 281.828534 264.406557 281.314952 263.113891 281.314952 
C 261.821225 281.314952 260.58133 281.828534 259.667277 282.742586 
C 258.753225 283.656639 258.239643 284.896535 258.239643 286.1892 
C 258.239643 287.481866 258.753225 288.721762 259.667277 289.635814 
C 260.58133 290.549867 261.821225 291.063448 263.113891 291.063448 
z
" clip-path="url(#p99a7c67fa0)" style="fill: #006633; stroke: #006633; stroke-width: 0.886227"/>
    <path d="M 307.537736 308.712115 
C 308.830401 308.712115 310.070297 308.198534 310.98435 307.284481 
C 311.898402 306.370428 312.411984 305.130533 312.411984 303.837867 
C 312.411984 302.545202 311.898402 301.305306 310.98435 300.391253 
C 310.070297 299.477201 308.830401 298.963619 307.537736 298.963619 
C 306.24507 298.963619 305.005175 299.477201 304.091122 300.391253 
C 303.177069 301.305306 302.663488 302.545202 302.663488 303.837867 
C 302.663488 305.130533 303.177069 306.370428 304.091122 307.284481 
C 305.005175 308.198534 306.24507 308.712115 307.537736 308.712115 
z
" clip-path="url(#p99a7c67fa0)" style="fill: #006633; stroke: #006633; stroke-width: 0.886227"/>
    <path d="M 351.96158 282.833747 
C 353.254246 282.833747 354.494142 282.320165 355.408194 281.406112 
C 356.322247 280.49206 356.835829 279.252164 356.835829 277.959499 
C 356.835829 276.666833 356.322247 275.426937 355.408194 274.512885 
C 354.494142 273.598832 353.254246 273.08525 351.96158 273.08525 
C 350.668915 273.08525 349.429019 273.598832 348.514967 274.512885 
C 347.600914 275.426937 347.087332 276.666833 347.087332 277.959499 
C 347.087332 279.252164 347.600914 280.49206 348.514967 281.406112 
C 349.429019 282.320165 350.668915 282.833747 351.96158 282.833747 
z
" clip-path="url(#p99a7c67fa0)" style="fill: #006633; stroke: #006633; stroke-width: 0.886227"/>
    <path d="M 396.385425 300.720266 
C 397.678091 300.720266 398.917986 300.206685 399.832039 299.292632 
C 400.746092 298.378579 401.259673 297.138684 401.259673 295.846018 
C 401.259673 294.553352 400.746092 293.313457 399.832039 292.399404 
C 398.917986 291.485352 397.678091 290.97177 396.385425 290.97177 
C 395.092759 290.97177 393.852864 291.485352 392.938811 292.399404 
C 392.024759 293.313457 391.511177 294.553352 391.511177 295.846018 
C 391.511177 297.138684 392.024759 298.378579 392.938811 299.292632 
C 393.852864 300.206685 395.092759 300.720266 396.385425 300.720266 
z
" clip-path="url(#p99a7c67fa0)" style="fill: #006633; stroke: #006633; stroke-width: 0.886227"/>
    <path d="M 440.80927 291.967289 
C 442.101936 291.967289 443.341831 291.453707 444.255884 290.539654 
C 445.169936 289.625602 445.683518 288.385706 445.683518 287.09304 
C 445.683518 285.800375 445.169936 284.560479 444.255884 283.646427 
C 443.341831 282.732374 442.101936 282.218792 440.80927 282.218792 
C 439.516604 282.218792 438.276709 282.732374 437.362656 283.646427 
C 436.448603 284.560479 435.935022 285.800375 435.935022 287.09304 
C 435.935022 288.385706 436.448603 289.625602 437.362656 290.539654 
C 438.276709 291.453707 439.516604 291.967289 440.80927 291.967289 
z
" clip-path="url(#p99a7c67fa0)" style="fill: #006633; stroke: #006633; stroke-width: 0.886227"/>
   </g>
   <g id="PathCollection_4">
    <path d="M 36.12042 77.995041 
L 45.868916 77.995041 
L 45.868916 68.246545 
L 36.12042 68.246545 
z
" clip-path="url(#p99a7c67fa0)" style="fill: #cc0033; stroke: #cc0033; stroke-width: 0.886227"/>
    <path d="M 80.544264 74.807815 
L 90.29276 74.807815 
L 90.29276 65.059319 
L 80.544264 65.059319 
z
" clip-path="url(#p99a7c67fa0)" style="fill: #cc0033; stroke: #cc0033; stroke-width: 0.886227"/>
    <path d="M 124.968109 87.128583 
L 134.716605 87.128583 
L 134.716605 77.380087 
L 124.968109 77.380087 
z
" clip-path="url(#p99a7c67fa0)" style="fill: #cc0033; stroke: #cc0033; stroke-width: 0.886227"/>
    <path d="M 169.391954 95.929131 
L 179.14045 95.929131 
L 179.14045 86.180635 
L 169.391954 86.180635 
z
" clip-path="url(#p99a7c67fa0)" style="fill: #cc0033; stroke: #cc0033; stroke-width: 0.886227"/>
    <path d="M 213.815798 114.053503 
L 223.564294 114.053503 
L 223.564294 104.305007 
L 213.815798 104.305007 
z
" clip-path="url(#p99a7c67fa0)" style="fill: #cc0033; stroke: #cc0033; stroke-width: 0.886227"/>
    <path d="M 258.239643 126.945117 
L 267.988139 126.945117 
L 267.988139 117.196621 
L 258.239643 117.196621 
z
" clip-path="url(#p99a7c67fa0)" style="fill: #cc0033; stroke: #cc0033; stroke-width: 0.886227"/>
    <path d="M 302.663488 130.417766 
L 312.411984 130.417766 
L 312.411984 120.66927 
L 302.663488 120.66927 
z
" clip-path="url(#p99a7c67fa0)" style="fill: #cc0033; stroke: #cc0033; stroke-width: 0.886227"/>
    <path d="M 347.087332 126.231559 
L 356.835829 126.231559 
L 356.835829 116.483063 
L 347.087332 116.483063 
z
" clip-path="url(#p99a7c67fa0)" style="fill: #cc0033; stroke: #cc0033; stroke-width: 0.886227"/>
    <path d="M 391.511177 145.687906 
L 401.259673 145.687906 
L 401.259673 135.93941 
L 391.511177 135.93941 
z
" clip-path="url(#p99a7c67fa0)" style="fill: #cc0033; stroke: #cc0033; stroke-width: 0.886227"/>
    <path d="M 435.935022 146.87717 
L 445.683518 146.87717 
L 445.683518 137.128673 
L 435.935022 137.128673 
z
" clip-path="url(#p99a7c67fa0)" style="fill: #cc0033; stroke: #cc0033; stroke-width: 0.886227"/>
   </g>
   <g id="line2d_1">
    <path d="M 40.994668 209.648216 
L 85.418512 274.962555 
L 129.842357 307.881362 
L 174.266202 230.531679 
L 218.690046 224.775645 
L 263.113891 286.1892 
L 307.537736 303.837867 
L 351.96158 277.959499 
L 396.385425 295.846018 
L 440.80927 287.09304 
" clip-path="url(#p99a7c67fa0)" style="fill: none; stroke: #006633; stroke-width: 1.772454"/>
   </g>
   <g id="line2d_2">
    <path d="M 40.994668 112.889757 
L 85.418512 120.31076 
L 129.842357 125.876512 
L 174.266202 158.605037 
L 218.690046 162.743673 
L 263.113891 168.356996 
L 307.537736 200.324392 
L 351.96158 201.94179 
L 396.385425 227.534736 
L 440.80927 237.524547 
" clip-path="url(#p99a7c67fa0)" style="fill: none; stroke: #006699; stroke-width: 1.772454"/>
   </g>
   <g id="line2d_3">
    <path d="M 40.994668 73.120793 
L 85.418512 69.933567 
L 129.842357 82.254335 
L 174.266202 91.054883 
L 218.690046 109.179255 
L 263.113891 122.070869 
L 307.537736 125.543518 
L 351.96158 121.357311 
L 396.385425 140.813658 
L 440.80927 142.002922 
" clip-path="url(#p99a7c67fa0)" style="fill: none; stroke: #cc0033; stroke-width: 1.772454"/>
   </g>
   <g id="line2d_4">
    <path d="M 40.994668 67.697752 
L 85.418512 65.747361 
L 129.842357 88.914209 
L 174.266202 110.558801 
L 218.690046 123.212562 
L 263.113891 145.523141 
L 307.537736 151.564598 
L 351.96158 163.40966 
L 396.385425 190.049158 
L 440.80927 189.478311 
" clip-path="url(#p99a7c67fa0)" style="fill: none; stroke: #ff9900; stroke-width: 1.772454"/>
   </g>
  </g>
  <g id="text_1">
   <!-- ploidy -->
   <g transform="translate(224.242125 338.704344) scale(0.11 -0.11)">
    <defs>
     <path id="DejaVuSans-70" d="M 1159 525 
L 1159 -1331 
L 581 -1331 
L 581 3500 
L 1159 3500 
L 1159 2969 
Q 1341 3281 1617 3432 
Q 1894 3584 2278 3584 
Q 2916 3584 3314 3078 
Q 3713 2572 3713 1747 
Q 3713 922 3314 415 
Q 2916 -91 2278 -91 
Q 1894 -91 1617 61 
Q 1341 213 1159 525 
z
M 3116 1747 
Q 3116 2381 2855 2742 
Q 2594 3103 2138 3103 
Q 1681 3103 1420 2742 
Q 1159 2381 1159 1747 
Q 1159 1113 1420 752 
Q 1681 391 2138 391 
Q 2594 391 2855 752 
Q 3116 1113 3116 1747 
z
" transform="scale(0.015625)"/>
     <path id="DejaVuSans-6c" d="M 603 4863 
L 1178 4863 
L 1178 0 
L 603 0 
L 603 4863 
z
" transform="scale(0.015625)"/>
     <path id="DejaVuSans-6f" d="M 1959 3097 
Q 1497 3097 1228 2736 
Q 959 2375 959 1747 
Q 959 1119 1226 758 
Q 1494 397 1959 397 
Q 2419 397 2687 759 
Q 2956 1122 2956 1747 
Q 2956 2369 2687 2733 
Q 2419 3097 1959 3097 
z
M 1959 3584 
Q 2709 3584 3137 3096 
Q 3566 2609 3566 1747 
Q 3566 888 3137 398 
Q 2709 -91 1959 -91 
Q 1206 -91 779 398 
Q 353 888 353 1747 
Q 353 2609 779 3096 
Q 1206 3584 1959 3584 
z
" transform="scale(0.015625)"/>
     <path id="DejaVuSans-69" d="M 603 3500 
L 1178 3500 
L 1178 0 
L 603 0 
L 603 3500 
z
M 603 4863 
L 1178 4863 
L 1178 4134 
L 603 4134 
L 603 4863 
z
" transform="scale(0.015625)"/>
     <path id="DejaVuSans-64" d="M 2906 2969 
L 2906 4863 
L 3481 4863 
L 3481 0 
L 2906 0 
L 2906 525 
Q 2725 213 2448 61 
Q 2172 -91 1784 -91 
Q 1150 -91 751 415 
Q 353 922 353 1747 
Q 353 2572 751 3078 
Q 1150 3584 1784 3584 
Q 2172 3584 2448 3432 
Q 2725 3281 2906 2969 
z
M 947 1747 
Q 947 1113 1208 752 
Q 1469 391 1925 391 
Q 2381 391 2643 752 
Q 2906 1113 2906 1747 
Q 2906 2381 2643 2742 
Q 2381 3103 1925 3103 
Q 1469 3103 1208 2742 
Q 947 2381 947 1747 
z
" transform="scale(0.015625)"/>
     <path id="DejaVuSans-79" d="M 2059 -325 
Q 1816 -950 1584 -1140 
Q 1353 -1331 966 -1331 
L 506 -1331 
L 506 -850 
L 844 -850 
Q 1081 -850 1212 -737 
Q 1344 -625 1503 -206 
L 1606 56 
L 191 3500 
L 800 3500 
L 1894 763 
L 2988 3500 
L 3597 3500 
L 2059 -325 
z
" transform="scale(0.015625)"/>
    </defs>
    <use xlink:href="#DejaVuSans-70"/>
    <use xlink:href="#DejaVuSans-6c" x="63.476562"/>
    <use xlink:href="#DejaVuSans-6f" x="91.259766"/>
    <use xlink:href="#DejaVuSans-69" x="152.441406"/>
    <use xlink:href="#DejaVuSans-64" x="180.224609"/>
    <use xlink:href="#DejaVuSans-79" x="243.701172"/>
   </g>
  </g>
  <g id="text_2">
   <!-- accuracy -->
   <g transform="translate(8.358281 211.629674) rotate(-90) scale(0.11 -0.11)">
    <defs>
     <path id="DejaVuSans-61" d="M 2194 1759 
Q 1497 1759 1228 1600 
Q 959 1441 959 1056 
Q 959 750 1161 570 
Q 1363 391 1709 391 
Q 2188 391 2477 730 
Q 2766 1069 2766 1631 
L 2766 1759 
L 2194 1759 
z
M 3341 1997 
L 3341 0 
L 2766 0 
L 2766 531 
Q 2569 213 2275 61 
Q 1981 -91 1556 -91 
Q 1019 -91 701 211 
Q 384 513 384 1019 
Q 384 1609 779 1909 
Q 1175 2209 1959 2209 
L 2766 2209 
L 2766 2266 
Q 2766 2663 2505 2880 
Q 2244 3097 1772 3097 
Q 1472 3097 1187 3025 
Q 903 2953 641 2809 
L 641 3341 
Q 956 3463 1253 3523 
Q 1550 3584 1831 3584 
Q 2591 3584 2966 3190 
Q 3341 2797 3341 1997 
z
" transform="scale(0.015625)"/>
     <path id="DejaVuSans-63" d="M 3122 3366 
L 3122 2828 
Q 2878 2963 2633 3030 
Q 2388 3097 2138 3097 
Q 1578 3097 1268 2742 
Q 959 2388 959 1747 
Q 959 1106 1268 751 
Q 1578 397 2138 397 
Q 2388 397 2633 464 
Q 2878 531 3122 666 
L 3122 134 
Q 2881 22 2623 -34 
Q 2366 -91 2075 -91 
Q 1284 -91 818 406 
Q 353 903 353 1747 
Q 353 2603 823 3093 
Q 1294 3584 2113 3584 
Q 2378 3584 2631 3529 
Q 2884 3475 3122 3366 
z
" transform="scale(0.015625)"/>
     <path id="DejaVuSans-75" d="M 544 1381 
L 544 3500 
L 1119 3500 
L 1119 1403 
Q 1119 906 1312 657 
Q 1506 409 1894 409 
Q 2359 409 2629 706 
Q 2900 1003 2900 1516 
L 2900 3500 
L 3475 3500 
L 3475 0 
L 2900 0 
L 2900 538 
Q 2691 219 2414 64 
Q 2138 -91 1772 -91 
Q 1169 -91 856 284 
Q 544 659 544 1381 
z
M 1991 3584 
L 1991 3584 
z
" transform="scale(0.015625)"/>
     <path id="DejaVuSans-72" d="M 2631 2963 
Q 2534 3019 2420 3045 
Q 2306 3072 2169 3072 
Q 1681 3072 1420 2755 
Q 1159 2438 1159 1844 
L 1159 0 
L 581 0 
L 581 3500 
L 1159 3500 
L 1159 2956 
Q 1341 3275 1631 3429 
Q 1922 3584 2338 3584 
Q 2397 3584 2469 3576 
Q 2541 3569 2628 3553 
L 2631 2963 
z
" transform="scale(0.015625)"/>
    </defs>
    <use xlink:href="#DejaVuSans-61"/>
    <use xlink:href="#DejaVuSans-63" x="61.279297"/>
    <use xlink:href="#DejaVuSans-63" x="116.259766"/>
    <use xlink:href="#DejaVuSans-75" x="171.240234"/>
    <use xlink:href="#DejaVuSans-72" x="234.619141"/>
    <use xlink:href="#DejaVuSans-61" x="275.732422"/>
    <use xlink:href="#DejaVuSans-63" x="337.011719"/>
    <use xlink:href="#DejaVuSans-79" x="391.992188"/>
   </g>
  </g>
  <g id="patch_3">
   <path d="M 48.643304 39.816661 
L 433.160634 39.816661 
L 433.160634 5.608 
L 48.643304 5.608 
L 48.643304 39.816661 
z
" style="fill: none"/>
  </g>
  <g id="text_3">
   <!-- tools -->
   <g transform="translate(48.843304 17.201594) scale(0.11 -0.11)">
    <defs>
     <path id="DejaVuSans-74" d="M 1172 4494 
L 1172 3500 
L 2356 3500 
L 2356 3053 
L 1172 3053 
L 1172 1153 
Q 1172 725 1289 603 
Q 1406 481 1766 481 
L 2356 481 
L 2356 0 
L 1766 0 
Q 1100 0 847 248 
Q 594 497 594 1153 
L 594 3053 
L 172 3053 
L 172 3500 
L 594 3500 
L 594 4494 
L 1172 4494 
z
" transform="scale(0.015625)"/>
     <path id="DejaVuSans-73" d="M 2834 3397 
L 2834 2853 
Q 2591 2978 2328 3040 
Q 2066 3103 1784 3103 
Q 1356 3103 1142 2972 
Q 928 2841 928 2578 
Q 928 2378 1081 2264 
Q 1234 2150 1697 2047 
L 1894 2003 
Q 2506 1872 2764 1633 
Q 3022 1394 3022 966 
Q 3022 478 2636 193 
Q 2250 -91 1575 -91 
Q 1294 -91 989 -36 
Q 684 19 347 128 
L 347 722 
Q 666 556 975 473 
Q 1284 391 1588 391 
Q 1994 391 2212 530 
Q 2431 669 2431 922 
Q 2431 1156 2273 1281 
Q 2116 1406 1581 1522 
L 1381 1569 
Q 847 1681 609 1914 
Q 372 2147 372 2553 
Q 372 3047 722 3315 
Q 1072 3584 1716 3584 
Q 2034 3584 2315 3537 
Q 2597 3491 2834 3397 
z
" transform="scale(0.015625)"/>
    </defs>
    <use xlink:href="#DejaVuSans-74"/>
    <use xlink:href="#DejaVuSans-6f" x="39.208984"/>
    <use xlink:href="#DejaVuSans-6f" x="100.390625"/>
    <use xlink:href="#DejaVuSans-6c" x="161.572266"/>
    <use xlink:href="#DejaVuSans-73" x="189.355469"/>
   </g>
  </g>
  <g id="patch_4">
   <path d="M 48.843304 39.616661 
L 67.398027 39.616661 
L 67.398027 21.061938 
L 48.843304 21.061938 
L 48.843304 39.616661 
z
" clip-path="url(#p4522d5b4d4)" style="fill: none"/>
  </g>
  <g id="line2d_5">
   <path d="M 58.120665 30.339299 
" clip-path="url(#p4522d5b4d4)" style="fill: none; stroke: #1f77b4; stroke-width: 1.5; stroke-linecap: square"/>
   <defs>
    <path id="m144dab55f9" d="M 0 4.874248 
C 1.292666 4.874248 2.532561 4.360667 3.446614 3.446614 
C 4.360667 2.532561 4.874248 1.292666 4.874248 0 
C 4.874248 -1.292666 4.360667 -2.532561 3.446614 -3.446614 
C 2.532561 -4.360667 1.292666 -4.874248 0 -4.874248 
C -1.292666 -4.874248 -2.532561 -4.360667 -3.446614 -3.446614 
C -4.360667 -2.532561 -4.874248 -1.292666 -4.874248 0 
C -4.874248 1.292666 -4.360667 2.532561 -3.446614 3.446614 
C -2.532561 4.360667 -1.292666 4.874248 0 4.874248 
z
" style="stroke: #006633; stroke-width: 0.886227"/>
   </defs>
   <g clip-path="url(#p4522d5b4d4)">
    <use xlink:href="#m144dab55f9" x="58.120665" y="30.339299" style="fill: #006633; stroke: #006633; stroke-width: 0.886227"/>
   </g>
  </g>
  <g id="line2d_6">
   <path d="M 48.843304 30.339299 
L 67.398027 30.339299 
" clip-path="url(#p4522d5b4d4)" style="fill: none; stroke: #006633; stroke-width: 1.772454"/>
  </g>
  <g id="text_4">
   <!-- flopp -->
   <g transform="translate(70.398027 34.202424) scale(0.14 -0.14)">
    <defs>
     <path id="DejaVuSans-66" d="M 2375 4863 
L 2375 4384 
L 1825 4384 
Q 1516 4384 1395 4259 
Q 1275 4134 1275 3809 
L 1275 3500 
L 2222 3500 
L 2222 3053 
L 1275 3053 
L 1275 0 
L 697 0 
L 697 3053 
L 147 3053 
L 147 3500 
L 697 3500 
L 697 3744 
Q 697 4328 969 4595 
Q 1241 4863 1831 4863 
L 2375 4863 
z
" transform="scale(0.015625)"/>
    </defs>
    <use xlink:href="#DejaVuSans-66"/>
    <use xlink:href="#DejaVuSans-6c" x="35.205078"/>
    <use xlink:href="#DejaVuSans-6f" x="62.988281"/>
    <use xlink:href="#DejaVuSans-70" x="124.169922"/>
    <use xlink:href="#DejaVuSans-70" x="187.646484"/>
   </g>
  </g>
  <g id="patch_5">
   <path d="M 110.557714 39.616661 
L 129.112437 39.616661 
L 129.112437 21.061938 
L 110.557714 21.061938 
L 110.557714 39.616661 
z
" clip-path="url(#paad8d108ed)" style="fill: none"/>
  </g>
  <g id="line2d_7">
   <path d="M 119.835076 30.339299 
" clip-path="url(#paad8d108ed)" style="fill: none; stroke: #1f77b4; stroke-width: 1.5; stroke-linecap: square"/>
   <defs>
    <path id="ma7e374cb65" d="M 0 -4.874248 
L -4.874248 4.874248 
L 4.874248 4.874248 
z
" style="stroke: #006699; stroke-width: 0.886227; stroke-linejoin: miter"/>
   </defs>
   <g clip-path="url(#paad8d108ed)">
    <use xlink:href="#ma7e374cb65" x="119.835076" y="30.339299" style="fill: #006699; stroke: #006699; stroke-width: 0.886227; stroke-linejoin: miter"/>
   </g>
  </g>
  <g id="line2d_8">
   <path d="M 110.557714 30.339299 
L 129.112437 30.339299 
" clip-path="url(#paad8d108ed)" style="fill: none; stroke: #006699; stroke-width: 1.772454"/>
  </g>
  <g id="text_5">
   <!-- nPhase -->
   <g transform="translate(132.112437 34.202424) scale(0.14 -0.14)">
    <defs>
     <path id="DejaVuSans-6e" d="M 3513 2113 
L 3513 0 
L 2938 0 
L 2938 2094 
Q 2938 2591 2744 2837 
Q 2550 3084 2163 3084 
Q 1697 3084 1428 2787 
Q 1159 2491 1159 1978 
L 1159 0 
L 581 0 
L 581 3500 
L 1159 3500 
L 1159 2956 
Q 1366 3272 1645 3428 
Q 1925 3584 2291 3584 
Q 2894 3584 3203 3211 
Q 3513 2838 3513 2113 
z
" transform="scale(0.015625)"/>
     <path id="DejaVuSans-50" d="M 1259 4147 
L 1259 2394 
L 2053 2394 
Q 2494 2394 2734 2622 
Q 2975 2850 2975 3272 
Q 2975 3691 2734 3919 
Q 2494 4147 2053 4147 
L 1259 4147 
z
M 628 4666 
L 2053 4666 
Q 2838 4666 3239 4311 
Q 3641 3956 3641 3272 
Q 3641 2581 3239 2228 
Q 2838 1875 2053 1875 
L 1259 1875 
L 1259 0 
L 628 0 
L 628 4666 
z
" transform="scale(0.015625)"/>
     <path id="DejaVuSans-68" d="M 3513 2113 
L 3513 0 
L 2938 0 
L 2938 2094 
Q 2938 2591 2744 2837 
Q 2550 3084 2163 3084 
Q 1697 3084 1428 2787 
Q 1159 2491 1159 1978 
L 1159 0 
L 581 0 
L 581 4863 
L 1159 4863 
L 1159 2956 
Q 1366 3272 1645 3428 
Q 1925 3584 2291 3584 
Q 2894 3584 3203 3211 
Q 3513 2838 3513 2113 
z
" transform="scale(0.015625)"/>
     <path id="DejaVuSans-65" d="M 3597 1894 
L 3597 1613 
L 953 1613 
Q 991 1019 1311 708 
Q 1631 397 2203 397 
Q 2534 397 2845 478 
Q 3156 559 3463 722 
L 3463 178 
Q 3153 47 2828 -22 
Q 2503 -91 2169 -91 
Q 1331 -91 842 396 
Q 353 884 353 1716 
Q 353 2575 817 3079 
Q 1281 3584 2069 3584 
Q 2775 3584 3186 3129 
Q 3597 2675 3597 1894 
z
M 3022 2063 
Q 3016 2534 2758 2815 
Q 2500 3097 2075 3097 
Q 1594 3097 1305 2825 
Q 1016 2553 972 2059 
L 3022 2063 
z
" transform="scale(0.015625)"/>
    </defs>
    <use xlink:href="#DejaVuSans-6e"/>
    <use xlink:href="#DejaVuSans-50" x="63.378906"/>
    <use xlink:href="#DejaVuSans-68" x="123.681641"/>
    <use xlink:href="#DejaVuSans-61" x="187.060547"/>
    <use xlink:href="#DejaVuSans-73" x="248.339844"/>
    <use xlink:href="#DejaVuSans-65" x="300.439453"/>
   </g>
  </g>
  <g id="patch_6">
   <path d="M 187.785875 39.616661 
L 206.340598 39.616661 
L 206.340598 21.061938 
L 187.785875 21.061938 
L 187.785875 39.616661 
z
" clip-path="url(#p78145e1807)" style="fill: none"/>
  </g>
  <g id="line2d_9">
   <path d="M 197.063237 30.339299 
" clip-path="url(#p78145e1807)" style="fill: none; stroke: #1f77b4; stroke-width: 1.5; stroke-linecap: square"/>
   <defs>
    <path id="m7304d86f9d" d="M -4.874248 4.874248 
L 4.874248 4.874248 
L 4.874248 -4.874248 
L -4.874248 -4.874248 
z
" style="stroke: #cc0033; stroke-width: 0.886227; stroke-linejoin: miter"/>
   </defs>
   <g clip-path="url(#p78145e1807)">
    <use xlink:href="#m7304d86f9d" x="197.063237" y="30.339299" style="fill: #cc0033; stroke: #cc0033; stroke-width: 0.886227; stroke-linejoin: miter"/>
   </g>
  </g>
  <g id="line2d_10">
   <path d="M 187.785875 30.339299 
L 206.340598 30.339299 
" clip-path="url(#p78145e1807)" style="fill: none; stroke: #cc0033; stroke-width: 1.772454"/>
  </g>
  <g id="text_6">
   <!-- nTChap -->
   <g transform="translate(209.340598 34.202424) scale(0.14 -0.14)">
    <defs>
     <path id="DejaVuSans-54" d="M -19 4666 
L 3928 4666 
L 3928 4134 
L 2272 4134 
L 2272 0 
L 1638 0 
L 1638 4134 
L -19 4134 
L -19 4666 
z
" transform="scale(0.015625)"/>
     <path id="DejaVuSans-43" d="M 4122 4306 
L 4122 3641 
Q 3803 3938 3442 4084 
Q 3081 4231 2675 4231 
Q 1875 4231 1450 3742 
Q 1025 3253 1025 2328 
Q 1025 1406 1450 917 
Q 1875 428 2675 428 
Q 3081 428 3442 575 
Q 3803 722 4122 1019 
L 4122 359 
Q 3791 134 3420 21 
Q 3050 -91 2638 -91 
Q 1578 -91 968 557 
Q 359 1206 359 2328 
Q 359 3453 968 4101 
Q 1578 4750 2638 4750 
Q 3056 4750 3426 4639 
Q 3797 4528 4122 4306 
z
" transform="scale(0.015625)"/>
    </defs>
    <use xlink:href="#DejaVuSans-6e"/>
    <use xlink:href="#DejaVuSans-54" x="63.378906"/>
    <use xlink:href="#DejaVuSans-43" x="118.587891"/>
    <use xlink:href="#DejaVuSans-68" x="188.412109"/>
    <use xlink:href="#DejaVuSans-61" x="251.791016"/>
    <use xlink:href="#DejaVuSans-70" x="313.070312"/>
   </g>
  </g>
  <g id="patch_7">
   <path d="M 267.057161 39.616661 
L 285.611884 39.616661 
L 285.611884 21.061938 
L 267.057161 21.061938 
L 267.057161 39.616661 
z
" clip-path="url(#pf3c664f3ba)" style="fill: none"/>
  </g>
  <g id="line2d_11">
   <path d="M 276.334522 30.339299 
" clip-path="url(#pf3c664f3ba)" style="fill: none; stroke: #1f77b4; stroke-width: 1.5; stroke-linecap: square"/>
   <defs>
    <path id="made67461ca" d="M -0 6.893228 
L 6.893228 0 
L 0 -6.893228 
L -6.893228 -0 
z
" style="stroke: #ff9900; stroke-width: 0.886227; stroke-linejoin: miter"/>
   </defs>
   <g clip-path="url(#pf3c664f3ba)">
    <use xlink:href="#made67461ca" x="276.334522" y="30.339299" style="fill: #ff9900; stroke: #ff9900; stroke-width: 0.886227; stroke-linejoin: miter"/>
   </g>
  </g>
  <g id="line2d_12">
   <path d="M 267.057161 30.339299 
L 285.611884 30.339299 
" clip-path="url(#pf3c664f3ba)" style="fill: none; stroke: #ff9900; stroke-width: 1.772454"/>
  </g>
  <g id="text_7">
   <!-- whatshap polyphase -->
   <g transform="translate(288.611884 34.202424) scale(0.14 -0.14)">
    <defs>
     <path id="DejaVuSans-77" d="M 269 3500 
L 844 3500 
L 1563 769 
L 2278 3500 
L 2956 3500 
L 3675 769 
L 4391 3500 
L 4966 3500 
L 4050 0 
L 3372 0 
L 2619 2869 
L 1863 0 
L 1184 0 
L 269 3500 
z
" transform="scale(0.015625)"/>
     <path id="DejaVuSans-20" transform="scale(0.015625)"/>
    </defs>
    <use xlink:href="#DejaVuSans-77"/>
    <use xlink:href="#DejaVuSans-68" x="81.787109"/>
    <use xlink:href="#DejaVuSans-61" x="145.166016"/>
    <use xlink:href="#DejaVuSans-74" x="206.445312"/>
    <use xlink:href="#DejaVuSans-73" x="245.654297"/>
    <use xlink:href="#DejaVuSans-68" x="297.753906"/>
    <use xlink:href="#DejaVuSans-61" x="361.132812"/>
    <use xlink:href="#DejaVuSans-70" x="422.412109"/>
    <use xlink:href="#DejaVuSans-20" x="485.888672"/>
    <use xlink:href="#DejaVuSans-70" x="517.675781"/>
    <use xlink:href="#DejaVuSans-6f" x="581.152344"/>
    <use xlink:href="#DejaVuSans-6c" x="642.333984"/>
    <use xlink:href="#DejaVuSans-79" x="670.117188"/>
    <use xlink:href="#DejaVuSans-70" x="729.296875"/>
    <use xlink:href="#DejaVuSans-68" x="792.773438"/>
    <use xlink:href="#DejaVuSans-61" x="856.152344"/>
    <use xlink:href="#DejaVuSans-73" x="917.431641"/>
    <use xlink:href="#DejaVuSans-65" x="969.53125"/>
   </g>
  </g>
 </g>
 <defs>
  <clipPath id="p99a7c67fa0">
   <rect x="21.003938" y="53.640661" width="439.796063" height="266.347402"/>
  </clipPath>
  <clipPath id="p4522d5b4d4">
   <path d="M 48.843304 39.616661 
L 48.843304 21.061938 
L 67.398027 21.061938 
L 67.398027 39.616661 
"/>
  </clipPath>
  <clipPath id="paad8d108ed">
   <path d="M 110.557714 39.616661 
L 110.557714 21.061938 
L 129.112437 21.061938 
L 129.112437 39.616661 
"/>
  </clipPath>
  <clipPath id="p78145e1807">
   <path d="M 187.785875 39.616661 
L 187.785875 21.061938 
L 206.340598 21.061938 
L 206.340598 39.616661 
"/>
  </clipPath>
  <clipPath id="pf3c664f3ba">
   <path d="M 267.057161 39.616661 
L 267.057161 21.061938 
L 285.611884 21.061938 
L 285.611884 39.616661 
"/>
  </clipPath>
 </defs>
</svg>
