<?xml version="1.0" encoding="utf-8" standalone="no"?>
<!DOCTYPE svg PUBLIC "-//W3C//DTD SVG 1.1//EN"
  "http://www.w3.org/Graphics/SVG/1.1/DTD/svg11.dtd">
<svg xmlns:xlink="http://www.w3.org/1999/xlink" width="460.8pt" height="345.6pt" viewBox="0 0 460.8 345.6" xmlns="http://www.w3.org/2000/svg" version="1.1">
 <metadata>
  <rdf:RDF xmlns:dc="http://purl.org/dc/elements/1.1/" xmlns:cc="http://creativecommons.org/ns#" xmlns:rdf="http://www.w3.org/1999/02/22-rdf-syntax-ns#">
   <cc:Work>
    <dc:type rdf:resource="http://purl.org/dc/dcmitype/StillImage"/>
    <dc:date>2025-06-24T10:46:01.513360</dc:date>
    <dc:format>image/svg+xml</dc:format>
    <dc:creator>
     <cc:Agent>
      <dc:title>Matplotlib v3.7.3, https://matplotlib.org/</dc:title>
     </cc:Agent>
    </dc:creator>
   </cc:Work>
  </rdf:RDF>
 </metadata>
 <defs>
  <style type="text/css">*{stroke-linejoin: round; stroke-linecap: butt}</style>
 </defs>
 <g id="figure_1">
  <g id="patch_1">
   <path d="M 0 345.6 
L 460.8 345.6 
L 460.8 0 
L 0 0 
z
" style="fill: #ffffff; stroke: #ffffff; stroke-linejoin: miter"/>
  </g>
  <g id="axes_1">
   <g id="patch_2">
    <path d="M 21.003938 319.988062 
L 460.8 319.988062 
L 460.8 53.640661 
L 21.003938 53.640661 
L 21.003938 319.988062 
z
" style="fill: none"/>
   </g>
   <g id="matplotlib.axis_1">
    <g id="xtick_1"/>
    <g id="xtick_2"/>
    <g id="xtick_3"/>
    <g id="xtick_4"/>
    <g id="xtick_5"/>
    <g id="xtick_6"/>
    <g id="xtick_7"/>
   </g>
   <g id="matplotlib.axis_2">
    <g id="ytick_1"/>
    <g id="ytick_2"/>
    <g id="ytick_3"/>
    <g id="ytick_4"/>
    <g id="ytick_5"/>
    <g id="ytick_6"/>
    <g id="ytick_7"/>
    <g id="ytick_8"/>
    <g id="ytick_9"/>
    <g id="ytick_10"/>
    <g id="ytick_11"/>
   </g>
   <g id="PathCollection_1">
    <path d="M 40.994668 73.081456 
L 47.887895 66.188228 
L 40.994668 59.295 
L 34.10144 66.188228 
z
" clip-path="url(#p5a3e6e1eb4)" style="fill: #ff9900; stroke: #ff9900; stroke-width: 0.886227"/>
    <path d="M 85.418512 72.640588 
L 92.31174 65.747361 
L 85.418512 58.854133 
L 78.525285 65.747361 
z
" clip-path="url(#p5a3e6e1eb4)" style="fill: #ff9900; stroke: #ff9900; stroke-width: 0.886227"/>
    <path d="M 129.842357 88.021951 
L 136.735585 81.128724 
L 129.842357 74.235496 
L 122.949129 81.128724 
z
" clip-path="url(#p5a3e6e1eb4)" style="fill: #ff9900; stroke: #ff9900; stroke-width: 0.886227"/>
    <path d="M 174.266202 85.67066 
L 181.159429 78.777432 
L 174.266202 71.884205 
L 167.372974 78.777432 
z
" clip-path="url(#p5a3e6e1eb4)" style="fill: #ff9900; stroke: #ff9900; stroke-width: 0.886227"/>
    <path d="M 218.690046 92.136711 
L 225.583274 85.243483 
L 218.690046 78.350255 
L 211.796819 85.243483 
z
" clip-path="url(#p5a3e6e1eb4)" style="fill: #ff9900; stroke: #ff9900; stroke-width: 0.886227"/>
    <path d="M 263.113891 111.97573 
L 270.007119 105.082502 
L 263.113891 98.189274 
L 256.220663 105.082502 
z
" clip-path="url(#p5a3e6e1eb4)" style="fill: #ff9900; stroke: #ff9900; stroke-width: 0.886227"/>
    <path d="M 307.537736 94.047135 
L 314.430964 87.153907 
L 307.537736 80.260679 
L 300.644508 87.153907 
z
" clip-path="url(#p5a3e6e1eb4)" style="fill: #ff9900; stroke: #ff9900; stroke-width: 0.886227"/>
    <path d="M 351.96158 124.466964 
L 358.854808 117.573736 
L 351.96158 110.680508 
L 345.068353 117.573736 
z
" clip-path="url(#p5a3e6e1eb4)" style="fill: #ff9900; stroke: #ff9900; stroke-width: 0.886227"/>
    <path d="M 396.385425 107.224162 
L 403.278653 100.330934 
L 396.385425 93.437707 
L 389.492197 100.330934 
z
" clip-path="url(#p5a3e6e1eb4)" style="fill: #ff9900; stroke: #ff9900; stroke-width: 0.886227"/>
    <path d="M 440.80927 106.048517 
L 447.702498 99.155289 
L 440.80927 92.262061 
L 433.916042 99.155289 
z
" clip-path="url(#p5a3e6e1eb4)" style="fill: #ff9900; stroke: #ff9900; stroke-width: 0.886227"/>
   </g>
   <g id="PathCollection_2">
    <path d="M 40.994668 68.024956 
L 36.12042 77.773453 
L 45.868916 77.773453 
z
" clip-path="url(#p5a3e6e1eb4)" style="fill: #006699; stroke: #006699; stroke-width: 0.886227"/>
    <path d="M 85.418512 97.122184 
L 80.544264 106.87068 
L 90.29276 106.87068 
z
" clip-path="url(#p5a3e6e1eb4)" style="fill: #006699; stroke: #006699; stroke-width: 0.886227"/>
    <path d="M 129.842357 126.611294 
L 124.968109 136.35979 
L 134.716605 136.35979 
z
" clip-path="url(#p5a3e6e1eb4)" style="fill: #006699; stroke: #006699; stroke-width: 0.886227"/>
    <path d="M 174.266202 127.248102 
L 169.391954 136.996598 
L 179.14045 136.996598 
z
" clip-path="url(#p5a3e6e1eb4)" style="fill: #006699; stroke: #006699; stroke-width: 0.886227"/>
    <path d="M 218.690046 148.899574 
L 213.815798 158.648071 
L 223.564294 158.648071 
z
" clip-path="url(#p5a3e6e1eb4)" style="fill: #006699; stroke: #006699; stroke-width: 0.886227"/>
    <path d="M 263.113891 151.446807 
L 258.239643 161.195303 
L 267.988139 161.195303 
z
" clip-path="url(#p5a3e6e1eb4)" style="fill: #006699; stroke: #006699; stroke-width: 0.886227"/>
    <path d="M 307.537736 174.175954 
L 302.663488 183.92445 
L 312.411984 183.92445 
z
" clip-path="url(#p5a3e6e1eb4)" style="fill: #006699; stroke: #006699; stroke-width: 0.886227"/>
    <path d="M 351.96158 180.788961 
L 347.087332 190.537457 
L 356.835829 190.537457 
z
" clip-path="url(#p5a3e6e1eb4)" style="fill: #006699; stroke: #006699; stroke-width: 0.886227"/>
    <path d="M 396.385425 181.033887 
L 391.511177 190.782383 
L 401.259673 190.782383 
z
" clip-path="url(#p5a3e6e1eb4)" style="fill: #006699; stroke: #006699; stroke-width: 0.886227"/>
    <path d="M 440.80927 174.077984 
L 435.935022 183.82648 
L 445.683518 183.82648 
z
" clip-path="url(#p5a3e6e1eb4)" style="fill: #006699; stroke: #006699; stroke-width: 0.886227"/>
   </g>
   <g id="PathCollection_3">
    <path d="M 40.994668 209.10286 
C 42.287333 209.10286 43.527229 208.589278 44.441281 207.675225 
C 45.355334 206.761173 45.868916 205.521277 45.868916 204.228612 
C 45.868916 202.935946 45.355334 201.69605 44.441281 200.781998 
C 43.527229 199.867945 42.287333 199.354363 40.994668 199.354363 
C 39.702002 199.354363 38.462106 199.867945 37.548054 200.781998 
C 36.634001 201.69605 36.12042 202.935946 36.12042 204.228612 
C 36.12042 205.521277 36.634001 206.761173 37.548054 207.675225 
C 38.462106 208.589278 39.702002 209.10286 40.994668 209.10286 
z
" clip-path="url(#p5a3e6e1eb4)" style="fill: #006633; stroke: #006633; stroke-width: 0.886227"/>
    <path d="M 85.418512 152.965784 
C 86.711178 152.965784 87.951074 152.452202 88.865126 151.53815 
C 89.779179 150.624097 90.29276 149.384201 90.29276 148.091536 
C 90.29276 146.79887 89.779179 145.558974 88.865126 144.644922 
C 87.951074 143.730869 86.711178 143.217288 85.418512 143.217288 
C 84.125847 143.217288 82.885951 143.730869 81.971898 144.644922 
C 81.057846 145.558974 80.544264 146.79887 80.544264 148.091536 
C 80.544264 149.384201 81.057846 150.624097 81.971898 151.53815 
C 82.885951 152.452202 84.125847 152.965784 85.418512 152.965784 
z
" clip-path="url(#p5a3e6e1eb4)" style="fill: #006633; stroke: #006633; stroke-width: 0.886227"/>
    <path d="M 129.842357 224.141326 
C 131.135023 224.141326 132.374918 223.627744 133.288971 222.713692 
C 134.203024 221.799639 134.716605 220.559743 134.716605 219.267078 
C 134.716605 217.974412 134.203024 216.734517 133.288971 215.820464 
C 132.374918 214.906411 131.135023 214.39283 129.842357 214.39283 
C 128.549691 214.39283 127.309796 214.906411 126.395743 215.820464 
C 125.48169 216.734517 124.968109 217.974412 124.968109 219.267078 
C 124.968109 220.559743 125.48169 221.799639 126.395743 222.713692 
C 127.309796 223.627744 128.549691 224.141326 129.842357 224.141326 
z
" clip-path="url(#p5a3e6e1eb4)" style="fill: #006633; stroke: #006633; stroke-width: 0.886227"/>
    <path d="M 174.266202 239.71863 
C 175.558867 239.71863 176.798763 239.205048 177.712816 238.290995 
C 178.626868 237.376943 179.14045 236.137047 179.14045 234.844382 
C 179.14045 233.551716 178.626868 232.31182 177.712816 231.397768 
C 176.798763 230.483715 175.558867 229.970133 174.266202 229.970133 
C 172.973536 229.970133 171.733641 230.483715 170.819588 231.397768 
C 169.905535 232.31182 169.391954 233.551716 169.391954 234.844382 
C 169.391954 236.137047 169.905535 237.376943 170.819588 238.290995 
C 171.733641 239.205048 172.973536 239.71863 174.266202 239.71863 
z
" clip-path="url(#p5a3e6e1eb4)" style="fill: #006633; stroke: #006633; stroke-width: 0.886227"/>
    <path d="M 218.690046 206.359687 
C 219.982712 206.359687 221.222608 205.846105 222.13666 204.932052 
C 223.050713 204.018 223.564294 202.778104 223.564294 201.485439 
C 223.564294 200.192773 223.050713 198.952877 222.13666 198.038825 
C 221.222608 197.124772 219.982712 196.61119 218.690046 196.61119 
C 217.397381 196.61119 216.157485 197.124772 215.243433 198.038825 
C 214.32938 198.952877 213.815798 200.192773 213.815798 201.485439 
C 213.815798 202.778104 214.32938 204.018 215.243433 204.932052 
C 216.157485 205.846105 217.397381 206.359687 218.690046 206.359687 
z
" clip-path="url(#p5a3e6e1eb4)" style="fill: #006633; stroke: #006633; stroke-width: 0.886227"/>
    <path d="M 263.113891 232.174904 
C 264.406557 232.174904 265.646452 231.661322 266.560505 230.74727 
C 267.474558 229.833217 267.988139 228.593321 267.988139 227.300656 
C 267.988139 226.00799 267.474558 224.768095 266.560505 223.854042 
C 265.646452 222.939989 264.406557 222.426408 263.113891 222.426408 
C 261.821225 222.426408 260.58133 222.939989 259.667277 223.854042 
C 258.753225 224.768095 258.239643 226.00799 258.239643 227.300656 
C 258.239643 228.593321 258.753225 229.833217 259.667277 230.74727 
C 260.58133 231.661322 261.821225 232.174904 263.113891 232.174904 
z
" clip-path="url(#p5a3e6e1eb4)" style="fill: #006633; stroke: #006633; stroke-width: 0.886227"/>
    <path d="M 307.537736 194.848157 
C 308.830401 194.848157 310.070297 194.334576 310.98435 193.420523 
C 311.898402 192.50647 312.411984 191.266575 312.411984 189.973909 
C 312.411984 188.681243 311.898402 187.441348 310.98435 186.527295 
C 310.070297 185.613242 308.830401 185.099661 307.537736 185.099661 
C 306.24507 185.099661 305.005175 185.613242 304.091122 186.527295 
C 303.177069 187.441348 302.663488 188.681243 302.663488 189.973909 
C 302.663488 191.266575 303.177069 192.50647 304.091122 193.420523 
C 305.005175 194.334576 306.24507 194.848157 307.537736 194.848157 
z
" clip-path="url(#p5a3e6e1eb4)" style="fill: #006633; stroke: #006633; stroke-width: 0.886227"/>
    <path d="M 351.96158 235.114018 
C 353.254246 235.114018 354.494142 234.600436 355.408194 233.686384 
C 356.322247 232.772331 356.835829 231.532435 356.835829 230.23977 
C 356.835829 228.947104 356.322247 227.707209 355.408194 226.793156 
C 354.494142 225.879103 353.254246 225.365522 351.96158 225.365522 
C 350.668915 225.365522 349.429019 225.879103 348.514967 226.793156 
C 347.600914 227.707209 347.087332 228.947104 347.087332 230.23977 
C 347.087332 231.532435 347.600914 232.772331 348.514967 233.686384 
C 349.429019 234.600436 350.668915 235.114018 351.96158 235.114018 
z
" clip-path="url(#p5a3e6e1eb4)" style="fill: #006633; stroke: #006633; stroke-width: 0.886227"/>
    <path d="M 396.385425 248.14409 
C 397.678091 248.14409 398.917986 247.630508 399.832039 246.716455 
C 400.746092 245.802403 401.259673 244.562507 401.259673 243.269841 
C 401.259673 241.977176 400.746092 240.73728 399.832039 239.823228 
C 398.917986 238.909175 397.678091 238.395593 396.385425 238.395593 
C 395.092759 238.395593 393.852864 238.909175 392.938811 239.823228 
C 392.024759 240.73728 391.511177 241.977176 391.511177 243.269841 
C 391.511177 244.562507 392.024759 245.802403 392.938811 246.716455 
C 393.852864 247.630508 395.092759 248.14409 396.385425 248.14409 
z
" clip-path="url(#p5a3e6e1eb4)" style="fill: #006633; stroke: #006633; stroke-width: 0.886227"/>
    <path d="M 440.80927 312.755611 
C 442.101936 312.755611 443.341831 312.242029 444.255884 311.327976 
C 445.169936 310.413924 445.683518 309.174028 445.683518 307.881362 
C 445.683518 306.588697 445.169936 305.348801 444.255884 304.434749 
C 443.341831 303.520696 442.101936 303.007114 440.80927 303.007114 
C 439.516604 303.007114 438.276709 303.520696 437.362656 304.434749 
C 436.448603 305.348801 435.935022 306.588697 435.935022 307.881362 
C 435.935022 309.174028 436.448603 310.413924 437.362656 311.327976 
C 438.276709 312.242029 439.516604 312.755611 440.80927 312.755611 
z
" clip-path="url(#p5a3e6e1eb4)" style="fill: #006633; stroke: #006633; stroke-width: 0.886227"/>
   </g>
   <g id="PathCollection_4">
    <path d="M 36.12042 71.895225 
L 45.868916 71.895225 
L 45.868916 62.146729 
L 36.12042 62.146729 
z
" clip-path="url(#p5a3e6e1eb4)" style="fill: #cc0033; stroke: #cc0033; stroke-width: 0.886227"/>
    <path d="M 80.544264 72.189136 
L 90.29276 72.189136 
L 90.29276 62.44064 
L 80.544264 62.44064 
z
" clip-path="url(#p5a3e6e1eb4)" style="fill: #cc0033; stroke: #cc0033; stroke-width: 0.886227"/>
    <path d="M 124.968109 75.814043 
L 134.716605 75.814043 
L 134.716605 66.065547 
L 124.968109 66.065547 
z
" clip-path="url(#p5a3e6e1eb4)" style="fill: #cc0033; stroke: #cc0033; stroke-width: 0.886227"/>
    <path d="M 169.391954 76.891718 
L 179.14045 76.891718 
L 179.14045 67.143222 
L 169.391954 67.143222 
z
" clip-path="url(#p5a3e6e1eb4)" style="fill: #cc0033; stroke: #cc0033; stroke-width: 0.886227"/>
    <path d="M 213.815798 80.810537 
L 223.564294 80.810537 
L 223.564294 71.062041 
L 213.815798 71.062041 
z
" clip-path="url(#p5a3e6e1eb4)" style="fill: #cc0033; stroke: #cc0033; stroke-width: 0.886227"/>
    <path d="M 258.239643 78.655187 
L 267.988139 78.655187 
L 267.988139 68.906691 
L 258.239643 68.906691 
z
" clip-path="url(#p5a3e6e1eb4)" style="fill: #cc0033; stroke: #cc0033; stroke-width: 0.886227"/>
    <path d="M 302.663488 84.288489 
L 312.411984 84.288489 
L 312.411984 74.539992 
L 302.663488 74.539992 
z
" clip-path="url(#p5a3e6e1eb4)" style="fill: #cc0033; stroke: #cc0033; stroke-width: 0.886227"/>
    <path d="M 347.087332 87.962381 
L 356.835829 87.962381 
L 356.835829 78.213885 
L 347.087332 78.213885 
z
" clip-path="url(#p5a3e6e1eb4)" style="fill: #cc0033; stroke: #cc0033; stroke-width: 0.886227"/>
    <path d="M 391.511177 88.207307 
L 401.259673 88.207307 
L 401.259673 78.458811 
L 391.511177 78.458811 
z
" clip-path="url(#p5a3e6e1eb4)" style="fill: #cc0033; stroke: #cc0033; stroke-width: 0.886227"/>
    <path d="M 435.935022 88.305278 
L 445.683518 88.305278 
L 445.683518 78.556781 
L 435.935022 78.556781 
z
" clip-path="url(#p5a3e6e1eb4)" style="fill: #cc0033; stroke: #cc0033; stroke-width: 0.886227"/>
   </g>
   <g id="line2d_1">
    <path d="M 40.994668 204.228612 
L 85.418512 148.091536 
L 129.842357 219.267078 
L 174.266202 234.844382 
L 218.690046 201.485439 
L 263.113891 227.300656 
L 307.537736 189.973909 
L 351.96158 230.23977 
L 396.385425 243.269841 
L 440.80927 307.881362 
" clip-path="url(#p5a3e6e1eb4)" style="fill: none; stroke: #006633; stroke-width: 1.772454"/>
   </g>
   <g id="line2d_2">
    <path d="M 40.994668 72.899205 
L 85.418512 101.996432 
L 129.842357 131.485542 
L 174.266202 132.12235 
L 218.690046 153.773823 
L 263.113891 156.321055 
L 307.537736 179.050202 
L 351.96158 185.663209 
L 396.385425 185.908135 
L 440.80927 178.952232 
" clip-path="url(#p5a3e6e1eb4)" style="fill: none; stroke: #006699; stroke-width: 1.772454"/>
   </g>
   <g id="line2d_3">
    <path d="M 40.994668 67.020977 
L 85.418512 67.314888 
L 129.842357 70.939795 
L 174.266202 72.01747 
L 218.690046 75.936289 
L 263.113891 73.780939 
L 307.537736 79.41424 
L 351.96158 83.088133 
L 396.385425 83.333059 
L 440.80927 83.431029 
" clip-path="url(#p5a3e6e1eb4)" style="fill: none; stroke: #cc0033; stroke-width: 1.772454"/>
   </g>
   <g id="line2d_4">
    <path d="M 40.994668 66.188228 
L 85.418512 65.747361 
L 129.842357 81.128724 
L 174.266202 78.777432 
L 218.690046 85.243483 
L 263.113891 105.082502 
L 307.537736 87.153907 
L 351.96158 117.573736 
L 396.385425 100.330934 
L 440.80927 99.155289 
" clip-path="url(#p5a3e6e1eb4)" style="fill: none; stroke: #ff9900; stroke-width: 1.772454"/>
   </g>
  </g>
  <g id="text_1">
   <!-- ploidy -->
   <g transform="translate(224.242125 338.704344) scale(0.11 -0.11)">
    <defs>
     <path id="DejaVuSans-70" d="M 1159 525 
L 1159 -1331 
L 581 -1331 
L 581 3500 
L 1159 3500 
L 1159 2969 
Q 1341 3281 1617 3432 
Q 1894 3584 2278 3584 
Q 2916 3584 3314 3078 
Q 3713 2572 3713 1747 
Q 3713 922 3314 415 
Q 2916 -91 2278 -91 
Q 1894 -91 1617 61 
Q 1341 213 1159 525 
z
M 3116 1747 
Q 3116 2381 2855 2742 
Q 2594 3103 2138 3103 
Q 1681 3103 1420 2742 
Q 1159 2381 1159 1747 
Q 1159 1113 1420 752 
Q 1681 391 2138 391 
Q 2594 391 2855 752 
Q 3116 1113 3116 1747 
z
" transform="scale(0.015625)"/>
     <path id="DejaVuSans-6c" d="M 603 4863 
L 1178 4863 
L 1178 0 
L 603 0 
L 603 4863 
z
" transform="scale(0.015625)"/>
     <path id="DejaVuSans-6f" d="M 1959 3097 
Q 1497 3097 1228 2736 
Q 959 2375 959 1747 
Q 959 1119 1226 758 
Q 1494 397 1959 397 
Q 2419 397 2687 759 
Q 2956 1122 2956 1747 
Q 2956 2369 2687 2733 
Q 2419 3097 1959 3097 
z
M 1959 3584 
Q 2709 3584 3137 3096 
Q 3566 2609 3566 1747 
Q 3566 888 3137 398 
Q 2709 -91 1959 -91 
Q 1206 -91 779 398 
Q 353 888 353 1747 
Q 353 2609 779 3096 
Q 1206 3584 1959 3584 
z
" transform="scale(0.015625)"/>
     <path id="DejaVuSans-69" d="M 603 3500 
L 1178 3500 
L 1178 0 
L 603 0 
L 603 3500 
z
M 603 4863 
L 1178 4863 
L 1178 4134 
L 603 4134 
L 603 4863 
z
" transform="scale(0.015625)"/>
     <path id="DejaVuSans-64" d="M 2906 2969 
L 2906 4863 
L 3481 4863 
L 3481 0 
L 2906 0 
L 2906 525 
Q 2725 213 2448 61 
Q 2172 -91 1784 -91 
Q 1150 -91 751 415 
Q 353 922 353 1747 
Q 353 2572 751 3078 
Q 1150 3584 1784 3584 
Q 2172 3584 2448 3432 
Q 2725 3281 2906 2969 
z
M 947 1747 
Q 947 1113 1208 752 
Q 1469 391 1925 391 
Q 2381 391 2643 752 
Q 2906 1113 2906 1747 
Q 2906 2381 2643 2742 
Q 2381 3103 1925 3103 
Q 1469 3103 1208 2742 
Q 947 2381 947 1747 
z
" transform="scale(0.015625)"/>
     <path id="DejaVuSans-79" d="M 2059 -325 
Q 1816 -950 1584 -1140 
Q 1353 -1331 966 -1331 
L 506 -1331 
L 506 -850 
L 844 -850 
Q 1081 -850 1212 -737 
Q 1344 -625 1503 -206 
L 1606 56 
L 191 3500 
L 800 3500 
L 1894 763 
L 2988 3500 
L 3597 3500 
L 2059 -325 
z
" transform="scale(0.015625)"/>
    </defs>
    <use xlink:href="#DejaVuSans-70"/>
    <use xlink:href="#DejaVuSans-6c" x="63.476562"/>
    <use xlink:href="#DejaVuSans-6f" x="91.259766"/>
    <use xlink:href="#DejaVuSans-69" x="152.441406"/>
    <use xlink:href="#DejaVuSans-64" x="180.224609"/>
    <use xlink:href="#DejaVuSans-79" x="243.701172"/>
   </g>
  </g>
  <g id="text_2">
   <!-- accuracy -->
   <g transform="translate(8.358281 211.629674) rotate(-90) scale(0.11 -0.11)">
    <defs>
     <path id="DejaVuSans-61" d="M 2194 1759 
Q 1497 1759 1228 1600 
Q 959 1441 959 1056 
Q 959 750 1161 570 
Q 1363 391 1709 391 
Q 2188 391 2477 730 
Q 2766 1069 2766 1631 
L 2766 1759 
L 2194 1759 
z
M 3341 1997 
L 3341 0 
L 2766 0 
L 2766 531 
Q 2569 213 2275 61 
Q 1981 -91 1556 -91 
Q 1019 -91 701 211 
Q 384 513 384 1019 
Q 384 1609 779 1909 
Q 1175 2209 1959 2209 
L 2766 2209 
L 2766 2266 
Q 2766 2663 2505 2880 
Q 2244 3097 1772 3097 
Q 1472 3097 1187 3025 
Q 903 2953 641 2809 
L 641 3341 
Q 956 3463 1253 3523 
Q 1550 3584 1831 3584 
Q 2591 3584 2966 3190 
Q 3341 2797 3341 1997 
z
" transform="scale(0.015625)"/>
     <path id="DejaVuSans-63" d="M 3122 3366 
L 3122 2828 
Q 2878 2963 2633 3030 
Q 2388 3097 2138 3097 
Q 1578 3097 1268 2742 
Q 959 2388 959 1747 
Q 959 1106 1268 751 
Q 1578 397 2138 397 
Q 2388 397 2633 464 
Q 2878 531 3122 666 
L 3122 134 
Q 2881 22 2623 -34 
Q 2366 -91 2075 -91 
Q 1284 -91 818 406 
Q 353 903 353 1747 
Q 353 2603 823 3093 
Q 1294 3584 2113 3584 
Q 2378 3584 2631 3529 
Q 2884 3475 3122 3366 
z
" transform="scale(0.015625)"/>
     <path id="DejaVuSans-75" d="M 544 1381 
L 544 3500 
L 1119 3500 
L 1119 1403 
Q 1119 906 1312 657 
Q 1506 409 1894 409 
Q 2359 409 2629 706 
Q 2900 1003 2900 1516 
L 2900 3500 
L 3475 3500 
L 3475 0 
L 2900 0 
L 2900 538 
Q 2691 219 2414 64 
Q 2138 -91 1772 -91 
Q 1169 -91 856 284 
Q 544 659 544 1381 
z
M 1991 3584 
L 1991 3584 
z
" transform="scale(0.015625)"/>
     <path id="DejaVuSans-72" d="M 2631 2963 
Q 2534 3019 2420 3045 
Q 2306 3072 2169 3072 
Q 1681 3072 1420 2755 
Q 1159 2438 1159 1844 
L 1159 0 
L 581 0 
L 581 3500 
L 1159 3500 
L 1159 2956 
Q 1341 3275 1631 3429 
Q 1922 3584 2338 3584 
Q 2397 3584 2469 3576 
Q 2541 3569 2628 3553 
L 2631 2963 
z
" transform="scale(0.015625)"/>
    </defs>
    <use xlink:href="#DejaVuSans-61"/>
    <use xlink:href="#DejaVuSans-63" x="61.279297"/>
    <use xlink:href="#DejaVuSans-63" x="116.259766"/>
    <use xlink:href="#DejaVuSans-75" x="171.240234"/>
    <use xlink:href="#DejaVuSans-72" x="234.619141"/>
    <use xlink:href="#DejaVuSans-61" x="275.732422"/>
    <use xlink:href="#DejaVuSans-63" x="337.011719"/>
    <use xlink:href="#DejaVuSans-79" x="391.992188"/>
   </g>
  </g>
  <g id="patch_3">
   <path d="M 48.643304 39.816661 
L 433.160634 39.816661 
L 433.160634 5.608 
L 48.643304 5.608 
L 48.643304 39.816661 
z
" style="fill: none"/>
  </g>
  <g id="text_3">
   <!-- tools -->
   <g transform="translate(48.843304 17.201594) scale(0.11 -0.11)">
    <defs>
     <path id="DejaVuSans-74" d="M 1172 4494 
L 1172 3500 
L 2356 3500 
L 2356 3053 
L 1172 3053 
L 1172 1153 
Q 1172 725 1289 603 
Q 1406 481 1766 481 
L 2356 481 
L 2356 0 
L 1766 0 
Q 1100 0 847 248 
Q 594 497 594 1153 
L 594 3053 
L 172 3053 
L 172 3500 
L 594 3500 
L 594 4494 
L 1172 4494 
z
" transform="scale(0.015625)"/>
     <path id="DejaVuSans-73" d="M 2834 3397 
L 2834 2853 
Q 2591 2978 2328 3040 
Q 2066 3103 1784 3103 
Q 1356 3103 1142 2972 
Q 928 2841 928 2578 
Q 928 2378 1081 2264 
Q 1234 2150 1697 2047 
L 1894 2003 
Q 2506 1872 2764 1633 
Q 3022 1394 3022 966 
Q 3022 478 2636 193 
Q 2250 -91 1575 -91 
Q 1294 -91 989 -36 
Q 684 19 347 128 
L 347 722 
Q 666 556 975 473 
Q 1284 391 1588 391 
Q 1994 391 2212 530 
Q 2431 669 2431 922 
Q 2431 1156 2273 1281 
Q 2116 1406 1581 1522 
L 1381 1569 
Q 847 1681 609 1914 
Q 372 2147 372 2553 
Q 372 3047 722 3315 
Q 1072 3584 1716 3584 
Q 2034 3584 2315 3537 
Q 2597 3491 2834 3397 
z
" transform="scale(0.015625)"/>
    </defs>
    <use xlink:href="#DejaVuSans-74"/>
    <use xlink:href="#DejaVuSans-6f" x="39.208984"/>
    <use xlink:href="#DejaVuSans-6f" x="100.390625"/>
    <use xlink:href="#DejaVuSans-6c" x="161.572266"/>
    <use xlink:href="#DejaVuSans-73" x="189.355469"/>
   </g>
  </g>
  <g id="patch_4">
   <path d="M 48.843304 39.616661 
L 67.398027 39.616661 
L 67.398027 21.061938 
L 48.843304 21.061938 
L 48.843304 39.616661 
z
" clip-path="url(#paf3cd23f54)" style="fill: none"/>
  </g>
  <g id="line2d_5">
   <path d="M 58.120665 30.339299 
" clip-path="url(#paf3cd23f54)" style="fill: none; stroke: #1f77b4; stroke-width: 1.5; stroke-linecap: square"/>
   <defs>
    <path id="mbcbed6509a" d="M 0 4.874248 
C 1.292666 4.874248 2.532561 4.360667 3.446614 3.446614 
C 4.360667 2.532561 4.874248 1.292666 4.874248 0 
C 4.874248 -1.292666 4.360667 -2.532561 3.446614 -3.446614 
C 2.532561 -4.360667 1.292666 -4.874248 0 -4.874248 
C -1.292666 -4.874248 -2.532561 -4.360667 -3.446614 -3.446614 
C -4.360667 -2.532561 -4.874248 -1.292666 -4.874248 0 
C -4.874248 1.292666 -4.360667 2.532561 -3.446614 3.446614 
C -2.532561 4.360667 -1.292666 4.874248 0 4.874248 
z
" style="stroke: #006633; stroke-width: 0.886227"/>
   </defs>
   <g clip-path="url(#paf3cd23f54)">
    <use xlink:href="#mbcbed6509a" x="58.120665" y="30.339299" style="fill: #006633; stroke: #006633; stroke-width: 0.886227"/>
   </g>
  </g>
  <g id="line2d_6">
   <path d="M 48.843304 30.339299 
L 67.398027 30.339299 
" clip-path="url(#paf3cd23f54)" style="fill: none; stroke: #006633; stroke-width: 1.772454"/>
  </g>
  <g id="text_4">
   <!-- flopp -->
   <g transform="translate(70.398027 34.202424) scale(0.14 -0.14)">
    <defs>
     <path id="DejaVuSans-66" d="M 2375 4863 
L 2375 4384 
L 1825 4384 
Q 1516 4384 1395 4259 
Q 1275 4134 1275 3809 
L 1275 3500 
L 2222 3500 
L 2222 3053 
L 1275 3053 
L 1275 0 
L 697 0 
L 697 3053 
L 147 3053 
L 147 3500 
L 697 3500 
L 697 3744 
Q 697 4328 969 4595 
Q 1241 4863 1831 4863 
L 2375 4863 
z
" transform="scale(0.015625)"/>
    </defs>
    <use xlink:href="#DejaVuSans-66"/>
    <use xlink:href="#DejaVuSans-6c" x="35.205078"/>
    <use xlink:href="#DejaVuSans-6f" x="62.988281"/>
    <use xlink:href="#DejaVuSans-70" x="124.169922"/>
    <use xlink:href="#DejaVuSans-70" x="187.646484"/>
   </g>
  </g>
  <g id="patch_5">
   <path d="M 110.557714 39.616661 
L 129.112437 39.616661 
L 129.112437 21.061938 
L 110.557714 21.061938 
L 110.557714 39.616661 
z
" clip-path="url(#pfa067bd541)" style="fill: none"/>
  </g>
  <g id="line2d_7">
   <path d="M 119.835076 30.339299 
" clip-path="url(#pfa067bd541)" style="fill: none; stroke: #1f77b4; stroke-width: 1.5; stroke-linecap: square"/>
   <defs>
    <path id="m3ed1e7aff9" d="M 0 -4.874248 
L -4.874248 4.874248 
L 4.874248 4.874248 
z
" style="stroke: #006699; stroke-width: 0.886227; stroke-linejoin: miter"/>
   </defs>
   <g clip-path="url(#pfa067bd541)">
    <use xlink:href="#m3ed1e7aff9" x="119.835076" y="30.339299" style="fill: #006699; stroke: #006699; stroke-width: 0.886227; stroke-linejoin: miter"/>
   </g>
  </g>
  <g id="line2d_8">
   <path d="M 110.557714 30.339299 
L 129.112437 30.339299 
" clip-path="url(#pfa067bd541)" style="fill: none; stroke: #006699; stroke-width: 1.772454"/>
  </g>
  <g id="text_5">
   <!-- nPhase -->
   <g transform="translate(132.112437 34.202424) scale(0.14 -0.14)">
    <defs>
     <path id="DejaVuSans-6e" d="M 3513 2113 
L 3513 0 
L 2938 0 
L 2938 2094 
Q 2938 2591 2744 2837 
Q 2550 3084 2163 3084 
Q 1697 3084 1428 2787 
Q 1159 2491 1159 1978 
L 1159 0 
L 581 0 
L 581 3500 
L 1159 3500 
L 1159 2956 
Q 1366 3272 1645 3428 
Q 1925 3584 2291 3584 
Q 2894 3584 3203 3211 
Q 3513 2838 3513 2113 
z
" transform="scale(0.015625)"/>
     <path id="DejaVuSans-50" d="M 1259 4147 
L 1259 2394 
L 2053 2394 
Q 2494 2394 2734 2622 
Q 2975 2850 2975 3272 
Q 2975 3691 2734 3919 
Q 2494 4147 2053 4147 
L 1259 4147 
z
M 628 4666 
L 2053 4666 
Q 2838 4666 3239 4311 
Q 3641 3956 3641 3272 
Q 3641 2581 3239 2228 
Q 2838 1875 2053 1875 
L 1259 1875 
L 1259 0 
L 628 0 
L 628 4666 
z
" transform="scale(0.015625)"/>
     <path id="DejaVuSans-68" d="M 3513 2113 
L 3513 0 
L 2938 0 
L 2938 2094 
Q 2938 2591 2744 2837 
Q 2550 3084 2163 3084 
Q 1697 3084 1428 2787 
Q 1159 2491 1159 1978 
L 1159 0 
L 581 0 
L 581 4863 
L 1159 4863 
L 1159 2956 
Q 1366 3272 1645 3428 
Q 1925 3584 2291 3584 
Q 2894 3584 3203 3211 
Q 3513 2838 3513 2113 
z
" transform="scale(0.015625)"/>
     <path id="DejaVuSans-65" d="M 3597 1894 
L 3597 1613 
L 953 1613 
Q 991 1019 1311 708 
Q 1631 397 2203 397 
Q 2534 397 2845 478 
Q 3156 559 3463 722 
L 3463 178 
Q 3153 47 2828 -22 
Q 2503 -91 2169 -91 
Q 1331 -91 842 396 
Q 353 884 353 1716 
Q 353 2575 817 3079 
Q 1281 3584 2069 3584 
Q 2775 3584 3186 3129 
Q 3597 2675 3597 1894 
z
M 3022 2063 
Q 3016 2534 2758 2815 
Q 2500 3097 2075 3097 
Q 1594 3097 1305 2825 
Q 1016 2553 972 2059 
L 3022 2063 
z
" transform="scale(0.015625)"/>
    </defs>
    <use xlink:href="#DejaVuSans-6e"/>
    <use xlink:href="#DejaVuSans-50" x="63.378906"/>
    <use xlink:href="#DejaVuSans-68" x="123.681641"/>
    <use xlink:href="#DejaVuSans-61" x="187.060547"/>
    <use xlink:href="#DejaVuSans-73" x="248.339844"/>
    <use xlink:href="#DejaVuSans-65" x="300.439453"/>
   </g>
  </g>
  <g id="patch_6">
   <path d="M 187.785875 39.616661 
L 206.340598 39.616661 
L 206.340598 21.061938 
L 187.785875 21.061938 
L 187.785875 39.616661 
z
" clip-path="url(#pb129ed89f7)" style="fill: none"/>
  </g>
  <g id="line2d_9">
   <path d="M 197.063237 30.339299 
" clip-path="url(#pb129ed89f7)" style="fill: none; stroke: #1f77b4; stroke-width: 1.5; stroke-linecap: square"/>
   <defs>
    <path id="mc576198d18" d="M -4.874248 4.874248 
L 4.874248 4.874248 
L 4.874248 -4.874248 
L -4.874248 -4.874248 
z
" style="stroke: #cc0033; stroke-width: 0.886227; stroke-linejoin: miter"/>
   </defs>
   <g clip-path="url(#pb129ed89f7)">
    <use xlink:href="#mc576198d18" x="197.063237" y="30.339299" style="fill: #cc0033; stroke: #cc0033; stroke-width: 0.886227; stroke-linejoin: miter"/>
   </g>
  </g>
  <g id="line2d_10">
   <path d="M 187.785875 30.339299 
L 206.340598 30.339299 
" clip-path="url(#pb129ed89f7)" style="fill: none; stroke: #cc0033; stroke-width: 1.772454"/>
  </g>
  <g id="text_6">
   <!-- nTChap -->
   <g transform="translate(209.340598 34.202424) scale(0.14 -0.14)">
    <defs>
     <path id="DejaVuSans-54" d="M -19 4666 
L 3928 4666 
L 3928 4134 
L 2272 4134 
L 2272 0 
L 1638 0 
L 1638 4134 
L -19 4134 
L -19 4666 
z
" transform="scale(0.015625)"/>
     <path id="DejaVuSans-43" d="M 4122 4306 
L 4122 3641 
Q 3803 3938 3442 4084 
Q 3081 4231 2675 4231 
Q 1875 4231 1450 3742 
Q 1025 3253 1025 2328 
Q 1025 1406 1450 917 
Q 1875 428 2675 428 
Q 3081 428 3442 575 
Q 3803 722 4122 1019 
L 4122 359 
Q 3791 134 3420 21 
Q 3050 -91 2638 -91 
Q 1578 -91 968 557 
Q 359 1206 359 2328 
Q 359 3453 968 4101 
Q 1578 4750 2638 4750 
Q 3056 4750 3426 4639 
Q 3797 4528 4122 4306 
z
" transform="scale(0.015625)"/>
    </defs>
    <use xlink:href="#DejaVuSans-6e"/>
    <use xlink:href="#DejaVuSans-54" x="63.378906"/>
    <use xlink:href="#DejaVuSans-43" x="118.587891"/>
    <use xlink:href="#DejaVuSans-68" x="188.412109"/>
    <use xlink:href="#DejaVuSans-61" x="251.791016"/>
    <use xlink:href="#DejaVuSans-70" x="313.070312"/>
   </g>
  </g>
  <g id="patch_7">
   <path d="M 267.057161 39.616661 
L 285.611884 39.616661 
L 285.611884 21.061938 
L 267.057161 21.061938 
L 267.057161 39.616661 
z
" clip-path="url(#p085c2b4e28)" style="fill: none"/>
  </g>
  <g id="line2d_11">
   <path d="M 276.334522 30.339299 
" clip-path="url(#p085c2b4e28)" style="fill: none; stroke: #1f77b4; stroke-width: 1.5; stroke-linecap: square"/>
   <defs>
    <path id="mc32493d0bb" d="M -0 6.893228 
L 6.893228 0 
L 0 -6.893228 
L -6.893228 -0 
z
" style="stroke: #ff9900; stroke-width: 0.886227; stroke-linejoin: miter"/>
   </defs>
   <g clip-path="url(#p085c2b4e28)">
    <use xlink:href="#mc32493d0bb" x="276.334522" y="30.339299" style="fill: #ff9900; stroke: #ff9900; stroke-width: 0.886227; stroke-linejoin: miter"/>
   </g>
  </g>
  <g id="line2d_12">
   <path d="M 267.057161 30.339299 
L 285.611884 30.339299 
" clip-path="url(#p085c2b4e28)" style="fill: none; stroke: #ff9900; stroke-width: 1.772454"/>
  </g>
  <g id="text_7">
   <!-- whatshap polyphase -->
   <g transform="translate(288.611884 34.202424) scale(0.14 -0.14)">
    <defs>
     <path id="DejaVuSans-77" d="M 269 3500 
L 844 3500 
L 1563 769 
L 2278 3500 
L 2956 3500 
L 3675 769 
L 4391 3500 
L 4966 3500 
L 4050 0 
L 3372 0 
L 2619 2869 
L 1863 0 
L 1184 0 
L 269 3500 
z
" transform="scale(0.015625)"/>
     <path id="DejaVuSans-20" transform="scale(0.015625)"/>
    </defs>
    <use xlink:href="#DejaVuSans-77"/>
    <use xlink:href="#DejaVuSans-68" x="81.787109"/>
    <use xlink:href="#DejaVuSans-61" x="145.166016"/>
    <use xlink:href="#DejaVuSans-74" x="206.445312"/>
    <use xlink:href="#DejaVuSans-73" x="245.654297"/>
    <use xlink:href="#DejaVuSans-68" x="297.753906"/>
    <use xlink:href="#DejaVuSans-61" x="361.132812"/>
    <use xlink:href="#DejaVuSans-70" x="422.412109"/>
    <use xlink:href="#DejaVuSans-20" x="485.888672"/>
    <use xlink:href="#DejaVuSans-70" x="517.675781"/>
    <use xlink:href="#DejaVuSans-6f" x="581.152344"/>
    <use xlink:href="#DejaVuSans-6c" x="642.333984"/>
    <use xlink:href="#DejaVuSans-79" x="670.117188"/>
    <use xlink:href="#DejaVuSans-70" x="729.296875"/>
    <use xlink:href="#DejaVuSans-68" x="792.773438"/>
    <use xlink:href="#DejaVuSans-61" x="856.152344"/>
    <use xlink:href="#DejaVuSans-73" x="917.431641"/>
    <use xlink:href="#DejaVuSans-65" x="969.53125"/>
   </g>
  </g>
 </g>
 <defs>
  <clipPath id="p5a3e6e1eb4">
   <rect x="21.003938" y="53.640661" width="439.796063" height="266.347402"/>
  </clipPath>
  <clipPath id="paf3cd23f54">
   <path d="M 48.843304 39.616661 
L 48.843304 21.061938 
L 67.398027 21.061938 
L 67.398027 39.616661 
"/>
  </clipPath>
  <clipPath id="pfa067bd541">
   <path d="M 110.557714 39.616661 
L 110.557714 21.061938 
L 129.112437 21.061938 
L 129.112437 39.616661 
"/>
  </clipPath>
  <clipPath id="pb129ed89f7">
   <path d="M 187.785875 39.616661 
L 187.785875 21.061938 
L 206.340598 21.061938 
L 206.340598 39.616661 
"/>
  </clipPath>
  <clipPath id="p085c2b4e28">
   <path d="M 267.057161 39.616661 
L 267.057161 21.061938 
L 285.611884 21.061938 
L 285.611884 39.616661 
"/>
  </clipPath>
 </defs>
</svg>
