<?xml version="1.0" encoding="utf-8" standalone="no"?>
<!DOCTYPE svg PUBLIC "-//W3C//DTD SVG 1.1//EN"
  "http://www.w3.org/Graphics/SVG/1.1/DTD/svg11.dtd">
<svg xmlns:xlink="http://www.w3.org/1999/xlink" width="460.8pt" height="345.6pt" viewBox="0 0 460.8 345.6" xmlns="http://www.w3.org/2000/svg" version="1.1">
 <metadata>
  <rdf:RDF xmlns:dc="http://purl.org/dc/elements/1.1/" xmlns:cc="http://creativecommons.org/ns#" xmlns:rdf="http://www.w3.org/1999/02/22-rdf-syntax-ns#">
   <cc:Work>
    <dc:type rdf:resource="http://purl.org/dc/dcmitype/StillImage"/>
    <dc:date>2025-06-24T10:45:55.288022</dc:date>
    <dc:format>image/svg+xml</dc:format>
    <dc:creator>
     <cc:Agent>
      <dc:title>Matplotlib v3.7.3, https://matplotlib.org/</dc:title>
     </cc:Agent>
    </dc:creator>
   </cc:Work>
  </rdf:RDF>
 </metadata>
 <defs>
  <style type="text/css">*{stroke-linejoin: round; stroke-linecap: butt}</style>
 </defs>
 <g id="figure_1">
  <g id="patch_1">
   <path d="M 0 345.6 
L 460.8 345.6 
L 460.8 0 
L 0 0 
z
" style="fill: #ffffff; stroke: #ffffff; stroke-linejoin: miter"/>
  </g>
  <g id="axes_1">
   <g id="patch_2">
    <path d="M 21.003938 319.988062 
L 460.8 319.988062 
L 460.8 53.640661 
L 21.003938 53.640661 
L 21.003938 319.988062 
z
" style="fill: none"/>
   </g>
   <g id="matplotlib.axis_1">
    <g id="xtick_1"/>
    <g id="xtick_2"/>
    <g id="xtick_3"/>
    <g id="xtick_4"/>
    <g id="xtick_5"/>
    <g id="xtick_6"/>
    <g id="xtick_7"/>
   </g>
   <g id="matplotlib.axis_2">
    <g id="ytick_1"/>
    <g id="ytick_2"/>
    <g id="ytick_3"/>
    <g id="ytick_4"/>
    <g id="ytick_5"/>
    <g id="ytick_6"/>
    <g id="ytick_7"/>
    <g id="ytick_8"/>
    <g id="ytick_9"/>
    <g id="ytick_10"/>
    <g id="ytick_11"/>
   </g>
   <g id="PathCollection_1">
    <path d="M 40.994668 113.446319 
L 47.887895 106.553091 
L 40.994668 99.659863 
L 34.10144 106.553091 
z
" clip-path="url(#p2d7ba54735)" style="fill: #ff9900; stroke: #ff9900; stroke-width: 0.886227"/>
    <path d="M 85.418512 112.996255 
L 92.31174 106.103028 
L 85.418512 99.2098 
L 78.525285 106.103028 
z
" clip-path="url(#p2d7ba54735)" style="fill: #ff9900; stroke: #ff9900; stroke-width: 0.886227"/>
    <path d="M 129.842357 96.343917 
L 136.735585 89.450689 
L 129.842357 82.557461 
L 122.949129 89.450689 
z
" clip-path="url(#p2d7ba54735)" style="fill: #ff9900; stroke: #ff9900; stroke-width: 0.886227"/>
    <path d="M 174.266202 135.099359 
L 181.159429 128.206131 
L 174.266202 121.312904 
L 167.372974 128.206131 
z
" clip-path="url(#p2d7ba54735)" style="fill: #ff9900; stroke: #ff9900; stroke-width: 0.886227"/>
    <path d="M 218.690046 106.795385 
L 225.583274 99.902157 
L 218.690046 93.008929 
L 211.796819 99.902157 
z
" clip-path="url(#p2d7ba54735)" style="fill: #ff9900; stroke: #ff9900; stroke-width: 0.886227"/>
    <path d="M 263.113891 130.748748 
L 270.007119 123.855521 
L 263.113891 116.962293 
L 256.220663 123.855521 
z
" clip-path="url(#p2d7ba54735)" style="fill: #ff9900; stroke: #ff9900; stroke-width: 0.886227"/>
    <path d="M 307.537736 99.094303 
L 314.430964 92.201075 
L 307.537736 85.307848 
L 300.644508 92.201075 
z
" clip-path="url(#p2d7ba54735)" style="fill: #ff9900; stroke: #ff9900; stroke-width: 0.886227"/>
    <path d="M 351.96158 109.795806 
L 358.854808 102.902578 
L 351.96158 96.00935 
L 345.068353 102.902578 
z
" clip-path="url(#p2d7ba54735)" style="fill: #ff9900; stroke: #ff9900; stroke-width: 0.886227"/>
    <path d="M 396.385425 111.696073 
L 403.278653 104.802845 
L 396.385425 97.909617 
L 389.492197 104.802845 
z
" clip-path="url(#p2d7ba54735)" style="fill: #ff9900; stroke: #ff9900; stroke-width: 0.886227"/>
    <path d="M 440.80927 111.396031 
L 447.702498 104.502803 
L 440.80927 97.609575 
L 433.916042 104.502803 
z
" clip-path="url(#p2d7ba54735)" style="fill: #ff9900; stroke: #ff9900; stroke-width: 0.886227"/>
   </g>
   <g id="PathCollection_2">
    <path d="M 40.994668 72.67477 
L 36.12042 82.423266 
L 45.868916 82.423266 
z
" clip-path="url(#p2d7ba54735)" style="fill: #006699; stroke: #006699; stroke-width: 0.886227"/>
    <path d="M 85.418512 128.832656 
L 80.544264 138.581152 
L 90.29276 138.581152 
z
" clip-path="url(#p2d7ba54735)" style="fill: #006699; stroke: #006699; stroke-width: 0.886227"/>
    <path d="M 129.842357 108.479798 
L 124.968109 118.228294 
L 134.716605 118.228294 
z
" clip-path="url(#p2d7ba54735)" style="fill: #006699; stroke: #006699; stroke-width: 0.886227"/>
    <path d="M 174.266202 132.233133 
L 169.391954 141.98163 
L 179.14045 141.98163 
z
" clip-path="url(#p2d7ba54735)" style="fill: #006699; stroke: #006699; stroke-width: 0.886227"/>
    <path d="M 218.690046 157.236644 
L 213.815798 166.985141 
L 223.564294 166.985141 
z
" clip-path="url(#p2d7ba54735)" style="fill: #006699; stroke: #006699; stroke-width: 0.886227"/>
    <path d="M 263.113891 165.087747 
L 258.239643 174.836243 
L 267.988139 174.836243 
z
" clip-path="url(#p2d7ba54735)" style="fill: #006699; stroke: #006699; stroke-width: 0.886227"/>
    <path d="M 307.537736 166.38793 
L 302.663488 176.136426 
L 312.411984 176.136426 
z
" clip-path="url(#p2d7ba54735)" style="fill: #006699; stroke: #006699; stroke-width: 0.886227"/>
    <path d="M 351.96158 165.53781 
L 347.087332 175.286306 
L 356.835829 175.286306 
z
" clip-path="url(#p2d7ba54735)" style="fill: #006699; stroke: #006699; stroke-width: 0.886227"/>
    <path d="M 396.385425 186.990823 
L 391.511177 196.739319 
L 401.259673 196.739319 
z
" clip-path="url(#p2d7ba54735)" style="fill: #006699; stroke: #006699; stroke-width: 0.886227"/>
    <path d="M 440.80927 170.588519 
L 435.935022 180.337016 
L 445.683518 180.337016 
z
" clip-path="url(#p2d7ba54735)" style="fill: #006699; stroke: #006699; stroke-width: 0.886227"/>
   </g>
   <g id="PathCollection_3">
    <path d="M 40.994668 163.234614 
C 42.287333 163.234614 43.527229 162.721032 44.441281 161.80698 
C 45.355334 160.892927 45.868916 159.653032 45.868916 158.360366 
C 45.868916 157.0677 45.355334 155.827805 44.441281 154.913752 
C 43.527229 153.999699 42.287333 153.486118 40.994668 153.486118 
C 39.702002 153.486118 38.462106 153.999699 37.548054 154.913752 
C 36.634001 155.827805 36.12042 157.0677 36.12042 158.360366 
C 36.12042 159.653032 36.634001 160.892927 37.548054 161.80698 
C 38.462106 162.721032 39.702002 163.234614 40.994668 163.234614 
z
" clip-path="url(#p2d7ba54735)" style="fill: #006633; stroke: #006633; stroke-width: 0.886227"/>
    <path d="M 85.418512 202.140077 
C 86.711178 202.140077 87.951074 201.626496 88.865126 200.712443 
C 89.779179 199.79839 90.29276 198.558495 90.29276 197.265829 
C 90.29276 195.973163 89.779179 194.733268 88.865126 193.819215 
C 87.951074 192.905163 86.711178 192.391581 85.418512 192.391581 
C 84.125847 192.391581 82.885951 192.905163 81.971898 193.819215 
C 81.057846 194.733268 80.544264 195.973163 80.544264 197.265829 
C 80.544264 198.558495 81.057846 199.79839 81.971898 200.712443 
C 82.885951 201.626496 84.125847 202.140077 85.418512 202.140077 
z
" clip-path="url(#p2d7ba54735)" style="fill: #006633; stroke: #006633; stroke-width: 0.886227"/>
    <path d="M 129.842357 244.24599 
C 131.135023 244.24599 132.374918 243.732408 133.288971 242.818356 
C 134.203024 241.904303 134.716605 240.664408 134.716605 239.371742 
C 134.716605 238.079076 134.203024 236.839181 133.288971 235.925128 
C 132.374918 235.011075 131.135023 234.497494 129.842357 234.497494 
C 128.549691 234.497494 127.309796 235.011075 126.395743 235.925128 
C 125.48169 236.839181 124.968109 238.079076 124.968109 239.371742 
C 124.968109 240.664408 125.48169 241.904303 126.395743 242.818356 
C 127.309796 243.732408 128.549691 244.24599 129.842357 244.24599 
z
" clip-path="url(#p2d7ba54735)" style="fill: #006633; stroke: #006633; stroke-width: 0.886227"/>
    <path d="M 174.266202 208.891025 
C 175.558867 208.891025 176.798763 208.377444 177.712816 207.463391 
C 178.626868 206.549338 179.14045 205.309443 179.14045 204.016777 
C 179.14045 202.724112 178.626868 201.484216 177.712816 200.570163 
C 176.798763 199.656111 175.558867 199.142529 174.266202 199.142529 
C 172.973536 199.142529 171.733641 199.656111 170.819588 200.570163 
C 169.905535 201.484216 169.391954 202.724112 169.391954 204.016777 
C 169.391954 205.309443 169.905535 206.549338 170.819588 207.463391 
C 171.733641 208.377444 172.973536 208.891025 174.266202 208.891025 
z
" clip-path="url(#p2d7ba54735)" style="fill: #006633; stroke: #006633; stroke-width: 0.886227"/>
    <path d="M 218.690046 291.852675 
C 219.982712 291.852675 221.222608 291.339094 222.13666 290.425041 
C 223.050713 289.510988 223.564294 288.271093 223.564294 286.978427 
C 223.564294 285.685761 223.050713 284.445866 222.13666 283.531813 
C 221.222608 282.617761 219.982712 282.104179 218.690046 282.104179 
C 217.397381 282.104179 216.157485 282.617761 215.243433 283.531813 
C 214.32938 284.445866 213.815798 285.685761 213.815798 286.978427 
C 213.815798 288.271093 214.32938 289.510988 215.243433 290.425041 
C 216.157485 291.339094 217.397381 291.852675 218.690046 291.852675 
z
" clip-path="url(#p2d7ba54735)" style="fill: #006633; stroke: #006633; stroke-width: 0.886227"/>
    <path d="M 263.113891 285.501783 
C 264.406557 285.501783 265.646452 284.988202 266.560505 284.074149 
C 267.474558 283.160096 267.988139 281.920201 267.988139 280.627535 
C 267.988139 279.33487 267.474558 278.094974 266.560505 277.180921 
C 265.646452 276.266869 264.406557 275.753287 263.113891 275.753287 
C 261.821225 275.753287 260.58133 276.266869 259.667277 277.180921 
C 258.753225 278.094974 258.239643 279.33487 258.239643 280.627535 
C 258.239643 281.920201 258.753225 283.160096 259.667277 284.074149 
C 260.58133 284.988202 261.821225 285.501783 263.113891 285.501783 
z
" clip-path="url(#p2d7ba54735)" style="fill: #006633; stroke: #006633; stroke-width: 0.886227"/>
    <path d="M 307.537736 312.755611 
C 308.830401 312.755611 310.070297 312.242029 310.98435 311.327976 
C 311.898402 310.413924 312.411984 309.174028 312.411984 307.881362 
C 312.411984 306.588697 311.898402 305.348801 310.98435 304.434749 
C 310.070297 303.520696 308.830401 303.007114 307.537736 303.007114 
C 306.24507 303.007114 305.005175 303.520696 304.091122 304.434749 
C 303.177069 305.348801 302.663488 306.588697 302.663488 307.881362 
C 302.663488 309.174028 303.177069 310.413924 304.091122 311.327976 
C 305.005175 312.242029 306.24507 312.755611 307.537736 312.755611 
z
" clip-path="url(#p2d7ba54735)" style="fill: #006633; stroke: #006633; stroke-width: 0.886227"/>
    <path d="M 351.96158 283.001432 
C 353.254246 283.001432 354.494142 282.487851 355.408194 281.573798 
C 356.322247 280.659745 356.835829 279.41985 356.835829 278.127184 
C 356.835829 276.834518 356.322247 275.594623 355.408194 274.68057 
C 354.494142 273.766518 353.254246 273.252936 351.96158 273.252936 
C 350.668915 273.252936 349.429019 273.766518 348.514967 274.68057 
C 347.600914 275.594623 347.087332 276.834518 347.087332 278.127184 
C 347.087332 279.41985 347.600914 280.659745 348.514967 281.573798 
C 349.429019 282.487851 350.668915 283.001432 351.96158 283.001432 
z
" clip-path="url(#p2d7ba54735)" style="fill: #006633; stroke: #006633; stroke-width: 0.886227"/>
    <path d="M 396.385425 279.400927 
C 397.678091 279.400927 398.917986 278.887345 399.832039 277.973292 
C 400.746092 277.05924 401.259673 275.819344 401.259673 274.526679 
C 401.259673 273.234013 400.746092 271.994117 399.832039 271.080065 
C 398.917986 270.166012 397.678091 269.65243 396.385425 269.65243 
C 395.092759 269.65243 393.852864 270.166012 392.938811 271.080065 
C 392.024759 271.994117 391.511177 273.234013 391.511177 274.526679 
C 391.511177 275.819344 392.024759 277.05924 392.938811 277.973292 
C 393.852864 278.887345 395.092759 279.400927 396.385425 279.400927 
z
" clip-path="url(#p2d7ba54735)" style="fill: #006633; stroke: #006633; stroke-width: 0.886227"/>
    <path d="M 440.80927 295.603202 
C 442.101936 295.603202 443.341831 295.08962 444.255884 294.175568 
C 445.169936 293.261515 445.683518 292.021619 445.683518 290.728954 
C 445.683518 289.436288 445.169936 288.196393 444.255884 287.28234 
C 443.341831 286.368287 442.101936 285.854706 440.80927 285.854706 
C 439.516604 285.854706 438.276709 286.368287 437.362656 287.28234 
C 436.448603 288.196393 435.935022 289.436288 435.935022 290.728954 
C 435.935022 292.021619 436.448603 293.261515 437.362656 294.175568 
C 438.276709 295.08962 439.516604 295.603202 440.80927 295.603202 
z
" clip-path="url(#p2d7ba54735)" style="fill: #006633; stroke: #006633; stroke-width: 0.886227"/>
   </g>
   <g id="PathCollection_4">
    <path d="M 36.12042 70.621609 
L 45.868916 70.621609 
L 45.868916 60.873113 
L 36.12042 60.873113 
z
" clip-path="url(#p2d7ba54735)" style="fill: #cc0033; stroke: #cc0033; stroke-width: 0.886227"/>
    <path d="M 80.544264 71.121679 
L 90.29276 71.121679 
L 90.29276 61.373183 
L 80.544264 61.373183 
z
" clip-path="url(#p2d7ba54735)" style="fill: #cc0033; stroke: #cc0033; stroke-width: 0.886227"/>
    <path d="M 124.968109 74.572164 
L 134.716605 74.572164 
L 134.716605 64.823667 
L 124.968109 64.823667 
z
" clip-path="url(#p2d7ba54735)" style="fill: #cc0033; stroke: #cc0033; stroke-width: 0.886227"/>
    <path d="M 169.391954 74.422142 
L 179.14045 74.422142 
L 179.14045 64.673646 
L 169.391954 64.673646 
z
" clip-path="url(#p2d7ba54735)" style="fill: #cc0033; stroke: #cc0033; stroke-width: 0.886227"/>
    <path d="M 213.815798 79.572866 
L 223.564294 79.572866 
L 223.564294 69.82437 
L 213.815798 69.82437 
z
" clip-path="url(#p2d7ba54735)" style="fill: #cc0033; stroke: #cc0033; stroke-width: 0.886227"/>
    <path d="M 258.239643 78.922774 
L 267.988139 78.922774 
L 267.988139 69.174278 
L 258.239643 69.174278 
z
" clip-path="url(#p2d7ba54735)" style="fill: #cc0033; stroke: #cc0033; stroke-width: 0.886227"/>
    <path d="M 302.663488 85.37368 
L 312.411984 85.37368 
L 312.411984 75.625184 
L 302.663488 75.625184 
z
" clip-path="url(#p2d7ba54735)" style="fill: #cc0033; stroke: #cc0033; stroke-width: 0.886227"/>
    <path d="M 347.087332 85.523701 
L 356.835829 85.523701 
L 356.835829 75.775205 
L 347.087332 75.775205 
z
" clip-path="url(#p2d7ba54735)" style="fill: #cc0033; stroke: #cc0033; stroke-width: 0.886227"/>
    <path d="M 391.511177 92.724713 
L 401.259673 92.724713 
L 401.259673 82.976216 
L 391.511177 82.976216 
z
" clip-path="url(#p2d7ba54735)" style="fill: #cc0033; stroke: #cc0033; stroke-width: 0.886227"/>
    <path d="M 435.935022 86.173793 
L 445.683518 86.173793 
L 445.683518 76.425297 
L 435.935022 76.425297 
z
" clip-path="url(#p2d7ba54735)" style="fill: #cc0033; stroke: #cc0033; stroke-width: 0.886227"/>
   </g>
   <g id="line2d_1">
    <path d="M 40.994668 158.360366 
L 85.418512 197.265829 
L 129.842357 239.371742 
L 174.266202 204.016777 
L 218.690046 286.978427 
L 263.113891 280.627535 
L 307.537736 307.881362 
L 351.96158 278.127184 
L 396.385425 274.526679 
L 440.80927 290.728954 
" clip-path="url(#p2d7ba54735)" style="fill: none; stroke: #006633; stroke-width: 1.772454"/>
   </g>
   <g id="line2d_2">
    <path d="M 40.994668 77.549018 
L 85.418512 133.706904 
L 129.842357 113.354046 
L 174.266202 137.107381 
L 218.690046 162.110893 
L 263.113891 169.961995 
L 307.537736 171.262178 
L 351.96158 170.412058 
L 396.385425 191.865071 
L 440.80927 175.462768 
" clip-path="url(#p2d7ba54735)" style="fill: none; stroke: #006699; stroke-width: 1.772454"/>
   </g>
   <g id="line2d_3">
    <path d="M 40.994668 65.747361 
L 85.418512 66.247431 
L 129.842357 69.697915 
L 174.266202 69.547894 
L 218.690046 74.698618 
L 263.113891 74.048526 
L 307.537736 80.499432 
L 351.96158 80.649453 
L 396.385425 87.850465 
L 440.80927 81.299545 
" clip-path="url(#p2d7ba54735)" style="fill: none; stroke: #cc0033; stroke-width: 1.772454"/>
   </g>
   <g id="line2d_4">
    <path d="M 40.994668 106.553091 
L 85.418512 106.103028 
L 129.842357 89.450689 
L 174.266202 128.206131 
L 218.690046 99.902157 
L 263.113891 123.855521 
L 307.537736 92.201075 
L 351.96158 102.902578 
L 396.385425 104.802845 
L 440.80927 104.502803 
" clip-path="url(#p2d7ba54735)" style="fill: none; stroke: #ff9900; stroke-width: 1.772454"/>
   </g>
  </g>
  <g id="text_1">
   <!-- ploidy -->
   <g transform="translate(224.242125 338.704344) scale(0.11 -0.11)">
    <defs>
     <path id="DejaVuSans-70" d="M 1159 525 
L 1159 -1331 
L 581 -1331 
L 581 3500 
L 1159 3500 
L 1159 2969 
Q 1341 3281 1617 3432 
Q 1894 3584 2278 3584 
Q 2916 3584 3314 3078 
Q 3713 2572 3713 1747 
Q 3713 922 3314 415 
Q 2916 -91 2278 -91 
Q 1894 -91 1617 61 
Q 1341 213 1159 525 
z
M 3116 1747 
Q 3116 2381 2855 2742 
Q 2594 3103 2138 3103 
Q 1681 3103 1420 2742 
Q 1159 2381 1159 1747 
Q 1159 1113 1420 752 
Q 1681 391 2138 391 
Q 2594 391 2855 752 
Q 3116 1113 3116 1747 
z
" transform="scale(0.015625)"/>
     <path id="DejaVuSans-6c" d="M 603 4863 
L 1178 4863 
L 1178 0 
L 603 0 
L 603 4863 
z
" transform="scale(0.015625)"/>
     <path id="DejaVuSans-6f" d="M 1959 3097 
Q 1497 3097 1228 2736 
Q 959 2375 959 1747 
Q 959 1119 1226 758 
Q 1494 397 1959 397 
Q 2419 397 2687 759 
Q 2956 1122 2956 1747 
Q 2956 2369 2687 2733 
Q 2419 3097 1959 3097 
z
M 1959 3584 
Q 2709 3584 3137 3096 
Q 3566 2609 3566 1747 
Q 3566 888 3137 398 
Q 2709 -91 1959 -91 
Q 1206 -91 779 398 
Q 353 888 353 1747 
Q 353 2609 779 3096 
Q 1206 3584 1959 3584 
z
" transform="scale(0.015625)"/>
     <path id="DejaVuSans-69" d="M 603 3500 
L 1178 3500 
L 1178 0 
L 603 0 
L 603 3500 
z
M 603 4863 
L 1178 4863 
L 1178 4134 
L 603 4134 
L 603 4863 
z
" transform="scale(0.015625)"/>
     <path id="DejaVuSans-64" d="M 2906 2969 
L 2906 4863 
L 3481 4863 
L 3481 0 
L 2906 0 
L 2906 525 
Q 2725 213 2448 61 
Q 2172 -91 1784 -91 
Q 1150 -91 751 415 
Q 353 922 353 1747 
Q 353 2572 751 3078 
Q 1150 3584 1784 3584 
Q 2172 3584 2448 3432 
Q 2725 3281 2906 2969 
z
M 947 1747 
Q 947 1113 1208 752 
Q 1469 391 1925 391 
Q 2381 391 2643 752 
Q 2906 1113 2906 1747 
Q 2906 2381 2643 2742 
Q 2381 3103 1925 3103 
Q 1469 3103 1208 2742 
Q 947 2381 947 1747 
z
" transform="scale(0.015625)"/>
     <path id="DejaVuSans-79" d="M 2059 -325 
Q 1816 -950 1584 -1140 
Q 1353 -1331 966 -1331 
L 506 -1331 
L 506 -850 
L 844 -850 
Q 1081 -850 1212 -737 
Q 1344 -625 1503 -206 
L 1606 56 
L 191 3500 
L 800 3500 
L 1894 763 
L 2988 3500 
L 3597 3500 
L 2059 -325 
z
" transform="scale(0.015625)"/>
    </defs>
    <use xlink:href="#DejaVuSans-70"/>
    <use xlink:href="#DejaVuSans-6c" x="63.476562"/>
    <use xlink:href="#DejaVuSans-6f" x="91.259766"/>
    <use xlink:href="#DejaVuSans-69" x="152.441406"/>
    <use xlink:href="#DejaVuSans-64" x="180.224609"/>
    <use xlink:href="#DejaVuSans-79" x="243.701172"/>
   </g>
  </g>
  <g id="text_2">
   <!-- accuracy -->
   <g transform="translate(8.358281 211.629674) rotate(-90) scale(0.11 -0.11)">
    <defs>
     <path id="DejaVuSans-61" d="M 2194 1759 
Q 1497 1759 1228 1600 
Q 959 1441 959 1056 
Q 959 750 1161 570 
Q 1363 391 1709 391 
Q 2188 391 2477 730 
Q 2766 1069 2766 1631 
L 2766 1759 
L 2194 1759 
z
M 3341 1997 
L 3341 0 
L 2766 0 
L 2766 531 
Q 2569 213 2275 61 
Q 1981 -91 1556 -91 
Q 1019 -91 701 211 
Q 384 513 384 1019 
Q 384 1609 779 1909 
Q 1175 2209 1959 2209 
L 2766 2209 
L 2766 2266 
Q 2766 2663 2505 2880 
Q 2244 3097 1772 3097 
Q 1472 3097 1187 3025 
Q 903 2953 641 2809 
L 641 3341 
Q 956 3463 1253 3523 
Q 1550 3584 1831 3584 
Q 2591 3584 2966 3190 
Q 3341 2797 3341 1997 
z
" transform="scale(0.015625)"/>
     <path id="DejaVuSans-63" d="M 3122 3366 
L 3122 2828 
Q 2878 2963 2633 3030 
Q 2388 3097 2138 3097 
Q 1578 3097 1268 2742 
Q 959 2388 959 1747 
Q 959 1106 1268 751 
Q 1578 397 2138 397 
Q 2388 397 2633 464 
Q 2878 531 3122 666 
L 3122 134 
Q 2881 22 2623 -34 
Q 2366 -91 2075 -91 
Q 1284 -91 818 406 
Q 353 903 353 1747 
Q 353 2603 823 3093 
Q 1294 3584 2113 3584 
Q 2378 3584 2631 3529 
Q 2884 3475 3122 3366 
z
" transform="scale(0.015625)"/>
     <path id="DejaVuSans-75" d="M 544 1381 
L 544 3500 
L 1119 3500 
L 1119 1403 
Q 1119 906 1312 657 
Q 1506 409 1894 409 
Q 2359 409 2629 706 
Q 2900 1003 2900 1516 
L 2900 3500 
L 3475 3500 
L 3475 0 
L 2900 0 
L 2900 538 
Q 2691 219 2414 64 
Q 2138 -91 1772 -91 
Q 1169 -91 856 284 
Q 544 659 544 1381 
z
M 1991 3584 
L 1991 3584 
z
" transform="scale(0.015625)"/>
     <path id="DejaVuSans-72" d="M 2631 2963 
Q 2534 3019 2420 3045 
Q 2306 3072 2169 3072 
Q 1681 3072 1420 2755 
Q 1159 2438 1159 1844 
L 1159 0 
L 581 0 
L 581 3500 
L 1159 3500 
L 1159 2956 
Q 1341 3275 1631 3429 
Q 1922 3584 2338 3584 
Q 2397 3584 2469 3576 
Q 2541 3569 2628 3553 
L 2631 2963 
z
" transform="scale(0.015625)"/>
    </defs>
    <use xlink:href="#DejaVuSans-61"/>
    <use xlink:href="#DejaVuSans-63" x="61.279297"/>
    <use xlink:href="#DejaVuSans-63" x="116.259766"/>
    <use xlink:href="#DejaVuSans-75" x="171.240234"/>
    <use xlink:href="#DejaVuSans-72" x="234.619141"/>
    <use xlink:href="#DejaVuSans-61" x="275.732422"/>
    <use xlink:href="#DejaVuSans-63" x="337.011719"/>
    <use xlink:href="#DejaVuSans-79" x="391.992188"/>
   </g>
  </g>
  <g id="patch_3">
   <path d="M 48.643304 39.816661 
L 433.160634 39.816661 
L 433.160634 5.608 
L 48.643304 5.608 
L 48.643304 39.816661 
z
" style="fill: none"/>
  </g>
  <g id="text_3">
   <!-- tools -->
   <g transform="translate(48.843304 17.201594) scale(0.11 -0.11)">
    <defs>
     <path id="DejaVuSans-74" d="M 1172 4494 
L 1172 3500 
L 2356 3500 
L 2356 3053 
L 1172 3053 
L 1172 1153 
Q 1172 725 1289 603 
Q 1406 481 1766 481 
L 2356 481 
L 2356 0 
L 1766 0 
Q 1100 0 847 248 
Q 594 497 594 1153 
L 594 3053 
L 172 3053 
L 172 3500 
L 594 3500 
L 594 4494 
L 1172 4494 
z
" transform="scale(0.015625)"/>
     <path id="DejaVuSans-73" d="M 2834 3397 
L 2834 2853 
Q 2591 2978 2328 3040 
Q 2066 3103 1784 3103 
Q 1356 3103 1142 2972 
Q 928 2841 928 2578 
Q 928 2378 1081 2264 
Q 1234 2150 1697 2047 
L 1894 2003 
Q 2506 1872 2764 1633 
Q 3022 1394 3022 966 
Q 3022 478 2636 193 
Q 2250 -91 1575 -91 
Q 1294 -91 989 -36 
Q 684 19 347 128 
L 347 722 
Q 666 556 975 473 
Q 1284 391 1588 391 
Q 1994 391 2212 530 
Q 2431 669 2431 922 
Q 2431 1156 2273 1281 
Q 2116 1406 1581 1522 
L 1381 1569 
Q 847 1681 609 1914 
Q 372 2147 372 2553 
Q 372 3047 722 3315 
Q 1072 3584 1716 3584 
Q 2034 3584 2315 3537 
Q 2597 3491 2834 3397 
z
" transform="scale(0.015625)"/>
    </defs>
    <use xlink:href="#DejaVuSans-74"/>
    <use xlink:href="#DejaVuSans-6f" x="39.208984"/>
    <use xlink:href="#DejaVuSans-6f" x="100.390625"/>
    <use xlink:href="#DejaVuSans-6c" x="161.572266"/>
    <use xlink:href="#DejaVuSans-73" x="189.355469"/>
   </g>
  </g>
  <g id="patch_4">
   <path d="M 48.843304 39.616661 
L 67.398027 39.616661 
L 67.398027 21.061938 
L 48.843304 21.061938 
L 48.843304 39.616661 
z
" clip-path="url(#p9b4557edf0)" style="fill: none"/>
  </g>
  <g id="line2d_5">
   <path d="M 58.120665 30.339299 
" clip-path="url(#p9b4557edf0)" style="fill: none; stroke: #1f77b4; stroke-width: 1.5; stroke-linecap: square"/>
   <defs>
    <path id="m9c730cdebe" d="M 0 4.874248 
C 1.292666 4.874248 2.532561 4.360667 3.446614 3.446614 
C 4.360667 2.532561 4.874248 1.292666 4.874248 0 
C 4.874248 -1.292666 4.360667 -2.532561 3.446614 -3.446614 
C 2.532561 -4.360667 1.292666 -4.874248 0 -4.874248 
C -1.292666 -4.874248 -2.532561 -4.360667 -3.446614 -3.446614 
C -4.360667 -2.532561 -4.874248 -1.292666 -4.874248 0 
C -4.874248 1.292666 -4.360667 2.532561 -3.446614 3.446614 
C -2.532561 4.360667 -1.292666 4.874248 0 4.874248 
z
" style="stroke: #006633; stroke-width: 0.886227"/>
   </defs>
   <g clip-path="url(#p9b4557edf0)">
    <use xlink:href="#m9c730cdebe" x="58.120665" y="30.339299" style="fill: #006633; stroke: #006633; stroke-width: 0.886227"/>
   </g>
  </g>
  <g id="line2d_6">
   <path d="M 48.843304 30.339299 
L 67.398027 30.339299 
" clip-path="url(#p9b4557edf0)" style="fill: none; stroke: #006633; stroke-width: 1.772454"/>
  </g>
  <g id="text_4">
   <!-- flopp -->
   <g transform="translate(70.398027 34.202424) scale(0.14 -0.14)">
    <defs>
     <path id="DejaVuSans-66" d="M 2375 4863 
L 2375 4384 
L 1825 4384 
Q 1516 4384 1395 4259 
Q 1275 4134 1275 3809 
L 1275 3500 
L 2222 3500 
L 2222 3053 
L 1275 3053 
L 1275 0 
L 697 0 
L 697 3053 
L 147 3053 
L 147 3500 
L 697 3500 
L 697 3744 
Q 697 4328 969 4595 
Q 1241 4863 1831 4863 
L 2375 4863 
z
" transform="scale(0.015625)"/>
    </defs>
    <use xlink:href="#DejaVuSans-66"/>
    <use xlink:href="#DejaVuSans-6c" x="35.205078"/>
    <use xlink:href="#DejaVuSans-6f" x="62.988281"/>
    <use xlink:href="#DejaVuSans-70" x="124.169922"/>
    <use xlink:href="#DejaVuSans-70" x="187.646484"/>
   </g>
  </g>
  <g id="patch_5">
   <path d="M 110.557714 39.616661 
L 129.112437 39.616661 
L 129.112437 21.061938 
L 110.557714 21.061938 
L 110.557714 39.616661 
z
" clip-path="url(#p176cdf9263)" style="fill: none"/>
  </g>
  <g id="line2d_7">
   <path d="M 119.835076 30.339299 
" clip-path="url(#p176cdf9263)" style="fill: none; stroke: #1f77b4; stroke-width: 1.5; stroke-linecap: square"/>
   <defs>
    <path id="m0ca884983a" d="M 0 -4.874248 
L -4.874248 4.874248 
L 4.874248 4.874248 
z
" style="stroke: #006699; stroke-width: 0.886227; stroke-linejoin: miter"/>
   </defs>
   <g clip-path="url(#p176cdf9263)">
    <use xlink:href="#m0ca884983a" x="119.835076" y="30.339299" style="fill: #006699; stroke: #006699; stroke-width: 0.886227; stroke-linejoin: miter"/>
   </g>
  </g>
  <g id="line2d_8">
   <path d="M 110.557714 30.339299 
L 129.112437 30.339299 
" clip-path="url(#p176cdf9263)" style="fill: none; stroke: #006699; stroke-width: 1.772454"/>
  </g>
  <g id="text_5">
   <!-- nPhase -->
   <g transform="translate(132.112437 34.202424) scale(0.14 -0.14)">
    <defs>
     <path id="DejaVuSans-6e" d="M 3513 2113 
L 3513 0 
L 2938 0 
L 2938 2094 
Q 2938 2591 2744 2837 
Q 2550 3084 2163 3084 
Q 1697 3084 1428 2787 
Q 1159 2491 1159 1978 
L 1159 0 
L 581 0 
L 581 3500 
L 1159 3500 
L 1159 2956 
Q 1366 3272 1645 3428 
Q 1925 3584 2291 3584 
Q 2894 3584 3203 3211 
Q 3513 2838 3513 2113 
z
" transform="scale(0.015625)"/>
     <path id="DejaVuSans-50" d="M 1259 4147 
L 1259 2394 
L 2053 2394 
Q 2494 2394 2734 2622 
Q 2975 2850 2975 3272 
Q 2975 3691 2734 3919 
Q 2494 4147 2053 4147 
L 1259 4147 
z
M 628 4666 
L 2053 4666 
Q 2838 4666 3239 4311 
Q 3641 3956 3641 3272 
Q 3641 2581 3239 2228 
Q 2838 1875 2053 1875 
L 1259 1875 
L 1259 0 
L 628 0 
L 628 4666 
z
" transform="scale(0.015625)"/>
     <path id="DejaVuSans-68" d="M 3513 2113 
L 3513 0 
L 2938 0 
L 2938 2094 
Q 2938 2591 2744 2837 
Q 2550 3084 2163 3084 
Q 1697 3084 1428 2787 
Q 1159 2491 1159 1978 
L 1159 0 
L 581 0 
L 581 4863 
L 1159 4863 
L 1159 2956 
Q 1366 3272 1645 3428 
Q 1925 3584 2291 3584 
Q 2894 3584 3203 3211 
Q 3513 2838 3513 2113 
z
" transform="scale(0.015625)"/>
     <path id="DejaVuSans-65" d="M 3597 1894 
L 3597 1613 
L 953 1613 
Q 991 1019 1311 708 
Q 1631 397 2203 397 
Q 2534 397 2845 478 
Q 3156 559 3463 722 
L 3463 178 
Q 3153 47 2828 -22 
Q 2503 -91 2169 -91 
Q 1331 -91 842 396 
Q 353 884 353 1716 
Q 353 2575 817 3079 
Q 1281 3584 2069 3584 
Q 2775 3584 3186 3129 
Q 3597 2675 3597 1894 
z
M 3022 2063 
Q 3016 2534 2758 2815 
Q 2500 3097 2075 3097 
Q 1594 3097 1305 2825 
Q 1016 2553 972 2059 
L 3022 2063 
z
" transform="scale(0.015625)"/>
    </defs>
    <use xlink:href="#DejaVuSans-6e"/>
    <use xlink:href="#DejaVuSans-50" x="63.378906"/>
    <use xlink:href="#DejaVuSans-68" x="123.681641"/>
    <use xlink:href="#DejaVuSans-61" x="187.060547"/>
    <use xlink:href="#DejaVuSans-73" x="248.339844"/>
    <use xlink:href="#DejaVuSans-65" x="300.439453"/>
   </g>
  </g>
  <g id="patch_6">
   <path d="M 187.785875 39.616661 
L 206.340598 39.616661 
L 206.340598 21.061938 
L 187.785875 21.061938 
L 187.785875 39.616661 
z
" clip-path="url(#p2a4362ad83)" style="fill: none"/>
  </g>
  <g id="line2d_9">
   <path d="M 197.063237 30.339299 
" clip-path="url(#p2a4362ad83)" style="fill: none; stroke: #1f77b4; stroke-width: 1.5; stroke-linecap: square"/>
   <defs>
    <path id="m7be64fbce9" d="M -4.874248 4.874248 
L 4.874248 4.874248 
L 4.874248 -4.874248 
L -4.874248 -4.874248 
z
" style="stroke: #cc0033; stroke-width: 0.886227; stroke-linejoin: miter"/>
   </defs>
   <g clip-path="url(#p2a4362ad83)">
    <use xlink:href="#m7be64fbce9" x="197.063237" y="30.339299" style="fill: #cc0033; stroke: #cc0033; stroke-width: 0.886227; stroke-linejoin: miter"/>
   </g>
  </g>
  <g id="line2d_10">
   <path d="M 187.785875 30.339299 
L 206.340598 30.339299 
" clip-path="url(#p2a4362ad83)" style="fill: none; stroke: #cc0033; stroke-width: 1.772454"/>
  </g>
  <g id="text_6">
   <!-- nTChap -->
   <g transform="translate(209.340598 34.202424) scale(0.14 -0.14)">
    <defs>
     <path id="DejaVuSans-54" d="M -19 4666 
L 3928 4666 
L 3928 4134 
L 2272 4134 
L 2272 0 
L 1638 0 
L 1638 4134 
L -19 4134 
L -19 4666 
z
" transform="scale(0.015625)"/>
     <path id="DejaVuSans-43" d="M 4122 4306 
L 4122 3641 
Q 3803 3938 3442 4084 
Q 3081 4231 2675 4231 
Q 1875 4231 1450 3742 
Q 1025 3253 1025 2328 
Q 1025 1406 1450 917 
Q 1875 428 2675 428 
Q 3081 428 3442 575 
Q 3803 722 4122 1019 
L 4122 359 
Q 3791 134 3420 21 
Q 3050 -91 2638 -91 
Q 1578 -91 968 557 
Q 359 1206 359 2328 
Q 359 3453 968 4101 
Q 1578 4750 2638 4750 
Q 3056 4750 3426 4639 
Q 3797 4528 4122 4306 
z
" transform="scale(0.015625)"/>
    </defs>
    <use xlink:href="#DejaVuSans-6e"/>
    <use xlink:href="#DejaVuSans-54" x="63.378906"/>
    <use xlink:href="#DejaVuSans-43" x="118.587891"/>
    <use xlink:href="#DejaVuSans-68" x="188.412109"/>
    <use xlink:href="#DejaVuSans-61" x="251.791016"/>
    <use xlink:href="#DejaVuSans-70" x="313.070312"/>
   </g>
  </g>
  <g id="patch_7">
   <path d="M 267.057161 39.616661 
L 285.611884 39.616661 
L 285.611884 21.061938 
L 267.057161 21.061938 
L 267.057161 39.616661 
z
" clip-path="url(#p538c355929)" style="fill: none"/>
  </g>
  <g id="line2d_11">
   <path d="M 276.334522 30.339299 
" clip-path="url(#p538c355929)" style="fill: none; stroke: #1f77b4; stroke-width: 1.5; stroke-linecap: square"/>
   <defs>
    <path id="m4fceca0709" d="M -0 6.893228 
L 6.893228 0 
L 0 -6.893228 
L -6.893228 -0 
z
" style="stroke: #ff9900; stroke-width: 0.886227; stroke-linejoin: miter"/>
   </defs>
   <g clip-path="url(#p538c355929)">
    <use xlink:href="#m4fceca0709" x="276.334522" y="30.339299" style="fill: #ff9900; stroke: #ff9900; stroke-width: 0.886227; stroke-linejoin: miter"/>
   </g>
  </g>
  <g id="line2d_12">
   <path d="M 267.057161 30.339299 
L 285.611884 30.339299 
" clip-path="url(#p538c355929)" style="fill: none; stroke: #ff9900; stroke-width: 1.772454"/>
  </g>
  <g id="text_7">
   <!-- whatshap polyphase -->
   <g transform="translate(288.611884 34.202424) scale(0.14 -0.14)">
    <defs>
     <path id="DejaVuSans-77" d="M 269 3500 
L 844 3500 
L 1563 769 
L 2278 3500 
L 2956 3500 
L 3675 769 
L 4391 3500 
L 4966 3500 
L 4050 0 
L 3372 0 
L 2619 2869 
L 1863 0 
L 1184 0 
L 269 3500 
z
" transform="scale(0.015625)"/>
     <path id="DejaVuSans-20" transform="scale(0.015625)"/>
    </defs>
    <use xlink:href="#DejaVuSans-77"/>
    <use xlink:href="#DejaVuSans-68" x="81.787109"/>
    <use xlink:href="#DejaVuSans-61" x="145.166016"/>
    <use xlink:href="#DejaVuSans-74" x="206.445312"/>
    <use xlink:href="#DejaVuSans-73" x="245.654297"/>
    <use xlink:href="#DejaVuSans-68" x="297.753906"/>
    <use xlink:href="#DejaVuSans-61" x="361.132812"/>
    <use xlink:href="#DejaVuSans-70" x="422.412109"/>
    <use xlink:href="#DejaVuSans-20" x="485.888672"/>
    <use xlink:href="#DejaVuSans-70" x="517.675781"/>
    <use xlink:href="#DejaVuSans-6f" x="581.152344"/>
    <use xlink:href="#DejaVuSans-6c" x="642.333984"/>
    <use xlink:href="#DejaVuSans-79" x="670.117188"/>
    <use xlink:href="#DejaVuSans-70" x="729.296875"/>
    <use xlink:href="#DejaVuSans-68" x="792.773438"/>
    <use xlink:href="#DejaVuSans-61" x="856.152344"/>
    <use xlink:href="#DejaVuSans-73" x="917.431641"/>
    <use xlink:href="#DejaVuSans-65" x="969.53125"/>
   </g>
  </g>
 </g>
 <defs>
  <clipPath id="p2d7ba54735">
   <rect x="21.003938" y="53.640661" width="439.796063" height="266.347402"/>
  </clipPath>
  <clipPath id="p9b4557edf0">
   <path d="M 48.843304 39.616661 
L 48.843304 21.061938 
L 67.398027 21.061938 
L 67.398027 39.616661 
"/>
  </clipPath>
  <clipPath id="p176cdf9263">
   <path d="M 110.557714 39.616661 
L 110.557714 21.061938 
L 129.112437 21.061938 
L 129.112437 39.616661 
"/>
  </clipPath>
  <clipPath id="p2a4362ad83">
   <path d="M 187.785875 39.616661 
L 187.785875 21.061938 
L 206.340598 21.061938 
L 206.340598 39.616661 
"/>
  </clipPath>
  <clipPath id="p538c355929">
   <path d="M 267.057161 39.616661 
L 267.057161 21.061938 
L 285.611884 21.061938 
L 285.611884 39.616661 
"/>
  </clipPath>
 </defs>
</svg>
