<?xml version="1.0" encoding="utf-8" standalone="no"?>
<!DOCTYPE svg PUBLIC "-//W3C//DTD SVG 1.1//EN"
  "http://www.w3.org/Graphics/SVG/1.1/DTD/svg11.dtd">
<svg xmlns:xlink="http://www.w3.org/1999/xlink" width="460.8pt" height="345.6pt" viewBox="0 0 460.8 345.6" xmlns="http://www.w3.org/2000/svg" version="1.1">
 <metadata>
  <rdf:RDF xmlns:dc="http://purl.org/dc/elements/1.1/" xmlns:cc="http://creativecommons.org/ns#" xmlns:rdf="http://www.w3.org/1999/02/22-rdf-syntax-ns#">
   <cc:Work>
    <dc:type rdf:resource="http://purl.org/dc/dcmitype/StillImage"/>
    <dc:date>2025-06-24T10:45:36.673772</dc:date>
    <dc:format>image/svg+xml</dc:format>
    <dc:creator>
     <cc:Agent>
      <dc:title>Matplotlib v3.7.3, https://matplotlib.org/</dc:title>
     </cc:Agent>
    </dc:creator>
   </cc:Work>
  </rdf:RDF>
 </metadata>
 <defs>
  <style type="text/css">*{stroke-linejoin: round; stroke-linecap: butt}</style>
 </defs>
 <g id="figure_1">
  <g id="patch_1">
   <path d="M 0 345.6 
L 460.8 345.6 
L 460.8 0 
L 0 0 
z
" style="fill: #ffffff; stroke: #ffffff; stroke-linejoin: miter"/>
  </g>
  <g id="axes_1">
   <g id="patch_2">
    <path d="M 21.003938 319.988062 
L 460.8 319.988062 
L 460.8 53.640661 
L 21.003938 53.640661 
L 21.003938 319.988062 
z
" style="fill: none"/>
   </g>
   <g id="matplotlib.axis_1">
    <g id="xtick_1"/>
    <g id="xtick_2"/>
    <g id="xtick_3"/>
    <g id="xtick_4"/>
    <g id="xtick_5"/>
    <g id="xtick_6"/>
    <g id="xtick_7"/>
   </g>
   <g id="matplotlib.axis_2">
    <g id="ytick_1"/>
    <g id="ytick_2"/>
    <g id="ytick_3"/>
    <g id="ytick_4"/>
    <g id="ytick_5"/>
    <g id="ytick_6"/>
    <g id="ytick_7"/>
    <g id="ytick_8"/>
    <g id="ytick_9"/>
    <g id="ytick_10"/>
   </g>
   <g id="PathCollection_1">
    <path d="M 40.994668 72.640588 
L 47.887895 65.747361 
L 40.994668 58.854133 
L 34.10144 65.747361 
z
" clip-path="url(#p9bba716ca8)" style="fill: #ff9900; stroke: #ff9900; stroke-width: 0.886227"/>
    <path d="M 85.418512 72.847364 
L 92.31174 65.954136 
L 85.418512 59.060908 
L 78.525285 65.954136 
z
" clip-path="url(#p9bba716ca8)" style="fill: #ff9900; stroke: #ff9900; stroke-width: 0.886227"/>
    <path d="M 129.842357 73.054139 
L 136.735585 66.160912 
L 129.842357 59.267684 
L 122.949129 66.160912 
z
" clip-path="url(#p9bba716ca8)" style="fill: #ff9900; stroke: #ff9900; stroke-width: 0.886227"/>
    <path d="M 174.266202 178.81976 
L 181.159429 171.926532 
L 174.266202 165.033304 
L 167.372974 171.926532 
z
" clip-path="url(#p9bba716ca8)" style="fill: #ff9900; stroke: #ff9900; stroke-width: 0.886227"/>
    <path d="M 218.690046 103.036573 
L 225.583274 96.143346 
L 218.690046 89.250118 
L 211.796819 96.143346 
z
" clip-path="url(#p9bba716ca8)" style="fill: #ff9900; stroke: #ff9900; stroke-width: 0.886227"/>
    <path d="M 263.113891 74.501567 
L 270.007119 67.608339 
L 263.113891 60.715112 
L 256.220663 67.608339 
z
" clip-path="url(#p9bba716ca8)" style="fill: #ff9900; stroke: #ff9900; stroke-width: 0.886227"/>
    <path d="M 307.537736 112.961793 
L 314.430964 106.068565 
L 307.537736 99.175337 
L 300.644508 106.068565 
z
" clip-path="url(#p9bba716ca8)" style="fill: #ff9900; stroke: #ff9900; stroke-width: 0.886227"/>
    <path d="M 351.96158 113.685507 
L 358.854808 106.792279 
L 351.96158 99.899051 
L 345.068353 106.792279 
z
" clip-path="url(#p9bba716ca8)" style="fill: #ff9900; stroke: #ff9900; stroke-width: 0.886227"/>
    <path d="M 396.385425 179.233311 
L 403.278653 172.340083 
L 396.385425 165.446855 
L 389.492197 172.340083 
z
" clip-path="url(#p9bba716ca8)" style="fill: #ff9900; stroke: #ff9900; stroke-width: 0.886227"/>
    <path d="M 440.80927 190.605958 
L 447.702498 183.71273 
L 440.80927 176.819503 
L 433.916042 183.71273 
z
" clip-path="url(#p9bba716ca8)" style="fill: #ff9900; stroke: #ff9900; stroke-width: 0.886227"/>
   </g>
   <g id="PathCollection_2">
    <path d="M 40.994668 63.25103 
L 36.12042 72.999526 
L 45.868916 72.999526 
z
" clip-path="url(#p9bba716ca8)" style="fill: #006699; stroke: #006699; stroke-width: 0.886227"/>
    <path d="M 85.418512 117.219411 
L 80.544264 126.967907 
L 90.29276 126.967907 
z
" clip-path="url(#p9bba716ca8)" style="fill: #006699; stroke: #006699; stroke-width: 0.886227"/>
    <path d="M 129.842357 100.987542 
L 124.968109 110.736038 
L 134.716605 110.736038 
z
" clip-path="url(#p9bba716ca8)" style="fill: #006699; stroke: #006699; stroke-width: 0.886227"/>
    <path d="M 174.266202 137.06985 
L 169.391954 146.818346 
L 179.14045 146.818346 
z
" clip-path="url(#p9bba716ca8)" style="fill: #006699; stroke: #006699; stroke-width: 0.886227"/>
    <path d="M 218.690046 164.157428 
L 213.815798 173.905925 
L 223.564294 173.905925 
z
" clip-path="url(#p9bba716ca8)" style="fill: #006699; stroke: #006699; stroke-width: 0.886227"/>
    <path d="M 263.113891 212.646261 
L 258.239643 222.394758 
L 267.988139 222.394758 
z
" clip-path="url(#p9bba716ca8)" style="fill: #006699; stroke: #006699; stroke-width: 0.886227"/>
    <path d="M 307.537736 178.218156 
L 302.663488 187.966652 
L 312.411984 187.966652 
z
" clip-path="url(#p9bba716ca8)" style="fill: #006699; stroke: #006699; stroke-width: 0.886227"/>
    <path d="M 351.96158 218.642748 
L 347.087332 228.391244 
L 356.835829 228.391244 
z
" clip-path="url(#p9bba716ca8)" style="fill: #006699; stroke: #006699; stroke-width: 0.886227"/>
    <path d="M 396.385425 243.972736 
L 391.511177 253.721232 
L 401.259673 253.721232 
z
" clip-path="url(#p9bba716ca8)" style="fill: #006699; stroke: #006699; stroke-width: 0.886227"/>
    <path d="M 440.80927 223.812133 
L 435.935022 233.56063 
L 445.683518 233.56063 
z
" clip-path="url(#p9bba716ca8)" style="fill: #006699; stroke: #006699; stroke-width: 0.886227"/>
   </g>
   <g id="PathCollection_3">
    <path d="M 40.994668 70.621609 
C 42.287333 70.621609 43.527229 70.108027 44.441281 69.193975 
C 45.355334 68.279922 45.868916 67.040026 45.868916 65.747361 
C 45.868916 64.454695 45.355334 63.214799 44.441281 62.300747 
C 43.527229 61.386694 42.287333 60.873113 40.994668 60.873113 
C 39.702002 60.873113 38.462106 61.386694 37.548054 62.300747 
C 36.634001 63.214799 36.12042 64.454695 36.12042 65.747361 
C 36.12042 67.040026 36.634001 68.279922 37.548054 69.193975 
C 38.462106 70.108027 39.702002 70.621609 40.994668 70.621609 
z
" clip-path="url(#p9bba716ca8)" style="fill: #006633; stroke: #006633; stroke-width: 0.886227"/>
    <path d="M 85.418512 70.724996 
C 86.711178 70.724996 87.951074 70.211415 88.865126 69.297362 
C 89.779179 68.38331 90.29276 67.143414 90.29276 65.850748 
C 90.29276 64.558083 89.779179 63.318187 88.865126 62.404135 
C 87.951074 61.490082 86.711178 60.9765 85.418512 60.9765 
C 84.125847 60.9765 82.885951 61.490082 81.971898 62.404135 
C 81.057846 63.318187 80.544264 64.558083 80.544264 65.850748 
C 80.544264 67.143414 81.057846 68.38331 81.971898 69.297362 
C 82.885951 70.211415 84.125847 70.724996 85.418512 70.724996 
z
" clip-path="url(#p9bba716ca8)" style="fill: #006633; stroke: #006633; stroke-width: 0.886227"/>
    <path d="M 129.842357 137.513453 
C 131.135023 137.513453 132.374918 136.999871 133.288971 136.085819 
C 134.203024 135.171766 134.716605 133.931871 134.716605 132.639205 
C 134.716605 131.346539 134.203024 130.106644 133.288971 129.192591 
C 132.374918 128.278538 131.135023 127.764957 129.842357 127.764957 
C 128.549691 127.764957 127.309796 128.278538 126.395743 129.192591 
C 125.48169 130.106644 124.968109 131.346539 124.968109 132.639205 
C 124.968109 133.931871 125.48169 135.171766 126.395743 136.085819 
C 127.309796 136.999871 128.549691 137.513453 129.842357 137.513453 
z
" clip-path="url(#p9bba716ca8)" style="fill: #006633; stroke: #006633; stroke-width: 0.886227"/>
    <path d="M 174.266202 71.03516 
C 175.558867 71.03516 176.798763 70.521578 177.712816 69.607525 
C 178.626868 68.693473 179.14045 67.453577 179.14045 66.160912 
C 179.14045 64.868246 178.626868 63.62835 177.712816 62.714298 
C 176.798763 61.800245 175.558867 61.286663 174.266202 61.286663 
C 172.973536 61.286663 171.733641 61.800245 170.819588 62.714298 
C 169.905535 63.62835 169.391954 64.868246 169.391954 66.160912 
C 169.391954 67.453577 169.905535 68.693473 170.819588 69.607525 
C 171.733641 70.521578 172.973536 71.03516 174.266202 71.03516 
z
" clip-path="url(#p9bba716ca8)" style="fill: #006633; stroke: #006633; stroke-width: 0.886227"/>
    <path d="M 218.690046 171.734783 
C 219.982712 171.734783 221.222608 171.221201 222.13666 170.307149 
C 223.050713 169.393096 223.564294 168.1532 223.564294 166.860535 
C 223.564294 165.567869 223.050713 164.327974 222.13666 163.413921 
C 221.222608 162.499868 219.982712 161.986287 218.690046 161.986287 
C 217.397381 161.986287 216.157485 162.499868 215.243433 163.413921 
C 214.32938 164.327974 213.815798 165.567869 213.815798 166.860535 
C 213.815798 168.1532 214.32938 169.393096 215.243433 170.307149 
C 216.157485 171.221201 217.397381 171.734783 218.690046 171.734783 
z
" clip-path="url(#p9bba716ca8)" style="fill: #006633; stroke: #006633; stroke-width: 0.886227"/>
    <path d="M 263.113891 107.531019 
C 264.406557 107.531019 265.646452 107.017437 266.560505 106.103385 
C 267.474558 105.189332 267.988139 103.949437 267.988139 102.656771 
C 267.988139 101.364105 267.474558 100.12421 266.560505 99.210157 
C 265.646452 98.296104 264.406557 97.782523 263.113891 97.782523 
C 261.821225 97.782523 260.58133 98.296104 259.667277 99.210157 
C 258.753225 100.12421 258.239643 101.364105 258.239643 102.656771 
C 258.239643 103.949437 258.753225 105.189332 259.667277 106.103385 
C 260.58133 107.017437 261.821225 107.531019 263.113891 107.531019 
z
" clip-path="url(#p9bba716ca8)" style="fill: #006633; stroke: #006633; stroke-width: 0.886227"/>
    <path d="M 307.537736 118.076565 
C 308.830401 118.076565 310.070297 117.562983 310.98435 116.648931 
C 311.898402 115.734878 312.411984 114.494982 312.411984 113.202317 
C 312.411984 111.909651 311.898402 110.669755 310.98435 109.755703 
C 310.070297 108.84165 308.830401 108.328069 307.537736 108.328069 
C 306.24507 108.328069 305.005175 108.84165 304.091122 109.755703 
C 303.177069 110.669755 302.663488 111.909651 302.663488 113.202317 
C 302.663488 114.494982 303.177069 115.734878 304.091122 116.648931 
C 305.005175 117.562983 306.24507 118.076565 307.537736 118.076565 
z
" clip-path="url(#p9bba716ca8)" style="fill: #006633; stroke: #006633; stroke-width: 0.886227"/>
    <path d="M 351.96158 154.469036 
C 353.254246 154.469036 354.494142 153.955455 355.408194 153.041402 
C 356.322247 152.127349 356.835829 150.887454 356.835829 149.594788 
C 356.835829 148.302123 356.322247 147.062227 355.408194 146.148174 
C 354.494142 145.234122 353.254246 144.72054 351.96158 144.72054 
C 350.668915 144.72054 349.429019 145.234122 348.514967 146.148174 
C 347.600914 147.062227 347.087332 148.302123 347.087332 149.594788 
C 347.087332 150.887454 347.600914 152.127349 348.514967 153.041402 
C 349.429019 153.955455 350.668915 154.469036 351.96158 154.469036 
z
" clip-path="url(#p9bba716ca8)" style="fill: #006633; stroke: #006633; stroke-width: 0.886227"/>
    <path d="M 396.385425 312.755611 
C 397.678091 312.755611 398.917986 312.242029 399.832039 311.327976 
C 400.746092 310.413924 401.259673 309.174028 401.259673 307.881362 
C 401.259673 306.588697 400.746092 305.348801 399.832039 304.434749 
C 398.917986 303.520696 397.678091 303.007114 396.385425 303.007114 
C 395.092759 303.007114 393.852864 303.520696 392.938811 304.434749 
C 392.024759 305.348801 391.511177 306.588697 391.511177 307.881362 
C 391.511177 309.174028 392.024759 310.413924 392.938811 311.327976 
C 393.852864 312.242029 395.092759 312.755611 396.385425 312.755611 
z
" clip-path="url(#p9bba716ca8)" style="fill: #006633; stroke: #006633; stroke-width: 0.886227"/>
    <path d="M 440.80927 188.586979 
C 442.101936 188.586979 443.341831 188.073397 444.255884 187.159344 
C 445.169936 186.245292 445.683518 185.005396 445.683518 183.71273 
C 445.683518 182.420065 445.169936 181.180169 444.255884 180.266117 
C 443.341831 179.352064 442.101936 178.838482 440.80927 178.838482 
C 439.516604 178.838482 438.276709 179.352064 437.362656 180.266117 
C 436.448603 181.180169 435.935022 182.420065 435.935022 183.71273 
C 435.935022 185.005396 436.448603 186.245292 437.362656 187.159344 
C 438.276709 188.073397 439.516604 188.586979 440.80927 188.586979 
z
" clip-path="url(#p9bba716ca8)" style="fill: #006633; stroke: #006633; stroke-width: 0.886227"/>
   </g>
   <g id="PathCollection_4">
    <path d="M 36.12042 71.03516 
L 45.868916 71.03516 
L 45.868916 61.286663 
L 36.12042 61.286663 
z
" clip-path="url(#p9bba716ca8)" style="fill: #cc0033; stroke: #cc0033; stroke-width: 0.886227"/>
    <path d="M 80.544264 71.44871 
L 90.29276 71.44871 
L 90.29276 61.700214 
L 80.544264 61.700214 
z
" clip-path="url(#p9bba716ca8)" style="fill: #cc0033; stroke: #cc0033; stroke-width: 0.886227"/>
    <path d="M 124.968109 71.655486 
L 134.716605 71.655486 
L 134.716605 61.90699 
L 124.968109 61.90699 
z
" clip-path="url(#p9bba716ca8)" style="fill: #cc0033; stroke: #cc0033; stroke-width: 0.886227"/>
    <path d="M 169.391954 72.069037 
L 179.14045 72.069037 
L 179.14045 62.32054 
L 169.391954 62.32054 
z
" clip-path="url(#p9bba716ca8)" style="fill: #cc0033; stroke: #cc0033; stroke-width: 0.886227"/>
    <path d="M 213.815798 72.585975 
L 223.564294 72.585975 
L 223.564294 62.837479 
L 213.815798 62.837479 
z
" clip-path="url(#p9bba716ca8)" style="fill: #cc0033; stroke: #cc0033; stroke-width: 0.886227"/>
    <path d="M 258.239643 72.689363 
L 267.988139 72.689363 
L 267.988139 62.940867 
L 258.239643 62.940867 
z
" clip-path="url(#p9bba716ca8)" style="fill: #cc0033; stroke: #cc0033; stroke-width: 0.886227"/>
    <path d="M 302.663488 85.612826 
L 312.411984 85.612826 
L 312.411984 75.86433 
L 302.663488 75.86433 
z
" clip-path="url(#p9bba716ca8)" style="fill: #cc0033; stroke: #cc0033; stroke-width: 0.886227"/>
    <path d="M 347.087332 77.445197 
L 356.835829 77.445197 
L 356.835829 67.696701 
L 347.087332 67.696701 
z
" clip-path="url(#p9bba716ca8)" style="fill: #cc0033; stroke: #cc0033; stroke-width: 0.886227"/>
    <path d="M 391.511177 78.065523 
L 401.259673 78.065523 
L 401.259673 68.317027 
L 391.511177 68.317027 
z
" clip-path="url(#p9bba716ca8)" style="fill: #cc0033; stroke: #cc0033; stroke-width: 0.886227"/>
    <path d="M 435.935022 74.860505 
L 445.683518 74.860505 
L 445.683518 65.112008 
L 435.935022 65.112008 
z
" clip-path="url(#p9bba716ca8)" style="fill: #cc0033; stroke: #cc0033; stroke-width: 0.886227"/>
   </g>
   <g id="line2d_1">
    <path d="M 40.994668 65.747361 
L 85.418512 65.850748 
L 129.842357 132.639205 
L 174.266202 66.160912 
L 218.690046 166.860535 
L 263.113891 102.656771 
L 307.537736 113.202317 
L 351.96158 149.594788 
L 396.385425 307.881362 
L 440.80927 183.71273 
" clip-path="url(#p9bba716ca8)" style="fill: none; stroke: #006633; stroke-width: 1.772454"/>
   </g>
   <g id="line2d_2">
    <path d="M 40.994668 68.125278 
L 85.418512 122.093659 
L 129.842357 105.86179 
L 174.266202 141.944098 
L 218.690046 169.031677 
L 263.113891 217.52051 
L 307.537736 183.092404 
L 351.96158 223.516996 
L 396.385425 248.846984 
L 440.80927 228.686381 
" clip-path="url(#p9bba716ca8)" style="fill: none; stroke: #006699; stroke-width: 1.772454"/>
   </g>
   <g id="line2d_3">
    <path d="M 40.994668 66.160912 
L 85.418512 66.574462 
L 129.842357 66.781238 
L 174.266202 67.194789 
L 218.690046 67.711727 
L 263.113891 67.815115 
L 307.537736 80.738578 
L 351.96158 72.570949 
L 396.385425 73.191275 
L 440.80927 69.986257 
" clip-path="url(#p9bba716ca8)" style="fill: none; stroke: #cc0033; stroke-width: 1.772454"/>
   </g>
   <g id="line2d_4">
    <path d="M 40.994668 65.747361 
L 85.418512 65.954136 
L 129.842357 66.160912 
L 174.266202 171.926532 
L 218.690046 96.143346 
L 263.113891 67.608339 
L 307.537736 106.068565 
L 351.96158 106.792279 
L 396.385425 172.340083 
L 440.80927 183.71273 
" clip-path="url(#p9bba716ca8)" style="fill: none; stroke: #ff9900; stroke-width: 1.772454"/>
   </g>
  </g>
  <g id="text_1">
   <!-- ploidy -->
   <g transform="translate(224.242125 338.704344) scale(0.11 -0.11)">
    <defs>
     <path id="DejaVuSans-70" d="M 1159 525 
L 1159 -1331 
L 581 -1331 
L 581 3500 
L 1159 3500 
L 1159 2969 
Q 1341 3281 1617 3432 
Q 1894 3584 2278 3584 
Q 2916 3584 3314 3078 
Q 3713 2572 3713 1747 
Q 3713 922 3314 415 
Q 2916 -91 2278 -91 
Q 1894 -91 1617 61 
Q 1341 213 1159 525 
z
M 3116 1747 
Q 3116 2381 2855 2742 
Q 2594 3103 2138 3103 
Q 1681 3103 1420 2742 
Q 1159 2381 1159 1747 
Q 1159 1113 1420 752 
Q 1681 391 2138 391 
Q 2594 391 2855 752 
Q 3116 1113 3116 1747 
z
" transform="scale(0.015625)"/>
     <path id="DejaVuSans-6c" d="M 603 4863 
L 1178 4863 
L 1178 0 
L 603 0 
L 603 4863 
z
" transform="scale(0.015625)"/>
     <path id="DejaVuSans-6f" d="M 1959 3097 
Q 1497 3097 1228 2736 
Q 959 2375 959 1747 
Q 959 1119 1226 758 
Q 1494 397 1959 397 
Q 2419 397 2687 759 
Q 2956 1122 2956 1747 
Q 2956 2369 2687 2733 
Q 2419 3097 1959 3097 
z
M 1959 3584 
Q 2709 3584 3137 3096 
Q 3566 2609 3566 1747 
Q 3566 888 3137 398 
Q 2709 -91 1959 -91 
Q 1206 -91 779 398 
Q 353 888 353 1747 
Q 353 2609 779 3096 
Q 1206 3584 1959 3584 
z
" transform="scale(0.015625)"/>
     <path id="DejaVuSans-69" d="M 603 3500 
L 1178 3500 
L 1178 0 
L 603 0 
L 603 3500 
z
M 603 4863 
L 1178 4863 
L 1178 4134 
L 603 4134 
L 603 4863 
z
" transform="scale(0.015625)"/>
     <path id="DejaVuSans-64" d="M 2906 2969 
L 2906 4863 
L 3481 4863 
L 3481 0 
L 2906 0 
L 2906 525 
Q 2725 213 2448 61 
Q 2172 -91 1784 -91 
Q 1150 -91 751 415 
Q 353 922 353 1747 
Q 353 2572 751 3078 
Q 1150 3584 1784 3584 
Q 2172 3584 2448 3432 
Q 2725 3281 2906 2969 
z
M 947 1747 
Q 947 1113 1208 752 
Q 1469 391 1925 391 
Q 2381 391 2643 752 
Q 2906 1113 2906 1747 
Q 2906 2381 2643 2742 
Q 2381 3103 1925 3103 
Q 1469 3103 1208 2742 
Q 947 2381 947 1747 
z
" transform="scale(0.015625)"/>
     <path id="DejaVuSans-79" d="M 2059 -325 
Q 1816 -950 1584 -1140 
Q 1353 -1331 966 -1331 
L 506 -1331 
L 506 -850 
L 844 -850 
Q 1081 -850 1212 -737 
Q 1344 -625 1503 -206 
L 1606 56 
L 191 3500 
L 800 3500 
L 1894 763 
L 2988 3500 
L 3597 3500 
L 2059 -325 
z
" transform="scale(0.015625)"/>
    </defs>
    <use xlink:href="#DejaVuSans-70"/>
    <use xlink:href="#DejaVuSans-6c" x="63.476562"/>
    <use xlink:href="#DejaVuSans-6f" x="91.259766"/>
    <use xlink:href="#DejaVuSans-69" x="152.441406"/>
    <use xlink:href="#DejaVuSans-64" x="180.224609"/>
    <use xlink:href="#DejaVuSans-79" x="243.701172"/>
   </g>
  </g>
  <g id="text_2">
   <!-- accuracy -->
   <g transform="translate(8.358281 211.629674) rotate(-90) scale(0.11 -0.11)">
    <defs>
     <path id="DejaVuSans-61" d="M 2194 1759 
Q 1497 1759 1228 1600 
Q 959 1441 959 1056 
Q 959 750 1161 570 
Q 1363 391 1709 391 
Q 2188 391 2477 730 
Q 2766 1069 2766 1631 
L 2766 1759 
L 2194 1759 
z
M 3341 1997 
L 3341 0 
L 2766 0 
L 2766 531 
Q 2569 213 2275 61 
Q 1981 -91 1556 -91 
Q 1019 -91 701 211 
Q 384 513 384 1019 
Q 384 1609 779 1909 
Q 1175 2209 1959 2209 
L 2766 2209 
L 2766 2266 
Q 2766 2663 2505 2880 
Q 2244 3097 1772 3097 
Q 1472 3097 1187 3025 
Q 903 2953 641 2809 
L 641 3341 
Q 956 3463 1253 3523 
Q 1550 3584 1831 3584 
Q 2591 3584 2966 3190 
Q 3341 2797 3341 1997 
z
" transform="scale(0.015625)"/>
     <path id="DejaVuSans-63" d="M 3122 3366 
L 3122 2828 
Q 2878 2963 2633 3030 
Q 2388 3097 2138 3097 
Q 1578 3097 1268 2742 
Q 959 2388 959 1747 
Q 959 1106 1268 751 
Q 1578 397 2138 397 
Q 2388 397 2633 464 
Q 2878 531 3122 666 
L 3122 134 
Q 2881 22 2623 -34 
Q 2366 -91 2075 -91 
Q 1284 -91 818 406 
Q 353 903 353 1747 
Q 353 2603 823 3093 
Q 1294 3584 2113 3584 
Q 2378 3584 2631 3529 
Q 2884 3475 3122 3366 
z
" transform="scale(0.015625)"/>
     <path id="DejaVuSans-75" d="M 544 1381 
L 544 3500 
L 1119 3500 
L 1119 1403 
Q 1119 906 1312 657 
Q 1506 409 1894 409 
Q 2359 409 2629 706 
Q 2900 1003 2900 1516 
L 2900 3500 
L 3475 3500 
L 3475 0 
L 2900 0 
L 2900 538 
Q 2691 219 2414 64 
Q 2138 -91 1772 -91 
Q 1169 -91 856 284 
Q 544 659 544 1381 
z
M 1991 3584 
L 1991 3584 
z
" transform="scale(0.015625)"/>
     <path id="DejaVuSans-72" d="M 2631 2963 
Q 2534 3019 2420 3045 
Q 2306 3072 2169 3072 
Q 1681 3072 1420 2755 
Q 1159 2438 1159 1844 
L 1159 0 
L 581 0 
L 581 3500 
L 1159 3500 
L 1159 2956 
Q 1341 3275 1631 3429 
Q 1922 3584 2338 3584 
Q 2397 3584 2469 3576 
Q 2541 3569 2628 3553 
L 2631 2963 
z
" transform="scale(0.015625)"/>
    </defs>
    <use xlink:href="#DejaVuSans-61"/>
    <use xlink:href="#DejaVuSans-63" x="61.279297"/>
    <use xlink:href="#DejaVuSans-63" x="116.259766"/>
    <use xlink:href="#DejaVuSans-75" x="171.240234"/>
    <use xlink:href="#DejaVuSans-72" x="234.619141"/>
    <use xlink:href="#DejaVuSans-61" x="275.732422"/>
    <use xlink:href="#DejaVuSans-63" x="337.011719"/>
    <use xlink:href="#DejaVuSans-79" x="391.992188"/>
   </g>
  </g>
  <g id="patch_3">
   <path d="M 48.643304 39.816661 
L 433.160634 39.816661 
L 433.160634 5.608 
L 48.643304 5.608 
L 48.643304 39.816661 
z
" style="fill: none"/>
  </g>
  <g id="text_3">
   <!-- tools -->
   <g transform="translate(48.843304 17.201594) scale(0.11 -0.11)">
    <defs>
     <path id="DejaVuSans-74" d="M 1172 4494 
L 1172 3500 
L 2356 3500 
L 2356 3053 
L 1172 3053 
L 1172 1153 
Q 1172 725 1289 603 
Q 1406 481 1766 481 
L 2356 481 
L 2356 0 
L 1766 0 
Q 1100 0 847 248 
Q 594 497 594 1153 
L 594 3053 
L 172 3053 
L 172 3500 
L 594 3500 
L 594 4494 
L 1172 4494 
z
" transform="scale(0.015625)"/>
     <path id="DejaVuSans-73" d="M 2834 3397 
L 2834 2853 
Q 2591 2978 2328 3040 
Q 2066 3103 1784 3103 
Q 1356 3103 1142 2972 
Q 928 2841 928 2578 
Q 928 2378 1081 2264 
Q 1234 2150 1697 2047 
L 1894 2003 
Q 2506 1872 2764 1633 
Q 3022 1394 3022 966 
Q 3022 478 2636 193 
Q 2250 -91 1575 -91 
Q 1294 -91 989 -36 
Q 684 19 347 128 
L 347 722 
Q 666 556 975 473 
Q 1284 391 1588 391 
Q 1994 391 2212 530 
Q 2431 669 2431 922 
Q 2431 1156 2273 1281 
Q 2116 1406 1581 1522 
L 1381 1569 
Q 847 1681 609 1914 
Q 372 2147 372 2553 
Q 372 3047 722 3315 
Q 1072 3584 1716 3584 
Q 2034 3584 2315 3537 
Q 2597 3491 2834 3397 
z
" transform="scale(0.015625)"/>
    </defs>
    <use xlink:href="#DejaVuSans-74"/>
    <use xlink:href="#DejaVuSans-6f" x="39.208984"/>
    <use xlink:href="#DejaVuSans-6f" x="100.390625"/>
    <use xlink:href="#DejaVuSans-6c" x="161.572266"/>
    <use xlink:href="#DejaVuSans-73" x="189.355469"/>
   </g>
  </g>
  <g id="patch_4">
   <path d="M 48.843304 39.616661 
L 67.398027 39.616661 
L 67.398027 21.061938 
L 48.843304 21.061938 
L 48.843304 39.616661 
z
" clip-path="url(#p63b2be1e04)" style="fill: none"/>
  </g>
  <g id="line2d_5">
   <path d="M 58.120665 30.339299 
" clip-path="url(#p63b2be1e04)" style="fill: none; stroke: #1f77b4; stroke-width: 1.5; stroke-linecap: square"/>
   <defs>
    <path id="m20e25797b4" d="M 0 4.874248 
C 1.292666 4.874248 2.532561 4.360667 3.446614 3.446614 
C 4.360667 2.532561 4.874248 1.292666 4.874248 0 
C 4.874248 -1.292666 4.360667 -2.532561 3.446614 -3.446614 
C 2.532561 -4.360667 1.292666 -4.874248 0 -4.874248 
C -1.292666 -4.874248 -2.532561 -4.360667 -3.446614 -3.446614 
C -4.360667 -2.532561 -4.874248 -1.292666 -4.874248 0 
C -4.874248 1.292666 -4.360667 2.532561 -3.446614 3.446614 
C -2.532561 4.360667 -1.292666 4.874248 0 4.874248 
z
" style="stroke: #006633; stroke-width: 0.886227"/>
   </defs>
   <g clip-path="url(#p63b2be1e04)">
    <use xlink:href="#m20e25797b4" x="58.120665" y="30.339299" style="fill: #006633; stroke: #006633; stroke-width: 0.886227"/>
   </g>
  </g>
  <g id="line2d_6">
   <path d="M 48.843304 30.339299 
L 67.398027 30.339299 
" clip-path="url(#p63b2be1e04)" style="fill: none; stroke: #006633; stroke-width: 1.772454"/>
  </g>
  <g id="text_4">
   <!-- flopp -->
   <g transform="translate(70.398027 34.202424) scale(0.14 -0.14)">
    <defs>
     <path id="DejaVuSans-66" d="M 2375 4863 
L 2375 4384 
L 1825 4384 
Q 1516 4384 1395 4259 
Q 1275 4134 1275 3809 
L 1275 3500 
L 2222 3500 
L 2222 3053 
L 1275 3053 
L 1275 0 
L 697 0 
L 697 3053 
L 147 3053 
L 147 3500 
L 697 3500 
L 697 3744 
Q 697 4328 969 4595 
Q 1241 4863 1831 4863 
L 2375 4863 
z
" transform="scale(0.015625)"/>
    </defs>
    <use xlink:href="#DejaVuSans-66"/>
    <use xlink:href="#DejaVuSans-6c" x="35.205078"/>
    <use xlink:href="#DejaVuSans-6f" x="62.988281"/>
    <use xlink:href="#DejaVuSans-70" x="124.169922"/>
    <use xlink:href="#DejaVuSans-70" x="187.646484"/>
   </g>
  </g>
  <g id="patch_5">
   <path d="M 110.557714 39.616661 
L 129.112437 39.616661 
L 129.112437 21.061938 
L 110.557714 21.061938 
L 110.557714 39.616661 
z
" clip-path="url(#p5b9ebc21a5)" style="fill: none"/>
  </g>
  <g id="line2d_7">
   <path d="M 119.835076 30.339299 
" clip-path="url(#p5b9ebc21a5)" style="fill: none; stroke: #1f77b4; stroke-width: 1.5; stroke-linecap: square"/>
   <defs>
    <path id="mbabdb95d15" d="M 0 -4.874248 
L -4.874248 4.874248 
L 4.874248 4.874248 
z
" style="stroke: #006699; stroke-width: 0.886227; stroke-linejoin: miter"/>
   </defs>
   <g clip-path="url(#p5b9ebc21a5)">
    <use xlink:href="#mbabdb95d15" x="119.835076" y="30.339299" style="fill: #006699; stroke: #006699; stroke-width: 0.886227; stroke-linejoin: miter"/>
   </g>
  </g>
  <g id="line2d_8">
   <path d="M 110.557714 30.339299 
L 129.112437 30.339299 
" clip-path="url(#p5b9ebc21a5)" style="fill: none; stroke: #006699; stroke-width: 1.772454"/>
  </g>
  <g id="text_5">
   <!-- nPhase -->
   <g transform="translate(132.112437 34.202424) scale(0.14 -0.14)">
    <defs>
     <path id="DejaVuSans-6e" d="M 3513 2113 
L 3513 0 
L 2938 0 
L 2938 2094 
Q 2938 2591 2744 2837 
Q 2550 3084 2163 3084 
Q 1697 3084 1428 2787 
Q 1159 2491 1159 1978 
L 1159 0 
L 581 0 
L 581 3500 
L 1159 3500 
L 1159 2956 
Q 1366 3272 1645 3428 
Q 1925 3584 2291 3584 
Q 2894 3584 3203 3211 
Q 3513 2838 3513 2113 
z
" transform="scale(0.015625)"/>
     <path id="DejaVuSans-50" d="M 1259 4147 
L 1259 2394 
L 2053 2394 
Q 2494 2394 2734 2622 
Q 2975 2850 2975 3272 
Q 2975 3691 2734 3919 
Q 2494 4147 2053 4147 
L 1259 4147 
z
M 628 4666 
L 2053 4666 
Q 2838 4666 3239 4311 
Q 3641 3956 3641 3272 
Q 3641 2581 3239 2228 
Q 2838 1875 2053 1875 
L 1259 1875 
L 1259 0 
L 628 0 
L 628 4666 
z
" transform="scale(0.015625)"/>
     <path id="DejaVuSans-68" d="M 3513 2113 
L 3513 0 
L 2938 0 
L 2938 2094 
Q 2938 2591 2744 2837 
Q 2550 3084 2163 3084 
Q 1697 3084 1428 2787 
Q 1159 2491 1159 1978 
L 1159 0 
L 581 0 
L 581 4863 
L 1159 4863 
L 1159 2956 
Q 1366 3272 1645 3428 
Q 1925 3584 2291 3584 
Q 2894 3584 3203 3211 
Q 3513 2838 3513 2113 
z
" transform="scale(0.015625)"/>
     <path id="DejaVuSans-65" d="M 3597 1894 
L 3597 1613 
L 953 1613 
Q 991 1019 1311 708 
Q 1631 397 2203 397 
Q 2534 397 2845 478 
Q 3156 559 3463 722 
L 3463 178 
Q 3153 47 2828 -22 
Q 2503 -91 2169 -91 
Q 1331 -91 842 396 
Q 353 884 353 1716 
Q 353 2575 817 3079 
Q 1281 3584 2069 3584 
Q 2775 3584 3186 3129 
Q 3597 2675 3597 1894 
z
M 3022 2063 
Q 3016 2534 2758 2815 
Q 2500 3097 2075 3097 
Q 1594 3097 1305 2825 
Q 1016 2553 972 2059 
L 3022 2063 
z
" transform="scale(0.015625)"/>
    </defs>
    <use xlink:href="#DejaVuSans-6e"/>
    <use xlink:href="#DejaVuSans-50" x="63.378906"/>
    <use xlink:href="#DejaVuSans-68" x="123.681641"/>
    <use xlink:href="#DejaVuSans-61" x="187.060547"/>
    <use xlink:href="#DejaVuSans-73" x="248.339844"/>
    <use xlink:href="#DejaVuSans-65" x="300.439453"/>
   </g>
  </g>
  <g id="patch_6">
   <path d="M 187.785875 39.616661 
L 206.340598 39.616661 
L 206.340598 21.061938 
L 187.785875 21.061938 
L 187.785875 39.616661 
z
" clip-path="url(#p1bf8eb7cb1)" style="fill: none"/>
  </g>
  <g id="line2d_9">
   <path d="M 197.063237 30.339299 
" clip-path="url(#p1bf8eb7cb1)" style="fill: none; stroke: #1f77b4; stroke-width: 1.5; stroke-linecap: square"/>
   <defs>
    <path id="mede7f82adb" d="M -4.874248 4.874248 
L 4.874248 4.874248 
L 4.874248 -4.874248 
L -4.874248 -4.874248 
z
" style="stroke: #cc0033; stroke-width: 0.886227; stroke-linejoin: miter"/>
   </defs>
   <g clip-path="url(#p1bf8eb7cb1)">
    <use xlink:href="#mede7f82adb" x="197.063237" y="30.339299" style="fill: #cc0033; stroke: #cc0033; stroke-width: 0.886227; stroke-linejoin: miter"/>
   </g>
  </g>
  <g id="line2d_10">
   <path d="M 187.785875 30.339299 
L 206.340598 30.339299 
" clip-path="url(#p1bf8eb7cb1)" style="fill: none; stroke: #cc0033; stroke-width: 1.772454"/>
  </g>
  <g id="text_6">
   <!-- nTChap -->
   <g transform="translate(209.340598 34.202424) scale(0.14 -0.14)">
    <defs>
     <path id="DejaVuSans-54" d="M -19 4666 
L 3928 4666 
L 3928 4134 
L 2272 4134 
L 2272 0 
L 1638 0 
L 1638 4134 
L -19 4134 
L -19 4666 
z
" transform="scale(0.015625)"/>
     <path id="DejaVuSans-43" d="M 4122 4306 
L 4122 3641 
Q 3803 3938 3442 4084 
Q 3081 4231 2675 4231 
Q 1875 4231 1450 3742 
Q 1025 3253 1025 2328 
Q 1025 1406 1450 917 
Q 1875 428 2675 428 
Q 3081 428 3442 575 
Q 3803 722 4122 1019 
L 4122 359 
Q 3791 134 3420 21 
Q 3050 -91 2638 -91 
Q 1578 -91 968 557 
Q 359 1206 359 2328 
Q 359 3453 968 4101 
Q 1578 4750 2638 4750 
Q 3056 4750 3426 4639 
Q 3797 4528 4122 4306 
z
" transform="scale(0.015625)"/>
    </defs>
    <use xlink:href="#DejaVuSans-6e"/>
    <use xlink:href="#DejaVuSans-54" x="63.378906"/>
    <use xlink:href="#DejaVuSans-43" x="118.587891"/>
    <use xlink:href="#DejaVuSans-68" x="188.412109"/>
    <use xlink:href="#DejaVuSans-61" x="251.791016"/>
    <use xlink:href="#DejaVuSans-70" x="313.070312"/>
   </g>
  </g>
  <g id="patch_7">
   <path d="M 267.057161 39.616661 
L 285.611884 39.616661 
L 285.611884 21.061938 
L 267.057161 21.061938 
L 267.057161 39.616661 
z
" clip-path="url(#p87df20efca)" style="fill: none"/>
  </g>
  <g id="line2d_11">
   <path d="M 276.334522 30.339299 
" clip-path="url(#p87df20efca)" style="fill: none; stroke: #1f77b4; stroke-width: 1.5; stroke-linecap: square"/>
   <defs>
    <path id="m3ff7a69ea4" d="M -0 6.893228 
L 6.893228 0 
L 0 -6.893228 
L -6.893228 -0 
z
" style="stroke: #ff9900; stroke-width: 0.886227; stroke-linejoin: miter"/>
   </defs>
   <g clip-path="url(#p87df20efca)">
    <use xlink:href="#m3ff7a69ea4" x="276.334522" y="30.339299" style="fill: #ff9900; stroke: #ff9900; stroke-width: 0.886227; stroke-linejoin: miter"/>
   </g>
  </g>
  <g id="line2d_12">
   <path d="M 267.057161 30.339299 
L 285.611884 30.339299 
" clip-path="url(#p87df20efca)" style="fill: none; stroke: #ff9900; stroke-width: 1.772454"/>
  </g>
  <g id="text_7">
   <!-- whatshap polyphase -->
   <g transform="translate(288.611884 34.202424) scale(0.14 -0.14)">
    <defs>
     <path id="DejaVuSans-77" d="M 269 3500 
L 844 3500 
L 1563 769 
L 2278 3500 
L 2956 3500 
L 3675 769 
L 4391 3500 
L 4966 3500 
L 4050 0 
L 3372 0 
L 2619 2869 
L 1863 0 
L 1184 0 
L 269 3500 
z
" transform="scale(0.015625)"/>
     <path id="DejaVuSans-20" transform="scale(0.015625)"/>
    </defs>
    <use xlink:href="#DejaVuSans-77"/>
    <use xlink:href="#DejaVuSans-68" x="81.787109"/>
    <use xlink:href="#DejaVuSans-61" x="145.166016"/>
    <use xlink:href="#DejaVuSans-74" x="206.445312"/>
    <use xlink:href="#DejaVuSans-73" x="245.654297"/>
    <use xlink:href="#DejaVuSans-68" x="297.753906"/>
    <use xlink:href="#DejaVuSans-61" x="361.132812"/>
    <use xlink:href="#DejaVuSans-70" x="422.412109"/>
    <use xlink:href="#DejaVuSans-20" x="485.888672"/>
    <use xlink:href="#DejaVuSans-70" x="517.675781"/>
    <use xlink:href="#DejaVuSans-6f" x="581.152344"/>
    <use xlink:href="#DejaVuSans-6c" x="642.333984"/>
    <use xlink:href="#DejaVuSans-79" x="670.117188"/>
    <use xlink:href="#DejaVuSans-70" x="729.296875"/>
    <use xlink:href="#DejaVuSans-68" x="792.773438"/>
    <use xlink:href="#DejaVuSans-61" x="856.152344"/>
    <use xlink:href="#DejaVuSans-73" x="917.431641"/>
    <use xlink:href="#DejaVuSans-65" x="969.53125"/>
   </g>
  </g>
 </g>
 <defs>
  <clipPath id="p9bba716ca8">
   <rect x="21.003938" y="53.640661" width="439.796063" height="266.347402"/>
  </clipPath>
  <clipPath id="p63b2be1e04">
   <path d="M 48.843304 39.616661 
L 48.843304 21.061938 
L 67.398027 21.061938 
L 67.398027 39.616661 
"/>
  </clipPath>
  <clipPath id="p5b9ebc21a5">
   <path d="M 110.557714 39.616661 
L 110.557714 21.061938 
L 129.112437 21.061938 
L 129.112437 39.616661 
"/>
  </clipPath>
  <clipPath id="p1bf8eb7cb1">
   <path d="M 187.785875 39.616661 
L 187.785875 21.061938 
L 206.340598 21.061938 
L 206.340598 39.616661 
"/>
  </clipPath>
  <clipPath id="p87df20efca">
   <path d="M 267.057161 39.616661 
L 267.057161 21.061938 
L 285.611884 21.061938 
L 285.611884 39.616661 
"/>
  </clipPath>
 </defs>
</svg>
