<?xml version="1.0" encoding="utf-8" standalone="no"?>
<!DOCTYPE svg PUBLIC "-//W3C//DTD SVG 1.1//EN"
  "http://www.w3.org/Graphics/SVG/1.1/DTD/svg11.dtd">
<svg xmlns:xlink="http://www.w3.org/1999/xlink" width="460.8pt" height="345.6pt" viewBox="0 0 460.8 345.6" xmlns="http://www.w3.org/2000/svg" version="1.1">
 <metadata>
  <rdf:RDF xmlns:dc="http://purl.org/dc/elements/1.1/" xmlns:cc="http://creativecommons.org/ns#" xmlns:rdf="http://www.w3.org/1999/02/22-rdf-syntax-ns#">
   <cc:Work>
    <dc:type rdf:resource="http://purl.org/dc/dcmitype/StillImage"/>
    <dc:date>2025-06-24T10:45:42.828685</dc:date>
    <dc:format>image/svg+xml</dc:format>
    <dc:creator>
     <cc:Agent>
      <dc:title>Matplotlib v3.7.3, https://matplotlib.org/</dc:title>
     </cc:Agent>
    </dc:creator>
   </cc:Work>
  </rdf:RDF>
 </metadata>
 <defs>
  <style type="text/css">*{stroke-linejoin: round; stroke-linecap: butt}</style>
 </defs>
 <g id="figure_1">
  <g id="patch_1">
   <path d="M 0 345.6 
L 460.8 345.6 
L 460.8 0 
L 0 0 
z
" style="fill: #ffffff; stroke: #ffffff; stroke-linejoin: miter"/>
  </g>
  <g id="axes_1">
   <g id="patch_2">
    <path d="M 21.003938 319.988062 
L 460.8 319.988062 
L 460.8 53.640661 
L 21.003938 53.640661 
L 21.003938 319.988062 
z
" style="fill: none"/>
   </g>
   <g id="matplotlib.axis_1">
    <g id="xtick_1"/>
    <g id="xtick_2"/>
    <g id="xtick_3"/>
    <g id="xtick_4"/>
    <g id="xtick_5"/>
    <g id="xtick_6"/>
    <g id="xtick_7"/>
   </g>
   <g id="matplotlib.axis_2">
    <g id="ytick_1"/>
    <g id="ytick_2"/>
    <g id="ytick_3"/>
    <g id="ytick_4"/>
    <g id="ytick_5"/>
    <g id="ytick_6"/>
    <g id="ytick_7"/>
    <g id="ytick_8"/>
   </g>
   <g id="PathCollection_1">
    <path d="M 40.994668 73.029247 
L 47.887895 66.136019 
L 40.994668 59.242791 
L 34.10144 66.136019 
z
" clip-path="url(#p530ae79c3e)" style="fill: #ff9900; stroke: #ff9900; stroke-width: 0.886227"/>
    <path d="M 85.418512 73.806563 
L 92.31174 66.913335 
L 85.418512 60.020107 
L 78.525285 66.913335 
z
" clip-path="url(#p530ae79c3e)" style="fill: #ff9900; stroke: #ff9900; stroke-width: 0.886227"/>
    <path d="M 129.842357 73.029247 
L 136.735585 66.136019 
L 129.842357 59.242791 
L 122.949129 66.136019 
z
" clip-path="url(#p530ae79c3e)" style="fill: #ff9900; stroke: #ff9900; stroke-width: 0.886227"/>
    <path d="M 174.266202 73.806563 
L 181.159429 66.913335 
L 174.266202 60.020107 
L 167.372974 66.913335 
z
" clip-path="url(#p530ae79c3e)" style="fill: #ff9900; stroke: #ff9900; stroke-width: 0.886227"/>
    <path d="M 218.690046 72.899694 
L 225.583274 66.006466 
L 218.690046 59.113238 
L 211.796819 66.006466 
z
" clip-path="url(#p530ae79c3e)" style="fill: #ff9900; stroke: #ff9900; stroke-width: 0.886227"/>
    <path d="M 263.113891 74.195221 
L 270.007119 67.301993 
L 263.113891 60.408765 
L 256.220663 67.301993 
z
" clip-path="url(#p530ae79c3e)" style="fill: #ff9900; stroke: #ff9900; stroke-width: 0.886227"/>
    <path d="M 307.537736 74.454326 
L 314.430964 67.561099 
L 307.537736 60.667871 
L 300.644508 67.561099 
z
" clip-path="url(#p530ae79c3e)" style="fill: #ff9900; stroke: #ff9900; stroke-width: 0.886227"/>
    <path d="M 351.96158 140.914863 
L 358.854808 134.021635 
L 351.96158 127.128407 
L 345.068353 134.021635 
z
" clip-path="url(#p530ae79c3e)" style="fill: #ff9900; stroke: #ff9900; stroke-width: 0.886227"/>
    <path d="M 396.385425 269.560697 
L 403.278653 262.667469 
L 396.385425 255.774241 
L 389.492197 262.667469 
z
" clip-path="url(#p530ae79c3e)" style="fill: #ff9900; stroke: #ff9900; stroke-width: 0.886227"/>
    <path d="M 440.80927 268.783381 
L 447.702498 261.890153 
L 440.80927 254.996925 
L 433.916042 261.890153 
z
" clip-path="url(#p530ae79c3e)" style="fill: #ff9900; stroke: #ff9900; stroke-width: 0.886227"/>
   </g>
   <g id="PathCollection_2">
    <path d="M 40.994668 61.261771 
L 36.12042 71.010267 
L 45.868916 71.010267 
z
" clip-path="url(#p530ae79c3e)" style="fill: #006699; stroke: #006699; stroke-width: 0.886227"/>
    <path d="M 85.418512 111.528219 
L 80.544264 121.276716 
L 90.29276 121.276716 
z
" clip-path="url(#p530ae79c3e)" style="fill: #006699; stroke: #006699; stroke-width: 0.886227"/>
    <path d="M 129.842357 126.556333 
L 124.968109 136.304829 
L 134.716605 136.304829 
z
" clip-path="url(#p530ae79c3e)" style="fill: #006699; stroke: #006699; stroke-width: 0.886227"/>
    <path d="M 174.266202 145.60058 
L 169.391954 155.349076 
L 179.14045 155.349076 
z
" clip-path="url(#p530ae79c3e)" style="fill: #006699; stroke: #006699; stroke-width: 0.886227"/>
    <path d="M 218.690046 255.84993 
L 213.815798 265.598427 
L 223.564294 265.598427 
z
" clip-path="url(#p530ae79c3e)" style="fill: #006699; stroke: #006699; stroke-width: 0.886227"/>
    <path d="M 263.113891 238.10121 
L 258.239643 247.849706 
L 267.988139 247.849706 
z
" clip-path="url(#p530ae79c3e)" style="fill: #006699; stroke: #006699; stroke-width: 0.886227"/>
    <path d="M 307.537736 193.01687 
L 302.663488 202.765366 
L 312.411984 202.765366 
z
" clip-path="url(#p530ae79c3e)" style="fill: #006699; stroke: #006699; stroke-width: 0.886227"/>
    <path d="M 351.96158 261.938908 
L 347.087332 271.687404 
L 356.835829 271.687404 
z
" clip-path="url(#p530ae79c3e)" style="fill: #006699; stroke: #006699; stroke-width: 0.886227"/>
    <path d="M 396.385425 277.096574 
L 391.511177 286.84507 
L 401.259673 286.84507 
z
" clip-path="url(#p530ae79c3e)" style="fill: #006699; stroke: #006699; stroke-width: 0.886227"/>
    <path d="M 440.80927 303.007114 
L 435.935022 312.755611 
L 445.683518 312.755611 
z
" clip-path="url(#p530ae79c3e)" style="fill: #006699; stroke: #006699; stroke-width: 0.886227"/>
   </g>
   <g id="PathCollection_3">
    <path d="M 40.994668 70.621609 
C 42.287333 70.621609 43.527229 70.108027 44.441281 69.193975 
C 45.355334 68.279922 45.868916 67.040026 45.868916 65.747361 
C 45.868916 64.454695 45.355334 63.214799 44.441281 62.300747 
C 43.527229 61.386694 42.287333 60.873113 40.994668 60.873113 
C 39.702002 60.873113 38.462106 61.386694 37.548054 62.300747 
C 36.634001 63.214799 36.12042 64.454695 36.12042 65.747361 
C 36.12042 67.040026 36.634001 68.279922 37.548054 69.193975 
C 38.462106 70.108027 39.702002 70.621609 40.994668 70.621609 
z
" clip-path="url(#p530ae79c3e)" style="fill: #006633; stroke: #006633; stroke-width: 0.886227"/>
    <path d="M 85.418512 70.880714 
C 86.711178 70.880714 87.951074 70.367133 88.865126 69.45308 
C 89.779179 68.539027 90.29276 67.299132 90.29276 66.006466 
C 90.29276 64.7138 89.779179 63.473905 88.865126 62.559852 
C 87.951074 61.6458 86.711178 61.132218 85.418512 61.132218 
C 84.125847 61.132218 82.885951 61.6458 81.971898 62.559852 
C 81.057846 63.473905 80.544264 64.7138 80.544264 66.006466 
C 80.544264 67.299132 81.057846 68.539027 81.971898 69.45308 
C 82.885951 70.367133 84.125847 70.880714 85.418512 70.880714 
z
" clip-path="url(#p530ae79c3e)" style="fill: #006633; stroke: #006633; stroke-width: 0.886227"/>
    <path d="M 129.842357 70.880714 
C 131.135023 70.880714 132.374918 70.367133 133.288971 69.45308 
C 134.203024 68.539027 134.716605 67.299132 134.716605 66.006466 
C 134.716605 64.7138 134.203024 63.473905 133.288971 62.559852 
C 132.374918 61.6458 131.135023 61.132218 129.842357 61.132218 
C 128.549691 61.132218 127.309796 61.6458 126.395743 62.559852 
C 125.48169 63.473905 124.968109 64.7138 124.968109 66.006466 
C 124.968109 67.299132 125.48169 68.539027 126.395743 69.45308 
C 127.309796 70.367133 128.549691 70.880714 129.842357 70.880714 
z
" clip-path="url(#p530ae79c3e)" style="fill: #006633; stroke: #006633; stroke-width: 0.886227"/>
    <path d="M 174.266202 71.269372 
C 175.558867 71.269372 176.798763 70.755791 177.712816 69.841738 
C 178.626868 68.927685 179.14045 67.68779 179.14045 66.395124 
C 179.14045 65.102459 178.626868 63.862563 177.712816 62.94851 
C 176.798763 62.034458 175.558867 61.520876 174.266202 61.520876 
C 172.973536 61.520876 171.733641 62.034458 170.819588 62.94851 
C 169.905535 63.862563 169.391954 65.102459 169.391954 66.395124 
C 169.391954 67.68779 169.905535 68.927685 170.819588 69.841738 
C 171.733641 70.755791 172.973536 71.269372 174.266202 71.269372 
z
" clip-path="url(#p530ae79c3e)" style="fill: #006633; stroke: #006633; stroke-width: 0.886227"/>
    <path d="M 218.690046 70.880714 
C 219.982712 70.880714 221.222608 70.367133 222.13666 69.45308 
C 223.050713 68.539027 223.564294 67.299132 223.564294 66.006466 
C 223.564294 64.7138 223.050713 63.473905 222.13666 62.559852 
C 221.222608 61.6458 219.982712 61.132218 218.690046 61.132218 
C 217.397381 61.132218 216.157485 61.6458 215.243433 62.559852 
C 214.32938 63.473905 213.815798 64.7138 213.815798 66.006466 
C 213.815798 67.299132 214.32938 68.539027 215.243433 69.45308 
C 216.157485 70.367133 217.397381 70.880714 218.690046 70.880714 
z
" clip-path="url(#p530ae79c3e)" style="fill: #006633; stroke: #006633; stroke-width: 0.886227"/>
    <path d="M 263.113891 70.880714 
C 264.406557 70.880714 265.646452 70.367133 266.560505 69.45308 
C 267.474558 68.539027 267.988139 67.299132 267.988139 66.006466 
C 267.988139 64.7138 267.474558 63.473905 266.560505 62.559852 
C 265.646452 61.6458 264.406557 61.132218 263.113891 61.132218 
C 261.821225 61.132218 260.58133 61.6458 259.667277 62.559852 
C 258.753225 63.473905 258.239643 64.7138 258.239643 66.006466 
C 258.239643 67.299132 258.753225 68.539027 259.667277 69.45308 
C 260.58133 70.367133 261.821225 70.880714 263.113891 70.880714 
z
" clip-path="url(#p530ae79c3e)" style="fill: #006633; stroke: #006633; stroke-width: 0.886227"/>
    <path d="M 307.537736 123.86777 
C 308.830401 123.86777 310.070297 123.354188 310.98435 122.440135 
C 311.898402 121.526083 312.411984 120.286187 312.411984 118.993522 
C 312.411984 117.700856 311.898402 116.46096 310.98435 115.546908 
C 310.070297 114.632855 308.830401 114.119273 307.537736 114.119273 
C 306.24507 114.119273 305.005175 114.632855 304.091122 115.546908 
C 303.177069 116.46096 302.663488 117.700856 302.663488 118.993522 
C 302.663488 120.286187 303.177069 121.526083 304.091122 122.440135 
C 305.005175 123.354188 306.24507 123.86777 307.537736 123.86777 
z
" clip-path="url(#p530ae79c3e)" style="fill: #006633; stroke: #006633; stroke-width: 0.886227"/>
    <path d="M 351.96158 70.751161 
C 353.254246 70.751161 354.494142 70.23758 355.408194 69.323527 
C 356.322247 68.409475 356.835829 67.169579 356.835829 65.876913 
C 356.835829 64.584248 356.322247 63.344352 355.408194 62.4303 
C 354.494142 61.516247 353.254246 61.002665 351.96158 61.002665 
C 350.668915 61.002665 349.429019 61.516247 348.514967 62.4303 
C 347.600914 63.344352 347.087332 64.584248 347.087332 65.876913 
C 347.087332 67.169579 347.600914 68.409475 348.514967 69.323527 
C 349.429019 70.23758 350.668915 70.751161 351.96158 70.751161 
z
" clip-path="url(#p530ae79c3e)" style="fill: #006633; stroke: #006633; stroke-width: 0.886227"/>
    <path d="M 396.385425 71.010267 
C 397.678091 71.010267 398.917986 70.496685 399.832039 69.582633 
C 400.746092 68.66858 401.259673 67.428685 401.259673 66.136019 
C 401.259673 64.843353 400.746092 63.603458 399.832039 62.689405 
C 398.917986 61.775352 397.678091 61.261771 396.385425 61.261771 
C 395.092759 61.261771 393.852864 61.775352 392.938811 62.689405 
C 392.024759 63.603458 391.511177 64.843353 391.511177 66.136019 
C 391.511177 67.428685 392.024759 68.66858 392.938811 69.582633 
C 393.852864 70.496685 395.092759 71.010267 396.385425 71.010267 
z
" clip-path="url(#p530ae79c3e)" style="fill: #006633; stroke: #006633; stroke-width: 0.886227"/>
    <path d="M 440.80927 77.099244 
C 442.101936 77.099244 443.341831 76.585662 444.255884 75.67161 
C 445.169936 74.757557 445.683518 73.517662 445.683518 72.224996 
C 445.683518 70.93233 445.169936 69.692435 444.255884 68.778382 
C 443.341831 67.864329 442.101936 67.350748 440.80927 67.350748 
C 439.516604 67.350748 438.276709 67.864329 437.362656 68.778382 
C 436.448603 69.692435 435.935022 70.93233 435.935022 72.224996 
C 435.935022 73.517662 436.448603 74.757557 437.362656 75.67161 
C 438.276709 76.585662 439.516604 77.099244 440.80927 77.099244 
z
" clip-path="url(#p530ae79c3e)" style="fill: #006633; stroke: #006633; stroke-width: 0.886227"/>
   </g>
   <g id="PathCollection_4">
    <path d="M 36.12042 70.621609 
L 45.868916 70.621609 
L 45.868916 60.873113 
L 36.12042 60.873113 
z
" clip-path="url(#p530ae79c3e)" style="fill: #cc0033; stroke: #cc0033; stroke-width: 0.886227"/>
    <path d="M 80.544264 71.13982 
L 90.29276 71.13982 
L 90.29276 61.391323 
L 80.544264 61.391323 
z
" clip-path="url(#p530ae79c3e)" style="fill: #cc0033; stroke: #cc0033; stroke-width: 0.886227"/>
    <path d="M 124.968109 71.13982 
L 134.716605 71.13982 
L 134.716605 61.391323 
L 124.968109 61.391323 
z
" clip-path="url(#p530ae79c3e)" style="fill: #cc0033; stroke: #cc0033; stroke-width: 0.886227"/>
    <path d="M 169.391954 71.65803 
L 179.14045 71.65803 
L 179.14045 61.909534 
L 169.391954 61.909534 
z
" clip-path="url(#p530ae79c3e)" style="fill: #cc0033; stroke: #cc0033; stroke-width: 0.886227"/>
    <path d="M 213.815798 73.730874 
L 223.564294 73.730874 
L 223.564294 63.982377 
L 213.815798 63.982377 
z
" clip-path="url(#p530ae79c3e)" style="fill: #cc0033; stroke: #cc0033; stroke-width: 0.886227"/>
    <path d="M 258.239643 71.398925 
L 267.988139 71.398925 
L 267.988139 61.650429 
L 258.239643 61.650429 
z
" clip-path="url(#p530ae79c3e)" style="fill: #cc0033; stroke: #cc0033; stroke-width: 0.886227"/>
    <path d="M 302.663488 71.528478 
L 312.411984 71.528478 
L 312.411984 61.779982 
L 302.663488 61.779982 
z
" clip-path="url(#p530ae79c3e)" style="fill: #cc0033; stroke: #cc0033; stroke-width: 0.886227"/>
    <path d="M 347.087332 71.65803 
L 356.835829 71.65803 
L 356.835829 61.909534 
L 347.087332 61.909534 
z
" clip-path="url(#p530ae79c3e)" style="fill: #cc0033; stroke: #cc0033; stroke-width: 0.886227"/>
    <path d="M 391.511177 72.435347 
L 401.259673 72.435347 
L 401.259673 62.68685 
L 391.511177 62.68685 
z
" clip-path="url(#p530ae79c3e)" style="fill: #cc0033; stroke: #cc0033; stroke-width: 0.886227"/>
    <path d="M 435.935022 71.65803 
L 445.683518 71.65803 
L 445.683518 61.909534 
L 435.935022 61.909534 
z
" clip-path="url(#p530ae79c3e)" style="fill: #cc0033; stroke: #cc0033; stroke-width: 0.886227"/>
   </g>
   <g id="line2d_1">
    <path d="M 40.994668 65.747361 
L 85.418512 66.006466 
L 129.842357 66.006466 
L 174.266202 66.395124 
L 218.690046 66.006466 
L 263.113891 66.006466 
L 307.537736 118.993522 
L 351.96158 65.876913 
L 396.385425 66.136019 
L 440.80927 72.224996 
" clip-path="url(#p530ae79c3e)" style="fill: none; stroke: #006633; stroke-width: 1.772454"/>
   </g>
   <g id="line2d_2">
    <path d="M 40.994668 66.136019 
L 85.418512 116.402468 
L 129.842357 131.430581 
L 174.266202 150.474828 
L 218.690046 260.724179 
L 263.113891 242.975458 
L 307.537736 197.891118 
L 351.96158 266.813156 
L 396.385425 281.970822 
L 440.80927 307.881362 
" clip-path="url(#p530ae79c3e)" style="fill: none; stroke: #006699; stroke-width: 1.772454"/>
   </g>
   <g id="line2d_3">
    <path d="M 40.994668 65.747361 
L 85.418512 66.265572 
L 129.842357 66.265572 
L 174.266202 66.783782 
L 218.690046 68.856626 
L 263.113891 66.524677 
L 307.537736 66.65423 
L 351.96158 66.783782 
L 396.385425 67.561099 
L 440.80927 66.783782 
" clip-path="url(#p530ae79c3e)" style="fill: none; stroke: #cc0033; stroke-width: 1.772454"/>
   </g>
   <g id="line2d_4">
    <path d="M 40.994668 66.136019 
L 85.418512 66.913335 
L 129.842357 66.136019 
L 174.266202 66.913335 
L 218.690046 66.006466 
L 263.113891 67.301993 
L 307.537736 67.561099 
L 351.96158 134.021635 
L 396.385425 262.667469 
L 440.80927 261.890153 
" clip-path="url(#p530ae79c3e)" style="fill: none; stroke: #ff9900; stroke-width: 1.772454"/>
   </g>
  </g>
  <g id="text_1">
   <!-- ploidy -->
   <g transform="translate(224.242125 338.704344) scale(0.11 -0.11)">
    <defs>
     <path id="DejaVuSans-70" d="M 1159 525 
L 1159 -1331 
L 581 -1331 
L 581 3500 
L 1159 3500 
L 1159 2969 
Q 1341 3281 1617 3432 
Q 1894 3584 2278 3584 
Q 2916 3584 3314 3078 
Q 3713 2572 3713 1747 
Q 3713 922 3314 415 
Q 2916 -91 2278 -91 
Q 1894 -91 1617 61 
Q 1341 213 1159 525 
z
M 3116 1747 
Q 3116 2381 2855 2742 
Q 2594 3103 2138 3103 
Q 1681 3103 1420 2742 
Q 1159 2381 1159 1747 
Q 1159 1113 1420 752 
Q 1681 391 2138 391 
Q 2594 391 2855 752 
Q 3116 1113 3116 1747 
z
" transform="scale(0.015625)"/>
     <path id="DejaVuSans-6c" d="M 603 4863 
L 1178 4863 
L 1178 0 
L 603 0 
L 603 4863 
z
" transform="scale(0.015625)"/>
     <path id="DejaVuSans-6f" d="M 1959 3097 
Q 1497 3097 1228 2736 
Q 959 2375 959 1747 
Q 959 1119 1226 758 
Q 1494 397 1959 397 
Q 2419 397 2687 759 
Q 2956 1122 2956 1747 
Q 2956 2369 2687 2733 
Q 2419 3097 1959 3097 
z
M 1959 3584 
Q 2709 3584 3137 3096 
Q 3566 2609 3566 1747 
Q 3566 888 3137 398 
Q 2709 -91 1959 -91 
Q 1206 -91 779 398 
Q 353 888 353 1747 
Q 353 2609 779 3096 
Q 1206 3584 1959 3584 
z
" transform="scale(0.015625)"/>
     <path id="DejaVuSans-69" d="M 603 3500 
L 1178 3500 
L 1178 0 
L 603 0 
L 603 3500 
z
M 603 4863 
L 1178 4863 
L 1178 4134 
L 603 4134 
L 603 4863 
z
" transform="scale(0.015625)"/>
     <path id="DejaVuSans-64" d="M 2906 2969 
L 2906 4863 
L 3481 4863 
L 3481 0 
L 2906 0 
L 2906 525 
Q 2725 213 2448 61 
Q 2172 -91 1784 -91 
Q 1150 -91 751 415 
Q 353 922 353 1747 
Q 353 2572 751 3078 
Q 1150 3584 1784 3584 
Q 2172 3584 2448 3432 
Q 2725 3281 2906 2969 
z
M 947 1747 
Q 947 1113 1208 752 
Q 1469 391 1925 391 
Q 2381 391 2643 752 
Q 2906 1113 2906 1747 
Q 2906 2381 2643 2742 
Q 2381 3103 1925 3103 
Q 1469 3103 1208 2742 
Q 947 2381 947 1747 
z
" transform="scale(0.015625)"/>
     <path id="DejaVuSans-79" d="M 2059 -325 
Q 1816 -950 1584 -1140 
Q 1353 -1331 966 -1331 
L 506 -1331 
L 506 -850 
L 844 -850 
Q 1081 -850 1212 -737 
Q 1344 -625 1503 -206 
L 1606 56 
L 191 3500 
L 800 3500 
L 1894 763 
L 2988 3500 
L 3597 3500 
L 2059 -325 
z
" transform="scale(0.015625)"/>
    </defs>
    <use xlink:href="#DejaVuSans-70"/>
    <use xlink:href="#DejaVuSans-6c" x="63.476562"/>
    <use xlink:href="#DejaVuSans-6f" x="91.259766"/>
    <use xlink:href="#DejaVuSans-69" x="152.441406"/>
    <use xlink:href="#DejaVuSans-64" x="180.224609"/>
    <use xlink:href="#DejaVuSans-79" x="243.701172"/>
   </g>
  </g>
  <g id="text_2">
   <!-- accuracy -->
   <g transform="translate(8.358281 211.629674) rotate(-90) scale(0.11 -0.11)">
    <defs>
     <path id="DejaVuSans-61" d="M 2194 1759 
Q 1497 1759 1228 1600 
Q 959 1441 959 1056 
Q 959 750 1161 570 
Q 1363 391 1709 391 
Q 2188 391 2477 730 
Q 2766 1069 2766 1631 
L 2766 1759 
L 2194 1759 
z
M 3341 1997 
L 3341 0 
L 2766 0 
L 2766 531 
Q 2569 213 2275 61 
Q 1981 -91 1556 -91 
Q 1019 -91 701 211 
Q 384 513 384 1019 
Q 384 1609 779 1909 
Q 1175 2209 1959 2209 
L 2766 2209 
L 2766 2266 
Q 2766 2663 2505 2880 
Q 2244 3097 1772 3097 
Q 1472 3097 1187 3025 
Q 903 2953 641 2809 
L 641 3341 
Q 956 3463 1253 3523 
Q 1550 3584 1831 3584 
Q 2591 3584 2966 3190 
Q 3341 2797 3341 1997 
z
" transform="scale(0.015625)"/>
     <path id="DejaVuSans-63" d="M 3122 3366 
L 3122 2828 
Q 2878 2963 2633 3030 
Q 2388 3097 2138 3097 
Q 1578 3097 1268 2742 
Q 959 2388 959 1747 
Q 959 1106 1268 751 
Q 1578 397 2138 397 
Q 2388 397 2633 464 
Q 2878 531 3122 666 
L 3122 134 
Q 2881 22 2623 -34 
Q 2366 -91 2075 -91 
Q 1284 -91 818 406 
Q 353 903 353 1747 
Q 353 2603 823 3093 
Q 1294 3584 2113 3584 
Q 2378 3584 2631 3529 
Q 2884 3475 3122 3366 
z
" transform="scale(0.015625)"/>
     <path id="DejaVuSans-75" d="M 544 1381 
L 544 3500 
L 1119 3500 
L 1119 1403 
Q 1119 906 1312 657 
Q 1506 409 1894 409 
Q 2359 409 2629 706 
Q 2900 1003 2900 1516 
L 2900 3500 
L 3475 3500 
L 3475 0 
L 2900 0 
L 2900 538 
Q 2691 219 2414 64 
Q 2138 -91 1772 -91 
Q 1169 -91 856 284 
Q 544 659 544 1381 
z
M 1991 3584 
L 1991 3584 
z
" transform="scale(0.015625)"/>
     <path id="DejaVuSans-72" d="M 2631 2963 
Q 2534 3019 2420 3045 
Q 2306 3072 2169 3072 
Q 1681 3072 1420 2755 
Q 1159 2438 1159 1844 
L 1159 0 
L 581 0 
L 581 3500 
L 1159 3500 
L 1159 2956 
Q 1341 3275 1631 3429 
Q 1922 3584 2338 3584 
Q 2397 3584 2469 3576 
Q 2541 3569 2628 3553 
L 2631 2963 
z
" transform="scale(0.015625)"/>
    </defs>
    <use xlink:href="#DejaVuSans-61"/>
    <use xlink:href="#DejaVuSans-63" x="61.279297"/>
    <use xlink:href="#DejaVuSans-63" x="116.259766"/>
    <use xlink:href="#DejaVuSans-75" x="171.240234"/>
    <use xlink:href="#DejaVuSans-72" x="234.619141"/>
    <use xlink:href="#DejaVuSans-61" x="275.732422"/>
    <use xlink:href="#DejaVuSans-63" x="337.011719"/>
    <use xlink:href="#DejaVuSans-79" x="391.992188"/>
   </g>
  </g>
  <g id="patch_3">
   <path d="M 48.643304 39.816661 
L 433.160634 39.816661 
L 433.160634 5.608 
L 48.643304 5.608 
L 48.643304 39.816661 
z
" style="fill: none"/>
  </g>
  <g id="text_3">
   <!-- tools -->
   <g transform="translate(48.843304 17.201594) scale(0.11 -0.11)">
    <defs>
     <path id="DejaVuSans-74" d="M 1172 4494 
L 1172 3500 
L 2356 3500 
L 2356 3053 
L 1172 3053 
L 1172 1153 
Q 1172 725 1289 603 
Q 1406 481 1766 481 
L 2356 481 
L 2356 0 
L 1766 0 
Q 1100 0 847 248 
Q 594 497 594 1153 
L 594 3053 
L 172 3053 
L 172 3500 
L 594 3500 
L 594 4494 
L 1172 4494 
z
" transform="scale(0.015625)"/>
     <path id="DejaVuSans-73" d="M 2834 3397 
L 2834 2853 
Q 2591 2978 2328 3040 
Q 2066 3103 1784 3103 
Q 1356 3103 1142 2972 
Q 928 2841 928 2578 
Q 928 2378 1081 2264 
Q 1234 2150 1697 2047 
L 1894 2003 
Q 2506 1872 2764 1633 
Q 3022 1394 3022 966 
Q 3022 478 2636 193 
Q 2250 -91 1575 -91 
Q 1294 -91 989 -36 
Q 684 19 347 128 
L 347 722 
Q 666 556 975 473 
Q 1284 391 1588 391 
Q 1994 391 2212 530 
Q 2431 669 2431 922 
Q 2431 1156 2273 1281 
Q 2116 1406 1581 1522 
L 1381 1569 
Q 847 1681 609 1914 
Q 372 2147 372 2553 
Q 372 3047 722 3315 
Q 1072 3584 1716 3584 
Q 2034 3584 2315 3537 
Q 2597 3491 2834 3397 
z
" transform="scale(0.015625)"/>
    </defs>
    <use xlink:href="#DejaVuSans-74"/>
    <use xlink:href="#DejaVuSans-6f" x="39.208984"/>
    <use xlink:href="#DejaVuSans-6f" x="100.390625"/>
    <use xlink:href="#DejaVuSans-6c" x="161.572266"/>
    <use xlink:href="#DejaVuSans-73" x="189.355469"/>
   </g>
  </g>
  <g id="patch_4">
   <path d="M 48.843304 39.616661 
L 67.398027 39.616661 
L 67.398027 21.061938 
L 48.843304 21.061938 
L 48.843304 39.616661 
z
" clip-path="url(#pb4d273a9bc)" style="fill: none"/>
  </g>
  <g id="line2d_5">
   <path d="M 58.120665 30.339299 
" clip-path="url(#pb4d273a9bc)" style="fill: none; stroke: #1f77b4; stroke-width: 1.5; stroke-linecap: square"/>
   <defs>
    <path id="me8123d897c" d="M 0 4.874248 
C 1.292666 4.874248 2.532561 4.360667 3.446614 3.446614 
C 4.360667 2.532561 4.874248 1.292666 4.874248 0 
C 4.874248 -1.292666 4.360667 -2.532561 3.446614 -3.446614 
C 2.532561 -4.360667 1.292666 -4.874248 0 -4.874248 
C -1.292666 -4.874248 -2.532561 -4.360667 -3.446614 -3.446614 
C -4.360667 -2.532561 -4.874248 -1.292666 -4.874248 0 
C -4.874248 1.292666 -4.360667 2.532561 -3.446614 3.446614 
C -2.532561 4.360667 -1.292666 4.874248 0 4.874248 
z
" style="stroke: #006633; stroke-width: 0.886227"/>
   </defs>
   <g clip-path="url(#pb4d273a9bc)">
    <use xlink:href="#me8123d897c" x="58.120665" y="30.339299" style="fill: #006633; stroke: #006633; stroke-width: 0.886227"/>
   </g>
  </g>
  <g id="line2d_6">
   <path d="M 48.843304 30.339299 
L 67.398027 30.339299 
" clip-path="url(#pb4d273a9bc)" style="fill: none; stroke: #006633; stroke-width: 1.772454"/>
  </g>
  <g id="text_4">
   <!-- flopp -->
   <g transform="translate(70.398027 34.202424) scale(0.14 -0.14)">
    <defs>
     <path id="DejaVuSans-66" d="M 2375 4863 
L 2375 4384 
L 1825 4384 
Q 1516 4384 1395 4259 
Q 1275 4134 1275 3809 
L 1275 3500 
L 2222 3500 
L 2222 3053 
L 1275 3053 
L 1275 0 
L 697 0 
L 697 3053 
L 147 3053 
L 147 3500 
L 697 3500 
L 697 3744 
Q 697 4328 969 4595 
Q 1241 4863 1831 4863 
L 2375 4863 
z
" transform="scale(0.015625)"/>
    </defs>
    <use xlink:href="#DejaVuSans-66"/>
    <use xlink:href="#DejaVuSans-6c" x="35.205078"/>
    <use xlink:href="#DejaVuSans-6f" x="62.988281"/>
    <use xlink:href="#DejaVuSans-70" x="124.169922"/>
    <use xlink:href="#DejaVuSans-70" x="187.646484"/>
   </g>
  </g>
  <g id="patch_5">
   <path d="M 110.557714 39.616661 
L 129.112437 39.616661 
L 129.112437 21.061938 
L 110.557714 21.061938 
L 110.557714 39.616661 
z
" clip-path="url(#pe3edff03ee)" style="fill: none"/>
  </g>
  <g id="line2d_7">
   <path d="M 119.835076 30.339299 
" clip-path="url(#pe3edff03ee)" style="fill: none; stroke: #1f77b4; stroke-width: 1.5; stroke-linecap: square"/>
   <defs>
    <path id="mc4267b5df3" d="M 0 -4.874248 
L -4.874248 4.874248 
L 4.874248 4.874248 
z
" style="stroke: #006699; stroke-width: 0.886227; stroke-linejoin: miter"/>
   </defs>
   <g clip-path="url(#pe3edff03ee)">
    <use xlink:href="#mc4267b5df3" x="119.835076" y="30.339299" style="fill: #006699; stroke: #006699; stroke-width: 0.886227; stroke-linejoin: miter"/>
   </g>
  </g>
  <g id="line2d_8">
   <path d="M 110.557714 30.339299 
L 129.112437 30.339299 
" clip-path="url(#pe3edff03ee)" style="fill: none; stroke: #006699; stroke-width: 1.772454"/>
  </g>
  <g id="text_5">
   <!-- nPhase -->
   <g transform="translate(132.112437 34.202424) scale(0.14 -0.14)">
    <defs>
     <path id="DejaVuSans-6e" d="M 3513 2113 
L 3513 0 
L 2938 0 
L 2938 2094 
Q 2938 2591 2744 2837 
Q 2550 3084 2163 3084 
Q 1697 3084 1428 2787 
Q 1159 2491 1159 1978 
L 1159 0 
L 581 0 
L 581 3500 
L 1159 3500 
L 1159 2956 
Q 1366 3272 1645 3428 
Q 1925 3584 2291 3584 
Q 2894 3584 3203 3211 
Q 3513 2838 3513 2113 
z
" transform="scale(0.015625)"/>
     <path id="DejaVuSans-50" d="M 1259 4147 
L 1259 2394 
L 2053 2394 
Q 2494 2394 2734 2622 
Q 2975 2850 2975 3272 
Q 2975 3691 2734 3919 
Q 2494 4147 2053 4147 
L 1259 4147 
z
M 628 4666 
L 2053 4666 
Q 2838 4666 3239 4311 
Q 3641 3956 3641 3272 
Q 3641 2581 3239 2228 
Q 2838 1875 2053 1875 
L 1259 1875 
L 1259 0 
L 628 0 
L 628 4666 
z
" transform="scale(0.015625)"/>
     <path id="DejaVuSans-68" d="M 3513 2113 
L 3513 0 
L 2938 0 
L 2938 2094 
Q 2938 2591 2744 2837 
Q 2550 3084 2163 3084 
Q 1697 3084 1428 2787 
Q 1159 2491 1159 1978 
L 1159 0 
L 581 0 
L 581 4863 
L 1159 4863 
L 1159 2956 
Q 1366 3272 1645 3428 
Q 1925 3584 2291 3584 
Q 2894 3584 3203 3211 
Q 3513 2838 3513 2113 
z
" transform="scale(0.015625)"/>
     <path id="DejaVuSans-65" d="M 3597 1894 
L 3597 1613 
L 953 1613 
Q 991 1019 1311 708 
Q 1631 397 2203 397 
Q 2534 397 2845 478 
Q 3156 559 3463 722 
L 3463 178 
Q 3153 47 2828 -22 
Q 2503 -91 2169 -91 
Q 1331 -91 842 396 
Q 353 884 353 1716 
Q 353 2575 817 3079 
Q 1281 3584 2069 3584 
Q 2775 3584 3186 3129 
Q 3597 2675 3597 1894 
z
M 3022 2063 
Q 3016 2534 2758 2815 
Q 2500 3097 2075 3097 
Q 1594 3097 1305 2825 
Q 1016 2553 972 2059 
L 3022 2063 
z
" transform="scale(0.015625)"/>
    </defs>
    <use xlink:href="#DejaVuSans-6e"/>
    <use xlink:href="#DejaVuSans-50" x="63.378906"/>
    <use xlink:href="#DejaVuSans-68" x="123.681641"/>
    <use xlink:href="#DejaVuSans-61" x="187.060547"/>
    <use xlink:href="#DejaVuSans-73" x="248.339844"/>
    <use xlink:href="#DejaVuSans-65" x="300.439453"/>
   </g>
  </g>
  <g id="patch_6">
   <path d="M 187.785875 39.616661 
L 206.340598 39.616661 
L 206.340598 21.061938 
L 187.785875 21.061938 
L 187.785875 39.616661 
z
" clip-path="url(#p556a3b1811)" style="fill: none"/>
  </g>
  <g id="line2d_9">
   <path d="M 197.063237 30.339299 
" clip-path="url(#p556a3b1811)" style="fill: none; stroke: #1f77b4; stroke-width: 1.5; stroke-linecap: square"/>
   <defs>
    <path id="mf0d2aa4058" d="M -4.874248 4.874248 
L 4.874248 4.874248 
L 4.874248 -4.874248 
L -4.874248 -4.874248 
z
" style="stroke: #cc0033; stroke-width: 0.886227; stroke-linejoin: miter"/>
   </defs>
   <g clip-path="url(#p556a3b1811)">
    <use xlink:href="#mf0d2aa4058" x="197.063237" y="30.339299" style="fill: #cc0033; stroke: #cc0033; stroke-width: 0.886227; stroke-linejoin: miter"/>
   </g>
  </g>
  <g id="line2d_10">
   <path d="M 187.785875 30.339299 
L 206.340598 30.339299 
" clip-path="url(#p556a3b1811)" style="fill: none; stroke: #cc0033; stroke-width: 1.772454"/>
  </g>
  <g id="text_6">
   <!-- nTChap -->
   <g transform="translate(209.340598 34.202424) scale(0.14 -0.14)">
    <defs>
     <path id="DejaVuSans-54" d="M -19 4666 
L 3928 4666 
L 3928 4134 
L 2272 4134 
L 2272 0 
L 1638 0 
L 1638 4134 
L -19 4134 
L -19 4666 
z
" transform="scale(0.015625)"/>
     <path id="DejaVuSans-43" d="M 4122 4306 
L 4122 3641 
Q 3803 3938 3442 4084 
Q 3081 4231 2675 4231 
Q 1875 4231 1450 3742 
Q 1025 3253 1025 2328 
Q 1025 1406 1450 917 
Q 1875 428 2675 428 
Q 3081 428 3442 575 
Q 3803 722 4122 1019 
L 4122 359 
Q 3791 134 3420 21 
Q 3050 -91 2638 -91 
Q 1578 -91 968 557 
Q 359 1206 359 2328 
Q 359 3453 968 4101 
Q 1578 4750 2638 4750 
Q 3056 4750 3426 4639 
Q 3797 4528 4122 4306 
z
" transform="scale(0.015625)"/>
    </defs>
    <use xlink:href="#DejaVuSans-6e"/>
    <use xlink:href="#DejaVuSans-54" x="63.378906"/>
    <use xlink:href="#DejaVuSans-43" x="118.587891"/>
    <use xlink:href="#DejaVuSans-68" x="188.412109"/>
    <use xlink:href="#DejaVuSans-61" x="251.791016"/>
    <use xlink:href="#DejaVuSans-70" x="313.070312"/>
   </g>
  </g>
  <g id="patch_7">
   <path d="M 267.057161 39.616661 
L 285.611884 39.616661 
L 285.611884 21.061938 
L 267.057161 21.061938 
L 267.057161 39.616661 
z
" clip-path="url(#pfbba7da4cb)" style="fill: none"/>
  </g>
  <g id="line2d_11">
   <path d="M 276.334522 30.339299 
" clip-path="url(#pfbba7da4cb)" style="fill: none; stroke: #1f77b4; stroke-width: 1.5; stroke-linecap: square"/>
   <defs>
    <path id="mc8b6b57c39" d="M -0 6.893228 
L 6.893228 0 
L 0 -6.893228 
L -6.893228 -0 
z
" style="stroke: #ff9900; stroke-width: 0.886227; stroke-linejoin: miter"/>
   </defs>
   <g clip-path="url(#pfbba7da4cb)">
    <use xlink:href="#mc8b6b57c39" x="276.334522" y="30.339299" style="fill: #ff9900; stroke: #ff9900; stroke-width: 0.886227; stroke-linejoin: miter"/>
   </g>
  </g>
  <g id="line2d_12">
   <path d="M 267.057161 30.339299 
L 285.611884 30.339299 
" clip-path="url(#pfbba7da4cb)" style="fill: none; stroke: #ff9900; stroke-width: 1.772454"/>
  </g>
  <g id="text_7">
   <!-- whatshap polyphase -->
   <g transform="translate(288.611884 34.202424) scale(0.14 -0.14)">
    <defs>
     <path id="DejaVuSans-77" d="M 269 3500 
L 844 3500 
L 1563 769 
L 2278 3500 
L 2956 3500 
L 3675 769 
L 4391 3500 
L 4966 3500 
L 4050 0 
L 3372 0 
L 2619 2869 
L 1863 0 
L 1184 0 
L 269 3500 
z
" transform="scale(0.015625)"/>
     <path id="DejaVuSans-20" transform="scale(0.015625)"/>
    </defs>
    <use xlink:href="#DejaVuSans-77"/>
    <use xlink:href="#DejaVuSans-68" x="81.787109"/>
    <use xlink:href="#DejaVuSans-61" x="145.166016"/>
    <use xlink:href="#DejaVuSans-74" x="206.445312"/>
    <use xlink:href="#DejaVuSans-73" x="245.654297"/>
    <use xlink:href="#DejaVuSans-68" x="297.753906"/>
    <use xlink:href="#DejaVuSans-61" x="361.132812"/>
    <use xlink:href="#DejaVuSans-70" x="422.412109"/>
    <use xlink:href="#DejaVuSans-20" x="485.888672"/>
    <use xlink:href="#DejaVuSans-70" x="517.675781"/>
    <use xlink:href="#DejaVuSans-6f" x="581.152344"/>
    <use xlink:href="#DejaVuSans-6c" x="642.333984"/>
    <use xlink:href="#DejaVuSans-79" x="670.117188"/>
    <use xlink:href="#DejaVuSans-70" x="729.296875"/>
    <use xlink:href="#DejaVuSans-68" x="792.773438"/>
    <use xlink:href="#DejaVuSans-61" x="856.152344"/>
    <use xlink:href="#DejaVuSans-73" x="917.431641"/>
    <use xlink:href="#DejaVuSans-65" x="969.53125"/>
   </g>
  </g>
 </g>
 <defs>
  <clipPath id="p530ae79c3e">
   <rect x="21.003938" y="53.640661" width="439.796063" height="266.347402"/>
  </clipPath>
  <clipPath id="pb4d273a9bc">
   <path d="M 48.843304 39.616661 
L 48.843304 21.061938 
L 67.398027 21.061938 
L 67.398027 39.616661 
"/>
  </clipPath>
  <clipPath id="pe3edff03ee">
   <path d="M 110.557714 39.616661 
L 110.557714 21.061938 
L 129.112437 21.061938 
L 129.112437 39.616661 
"/>
  </clipPath>
  <clipPath id="p556a3b1811">
   <path d="M 187.785875 39.616661 
L 187.785875 21.061938 
L 206.340598 21.061938 
L 206.340598 39.616661 
"/>
  </clipPath>
  <clipPath id="pfbba7da4cb">
   <path d="M 267.057161 39.616661 
L 267.057161 21.061938 
L 285.611884 21.061938 
L 285.611884 39.616661 
"/>
  </clipPath>
 </defs>
</svg>
