<?xml version="1.0" encoding="utf-8" standalone="no"?>
<!DOCTYPE svg PUBLIC "-//W3C//DTD SVG 1.1//EN"
  "http://www.w3.org/Graphics/SVG/1.1/DTD/svg11.dtd">
<svg xmlns:xlink="http://www.w3.org/1999/xlink" width="730.235625pt" height="389.01pt" viewBox="0 0 730.235625 389.01" xmlns="http://www.w3.org/2000/svg" version="1.1">
 <metadata>
  <rdf:RDF xmlns:dc="http://purl.org/dc/elements/1.1/" xmlns:cc="http://creativecommons.org/ns#" xmlns:rdf="http://www.w3.org/1999/02/22-rdf-syntax-ns#">
   <cc:Work>
    <dc:type rdf:resource="http://purl.org/dc/dcmitype/StillImage"/>
    <dc:date>2025-06-24T15:51:00.267471</dc:date>
    <dc:format>image/svg+xml</dc:format>
    <dc:creator>
     <cc:Agent>
      <dc:title>Matplotlib v3.7.3, https://matplotlib.org/</dc:title>
     </cc:Agent>
    </dc:creator>
   </cc:Work>
  </rdf:RDF>
 </metadata>
 <defs>
  <style type="text/css">*{stroke-linejoin: round; stroke-linecap: butt}</style>
 </defs>
 <g id="figure_1">
  <g id="patch_1">
   <path d="M 0 389.01 
L 730.235625 389.01 
L 730.235625 0 
L 0 0 
z
" style="fill: #ffffff"/>
  </g>
  <g id="axes_1">
   <g id="patch_2">
    <path d="M 53.435625 339.84 
L 723.035625 339.84 
L 723.035625 7.2 
L 53.435625 7.2 
z
" style="fill: #ffffff"/>
   </g>
   <g id="patch_3">
    <path d="M 83.871989 339.84 
L 87.629564 339.84 
L 87.629564 309.980229 
L 83.871989 309.980229 
z
" clip-path="url(#p8e2f90046b)" style="fill: #1f77b4; stroke: #000000; stroke-linejoin: miter"/>
   </g>
   <g id="patch_4">
    <path d="M 87.629564 339.84 
L 91.38714 339.84 
L 91.38714 238.728021 
L 87.629564 238.728021 
z
" clip-path="url(#p8e2f90046b)" style="fill: #1f77b4; stroke: #000000; stroke-linejoin: miter"/>
   </g>
   <g id="patch_5">
    <path d="M 91.38714 339.84 
L 95.144716 339.84 
L 95.144716 197.616557 
L 91.38714 197.616557 
z
" clip-path="url(#p8e2f90046b)" style="fill: #1f77b4; stroke: #000000; stroke-linejoin: miter"/>
   </g>
   <g id="patch_6">
    <path d="M 95.144716 339.84 
L 98.902292 339.84 
L 98.902292 153.786277 
L 95.144716 153.786277 
z
" clip-path="url(#p8e2f90046b)" style="fill: #1f77b4; stroke: #000000; stroke-linejoin: miter"/>
   </g>
   <g id="patch_7">
    <path d="M 98.902292 339.84 
L 102.659867 339.84 
L 102.659867 143.454226 
L 98.902292 143.454226 
z
" clip-path="url(#p8e2f90046b)" style="fill: #1f77b4; stroke: #000000; stroke-linejoin: miter"/>
   </g>
   <g id="patch_8">
    <path d="M 102.659867 339.84 
L 106.417443 339.84 
L 106.417443 139.31184 
L 102.659867 139.31184 
z
" clip-path="url(#p8e2f90046b)" style="fill: #1f77b4; stroke: #000000; stroke-linejoin: miter"/>
   </g>
   <g id="patch_9">
    <path d="M 106.417443 339.84 
L 110.175019 339.84 
L 110.175019 106.708006 
L 106.417443 106.708006 
z
" clip-path="url(#p8e2f90046b)" style="fill: #1f77b4; stroke: #000000; stroke-linejoin: miter"/>
   </g>
   <g id="patch_10">
    <path d="M 110.175019 339.84 
L 113.932595 339.84 
L 113.932595 91.723779 
L 110.175019 91.723779 
z
" clip-path="url(#p8e2f90046b)" style="fill: #1f77b4; stroke: #000000; stroke-linejoin: miter"/>
   </g>
   <g id="patch_11">
    <path d="M 113.932595 339.84 
L 117.69017 339.84 
L 117.69017 130.401809 
L 113.932595 130.401809 
z
" clip-path="url(#p8e2f90046b)" style="fill: #1f77b4; stroke: #000000; stroke-linejoin: miter"/>
   </g>
   <g id="patch_12">
    <path d="M 117.69017 339.84 
L 121.447746 339.84 
L 121.447746 107.915205 
L 117.69017 107.915205 
z
" clip-path="url(#p8e2f90046b)" style="fill: #1f77b4; stroke: #000000; stroke-linejoin: miter"/>
   </g>
   <g id="patch_13">
    <path d="M 121.447746 339.84 
L 125.205322 339.84 
L 125.205322 122.224963 
L 121.447746 122.224963 
z
" clip-path="url(#p8e2f90046b)" style="fill: #1f77b4; stroke: #000000; stroke-linejoin: miter"/>
   </g>
   <g id="patch_14">
    <path d="M 125.205322 339.84 
L 128.962898 339.84 
L 128.962898 125.692201 
L 125.205322 125.692201 
z
" clip-path="url(#p8e2f90046b)" style="fill: #1f77b4; stroke: #000000; stroke-linejoin: miter"/>
   </g>
   <g id="patch_15">
    <path d="M 128.962898 339.84 
L 132.720473 339.84 
L 132.720473 110.280574 
L 128.962898 110.280574 
z
" clip-path="url(#p8e2f90046b)" style="fill: #1f77b4; stroke: #000000; stroke-linejoin: miter"/>
   </g>
   <g id="patch_16">
    <path d="M 132.720473 339.84 
L 136.478049 339.84 
L 136.478049 98.225367 
L 132.720473 98.225367 
z
" clip-path="url(#p8e2f90046b)" style="fill: #1f77b4; stroke: #000000; stroke-linejoin: miter"/>
   </g>
   <g id="patch_17">
    <path d="M 136.478049 339.84 
L 140.235625 339.84 
L 140.235625 146.278073 
L 136.478049 146.278073 
z
" clip-path="url(#p8e2f90046b)" style="fill: #1f77b4; stroke: #000000; stroke-linejoin: miter"/>
   </g>
   <g id="patch_18">
    <path d="M 140.235625 339.84 
L 143.993201 339.84 
L 143.993201 133.956448 
L 140.235625 133.956448 
z
" clip-path="url(#p8e2f90046b)" style="fill: #1f77b4; stroke: #000000; stroke-linejoin: miter"/>
   </g>
   <g id="patch_19">
    <path d="M 143.993201 339.84 
L 147.750777 339.84 
L 147.750777 116.103686 
L 143.993201 116.103686 
z
" clip-path="url(#p8e2f90046b)" style="fill: #1f77b4; stroke: #000000; stroke-linejoin: miter"/>
   </g>
   <g id="patch_20">
    <path d="M 147.750777 339.84 
L 151.508352 339.84 
L 151.508352 118.764315 
L 147.750777 118.764315 
z
" clip-path="url(#p8e2f90046b)" style="fill: #1f77b4; stroke: #000000; stroke-linejoin: miter"/>
   </g>
   <g id="patch_21">
    <path d="M 151.508352 339.84 
L 155.265928 339.84 
L 155.265928 135.480947 
L 151.508352 135.480947 
z
" clip-path="url(#p8e2f90046b)" style="fill: #1f77b4; stroke: #000000; stroke-linejoin: miter"/>
   </g>
   <g id="patch_22">
    <path d="M 155.265928 339.84 
L 159.023504 339.84 
L 159.023504 110.039165 
L 155.265928 110.039165 
z
" clip-path="url(#p8e2f90046b)" style="fill: #1f77b4; stroke: #000000; stroke-linejoin: miter"/>
   </g>
   <g id="patch_23">
    <path d="M 159.023504 339.84 
L 162.78108 339.84 
L 162.78108 133.366493 
L 159.023504 133.366493 
z
" clip-path="url(#p8e2f90046b)" style="fill: #1f77b4; stroke: #000000; stroke-linejoin: miter"/>
   </g>
   <g id="patch_24">
    <path d="M 162.78108 339.84 
L 166.538655 339.84 
L 166.538655 134.579646 
L 162.78108 134.579646 
z
" clip-path="url(#p8e2f90046b)" style="fill: #1f77b4; stroke: #000000; stroke-linejoin: miter"/>
   </g>
   <g id="patch_25">
    <path d="M 166.538655 339.84 
L 170.296231 339.84 
L 170.296231 106.087461 
L 166.538655 106.087461 
z
" clip-path="url(#p8e2f90046b)" style="fill: #1f77b4; stroke: #000000; stroke-linejoin: miter"/>
   </g>
   <g id="patch_26">
    <path d="M 170.296231 339.84 
L 174.053807 339.84 
L 174.053807 76.078689 
L 170.296231 76.078689 
z
" clip-path="url(#p8e2f90046b)" style="fill: #1f77b4; stroke: #000000; stroke-linejoin: miter"/>
   </g>
   <g id="patch_27">
    <path d="M 174.053807 339.84 
L 177.811383 339.84 
L 177.811383 133.033377 
L 174.053807 133.033377 
z
" clip-path="url(#p8e2f90046b)" style="fill: #1f77b4; stroke: #000000; stroke-linejoin: miter"/>
   </g>
   <g id="patch_28">
    <path d="M 177.811383 339.84 
L 181.568958 339.84 
L 181.568958 143.969116 
L 177.811383 143.969116 
z
" clip-path="url(#p8e2f90046b)" style="fill: #1f77b4; stroke: #000000; stroke-linejoin: miter"/>
   </g>
   <g id="patch_29">
    <path d="M 181.568958 339.84 
L 185.326534 339.84 
L 185.326534 85.355212 
L 181.568958 85.355212 
z
" clip-path="url(#p8e2f90046b)" style="fill: #1f77b4; stroke: #000000; stroke-linejoin: miter"/>
   </g>
   <g id="patch_30">
    <path d="M 185.326534 339.84 
L 189.08411 339.84 
L 189.08411 61.551954 
L 185.326534 61.551954 
z
" clip-path="url(#p8e2f90046b)" style="fill: #1f77b4; stroke: #000000; stroke-linejoin: miter"/>
   </g>
   <g id="patch_31">
    <path d="M 189.08411 339.84 
L 192.841686 339.84 
L 192.841686 59.194467 
L 189.08411 59.194467 
z
" clip-path="url(#p8e2f90046b)" style="fill: #1f77b4; stroke: #000000; stroke-linejoin: miter"/>
   </g>
   <g id="patch_32">
    <path d="M 192.841686 339.84 
L 196.599261 339.84 
L 196.599261 68.572571 
L 192.841686 68.572571 
z
" clip-path="url(#p8e2f90046b)" style="fill: #1f77b4; stroke: #000000; stroke-linejoin: miter"/>
   </g>
   <g id="patch_33">
    <path d="M 196.599261 339.84 
L 200.356837 339.84 
L 200.356837 61.108051 
L 196.599261 61.108051 
z
" clip-path="url(#p8e2f90046b)" style="fill: #1f77b4; stroke: #000000; stroke-linejoin: miter"/>
   </g>
   <g id="patch_34">
    <path d="M 200.356837 339.84 
L 204.114413 339.84 
L 204.114413 63.455734 
L 200.356837 63.455734 
z
" clip-path="url(#p8e2f90046b)" style="fill: #1f77b4; stroke: #000000; stroke-linejoin: miter"/>
   </g>
   <g id="patch_35">
    <path d="M 204.114413 339.84 
L 207.871989 339.84 
L 207.871989 73.093275 
L 204.114413 73.093275 
z
" clip-path="url(#p8e2f90046b)" style="fill: #1f77b4; stroke: #000000; stroke-linejoin: miter"/>
   </g>
   <g id="patch_36">
    <path d="M 207.871989 339.84 
L 211.629564 339.84 
L 211.629564 71.311914 
L 207.871989 71.311914 
z
" clip-path="url(#p8e2f90046b)" style="fill: #1f77b4; stroke: #000000; stroke-linejoin: miter"/>
   </g>
   <g id="patch_37">
    <path d="M 211.629564 339.84 
L 215.38714 339.84 
L 215.38714 109.543626 
L 211.629564 109.543626 
z
" clip-path="url(#p8e2f90046b)" style="fill: #1f77b4; stroke: #000000; stroke-linejoin: miter"/>
   </g>
   <g id="patch_38">
    <path d="M 215.38714 339.84 
L 219.144716 339.84 
L 219.144716 120.162491 
L 215.38714 120.162491 
z
" clip-path="url(#p8e2f90046b)" style="fill: #1f77b4; stroke: #000000; stroke-linejoin: miter"/>
   </g>
   <g id="patch_39">
    <path d="M 219.144716 339.84 
L 222.902292 339.84 
L 222.902292 93.905465 
L 219.144716 93.905465 
z
" clip-path="url(#p8e2f90046b)" style="fill: #1f77b4; stroke: #000000; stroke-linejoin: miter"/>
   </g>
   <g id="patch_40">
    <path d="M 222.902292 339.84 
L 226.659867 339.84 
L 226.659867 70.065995 
L 222.902292 70.065995 
z
" clip-path="url(#p8e2f90046b)" style="fill: #1f77b4; stroke: #000000; stroke-linejoin: miter"/>
   </g>
   <g id="patch_41">
    <path d="M 226.659867 339.84 
L 230.417443 339.84 
L 230.417443 48.76943 
L 226.659867 48.76943 
z
" clip-path="url(#p8e2f90046b)" style="fill: #1f77b4; stroke: #000000; stroke-linejoin: miter"/>
   </g>
   <g id="patch_42">
    <path d="M 230.417443 339.84 
L 234.175019 339.84 
L 234.175019 113.706371 
L 230.417443 113.706371 
z
" clip-path="url(#p8e2f90046b)" style="fill: #1f77b4; stroke: #000000; stroke-linejoin: miter"/>
   </g>
   <g id="patch_43">
    <path d="M 234.175019 339.84 
L 237.932595 339.84 
L 237.932595 90.579543 
L 234.175019 90.579543 
z
" clip-path="url(#p8e2f90046b)" style="fill: #1f77b4; stroke: #000000; stroke-linejoin: miter"/>
   </g>
   <g id="patch_44">
    <path d="M 237.932595 339.84 
L 241.69017 339.84 
L 241.69017 115.857461 
L 237.932595 115.857461 
z
" clip-path="url(#p8e2f90046b)" style="fill: #1f77b4; stroke: #000000; stroke-linejoin: miter"/>
   </g>
   <g id="patch_45">
    <path d="M 241.69017 339.84 
L 245.447746 339.84 
L 245.447746 105.009823 
L 241.69017 105.009823 
z
" clip-path="url(#p8e2f90046b)" style="fill: #1f77b4; stroke: #000000; stroke-linejoin: miter"/>
   </g>
   <g id="patch_46">
    <path d="M 245.447746 339.84 
L 249.205322 339.84 
L 249.205322 94.048961 
L 245.447746 94.048961 
z
" clip-path="url(#p8e2f90046b)" style="fill: #1f77b4; stroke: #000000; stroke-linejoin: miter"/>
   </g>
   <g id="patch_47">
    <path d="M 249.205322 339.84 
L 252.962898 339.84 
L 252.962898 99.038893 
L 249.205322 99.038893 
z
" clip-path="url(#p8e2f90046b)" style="fill: #1f77b4; stroke: #000000; stroke-linejoin: miter"/>
   </g>
   <g id="patch_48">
    <path d="M 252.962898 339.84 
L 256.720473 339.84 
L 256.720473 105.859391 
L 252.962898 105.859391 
z
" clip-path="url(#p8e2f90046b)" style="fill: #1f77b4; stroke: #000000; stroke-linejoin: miter"/>
   </g>
   <g id="patch_49">
    <path d="M 256.720473 339.84 
L 260.478049 339.84 
L 260.478049 107.639992 
L 256.720473 107.639992 
z
" clip-path="url(#p8e2f90046b)" style="fill: #1f77b4; stroke: #000000; stroke-linejoin: miter"/>
   </g>
   <g id="patch_50">
    <path d="M 260.478049 339.84 
L 264.235625 339.84 
L 264.235625 135.059651 
L 260.478049 135.059651 
z
" clip-path="url(#p8e2f90046b)" style="fill: #1f77b4; stroke: #000000; stroke-linejoin: miter"/>
   </g>
   <g id="patch_51">
    <path d="M 264.235625 339.84 
L 267.993201 339.84 
L 267.993201 132.798559 
L 264.235625 132.798559 
z
" clip-path="url(#p8e2f90046b)" style="fill: #1f77b4; stroke: #000000; stroke-linejoin: miter"/>
   </g>
   <g id="patch_52">
    <path d="M 267.993201 339.84 
L 271.750777 339.84 
L 271.750777 123.254527 
L 267.993201 123.254527 
z
" clip-path="url(#p8e2f90046b)" style="fill: #1f77b4; stroke: #000000; stroke-linejoin: miter"/>
   </g>
   <g id="patch_53">
    <path d="M 271.750777 339.84 
L 275.508352 339.84 
L 275.508352 78.451241 
L 271.750777 78.451241 
z
" clip-path="url(#p8e2f90046b)" style="fill: #1f77b4; stroke: #000000; stroke-linejoin: miter"/>
   </g>
   <g id="patch_54">
    <path d="M 275.508352 339.84 
L 279.265928 339.84 
L 279.265928 153.171731 
L 275.508352 153.171731 
z
" clip-path="url(#p8e2f90046b)" style="fill: #1f77b4; stroke: #000000; stroke-linejoin: miter"/>
   </g>
   <g id="patch_55">
    <path d="M 279.265928 339.84 
L 283.023504 339.84 
L 283.023504 132.024127 
L 279.265928 132.024127 
z
" clip-path="url(#p8e2f90046b)" style="fill: #1f77b4; stroke: #000000; stroke-linejoin: miter"/>
   </g>
   <g id="patch_56">
    <path d="M 283.023504 339.84 
L 286.78108 339.84 
L 286.78108 339.84 
L 283.023504 339.84 
z
" clip-path="url(#p8e2f90046b)" style="fill: #1f77b4; stroke: #000000; stroke-linejoin: miter"/>
   </g>
   <g id="patch_57">
    <path d="M 286.78108 339.84 
L 290.538655 339.84 
L 290.538655 174.488786 
L 286.78108 174.488786 
z
" clip-path="url(#p8e2f90046b)" style="fill: #1f77b4; stroke: #000000; stroke-linejoin: miter"/>
   </g>
   <g id="patch_58">
    <path d="M 290.538655 339.84 
L 294.296231 339.84 
L 294.296231 62.887731 
L 290.538655 62.887731 
z
" clip-path="url(#p8e2f90046b)" style="fill: #1f77b4; stroke: #000000; stroke-linejoin: miter"/>
   </g>
   <g id="patch_59">
    <path d="M 294.296231 339.84 
L 298.053807 339.84 
L 298.053807 79.426242 
L 294.296231 79.426242 
z
" clip-path="url(#p8e2f90046b)" style="fill: #1f77b4; stroke: #000000; stroke-linejoin: miter"/>
   </g>
   <g id="patch_60">
    <path d="M 298.053807 339.84 
L 301.811383 339.84 
L 301.811383 79.426242 
L 298.053807 79.426242 
z
" clip-path="url(#p8e2f90046b)" style="fill: #1f77b4; stroke: #000000; stroke-linejoin: miter"/>
   </g>
   <g id="patch_61">
    <path d="M 301.811383 339.84 
L 305.568958 339.84 
L 305.568958 99.591024 
L 301.811383 99.591024 
z
" clip-path="url(#p8e2f90046b)" style="fill: #1f77b4; stroke: #000000; stroke-linejoin: miter"/>
   </g>
   <g id="patch_62">
    <path d="M 305.568958 339.84 
L 309.326534 339.84 
L 309.326534 81.798569 
L 305.568958 81.798569 
z
" clip-path="url(#p8e2f90046b)" style="fill: #1f77b4; stroke: #000000; stroke-linejoin: miter"/>
   </g>
   <g id="patch_63">
    <path d="M 309.326534 339.84 
L 313.08411 339.84 
L 313.08411 107.245411 
L 309.326534 107.245411 
z
" clip-path="url(#p8e2f90046b)" style="fill: #1f77b4; stroke: #000000; stroke-linejoin: miter"/>
   </g>
   <g id="patch_64">
    <path d="M 313.08411 339.84 
L 316.841686 339.84 
L 316.841686 100.351524 
L 313.08411 100.351524 
z
" clip-path="url(#p8e2f90046b)" style="fill: #1f77b4; stroke: #000000; stroke-linejoin: miter"/>
   </g>
   <g id="patch_65">
    <path d="M 316.841686 339.84 
L 320.599261 339.84 
L 320.599261 112.358955 
L 316.841686 112.358955 
z
" clip-path="url(#p8e2f90046b)" style="fill: #1f77b4; stroke: #000000; stroke-linejoin: miter"/>
   </g>
   <g id="patch_66">
    <path d="M 320.599261 339.84 
L 324.356837 339.84 
L 324.356837 282.016832 
L 320.599261 282.016832 
z
" clip-path="url(#p8e2f90046b)" style="fill: #1f77b4; stroke: #000000; stroke-linejoin: miter"/>
   </g>
   <g id="patch_67">
    <path d="M 324.356837 339.84 
L 328.114413 339.84 
L 328.114413 119.261975 
L 324.356837 119.261975 
z
" clip-path="url(#p8e2f90046b)" style="fill: #1f77b4; stroke: #000000; stroke-linejoin: miter"/>
   </g>
   <g id="patch_68">
    <path d="M 328.114413 339.84 
L 331.871989 339.84 
L 331.871989 118.367841 
L 328.114413 118.367841 
z
" clip-path="url(#p8e2f90046b)" style="fill: #1f77b4; stroke: #000000; stroke-linejoin: miter"/>
   </g>
   <g id="patch_69">
    <path d="M 331.871989 339.84 
L 335.629564 339.84 
L 335.629564 102.425616 
L 331.871989 102.425616 
z
" clip-path="url(#p8e2f90046b)" style="fill: #1f77b4; stroke: #000000; stroke-linejoin: miter"/>
   </g>
   <g id="patch_70">
    <path d="M 335.629564 339.84 
L 339.38714 339.84 
L 339.38714 98.999726 
L 335.629564 98.999726 
z
" clip-path="url(#p8e2f90046b)" style="fill: #1f77b4; stroke: #000000; stroke-linejoin: miter"/>
   </g>
   <g id="patch_71">
    <path d="M 339.38714 339.84 
L 343.144716 339.84 
L 343.144716 99.433896 
L 339.38714 99.433896 
z
" clip-path="url(#p8e2f90046b)" style="fill: #1f77b4; stroke: #000000; stroke-linejoin: miter"/>
   </g>
   <g id="patch_72">
    <path d="M 343.144716 339.84 
L 346.902292 339.84 
L 346.902292 110.825688 
L 343.144716 110.825688 
z
" clip-path="url(#p8e2f90046b)" style="fill: #1f77b4; stroke: #000000; stroke-linejoin: miter"/>
   </g>
   <g id="patch_73">
    <path d="M 346.902292 339.84 
L 350.659867 339.84 
L 350.659867 74.096978 
L 346.902292 74.096978 
z
" clip-path="url(#p8e2f90046b)" style="fill: #1f77b4; stroke: #000000; stroke-linejoin: miter"/>
   </g>
   <g id="patch_74">
    <path d="M 350.659867 339.84 
L 354.417443 339.84 
L 354.417443 57.172964 
L 350.659867 57.172964 
z
" clip-path="url(#p8e2f90046b)" style="fill: #1f77b4; stroke: #000000; stroke-linejoin: miter"/>
   </g>
   <g id="patch_75">
    <path d="M 354.417443 339.84 
L 358.175019 339.84 
L 358.175019 75.969422 
L 354.417443 75.969422 
z
" clip-path="url(#p8e2f90046b)" style="fill: #1f77b4; stroke: #000000; stroke-linejoin: miter"/>
   </g>
   <g id="patch_76">
    <path d="M 358.175019 339.84 
L 361.932595 339.84 
L 361.932595 80.084684 
L 358.175019 80.084684 
z
" clip-path="url(#p8e2f90046b)" style="fill: #1f77b4; stroke: #000000; stroke-linejoin: miter"/>
   </g>
   <g id="patch_77">
    <path d="M 361.932595 339.84 
L 365.69017 339.84 
L 365.69017 88.183519 
L 361.932595 88.183519 
z
" clip-path="url(#p8e2f90046b)" style="fill: #1f77b4; stroke: #000000; stroke-linejoin: miter"/>
   </g>
   <g id="patch_78">
    <path d="M 365.69017 339.84 
L 369.447746 339.84 
L 369.447746 76.807439 
L 365.69017 76.807439 
z
" clip-path="url(#p8e2f90046b)" style="fill: #1f77b4; stroke: #000000; stroke-linejoin: miter"/>
   </g>
   <g id="patch_79">
    <path d="M 369.447746 339.84 
L 373.205322 339.84 
L 373.205322 46.226368 
L 369.447746 46.226368 
z
" clip-path="url(#p8e2f90046b)" style="fill: #1f77b4; stroke: #000000; stroke-linejoin: miter"/>
   </g>
   <g id="patch_80">
    <path d="M 373.205322 339.84 
L 376.962898 339.84 
L 376.962898 100.302722 
L 373.205322 100.302722 
z
" clip-path="url(#p8e2f90046b)" style="fill: #1f77b4; stroke: #000000; stroke-linejoin: miter"/>
   </g>
   <g id="patch_81">
    <path d="M 376.962898 339.84 
L 380.720473 339.84 
L 380.720473 104.200117 
L 376.962898 104.200117 
z
" clip-path="url(#p8e2f90046b)" style="fill: #1f77b4; stroke: #000000; stroke-linejoin: miter"/>
   </g>
   <g id="patch_82">
    <path d="M 380.720473 339.84 
L 384.478049 339.84 
L 384.478049 98.94287 
L 380.720473 98.94287 
z
" clip-path="url(#p8e2f90046b)" style="fill: #1f77b4; stroke: #000000; stroke-linejoin: miter"/>
   </g>
   <g id="patch_83">
    <path d="M 384.478049 339.84 
L 388.235625 339.84 
L 388.235625 79.907288 
L 384.478049 79.907288 
z
" clip-path="url(#p8e2f90046b)" style="fill: #1f77b4; stroke: #000000; stroke-linejoin: miter"/>
   </g>
   <g id="patch_84">
    <path d="M 388.235625 339.84 
L 391.993201 339.84 
L 391.993201 86.685563 
L 388.235625 86.685563 
z
" clip-path="url(#p8e2f90046b)" style="fill: #1f77b4; stroke: #000000; stroke-linejoin: miter"/>
   </g>
   <g id="patch_85">
    <path d="M 391.993201 339.84 
L 395.750777 339.84 
L 395.750777 115.607622 
L 391.993201 115.607622 
z
" clip-path="url(#p8e2f90046b)" style="fill: #1f77b4; stroke: #000000; stroke-linejoin: miter"/>
   </g>
   <g id="patch_86">
    <path d="M 395.750777 339.84 
L 399.508352 339.84 
L 399.508352 107.967164 
L 395.750777 107.967164 
z
" clip-path="url(#p8e2f90046b)" style="fill: #1f77b4; stroke: #000000; stroke-linejoin: miter"/>
   </g>
   <g id="patch_87">
    <path d="M 399.508352 339.84 
L 403.265928 339.84 
L 403.265928 140.57903 
L 399.508352 140.57903 
z
" clip-path="url(#p8e2f90046b)" style="fill: #1f77b4; stroke: #000000; stroke-linejoin: miter"/>
   </g>
   <g id="patch_88">
    <path d="M 403.265928 339.84 
L 407.023504 339.84 
L 407.023504 117.765516 
L 403.265928 117.765516 
z
" clip-path="url(#p8e2f90046b)" style="fill: #1f77b4; stroke: #000000; stroke-linejoin: miter"/>
   </g>
   <g id="patch_89">
    <path d="M 407.023504 339.84 
L 410.78108 339.84 
L 410.78108 111.792318 
L 407.023504 111.792318 
z
" clip-path="url(#p8e2f90046b)" style="fill: #1f77b4; stroke: #000000; stroke-linejoin: miter"/>
   </g>
   <g id="patch_90">
    <path d="M 410.78108 339.84 
L 414.538655 339.84 
L 414.538655 87.811693 
L 410.78108 87.811693 
z
" clip-path="url(#p8e2f90046b)" style="fill: #1f77b4; stroke: #000000; stroke-linejoin: miter"/>
   </g>
   <g id="patch_91">
    <path d="M 414.538655 339.84 
L 418.296231 339.84 
L 418.296231 70.490689 
L 414.538655 70.490689 
z
" clip-path="url(#p8e2f90046b)" style="fill: #1f77b4; stroke: #000000; stroke-linejoin: miter"/>
   </g>
   <g id="patch_92">
    <path d="M 418.296231 339.84 
L 422.053807 339.84 
L 422.053807 152.41199 
L 418.296231 152.41199 
z
" clip-path="url(#p8e2f90046b)" style="fill: #1f77b4; stroke: #000000; stroke-linejoin: miter"/>
   </g>
   <g id="patch_93">
    <path d="M 422.053807 339.84 
L 425.811383 339.84 
L 425.811383 44.067914 
L 422.053807 44.067914 
z
" clip-path="url(#p8e2f90046b)" style="fill: #1f77b4; stroke: #000000; stroke-linejoin: miter"/>
   </g>
   <g id="patch_94">
    <path d="M 425.811383 339.84 
L 429.568958 339.84 
L 429.568958 23.04 
L 425.811383 23.04 
z
" clip-path="url(#p8e2f90046b)" style="fill: #1f77b4; stroke: #000000; stroke-linejoin: miter"/>
   </g>
   <g id="patch_95">
    <path d="M 429.568958 339.84 
L 433.326534 339.84 
L 433.326534 73.584484 
L 429.568958 73.584484 
z
" clip-path="url(#p8e2f90046b)" style="fill: #1f77b4; stroke: #000000; stroke-linejoin: miter"/>
   </g>
   <g id="patch_96">
    <path d="M 433.326534 339.84 
L 437.08411 339.84 
L 437.08411 65.022826 
L 433.326534 65.022826 
z
" clip-path="url(#p8e2f90046b)" style="fill: #1f77b4; stroke: #000000; stroke-linejoin: miter"/>
   </g>
   <g id="patch_97">
    <path d="M 437.08411 339.84 
L 440.841686 339.84 
L 440.841686 51.862953 
L 437.08411 51.862953 
z
" clip-path="url(#p8e2f90046b)" style="fill: #1f77b4; stroke: #000000; stroke-linejoin: miter"/>
   </g>
   <g id="patch_98">
    <path d="M 440.841686 339.84 
L 444.599261 339.84 
L 444.599261 56.94229 
L 440.841686 56.94229 
z
" clip-path="url(#p8e2f90046b)" style="fill: #1f77b4; stroke: #000000; stroke-linejoin: miter"/>
   </g>
   <g id="patch_99">
    <path d="M 444.599261 339.84 
L 448.356837 339.84 
L 448.356837 62.411824 
L 444.599261 62.411824 
z
" clip-path="url(#p8e2f90046b)" style="fill: #1f77b4; stroke: #000000; stroke-linejoin: miter"/>
   </g>
   <g id="patch_100">
    <path d="M 448.356837 339.84 
L 452.114413 339.84 
L 452.114413 84.060384 
L 448.356837 84.060384 
z
" clip-path="url(#p8e2f90046b)" style="fill: #1f77b4; stroke: #000000; stroke-linejoin: miter"/>
   </g>
   <g id="patch_101">
    <path d="M 452.114413 339.84 
L 455.871989 339.84 
L 455.871989 75.795792 
L 452.114413 75.795792 
z
" clip-path="url(#p8e2f90046b)" style="fill: #1f77b4; stroke: #000000; stroke-linejoin: miter"/>
   </g>
   <g id="patch_102">
    <path d="M 455.871989 339.84 
L 459.629564 339.84 
L 459.629564 106.85518 
L 455.871989 106.85518 
z
" clip-path="url(#p8e2f90046b)" style="fill: #1f77b4; stroke: #000000; stroke-linejoin: miter"/>
   </g>
   <g id="patch_103">
    <path d="M 459.629564 339.84 
L 463.38714 339.84 
L 463.38714 101.777797 
L 459.629564 101.777797 
z
" clip-path="url(#p8e2f90046b)" style="fill: #1f77b4; stroke: #000000; stroke-linejoin: miter"/>
   </g>
   <g id="patch_104">
    <path d="M 463.38714 339.84 
L 467.144716 339.84 
L 467.144716 66.615674 
L 463.38714 66.615674 
z
" clip-path="url(#p8e2f90046b)" style="fill: #1f77b4; stroke: #000000; stroke-linejoin: miter"/>
   </g>
   <g id="patch_105">
    <path d="M 467.144716 339.84 
L 470.902292 339.84 
L 470.902292 58.341046 
L 467.144716 58.341046 
z
" clip-path="url(#p8e2f90046b)" style="fill: #1f77b4; stroke: #000000; stroke-linejoin: miter"/>
   </g>
   <g id="patch_106">
    <path d="M 470.902292 339.84 
L 474.659867 339.84 
L 474.659867 82.516429 
L 470.902292 82.516429 
z
" clip-path="url(#p8e2f90046b)" style="fill: #1f77b4; stroke: #000000; stroke-linejoin: miter"/>
   </g>
   <g id="patch_107">
    <path d="M 474.659867 339.84 
L 478.417443 339.84 
L 478.417443 88.508866 
L 474.659867 88.508866 
z
" clip-path="url(#p8e2f90046b)" style="fill: #1f77b4; stroke: #000000; stroke-linejoin: miter"/>
   </g>
   <g id="patch_108">
    <path d="M 478.417443 339.84 
L 482.175019 339.84 
L 482.175019 113.161936 
L 478.417443 113.161936 
z
" clip-path="url(#p8e2f90046b)" style="fill: #1f77b4; stroke: #000000; stroke-linejoin: miter"/>
   </g>
   <g id="patch_109">
    <path d="M 482.175019 339.84 
L 485.932595 339.84 
L 485.932595 83.501997 
L 482.175019 83.501997 
z
" clip-path="url(#p8e2f90046b)" style="fill: #1f77b4; stroke: #000000; stroke-linejoin: miter"/>
   </g>
   <g id="patch_110">
    <path d="M 485.932595 339.84 
L 489.69017 339.84 
L 489.69017 105.486559 
L 485.932595 105.486559 
z
" clip-path="url(#p8e2f90046b)" style="fill: #1f77b4; stroke: #000000; stroke-linejoin: miter"/>
   </g>
   <g id="patch_111">
    <path d="M 489.69017 339.84 
L 493.447746 339.84 
L 493.447746 122.060353 
L 489.69017 122.060353 
z
" clip-path="url(#p8e2f90046b)" style="fill: #1f77b4; stroke: #000000; stroke-linejoin: miter"/>
   </g>
   <g id="patch_112">
    <path d="M 493.447746 339.84 
L 497.205322 339.84 
L 497.205322 137.591467 
L 493.447746 137.591467 
z
" clip-path="url(#p8e2f90046b)" style="fill: #1f77b4; stroke: #000000; stroke-linejoin: miter"/>
   </g>
   <g id="patch_113">
    <path d="M 497.205322 339.84 
L 500.962898 339.84 
L 500.962898 116.984516 
L 497.205322 116.984516 
z
" clip-path="url(#p8e2f90046b)" style="fill: #1f77b4; stroke: #000000; stroke-linejoin: miter"/>
   </g>
   <g id="patch_114">
    <path d="M 500.962898 339.84 
L 504.720473 339.84 
L 504.720473 101.764791 
L 500.962898 101.764791 
z
" clip-path="url(#p8e2f90046b)" style="fill: #1f77b4; stroke: #000000; stroke-linejoin: miter"/>
   </g>
   <g id="patch_115">
    <path d="M 504.720473 339.84 
L 508.478049 339.84 
L 508.478049 100.206001 
L 504.720473 100.206001 
z
" clip-path="url(#p8e2f90046b)" style="fill: #1f77b4; stroke: #000000; stroke-linejoin: miter"/>
   </g>
   <g id="patch_116">
    <path d="M 508.478049 339.84 
L 512.235625 339.84 
L 512.235625 124.557791 
L 508.478049 124.557791 
z
" clip-path="url(#p8e2f90046b)" style="fill: #1f77b4; stroke: #000000; stroke-linejoin: miter"/>
   </g>
   <g id="patch_117">
    <path d="M 512.235625 339.84 
L 515.993201 339.84 
L 515.993201 133.359032 
L 512.235625 133.359032 
z
" clip-path="url(#p8e2f90046b)" style="fill: #1f77b4; stroke: #000000; stroke-linejoin: miter"/>
   </g>
   <g id="patch_118">
    <path d="M 515.993201 339.84 
L 519.750777 339.84 
L 519.750777 123.863911 
L 515.993201 123.863911 
z
" clip-path="url(#p8e2f90046b)" style="fill: #1f77b4; stroke: #000000; stroke-linejoin: miter"/>
   </g>
   <g id="patch_119">
    <path d="M 519.750777 339.84 
L 523.508352 339.84 
L 523.508352 108.754858 
L 519.750777 108.754858 
z
" clip-path="url(#p8e2f90046b)" style="fill: #1f77b4; stroke: #000000; stroke-linejoin: miter"/>
   </g>
   <g id="patch_120">
    <path d="M 523.508352 339.84 
L 527.265928 339.84 
L 527.265928 109.332971 
L 523.508352 109.332971 
z
" clip-path="url(#p8e2f90046b)" style="fill: #1f77b4; stroke: #000000; stroke-linejoin: miter"/>
   </g>
   <g id="patch_121">
    <path d="M 527.265928 339.84 
L 531.023504 339.84 
L 531.023504 100.435131 
L 527.265928 100.435131 
z
" clip-path="url(#p8e2f90046b)" style="fill: #1f77b4; stroke: #000000; stroke-linejoin: miter"/>
   </g>
   <g id="patch_122">
    <path d="M 531.023504 339.84 
L 534.78108 339.84 
L 534.78108 107.093058 
L 531.023504 107.093058 
z
" clip-path="url(#p8e2f90046b)" style="fill: #1f77b4; stroke: #000000; stroke-linejoin: miter"/>
   </g>
   <g id="patch_123">
    <path d="M 534.78108 339.84 
L 538.538655 339.84 
L 538.538655 102.476088 
L 534.78108 102.476088 
z
" clip-path="url(#p8e2f90046b)" style="fill: #1f77b4; stroke: #000000; stroke-linejoin: miter"/>
   </g>
   <g id="patch_124">
    <path d="M 538.538655 339.84 
L 542.296231 339.84 
L 542.296231 85.483063 
L 538.538655 85.483063 
z
" clip-path="url(#p8e2f90046b)" style="fill: #1f77b4; stroke: #000000; stroke-linejoin: miter"/>
   </g>
   <g id="patch_125">
    <path d="M 542.296231 339.84 
L 546.053807 339.84 
L 546.053807 113.627232 
L 542.296231 113.627232 
z
" clip-path="url(#p8e2f90046b)" style="fill: #1f77b4; stroke: #000000; stroke-linejoin: miter"/>
   </g>
   <g id="patch_126">
    <path d="M 546.053807 339.84 
L 549.811383 339.84 
L 549.811383 136.616805 
L 546.053807 136.616805 
z
" clip-path="url(#p8e2f90046b)" style="fill: #1f77b4; stroke: #000000; stroke-linejoin: miter"/>
   </g>
   <g id="patch_127">
    <path d="M 549.811383 339.84 
L 553.568958 339.84 
L 553.568958 136.805082 
L 549.811383 136.805082 
z
" clip-path="url(#p8e2f90046b)" style="fill: #1f77b4; stroke: #000000; stroke-linejoin: miter"/>
   </g>
   <g id="patch_128">
    <path d="M 553.568958 339.84 
L 557.326534 339.84 
L 557.326534 134.850586 
L 553.568958 134.850586 
z
" clip-path="url(#p8e2f90046b)" style="fill: #1f77b4; stroke: #000000; stroke-linejoin: miter"/>
   </g>
   <g id="patch_129">
    <path d="M 557.326534 339.84 
L 561.08411 339.84 
L 561.08411 139.918414 
L 557.326534 139.918414 
z
" clip-path="url(#p8e2f90046b)" style="fill: #1f77b4; stroke: #000000; stroke-linejoin: miter"/>
   </g>
   <g id="patch_130">
    <path d="M 561.08411 339.84 
L 564.841686 339.84 
L 564.841686 133.233028 
L 561.08411 133.233028 
z
" clip-path="url(#p8e2f90046b)" style="fill: #1f77b4; stroke: #000000; stroke-linejoin: miter"/>
   </g>
   <g id="patch_131">
    <path d="M 564.841686 339.84 
L 568.599261 339.84 
L 568.599261 120.917602 
L 564.841686 120.917602 
z
" clip-path="url(#p8e2f90046b)" style="fill: #1f77b4; stroke: #000000; stroke-linejoin: miter"/>
   </g>
   <g id="patch_132">
    <path d="M 568.599261 339.84 
L 572.356837 339.84 
L 572.356837 130.200606 
L 568.599261 130.200606 
z
" clip-path="url(#p8e2f90046b)" style="fill: #1f77b4; stroke: #000000; stroke-linejoin: miter"/>
   </g>
   <g id="patch_133">
    <path d="M 572.356837 339.84 
L 576.114413 339.84 
L 576.114413 133.540409 
L 572.356837 133.540409 
z
" clip-path="url(#p8e2f90046b)" style="fill: #1f77b4; stroke: #000000; stroke-linejoin: miter"/>
   </g>
   <g id="patch_134">
    <path d="M 576.114413 339.84 
L 579.871989 339.84 
L 579.871989 118.365678 
L 576.114413 118.365678 
z
" clip-path="url(#p8e2f90046b)" style="fill: #1f77b4; stroke: #000000; stroke-linejoin: miter"/>
   </g>
   <g id="patch_135">
    <path d="M 579.871989 339.84 
L 583.629564 339.84 
L 583.629564 110.908854 
L 579.871989 110.908854 
z
" clip-path="url(#p8e2f90046b)" style="fill: #1f77b4; stroke: #000000; stroke-linejoin: miter"/>
   </g>
   <g id="patch_136">
    <path d="M 583.629564 339.84 
L 587.38714 339.84 
L 587.38714 92.095277 
L 583.629564 92.095277 
z
" clip-path="url(#p8e2f90046b)" style="fill: #1f77b4; stroke: #000000; stroke-linejoin: miter"/>
   </g>
   <g id="patch_137">
    <path d="M 587.38714 339.84 
L 591.144716 339.84 
L 591.144716 72.61688 
L 587.38714 72.61688 
z
" clip-path="url(#p8e2f90046b)" style="fill: #1f77b4; stroke: #000000; stroke-linejoin: miter"/>
   </g>
   <g id="patch_138">
    <path d="M 591.144716 339.84 
L 594.902292 339.84 
L 594.902292 86.033809 
L 591.144716 86.033809 
z
" clip-path="url(#p8e2f90046b)" style="fill: #1f77b4; stroke: #000000; stroke-linejoin: miter"/>
   </g>
   <g id="patch_139">
    <path d="M 594.902292 339.84 
L 598.659867 339.84 
L 598.659867 104.419299 
L 594.902292 104.419299 
z
" clip-path="url(#p8e2f90046b)" style="fill: #1f77b4; stroke: #000000; stroke-linejoin: miter"/>
   </g>
   <g id="patch_140">
    <path d="M 598.659867 339.84 
L 602.417443 339.84 
L 602.417443 94.621845 
L 598.659867 94.621845 
z
" clip-path="url(#p8e2f90046b)" style="fill: #1f77b4; stroke: #000000; stroke-linejoin: miter"/>
   </g>
   <g id="patch_141">
    <path d="M 602.417443 339.84 
L 606.175019 339.84 
L 606.175019 89.777171 
L 602.417443 89.777171 
z
" clip-path="url(#p8e2f90046b)" style="fill: #1f77b4; stroke: #000000; stroke-linejoin: miter"/>
   </g>
   <g id="patch_142">
    <path d="M 606.175019 339.84 
L 609.932595 339.84 
L 609.932595 107.962433 
L 606.175019 107.962433 
z
" clip-path="url(#p8e2f90046b)" style="fill: #1f77b4; stroke: #000000; stroke-linejoin: miter"/>
   </g>
   <g id="patch_143">
    <path d="M 609.932595 339.84 
L 613.69017 339.84 
L 613.69017 103.629951 
L 609.932595 103.629951 
z
" clip-path="url(#p8e2f90046b)" style="fill: #1f77b4; stroke: #000000; stroke-linejoin: miter"/>
   </g>
   <g id="patch_144">
    <path d="M 613.69017 339.84 
L 617.447746 339.84 
L 617.447746 111.704603 
L 613.69017 111.704603 
z
" clip-path="url(#p8e2f90046b)" style="fill: #1f77b4; stroke: #000000; stroke-linejoin: miter"/>
   </g>
   <g id="patch_145">
    <path d="M 617.447746 339.84 
L 621.205322 339.84 
L 621.205322 118.214641 
L 617.447746 118.214641 
z
" clip-path="url(#p8e2f90046b)" style="fill: #1f77b4; stroke: #000000; stroke-linejoin: miter"/>
   </g>
   <g id="patch_146">
    <path d="M 621.205322 339.84 
L 624.962898 339.84 
L 624.962898 118.616727 
L 621.205322 118.616727 
z
" clip-path="url(#p8e2f90046b)" style="fill: #1f77b4; stroke: #000000; stroke-linejoin: miter"/>
   </g>
   <g id="patch_147">
    <path d="M 624.962898 339.84 
L 628.720473 339.84 
L 628.720473 98.491127 
L 624.962898 98.491127 
z
" clip-path="url(#p8e2f90046b)" style="fill: #1f77b4; stroke: #000000; stroke-linejoin: miter"/>
   </g>
   <g id="patch_148">
    <path d="M 628.720473 339.84 
L 632.478049 339.84 
L 632.478049 136.63981 
L 628.720473 136.63981 
z
" clip-path="url(#p8e2f90046b)" style="fill: #1f77b4; stroke: #000000; stroke-linejoin: miter"/>
   </g>
   <g id="patch_149">
    <path d="M 632.478049 339.84 
L 636.235625 339.84 
L 636.235625 134.274449 
L 632.478049 134.274449 
z
" clip-path="url(#p8e2f90046b)" style="fill: #1f77b4; stroke: #000000; stroke-linejoin: miter"/>
   </g>
   <g id="patch_150">
    <path d="M 636.235625 339.84 
L 639.993201 339.84 
L 639.993201 85.546819 
L 636.235625 85.546819 
z
" clip-path="url(#p8e2f90046b)" style="fill: #1f77b4; stroke: #000000; stroke-linejoin: miter"/>
   </g>
   <g id="patch_151">
    <path d="M 639.993201 339.84 
L 643.750777 339.84 
L 643.750777 68.35066 
L 639.993201 68.35066 
z
" clip-path="url(#p8e2f90046b)" style="fill: #1f77b4; stroke: #000000; stroke-linejoin: miter"/>
   </g>
   <g id="patch_152">
    <path d="M 643.750777 339.84 
L 647.508352 339.84 
L 647.508352 66.777424 
L 643.750777 66.777424 
z
" clip-path="url(#p8e2f90046b)" style="fill: #1f77b4; stroke: #000000; stroke-linejoin: miter"/>
   </g>
   <g id="patch_153">
    <path d="M 647.508352 339.84 
L 651.265928 339.84 
L 651.265928 63.328984 
L 647.508352 63.328984 
z
" clip-path="url(#p8e2f90046b)" style="fill: #1f77b4; stroke: #000000; stroke-linejoin: miter"/>
   </g>
   <g id="patch_154">
    <path d="M 651.265928 339.84 
L 655.023504 339.84 
L 655.023504 60.282045 
L 651.265928 60.282045 
z
" clip-path="url(#p8e2f90046b)" style="fill: #1f77b4; stroke: #000000; stroke-linejoin: miter"/>
   </g>
   <g id="patch_155">
    <path d="M 655.023504 339.84 
L 658.78108 339.84 
L 658.78108 73.373642 
L 655.023504 73.373642 
z
" clip-path="url(#p8e2f90046b)" style="fill: #1f77b4; stroke: #000000; stroke-linejoin: miter"/>
   </g>
   <g id="patch_156">
    <path d="M 658.78108 339.84 
L 662.538655 339.84 
L 662.538655 109.337084 
L 658.78108 109.337084 
z
" clip-path="url(#p8e2f90046b)" style="fill: #1f77b4; stroke: #000000; stroke-linejoin: miter"/>
   </g>
   <g id="patch_157">
    <path d="M 662.538655 339.84 
L 666.296231 339.84 
L 666.296231 88.984526 
L 662.538655 88.984526 
z
" clip-path="url(#p8e2f90046b)" style="fill: #1f77b4; stroke: #000000; stroke-linejoin: miter"/>
   </g>
   <g id="patch_158">
    <path d="M 666.296231 339.84 
L 670.053807 339.84 
L 670.053807 96.67302 
L 666.296231 96.67302 
z
" clip-path="url(#p8e2f90046b)" style="fill: #1f77b4; stroke: #000000; stroke-linejoin: miter"/>
   </g>
   <g id="patch_159">
    <path d="M 670.053807 339.84 
L 673.811383 339.84 
L 673.811383 126.116695 
L 670.053807 126.116695 
z
" clip-path="url(#p8e2f90046b)" style="fill: #1f77b4; stroke: #000000; stroke-linejoin: miter"/>
   </g>
   <g id="patch_160">
    <path d="M 673.811383 339.84 
L 677.568958 339.84 
L 677.568958 95.615681 
L 673.811383 95.615681 
z
" clip-path="url(#p8e2f90046b)" style="fill: #1f77b4; stroke: #000000; stroke-linejoin: miter"/>
   </g>
   <g id="patch_161">
    <path d="M 677.568958 339.84 
L 681.326534 339.84 
L 681.326534 92.965453 
L 677.568958 92.965453 
z
" clip-path="url(#p8e2f90046b)" style="fill: #1f77b4; stroke: #000000; stroke-linejoin: miter"/>
   </g>
   <g id="patch_162">
    <path d="M 681.326534 339.84 
L 685.08411 339.84 
L 685.08411 78.195404 
L 681.326534 78.195404 
z
" clip-path="url(#p8e2f90046b)" style="fill: #1f77b4; stroke: #000000; stroke-linejoin: miter"/>
   </g>
   <g id="patch_163">
    <path d="M 685.08411 339.84 
L 688.841686 339.84 
L 688.841686 138.412973 
L 685.08411 138.412973 
z
" clip-path="url(#p8e2f90046b)" style="fill: #1f77b4; stroke: #000000; stroke-linejoin: miter"/>
   </g>
   <g id="patch_164">
    <path d="M 688.841686 339.84 
L 692.599261 339.84 
L 692.599261 339.84 
L 688.841686 339.84 
z
" clip-path="url(#p8e2f90046b)" style="fill: #1f77b4; stroke: #000000; stroke-linejoin: miter"/>
   </g>
   <g id="matplotlib.axis_1">
    <g id="xtick_1">
     <g id="line2d_1">
      <defs>
       <path id="me9e684d8e8" d="M 0 0 
L 0 3.5 
" style="stroke: #000000; stroke-width: 0.8"/>
      </defs>
      <g>
       <use xlink:href="#me9e684d8e8" x="81.993201" y="339.84" style="stroke: #000000; stroke-width: 0.8"/>
      </g>
     </g>
     <g id="text_1">
      <!-- 0.0 -->
      <g transform="translate(70.861013 357.477813) scale(0.14 -0.14)">
       <defs>
        <path id="DejaVuSans-30" d="M 2034 4250 
Q 1547 4250 1301 3770 
Q 1056 3291 1056 2328 
Q 1056 1369 1301 889 
Q 1547 409 2034 409 
Q 2525 409 2770 889 
Q 3016 1369 3016 2328 
Q 3016 3291 2770 3770 
Q 2525 4250 2034 4250 
z
M 2034 4750 
Q 2819 4750 3233 4129 
Q 3647 3509 3647 2328 
Q 3647 1150 3233 529 
Q 2819 -91 2034 -91 
Q 1250 -91 836 529 
Q 422 1150 422 2328 
Q 422 3509 836 4129 
Q 1250 4750 2034 4750 
z
" transform="scale(0.015625)"/>
        <path id="DejaVuSans-2e" d="M 684 794 
L 1344 794 
L 1344 0 
L 684 0 
L 684 794 
z
" transform="scale(0.015625)"/>
       </defs>
       <use xlink:href="#DejaVuSans-30"/>
       <use xlink:href="#DejaVuSans-2e" x="63.623047"/>
       <use xlink:href="#DejaVuSans-30" x="95.410156"/>
      </g>
     </g>
    </g>
    <g id="xtick_2">
     <g id="line2d_2">
      <g>
       <use xlink:href="#me9e684d8e8" x="157.144716" y="339.84" style="stroke: #000000; stroke-width: 0.8"/>
      </g>
     </g>
     <g id="text_2">
      <!-- 0.2 -->
      <g transform="translate(146.012528 357.477813) scale(0.14 -0.14)">
       <defs>
        <path id="DejaVuSans-32" d="M 1228 531 
L 3431 531 
L 3431 0 
L 469 0 
L 469 531 
Q 828 903 1448 1529 
Q 2069 2156 2228 2338 
Q 2531 2678 2651 2914 
Q 2772 3150 2772 3378 
Q 2772 3750 2511 3984 
Q 2250 4219 1831 4219 
Q 1534 4219 1204 4116 
Q 875 4013 500 3803 
L 500 4441 
Q 881 4594 1212 4672 
Q 1544 4750 1819 4750 
Q 2544 4750 2975 4387 
Q 3406 4025 3406 3419 
Q 3406 3131 3298 2873 
Q 3191 2616 2906 2266 
Q 2828 2175 2409 1742 
Q 1991 1309 1228 531 
z
" transform="scale(0.015625)"/>
       </defs>
       <use xlink:href="#DejaVuSans-30"/>
       <use xlink:href="#DejaVuSans-2e" x="63.623047"/>
       <use xlink:href="#DejaVuSans-32" x="95.410156"/>
      </g>
     </g>
    </g>
    <g id="xtick_3">
     <g id="line2d_3">
      <g>
       <use xlink:href="#me9e684d8e8" x="232.296231" y="339.84" style="stroke: #000000; stroke-width: 0.8"/>
      </g>
     </g>
     <g id="text_3">
      <!-- 0.4 -->
      <g transform="translate(221.164044 357.477813) scale(0.14 -0.14)">
       <defs>
        <path id="DejaVuSans-34" d="M 2419 4116 
L 825 1625 
L 2419 1625 
L 2419 4116 
z
M 2253 4666 
L 3047 4666 
L 3047 1625 
L 3713 1625 
L 3713 1100 
L 3047 1100 
L 3047 0 
L 2419 0 
L 2419 1100 
L 313 1100 
L 313 1709 
L 2253 4666 
z
" transform="scale(0.015625)"/>
       </defs>
       <use xlink:href="#DejaVuSans-30"/>
       <use xlink:href="#DejaVuSans-2e" x="63.623047"/>
       <use xlink:href="#DejaVuSans-34" x="95.410156"/>
      </g>
     </g>
    </g>
    <g id="xtick_4">
     <g id="line2d_4">
      <g>
       <use xlink:href="#me9e684d8e8" x="307.447746" y="339.84" style="stroke: #000000; stroke-width: 0.8"/>
      </g>
     </g>
     <g id="text_4">
      <!-- 0.6 -->
      <g transform="translate(296.315559 357.477813) scale(0.14 -0.14)">
       <defs>
        <path id="DejaVuSans-36" d="M 2113 2584 
Q 1688 2584 1439 2293 
Q 1191 2003 1191 1497 
Q 1191 994 1439 701 
Q 1688 409 2113 409 
Q 2538 409 2786 701 
Q 3034 994 3034 1497 
Q 3034 2003 2786 2293 
Q 2538 2584 2113 2584 
z
M 3366 4563 
L 3366 3988 
Q 3128 4100 2886 4159 
Q 2644 4219 2406 4219 
Q 1781 4219 1451 3797 
Q 1122 3375 1075 2522 
Q 1259 2794 1537 2939 
Q 1816 3084 2150 3084 
Q 2853 3084 3261 2657 
Q 3669 2231 3669 1497 
Q 3669 778 3244 343 
Q 2819 -91 2113 -91 
Q 1303 -91 875 529 
Q 447 1150 447 2328 
Q 447 3434 972 4092 
Q 1497 4750 2381 4750 
Q 2619 4750 2861 4703 
Q 3103 4656 3366 4563 
z
" transform="scale(0.015625)"/>
       </defs>
       <use xlink:href="#DejaVuSans-30"/>
       <use xlink:href="#DejaVuSans-2e" x="63.623047"/>
       <use xlink:href="#DejaVuSans-36" x="95.410156"/>
      </g>
     </g>
    </g>
    <g id="xtick_5">
     <g id="line2d_5">
      <g>
       <use xlink:href="#me9e684d8e8" x="382.599261" y="339.84" style="stroke: #000000; stroke-width: 0.8"/>
      </g>
     </g>
     <g id="text_5">
      <!-- 0.8 -->
      <g transform="translate(371.467074 357.477813) scale(0.14 -0.14)">
       <defs>
        <path id="DejaVuSans-38" d="M 2034 2216 
Q 1584 2216 1326 1975 
Q 1069 1734 1069 1313 
Q 1069 891 1326 650 
Q 1584 409 2034 409 
Q 2484 409 2743 651 
Q 3003 894 3003 1313 
Q 3003 1734 2745 1975 
Q 2488 2216 2034 2216 
z
M 1403 2484 
Q 997 2584 770 2862 
Q 544 3141 544 3541 
Q 544 4100 942 4425 
Q 1341 4750 2034 4750 
Q 2731 4750 3128 4425 
Q 3525 4100 3525 3541 
Q 3525 3141 3298 2862 
Q 3072 2584 2669 2484 
Q 3125 2378 3379 2068 
Q 3634 1759 3634 1313 
Q 3634 634 3220 271 
Q 2806 -91 2034 -91 
Q 1263 -91 848 271 
Q 434 634 434 1313 
Q 434 1759 690 2068 
Q 947 2378 1403 2484 
z
M 1172 3481 
Q 1172 3119 1398 2916 
Q 1625 2713 2034 2713 
Q 2441 2713 2670 2916 
Q 2900 3119 2900 3481 
Q 2900 3844 2670 4047 
Q 2441 4250 2034 4250 
Q 1625 4250 1398 4047 
Q 1172 3844 1172 3481 
z
" transform="scale(0.015625)"/>
       </defs>
       <use xlink:href="#DejaVuSans-30"/>
       <use xlink:href="#DejaVuSans-2e" x="63.623047"/>
       <use xlink:href="#DejaVuSans-38" x="95.410156"/>
      </g>
     </g>
    </g>
    <g id="xtick_6">
     <g id="line2d_6">
      <g>
       <use xlink:href="#me9e684d8e8" x="457.750777" y="339.84" style="stroke: #000000; stroke-width: 0.8"/>
      </g>
     </g>
     <g id="text_6">
      <!-- 1.0 -->
      <g transform="translate(446.618589 357.477813) scale(0.14 -0.14)">
       <defs>
        <path id="DejaVuSans-31" d="M 794 531 
L 1825 531 
L 1825 4091 
L 703 3866 
L 703 4441 
L 1819 4666 
L 2450 4666 
L 2450 531 
L 3481 531 
L 3481 0 
L 794 0 
L 794 531 
z
" transform="scale(0.015625)"/>
       </defs>
       <use xlink:href="#DejaVuSans-31"/>
       <use xlink:href="#DejaVuSans-2e" x="63.623047"/>
       <use xlink:href="#DejaVuSans-30" x="95.410156"/>
      </g>
     </g>
    </g>
    <g id="xtick_7">
     <g id="line2d_7">
      <g>
       <use xlink:href="#me9e684d8e8" x="532.902292" y="339.84" style="stroke: #000000; stroke-width: 0.8"/>
      </g>
     </g>
     <g id="text_7">
      <!-- 1.2 -->
      <g transform="translate(521.770104 357.477813) scale(0.14 -0.14)">
       <use xlink:href="#DejaVuSans-31"/>
       <use xlink:href="#DejaVuSans-2e" x="63.623047"/>
       <use xlink:href="#DejaVuSans-32" x="95.410156"/>
      </g>
     </g>
    </g>
    <g id="xtick_8">
     <g id="line2d_8">
      <g>
       <use xlink:href="#me9e684d8e8" x="608.053807" y="339.84" style="stroke: #000000; stroke-width: 0.8"/>
      </g>
     </g>
     <g id="text_8">
      <!-- 1.4 -->
      <g transform="translate(596.921619 357.477813) scale(0.14 -0.14)">
       <use xlink:href="#DejaVuSans-31"/>
       <use xlink:href="#DejaVuSans-2e" x="63.623047"/>
       <use xlink:href="#DejaVuSans-34" x="95.410156"/>
      </g>
     </g>
    </g>
    <g id="xtick_9">
     <g id="line2d_9">
      <g>
       <use xlink:href="#me9e684d8e8" x="683.205322" y="339.84" style="stroke: #000000; stroke-width: 0.8"/>
      </g>
     </g>
     <g id="text_9">
      <!-- 1.6 -->
      <g transform="translate(672.073134 357.477813) scale(0.14 -0.14)">
       <use xlink:href="#DejaVuSans-31"/>
       <use xlink:href="#DejaVuSans-2e" x="63.623047"/>
       <use xlink:href="#DejaVuSans-36" x="95.410156"/>
      </g>
     </g>
    </g>
    <g id="text_10">
     <!-- Chromosome Positions -->
     <g transform="translate(285.885938 378.066563) scale(0.18 -0.18)">
      <defs>
       <path id="DejaVuSans-43" d="M 4122 4306 
L 4122 3641 
Q 3803 3938 3442 4084 
Q 3081 4231 2675 4231 
Q 1875 4231 1450 3742 
Q 1025 3253 1025 2328 
Q 1025 1406 1450 917 
Q 1875 428 2675 428 
Q 3081 428 3442 575 
Q 3803 722 4122 1019 
L 4122 359 
Q 3791 134 3420 21 
Q 3050 -91 2638 -91 
Q 1578 -91 968 557 
Q 359 1206 359 2328 
Q 359 3453 968 4101 
Q 1578 4750 2638 4750 
Q 3056 4750 3426 4639 
Q 3797 4528 4122 4306 
z
" transform="scale(0.015625)"/>
       <path id="DejaVuSans-68" d="M 3513 2113 
L 3513 0 
L 2938 0 
L 2938 2094 
Q 2938 2591 2744 2837 
Q 2550 3084 2163 3084 
Q 1697 3084 1428 2787 
Q 1159 2491 1159 1978 
L 1159 0 
L 581 0 
L 581 4863 
L 1159 4863 
L 1159 2956 
Q 1366 3272 1645 3428 
Q 1925 3584 2291 3584 
Q 2894 3584 3203 3211 
Q 3513 2838 3513 2113 
z
" transform="scale(0.015625)"/>
       <path id="DejaVuSans-72" d="M 2631 2963 
Q 2534 3019 2420 3045 
Q 2306 3072 2169 3072 
Q 1681 3072 1420 2755 
Q 1159 2438 1159 1844 
L 1159 0 
L 581 0 
L 581 3500 
L 1159 3500 
L 1159 2956 
Q 1341 3275 1631 3429 
Q 1922 3584 2338 3584 
Q 2397 3584 2469 3576 
Q 2541 3569 2628 3553 
L 2631 2963 
z
" transform="scale(0.015625)"/>
       <path id="DejaVuSans-6f" d="M 1959 3097 
Q 1497 3097 1228 2736 
Q 959 2375 959 1747 
Q 959 1119 1226 758 
Q 1494 397 1959 397 
Q 2419 397 2687 759 
Q 2956 1122 2956 1747 
Q 2956 2369 2687 2733 
Q 2419 3097 1959 3097 
z
M 1959 3584 
Q 2709 3584 3137 3096 
Q 3566 2609 3566 1747 
Q 3566 888 3137 398 
Q 2709 -91 1959 -91 
Q 1206 -91 779 398 
Q 353 888 353 1747 
Q 353 2609 779 3096 
Q 1206 3584 1959 3584 
z
" transform="scale(0.015625)"/>
       <path id="DejaVuSans-6d" d="M 3328 2828 
Q 3544 3216 3844 3400 
Q 4144 3584 4550 3584 
Q 5097 3584 5394 3201 
Q 5691 2819 5691 2113 
L 5691 0 
L 5113 0 
L 5113 2094 
Q 5113 2597 4934 2840 
Q 4756 3084 4391 3084 
Q 3944 3084 3684 2787 
Q 3425 2491 3425 1978 
L 3425 0 
L 2847 0 
L 2847 2094 
Q 2847 2600 2669 2842 
Q 2491 3084 2119 3084 
Q 1678 3084 1418 2786 
Q 1159 2488 1159 1978 
L 1159 0 
L 581 0 
L 581 3500 
L 1159 3500 
L 1159 2956 
Q 1356 3278 1631 3431 
Q 1906 3584 2284 3584 
Q 2666 3584 2933 3390 
Q 3200 3197 3328 2828 
z
" transform="scale(0.015625)"/>
       <path id="DejaVuSans-73" d="M 2834 3397 
L 2834 2853 
Q 2591 2978 2328 3040 
Q 2066 3103 1784 3103 
Q 1356 3103 1142 2972 
Q 928 2841 928 2578 
Q 928 2378 1081 2264 
Q 1234 2150 1697 2047 
L 1894 2003 
Q 2506 1872 2764 1633 
Q 3022 1394 3022 966 
Q 3022 478 2636 193 
Q 2250 -91 1575 -91 
Q 1294 -91 989 -36 
Q 684 19 347 128 
L 347 722 
Q 666 556 975 473 
Q 1284 391 1588 391 
Q 1994 391 2212 530 
Q 2431 669 2431 922 
Q 2431 1156 2273 1281 
Q 2116 1406 1581 1522 
L 1381 1569 
Q 847 1681 609 1914 
Q 372 2147 372 2553 
Q 372 3047 722 3315 
Q 1072 3584 1716 3584 
Q 2034 3584 2315 3537 
Q 2597 3491 2834 3397 
z
" transform="scale(0.015625)"/>
       <path id="DejaVuSans-65" d="M 3597 1894 
L 3597 1613 
L 953 1613 
Q 991 1019 1311 708 
Q 1631 397 2203 397 
Q 2534 397 2845 478 
Q 3156 559 3463 722 
L 3463 178 
Q 3153 47 2828 -22 
Q 2503 -91 2169 -91 
Q 1331 -91 842 396 
Q 353 884 353 1716 
Q 353 2575 817 3079 
Q 1281 3584 2069 3584 
Q 2775 3584 3186 3129 
Q 3597 2675 3597 1894 
z
M 3022 2063 
Q 3016 2534 2758 2815 
Q 2500 3097 2075 3097 
Q 1594 3097 1305 2825 
Q 1016 2553 972 2059 
L 3022 2063 
z
" transform="scale(0.015625)"/>
       <path id="DejaVuSans-20" transform="scale(0.015625)"/>
       <path id="DejaVuSans-50" d="M 1259 4147 
L 1259 2394 
L 2053 2394 
Q 2494 2394 2734 2622 
Q 2975 2850 2975 3272 
Q 2975 3691 2734 3919 
Q 2494 4147 2053 4147 
L 1259 4147 
z
M 628 4666 
L 2053 4666 
Q 2838 4666 3239 4311 
Q 3641 3956 3641 3272 
Q 3641 2581 3239 2228 
Q 2838 1875 2053 1875 
L 1259 1875 
L 1259 0 
L 628 0 
L 628 4666 
z
" transform="scale(0.015625)"/>
       <path id="DejaVuSans-69" d="M 603 3500 
L 1178 3500 
L 1178 0 
L 603 0 
L 603 3500 
z
M 603 4863 
L 1178 4863 
L 1178 4134 
L 603 4134 
L 603 4863 
z
" transform="scale(0.015625)"/>
       <path id="DejaVuSans-74" d="M 1172 4494 
L 1172 3500 
L 2356 3500 
L 2356 3053 
L 1172 3053 
L 1172 1153 
Q 1172 725 1289 603 
Q 1406 481 1766 481 
L 2356 481 
L 2356 0 
L 1766 0 
Q 1100 0 847 248 
Q 594 497 594 1153 
L 594 3053 
L 172 3053 
L 172 3500 
L 594 3500 
L 594 4494 
L 1172 4494 
z
" transform="scale(0.015625)"/>
       <path id="DejaVuSans-6e" d="M 3513 2113 
L 3513 0 
L 2938 0 
L 2938 2094 
Q 2938 2591 2744 2837 
Q 2550 3084 2163 3084 
Q 1697 3084 1428 2787 
Q 1159 2491 1159 1978 
L 1159 0 
L 581 0 
L 581 3500 
L 1159 3500 
L 1159 2956 
Q 1366 3272 1645 3428 
Q 1925 3584 2291 3584 
Q 2894 3584 3203 3211 
Q 3513 2838 3513 2113 
z
" transform="scale(0.015625)"/>
      </defs>
      <use xlink:href="#DejaVuSans-43"/>
      <use xlink:href="#DejaVuSans-68" x="69.824219"/>
      <use xlink:href="#DejaVuSans-72" x="133.203125"/>
      <use xlink:href="#DejaVuSans-6f" x="172.066406"/>
      <use xlink:href="#DejaVuSans-6d" x="233.248047"/>
      <use xlink:href="#DejaVuSans-6f" x="330.660156"/>
      <use xlink:href="#DejaVuSans-73" x="391.841797"/>
      <use xlink:href="#DejaVuSans-6f" x="443.941406"/>
      <use xlink:href="#DejaVuSans-6d" x="505.123047"/>
      <use xlink:href="#DejaVuSans-65" x="602.535156"/>
      <use xlink:href="#DejaVuSans-20" x="664.058594"/>
      <use xlink:href="#DejaVuSans-50" x="695.845703"/>
      <use xlink:href="#DejaVuSans-6f" x="752.523438"/>
      <use xlink:href="#DejaVuSans-73" x="813.705078"/>
      <use xlink:href="#DejaVuSans-69" x="865.804688"/>
      <use xlink:href="#DejaVuSans-74" x="893.587891"/>
      <use xlink:href="#DejaVuSans-69" x="932.796875"/>
      <use xlink:href="#DejaVuSans-6f" x="960.580078"/>
      <use xlink:href="#DejaVuSans-6e" x="1021.761719"/>
      <use xlink:href="#DejaVuSans-73" x="1085.140625"/>
     </g>
    </g>
    <g id="text_11">
     <!-- 1e6 -->
     <g transform="translate(704.1575 370.987813) scale(0.1 -0.1)">
      <use xlink:href="#DejaVuSans-31"/>
      <use xlink:href="#DejaVuSans-65" x="63.623047"/>
      <use xlink:href="#DejaVuSans-36" x="125.146484"/>
     </g>
    </g>
   </g>
   <g id="matplotlib.axis_2">
    <g id="ytick_1">
     <g id="line2d_10">
      <defs>
       <path id="md10badfa01" d="M 0 0 
L -3.5 0 
" style="stroke: #000000; stroke-width: 0.8"/>
      </defs>
      <g>
       <use xlink:href="#md10badfa01" x="53.435625" y="339.84" style="stroke: #000000; stroke-width: 0.8"/>
      </g>
     </g>
     <g id="text_12">
      <!-- 0 -->
      <g transform="translate(37.528125 345.158906) scale(0.14 -0.14)">
       <use xlink:href="#DejaVuSans-30"/>
      </g>
     </g>
    </g>
    <g id="ytick_2">
     <g id="line2d_11">
      <g>
       <use xlink:href="#md10badfa01" x="53.435625" y="270.703604" style="stroke: #000000; stroke-width: 0.8"/>
      </g>
     </g>
     <g id="text_13">
      <!-- 20 -->
      <g transform="translate(28.620625 276.02251) scale(0.14 -0.14)">
       <use xlink:href="#DejaVuSans-32"/>
       <use xlink:href="#DejaVuSans-30" x="63.623047"/>
      </g>
     </g>
    </g>
    <g id="ytick_3">
     <g id="line2d_12">
      <g>
       <use xlink:href="#md10badfa01" x="53.435625" y="201.567208" style="stroke: #000000; stroke-width: 0.8"/>
      </g>
     </g>
     <g id="text_14">
      <!-- 40 -->
      <g transform="translate(28.620625 206.886114) scale(0.14 -0.14)">
       <use xlink:href="#DejaVuSans-34"/>
       <use xlink:href="#DejaVuSans-30" x="63.623047"/>
      </g>
     </g>
    </g>
    <g id="ytick_4">
     <g id="line2d_13">
      <g>
       <use xlink:href="#md10badfa01" x="53.435625" y="132.430812" style="stroke: #000000; stroke-width: 0.8"/>
      </g>
     </g>
     <g id="text_15">
      <!-- 60 -->
      <g transform="translate(28.620625 137.749718) scale(0.14 -0.14)">
       <use xlink:href="#DejaVuSans-36"/>
       <use xlink:href="#DejaVuSans-30" x="63.623047"/>
      </g>
     </g>
    </g>
    <g id="ytick_5">
     <g id="line2d_14">
      <g>
       <use xlink:href="#md10badfa01" x="53.435625" y="63.294416" style="stroke: #000000; stroke-width: 0.8"/>
      </g>
     </g>
     <g id="text_16">
      <!-- 80 -->
      <g transform="translate(28.620625 68.613322) scale(0.14 -0.14)">
       <use xlink:href="#DejaVuSans-38"/>
       <use xlink:href="#DejaVuSans-30" x="63.623047"/>
      </g>
     </g>
    </g>
    <g id="text_17">
     <!-- Coverage -->
     <g transform="translate(20.877187 216.642656) rotate(-90) scale(0.18 -0.18)">
      <defs>
       <path id="DejaVuSans-76" d="M 191 3500 
L 800 3500 
L 1894 563 
L 2988 3500 
L 3597 3500 
L 2284 0 
L 1503 0 
L 191 3500 
z
" transform="scale(0.015625)"/>
       <path id="DejaVuSans-61" d="M 2194 1759 
Q 1497 1759 1228 1600 
Q 959 1441 959 1056 
Q 959 750 1161 570 
Q 1363 391 1709 391 
Q 2188 391 2477 730 
Q 2766 1069 2766 1631 
L 2766 1759 
L 2194 1759 
z
M 3341 1997 
L 3341 0 
L 2766 0 
L 2766 531 
Q 2569 213 2275 61 
Q 1981 -91 1556 -91 
Q 1019 -91 701 211 
Q 384 513 384 1019 
Q 384 1609 779 1909 
Q 1175 2209 1959 2209 
L 2766 2209 
L 2766 2266 
Q 2766 2663 2505 2880 
Q 2244 3097 1772 3097 
Q 1472 3097 1187 3025 
Q 903 2953 641 2809 
L 641 3341 
Q 956 3463 1253 3523 
Q 1550 3584 1831 3584 
Q 2591 3584 2966 3190 
Q 3341 2797 3341 1997 
z
" transform="scale(0.015625)"/>
       <path id="DejaVuSans-67" d="M 2906 1791 
Q 2906 2416 2648 2759 
Q 2391 3103 1925 3103 
Q 1463 3103 1205 2759 
Q 947 2416 947 1791 
Q 947 1169 1205 825 
Q 1463 481 1925 481 
Q 2391 481 2648 825 
Q 2906 1169 2906 1791 
z
M 3481 434 
Q 3481 -459 3084 -895 
Q 2688 -1331 1869 -1331 
Q 1566 -1331 1297 -1286 
Q 1028 -1241 775 -1147 
L 775 -588 
Q 1028 -725 1275 -790 
Q 1522 -856 1778 -856 
Q 2344 -856 2625 -561 
Q 2906 -266 2906 331 
L 2906 616 
Q 2728 306 2450 153 
Q 2172 0 1784 0 
Q 1141 0 747 490 
Q 353 981 353 1791 
Q 353 2603 747 3093 
Q 1141 3584 1784 3584 
Q 2172 3584 2450 3431 
Q 2728 3278 2906 2969 
L 2906 3500 
L 3481 3500 
L 3481 434 
z
" transform="scale(0.015625)"/>
      </defs>
      <use xlink:href="#DejaVuSans-43"/>
      <use xlink:href="#DejaVuSans-6f" x="69.824219"/>
      <use xlink:href="#DejaVuSans-76" x="131.005859"/>
      <use xlink:href="#DejaVuSans-65" x="190.185547"/>
      <use xlink:href="#DejaVuSans-72" x="251.708984"/>
      <use xlink:href="#DejaVuSans-61" x="292.822266"/>
      <use xlink:href="#DejaVuSans-67" x="354.101562"/>
      <use xlink:href="#DejaVuSans-65" x="417.578125"/>
     </g>
    </g>
   </g>
   <g id="patch_165">
    <path d="M 53.435625 339.84 
L 53.435625 7.2 
" style="fill: none; stroke: #000000; stroke-width: 0.8; stroke-linejoin: miter; stroke-linecap: square"/>
   </g>
   <g id="patch_166">
    <path d="M 723.035625 339.84 
L 723.035625 7.2 
" style="fill: none; stroke: #000000; stroke-width: 0.8; stroke-linejoin: miter; stroke-linecap: square"/>
   </g>
   <g id="patch_167">
    <path d="M 53.435625 339.84 
L 723.035625 339.84 
" style="fill: none; stroke: #000000; stroke-width: 0.8; stroke-linejoin: miter; stroke-linecap: square"/>
   </g>
   <g id="patch_168">
    <path d="M 53.435625 7.2 
L 723.035625 7.2 
" style="fill: none; stroke: #000000; stroke-width: 0.8; stroke-linejoin: miter; stroke-linecap: square"/>
   </g>
  </g>
 </g>
 <defs>
  <clipPath id="p8e2f90046b">
   <rect x="53.435625" y="7.2" width="669.6" height="332.64"/>
  </clipPath>
 </defs>
</svg>
