<?xml version="1.0" encoding="utf-8" standalone="no"?>
<!DOCTYPE svg PUBLIC "-//W3C//DTD SVG 1.1//EN"
  "http://www.w3.org/Graphics/SVG/1.1/DTD/svg11.dtd">
<svg xmlns:xlink="http://www.w3.org/1999/xlink" width="730.235625pt" height="389.01pt" viewBox="0 0 730.235625 389.01" xmlns="http://www.w3.org/2000/svg" version="1.1">
 <metadata>
  <rdf:RDF xmlns:dc="http://purl.org/dc/elements/1.1/" xmlns:cc="http://creativecommons.org/ns#" xmlns:rdf="http://www.w3.org/1999/02/22-rdf-syntax-ns#">
   <cc:Work>
    <dc:type rdf:resource="http://purl.org/dc/dcmitype/StillImage"/>
    <dc:date>2025-06-24T15:50:58.725463</dc:date>
    <dc:format>image/svg+xml</dc:format>
    <dc:creator>
     <cc:Agent>
      <dc:title>Matplotlib v3.7.3, https://matplotlib.org/</dc:title>
     </cc:Agent>
    </dc:creator>
   </cc:Work>
  </rdf:RDF>
 </metadata>
 <defs>
  <style type="text/css">*{stroke-linejoin: round; stroke-linecap: butt}</style>
 </defs>
 <g id="figure_1">
  <g id="patch_1">
   <path d="M 0 389.01 
L 730.235625 389.01 
L 730.235625 0 
L 0 0 
z
" style="fill: #ffffff"/>
  </g>
  <g id="axes_1">
   <g id="patch_2">
    <path d="M 53.435625 339.84 
L 723.035625 339.84 
L 723.035625 7.2 
L 53.435625 7.2 
z
" style="fill: #ffffff"/>
   </g>
   <g id="patch_3">
    <path d="M 83.871989 339.84 
L 89.030694 339.84 
L 89.030694 194.310567 
L 83.871989 194.310567 
z
" clip-path="url(#p6625d3cfa8)" style="fill: #1f77b4; stroke: #000000; stroke-linejoin: miter"/>
   </g>
   <g id="patch_4">
    <path d="M 89.030694 339.84 
L 94.1894 339.84 
L 94.1894 190.04198 
L 89.030694 190.04198 
z
" clip-path="url(#p6625d3cfa8)" style="fill: #1f77b4; stroke: #000000; stroke-linejoin: miter"/>
   </g>
   <g id="patch_5">
    <path d="M 94.1894 339.84 
L 99.348106 339.84 
L 99.348106 84.220198 
L 94.1894 84.220198 
z
" clip-path="url(#p6625d3cfa8)" style="fill: #1f77b4; stroke: #000000; stroke-linejoin: miter"/>
   </g>
   <g id="patch_6">
    <path d="M 99.348106 339.84 
L 104.506811 339.84 
L 104.506811 23.04 
L 99.348106 23.04 
z
" clip-path="url(#p6625d3cfa8)" style="fill: #1f77b4; stroke: #000000; stroke-linejoin: miter"/>
   </g>
   <g id="patch_7">
    <path d="M 104.506811 339.84 
L 109.665517 339.84 
L 109.665517 75.849505 
L 104.506811 75.849505 
z
" clip-path="url(#p6625d3cfa8)" style="fill: #1f77b4; stroke: #000000; stroke-linejoin: miter"/>
   </g>
   <g id="patch_8">
    <path d="M 109.665517 339.84 
L 114.824223 339.84 
L 114.824223 131.506108 
L 109.665517 131.506108 
z
" clip-path="url(#p6625d3cfa8)" style="fill: #1f77b4; stroke: #000000; stroke-linejoin: miter"/>
   </g>
   <g id="patch_9">
    <path d="M 114.824223 339.84 
L 119.982929 339.84 
L 119.982929 232.053861 
L 114.824223 232.053861 
z
" clip-path="url(#p6625d3cfa8)" style="fill: #1f77b4; stroke: #000000; stroke-linejoin: miter"/>
   </g>
   <g id="patch_10">
    <path d="M 119.982929 339.84 
L 125.141634 339.84 
L 125.141634 104.164752 
L 119.982929 104.164752 
z
" clip-path="url(#p6625d3cfa8)" style="fill: #1f77b4; stroke: #000000; stroke-linejoin: miter"/>
   </g>
   <g id="patch_11">
    <path d="M 125.141634 339.84 
L 130.30034 339.84 
L 130.30034 97.626704 
L 125.141634 97.626704 
z
" clip-path="url(#p6625d3cfa8)" style="fill: #1f77b4; stroke: #000000; stroke-linejoin: miter"/>
   </g>
   <g id="patch_12">
    <path d="M 130.30034 339.84 
L 135.459046 339.84 
L 135.459046 153.597284 
L 130.30034 153.597284 
z
" clip-path="url(#p6625d3cfa8)" style="fill: #1f77b4; stroke: #000000; stroke-linejoin: miter"/>
   </g>
   <g id="patch_13">
    <path d="M 135.459046 339.84 
L 140.617751 339.84 
L 140.617751 152.022178 
L 135.459046 152.022178 
z
" clip-path="url(#p6625d3cfa8)" style="fill: #1f77b4; stroke: #000000; stroke-linejoin: miter"/>
   </g>
   <g id="patch_14">
    <path d="M 140.617751 339.84 
L 145.776457 339.84 
L 145.776457 149.686676 
L 140.617751 149.686676 
z
" clip-path="url(#p6625d3cfa8)" style="fill: #1f77b4; stroke: #000000; stroke-linejoin: miter"/>
   </g>
   <g id="patch_15">
    <path d="M 145.776457 339.84 
L 150.935163 339.84 
L 150.935163 133.677624 
L 145.776457 133.677624 
z
" clip-path="url(#p6625d3cfa8)" style="fill: #1f77b4; stroke: #000000; stroke-linejoin: miter"/>
   </g>
   <g id="patch_16">
    <path d="M 150.935163 339.84 
L 156.093868 339.84 
L 156.093868 286.460198 
L 150.935163 286.460198 
z
" clip-path="url(#p6625d3cfa8)" style="fill: #1f77b4; stroke: #000000; stroke-linejoin: miter"/>
   </g>
   <g id="patch_17">
    <path d="M 156.093868 339.84 
L 161.252574 339.84 
L 161.252574 302.200396 
L 156.093868 302.200396 
z
" clip-path="url(#p6625d3cfa8)" style="fill: #1f77b4; stroke: #000000; stroke-linejoin: miter"/>
   </g>
   <g id="patch_18">
    <path d="M 161.252574 339.84 
L 166.41128 339.84 
L 166.41128 171.317228 
L 161.252574 171.317228 
z
" clip-path="url(#p6625d3cfa8)" style="fill: #1f77b4; stroke: #000000; stroke-linejoin: miter"/>
   </g>
   <g id="patch_19">
    <path d="M 166.41128 339.84 
L 171.569986 339.84 
L 171.569986 56.972673 
L 166.41128 56.972673 
z
" clip-path="url(#p6625d3cfa8)" style="fill: #1f77b4; stroke: #000000; stroke-linejoin: miter"/>
   </g>
   <g id="patch_20">
    <path d="M 171.569986 339.84 
L 176.728691 339.84 
L 176.728691 106.669986 
L 171.569986 106.669986 
z
" clip-path="url(#p6625d3cfa8)" style="fill: #1f77b4; stroke: #000000; stroke-linejoin: miter"/>
   </g>
   <g id="patch_21">
    <path d="M 176.728691 339.84 
L 181.887397 339.84 
L 181.887397 134.190891 
L 176.728691 134.190891 
z
" clip-path="url(#p6625d3cfa8)" style="fill: #1f77b4; stroke: #000000; stroke-linejoin: miter"/>
   </g>
   <g id="patch_22">
    <path d="M 181.887397 339.84 
L 187.046103 339.84 
L 187.046103 156.774653 
L 181.887397 156.774653 
z
" clip-path="url(#p6625d3cfa8)" style="fill: #1f77b4; stroke: #000000; stroke-linejoin: miter"/>
   </g>
   <g id="patch_23">
    <path d="M 187.046103 339.84 
L 192.204808 339.84 
L 192.204808 129.555932 
L 187.046103 129.555932 
z
" clip-path="url(#p6625d3cfa8)" style="fill: #1f77b4; stroke: #000000; stroke-linejoin: miter"/>
   </g>
   <g id="patch_24">
    <path d="M 192.204808 339.84 
L 197.363514 339.84 
L 197.363514 162.819802 
L 192.204808 162.819802 
z
" clip-path="url(#p6625d3cfa8)" style="fill: #1f77b4; stroke: #000000; stroke-linejoin: miter"/>
   </g>
   <g id="patch_25">
    <path d="M 197.363514 339.84 
L 202.52222 339.84 
L 202.52222 144.114059 
L 197.363514 144.114059 
z
" clip-path="url(#p6625d3cfa8)" style="fill: #1f77b4; stroke: #000000; stroke-linejoin: miter"/>
   </g>
   <g id="patch_26">
    <path d="M 202.52222 339.84 
L 207.680925 339.84 
L 207.680925 117.268623 
L 202.52222 117.268623 
z
" clip-path="url(#p6625d3cfa8)" style="fill: #1f77b4; stroke: #000000; stroke-linejoin: miter"/>
   </g>
   <g id="patch_27">
    <path d="M 207.680925 339.84 
L 212.839631 339.84 
L 212.839631 102.10761 
L 207.680925 102.10761 
z
" clip-path="url(#p6625d3cfa8)" style="fill: #1f77b4; stroke: #000000; stroke-linejoin: miter"/>
   </g>
   <g id="patch_28">
    <path d="M 212.839631 339.84 
L 217.998337 339.84 
L 217.998337 87.697426 
L 212.839631 87.697426 
z
" clip-path="url(#p6625d3cfa8)" style="fill: #1f77b4; stroke: #000000; stroke-linejoin: miter"/>
   </g>
   <g id="patch_29">
    <path d="M 217.998337 339.84 
L 223.157043 339.84 
L 223.157043 107.843168 
L 217.998337 107.843168 
z
" clip-path="url(#p6625d3cfa8)" style="fill: #1f77b4; stroke: #000000; stroke-linejoin: miter"/>
   </g>
   <g id="patch_30">
    <path d="M 223.157043 339.84 
L 228.315748 339.84 
L 228.315748 103.052673 
L 223.157043 103.052673 
z
" clip-path="url(#p6625d3cfa8)" style="fill: #1f77b4; stroke: #000000; stroke-linejoin: miter"/>
   </g>
   <g id="patch_31">
    <path d="M 228.315748 339.84 
L 233.474454 339.84 
L 233.474454 155.063762 
L 228.315748 155.063762 
z
" clip-path="url(#p6625d3cfa8)" style="fill: #1f77b4; stroke: #000000; stroke-linejoin: miter"/>
   </g>
   <g id="patch_32">
    <path d="M 233.474454 339.84 
L 238.63316 339.84 
L 238.63316 104.022178 
L 233.474454 104.022178 
z
" clip-path="url(#p6625d3cfa8)" style="fill: #1f77b4; stroke: #000000; stroke-linejoin: miter"/>
   </g>
   <g id="patch_33">
    <path d="M 238.63316 339.84 
L 243.791865 339.84 
L 243.791865 134.105347 
L 238.63316 134.105347 
z
" clip-path="url(#p6625d3cfa8)" style="fill: #1f77b4; stroke: #000000; stroke-linejoin: miter"/>
   </g>
   <g id="patch_34">
    <path d="M 243.791865 339.84 
L 248.950571 339.84 
L 248.950571 158.974371 
L 243.791865 158.974371 
z
" clip-path="url(#p6625d3cfa8)" style="fill: #1f77b4; stroke: #000000; stroke-linejoin: miter"/>
   </g>
   <g id="patch_35">
    <path d="M 248.950571 339.84 
L 254.109277 339.84 
L 254.109277 105.579528 
L 248.950571 105.579528 
z
" clip-path="url(#p6625d3cfa8)" style="fill: #1f77b4; stroke: #000000; stroke-linejoin: miter"/>
   </g>
   <g id="patch_36">
    <path d="M 254.109277 339.84 
L 259.267982 339.84 
L 259.267982 121.701386 
L 254.109277 121.701386 
z
" clip-path="url(#p6625d3cfa8)" style="fill: #1f77b4; stroke: #000000; stroke-linejoin: miter"/>
   </g>
   <g id="patch_37">
    <path d="M 259.267982 339.84 
L 264.426688 339.84 
L 264.426688 99.060594 
L 259.267982 99.060594 
z
" clip-path="url(#p6625d3cfa8)" style="fill: #1f77b4; stroke: #000000; stroke-linejoin: miter"/>
   </g>
   <g id="patch_38">
    <path d="M 264.426688 339.84 
L 269.585394 339.84 
L 269.585394 104.714682 
L 264.426688 104.714682 
z
" clip-path="url(#p6625d3cfa8)" style="fill: #1f77b4; stroke: #000000; stroke-linejoin: miter"/>
   </g>
   <g id="patch_39">
    <path d="M 269.585394 339.84 
L 274.7441 339.84 
L 274.7441 115.14297 
L 269.585394 115.14297 
z
" clip-path="url(#p6625d3cfa8)" style="fill: #1f77b4; stroke: #000000; stroke-linejoin: miter"/>
   </g>
   <g id="patch_40">
    <path d="M 274.7441 339.84 
L 279.902805 339.84 
L 279.902805 119.014077 
L 274.7441 119.014077 
z
" clip-path="url(#p6625d3cfa8)" style="fill: #1f77b4; stroke: #000000; stroke-linejoin: miter"/>
   </g>
   <g id="patch_41">
    <path d="M 279.902805 339.84 
L 285.061511 339.84 
L 285.061511 110.93703 
L 279.902805 110.93703 
z
" clip-path="url(#p6625d3cfa8)" style="fill: #1f77b4; stroke: #000000; stroke-linejoin: miter"/>
   </g>
   <g id="patch_42">
    <path d="M 285.061511 339.84 
L 290.220217 339.84 
L 290.220217 66.329411 
L 285.061511 66.329411 
z
" clip-path="url(#p6625d3cfa8)" style="fill: #1f77b4; stroke: #000000; stroke-linejoin: miter"/>
   </g>
   <g id="patch_43">
    <path d="M 290.220217 339.84 
L 295.378922 339.84 
L 295.378922 61.892344 
L 290.220217 61.892344 
z
" clip-path="url(#p6625d3cfa8)" style="fill: #1f77b4; stroke: #000000; stroke-linejoin: miter"/>
   </g>
   <g id="patch_44">
    <path d="M 295.378922 339.84 
L 300.537628 339.84 
L 300.537628 67.040162 
L 295.378922 67.040162 
z
" clip-path="url(#p6625d3cfa8)" style="fill: #1f77b4; stroke: #000000; stroke-linejoin: miter"/>
   </g>
   <g id="patch_45">
    <path d="M 300.537628 339.84 
L 305.696334 339.84 
L 305.696334 106.303366 
L 300.537628 106.303366 
z
" clip-path="url(#p6625d3cfa8)" style="fill: #1f77b4; stroke: #000000; stroke-linejoin: miter"/>
   </g>
   <g id="patch_46">
    <path d="M 305.696334 339.84 
L 310.855039 339.84 
L 310.855039 60.809217 
L 305.696334 60.809217 
z
" clip-path="url(#p6625d3cfa8)" style="fill: #1f77b4; stroke: #000000; stroke-linejoin: miter"/>
   </g>
   <g id="patch_47">
    <path d="M 310.855039 339.84 
L 316.013745 339.84 
L 316.013745 80.64 
L 310.855039 80.64 
z
" clip-path="url(#p6625d3cfa8)" style="fill: #1f77b4; stroke: #000000; stroke-linejoin: miter"/>
   </g>
   <g id="patch_48">
    <path d="M 316.013745 339.84 
L 321.172451 339.84 
L 321.172451 88.72534 
L 316.013745 88.72534 
z
" clip-path="url(#p6625d3cfa8)" style="fill: #1f77b4; stroke: #000000; stroke-linejoin: miter"/>
   </g>
   <g id="patch_49">
    <path d="M 321.172451 339.84 
L 326.331157 339.84 
L 326.331157 94.548911 
L 321.172451 94.548911 
z
" clip-path="url(#p6625d3cfa8)" style="fill: #1f77b4; stroke: #000000; stroke-linejoin: miter"/>
   </g>
   <g id="patch_50">
    <path d="M 326.331157 339.84 
L 331.489862 339.84 
L 331.489862 110.200396 
L 326.331157 110.200396 
z
" clip-path="url(#p6625d3cfa8)" style="fill: #1f77b4; stroke: #000000; stroke-linejoin: miter"/>
   </g>
   <g id="patch_51">
    <path d="M 331.489862 339.84 
L 336.648568 339.84 
L 336.648568 130.288001 
L 331.489862 130.288001 
z
" clip-path="url(#p6625d3cfa8)" style="fill: #1f77b4; stroke: #000000; stroke-linejoin: miter"/>
   </g>
   <g id="patch_52">
    <path d="M 336.648568 339.84 
L 341.807274 339.84 
L 341.807274 140.521188 
L 336.648568 140.521188 
z
" clip-path="url(#p6625d3cfa8)" style="fill: #1f77b4; stroke: #000000; stroke-linejoin: miter"/>
   </g>
   <g id="patch_53">
    <path d="M 341.807274 339.84 
L 346.965979 339.84 
L 346.965979 110.838842 
L 341.807274 110.838842 
z
" clip-path="url(#p6625d3cfa8)" style="fill: #1f77b4; stroke: #000000; stroke-linejoin: miter"/>
   </g>
   <g id="patch_54">
    <path d="M 346.965979 339.84 
L 352.124685 339.84 
L 352.124685 101.305763 
L 346.965979 101.305763 
z
" clip-path="url(#p6625d3cfa8)" style="fill: #1f77b4; stroke: #000000; stroke-linejoin: miter"/>
   </g>
   <g id="patch_55">
    <path d="M 352.124685 339.84 
L 357.283391 339.84 
L 357.283391 91.446547 
L 352.124685 91.446547 
z
" clip-path="url(#p6625d3cfa8)" style="fill: #1f77b4; stroke: #000000; stroke-linejoin: miter"/>
   </g>
   <g id="patch_56">
    <path d="M 357.283391 339.84 
L 362.442096 339.84 
L 362.442096 113.156542 
L 357.283391 113.156542 
z
" clip-path="url(#p6625d3cfa8)" style="fill: #1f77b4; stroke: #000000; stroke-linejoin: miter"/>
   </g>
   <g id="patch_57">
    <path d="M 362.442096 339.84 
L 367.600802 339.84 
L 367.600802 103.420198 
L 362.442096 103.420198 
z
" clip-path="url(#p6625d3cfa8)" style="fill: #1f77b4; stroke: #000000; stroke-linejoin: miter"/>
   </g>
   <g id="patch_58">
    <path d="M 367.600802 339.84 
L 372.759508 339.84 
L 372.759508 99.312311 
L 367.600802 99.312311 
z
" clip-path="url(#p6625d3cfa8)" style="fill: #1f77b4; stroke: #000000; stroke-linejoin: miter"/>
   </g>
   <g id="patch_59">
    <path d="M 372.759508 339.84 
L 377.918214 339.84 
L 377.918214 99.382034 
L 372.759508 99.382034 
z
" clip-path="url(#p6625d3cfa8)" style="fill: #1f77b4; stroke: #000000; stroke-linejoin: miter"/>
   </g>
   <g id="patch_60">
    <path d="M 377.918214 339.84 
L 383.076919 339.84 
L 383.076919 120.845941 
L 377.918214 120.845941 
z
" clip-path="url(#p6625d3cfa8)" style="fill: #1f77b4; stroke: #000000; stroke-linejoin: miter"/>
   </g>
   <g id="patch_61">
    <path d="M 383.076919 339.84 
L 388.235625 339.84 
L 388.235625 128.449901 
L 383.076919 128.449901 
z
" clip-path="url(#p6625d3cfa8)" style="fill: #1f77b4; stroke: #000000; stroke-linejoin: miter"/>
   </g>
   <g id="patch_62">
    <path d="M 388.235625 339.84 
L 393.394331 339.84 
L 393.394331 114.722751 
L 388.235625 114.722751 
z
" clip-path="url(#p6625d3cfa8)" style="fill: #1f77b4; stroke: #000000; stroke-linejoin: miter"/>
   </g>
   <g id="patch_63">
    <path d="M 393.394331 339.84 
L 398.553036 339.84 
L 398.553036 137.926572 
L 393.394331 137.926572 
z
" clip-path="url(#p6625d3cfa8)" style="fill: #1f77b4; stroke: #000000; stroke-linejoin: miter"/>
   </g>
   <g id="patch_64">
    <path d="M 398.553036 339.84 
L 403.711742 339.84 
L 403.711742 136.350891 
L 398.553036 136.350891 
z
" clip-path="url(#p6625d3cfa8)" style="fill: #1f77b4; stroke: #000000; stroke-linejoin: miter"/>
   </g>
   <g id="patch_65">
    <path d="M 403.711742 339.84 
L 408.870448 339.84 
L 408.870448 135.289044 
L 403.711742 135.289044 
z
" clip-path="url(#p6625d3cfa8)" style="fill: #1f77b4; stroke: #000000; stroke-linejoin: miter"/>
   </g>
   <g id="patch_66">
    <path d="M 408.870448 339.84 
L 414.029154 339.84 
L 414.029154 163.632128 
L 408.870448 163.632128 
z
" clip-path="url(#p6625d3cfa8)" style="fill: #1f77b4; stroke: #000000; stroke-linejoin: miter"/>
   </g>
   <g id="patch_67">
    <path d="M 414.029154 339.84 
L 419.187859 339.84 
L 419.187859 149.00232 
L 414.029154 149.00232 
z
" clip-path="url(#p6625d3cfa8)" style="fill: #1f77b4; stroke: #000000; stroke-linejoin: miter"/>
   </g>
   <g id="patch_68">
    <path d="M 419.187859 339.84 
L 424.346565 339.84 
L 424.346565 141.899406 
L 419.187859 141.899406 
z
" clip-path="url(#p6625d3cfa8)" style="fill: #1f77b4; stroke: #000000; stroke-linejoin: miter"/>
   </g>
   <g id="patch_69">
    <path d="M 424.346565 339.84 
L 429.505271 339.84 
L 429.505271 125.586535 
L 424.346565 125.586535 
z
" clip-path="url(#p6625d3cfa8)" style="fill: #1f77b4; stroke: #000000; stroke-linejoin: miter"/>
   </g>
   <g id="patch_70">
    <path d="M 429.505271 339.84 
L 434.663976 339.84 
L 434.663976 136.139212 
L 429.505271 136.139212 
z
" clip-path="url(#p6625d3cfa8)" style="fill: #1f77b4; stroke: #000000; stroke-linejoin: miter"/>
   </g>
   <g id="patch_71">
    <path d="M 434.663976 339.84 
L 439.822682 339.84 
L 439.822682 133.136424 
L 434.663976 133.136424 
z
" clip-path="url(#p6625d3cfa8)" style="fill: #1f77b4; stroke: #000000; stroke-linejoin: miter"/>
   </g>
   <g id="patch_72">
    <path d="M 439.822682 339.84 
L 444.981388 339.84 
L 444.981388 110.210672 
L 439.822682 110.210672 
z
" clip-path="url(#p6625d3cfa8)" style="fill: #1f77b4; stroke: #000000; stroke-linejoin: miter"/>
   </g>
   <g id="patch_73">
    <path d="M 444.981388 339.84 
L 450.140093 339.84 
L 450.140093 104.012609 
L 444.981388 104.012609 
z
" clip-path="url(#p6625d3cfa8)" style="fill: #1f77b4; stroke: #000000; stroke-linejoin: miter"/>
   </g>
   <g id="patch_74">
    <path d="M 450.140093 339.84 
L 455.298799 339.84 
L 455.298799 83.812728 
L 450.140093 83.812728 
z
" clip-path="url(#p6625d3cfa8)" style="fill: #1f77b4; stroke: #000000; stroke-linejoin: miter"/>
   </g>
   <g id="patch_75">
    <path d="M 455.298799 339.84 
L 460.457505 339.84 
L 460.457505 97.01214 
L 455.298799 97.01214 
z
" clip-path="url(#p6625d3cfa8)" style="fill: #1f77b4; stroke: #000000; stroke-linejoin: miter"/>
   </g>
   <g id="patch_76">
    <path d="M 460.457505 339.84 
L 465.616211 339.84 
L 465.616211 85.026013 
L 460.457505 85.026013 
z
" clip-path="url(#p6625d3cfa8)" style="fill: #1f77b4; stroke: #000000; stroke-linejoin: miter"/>
   </g>
   <g id="patch_77">
    <path d="M 465.616211 339.84 
L 470.774916 339.84 
L 470.774916 123.557542 
L 465.616211 123.557542 
z
" clip-path="url(#p6625d3cfa8)" style="fill: #1f77b4; stroke: #000000; stroke-linejoin: miter"/>
   </g>
   <g id="patch_78">
    <path d="M 470.774916 339.84 
L 475.933622 339.84 
L 475.933622 127.359333 
L 470.774916 127.359333 
z
" clip-path="url(#p6625d3cfa8)" style="fill: #1f77b4; stroke: #000000; stroke-linejoin: miter"/>
   </g>
   <g id="patch_79">
    <path d="M 475.933622 339.84 
L 481.092328 339.84 
L 481.092328 124.079713 
L 475.933622 124.079713 
z
" clip-path="url(#p6625d3cfa8)" style="fill: #1f77b4; stroke: #000000; stroke-linejoin: miter"/>
   </g>
   <g id="patch_80">
    <path d="M 481.092328 339.84 
L 486.251033 339.84 
L 486.251033 123.705573 
L 481.092328 123.705573 
z
" clip-path="url(#p6625d3cfa8)" style="fill: #1f77b4; stroke: #000000; stroke-linejoin: miter"/>
   </g>
   <g id="patch_81">
    <path d="M 486.251033 339.84 
L 491.409739 339.84 
L 491.409739 76.692142 
L 486.251033 76.692142 
z
" clip-path="url(#p6625d3cfa8)" style="fill: #1f77b4; stroke: #000000; stroke-linejoin: miter"/>
   </g>
   <g id="patch_82">
    <path d="M 491.409739 339.84 
L 496.568445 339.84 
L 496.568445 115.226684 
L 491.409739 115.226684 
z
" clip-path="url(#p6625d3cfa8)" style="fill: #1f77b4; stroke: #000000; stroke-linejoin: miter"/>
   </g>
   <g id="patch_83">
    <path d="M 496.568445 339.84 
L 501.72715 339.84 
L 501.72715 130.883168 
L 496.568445 130.883168 
z
" clip-path="url(#p6625d3cfa8)" style="fill: #1f77b4; stroke: #000000; stroke-linejoin: miter"/>
   </g>
   <g id="patch_84">
    <path d="M 501.72715 339.84 
L 506.885856 339.84 
L 506.885856 142.412807 
L 501.72715 142.412807 
z
" clip-path="url(#p6625d3cfa8)" style="fill: #1f77b4; stroke: #000000; stroke-linejoin: miter"/>
   </g>
   <g id="patch_85">
    <path d="M 506.885856 339.84 
L 512.044562 339.84 
L 512.044562 127.20529 
L 506.885856 127.20529 
z
" clip-path="url(#p6625d3cfa8)" style="fill: #1f77b4; stroke: #000000; stroke-linejoin: miter"/>
   </g>
   <g id="patch_86">
    <path d="M 512.044562 339.84 
L 517.203268 339.84 
L 517.203268 77.333819 
L 512.044562 77.333819 
z
" clip-path="url(#p6625d3cfa8)" style="fill: #1f77b4; stroke: #000000; stroke-linejoin: miter"/>
   </g>
   <g id="patch_87">
    <path d="M 517.203268 339.84 
L 522.361973 339.84 
L 522.361973 114.190386 
L 517.203268 114.190386 
z
" clip-path="url(#p6625d3cfa8)" style="fill: #1f77b4; stroke: #000000; stroke-linejoin: miter"/>
   </g>
   <g id="patch_88">
    <path d="M 522.361973 339.84 
L 527.520679 339.84 
L 527.520679 121.150852 
L 522.361973 121.150852 
z
" clip-path="url(#p6625d3cfa8)" style="fill: #1f77b4; stroke: #000000; stroke-linejoin: miter"/>
   </g>
   <g id="patch_89">
    <path d="M 527.520679 339.84 
L 532.679385 339.84 
L 532.679385 127.730484 
L 527.520679 127.730484 
z
" clip-path="url(#p6625d3cfa8)" style="fill: #1f77b4; stroke: #000000; stroke-linejoin: miter"/>
   </g>
   <g id="patch_90">
    <path d="M 532.679385 339.84 
L 537.83809 339.84 
L 537.83809 146.002376 
L 532.679385 146.002376 
z
" clip-path="url(#p6625d3cfa8)" style="fill: #1f77b4; stroke: #000000; stroke-linejoin: miter"/>
   </g>
   <g id="patch_91">
    <path d="M 537.83809 339.84 
L 542.996796 339.84 
L 542.996796 119.545663 
L 537.83809 119.545663 
z
" clip-path="url(#p6625d3cfa8)" style="fill: #1f77b4; stroke: #000000; stroke-linejoin: miter"/>
   </g>
   <g id="patch_92">
    <path d="M 542.996796 339.84 
L 548.155502 339.84 
L 548.155502 116.473663 
L 542.996796 116.473663 
z
" clip-path="url(#p6625d3cfa8)" style="fill: #1f77b4; stroke: #000000; stroke-linejoin: miter"/>
   </g>
   <g id="patch_93">
    <path d="M 548.155502 339.84 
L 553.314207 339.84 
L 553.314207 100.980594 
L 548.155502 100.980594 
z
" clip-path="url(#p6625d3cfa8)" style="fill: #1f77b4; stroke: #000000; stroke-linejoin: miter"/>
   </g>
   <g id="patch_94">
    <path d="M 553.314207 339.84 
L 558.472913 339.84 
L 558.472913 180.898218 
L 553.314207 180.898218 
z
" clip-path="url(#p6625d3cfa8)" style="fill: #1f77b4; stroke: #000000; stroke-linejoin: miter"/>
   </g>
   <g id="patch_95">
    <path d="M 558.472913 339.84 
L 563.631619 339.84 
L 563.631619 146.878323 
L 558.472913 146.878323 
z
" clip-path="url(#p6625d3cfa8)" style="fill: #1f77b4; stroke: #000000; stroke-linejoin: miter"/>
   </g>
   <g id="patch_96">
    <path d="M 563.631619 339.84 
L 568.790325 339.84 
L 568.790325 115.833753 
L 563.631619 115.833753 
z
" clip-path="url(#p6625d3cfa8)" style="fill: #1f77b4; stroke: #000000; stroke-linejoin: miter"/>
   </g>
   <g id="patch_97">
    <path d="M 568.790325 339.84 
L 573.94903 339.84 
L 573.94903 118.384659 
L 568.790325 118.384659 
z
" clip-path="url(#p6625d3cfa8)" style="fill: #1f77b4; stroke: #000000; stroke-linejoin: miter"/>
   </g>
   <g id="patch_98">
    <path d="M 573.94903 339.84 
L 579.107736 339.84 
L 579.107736 144.697775 
L 573.94903 144.697775 
z
" clip-path="url(#p6625d3cfa8)" style="fill: #1f77b4; stroke: #000000; stroke-linejoin: miter"/>
   </g>
   <g id="patch_99">
    <path d="M 579.107736 339.84 
L 584.266442 339.84 
L 584.266442 145.547949 
L 579.107736 145.547949 
z
" clip-path="url(#p6625d3cfa8)" style="fill: #1f77b4; stroke: #000000; stroke-linejoin: miter"/>
   </g>
   <g id="patch_100">
    <path d="M 584.266442 339.84 
L 589.425147 339.84 
L 589.425147 145.448709 
L 584.266442 145.448709 
z
" clip-path="url(#p6625d3cfa8)" style="fill: #1f77b4; stroke: #000000; stroke-linejoin: miter"/>
   </g>
   <g id="patch_101">
    <path d="M 589.425147 339.84 
L 594.583853 339.84 
L 594.583853 148.714914 
L 589.425147 148.714914 
z
" clip-path="url(#p6625d3cfa8)" style="fill: #1f77b4; stroke: #000000; stroke-linejoin: miter"/>
   </g>
   <g id="patch_102">
    <path d="M 594.583853 339.84 
L 599.742559 339.84 
L 599.742559 110.50779 
L 594.583853 110.50779 
z
" clip-path="url(#p6625d3cfa8)" style="fill: #1f77b4; stroke: #000000; stroke-linejoin: miter"/>
   </g>
   <g id="patch_103">
    <path d="M 599.742559 339.84 
L 604.901264 339.84 
L 604.901264 106.220861 
L 599.742559 106.220861 
z
" clip-path="url(#p6625d3cfa8)" style="fill: #1f77b4; stroke: #000000; stroke-linejoin: miter"/>
   </g>
   <g id="patch_104">
    <path d="M 604.901264 339.84 
L 610.05997 339.84 
L 610.05997 93.806257 
L 604.901264 93.806257 
z
" clip-path="url(#p6625d3cfa8)" style="fill: #1f77b4; stroke: #000000; stroke-linejoin: miter"/>
   </g>
   <g id="patch_105">
    <path d="M 610.05997 339.84 
L 615.218676 339.84 
L 615.218676 115.268436 
L 610.05997 115.268436 
z
" clip-path="url(#p6625d3cfa8)" style="fill: #1f77b4; stroke: #000000; stroke-linejoin: miter"/>
   </g>
   <g id="patch_106">
    <path d="M 615.218676 339.84 
L 620.377382 339.84 
L 620.377382 108.815512 
L 615.218676 108.815512 
z
" clip-path="url(#p6625d3cfa8)" style="fill: #1f77b4; stroke: #000000; stroke-linejoin: miter"/>
   </g>
   <g id="patch_107">
    <path d="M 620.377382 339.84 
L 625.536087 339.84 
L 625.536087 112.361317 
L 620.377382 112.361317 
z
" clip-path="url(#p6625d3cfa8)" style="fill: #1f77b4; stroke: #000000; stroke-linejoin: miter"/>
   </g>
   <g id="patch_108">
    <path d="M 625.536087 339.84 
L 630.694793 339.84 
L 630.694793 124.304319 
L 625.536087 124.304319 
z
" clip-path="url(#p6625d3cfa8)" style="fill: #1f77b4; stroke: #000000; stroke-linejoin: miter"/>
   </g>
   <g id="patch_109">
    <path d="M 630.694793 339.84 
L 635.853499 339.84 
L 635.853499 117.375964 
L 630.694793 117.375964 
z
" clip-path="url(#p6625d3cfa8)" style="fill: #1f77b4; stroke: #000000; stroke-linejoin: miter"/>
   </g>
   <g id="patch_110">
    <path d="M 635.853499 339.84 
L 641.012204 339.84 
L 641.012204 65.12707 
L 635.853499 65.12707 
z
" clip-path="url(#p6625d3cfa8)" style="fill: #1f77b4; stroke: #000000; stroke-linejoin: miter"/>
   </g>
   <g id="patch_111">
    <path d="M 641.012204 339.84 
L 646.17091 339.84 
L 646.17091 71.793441 
L 641.012204 71.793441 
z
" clip-path="url(#p6625d3cfa8)" style="fill: #1f77b4; stroke: #000000; stroke-linejoin: miter"/>
   </g>
   <g id="patch_112">
    <path d="M 646.17091 339.84 
L 651.329616 339.84 
L 651.329616 339.84 
L 646.17091 339.84 
z
" clip-path="url(#p6625d3cfa8)" style="fill: #1f77b4; stroke: #000000; stroke-linejoin: miter"/>
   </g>
   <g id="patch_113">
    <path d="M 651.329616 339.84 
L 656.488321 339.84 
L 656.488321 193.84396 
L 651.329616 193.84396 
z
" clip-path="url(#p6625d3cfa8)" style="fill: #1f77b4; stroke: #000000; stroke-linejoin: miter"/>
   </g>
   <g id="patch_114">
    <path d="M 656.488321 339.84 
L 661.647027 339.84 
L 661.647027 73.343553 
L 656.488321 73.343553 
z
" clip-path="url(#p6625d3cfa8)" style="fill: #1f77b4; stroke: #000000; stroke-linejoin: miter"/>
   </g>
   <g id="patch_115">
    <path d="M 661.647027 339.84 
L 666.805733 339.84 
L 666.805733 87.991485 
L 661.647027 87.991485 
z
" clip-path="url(#p6625d3cfa8)" style="fill: #1f77b4; stroke: #000000; stroke-linejoin: miter"/>
   </g>
   <g id="patch_116">
    <path d="M 666.805733 339.84 
L 671.964439 339.84 
L 671.964439 94.634212 
L 666.805733 94.634212 
z
" clip-path="url(#p6625d3cfa8)" style="fill: #1f77b4; stroke: #000000; stroke-linejoin: miter"/>
   </g>
   <g id="patch_117">
    <path d="M 671.964439 339.84 
L 677.123144 339.84 
L 677.123144 118.121592 
L 671.964439 118.121592 
z
" clip-path="url(#p6625d3cfa8)" style="fill: #1f77b4; stroke: #000000; stroke-linejoin: miter"/>
   </g>
   <g id="patch_118">
    <path d="M 677.123144 339.84 
L 682.28185 339.84 
L 682.28185 183.43604 
L 677.123144 183.43604 
z
" clip-path="url(#p6625d3cfa8)" style="fill: #1f77b4; stroke: #000000; stroke-linejoin: miter"/>
   </g>
   <g id="patch_119">
    <path d="M 682.28185 339.84 
L 687.440556 339.84 
L 687.440556 276.53703 
L 682.28185 276.53703 
z
" clip-path="url(#p6625d3cfa8)" style="fill: #1f77b4; stroke: #000000; stroke-linejoin: miter"/>
   </g>
   <g id="patch_120">
    <path d="M 687.440556 339.84 
L 692.599261 339.84 
L 692.599261 339.84 
L 687.440556 339.84 
z
" clip-path="url(#p6625d3cfa8)" style="fill: #1f77b4; stroke: #000000; stroke-linejoin: miter"/>
   </g>
   <g id="matplotlib.axis_1">
    <g id="xtick_1">
     <g id="line2d_1">
      <defs>
       <path id="me1ad2b6bd4" d="M 0 0 
L 0 3.5 
" style="stroke: #000000; stroke-width: 0.8"/>
      </defs>
      <g>
       <use xlink:href="#me1ad2b6bd4" x="81.292636" y="339.84" style="stroke: #000000; stroke-width: 0.8"/>
      </g>
     </g>
     <g id="text_1">
      <!-- 0.0 -->
      <g transform="translate(70.160448 357.477813) scale(0.14 -0.14)">
       <defs>
        <path id="DejaVuSans-30" d="M 2034 4250 
Q 1547 4250 1301 3770 
Q 1056 3291 1056 2328 
Q 1056 1369 1301 889 
Q 1547 409 2034 409 
Q 2525 409 2770 889 
Q 3016 1369 3016 2328 
Q 3016 3291 2770 3770 
Q 2525 4250 2034 4250 
z
M 2034 4750 
Q 2819 4750 3233 4129 
Q 3647 3509 3647 2328 
Q 3647 1150 3233 529 
Q 2819 -91 2034 -91 
Q 1250 -91 836 529 
Q 422 1150 422 2328 
Q 422 3509 836 4129 
Q 1250 4750 2034 4750 
z
" transform="scale(0.015625)"/>
        <path id="DejaVuSans-2e" d="M 684 794 
L 1344 794 
L 1344 0 
L 684 0 
L 684 794 
z
" transform="scale(0.015625)"/>
       </defs>
       <use xlink:href="#DejaVuSans-30"/>
       <use xlink:href="#DejaVuSans-2e" x="63.623047"/>
       <use xlink:href="#DejaVuSans-30" x="95.410156"/>
      </g>
     </g>
    </g>
    <g id="xtick_2">
     <g id="line2d_2">
      <g>
       <use xlink:href="#me1ad2b6bd4" x="184.46675" y="339.84" style="stroke: #000000; stroke-width: 0.8"/>
      </g>
     </g>
     <g id="text_2">
      <!-- 0.2 -->
      <g transform="translate(173.334562 357.477813) scale(0.14 -0.14)">
       <defs>
        <path id="DejaVuSans-32" d="M 1228 531 
L 3431 531 
L 3431 0 
L 469 0 
L 469 531 
Q 828 903 1448 1529 
Q 2069 2156 2228 2338 
Q 2531 2678 2651 2914 
Q 2772 3150 2772 3378 
Q 2772 3750 2511 3984 
Q 2250 4219 1831 4219 
Q 1534 4219 1204 4116 
Q 875 4013 500 3803 
L 500 4441 
Q 881 4594 1212 4672 
Q 1544 4750 1819 4750 
Q 2544 4750 2975 4387 
Q 3406 4025 3406 3419 
Q 3406 3131 3298 2873 
Q 3191 2616 2906 2266 
Q 2828 2175 2409 1742 
Q 1991 1309 1228 531 
z
" transform="scale(0.015625)"/>
       </defs>
       <use xlink:href="#DejaVuSans-30"/>
       <use xlink:href="#DejaVuSans-2e" x="63.623047"/>
       <use xlink:href="#DejaVuSans-32" x="95.410156"/>
      </g>
     </g>
    </g>
    <g id="xtick_3">
     <g id="line2d_3">
      <g>
       <use xlink:href="#me1ad2b6bd4" x="287.640864" y="339.84" style="stroke: #000000; stroke-width: 0.8"/>
      </g>
     </g>
     <g id="text_3">
      <!-- 0.4 -->
      <g transform="translate(276.508676 357.477813) scale(0.14 -0.14)">
       <defs>
        <path id="DejaVuSans-34" d="M 2419 4116 
L 825 1625 
L 2419 1625 
L 2419 4116 
z
M 2253 4666 
L 3047 4666 
L 3047 1625 
L 3713 1625 
L 3713 1100 
L 3047 1100 
L 3047 0 
L 2419 0 
L 2419 1100 
L 313 1100 
L 313 1709 
L 2253 4666 
z
" transform="scale(0.015625)"/>
       </defs>
       <use xlink:href="#DejaVuSans-30"/>
       <use xlink:href="#DejaVuSans-2e" x="63.623047"/>
       <use xlink:href="#DejaVuSans-34" x="95.410156"/>
      </g>
     </g>
    </g>
    <g id="xtick_4">
     <g id="line2d_4">
      <g>
       <use xlink:href="#me1ad2b6bd4" x="390.814978" y="339.84" style="stroke: #000000; stroke-width: 0.8"/>
      </g>
     </g>
     <g id="text_4">
      <!-- 0.6 -->
      <g transform="translate(379.68279 357.477813) scale(0.14 -0.14)">
       <defs>
        <path id="DejaVuSans-36" d="M 2113 2584 
Q 1688 2584 1439 2293 
Q 1191 2003 1191 1497 
Q 1191 994 1439 701 
Q 1688 409 2113 409 
Q 2538 409 2786 701 
Q 3034 994 3034 1497 
Q 3034 2003 2786 2293 
Q 2538 2584 2113 2584 
z
M 3366 4563 
L 3366 3988 
Q 3128 4100 2886 4159 
Q 2644 4219 2406 4219 
Q 1781 4219 1451 3797 
Q 1122 3375 1075 2522 
Q 1259 2794 1537 2939 
Q 1816 3084 2150 3084 
Q 2853 3084 3261 2657 
Q 3669 2231 3669 1497 
Q 3669 778 3244 343 
Q 2819 -91 2113 -91 
Q 1303 -91 875 529 
Q 447 1150 447 2328 
Q 447 3434 972 4092 
Q 1497 4750 2381 4750 
Q 2619 4750 2861 4703 
Q 3103 4656 3366 4563 
z
" transform="scale(0.015625)"/>
       </defs>
       <use xlink:href="#DejaVuSans-30"/>
       <use xlink:href="#DejaVuSans-2e" x="63.623047"/>
       <use xlink:href="#DejaVuSans-36" x="95.410156"/>
      </g>
     </g>
    </g>
    <g id="xtick_5">
     <g id="line2d_5">
      <g>
       <use xlink:href="#me1ad2b6bd4" x="493.989092" y="339.84" style="stroke: #000000; stroke-width: 0.8"/>
      </g>
     </g>
     <g id="text_5">
      <!-- 0.8 -->
      <g transform="translate(482.856904 357.477813) scale(0.14 -0.14)">
       <defs>
        <path id="DejaVuSans-38" d="M 2034 2216 
Q 1584 2216 1326 1975 
Q 1069 1734 1069 1313 
Q 1069 891 1326 650 
Q 1584 409 2034 409 
Q 2484 409 2743 651 
Q 3003 894 3003 1313 
Q 3003 1734 2745 1975 
Q 2488 2216 2034 2216 
z
M 1403 2484 
Q 997 2584 770 2862 
Q 544 3141 544 3541 
Q 544 4100 942 4425 
Q 1341 4750 2034 4750 
Q 2731 4750 3128 4425 
Q 3525 4100 3525 3541 
Q 3525 3141 3298 2862 
Q 3072 2584 2669 2484 
Q 3125 2378 3379 2068 
Q 3634 1759 3634 1313 
Q 3634 634 3220 271 
Q 2806 -91 2034 -91 
Q 1263 -91 848 271 
Q 434 634 434 1313 
Q 434 1759 690 2068 
Q 947 2378 1403 2484 
z
M 1172 3481 
Q 1172 3119 1398 2916 
Q 1625 2713 2034 2713 
Q 2441 2713 2670 2916 
Q 2900 3119 2900 3481 
Q 2900 3844 2670 4047 
Q 2441 4250 2034 4250 
Q 1625 4250 1398 4047 
Q 1172 3844 1172 3481 
z
" transform="scale(0.015625)"/>
       </defs>
       <use xlink:href="#DejaVuSans-30"/>
       <use xlink:href="#DejaVuSans-2e" x="63.623047"/>
       <use xlink:href="#DejaVuSans-38" x="95.410156"/>
      </g>
     </g>
    </g>
    <g id="xtick_6">
     <g id="line2d_6">
      <g>
       <use xlink:href="#me1ad2b6bd4" x="597.163206" y="339.84" style="stroke: #000000; stroke-width: 0.8"/>
      </g>
     </g>
     <g id="text_6">
      <!-- 1.0 -->
      <g transform="translate(586.031018 357.477813) scale(0.14 -0.14)">
       <defs>
        <path id="DejaVuSans-31" d="M 794 531 
L 1825 531 
L 1825 4091 
L 703 3866 
L 703 4441 
L 1819 4666 
L 2450 4666 
L 2450 531 
L 3481 531 
L 3481 0 
L 794 0 
L 794 531 
z
" transform="scale(0.015625)"/>
       </defs>
       <use xlink:href="#DejaVuSans-31"/>
       <use xlink:href="#DejaVuSans-2e" x="63.623047"/>
       <use xlink:href="#DejaVuSans-30" x="95.410156"/>
      </g>
     </g>
    </g>
    <g id="xtick_7">
     <g id="line2d_7">
      <g>
       <use xlink:href="#me1ad2b6bd4" x="700.33732" y="339.84" style="stroke: #000000; stroke-width: 0.8"/>
      </g>
     </g>
     <g id="text_7">
      <!-- 1.2 -->
      <g transform="translate(689.205132 357.477813) scale(0.14 -0.14)">
       <use xlink:href="#DejaVuSans-31"/>
       <use xlink:href="#DejaVuSans-2e" x="63.623047"/>
       <use xlink:href="#DejaVuSans-32" x="95.410156"/>
      </g>
     </g>
    </g>
    <g id="text_8">
     <!-- Chromosome Positions -->
     <g transform="translate(285.885938 378.066563) scale(0.18 -0.18)">
      <defs>
       <path id="DejaVuSans-43" d="M 4122 4306 
L 4122 3641 
Q 3803 3938 3442 4084 
Q 3081 4231 2675 4231 
Q 1875 4231 1450 3742 
Q 1025 3253 1025 2328 
Q 1025 1406 1450 917 
Q 1875 428 2675 428 
Q 3081 428 3442 575 
Q 3803 722 4122 1019 
L 4122 359 
Q 3791 134 3420 21 
Q 3050 -91 2638 -91 
Q 1578 -91 968 557 
Q 359 1206 359 2328 
Q 359 3453 968 4101 
Q 1578 4750 2638 4750 
Q 3056 4750 3426 4639 
Q 3797 4528 4122 4306 
z
" transform="scale(0.015625)"/>
       <path id="DejaVuSans-68" d="M 3513 2113 
L 3513 0 
L 2938 0 
L 2938 2094 
Q 2938 2591 2744 2837 
Q 2550 3084 2163 3084 
Q 1697 3084 1428 2787 
Q 1159 2491 1159 1978 
L 1159 0 
L 581 0 
L 581 4863 
L 1159 4863 
L 1159 2956 
Q 1366 3272 1645 3428 
Q 1925 3584 2291 3584 
Q 2894 3584 3203 3211 
Q 3513 2838 3513 2113 
z
" transform="scale(0.015625)"/>
       <path id="DejaVuSans-72" d="M 2631 2963 
Q 2534 3019 2420 3045 
Q 2306 3072 2169 3072 
Q 1681 3072 1420 2755 
Q 1159 2438 1159 1844 
L 1159 0 
L 581 0 
L 581 3500 
L 1159 3500 
L 1159 2956 
Q 1341 3275 1631 3429 
Q 1922 3584 2338 3584 
Q 2397 3584 2469 3576 
Q 2541 3569 2628 3553 
L 2631 2963 
z
" transform="scale(0.015625)"/>
       <path id="DejaVuSans-6f" d="M 1959 3097 
Q 1497 3097 1228 2736 
Q 959 2375 959 1747 
Q 959 1119 1226 758 
Q 1494 397 1959 397 
Q 2419 397 2687 759 
Q 2956 1122 2956 1747 
Q 2956 2369 2687 2733 
Q 2419 3097 1959 3097 
z
M 1959 3584 
Q 2709 3584 3137 3096 
Q 3566 2609 3566 1747 
Q 3566 888 3137 398 
Q 2709 -91 1959 -91 
Q 1206 -91 779 398 
Q 353 888 353 1747 
Q 353 2609 779 3096 
Q 1206 3584 1959 3584 
z
" transform="scale(0.015625)"/>
       <path id="DejaVuSans-6d" d="M 3328 2828 
Q 3544 3216 3844 3400 
Q 4144 3584 4550 3584 
Q 5097 3584 5394 3201 
Q 5691 2819 5691 2113 
L 5691 0 
L 5113 0 
L 5113 2094 
Q 5113 2597 4934 2840 
Q 4756 3084 4391 3084 
Q 3944 3084 3684 2787 
Q 3425 2491 3425 1978 
L 3425 0 
L 2847 0 
L 2847 2094 
Q 2847 2600 2669 2842 
Q 2491 3084 2119 3084 
Q 1678 3084 1418 2786 
Q 1159 2488 1159 1978 
L 1159 0 
L 581 0 
L 581 3500 
L 1159 3500 
L 1159 2956 
Q 1356 3278 1631 3431 
Q 1906 3584 2284 3584 
Q 2666 3584 2933 3390 
Q 3200 3197 3328 2828 
z
" transform="scale(0.015625)"/>
       <path id="DejaVuSans-73" d="M 2834 3397 
L 2834 2853 
Q 2591 2978 2328 3040 
Q 2066 3103 1784 3103 
Q 1356 3103 1142 2972 
Q 928 2841 928 2578 
Q 928 2378 1081 2264 
Q 1234 2150 1697 2047 
L 1894 2003 
Q 2506 1872 2764 1633 
Q 3022 1394 3022 966 
Q 3022 478 2636 193 
Q 2250 -91 1575 -91 
Q 1294 -91 989 -36 
Q 684 19 347 128 
L 347 722 
Q 666 556 975 473 
Q 1284 391 1588 391 
Q 1994 391 2212 530 
Q 2431 669 2431 922 
Q 2431 1156 2273 1281 
Q 2116 1406 1581 1522 
L 1381 1569 
Q 847 1681 609 1914 
Q 372 2147 372 2553 
Q 372 3047 722 3315 
Q 1072 3584 1716 3584 
Q 2034 3584 2315 3537 
Q 2597 3491 2834 3397 
z
" transform="scale(0.015625)"/>
       <path id="DejaVuSans-65" d="M 3597 1894 
L 3597 1613 
L 953 1613 
Q 991 1019 1311 708 
Q 1631 397 2203 397 
Q 2534 397 2845 478 
Q 3156 559 3463 722 
L 3463 178 
Q 3153 47 2828 -22 
Q 2503 -91 2169 -91 
Q 1331 -91 842 396 
Q 353 884 353 1716 
Q 353 2575 817 3079 
Q 1281 3584 2069 3584 
Q 2775 3584 3186 3129 
Q 3597 2675 3597 1894 
z
M 3022 2063 
Q 3016 2534 2758 2815 
Q 2500 3097 2075 3097 
Q 1594 3097 1305 2825 
Q 1016 2553 972 2059 
L 3022 2063 
z
" transform="scale(0.015625)"/>
       <path id="DejaVuSans-20" transform="scale(0.015625)"/>
       <path id="DejaVuSans-50" d="M 1259 4147 
L 1259 2394 
L 2053 2394 
Q 2494 2394 2734 2622 
Q 2975 2850 2975 3272 
Q 2975 3691 2734 3919 
Q 2494 4147 2053 4147 
L 1259 4147 
z
M 628 4666 
L 2053 4666 
Q 2838 4666 3239 4311 
Q 3641 3956 3641 3272 
Q 3641 2581 3239 2228 
Q 2838 1875 2053 1875 
L 1259 1875 
L 1259 0 
L 628 0 
L 628 4666 
z
" transform="scale(0.015625)"/>
       <path id="DejaVuSans-69" d="M 603 3500 
L 1178 3500 
L 1178 0 
L 603 0 
L 603 3500 
z
M 603 4863 
L 1178 4863 
L 1178 4134 
L 603 4134 
L 603 4863 
z
" transform="scale(0.015625)"/>
       <path id="DejaVuSans-74" d="M 1172 4494 
L 1172 3500 
L 2356 3500 
L 2356 3053 
L 1172 3053 
L 1172 1153 
Q 1172 725 1289 603 
Q 1406 481 1766 481 
L 2356 481 
L 2356 0 
L 1766 0 
Q 1100 0 847 248 
Q 594 497 594 1153 
L 594 3053 
L 172 3053 
L 172 3500 
L 594 3500 
L 594 4494 
L 1172 4494 
z
" transform="scale(0.015625)"/>
       <path id="DejaVuSans-6e" d="M 3513 2113 
L 3513 0 
L 2938 0 
L 2938 2094 
Q 2938 2591 2744 2837 
Q 2550 3084 2163 3084 
Q 1697 3084 1428 2787 
Q 1159 2491 1159 1978 
L 1159 0 
L 581 0 
L 581 3500 
L 1159 3500 
L 1159 2956 
Q 1366 3272 1645 3428 
Q 1925 3584 2291 3584 
Q 2894 3584 3203 3211 
Q 3513 2838 3513 2113 
z
" transform="scale(0.015625)"/>
      </defs>
      <use xlink:href="#DejaVuSans-43"/>
      <use xlink:href="#DejaVuSans-68" x="69.824219"/>
      <use xlink:href="#DejaVuSans-72" x="133.203125"/>
      <use xlink:href="#DejaVuSans-6f" x="172.066406"/>
      <use xlink:href="#DejaVuSans-6d" x="233.248047"/>
      <use xlink:href="#DejaVuSans-6f" x="330.660156"/>
      <use xlink:href="#DejaVuSans-73" x="391.841797"/>
      <use xlink:href="#DejaVuSans-6f" x="443.941406"/>
      <use xlink:href="#DejaVuSans-6d" x="505.123047"/>
      <use xlink:href="#DejaVuSans-65" x="602.535156"/>
      <use xlink:href="#DejaVuSans-20" x="664.058594"/>
      <use xlink:href="#DejaVuSans-50" x="695.845703"/>
      <use xlink:href="#DejaVuSans-6f" x="752.523438"/>
      <use xlink:href="#DejaVuSans-73" x="813.705078"/>
      <use xlink:href="#DejaVuSans-69" x="865.804688"/>
      <use xlink:href="#DejaVuSans-74" x="893.587891"/>
      <use xlink:href="#DejaVuSans-69" x="932.796875"/>
      <use xlink:href="#DejaVuSans-6f" x="960.580078"/>
      <use xlink:href="#DejaVuSans-6e" x="1021.761719"/>
      <use xlink:href="#DejaVuSans-73" x="1085.140625"/>
     </g>
    </g>
    <g id="text_9">
     <!-- 1e6 -->
     <g transform="translate(704.1575 370.987813) scale(0.1 -0.1)">
      <use xlink:href="#DejaVuSans-31"/>
      <use xlink:href="#DejaVuSans-65" x="63.623047"/>
      <use xlink:href="#DejaVuSans-36" x="125.146484"/>
     </g>
    </g>
   </g>
   <g id="matplotlib.axis_2">
    <g id="ytick_1">
     <g id="line2d_8">
      <defs>
       <path id="m9820e1f258" d="M 0 0 
L -3.5 0 
" style="stroke: #000000; stroke-width: 0.8"/>
      </defs>
      <g>
       <use xlink:href="#m9820e1f258" x="53.435625" y="339.84" style="stroke: #000000; stroke-width: 0.8"/>
      </g>
     </g>
     <g id="text_10">
      <!-- 0 -->
      <g transform="translate(37.528125 345.158906) scale(0.14 -0.14)">
       <use xlink:href="#DejaVuSans-30"/>
      </g>
     </g>
    </g>
    <g id="ytick_2">
     <g id="line2d_9">
      <g>
       <use xlink:href="#m9820e1f258" x="53.435625" y="271.404356" style="stroke: #000000; stroke-width: 0.8"/>
      </g>
     </g>
     <g id="text_11">
      <!-- 20 -->
      <g transform="translate(28.620625 276.723263) scale(0.14 -0.14)">
       <use xlink:href="#DejaVuSans-32"/>
       <use xlink:href="#DejaVuSans-30" x="63.623047"/>
      </g>
     </g>
    </g>
    <g id="ytick_3">
     <g id="line2d_10">
      <g>
       <use xlink:href="#m9820e1f258" x="53.435625" y="202.968713" style="stroke: #000000; stroke-width: 0.8"/>
      </g>
     </g>
     <g id="text_12">
      <!-- 40 -->
      <g transform="translate(28.620625 208.287619) scale(0.14 -0.14)">
       <use xlink:href="#DejaVuSans-34"/>
       <use xlink:href="#DejaVuSans-30" x="63.623047"/>
      </g>
     </g>
    </g>
    <g id="ytick_4">
     <g id="line2d_11">
      <g>
       <use xlink:href="#m9820e1f258" x="53.435625" y="134.533069" style="stroke: #000000; stroke-width: 0.8"/>
      </g>
     </g>
     <g id="text_13">
      <!-- 60 -->
      <g transform="translate(28.620625 139.851976) scale(0.14 -0.14)">
       <use xlink:href="#DejaVuSans-36"/>
       <use xlink:href="#DejaVuSans-30" x="63.623047"/>
      </g>
     </g>
    </g>
    <g id="ytick_5">
     <g id="line2d_12">
      <g>
       <use xlink:href="#m9820e1f258" x="53.435625" y="66.097426" style="stroke: #000000; stroke-width: 0.8"/>
      </g>
     </g>
     <g id="text_14">
      <!-- 80 -->
      <g transform="translate(28.620625 71.416332) scale(0.14 -0.14)">
       <use xlink:href="#DejaVuSans-38"/>
       <use xlink:href="#DejaVuSans-30" x="63.623047"/>
      </g>
     </g>
    </g>
    <g id="text_15">
     <!-- Coverage -->
     <g transform="translate(20.877187 216.642656) rotate(-90) scale(0.18 -0.18)">
      <defs>
       <path id="DejaVuSans-76" d="M 191 3500 
L 800 3500 
L 1894 563 
L 2988 3500 
L 3597 3500 
L 2284 0 
L 1503 0 
L 191 3500 
z
" transform="scale(0.015625)"/>
       <path id="DejaVuSans-61" d="M 2194 1759 
Q 1497 1759 1228 1600 
Q 959 1441 959 1056 
Q 959 750 1161 570 
Q 1363 391 1709 391 
Q 2188 391 2477 730 
Q 2766 1069 2766 1631 
L 2766 1759 
L 2194 1759 
z
M 3341 1997 
L 3341 0 
L 2766 0 
L 2766 531 
Q 2569 213 2275 61 
Q 1981 -91 1556 -91 
Q 1019 -91 701 211 
Q 384 513 384 1019 
Q 384 1609 779 1909 
Q 1175 2209 1959 2209 
L 2766 2209 
L 2766 2266 
Q 2766 2663 2505 2880 
Q 2244 3097 1772 3097 
Q 1472 3097 1187 3025 
Q 903 2953 641 2809 
L 641 3341 
Q 956 3463 1253 3523 
Q 1550 3584 1831 3584 
Q 2591 3584 2966 3190 
Q 3341 2797 3341 1997 
z
" transform="scale(0.015625)"/>
       <path id="DejaVuSans-67" d="M 2906 1791 
Q 2906 2416 2648 2759 
Q 2391 3103 1925 3103 
Q 1463 3103 1205 2759 
Q 947 2416 947 1791 
Q 947 1169 1205 825 
Q 1463 481 1925 481 
Q 2391 481 2648 825 
Q 2906 1169 2906 1791 
z
M 3481 434 
Q 3481 -459 3084 -895 
Q 2688 -1331 1869 -1331 
Q 1566 -1331 1297 -1286 
Q 1028 -1241 775 -1147 
L 775 -588 
Q 1028 -725 1275 -790 
Q 1522 -856 1778 -856 
Q 2344 -856 2625 -561 
Q 2906 -266 2906 331 
L 2906 616 
Q 2728 306 2450 153 
Q 2172 0 1784 0 
Q 1141 0 747 490 
Q 353 981 353 1791 
Q 353 2603 747 3093 
Q 1141 3584 1784 3584 
Q 2172 3584 2450 3431 
Q 2728 3278 2906 2969 
L 2906 3500 
L 3481 3500 
L 3481 434 
z
" transform="scale(0.015625)"/>
      </defs>
      <use xlink:href="#DejaVuSans-43"/>
      <use xlink:href="#DejaVuSans-6f" x="69.824219"/>
      <use xlink:href="#DejaVuSans-76" x="131.005859"/>
      <use xlink:href="#DejaVuSans-65" x="190.185547"/>
      <use xlink:href="#DejaVuSans-72" x="251.708984"/>
      <use xlink:href="#DejaVuSans-61" x="292.822266"/>
      <use xlink:href="#DejaVuSans-67" x="354.101562"/>
      <use xlink:href="#DejaVuSans-65" x="417.578125"/>
     </g>
    </g>
   </g>
   <g id="patch_121">
    <path d="M 53.435625 339.84 
L 53.435625 7.2 
" style="fill: none; stroke: #000000; stroke-width: 0.8; stroke-linejoin: miter; stroke-linecap: square"/>
   </g>
   <g id="patch_122">
    <path d="M 723.035625 339.84 
L 723.035625 7.2 
" style="fill: none; stroke: #000000; stroke-width: 0.8; stroke-linejoin: miter; stroke-linecap: square"/>
   </g>
   <g id="patch_123">
    <path d="M 53.435625 339.84 
L 723.035625 339.84 
" style="fill: none; stroke: #000000; stroke-width: 0.8; stroke-linejoin: miter; stroke-linecap: square"/>
   </g>
   <g id="patch_124">
    <path d="M 53.435625 7.2 
L 723.035625 7.2 
" style="fill: none; stroke: #000000; stroke-width: 0.8; stroke-linejoin: miter; stroke-linecap: square"/>
   </g>
  </g>
 </g>
 <defs>
  <clipPath id="p6625d3cfa8">
   <rect x="53.435625" y="7.2" width="669.6" height="332.64"/>
  </clipPath>
 </defs>
</svg>
