<?xml version="1.0" encoding="utf-8" standalone="no"?>
<!DOCTYPE svg PUBLIC "-//W3C//DTD SVG 1.1//EN"
  "http://www.w3.org/Graphics/SVG/1.1/DTD/svg11.dtd">
<svg xmlns:xlink="http://www.w3.org/1999/xlink" width="739.143125pt" height="389.01pt" viewBox="0 0 739.143125 389.01" xmlns="http://www.w3.org/2000/svg" version="1.1">
 <metadata>
  <rdf:RDF xmlns:dc="http://purl.org/dc/elements/1.1/" xmlns:cc="http://creativecommons.org/ns#" xmlns:rdf="http://www.w3.org/1999/02/22-rdf-syntax-ns#">
   <cc:Work>
    <dc:type rdf:resource="http://purl.org/dc/dcmitype/StillImage"/>
    <dc:date>2025-06-24T15:53:12.862483</dc:date>
    <dc:format>image/svg+xml</dc:format>
    <dc:creator>
     <cc:Agent>
      <dc:title>Matplotlib v3.7.3, https://matplotlib.org/</dc:title>
     </cc:Agent>
    </dc:creator>
   </cc:Work>
  </rdf:RDF>
 </metadata>
 <defs>
  <style type="text/css">*{stroke-linejoin: round; stroke-linecap: butt}</style>
 </defs>
 <g id="figure_1">
  <g id="patch_1">
   <path d="M 0 389.01 
L 739.143125 389.01 
L 739.143125 0 
L 0 0 
z
" style="fill: #ffffff"/>
  </g>
  <g id="axes_1">
   <g id="patch_2">
    <path d="M 62.343125 339.84 
L 731.943125 339.84 
L 731.943125 7.2 
L 62.343125 7.2 
z
" style="fill: #ffffff"/>
   </g>
   <g id="patch_3">
    <path d="M 92.779489 339.84 
L 97.127541 339.84 
L 97.127541 337.387826 
L 92.779489 337.387826 
z
" clip-path="url(#p6f353360bf)" style="fill: #1f77b4; stroke: #000000; stroke-linejoin: miter"/>
   </g>
   <g id="patch_4">
    <path d="M 97.127541 339.84 
L 101.475593 339.84 
L 101.475593 335.259524 
L 97.127541 335.259524 
z
" clip-path="url(#p6f353360bf)" style="fill: #1f77b4; stroke: #000000; stroke-linejoin: miter"/>
   </g>
   <g id="patch_5">
    <path d="M 101.475593 339.84 
L 105.823644 339.84 
L 105.823644 197.430573 
L 101.475593 197.430573 
z
" clip-path="url(#p6f353360bf)" style="fill: #1f77b4; stroke: #000000; stroke-linejoin: miter"/>
   </g>
   <g id="patch_6">
    <path d="M 105.823644 339.84 
L 110.171696 339.84 
L 110.171696 204.571244 
L 105.823644 204.571244 
z
" clip-path="url(#p6f353360bf)" style="fill: #1f77b4; stroke: #000000; stroke-linejoin: miter"/>
   </g>
   <g id="patch_7">
    <path d="M 110.171696 339.84 
L 114.519748 339.84 
L 114.519748 144.325495 
L 110.171696 144.325495 
z
" clip-path="url(#p6f353360bf)" style="fill: #1f77b4; stroke: #000000; stroke-linejoin: miter"/>
   </g>
   <g id="patch_8">
    <path d="M 114.519748 339.84 
L 118.8678 339.84 
L 118.8678 142.117346 
L 114.519748 142.117346 
z
" clip-path="url(#p6f353360bf)" style="fill: #1f77b4; stroke: #000000; stroke-linejoin: miter"/>
   </g>
   <g id="patch_9">
    <path d="M 118.8678 339.84 
L 123.215852 339.84 
L 123.215852 85.412917 
L 118.8678 85.412917 
z
" clip-path="url(#p6f353360bf)" style="fill: #1f77b4; stroke: #000000; stroke-linejoin: miter"/>
   </g>
   <g id="patch_10">
    <path d="M 123.215852 339.84 
L 127.563904 339.84 
L 127.563904 144.20355 
L 123.215852 144.20355 
z
" clip-path="url(#p6f353360bf)" style="fill: #1f77b4; stroke: #000000; stroke-linejoin: miter"/>
   </g>
   <g id="patch_11">
    <path d="M 127.563904 339.84 
L 131.911956 339.84 
L 131.911956 56.067344 
L 127.563904 56.067344 
z
" clip-path="url(#p6f353360bf)" style="fill: #1f77b4; stroke: #000000; stroke-linejoin: miter"/>
   </g>
   <g id="patch_12">
    <path d="M 131.911956 339.84 
L 136.260008 339.84 
L 136.260008 118.50465 
L 131.911956 118.50465 
z
" clip-path="url(#p6f353360bf)" style="fill: #1f77b4; stroke: #000000; stroke-linejoin: miter"/>
   </g>
   <g id="patch_13">
    <path d="M 136.260008 339.84 
L 140.60806 339.84 
L 140.60806 79.215858 
L 136.260008 79.215858 
z
" clip-path="url(#p6f353360bf)" style="fill: #1f77b4; stroke: #000000; stroke-linejoin: miter"/>
   </g>
   <g id="patch_14">
    <path d="M 140.60806 339.84 
L 144.956112 339.84 
L 144.956112 102.911647 
L 140.60806 102.911647 
z
" clip-path="url(#p6f353360bf)" style="fill: #1f77b4; stroke: #000000; stroke-linejoin: miter"/>
   </g>
   <g id="patch_15">
    <path d="M 144.956112 339.84 
L 149.304164 339.84 
L 149.304164 45.479718 
L 144.956112 45.479718 
z
" clip-path="url(#p6f353360bf)" style="fill: #1f77b4; stroke: #000000; stroke-linejoin: miter"/>
   </g>
   <g id="patch_16">
    <path d="M 149.304164 339.84 
L 153.652216 339.84 
L 153.652216 61.573992 
L 149.304164 61.573992 
z
" clip-path="url(#p6f353360bf)" style="fill: #1f77b4; stroke: #000000; stroke-linejoin: miter"/>
   </g>
   <g id="patch_17">
    <path d="M 153.652216 339.84 
L 158.000268 339.84 
L 158.000268 76.087059 
L 153.652216 76.087059 
z
" clip-path="url(#p6f353360bf)" style="fill: #1f77b4; stroke: #000000; stroke-linejoin: miter"/>
   </g>
   <g id="patch_18">
    <path d="M 158.000268 339.84 
L 162.34832 339.84 
L 162.34832 97.007136 
L 158.000268 97.007136 
z
" clip-path="url(#p6f353360bf)" style="fill: #1f77b4; stroke: #000000; stroke-linejoin: miter"/>
   </g>
   <g id="patch_19">
    <path d="M 162.34832 339.84 
L 166.696372 339.84 
L 166.696372 54.774783 
L 162.34832 54.774783 
z
" clip-path="url(#p6f353360bf)" style="fill: #1f77b4; stroke: #000000; stroke-linejoin: miter"/>
   </g>
   <g id="patch_20">
    <path d="M 166.696372 339.84 
L 171.044424 339.84 
L 171.044424 23.04 
L 166.696372 23.04 
z
" clip-path="url(#p6f353360bf)" style="fill: #1f77b4; stroke: #000000; stroke-linejoin: miter"/>
   </g>
   <g id="patch_21">
    <path d="M 171.044424 339.84 
L 175.392476 339.84 
L 175.392476 51.386911 
L 171.044424 51.386911 
z
" clip-path="url(#p6f353360bf)" style="fill: #1f77b4; stroke: #000000; stroke-linejoin: miter"/>
   </g>
   <g id="patch_22">
    <path d="M 175.392476 339.84 
L 179.740528 339.84 
L 179.740528 147.539811 
L 175.392476 147.539811 
z
" clip-path="url(#p6f353360bf)" style="fill: #1f77b4; stroke: #000000; stroke-linejoin: miter"/>
   </g>
   <g id="patch_23">
    <path d="M 179.740528 339.84 
L 184.08858 339.84 
L 184.08858 231.476499 
L 179.740528 231.476499 
z
" clip-path="url(#p6f353360bf)" style="fill: #1f77b4; stroke: #000000; stroke-linejoin: miter"/>
   </g>
   <g id="patch_24">
    <path d="M 184.08858 339.84 
L 188.436631 339.84 
L 188.436631 206.644678 
L 184.08858 206.644678 
z
" clip-path="url(#p6f353360bf)" style="fill: #1f77b4; stroke: #000000; stroke-linejoin: miter"/>
   </g>
   <g id="patch_25">
    <path d="M 188.436631 339.84 
L 192.784683 339.84 
L 192.784683 196.197869 
L 188.436631 196.197869 
z
" clip-path="url(#p6f353360bf)" style="fill: #1f77b4; stroke: #000000; stroke-linejoin: miter"/>
   </g>
   <g id="patch_26">
    <path d="M 192.784683 339.84 
L 197.132735 339.84 
L 197.132735 219.485141 
L 192.784683 219.485141 
z
" clip-path="url(#p6f353360bf)" style="fill: #1f77b4; stroke: #000000; stroke-linejoin: miter"/>
   </g>
   <g id="patch_27">
    <path d="M 197.132735 339.84 
L 201.480787 339.84 
L 201.480787 197.447664 
L 197.132735 197.447664 
z
" clip-path="url(#p6f353360bf)" style="fill: #1f77b4; stroke: #000000; stroke-linejoin: miter"/>
   </g>
   <g id="patch_28">
    <path d="M 201.480787 339.84 
L 205.828839 339.84 
L 205.828839 209.686154 
L 201.480787 209.686154 
z
" clip-path="url(#p6f353360bf)" style="fill: #1f77b4; stroke: #000000; stroke-linejoin: miter"/>
   </g>
   <g id="patch_29">
    <path d="M 205.828839 339.84 
L 210.176891 339.84 
L 210.176891 160.290384 
L 205.828839 160.290384 
z
" clip-path="url(#p6f353360bf)" style="fill: #1f77b4; stroke: #000000; stroke-linejoin: miter"/>
   </g>
   <g id="patch_30">
    <path d="M 210.176891 339.84 
L 214.524943 339.84 
L 214.524943 177.370054 
L 210.176891 177.370054 
z
" clip-path="url(#p6f353360bf)" style="fill: #1f77b4; stroke: #000000; stroke-linejoin: miter"/>
   </g>
   <g id="patch_31">
    <path d="M 214.524943 339.84 
L 218.872995 339.84 
L 218.872995 198.885411 
L 214.524943 198.885411 
z
" clip-path="url(#p6f353360bf)" style="fill: #1f77b4; stroke: #000000; stroke-linejoin: miter"/>
   </g>
   <g id="patch_32">
    <path d="M 218.872995 339.84 
L 223.221047 339.84 
L 223.221047 205.171733 
L 218.872995 205.171733 
z
" clip-path="url(#p6f353360bf)" style="fill: #1f77b4; stroke: #000000; stroke-linejoin: miter"/>
   </g>
   <g id="patch_33">
    <path d="M 223.221047 339.84 
L 227.569099 339.84 
L 227.569099 204.991041 
L 223.221047 204.991041 
z
" clip-path="url(#p6f353360bf)" style="fill: #1f77b4; stroke: #000000; stroke-linejoin: miter"/>
   </g>
   <g id="patch_34">
    <path d="M 227.569099 339.84 
L 231.917151 339.84 
L 231.917151 271.455989 
L 227.569099 271.455989 
z
" clip-path="url(#p6f353360bf)" style="fill: #1f77b4; stroke: #000000; stroke-linejoin: miter"/>
   </g>
   <g id="patch_35">
    <path d="M 231.917151 339.84 
L 236.265203 339.84 
L 236.265203 137.972928 
L 231.917151 137.972928 
z
" clip-path="url(#p6f353360bf)" style="fill: #1f77b4; stroke: #000000; stroke-linejoin: miter"/>
   </g>
   <g id="patch_36">
    <path d="M 236.265203 339.84 
L 240.613255 339.84 
L 240.613255 200.537659 
L 236.265203 200.537659 
z
" clip-path="url(#p6f353360bf)" style="fill: #1f77b4; stroke: #000000; stroke-linejoin: miter"/>
   </g>
   <g id="patch_37">
    <path d="M 240.613255 339.84 
L 244.961307 339.84 
L 244.961307 267.226057 
L 240.613255 267.226057 
z
" clip-path="url(#p6f353360bf)" style="fill: #1f77b4; stroke: #000000; stroke-linejoin: miter"/>
   </g>
   <g id="patch_38">
    <path d="M 244.961307 339.84 
L 249.309359 339.84 
L 249.309359 247.860345 
L 244.961307 247.860345 
z
" clip-path="url(#p6f353360bf)" style="fill: #1f77b4; stroke: #000000; stroke-linejoin: miter"/>
   </g>
   <g id="patch_39">
    <path d="M 249.309359 339.84 
L 253.657411 339.84 
L 253.657411 146.381718 
L 249.309359 146.381718 
z
" clip-path="url(#p6f353360bf)" style="fill: #1f77b4; stroke: #000000; stroke-linejoin: miter"/>
   </g>
   <g id="patch_40">
    <path d="M 253.657411 339.84 
L 258.005463 339.84 
L 258.005463 106.649079 
L 253.657411 106.649079 
z
" clip-path="url(#p6f353360bf)" style="fill: #1f77b4; stroke: #000000; stroke-linejoin: miter"/>
   </g>
   <g id="patch_41">
    <path d="M 258.005463 339.84 
L 262.353515 339.84 
L 262.353515 151.095808 
L 258.005463 151.095808 
z
" clip-path="url(#p6f353360bf)" style="fill: #1f77b4; stroke: #000000; stroke-linejoin: miter"/>
   </g>
   <g id="patch_42">
    <path d="M 262.353515 339.84 
L 266.701567 339.84 
L 266.701567 189.687118 
L 262.353515 189.687118 
z
" clip-path="url(#p6f353360bf)" style="fill: #1f77b4; stroke: #000000; stroke-linejoin: miter"/>
   </g>
   <g id="patch_43">
    <path d="M 266.701567 339.84 
L 271.049619 339.84 
L 271.049619 207.913043 
L 266.701567 207.913043 
z
" clip-path="url(#p6f353360bf)" style="fill: #1f77b4; stroke: #000000; stroke-linejoin: miter"/>
   </g>
   <g id="patch_44">
    <path d="M 271.049619 339.84 
L 275.39767 339.84 
L 275.39767 211.234625 
L 271.049619 211.234625 
z
" clip-path="url(#p6f353360bf)" style="fill: #1f77b4; stroke: #000000; stroke-linejoin: miter"/>
   </g>
   <g id="patch_45">
    <path d="M 275.39767 339.84 
L 279.745722 339.84 
L 279.745722 210.731566 
L 275.39767 210.731566 
z
" clip-path="url(#p6f353360bf)" style="fill: #1f77b4; stroke: #000000; stroke-linejoin: miter"/>
   </g>
   <g id="patch_46">
    <path d="M 279.745722 339.84 
L 284.093774 339.84 
L 284.093774 155.060399 
L 279.745722 155.060399 
z
" clip-path="url(#p6f353360bf)" style="fill: #1f77b4; stroke: #000000; stroke-linejoin: miter"/>
   </g>
   <g id="patch_47">
    <path d="M 284.093774 339.84 
L 288.441826 339.84 
L 288.441826 181.961739 
L 284.093774 181.961739 
z
" clip-path="url(#p6f353360bf)" style="fill: #1f77b4; stroke: #000000; stroke-linejoin: miter"/>
   </g>
   <g id="patch_48">
    <path d="M 288.441826 339.84 
L 292.789878 339.84 
L 292.789878 121.672558 
L 288.441826 121.672558 
z
" clip-path="url(#p6f353360bf)" style="fill: #1f77b4; stroke: #000000; stroke-linejoin: miter"/>
   </g>
   <g id="patch_49">
    <path d="M 292.789878 339.84 
L 297.13793 339.84 
L 297.13793 135.476455 
L 292.789878 135.476455 
z
" clip-path="url(#p6f353360bf)" style="fill: #1f77b4; stroke: #000000; stroke-linejoin: miter"/>
   </g>
   <g id="patch_50">
    <path d="M 297.13793 339.84 
L 301.485982 339.84 
L 301.485982 119.691116 
L 297.13793 119.691116 
z
" clip-path="url(#p6f353360bf)" style="fill: #1f77b4; stroke: #000000; stroke-linejoin: miter"/>
   </g>
   <g id="patch_51">
    <path d="M 301.485982 339.84 
L 305.834034 339.84 
L 305.834034 125.723772 
L 301.485982 125.723772 
z
" clip-path="url(#p6f353360bf)" style="fill: #1f77b4; stroke: #000000; stroke-linejoin: miter"/>
   </g>
   <g id="patch_52">
    <path d="M 305.834034 339.84 
L 310.182086 339.84 
L 310.182086 125.974329 
L 305.834034 125.974329 
z
" clip-path="url(#p6f353360bf)" style="fill: #1f77b4; stroke: #000000; stroke-linejoin: miter"/>
   </g>
   <g id="patch_53">
    <path d="M 310.182086 339.84 
L 314.530138 339.84 
L 314.530138 123.169614 
L 310.182086 123.169614 
z
" clip-path="url(#p6f353360bf)" style="fill: #1f77b4; stroke: #000000; stroke-linejoin: miter"/>
   </g>
   <g id="patch_54">
    <path d="M 314.530138 339.84 
L 318.87819 339.84 
L 318.87819 92.621755 
L 314.530138 92.621755 
z
" clip-path="url(#p6f353360bf)" style="fill: #1f77b4; stroke: #000000; stroke-linejoin: miter"/>
   </g>
   <g id="patch_55">
    <path d="M 318.87819 339.84 
L 323.226242 339.84 
L 323.226242 74.665923 
L 318.87819 74.665923 
z
" clip-path="url(#p6f353360bf)" style="fill: #1f77b4; stroke: #000000; stroke-linejoin: miter"/>
   </g>
   <g id="patch_56">
    <path d="M 323.226242 339.84 
L 327.574294 339.84 
L 327.574294 138.998597 
L 323.226242 138.998597 
z
" clip-path="url(#p6f353360bf)" style="fill: #1f77b4; stroke: #000000; stroke-linejoin: miter"/>
   </g>
   <g id="patch_57">
    <path d="M 327.574294 339.84 
L 331.922346 339.84 
L 331.922346 146.537712 
L 327.574294 146.537712 
z
" clip-path="url(#p6f353360bf)" style="fill: #1f77b4; stroke: #000000; stroke-linejoin: miter"/>
   </g>
   <g id="patch_58">
    <path d="M 331.922346 339.84 
L 336.270398 339.84 
L 336.270398 149.048131 
L 331.922346 149.048131 
z
" clip-path="url(#p6f353360bf)" style="fill: #1f77b4; stroke: #000000; stroke-linejoin: miter"/>
   </g>
   <g id="patch_59">
    <path d="M 336.270398 339.84 
L 340.61845 339.84 
L 340.61845 194.602183 
L 336.270398 194.602183 
z
" clip-path="url(#p6f353360bf)" style="fill: #1f77b4; stroke: #000000; stroke-linejoin: miter"/>
   </g>
   <g id="patch_60">
    <path d="M 340.61845 339.84 
L 344.966502 339.84 
L 344.966502 202.736232 
L 340.61845 202.736232 
z
" clip-path="url(#p6f353360bf)" style="fill: #1f77b4; stroke: #000000; stroke-linejoin: miter"/>
   </g>
   <g id="patch_61">
    <path d="M 344.966502 339.84 
L 349.314554 339.84 
L 349.314554 70.611739 
L 344.966502 70.611739 
z
" clip-path="url(#p6f353360bf)" style="fill: #1f77b4; stroke: #000000; stroke-linejoin: miter"/>
   </g>
   <g id="patch_62">
    <path d="M 349.314554 339.84 
L 353.662606 339.84 
L 353.662606 33.850641 
L 349.314554 33.850641 
z
" clip-path="url(#p6f353360bf)" style="fill: #1f77b4; stroke: #000000; stroke-linejoin: miter"/>
   </g>
   <g id="patch_63">
    <path d="M 353.662606 339.84 
L 358.010657 339.84 
L 358.010657 178.853103 
L 353.662606 178.853103 
z
" clip-path="url(#p6f353360bf)" style="fill: #1f77b4; stroke: #000000; stroke-linejoin: miter"/>
   </g>
   <g id="patch_64">
    <path d="M 358.010657 339.84 
L 362.358709 339.84 
L 362.358709 173.792795 
L 358.010657 173.792795 
z
" clip-path="url(#p6f353360bf)" style="fill: #1f77b4; stroke: #000000; stroke-linejoin: miter"/>
   </g>
   <g id="patch_65">
    <path d="M 362.358709 339.84 
L 366.706761 339.84 
L 366.706761 151.622421 
L 362.358709 151.622421 
z
" clip-path="url(#p6f353360bf)" style="fill: #1f77b4; stroke: #000000; stroke-linejoin: miter"/>
   </g>
   <g id="patch_66">
    <path d="M 366.706761 339.84 
L 371.054813 339.84 
L 371.054813 149.594973 
L 366.706761 149.594973 
z
" clip-path="url(#p6f353360bf)" style="fill: #1f77b4; stroke: #000000; stroke-linejoin: miter"/>
   </g>
   <g id="patch_67">
    <path d="M 371.054813 339.84 
L 375.402865 339.84 
L 375.402865 52.386658 
L 371.054813 52.386658 
z
" clip-path="url(#p6f353360bf)" style="fill: #1f77b4; stroke: #000000; stroke-linejoin: miter"/>
   </g>
   <g id="patch_68">
    <path d="M 375.402865 339.84 
L 379.750917 339.84 
L 379.750917 119.160375 
L 375.402865 119.160375 
z
" clip-path="url(#p6f353360bf)" style="fill: #1f77b4; stroke: #000000; stroke-linejoin: miter"/>
   </g>
   <g id="patch_69">
    <path d="M 379.750917 339.84 
L 384.098969 339.84 
L 384.098969 122.022987 
L 379.750917 122.022987 
z
" clip-path="url(#p6f353360bf)" style="fill: #1f77b4; stroke: #000000; stroke-linejoin: miter"/>
   </g>
   <g id="patch_70">
    <path d="M 384.098969 339.84 
L 388.447021 339.84 
L 388.447021 197.345182 
L 384.098969 197.345182 
z
" clip-path="url(#p6f353360bf)" style="fill: #1f77b4; stroke: #000000; stroke-linejoin: miter"/>
   </g>
   <g id="patch_71">
    <path d="M 388.447021 339.84 
L 392.795073 339.84 
L 392.795073 127.797019 
L 388.447021 127.797019 
z
" clip-path="url(#p6f353360bf)" style="fill: #1f77b4; stroke: #000000; stroke-linejoin: miter"/>
   </g>
   <g id="patch_72">
    <path d="M 392.795073 339.84 
L 397.143125 339.84 
L 397.143125 160.329723 
L 392.795073 160.329723 
z
" clip-path="url(#p6f353360bf)" style="fill: #1f77b4; stroke: #000000; stroke-linejoin: miter"/>
   </g>
   <g id="patch_73">
    <path d="M 397.143125 339.84 
L 401.491177 339.84 
L 401.491177 213.419289 
L 397.143125 213.419289 
z
" clip-path="url(#p6f353360bf)" style="fill: #1f77b4; stroke: #000000; stroke-linejoin: miter"/>
   </g>
   <g id="patch_74">
    <path d="M 401.491177 339.84 
L 405.839229 339.84 
L 405.839229 225.599348 
L 401.491177 225.599348 
z
" clip-path="url(#p6f353360bf)" style="fill: #1f77b4; stroke: #000000; stroke-linejoin: miter"/>
   </g>
   <g id="patch_75">
    <path d="M 405.839229 339.84 
L 410.187281 339.84 
L 410.187281 231.101883 
L 405.839229 231.101883 
z
" clip-path="url(#p6f353360bf)" style="fill: #1f77b4; stroke: #000000; stroke-linejoin: miter"/>
   </g>
   <g id="patch_76">
    <path d="M 410.187281 339.84 
L 414.535333 339.84 
L 414.535333 82.709683 
L 410.187281 82.709683 
z
" clip-path="url(#p6f353360bf)" style="fill: #1f77b4; stroke: #000000; stroke-linejoin: miter"/>
   </g>
   <g id="patch_77">
    <path d="M 414.535333 339.84 
L 418.883385 339.84 
L 418.883385 148.962101 
L 414.535333 148.962101 
z
" clip-path="url(#p6f353360bf)" style="fill: #1f77b4; stroke: #000000; stroke-linejoin: miter"/>
   </g>
   <g id="patch_78">
    <path d="M 418.883385 339.84 
L 423.231437 339.84 
L 423.231437 157.124081 
L 418.883385 157.124081 
z
" clip-path="url(#p6f353360bf)" style="fill: #1f77b4; stroke: #000000; stroke-linejoin: miter"/>
   </g>
   <g id="patch_79">
    <path d="M 423.231437 339.84 
L 427.579489 339.84 
L 427.579489 206.786285 
L 423.231437 206.786285 
z
" clip-path="url(#p6f353360bf)" style="fill: #1f77b4; stroke: #000000; stroke-linejoin: miter"/>
   </g>
   <g id="patch_80">
    <path d="M 427.579489 339.84 
L 431.927541 339.84 
L 431.927541 183.453472 
L 427.579489 183.453472 
z
" clip-path="url(#p6f353360bf)" style="fill: #1f77b4; stroke: #000000; stroke-linejoin: miter"/>
   </g>
   <g id="patch_81">
    <path d="M 431.927541 339.84 
L 436.275593 339.84 
L 436.275593 215.006184 
L 431.927541 215.006184 
z
" clip-path="url(#p6f353360bf)" style="fill: #1f77b4; stroke: #000000; stroke-linejoin: miter"/>
   </g>
   <g id="patch_82">
    <path d="M 436.275593 339.84 
L 440.623644 339.84 
L 440.623644 183.407652 
L 436.275593 183.407652 
z
" clip-path="url(#p6f353360bf)" style="fill: #1f77b4; stroke: #000000; stroke-linejoin: miter"/>
   </g>
   <g id="patch_83">
    <path d="M 440.623644 339.84 
L 444.971696 339.84 
L 444.971696 159.605217 
L 440.623644 159.605217 
z
" clip-path="url(#p6f353360bf)" style="fill: #1f77b4; stroke: #000000; stroke-linejoin: miter"/>
   </g>
   <g id="patch_84">
    <path d="M 444.971696 339.84 
L 449.319748 339.84 
L 449.319748 209.470895 
L 444.971696 209.470895 
z
" clip-path="url(#p6f353360bf)" style="fill: #1f77b4; stroke: #000000; stroke-linejoin: miter"/>
   </g>
   <g id="patch_85">
    <path d="M 449.319748 339.84 
L 453.6678 339.84 
L 453.6678 268.64682 
L 449.319748 268.64682 
z
" clip-path="url(#p6f353360bf)" style="fill: #1f77b4; stroke: #000000; stroke-linejoin: miter"/>
   </g>
   <g id="patch_86">
    <path d="M 453.6678 339.84 
L 458.015852 339.84 
L 458.015852 200.066087 
L 453.6678 200.066087 
z
" clip-path="url(#p6f353360bf)" style="fill: #1f77b4; stroke: #000000; stroke-linejoin: miter"/>
   </g>
   <g id="patch_87">
    <path d="M 458.015852 339.84 
L 462.363904 339.84 
L 462.363904 230.977798 
L 458.015852 230.977798 
z
" clip-path="url(#p6f353360bf)" style="fill: #1f77b4; stroke: #000000; stroke-linejoin: miter"/>
   </g>
   <g id="patch_88">
    <path d="M 462.363904 339.84 
L 466.711956 339.84 
L 466.711956 175.801569 
L 462.363904 175.801569 
z
" clip-path="url(#p6f353360bf)" style="fill: #1f77b4; stroke: #000000; stroke-linejoin: miter"/>
   </g>
   <g id="patch_89">
    <path d="M 466.711956 339.84 
L 471.060008 339.84 
L 471.060008 167.158942 
L 466.711956 167.158942 
z
" clip-path="url(#p6f353360bf)" style="fill: #1f77b4; stroke: #000000; stroke-linejoin: miter"/>
   </g>
   <g id="patch_90">
    <path d="M 471.060008 339.84 
L 475.40806 339.84 
L 475.40806 153.647471 
L 471.060008 153.647471 
z
" clip-path="url(#p6f353360bf)" style="fill: #1f77b4; stroke: #000000; stroke-linejoin: miter"/>
   </g>
   <g id="patch_91">
    <path d="M 475.40806 339.84 
L 479.756112 339.84 
L 479.756112 329.306314 
L 475.40806 329.306314 
z
" clip-path="url(#p6f353360bf)" style="fill: #1f77b4; stroke: #000000; stroke-linejoin: miter"/>
   </g>
   <g id="patch_92">
    <path d="M 479.756112 339.84 
L 484.104164 339.84 
L 484.104164 168.027028 
L 479.756112 168.027028 
z
" clip-path="url(#p6f353360bf)" style="fill: #1f77b4; stroke: #000000; stroke-linejoin: miter"/>
   </g>
   <g id="patch_93">
    <path d="M 484.104164 339.84 
L 488.452216 339.84 
L 488.452216 203.284565 
L 484.104164 203.284565 
z
" clip-path="url(#p6f353360bf)" style="fill: #1f77b4; stroke: #000000; stroke-linejoin: miter"/>
   </g>
   <g id="patch_94">
    <path d="M 488.452216 339.84 
L 492.800268 339.84 
L 492.800268 257.045341 
L 488.452216 257.045341 
z
" clip-path="url(#p6f353360bf)" style="fill: #1f77b4; stroke: #000000; stroke-linejoin: miter"/>
   </g>
   <g id="patch_95">
    <path d="M 492.800268 339.84 
L 497.14832 339.84 
L 497.14832 173.151026 
L 492.800268 173.151026 
z
" clip-path="url(#p6f353360bf)" style="fill: #1f77b4; stroke: #000000; stroke-linejoin: miter"/>
   </g>
   <g id="patch_96">
    <path d="M 497.14832 339.84 
L 501.496372 339.84 
L 501.496372 234.549783 
L 497.14832 234.549783 
z
" clip-path="url(#p6f353360bf)" style="fill: #1f77b4; stroke: #000000; stroke-linejoin: miter"/>
   </g>
   <g id="patch_97">
    <path d="M 501.496372 339.84 
L 505.844424 339.84 
L 505.844424 224.24 
L 501.496372 224.24 
z
" clip-path="url(#p6f353360bf)" style="fill: #1f77b4; stroke: #000000; stroke-linejoin: miter"/>
   </g>
   <g id="patch_98">
    <path d="M 505.844424 339.84 
L 510.192476 339.84 
L 510.192476 282.355705 
L 505.844424 282.355705 
z
" clip-path="url(#p6f353360bf)" style="fill: #1f77b4; stroke: #000000; stroke-linejoin: miter"/>
   </g>
   <g id="patch_99">
    <path d="M 510.192476 339.84 
L 514.540528 339.84 
L 514.540528 244.377906 
L 510.192476 244.377906 
z
" clip-path="url(#p6f353360bf)" style="fill: #1f77b4; stroke: #000000; stroke-linejoin: miter"/>
   </g>
   <g id="patch_100">
    <path d="M 514.540528 339.84 
L 518.88858 339.84 
L 518.88858 257.301643 
L 514.540528 257.301643 
z
" clip-path="url(#p6f353360bf)" style="fill: #1f77b4; stroke: #000000; stroke-linejoin: miter"/>
   </g>
   <g id="patch_101">
    <path d="M 518.88858 339.84 
L 523.236631 339.84 
L 523.236631 292.161038 
L 518.88858 292.161038 
z
" clip-path="url(#p6f353360bf)" style="fill: #1f77b4; stroke: #000000; stroke-linejoin: miter"/>
   </g>
   <g id="patch_102">
    <path d="M 523.236631 339.84 
L 527.584683 339.84 
L 527.584683 113.100801 
L 523.236631 113.100801 
z
" clip-path="url(#p6f353360bf)" style="fill: #1f77b4; stroke: #000000; stroke-linejoin: miter"/>
   </g>
   <g id="patch_103">
    <path d="M 527.584683 339.84 
L 531.932735 339.84 
L 531.932735 245.280401 
L 527.584683 245.280401 
z
" clip-path="url(#p6f353360bf)" style="fill: #1f77b4; stroke: #000000; stroke-linejoin: miter"/>
   </g>
   <g id="patch_104">
    <path d="M 531.932735 339.84 
L 536.280787 339.84 
L 536.280787 267.718401 
L 531.932735 267.718401 
z
" clip-path="url(#p6f353360bf)" style="fill: #1f77b4; stroke: #000000; stroke-linejoin: miter"/>
   </g>
   <g id="patch_105">
    <path d="M 536.280787 339.84 
L 540.628839 339.84 
L 540.628839 222.046157 
L 536.280787 222.046157 
z
" clip-path="url(#p6f353360bf)" style="fill: #1f77b4; stroke: #000000; stroke-linejoin: miter"/>
   </g>
   <g id="patch_106">
    <path d="M 540.628839 339.84 
L 544.976891 339.84 
L 544.976891 253.520187 
L 540.628839 253.520187 
z
" clip-path="url(#p6f353360bf)" style="fill: #1f77b4; stroke: #000000; stroke-linejoin: miter"/>
   </g>
   <g id="patch_107">
    <path d="M 544.976891 339.84 
L 549.324943 339.84 
L 549.324943 223.807589 
L 544.976891 223.807589 
z
" clip-path="url(#p6f353360bf)" style="fill: #1f77b4; stroke: #000000; stroke-linejoin: miter"/>
   </g>
   <g id="patch_108">
    <path d="M 549.324943 339.84 
L 553.672995 339.84 
L 553.672995 242.560088 
L 549.324943 242.560088 
z
" clip-path="url(#p6f353360bf)" style="fill: #1f77b4; stroke: #000000; stroke-linejoin: miter"/>
   </g>
   <g id="patch_109">
    <path d="M 553.672995 339.84 
L 558.021047 339.84 
L 558.021047 257.207032 
L 553.672995 257.207032 
z
" clip-path="url(#p6f353360bf)" style="fill: #1f77b4; stroke: #000000; stroke-linejoin: miter"/>
   </g>
   <g id="patch_110">
    <path d="M 558.021047 339.84 
L 562.369099 339.84 
L 562.369099 281.247905 
L 558.021047 281.247905 
z
" clip-path="url(#p6f353360bf)" style="fill: #1f77b4; stroke: #000000; stroke-linejoin: miter"/>
   </g>
   <g id="patch_111">
    <path d="M 562.369099 339.84 
L 566.717151 339.84 
L 566.717151 162.709986 
L 562.369099 162.709986 
z
" clip-path="url(#p6f353360bf)" style="fill: #1f77b4; stroke: #000000; stroke-linejoin: miter"/>
   </g>
   <g id="patch_112">
    <path d="M 566.717151 339.84 
L 571.065203 339.84 
L 571.065203 221.904315 
L 566.717151 221.904315 
z
" clip-path="url(#p6f353360bf)" style="fill: #1f77b4; stroke: #000000; stroke-linejoin: miter"/>
   </g>
   <g id="patch_113">
    <path d="M 571.065203 339.84 
L 575.413255 339.84 
L 575.413255 275.069599 
L 571.065203 275.069599 
z
" clip-path="url(#p6f353360bf)" style="fill: #1f77b4; stroke: #000000; stroke-linejoin: miter"/>
   </g>
   <g id="patch_114">
    <path d="M 575.413255 339.84 
L 579.761307 339.84 
L 579.761307 273.166237 
L 575.413255 273.166237 
z
" clip-path="url(#p6f353360bf)" style="fill: #1f77b4; stroke: #000000; stroke-linejoin: miter"/>
   </g>
   <g id="patch_115">
    <path d="M 579.761307 339.84 
L 584.109359 339.84 
L 584.109359 240.929552 
L 579.761307 240.929552 
z
" clip-path="url(#p6f353360bf)" style="fill: #1f77b4; stroke: #000000; stroke-linejoin: miter"/>
   </g>
   <g id="patch_116">
    <path d="M 584.109359 339.84 
L 588.457411 339.84 
L 588.457411 221.963234 
L 584.109359 221.963234 
z
" clip-path="url(#p6f353360bf)" style="fill: #1f77b4; stroke: #000000; stroke-linejoin: miter"/>
   </g>
   <g id="patch_117">
    <path d="M 588.457411 339.84 
L 592.805463 339.84 
L 592.805463 176.805974 
L 588.457411 176.805974 
z
" clip-path="url(#p6f353360bf)" style="fill: #1f77b4; stroke: #000000; stroke-linejoin: miter"/>
   </g>
   <g id="patch_118">
    <path d="M 592.805463 339.84 
L 597.153515 339.84 
L 597.153515 180.935524 
L 592.805463 180.935524 
z
" clip-path="url(#p6f353360bf)" style="fill: #1f77b4; stroke: #000000; stroke-linejoin: miter"/>
   </g>
   <g id="patch_119">
    <path d="M 597.153515 339.84 
L 601.501567 339.84 
L 601.501567 213.884418 
L 597.153515 213.884418 
z
" clip-path="url(#p6f353360bf)" style="fill: #1f77b4; stroke: #000000; stroke-linejoin: miter"/>
   </g>
   <g id="patch_120">
    <path d="M 601.501567 339.84 
L 605.849619 339.84 
L 605.849619 187.996793 
L 601.501567 187.996793 
z
" clip-path="url(#p6f353360bf)" style="fill: #1f77b4; stroke: #000000; stroke-linejoin: miter"/>
   </g>
   <g id="patch_121">
    <path d="M 605.849619 339.84 
L 610.19767 339.84 
L 610.19767 283.227607 
L 605.849619 283.227607 
z
" clip-path="url(#p6f353360bf)" style="fill: #1f77b4; stroke: #000000; stroke-linejoin: miter"/>
   </g>
   <g id="patch_122">
    <path d="M 610.19767 339.84 
L 614.545722 339.84 
L 614.545722 294.273785 
L 610.19767 294.273785 
z
" clip-path="url(#p6f353360bf)" style="fill: #1f77b4; stroke: #000000; stroke-linejoin: miter"/>
   </g>
   <g id="patch_123">
    <path d="M 614.545722 339.84 
L 618.893774 339.84 
L 618.893774 334.850359 
L 614.545722 334.850359 
z
" clip-path="url(#p6f353360bf)" style="fill: #1f77b4; stroke: #000000; stroke-linejoin: miter"/>
   </g>
   <g id="patch_124">
    <path d="M 618.893774 339.84 
L 623.241826 339.84 
L 623.241826 331.88829 
L 618.893774 331.88829 
z
" clip-path="url(#p6f353360bf)" style="fill: #1f77b4; stroke: #000000; stroke-linejoin: miter"/>
   </g>
   <g id="patch_125">
    <path d="M 623.241826 339.84 
L 627.589878 339.84 
L 627.589878 309.668452 
L 623.241826 309.668452 
z
" clip-path="url(#p6f353360bf)" style="fill: #1f77b4; stroke: #000000; stroke-linejoin: miter"/>
   </g>
   <g id="patch_126">
    <path d="M 627.589878 339.84 
L 631.93793 339.84 
L 631.93793 290.614129 
L 627.589878 290.614129 
z
" clip-path="url(#p6f353360bf)" style="fill: #1f77b4; stroke: #000000; stroke-linejoin: miter"/>
   </g>
   <g id="patch_127">
    <path d="M 631.93793 339.84 
L 636.285982 339.84 
L 636.285982 307.230042 
L 631.93793 307.230042 
z
" clip-path="url(#p6f353360bf)" style="fill: #1f77b4; stroke: #000000; stroke-linejoin: miter"/>
   </g>
   <g id="patch_128">
    <path d="M 636.285982 339.84 
L 640.634034 339.84 
L 640.634034 318.441863 
L 636.285982 318.441863 
z
" clip-path="url(#p6f353360bf)" style="fill: #1f77b4; stroke: #000000; stroke-linejoin: miter"/>
   </g>
   <g id="patch_129">
    <path d="M 640.634034 339.84 
L 644.982086 339.84 
L 644.982086 314.964339 
L 640.634034 314.964339 
z
" clip-path="url(#p6f353360bf)" style="fill: #1f77b4; stroke: #000000; stroke-linejoin: miter"/>
   </g>
   <g id="patch_130">
    <path d="M 644.982086 339.84 
L 649.330138 339.84 
L 649.330138 331.829565 
L 644.982086 331.829565 
z
" clip-path="url(#p6f353360bf)" style="fill: #1f77b4; stroke: #000000; stroke-linejoin: miter"/>
   </g>
   <g id="patch_131">
    <path d="M 649.330138 339.84 
L 653.67819 339.84 
L 653.67819 326.861421 
L 649.330138 326.861421 
z
" clip-path="url(#p6f353360bf)" style="fill: #1f77b4; stroke: #000000; stroke-linejoin: miter"/>
   </g>
   <g id="patch_132">
    <path d="M 653.67819 339.84 
L 658.026242 339.84 
L 658.026242 313.11976 
L 653.67819 313.11976 
z
" clip-path="url(#p6f353360bf)" style="fill: #1f77b4; stroke: #000000; stroke-linejoin: miter"/>
   </g>
   <g id="patch_133">
    <path d="M 658.026242 339.84 
L 662.374294 339.84 
L 662.374294 337.387826 
L 658.026242 337.387826 
z
" clip-path="url(#p6f353360bf)" style="fill: #1f77b4; stroke: #000000; stroke-linejoin: miter"/>
   </g>
   <g id="patch_134">
    <path d="M 662.374294 339.84 
L 666.722346 339.84 
L 666.722346 326.353043 
L 662.374294 326.353043 
z
" clip-path="url(#p6f353360bf)" style="fill: #1f77b4; stroke: #000000; stroke-linejoin: miter"/>
   </g>
   <g id="patch_135">
    <path d="M 666.722346 339.84 
L 671.070398 339.84 
L 671.070398 324.03342 
L 666.722346 324.03342 
z
" clip-path="url(#p6f353360bf)" style="fill: #1f77b4; stroke: #000000; stroke-linejoin: miter"/>
   </g>
   <g id="patch_136">
    <path d="M 671.070398 339.84 
L 675.41845 339.84 
L 675.41845 326.147061 
L 671.070398 326.147061 
z
" clip-path="url(#p6f353360bf)" style="fill: #1f77b4; stroke: #000000; stroke-linejoin: miter"/>
   </g>
   <g id="patch_137">
    <path d="M 675.41845 339.84 
L 679.766502 339.84 
L 679.766502 303.939314 
L 675.41845 303.939314 
z
" clip-path="url(#p6f353360bf)" style="fill: #1f77b4; stroke: #000000; stroke-linejoin: miter"/>
   </g>
   <g id="patch_138">
    <path d="M 679.766502 339.84 
L 684.114554 339.84 
L 684.114554 334.048696 
L 679.766502 334.048696 
z
" clip-path="url(#p6f353360bf)" style="fill: #1f77b4; stroke: #000000; stroke-linejoin: miter"/>
   </g>
   <g id="patch_139">
    <path d="M 684.114554 339.84 
L 688.462606 339.84 
L 688.462606 319.895652 
L 684.114554 319.895652 
z
" clip-path="url(#p6f353360bf)" style="fill: #1f77b4; stroke: #000000; stroke-linejoin: miter"/>
   </g>
   <g id="patch_140">
    <path d="M 688.462606 339.84 
L 692.810657 339.84 
L 692.810657 319.283478 
L 688.462606 319.283478 
z
" clip-path="url(#p6f353360bf)" style="fill: #1f77b4; stroke: #000000; stroke-linejoin: miter"/>
   </g>
   <g id="patch_141">
    <path d="M 692.810657 339.84 
L 697.158709 339.84 
L 697.158709 295.770271 
L 692.810657 295.770271 
z
" clip-path="url(#p6f353360bf)" style="fill: #1f77b4; stroke: #000000; stroke-linejoin: miter"/>
   </g>
   <g id="patch_142">
    <path d="M 697.158709 339.84 
L 701.506761 339.84 
L 701.506761 339.84 
L 697.158709 339.84 
z
" clip-path="url(#p6f353360bf)" style="fill: #1f77b4; stroke: #000000; stroke-linejoin: miter"/>
   </g>
   <g id="matplotlib.axis_1">
    <g id="xtick_1">
     <g id="line2d_1">
      <defs>
       <path id="m16330779a9" d="M 0 0 
L 0 3.5 
" style="stroke: #000000; stroke-width: 0.8"/>
      </defs>
      <g>
       <use xlink:href="#m16330779a9" x="90.605463" y="339.84" style="stroke: #000000; stroke-width: 0.8"/>
      </g>
     </g>
     <g id="text_1">
      <!-- 0.0 -->
      <g transform="translate(79.473275 357.477813) scale(0.14 -0.14)">
       <defs>
        <path id="DejaVuSans-30" d="M 2034 4250 
Q 1547 4250 1301 3770 
Q 1056 3291 1056 2328 
Q 1056 1369 1301 889 
Q 1547 409 2034 409 
Q 2525 409 2770 889 
Q 3016 1369 3016 2328 
Q 3016 3291 2770 3770 
Q 2525 4250 2034 4250 
z
M 2034 4750 
Q 2819 4750 3233 4129 
Q 3647 3509 3647 2328 
Q 3647 1150 3233 529 
Q 2819 -91 2034 -91 
Q 1250 -91 836 529 
Q 422 1150 422 2328 
Q 422 3509 836 4129 
Q 1250 4750 2034 4750 
z
" transform="scale(0.015625)"/>
        <path id="DejaVuSans-2e" d="M 684 794 
L 1344 794 
L 1344 0 
L 684 0 
L 684 794 
z
" transform="scale(0.015625)"/>
       </defs>
       <use xlink:href="#DejaVuSans-30"/>
       <use xlink:href="#DejaVuSans-2e" x="63.623047"/>
       <use xlink:href="#DejaVuSans-30" x="95.410156"/>
      </g>
     </g>
    </g>
    <g id="xtick_2">
     <g id="line2d_2">
      <g>
       <use xlink:href="#m16330779a9" x="177.566502" y="339.84" style="stroke: #000000; stroke-width: 0.8"/>
      </g>
     </g>
     <g id="text_2">
      <!-- 0.2 -->
      <g transform="translate(166.434314 357.477813) scale(0.14 -0.14)">
       <defs>
        <path id="DejaVuSans-32" d="M 1228 531 
L 3431 531 
L 3431 0 
L 469 0 
L 469 531 
Q 828 903 1448 1529 
Q 2069 2156 2228 2338 
Q 2531 2678 2651 2914 
Q 2772 3150 2772 3378 
Q 2772 3750 2511 3984 
Q 2250 4219 1831 4219 
Q 1534 4219 1204 4116 
Q 875 4013 500 3803 
L 500 4441 
Q 881 4594 1212 4672 
Q 1544 4750 1819 4750 
Q 2544 4750 2975 4387 
Q 3406 4025 3406 3419 
Q 3406 3131 3298 2873 
Q 3191 2616 2906 2266 
Q 2828 2175 2409 1742 
Q 1991 1309 1228 531 
z
" transform="scale(0.015625)"/>
       </defs>
       <use xlink:href="#DejaVuSans-30"/>
       <use xlink:href="#DejaVuSans-2e" x="63.623047"/>
       <use xlink:href="#DejaVuSans-32" x="95.410156"/>
      </g>
     </g>
    </g>
    <g id="xtick_3">
     <g id="line2d_3">
      <g>
       <use xlink:href="#m16330779a9" x="264.527541" y="339.84" style="stroke: #000000; stroke-width: 0.8"/>
      </g>
     </g>
     <g id="text_3">
      <!-- 0.4 -->
      <g transform="translate(253.395353 357.477813) scale(0.14 -0.14)">
       <defs>
        <path id="DejaVuSans-34" d="M 2419 4116 
L 825 1625 
L 2419 1625 
L 2419 4116 
z
M 2253 4666 
L 3047 4666 
L 3047 1625 
L 3713 1625 
L 3713 1100 
L 3047 1100 
L 3047 0 
L 2419 0 
L 2419 1100 
L 313 1100 
L 313 1709 
L 2253 4666 
z
" transform="scale(0.015625)"/>
       </defs>
       <use xlink:href="#DejaVuSans-30"/>
       <use xlink:href="#DejaVuSans-2e" x="63.623047"/>
       <use xlink:href="#DejaVuSans-34" x="95.410156"/>
      </g>
     </g>
    </g>
    <g id="xtick_4">
     <g id="line2d_4">
      <g>
       <use xlink:href="#m16330779a9" x="351.48858" y="339.84" style="stroke: #000000; stroke-width: 0.8"/>
      </g>
     </g>
     <g id="text_4">
      <!-- 0.6 -->
      <g transform="translate(340.356392 357.477813) scale(0.14 -0.14)">
       <defs>
        <path id="DejaVuSans-36" d="M 2113 2584 
Q 1688 2584 1439 2293 
Q 1191 2003 1191 1497 
Q 1191 994 1439 701 
Q 1688 409 2113 409 
Q 2538 409 2786 701 
Q 3034 994 3034 1497 
Q 3034 2003 2786 2293 
Q 2538 2584 2113 2584 
z
M 3366 4563 
L 3366 3988 
Q 3128 4100 2886 4159 
Q 2644 4219 2406 4219 
Q 1781 4219 1451 3797 
Q 1122 3375 1075 2522 
Q 1259 2794 1537 2939 
Q 1816 3084 2150 3084 
Q 2853 3084 3261 2657 
Q 3669 2231 3669 1497 
Q 3669 778 3244 343 
Q 2819 -91 2113 -91 
Q 1303 -91 875 529 
Q 447 1150 447 2328 
Q 447 3434 972 4092 
Q 1497 4750 2381 4750 
Q 2619 4750 2861 4703 
Q 3103 4656 3366 4563 
z
" transform="scale(0.015625)"/>
       </defs>
       <use xlink:href="#DejaVuSans-30"/>
       <use xlink:href="#DejaVuSans-2e" x="63.623047"/>
       <use xlink:href="#DejaVuSans-36" x="95.410156"/>
      </g>
     </g>
    </g>
    <g id="xtick_5">
     <g id="line2d_5">
      <g>
       <use xlink:href="#m16330779a9" x="438.449619" y="339.84" style="stroke: #000000; stroke-width: 0.8"/>
      </g>
     </g>
     <g id="text_5">
      <!-- 0.8 -->
      <g transform="translate(427.317431 357.477813) scale(0.14 -0.14)">
       <defs>
        <path id="DejaVuSans-38" d="M 2034 2216 
Q 1584 2216 1326 1975 
Q 1069 1734 1069 1313 
Q 1069 891 1326 650 
Q 1584 409 2034 409 
Q 2484 409 2743 651 
Q 3003 894 3003 1313 
Q 3003 1734 2745 1975 
Q 2488 2216 2034 2216 
z
M 1403 2484 
Q 997 2584 770 2862 
Q 544 3141 544 3541 
Q 544 4100 942 4425 
Q 1341 4750 2034 4750 
Q 2731 4750 3128 4425 
Q 3525 4100 3525 3541 
Q 3525 3141 3298 2862 
Q 3072 2584 2669 2484 
Q 3125 2378 3379 2068 
Q 3634 1759 3634 1313 
Q 3634 634 3220 271 
Q 2806 -91 2034 -91 
Q 1263 -91 848 271 
Q 434 634 434 1313 
Q 434 1759 690 2068 
Q 947 2378 1403 2484 
z
M 1172 3481 
Q 1172 3119 1398 2916 
Q 1625 2713 2034 2713 
Q 2441 2713 2670 2916 
Q 2900 3119 2900 3481 
Q 2900 3844 2670 4047 
Q 2441 4250 2034 4250 
Q 1625 4250 1398 4047 
Q 1172 3844 1172 3481 
z
" transform="scale(0.015625)"/>
       </defs>
       <use xlink:href="#DejaVuSans-30"/>
       <use xlink:href="#DejaVuSans-2e" x="63.623047"/>
       <use xlink:href="#DejaVuSans-38" x="95.410156"/>
      </g>
     </g>
    </g>
    <g id="xtick_6">
     <g id="line2d_6">
      <g>
       <use xlink:href="#m16330779a9" x="525.410657" y="339.84" style="stroke: #000000; stroke-width: 0.8"/>
      </g>
     </g>
     <g id="text_6">
      <!-- 1.0 -->
      <g transform="translate(514.27847 357.477813) scale(0.14 -0.14)">
       <defs>
        <path id="DejaVuSans-31" d="M 794 531 
L 1825 531 
L 1825 4091 
L 703 3866 
L 703 4441 
L 1819 4666 
L 2450 4666 
L 2450 531 
L 3481 531 
L 3481 0 
L 794 0 
L 794 531 
z
" transform="scale(0.015625)"/>
       </defs>
       <use xlink:href="#DejaVuSans-31"/>
       <use xlink:href="#DejaVuSans-2e" x="63.623047"/>
       <use xlink:href="#DejaVuSans-30" x="95.410156"/>
      </g>
     </g>
    </g>
    <g id="xtick_7">
     <g id="line2d_7">
      <g>
       <use xlink:href="#m16330779a9" x="612.371696" y="339.84" style="stroke: #000000; stroke-width: 0.8"/>
      </g>
     </g>
     <g id="text_7">
      <!-- 1.2 -->
      <g transform="translate(601.239509 357.477813) scale(0.14 -0.14)">
       <use xlink:href="#DejaVuSans-31"/>
       <use xlink:href="#DejaVuSans-2e" x="63.623047"/>
       <use xlink:href="#DejaVuSans-32" x="95.410156"/>
      </g>
     </g>
    </g>
    <g id="xtick_8">
     <g id="line2d_8">
      <g>
       <use xlink:href="#m16330779a9" x="699.332735" y="339.84" style="stroke: #000000; stroke-width: 0.8"/>
      </g>
     </g>
     <g id="text_8">
      <!-- 1.4 -->
      <g transform="translate(688.200548 357.477813) scale(0.14 -0.14)">
       <use xlink:href="#DejaVuSans-31"/>
       <use xlink:href="#DejaVuSans-2e" x="63.623047"/>
       <use xlink:href="#DejaVuSans-34" x="95.410156"/>
      </g>
     </g>
    </g>
    <g id="text_9">
     <!-- Chromosome Position -->
     <g transform="translate(299.481875 378.066563) scale(0.18 -0.18)">
      <defs>
       <path id="DejaVuSans-43" d="M 4122 4306 
L 4122 3641 
Q 3803 3938 3442 4084 
Q 3081 4231 2675 4231 
Q 1875 4231 1450 3742 
Q 1025 3253 1025 2328 
Q 1025 1406 1450 917 
Q 1875 428 2675 428 
Q 3081 428 3442 575 
Q 3803 722 4122 1019 
L 4122 359 
Q 3791 134 3420 21 
Q 3050 -91 2638 -91 
Q 1578 -91 968 557 
Q 359 1206 359 2328 
Q 359 3453 968 4101 
Q 1578 4750 2638 4750 
Q 3056 4750 3426 4639 
Q 3797 4528 4122 4306 
z
" transform="scale(0.015625)"/>
       <path id="DejaVuSans-68" d="M 3513 2113 
L 3513 0 
L 2938 0 
L 2938 2094 
Q 2938 2591 2744 2837 
Q 2550 3084 2163 3084 
Q 1697 3084 1428 2787 
Q 1159 2491 1159 1978 
L 1159 0 
L 581 0 
L 581 4863 
L 1159 4863 
L 1159 2956 
Q 1366 3272 1645 3428 
Q 1925 3584 2291 3584 
Q 2894 3584 3203 3211 
Q 3513 2838 3513 2113 
z
" transform="scale(0.015625)"/>
       <path id="DejaVuSans-72" d="M 2631 2963 
Q 2534 3019 2420 3045 
Q 2306 3072 2169 3072 
Q 1681 3072 1420 2755 
Q 1159 2438 1159 1844 
L 1159 0 
L 581 0 
L 581 3500 
L 1159 3500 
L 1159 2956 
Q 1341 3275 1631 3429 
Q 1922 3584 2338 3584 
Q 2397 3584 2469 3576 
Q 2541 3569 2628 3553 
L 2631 2963 
z
" transform="scale(0.015625)"/>
       <path id="DejaVuSans-6f" d="M 1959 3097 
Q 1497 3097 1228 2736 
Q 959 2375 959 1747 
Q 959 1119 1226 758 
Q 1494 397 1959 397 
Q 2419 397 2687 759 
Q 2956 1122 2956 1747 
Q 2956 2369 2687 2733 
Q 2419 3097 1959 3097 
z
M 1959 3584 
Q 2709 3584 3137 3096 
Q 3566 2609 3566 1747 
Q 3566 888 3137 398 
Q 2709 -91 1959 -91 
Q 1206 -91 779 398 
Q 353 888 353 1747 
Q 353 2609 779 3096 
Q 1206 3584 1959 3584 
z
" transform="scale(0.015625)"/>
       <path id="DejaVuSans-6d" d="M 3328 2828 
Q 3544 3216 3844 3400 
Q 4144 3584 4550 3584 
Q 5097 3584 5394 3201 
Q 5691 2819 5691 2113 
L 5691 0 
L 5113 0 
L 5113 2094 
Q 5113 2597 4934 2840 
Q 4756 3084 4391 3084 
Q 3944 3084 3684 2787 
Q 3425 2491 3425 1978 
L 3425 0 
L 2847 0 
L 2847 2094 
Q 2847 2600 2669 2842 
Q 2491 3084 2119 3084 
Q 1678 3084 1418 2786 
Q 1159 2488 1159 1978 
L 1159 0 
L 581 0 
L 581 3500 
L 1159 3500 
L 1159 2956 
Q 1356 3278 1631 3431 
Q 1906 3584 2284 3584 
Q 2666 3584 2933 3390 
Q 3200 3197 3328 2828 
z
" transform="scale(0.015625)"/>
       <path id="DejaVuSans-73" d="M 2834 3397 
L 2834 2853 
Q 2591 2978 2328 3040 
Q 2066 3103 1784 3103 
Q 1356 3103 1142 2972 
Q 928 2841 928 2578 
Q 928 2378 1081 2264 
Q 1234 2150 1697 2047 
L 1894 2003 
Q 2506 1872 2764 1633 
Q 3022 1394 3022 966 
Q 3022 478 2636 193 
Q 2250 -91 1575 -91 
Q 1294 -91 989 -36 
Q 684 19 347 128 
L 347 722 
Q 666 556 975 473 
Q 1284 391 1588 391 
Q 1994 391 2212 530 
Q 2431 669 2431 922 
Q 2431 1156 2273 1281 
Q 2116 1406 1581 1522 
L 1381 1569 
Q 847 1681 609 1914 
Q 372 2147 372 2553 
Q 372 3047 722 3315 
Q 1072 3584 1716 3584 
Q 2034 3584 2315 3537 
Q 2597 3491 2834 3397 
z
" transform="scale(0.015625)"/>
       <path id="DejaVuSans-65" d="M 3597 1894 
L 3597 1613 
L 953 1613 
Q 991 1019 1311 708 
Q 1631 397 2203 397 
Q 2534 397 2845 478 
Q 3156 559 3463 722 
L 3463 178 
Q 3153 47 2828 -22 
Q 2503 -91 2169 -91 
Q 1331 -91 842 396 
Q 353 884 353 1716 
Q 353 2575 817 3079 
Q 1281 3584 2069 3584 
Q 2775 3584 3186 3129 
Q 3597 2675 3597 1894 
z
M 3022 2063 
Q 3016 2534 2758 2815 
Q 2500 3097 2075 3097 
Q 1594 3097 1305 2825 
Q 1016 2553 972 2059 
L 3022 2063 
z
" transform="scale(0.015625)"/>
       <path id="DejaVuSans-20" transform="scale(0.015625)"/>
       <path id="DejaVuSans-50" d="M 1259 4147 
L 1259 2394 
L 2053 2394 
Q 2494 2394 2734 2622 
Q 2975 2850 2975 3272 
Q 2975 3691 2734 3919 
Q 2494 4147 2053 4147 
L 1259 4147 
z
M 628 4666 
L 2053 4666 
Q 2838 4666 3239 4311 
Q 3641 3956 3641 3272 
Q 3641 2581 3239 2228 
Q 2838 1875 2053 1875 
L 1259 1875 
L 1259 0 
L 628 0 
L 628 4666 
z
" transform="scale(0.015625)"/>
       <path id="DejaVuSans-69" d="M 603 3500 
L 1178 3500 
L 1178 0 
L 603 0 
L 603 3500 
z
M 603 4863 
L 1178 4863 
L 1178 4134 
L 603 4134 
L 603 4863 
z
" transform="scale(0.015625)"/>
       <path id="DejaVuSans-74" d="M 1172 4494 
L 1172 3500 
L 2356 3500 
L 2356 3053 
L 1172 3053 
L 1172 1153 
Q 1172 725 1289 603 
Q 1406 481 1766 481 
L 2356 481 
L 2356 0 
L 1766 0 
Q 1100 0 847 248 
Q 594 497 594 1153 
L 594 3053 
L 172 3053 
L 172 3500 
L 594 3500 
L 594 4494 
L 1172 4494 
z
" transform="scale(0.015625)"/>
       <path id="DejaVuSans-6e" d="M 3513 2113 
L 3513 0 
L 2938 0 
L 2938 2094 
Q 2938 2591 2744 2837 
Q 2550 3084 2163 3084 
Q 1697 3084 1428 2787 
Q 1159 2491 1159 1978 
L 1159 0 
L 581 0 
L 581 3500 
L 1159 3500 
L 1159 2956 
Q 1366 3272 1645 3428 
Q 1925 3584 2291 3584 
Q 2894 3584 3203 3211 
Q 3513 2838 3513 2113 
z
" transform="scale(0.015625)"/>
      </defs>
      <use xlink:href="#DejaVuSans-43"/>
      <use xlink:href="#DejaVuSans-68" x="69.824219"/>
      <use xlink:href="#DejaVuSans-72" x="133.203125"/>
      <use xlink:href="#DejaVuSans-6f" x="172.066406"/>
      <use xlink:href="#DejaVuSans-6d" x="233.248047"/>
      <use xlink:href="#DejaVuSans-6f" x="330.660156"/>
      <use xlink:href="#DejaVuSans-73" x="391.841797"/>
      <use xlink:href="#DejaVuSans-6f" x="443.941406"/>
      <use xlink:href="#DejaVuSans-6d" x="505.123047"/>
      <use xlink:href="#DejaVuSans-65" x="602.535156"/>
      <use xlink:href="#DejaVuSans-20" x="664.058594"/>
      <use xlink:href="#DejaVuSans-50" x="695.845703"/>
      <use xlink:href="#DejaVuSans-6f" x="752.523438"/>
      <use xlink:href="#DejaVuSans-73" x="813.705078"/>
      <use xlink:href="#DejaVuSans-69" x="865.804688"/>
      <use xlink:href="#DejaVuSans-74" x="893.587891"/>
      <use xlink:href="#DejaVuSans-69" x="932.796875"/>
      <use xlink:href="#DejaVuSans-6f" x="960.580078"/>
      <use xlink:href="#DejaVuSans-6e" x="1021.761719"/>
     </g>
    </g>
    <g id="text_10">
     <!-- 1e6 -->
     <g transform="translate(713.065 370.987813) scale(0.1 -0.1)">
      <use xlink:href="#DejaVuSans-31"/>
      <use xlink:href="#DejaVuSans-65" x="63.623047"/>
      <use xlink:href="#DejaVuSans-36" x="125.146484"/>
     </g>
    </g>
   </g>
   <g id="matplotlib.axis_2">
    <g id="ytick_1">
     <g id="line2d_9">
      <defs>
       <path id="me3cb4bc105" d="M 0 0 
L -3.5 0 
" style="stroke: #000000; stroke-width: 0.8"/>
      </defs>
      <g>
       <use xlink:href="#me3cb4bc105" x="62.343125" y="339.84" style="stroke: #000000; stroke-width: 0.8"/>
      </g>
     </g>
     <g id="text_11">
      <!-- 0 -->
      <g transform="translate(46.435625 345.158906) scale(0.14 -0.14)">
       <use xlink:href="#DejaVuSans-30"/>
      </g>
     </g>
    </g>
    <g id="ytick_2">
     <g id="line2d_10">
      <g>
       <use xlink:href="#me3cb4bc105" x="62.343125" y="290.796522" style="stroke: #000000; stroke-width: 0.8"/>
      </g>
     </g>
     <g id="text_12">
      <!-- 20 -->
      <g transform="translate(37.528125 296.115428) scale(0.14 -0.14)">
       <use xlink:href="#DejaVuSans-32"/>
       <use xlink:href="#DejaVuSans-30" x="63.623047"/>
      </g>
     </g>
    </g>
    <g id="ytick_3">
     <g id="line2d_11">
      <g>
       <use xlink:href="#me3cb4bc105" x="62.343125" y="241.753043" style="stroke: #000000; stroke-width: 0.8"/>
      </g>
     </g>
     <g id="text_13">
      <!-- 40 -->
      <g transform="translate(37.528125 247.07195) scale(0.14 -0.14)">
       <use xlink:href="#DejaVuSans-34"/>
       <use xlink:href="#DejaVuSans-30" x="63.623047"/>
      </g>
     </g>
    </g>
    <g id="ytick_4">
     <g id="line2d_12">
      <g>
       <use xlink:href="#me3cb4bc105" x="62.343125" y="192.709565" style="stroke: #000000; stroke-width: 0.8"/>
      </g>
     </g>
     <g id="text_14">
      <!-- 60 -->
      <g transform="translate(37.528125 198.028471) scale(0.14 -0.14)">
       <use xlink:href="#DejaVuSans-36"/>
       <use xlink:href="#DejaVuSans-30" x="63.623047"/>
      </g>
     </g>
    </g>
    <g id="ytick_5">
     <g id="line2d_13">
      <g>
       <use xlink:href="#me3cb4bc105" x="62.343125" y="143.666087" style="stroke: #000000; stroke-width: 0.8"/>
      </g>
     </g>
     <g id="text_15">
      <!-- 80 -->
      <g transform="translate(37.528125 148.984993) scale(0.14 -0.14)">
       <use xlink:href="#DejaVuSans-38"/>
       <use xlink:href="#DejaVuSans-30" x="63.623047"/>
      </g>
     </g>
    </g>
    <g id="ytick_6">
     <g id="line2d_14">
      <g>
       <use xlink:href="#me3cb4bc105" x="62.343125" y="94.622609" style="stroke: #000000; stroke-width: 0.8"/>
      </g>
     </g>
     <g id="text_16">
      <!-- 100 -->
      <g transform="translate(28.620625 99.941515) scale(0.14 -0.14)">
       <use xlink:href="#DejaVuSans-31"/>
       <use xlink:href="#DejaVuSans-30" x="63.623047"/>
       <use xlink:href="#DejaVuSans-30" x="127.246094"/>
      </g>
     </g>
    </g>
    <g id="ytick_7">
     <g id="line2d_15">
      <g>
       <use xlink:href="#me3cb4bc105" x="62.343125" y="45.57913" style="stroke: #000000; stroke-width: 0.8"/>
      </g>
     </g>
     <g id="text_17">
      <!-- 120 -->
      <g transform="translate(28.620625 50.898037) scale(0.14 -0.14)">
       <use xlink:href="#DejaVuSans-31"/>
       <use xlink:href="#DejaVuSans-32" x="63.623047"/>
       <use xlink:href="#DejaVuSans-30" x="127.246094"/>
      </g>
     </g>
    </g>
    <g id="text_18">
     <!-- Mean of Reduced Reads Lengths -->
     <g transform="translate(20.877187 320.198906) rotate(-90) scale(0.18 -0.18)">
      <defs>
       <path id="DejaVuSans-4d" d="M 628 4666 
L 1569 4666 
L 2759 1491 
L 3956 4666 
L 4897 4666 
L 4897 0 
L 4281 0 
L 4281 4097 
L 3078 897 
L 2444 897 
L 1241 4097 
L 1241 0 
L 628 0 
L 628 4666 
z
" transform="scale(0.015625)"/>
       <path id="DejaVuSans-61" d="M 2194 1759 
Q 1497 1759 1228 1600 
Q 959 1441 959 1056 
Q 959 750 1161 570 
Q 1363 391 1709 391 
Q 2188 391 2477 730 
Q 2766 1069 2766 1631 
L 2766 1759 
L 2194 1759 
z
M 3341 1997 
L 3341 0 
L 2766 0 
L 2766 531 
Q 2569 213 2275 61 
Q 1981 -91 1556 -91 
Q 1019 -91 701 211 
Q 384 513 384 1019 
Q 384 1609 779 1909 
Q 1175 2209 1959 2209 
L 2766 2209 
L 2766 2266 
Q 2766 2663 2505 2880 
Q 2244 3097 1772 3097 
Q 1472 3097 1187 3025 
Q 903 2953 641 2809 
L 641 3341 
Q 956 3463 1253 3523 
Q 1550 3584 1831 3584 
Q 2591 3584 2966 3190 
Q 3341 2797 3341 1997 
z
" transform="scale(0.015625)"/>
       <path id="DejaVuSans-66" d="M 2375 4863 
L 2375 4384 
L 1825 4384 
Q 1516 4384 1395 4259 
Q 1275 4134 1275 3809 
L 1275 3500 
L 2222 3500 
L 2222 3053 
L 1275 3053 
L 1275 0 
L 697 0 
L 697 3053 
L 147 3053 
L 147 3500 
L 697 3500 
L 697 3744 
Q 697 4328 969 4595 
Q 1241 4863 1831 4863 
L 2375 4863 
z
" transform="scale(0.015625)"/>
       <path id="DejaVuSans-52" d="M 2841 2188 
Q 3044 2119 3236 1894 
Q 3428 1669 3622 1275 
L 4263 0 
L 3584 0 
L 2988 1197 
Q 2756 1666 2539 1819 
Q 2322 1972 1947 1972 
L 1259 1972 
L 1259 0 
L 628 0 
L 628 4666 
L 2053 4666 
Q 2853 4666 3247 4331 
Q 3641 3997 3641 3322 
Q 3641 2881 3436 2590 
Q 3231 2300 2841 2188 
z
M 1259 4147 
L 1259 2491 
L 2053 2491 
Q 2509 2491 2742 2702 
Q 2975 2913 2975 3322 
Q 2975 3731 2742 3939 
Q 2509 4147 2053 4147 
L 1259 4147 
z
" transform="scale(0.015625)"/>
       <path id="DejaVuSans-64" d="M 2906 2969 
L 2906 4863 
L 3481 4863 
L 3481 0 
L 2906 0 
L 2906 525 
Q 2725 213 2448 61 
Q 2172 -91 1784 -91 
Q 1150 -91 751 415 
Q 353 922 353 1747 
Q 353 2572 751 3078 
Q 1150 3584 1784 3584 
Q 2172 3584 2448 3432 
Q 2725 3281 2906 2969 
z
M 947 1747 
Q 947 1113 1208 752 
Q 1469 391 1925 391 
Q 2381 391 2643 752 
Q 2906 1113 2906 1747 
Q 2906 2381 2643 2742 
Q 2381 3103 1925 3103 
Q 1469 3103 1208 2742 
Q 947 2381 947 1747 
z
" transform="scale(0.015625)"/>
       <path id="DejaVuSans-75" d="M 544 1381 
L 544 3500 
L 1119 3500 
L 1119 1403 
Q 1119 906 1312 657 
Q 1506 409 1894 409 
Q 2359 409 2629 706 
Q 2900 1003 2900 1516 
L 2900 3500 
L 3475 3500 
L 3475 0 
L 2900 0 
L 2900 538 
Q 2691 219 2414 64 
Q 2138 -91 1772 -91 
Q 1169 -91 856 284 
Q 544 659 544 1381 
z
M 1991 3584 
L 1991 3584 
z
" transform="scale(0.015625)"/>
       <path id="DejaVuSans-63" d="M 3122 3366 
L 3122 2828 
Q 2878 2963 2633 3030 
Q 2388 3097 2138 3097 
Q 1578 3097 1268 2742 
Q 959 2388 959 1747 
Q 959 1106 1268 751 
Q 1578 397 2138 397 
Q 2388 397 2633 464 
Q 2878 531 3122 666 
L 3122 134 
Q 2881 22 2623 -34 
Q 2366 -91 2075 -91 
Q 1284 -91 818 406 
Q 353 903 353 1747 
Q 353 2603 823 3093 
Q 1294 3584 2113 3584 
Q 2378 3584 2631 3529 
Q 2884 3475 3122 3366 
z
" transform="scale(0.015625)"/>
       <path id="DejaVuSans-4c" d="M 628 4666 
L 1259 4666 
L 1259 531 
L 3531 531 
L 3531 0 
L 628 0 
L 628 4666 
z
" transform="scale(0.015625)"/>
       <path id="DejaVuSans-67" d="M 2906 1791 
Q 2906 2416 2648 2759 
Q 2391 3103 1925 3103 
Q 1463 3103 1205 2759 
Q 947 2416 947 1791 
Q 947 1169 1205 825 
Q 1463 481 1925 481 
Q 2391 481 2648 825 
Q 2906 1169 2906 1791 
z
M 3481 434 
Q 3481 -459 3084 -895 
Q 2688 -1331 1869 -1331 
Q 1566 -1331 1297 -1286 
Q 1028 -1241 775 -1147 
L 775 -588 
Q 1028 -725 1275 -790 
Q 1522 -856 1778 -856 
Q 2344 -856 2625 -561 
Q 2906 -266 2906 331 
L 2906 616 
Q 2728 306 2450 153 
Q 2172 0 1784 0 
Q 1141 0 747 490 
Q 353 981 353 1791 
Q 353 2603 747 3093 
Q 1141 3584 1784 3584 
Q 2172 3584 2450 3431 
Q 2728 3278 2906 2969 
L 2906 3500 
L 3481 3500 
L 3481 434 
z
" transform="scale(0.015625)"/>
      </defs>
      <use xlink:href="#DejaVuSans-4d"/>
      <use xlink:href="#DejaVuSans-65" x="86.279297"/>
      <use xlink:href="#DejaVuSans-61" x="147.802734"/>
      <use xlink:href="#DejaVuSans-6e" x="209.082031"/>
      <use xlink:href="#DejaVuSans-20" x="272.460938"/>
      <use xlink:href="#DejaVuSans-6f" x="304.248047"/>
      <use xlink:href="#DejaVuSans-66" x="365.429688"/>
      <use xlink:href="#DejaVuSans-20" x="400.634766"/>
      <use xlink:href="#DejaVuSans-52" x="432.421875"/>
      <use xlink:href="#DejaVuSans-65" x="497.404297"/>
      <use xlink:href="#DejaVuSans-64" x="558.927734"/>
      <use xlink:href="#DejaVuSans-75" x="622.404297"/>
      <use xlink:href="#DejaVuSans-63" x="685.783203"/>
      <use xlink:href="#DejaVuSans-65" x="740.763672"/>
      <use xlink:href="#DejaVuSans-64" x="802.287109"/>
      <use xlink:href="#DejaVuSans-20" x="865.763672"/>
      <use xlink:href="#DejaVuSans-52" x="897.550781"/>
      <use xlink:href="#DejaVuSans-65" x="962.533203"/>
      <use xlink:href="#DejaVuSans-61" x="1024.056641"/>
      <use xlink:href="#DejaVuSans-64" x="1085.335938"/>
      <use xlink:href="#DejaVuSans-73" x="1148.8125"/>
      <use xlink:href="#DejaVuSans-20" x="1200.912109"/>
      <use xlink:href="#DejaVuSans-4c" x="1232.699219"/>
      <use xlink:href="#DejaVuSans-65" x="1286.662109"/>
      <use xlink:href="#DejaVuSans-6e" x="1348.185547"/>
      <use xlink:href="#DejaVuSans-67" x="1411.564453"/>
      <use xlink:href="#DejaVuSans-74" x="1475.041016"/>
      <use xlink:href="#DejaVuSans-68" x="1514.25"/>
      <use xlink:href="#DejaVuSans-73" x="1577.628906"/>
     </g>
    </g>
   </g>
   <g id="patch_143">
    <path d="M 62.343125 339.84 
L 62.343125 7.2 
" style="fill: none; stroke: #000000; stroke-width: 0.8; stroke-linejoin: miter; stroke-linecap: square"/>
   </g>
   <g id="patch_144">
    <path d="M 731.943125 339.84 
L 731.943125 7.2 
" style="fill: none; stroke: #000000; stroke-width: 0.8; stroke-linejoin: miter; stroke-linecap: square"/>
   </g>
   <g id="patch_145">
    <path d="M 62.343125 339.84 
L 731.943125 339.84 
" style="fill: none; stroke: #000000; stroke-width: 0.8; stroke-linejoin: miter; stroke-linecap: square"/>
   </g>
   <g id="patch_146">
    <path d="M 62.343125 7.2 
L 731.943125 7.2 
" style="fill: none; stroke: #000000; stroke-width: 0.8; stroke-linejoin: miter; stroke-linecap: square"/>
   </g>
  </g>
 </g>
 <defs>
  <clipPath id="p6f353360bf">
   <rect x="62.343125" y="7.2" width="669.6" height="332.64"/>
  </clipPath>
 </defs>
</svg>
