<?xml version="1.0" encoding="utf-8" standalone="no"?>
<!DOCTYPE svg PUBLIC "-//W3C//DTD SVG 1.1//EN"
  "http://www.w3.org/Graphics/SVG/1.1/DTD/svg11.dtd">
<svg xmlns:xlink="http://www.w3.org/1999/xlink" width="739.143125pt" height="389.01pt" viewBox="0 0 739.143125 389.01" xmlns="http://www.w3.org/2000/svg" version="1.1">
 <metadata>
  <rdf:RDF xmlns:dc="http://purl.org/dc/elements/1.1/" xmlns:cc="http://creativecommons.org/ns#" xmlns:rdf="http://www.w3.org/1999/02/22-rdf-syntax-ns#">
   <cc:Work>
    <dc:type rdf:resource="http://purl.org/dc/dcmitype/StillImage"/>
    <dc:date>2025-06-24T15:53:13.658839</dc:date>
    <dc:format>image/svg+xml</dc:format>
    <dc:creator>
     <cc:Agent>
      <dc:title>Matplotlib v3.7.3, https://matplotlib.org/</dc:title>
     </cc:Agent>
    </dc:creator>
   </cc:Work>
  </rdf:RDF>
 </metadata>
 <defs>
  <style type="text/css">*{stroke-linejoin: round; stroke-linecap: butt}</style>
 </defs>
 <g id="figure_1">
  <g id="patch_1">
   <path d="M 0 389.01 
L 739.143125 389.01 
L 739.143125 0 
L 0 0 
z
" style="fill: #ffffff"/>
  </g>
  <g id="axes_1">
   <g id="patch_2">
    <path d="M 62.343125 339.84 
L 731.943125 339.84 
L 731.943125 7.2 
L 62.343125 7.2 
z
" style="fill: #ffffff"/>
   </g>
   <g id="patch_3">
    <path d="M 92.779489 339.84 
L 96.537064 339.84 
L 96.537064 315.469998 
L 92.779489 315.469998 
z
" clip-path="url(#paf0a14e131)" style="fill: #1f77b4; stroke: #000000; stroke-linejoin: miter"/>
   </g>
   <g id="patch_4">
    <path d="M 96.537064 339.84 
L 100.29464 339.84 
L 100.29464 330.637212 
L 96.537064 330.637212 
z
" clip-path="url(#paf0a14e131)" style="fill: #1f77b4; stroke: #000000; stroke-linejoin: miter"/>
   </g>
   <g id="patch_5">
    <path d="M 100.29464 339.84 
L 104.052216 339.84 
L 104.052216 330.333823 
L 100.29464 330.333823 
z
" clip-path="url(#paf0a14e131)" style="fill: #1f77b4; stroke: #000000; stroke-linejoin: miter"/>
   </g>
   <g id="patch_6">
    <path d="M 104.052216 339.84 
L 107.809792 339.84 
L 107.809792 291.701492 
L 104.052216 291.701492 
z
" clip-path="url(#paf0a14e131)" style="fill: #1f77b4; stroke: #000000; stroke-linejoin: miter"/>
   </g>
   <g id="patch_7">
    <path d="M 107.809792 339.84 
L 111.567367 339.84 
L 111.567367 154.526503 
L 107.809792 154.526503 
z
" clip-path="url(#paf0a14e131)" style="fill: #1f77b4; stroke: #000000; stroke-linejoin: miter"/>
   </g>
   <g id="patch_8">
    <path d="M 111.567367 339.84 
L 115.324943 339.84 
L 115.324943 240.138641 
L 111.567367 240.138641 
z
" clip-path="url(#paf0a14e131)" style="fill: #1f77b4; stroke: #000000; stroke-linejoin: miter"/>
   </g>
   <g id="patch_9">
    <path d="M 115.324943 339.84 
L 119.082519 339.84 
L 119.082519 269.199423 
L 115.324943 269.199423 
z
" clip-path="url(#paf0a14e131)" style="fill: #1f77b4; stroke: #000000; stroke-linejoin: miter"/>
   </g>
   <g id="patch_10">
    <path d="M 119.082519 339.84 
L 122.840095 339.84 
L 122.840095 280.647798 
L 119.082519 280.647798 
z
" clip-path="url(#paf0a14e131)" style="fill: #1f77b4; stroke: #000000; stroke-linejoin: miter"/>
   </g>
   <g id="patch_11">
    <path d="M 122.840095 339.84 
L 126.59767 339.84 
L 126.59767 300.212648 
L 122.840095 300.212648 
z
" clip-path="url(#paf0a14e131)" style="fill: #1f77b4; stroke: #000000; stroke-linejoin: miter"/>
   </g>
   <g id="patch_12">
    <path d="M 126.59767 339.84 
L 130.355246 339.84 
L 130.355246 171.258018 
L 126.59767 171.258018 
z
" clip-path="url(#paf0a14e131)" style="fill: #1f77b4; stroke: #000000; stroke-linejoin: miter"/>
   </g>
   <g id="patch_13">
    <path d="M 130.355246 339.84 
L 134.112822 339.84 
L 134.112822 239.691819 
L 130.355246 239.691819 
z
" clip-path="url(#paf0a14e131)" style="fill: #1f77b4; stroke: #000000; stroke-linejoin: miter"/>
   </g>
   <g id="patch_14">
    <path d="M 134.112822 339.84 
L 137.870398 339.84 
L 137.870398 207.778925 
L 134.112822 207.778925 
z
" clip-path="url(#paf0a14e131)" style="fill: #1f77b4; stroke: #000000; stroke-linejoin: miter"/>
   </g>
   <g id="patch_15">
    <path d="M 137.870398 339.84 
L 141.627973 339.84 
L 141.627973 213.193664 
L 137.870398 213.193664 
z
" clip-path="url(#paf0a14e131)" style="fill: #1f77b4; stroke: #000000; stroke-linejoin: miter"/>
   </g>
   <g id="patch_16">
    <path d="M 141.627973 339.84 
L 145.385549 339.84 
L 145.385549 180.07132 
L 141.627973 180.07132 
z
" clip-path="url(#paf0a14e131)" style="fill: #1f77b4; stroke: #000000; stroke-linejoin: miter"/>
   </g>
   <g id="patch_17">
    <path d="M 145.385549 339.84 
L 149.143125 339.84 
L 149.143125 188.096979 
L 145.385549 188.096979 
z
" clip-path="url(#paf0a14e131)" style="fill: #1f77b4; stroke: #000000; stroke-linejoin: miter"/>
   </g>
   <g id="patch_18">
    <path d="M 149.143125 339.84 
L 152.900701 339.84 
L 152.900701 175.622993 
L 149.143125 175.622993 
z
" clip-path="url(#paf0a14e131)" style="fill: #1f77b4; stroke: #000000; stroke-linejoin: miter"/>
   </g>
   <g id="patch_19">
    <path d="M 152.900701 339.84 
L 156.658277 339.84 
L 156.658277 170.435701 
L 152.900701 170.435701 
z
" clip-path="url(#paf0a14e131)" style="fill: #1f77b4; stroke: #000000; stroke-linejoin: miter"/>
   </g>
   <g id="patch_20">
    <path d="M 156.658277 339.84 
L 160.415852 339.84 
L 160.415852 220.703342 
L 156.658277 220.703342 
z
" clip-path="url(#paf0a14e131)" style="fill: #1f77b4; stroke: #000000; stroke-linejoin: miter"/>
   </g>
   <g id="patch_21">
    <path d="M 160.415852 339.84 
L 164.173428 339.84 
L 164.173428 230.565564 
L 160.415852 230.565564 
z
" clip-path="url(#paf0a14e131)" style="fill: #1f77b4; stroke: #000000; stroke-linejoin: miter"/>
   </g>
   <g id="patch_22">
    <path d="M 164.173428 339.84 
L 167.931004 339.84 
L 167.931004 183.608622 
L 164.173428 183.608622 
z
" clip-path="url(#paf0a14e131)" style="fill: #1f77b4; stroke: #000000; stroke-linejoin: miter"/>
   </g>
   <g id="patch_23">
    <path d="M 167.931004 339.84 
L 171.68858 339.84 
L 171.68858 226.887118 
L 167.931004 226.887118 
z
" clip-path="url(#paf0a14e131)" style="fill: #1f77b4; stroke: #000000; stroke-linejoin: miter"/>
   </g>
   <g id="patch_24">
    <path d="M 171.68858 339.84 
L 175.446155 339.84 
L 175.446155 198.588313 
L 171.68858 198.588313 
z
" clip-path="url(#paf0a14e131)" style="fill: #1f77b4; stroke: #000000; stroke-linejoin: miter"/>
   </g>
   <g id="patch_25">
    <path d="M 175.446155 339.84 
L 179.203731 339.84 
L 179.203731 197.132988 
L 175.446155 197.132988 
z
" clip-path="url(#paf0a14e131)" style="fill: #1f77b4; stroke: #000000; stroke-linejoin: miter"/>
   </g>
   <g id="patch_26">
    <path d="M 179.203731 339.84 
L 182.961307 339.84 
L 182.961307 224.625953 
L 179.203731 224.625953 
z
" clip-path="url(#paf0a14e131)" style="fill: #1f77b4; stroke: #000000; stroke-linejoin: miter"/>
   </g>
   <g id="patch_27">
    <path d="M 182.961307 339.84 
L 186.718883 339.84 
L 186.718883 245.671497 
L 182.961307 245.671497 
z
" clip-path="url(#paf0a14e131)" style="fill: #1f77b4; stroke: #000000; stroke-linejoin: miter"/>
   </g>
   <g id="patch_28">
    <path d="M 186.718883 339.84 
L 190.476458 339.84 
L 190.476458 275.786786 
L 186.718883 275.786786 
z
" clip-path="url(#paf0a14e131)" style="fill: #1f77b4; stroke: #000000; stroke-linejoin: miter"/>
   </g>
   <g id="patch_29">
    <path d="M 190.476458 339.84 
L 194.234034 339.84 
L 194.234034 281.822434 
L 190.476458 281.822434 
z
" clip-path="url(#paf0a14e131)" style="fill: #1f77b4; stroke: #000000; stroke-linejoin: miter"/>
   </g>
   <g id="patch_30">
    <path d="M 194.234034 339.84 
L 197.99161 339.84 
L 197.99161 218.6275 
L 194.234034 218.6275 
z
" clip-path="url(#paf0a14e131)" style="fill: #1f77b4; stroke: #000000; stroke-linejoin: miter"/>
   </g>
   <g id="patch_31">
    <path d="M 197.99161 339.84 
L 201.749186 339.84 
L 201.749186 211.637767 
L 197.99161 211.637767 
z
" clip-path="url(#paf0a14e131)" style="fill: #1f77b4; stroke: #000000; stroke-linejoin: miter"/>
   </g>
   <g id="patch_32">
    <path d="M 201.749186 339.84 
L 205.506761 339.84 
L 205.506761 257.585163 
L 201.749186 257.585163 
z
" clip-path="url(#paf0a14e131)" style="fill: #1f77b4; stroke: #000000; stroke-linejoin: miter"/>
   </g>
   <g id="patch_33">
    <path d="M 205.506761 339.84 
L 209.264337 339.84 
L 209.264337 228.769774 
L 205.506761 228.769774 
z
" clip-path="url(#paf0a14e131)" style="fill: #1f77b4; stroke: #000000; stroke-linejoin: miter"/>
   </g>
   <g id="patch_34">
    <path d="M 209.264337 339.84 
L 213.021913 339.84 
L 213.021913 188.00342 
L 209.264337 188.00342 
z
" clip-path="url(#paf0a14e131)" style="fill: #1f77b4; stroke: #000000; stroke-linejoin: miter"/>
   </g>
   <g id="patch_35">
    <path d="M 213.021913 339.84 
L 216.779489 339.84 
L 216.779489 217.444403 
L 213.021913 217.444403 
z
" clip-path="url(#paf0a14e131)" style="fill: #1f77b4; stroke: #000000; stroke-linejoin: miter"/>
   </g>
   <g id="patch_36">
    <path d="M 216.779489 339.84 
L 220.537064 339.84 
L 220.537064 225.163322 
L 216.779489 225.163322 
z
" clip-path="url(#paf0a14e131)" style="fill: #1f77b4; stroke: #000000; stroke-linejoin: miter"/>
   </g>
   <g id="patch_37">
    <path d="M 220.537064 339.84 
L 224.29464 339.84 
L 224.29464 166.102538 
L 220.537064 166.102538 
z
" clip-path="url(#paf0a14e131)" style="fill: #1f77b4; stroke: #000000; stroke-linejoin: miter"/>
   </g>
   <g id="patch_38">
    <path d="M 224.29464 339.84 
L 228.052216 339.84 
L 228.052216 290.329753 
L 224.29464 290.329753 
z
" clip-path="url(#paf0a14e131)" style="fill: #1f77b4; stroke: #000000; stroke-linejoin: miter"/>
   </g>
   <g id="patch_39">
    <path d="M 228.052216 339.84 
L 231.809792 339.84 
L 231.809792 262.959809 
L 228.052216 262.959809 
z
" clip-path="url(#paf0a14e131)" style="fill: #1f77b4; stroke: #000000; stroke-linejoin: miter"/>
   </g>
   <g id="patch_40">
    <path d="M 231.809792 339.84 
L 235.567367 339.84 
L 235.567367 203.080681 
L 231.809792 203.080681 
z
" clip-path="url(#paf0a14e131)" style="fill: #1f77b4; stroke: #000000; stroke-linejoin: miter"/>
   </g>
   <g id="patch_41">
    <path d="M 235.567367 339.84 
L 239.324943 339.84 
L 239.324943 236.39592 
L 235.567367 236.39592 
z
" clip-path="url(#paf0a14e131)" style="fill: #1f77b4; stroke: #000000; stroke-linejoin: miter"/>
   </g>
   <g id="patch_42">
    <path d="M 239.324943 339.84 
L 243.082519 339.84 
L 243.082519 276.752509 
L 239.324943 276.752509 
z
" clip-path="url(#paf0a14e131)" style="fill: #1f77b4; stroke: #000000; stroke-linejoin: miter"/>
   </g>
   <g id="patch_43">
    <path d="M 243.082519 339.84 
L 246.840095 339.84 
L 246.840095 212.393237 
L 243.082519 212.393237 
z
" clip-path="url(#paf0a14e131)" style="fill: #1f77b4; stroke: #000000; stroke-linejoin: miter"/>
   </g>
   <g id="patch_44">
    <path d="M 246.840095 339.84 
L 250.59767 339.84 
L 250.59767 236.492268 
L 246.840095 236.492268 
z
" clip-path="url(#paf0a14e131)" style="fill: #1f77b4; stroke: #000000; stroke-linejoin: miter"/>
   </g>
   <g id="patch_45">
    <path d="M 250.59767 339.84 
L 254.355246 339.84 
L 254.355246 208.038242 
L 250.59767 208.038242 
z
" clip-path="url(#paf0a14e131)" style="fill: #1f77b4; stroke: #000000; stroke-linejoin: miter"/>
   </g>
   <g id="patch_46">
    <path d="M 254.355246 339.84 
L 258.112822 339.84 
L 258.112822 199.347081 
L 254.355246 199.347081 
z
" clip-path="url(#paf0a14e131)" style="fill: #1f77b4; stroke: #000000; stroke-linejoin: miter"/>
   </g>
   <g id="patch_47">
    <path d="M 258.112822 339.84 
L 261.870398 339.84 
L 261.870398 220.217199 
L 258.112822 220.217199 
z
" clip-path="url(#paf0a14e131)" style="fill: #1f77b4; stroke: #000000; stroke-linejoin: miter"/>
   </g>
   <g id="patch_48">
    <path d="M 261.870398 339.84 
L 265.627973 339.84 
L 265.627973 193.222486 
L 261.870398 193.222486 
z
" clip-path="url(#paf0a14e131)" style="fill: #1f77b4; stroke: #000000; stroke-linejoin: miter"/>
   </g>
   <g id="patch_49">
    <path d="M 265.627973 339.84 
L 269.385549 339.84 
L 269.385549 143.491593 
L 265.627973 143.491593 
z
" clip-path="url(#paf0a14e131)" style="fill: #1f77b4; stroke: #000000; stroke-linejoin: miter"/>
   </g>
   <g id="patch_50">
    <path d="M 269.385549 339.84 
L 273.143125 339.84 
L 273.143125 189.951051 
L 269.385549 189.951051 
z
" clip-path="url(#paf0a14e131)" style="fill: #1f77b4; stroke: #000000; stroke-linejoin: miter"/>
   </g>
   <g id="patch_51">
    <path d="M 273.143125 339.84 
L 276.900701 339.84 
L 276.900701 210.832274 
L 273.143125 210.832274 
z
" clip-path="url(#paf0a14e131)" style="fill: #1f77b4; stroke: #000000; stroke-linejoin: miter"/>
   </g>
   <g id="patch_52">
    <path d="M 276.900701 339.84 
L 280.658277 339.84 
L 280.658277 284.451594 
L 276.900701 284.451594 
z
" clip-path="url(#paf0a14e131)" style="fill: #1f77b4; stroke: #000000; stroke-linejoin: miter"/>
   </g>
   <g id="patch_53">
    <path d="M 280.658277 339.84 
L 284.415852 339.84 
L 284.415852 325.419364 
L 280.658277 325.419364 
z
" clip-path="url(#paf0a14e131)" style="fill: #1f77b4; stroke: #000000; stroke-linejoin: miter"/>
   </g>
   <g id="patch_54">
    <path d="M 284.415852 339.84 
L 288.173428 339.84 
L 288.173428 326.922783 
L 284.415852 326.922783 
z
" clip-path="url(#paf0a14e131)" style="fill: #1f77b4; stroke: #000000; stroke-linejoin: miter"/>
   </g>
   <g id="patch_55">
    <path d="M 288.173428 339.84 
L 291.931004 339.84 
L 291.931004 314.983571 
L 288.173428 314.983571 
z
" clip-path="url(#paf0a14e131)" style="fill: #1f77b4; stroke: #000000; stroke-linejoin: miter"/>
   </g>
   <g id="patch_56">
    <path d="M 291.931004 339.84 
L 295.68858 339.84 
L 295.68858 339.84 
L 291.931004 339.84 
z
" clip-path="url(#paf0a14e131)" style="fill: #1f77b4; stroke: #000000; stroke-linejoin: miter"/>
   </g>
   <g id="patch_57">
    <path d="M 295.68858 339.84 
L 299.446155 339.84 
L 299.446155 310.367917 
L 295.68858 310.367917 
z
" clip-path="url(#paf0a14e131)" style="fill: #1f77b4; stroke: #000000; stroke-linejoin: miter"/>
   </g>
   <g id="patch_58">
    <path d="M 299.446155 339.84 
L 303.203731 339.84 
L 303.203731 318.860396 
L 299.446155 318.860396 
z
" clip-path="url(#paf0a14e131)" style="fill: #1f77b4; stroke: #000000; stroke-linejoin: miter"/>
   </g>
   <g id="patch_59">
    <path d="M 303.203731 339.84 
L 306.961307 339.84 
L 306.961307 326.78551 
L 303.203731 326.78551 
z
" clip-path="url(#paf0a14e131)" style="fill: #1f77b4; stroke: #000000; stroke-linejoin: miter"/>
   </g>
   <g id="patch_60">
    <path d="M 306.961307 339.84 
L 310.718883 339.84 
L 310.718883 335.092913 
L 306.961307 335.092913 
z
" clip-path="url(#paf0a14e131)" style="fill: #1f77b4; stroke: #000000; stroke-linejoin: miter"/>
   </g>
   <g id="patch_61">
    <path d="M 310.718883 339.84 
L 314.476458 339.84 
L 314.476458 318.818386 
L 310.718883 318.818386 
z
" clip-path="url(#paf0a14e131)" style="fill: #1f77b4; stroke: #000000; stroke-linejoin: miter"/>
   </g>
   <g id="patch_62">
    <path d="M 314.476458 339.84 
L 318.234034 339.84 
L 318.234034 321.370321 
L 314.476458 321.370321 
z
" clip-path="url(#paf0a14e131)" style="fill: #1f77b4; stroke: #000000; stroke-linejoin: miter"/>
   </g>
   <g id="patch_63">
    <path d="M 318.234034 339.84 
L 321.99161 339.84 
L 321.99161 320.20224 
L 318.234034 320.20224 
z
" clip-path="url(#paf0a14e131)" style="fill: #1f77b4; stroke: #000000; stroke-linejoin: miter"/>
   </g>
   <g id="patch_64">
    <path d="M 321.99161 339.84 
L 325.749186 339.84 
L 325.749186 308.142286 
L 321.99161 308.142286 
z
" clip-path="url(#paf0a14e131)" style="fill: #1f77b4; stroke: #000000; stroke-linejoin: miter"/>
   </g>
   <g id="patch_65">
    <path d="M 325.749186 339.84 
L 329.506761 339.84 
L 329.506761 308.931938 
L 325.749186 308.931938 
z
" clip-path="url(#paf0a14e131)" style="fill: #1f77b4; stroke: #000000; stroke-linejoin: miter"/>
   </g>
   <g id="patch_66">
    <path d="M 329.506761 339.84 
L 333.264337 339.84 
L 333.264337 329.687466 
L 329.506761 329.687466 
z
" clip-path="url(#paf0a14e131)" style="fill: #1f77b4; stroke: #000000; stroke-linejoin: miter"/>
   </g>
   <g id="patch_67">
    <path d="M 333.264337 339.84 
L 337.021913 339.84 
L 337.021913 308.085036 
L 333.264337 308.085036 
z
" clip-path="url(#paf0a14e131)" style="fill: #1f77b4; stroke: #000000; stroke-linejoin: miter"/>
   </g>
   <g id="patch_68">
    <path d="M 337.021913 339.84 
L 340.779489 339.84 
L 340.779489 306.438043 
L 337.021913 306.438043 
z
" clip-path="url(#paf0a14e131)" style="fill: #1f77b4; stroke: #000000; stroke-linejoin: miter"/>
   </g>
   <g id="patch_69">
    <path d="M 340.779489 339.84 
L 344.537064 339.84 
L 344.537064 318.539713 
L 340.779489 318.539713 
z
" clip-path="url(#paf0a14e131)" style="fill: #1f77b4; stroke: #000000; stroke-linejoin: miter"/>
   </g>
   <g id="patch_70">
    <path d="M 344.537064 339.84 
L 348.29464 339.84 
L 348.29464 270.425806 
L 344.537064 270.425806 
z
" clip-path="url(#paf0a14e131)" style="fill: #1f77b4; stroke: #000000; stroke-linejoin: miter"/>
   </g>
   <g id="patch_71">
    <path d="M 348.29464 339.84 
L 352.052216 339.84 
L 352.052216 326.747002 
L 348.29464 326.747002 
z
" clip-path="url(#paf0a14e131)" style="fill: #1f77b4; stroke: #000000; stroke-linejoin: miter"/>
   </g>
   <g id="patch_72">
    <path d="M 352.052216 339.84 
L 355.809792 339.84 
L 355.809792 327.38664 
L 352.052216 327.38664 
z
" clip-path="url(#paf0a14e131)" style="fill: #1f77b4; stroke: #000000; stroke-linejoin: miter"/>
   </g>
   <g id="patch_73">
    <path d="M 355.809792 339.84 
L 359.567367 339.84 
L 359.567367 330.206268 
L 355.809792 330.206268 
z
" clip-path="url(#paf0a14e131)" style="fill: #1f77b4; stroke: #000000; stroke-linejoin: miter"/>
   </g>
   <g id="patch_74">
    <path d="M 359.567367 339.84 
L 363.324943 339.84 
L 363.324943 284.457851 
L 359.567367 284.457851 
z
" clip-path="url(#paf0a14e131)" style="fill: #1f77b4; stroke: #000000; stroke-linejoin: miter"/>
   </g>
   <g id="patch_75">
    <path d="M 363.324943 339.84 
L 367.082519 339.84 
L 367.082519 326.714762 
L 363.324943 326.714762 
z
" clip-path="url(#paf0a14e131)" style="fill: #1f77b4; stroke: #000000; stroke-linejoin: miter"/>
   </g>
   <g id="patch_76">
    <path d="M 367.082519 339.84 
L 370.840095 339.84 
L 370.840095 332.360995 
L 367.082519 332.360995 
z
" clip-path="url(#paf0a14e131)" style="fill: #1f77b4; stroke: #000000; stroke-linejoin: miter"/>
   </g>
   <g id="patch_77">
    <path d="M 370.840095 339.84 
L 374.59767 339.84 
L 374.59767 323.820331 
L 370.840095 323.820331 
z
" clip-path="url(#paf0a14e131)" style="fill: #1f77b4; stroke: #000000; stroke-linejoin: miter"/>
   </g>
   <g id="patch_78">
    <path d="M 374.59767 339.84 
L 378.355246 339.84 
L 378.355246 327.261705 
L 374.59767 327.261705 
z
" clip-path="url(#paf0a14e131)" style="fill: #1f77b4; stroke: #000000; stroke-linejoin: miter"/>
   </g>
   <g id="patch_79">
    <path d="M 378.355246 339.84 
L 382.112822 339.84 
L 382.112822 320.809642 
L 378.355246 320.809642 
z
" clip-path="url(#paf0a14e131)" style="fill: #1f77b4; stroke: #000000; stroke-linejoin: miter"/>
   </g>
   <g id="patch_80">
    <path d="M 382.112822 339.84 
L 385.870398 339.84 
L 385.870398 320.398548 
L 382.112822 320.398548 
z
" clip-path="url(#paf0a14e131)" style="fill: #1f77b4; stroke: #000000; stroke-linejoin: miter"/>
   </g>
   <g id="patch_81">
    <path d="M 385.870398 339.84 
L 389.627973 339.84 
L 389.627973 326.459378 
L 385.870398 326.459378 
z
" clip-path="url(#paf0a14e131)" style="fill: #1f77b4; stroke: #000000; stroke-linejoin: miter"/>
   </g>
   <g id="patch_82">
    <path d="M 389.627973 339.84 
L 393.385549 339.84 
L 393.385549 322.946623 
L 389.627973 322.946623 
z
" clip-path="url(#paf0a14e131)" style="fill: #1f77b4; stroke: #000000; stroke-linejoin: miter"/>
   </g>
   <g id="patch_83">
    <path d="M 393.385549 339.84 
L 397.143125 339.84 
L 397.143125 234.575011 
L 393.385549 234.575011 
z
" clip-path="url(#paf0a14e131)" style="fill: #1f77b4; stroke: #000000; stroke-linejoin: miter"/>
   </g>
   <g id="patch_84">
    <path d="M 397.143125 339.84 
L 400.900701 339.84 
L 400.900701 254.044521 
L 397.143125 254.044521 
z
" clip-path="url(#paf0a14e131)" style="fill: #1f77b4; stroke: #000000; stroke-linejoin: miter"/>
   </g>
   <g id="patch_85">
    <path d="M 400.900701 339.84 
L 404.658277 339.84 
L 404.658277 325.098067 
L 400.900701 325.098067 
z
" clip-path="url(#paf0a14e131)" style="fill: #1f77b4; stroke: #000000; stroke-linejoin: miter"/>
   </g>
   <g id="patch_86">
    <path d="M 404.658277 339.84 
L 408.415852 339.84 
L 408.415852 323.223246 
L 404.658277 323.223246 
z
" clip-path="url(#paf0a14e131)" style="fill: #1f77b4; stroke: #000000; stroke-linejoin: miter"/>
   </g>
   <g id="patch_87">
    <path d="M 408.415852 339.84 
L 412.173428 339.84 
L 412.173428 325.070915 
L 408.415852 325.070915 
z
" clip-path="url(#paf0a14e131)" style="fill: #1f77b4; stroke: #000000; stroke-linejoin: miter"/>
   </g>
   <g id="patch_88">
    <path d="M 412.173428 339.84 
L 415.931004 339.84 
L 415.931004 309.462811 
L 412.173428 309.462811 
z
" clip-path="url(#paf0a14e131)" style="fill: #1f77b4; stroke: #000000; stroke-linejoin: miter"/>
   </g>
   <g id="patch_89">
    <path d="M 415.931004 339.84 
L 419.68858 339.84 
L 419.68858 225.520153 
L 415.931004 225.520153 
z
" clip-path="url(#paf0a14e131)" style="fill: #1f77b4; stroke: #000000; stroke-linejoin: miter"/>
   </g>
   <g id="patch_90">
    <path d="M 419.68858 339.84 
L 423.446155 339.84 
L 423.446155 238.340503 
L 419.68858 238.340503 
z
" clip-path="url(#paf0a14e131)" style="fill: #1f77b4; stroke: #000000; stroke-linejoin: miter"/>
   </g>
   <g id="patch_91">
    <path d="M 423.446155 339.84 
L 427.203731 339.84 
L 427.203731 193.979387 
L 423.446155 193.979387 
z
" clip-path="url(#paf0a14e131)" style="fill: #1f77b4; stroke: #000000; stroke-linejoin: miter"/>
   </g>
   <g id="patch_92">
    <path d="M 427.203731 339.84 
L 430.961307 339.84 
L 430.961307 233.792086 
L 427.203731 233.792086 
z
" clip-path="url(#paf0a14e131)" style="fill: #1f77b4; stroke: #000000; stroke-linejoin: miter"/>
   </g>
   <g id="patch_93">
    <path d="M 430.961307 339.84 
L 434.718883 339.84 
L 434.718883 221.224036 
L 430.961307 221.224036 
z
" clip-path="url(#paf0a14e131)" style="fill: #1f77b4; stroke: #000000; stroke-linejoin: miter"/>
   </g>
   <g id="patch_94">
    <path d="M 434.718883 339.84 
L 438.476458 339.84 
L 438.476458 207.016082 
L 434.718883 207.016082 
z
" clip-path="url(#paf0a14e131)" style="fill: #1f77b4; stroke: #000000; stroke-linejoin: miter"/>
   </g>
   <g id="patch_95">
    <path d="M 438.476458 339.84 
L 442.234034 339.84 
L 442.234034 214.045932 
L 438.476458 214.045932 
z
" clip-path="url(#paf0a14e131)" style="fill: #1f77b4; stroke: #000000; stroke-linejoin: miter"/>
   </g>
   <g id="patch_96">
    <path d="M 442.234034 339.84 
L 445.99161 339.84 
L 445.99161 232.315864 
L 442.234034 232.315864 
z
" clip-path="url(#paf0a14e131)" style="fill: #1f77b4; stroke: #000000; stroke-linejoin: miter"/>
   </g>
   <g id="patch_97">
    <path d="M 445.99161 339.84 
L 449.749186 339.84 
L 449.749186 234.754637 
L 445.99161 234.754637 
z
" clip-path="url(#paf0a14e131)" style="fill: #1f77b4; stroke: #000000; stroke-linejoin: miter"/>
   </g>
   <g id="patch_98">
    <path d="M 449.749186 339.84 
L 453.506761 339.84 
L 453.506761 139.838118 
L 449.749186 139.838118 
z
" clip-path="url(#paf0a14e131)" style="fill: #1f77b4; stroke: #000000; stroke-linejoin: miter"/>
   </g>
   <g id="patch_99">
    <path d="M 453.506761 339.84 
L 457.264337 339.84 
L 457.264337 206.612241 
L 453.506761 206.612241 
z
" clip-path="url(#paf0a14e131)" style="fill: #1f77b4; stroke: #000000; stroke-linejoin: miter"/>
   </g>
   <g id="patch_100">
    <path d="M 457.264337 339.84 
L 461.021913 339.84 
L 461.021913 207.852235 
L 457.264337 207.852235 
z
" clip-path="url(#paf0a14e131)" style="fill: #1f77b4; stroke: #000000; stroke-linejoin: miter"/>
   </g>
   <g id="patch_101">
    <path d="M 461.021913 339.84 
L 464.779489 339.84 
L 464.779489 269.245422 
L 461.021913 269.245422 
z
" clip-path="url(#paf0a14e131)" style="fill: #1f77b4; stroke: #000000; stroke-linejoin: miter"/>
   </g>
   <g id="patch_102">
    <path d="M 464.779489 339.84 
L 468.537064 339.84 
L 468.537064 218.648818 
L 464.779489 218.648818 
z
" clip-path="url(#paf0a14e131)" style="fill: #1f77b4; stroke: #000000; stroke-linejoin: miter"/>
   </g>
   <g id="patch_103">
    <path d="M 468.537064 339.84 
L 472.29464 339.84 
L 472.29464 180.939335 
L 468.537064 180.939335 
z
" clip-path="url(#paf0a14e131)" style="fill: #1f77b4; stroke: #000000; stroke-linejoin: miter"/>
   </g>
   <g id="patch_104">
    <path d="M 472.29464 339.84 
L 476.052216 339.84 
L 476.052216 234.152137 
L 472.29464 234.152137 
z
" clip-path="url(#paf0a14e131)" style="fill: #1f77b4; stroke: #000000; stroke-linejoin: miter"/>
   </g>
   <g id="patch_105">
    <path d="M 476.052216 339.84 
L 479.809792 339.84 
L 479.809792 160.958165 
L 476.052216 160.958165 
z
" clip-path="url(#paf0a14e131)" style="fill: #1f77b4; stroke: #000000; stroke-linejoin: miter"/>
   </g>
   <g id="patch_106">
    <path d="M 479.809792 339.84 
L 483.567367 339.84 
L 483.567367 151.950958 
L 479.809792 151.950958 
z
" clip-path="url(#paf0a14e131)" style="fill: #1f77b4; stroke: #000000; stroke-linejoin: miter"/>
   </g>
   <g id="patch_107">
    <path d="M 483.567367 339.84 
L 487.324943 339.84 
L 487.324943 126.167585 
L 483.567367 126.167585 
z
" clip-path="url(#paf0a14e131)" style="fill: #1f77b4; stroke: #000000; stroke-linejoin: miter"/>
   </g>
   <g id="patch_108">
    <path d="M 487.324943 339.84 
L 491.082519 339.84 
L 491.082519 157.590782 
L 487.324943 157.590782 
z
" clip-path="url(#paf0a14e131)" style="fill: #1f77b4; stroke: #000000; stroke-linejoin: miter"/>
   </g>
   <g id="patch_109">
    <path d="M 491.082519 339.84 
L 494.840095 339.84 
L 494.840095 190.852489 
L 491.082519 190.852489 
z
" clip-path="url(#paf0a14e131)" style="fill: #1f77b4; stroke: #000000; stroke-linejoin: miter"/>
   </g>
   <g id="patch_110">
    <path d="M 494.840095 339.84 
L 498.59767 339.84 
L 498.59767 143.814709 
L 494.840095 143.814709 
z
" clip-path="url(#paf0a14e131)" style="fill: #1f77b4; stroke: #000000; stroke-linejoin: miter"/>
   </g>
   <g id="patch_111">
    <path d="M 498.59767 339.84 
L 502.355246 339.84 
L 502.355246 160.685126 
L 498.59767 160.685126 
z
" clip-path="url(#paf0a14e131)" style="fill: #1f77b4; stroke: #000000; stroke-linejoin: miter"/>
   </g>
   <g id="patch_112">
    <path d="M 502.355246 339.84 
L 506.112822 339.84 
L 506.112822 166.970412 
L 502.355246 166.970412 
z
" clip-path="url(#paf0a14e131)" style="fill: #1f77b4; stroke: #000000; stroke-linejoin: miter"/>
   </g>
   <g id="patch_113">
    <path d="M 506.112822 339.84 
L 509.870398 339.84 
L 509.870398 113.903523 
L 506.112822 113.903523 
z
" clip-path="url(#paf0a14e131)" style="fill: #1f77b4; stroke: #000000; stroke-linejoin: miter"/>
   </g>
   <g id="patch_114">
    <path d="M 509.870398 339.84 
L 513.627973 339.84 
L 513.627973 23.04 
L 509.870398 23.04 
z
" clip-path="url(#paf0a14e131)" style="fill: #1f77b4; stroke: #000000; stroke-linejoin: miter"/>
   </g>
   <g id="patch_115">
    <path d="M 513.627973 339.84 
L 517.385549 339.84 
L 517.385549 90.113964 
L 513.627973 90.113964 
z
" clip-path="url(#paf0a14e131)" style="fill: #1f77b4; stroke: #000000; stroke-linejoin: miter"/>
   </g>
   <g id="patch_116">
    <path d="M 517.385549 339.84 
L 521.143125 339.84 
L 521.143125 146.27585 
L 517.385549 146.27585 
z
" clip-path="url(#paf0a14e131)" style="fill: #1f77b4; stroke: #000000; stroke-linejoin: miter"/>
   </g>
   <g id="patch_117">
    <path d="M 521.143125 339.84 
L 524.900701 339.84 
L 524.900701 243.677268 
L 521.143125 243.677268 
z
" clip-path="url(#paf0a14e131)" style="fill: #1f77b4; stroke: #000000; stroke-linejoin: miter"/>
   </g>
   <g id="patch_118">
    <path d="M 524.900701 339.84 
L 528.658277 339.84 
L 528.658277 137.077841 
L 524.900701 137.077841 
z
" clip-path="url(#paf0a14e131)" style="fill: #1f77b4; stroke: #000000; stroke-linejoin: miter"/>
   </g>
   <g id="patch_119">
    <path d="M 528.658277 339.84 
L 532.415852 339.84 
L 532.415852 138.333423 
L 528.658277 138.333423 
z
" clip-path="url(#paf0a14e131)" style="fill: #1f77b4; stroke: #000000; stroke-linejoin: miter"/>
   </g>
   <g id="patch_120">
    <path d="M 532.415852 339.84 
L 536.173428 339.84 
L 536.173428 127.993361 
L 532.415852 127.993361 
z
" clip-path="url(#paf0a14e131)" style="fill: #1f77b4; stroke: #000000; stroke-linejoin: miter"/>
   </g>
   <g id="patch_121">
    <path d="M 536.173428 339.84 
L 539.931004 339.84 
L 539.931004 185.865046 
L 536.173428 185.865046 
z
" clip-path="url(#paf0a14e131)" style="fill: #1f77b4; stroke: #000000; stroke-linejoin: miter"/>
   </g>
   <g id="patch_122">
    <path d="M 539.931004 339.84 
L 543.68858 339.84 
L 543.68858 176.222223 
L 539.931004 176.222223 
z
" clip-path="url(#paf0a14e131)" style="fill: #1f77b4; stroke: #000000; stroke-linejoin: miter"/>
   </g>
   <g id="patch_123">
    <path d="M 543.68858 339.84 
L 547.446155 339.84 
L 547.446155 109.628438 
L 543.68858 109.628438 
z
" clip-path="url(#paf0a14e131)" style="fill: #1f77b4; stroke: #000000; stroke-linejoin: miter"/>
   </g>
   <g id="patch_124">
    <path d="M 547.446155 339.84 
L 551.203731 339.84 
L 551.203731 115.712166 
L 547.446155 115.712166 
z
" clip-path="url(#paf0a14e131)" style="fill: #1f77b4; stroke: #000000; stroke-linejoin: miter"/>
   </g>
   <g id="patch_125">
    <path d="M 551.203731 339.84 
L 554.961307 339.84 
L 554.961307 150.057918 
L 551.203731 150.057918 
z
" clip-path="url(#paf0a14e131)" style="fill: #1f77b4; stroke: #000000; stroke-linejoin: miter"/>
   </g>
   <g id="patch_126">
    <path d="M 554.961307 339.84 
L 558.718883 339.84 
L 558.718883 165.972683 
L 554.961307 165.972683 
z
" clip-path="url(#paf0a14e131)" style="fill: #1f77b4; stroke: #000000; stroke-linejoin: miter"/>
   </g>
   <g id="patch_127">
    <path d="M 558.718883 339.84 
L 562.476458 339.84 
L 562.476458 147.339916 
L 558.718883 147.339916 
z
" clip-path="url(#paf0a14e131)" style="fill: #1f77b4; stroke: #000000; stroke-linejoin: miter"/>
   </g>
   <g id="patch_128">
    <path d="M 562.476458 339.84 
L 566.234034 339.84 
L 566.234034 112.185342 
L 562.476458 112.185342 
z
" clip-path="url(#paf0a14e131)" style="fill: #1f77b4; stroke: #000000; stroke-linejoin: miter"/>
   </g>
   <g id="patch_129">
    <path d="M 566.234034 339.84 
L 569.99161 339.84 
L 569.99161 113.208516 
L 566.234034 113.208516 
z
" clip-path="url(#paf0a14e131)" style="fill: #1f77b4; stroke: #000000; stroke-linejoin: miter"/>
   </g>
   <g id="patch_130">
    <path d="M 569.99161 339.84 
L 573.749186 339.84 
L 573.749186 128.687451 
L 569.99161 128.687451 
z
" clip-path="url(#paf0a14e131)" style="fill: #1f77b4; stroke: #000000; stroke-linejoin: miter"/>
   </g>
   <g id="patch_131">
    <path d="M 573.749186 339.84 
L 577.506761 339.84 
L 577.506761 116.777515 
L 573.749186 116.777515 
z
" clip-path="url(#paf0a14e131)" style="fill: #1f77b4; stroke: #000000; stroke-linejoin: miter"/>
   </g>
   <g id="patch_132">
    <path d="M 577.506761 339.84 
L 581.264337 339.84 
L 581.264337 200.838568 
L 577.506761 200.838568 
z
" clip-path="url(#paf0a14e131)" style="fill: #1f77b4; stroke: #000000; stroke-linejoin: miter"/>
   </g>
   <g id="patch_133">
    <path d="M 581.264337 339.84 
L 585.021913 339.84 
L 585.021913 142.738274 
L 581.264337 142.738274 
z
" clip-path="url(#paf0a14e131)" style="fill: #1f77b4; stroke: #000000; stroke-linejoin: miter"/>
   </g>
   <g id="patch_134">
    <path d="M 585.021913 339.84 
L 588.779489 339.84 
L 588.779489 145.727757 
L 585.021913 145.727757 
z
" clip-path="url(#paf0a14e131)" style="fill: #1f77b4; stroke: #000000; stroke-linejoin: miter"/>
   </g>
   <g id="patch_135">
    <path d="M 588.779489 339.84 
L 592.537064 339.84 
L 592.537064 100.029803 
L 588.779489 100.029803 
z
" clip-path="url(#paf0a14e131)" style="fill: #1f77b4; stroke: #000000; stroke-linejoin: miter"/>
   </g>
   <g id="patch_136">
    <path d="M 592.537064 339.84 
L 596.29464 339.84 
L 596.29464 179.038798 
L 592.537064 179.038798 
z
" clip-path="url(#paf0a14e131)" style="fill: #1f77b4; stroke: #000000; stroke-linejoin: miter"/>
   </g>
   <g id="patch_137">
    <path d="M 596.29464 339.84 
L 600.052216 339.84 
L 600.052216 141.23331 
L 596.29464 141.23331 
z
" clip-path="url(#paf0a14e131)" style="fill: #1f77b4; stroke: #000000; stroke-linejoin: miter"/>
   </g>
   <g id="patch_138">
    <path d="M 600.052216 339.84 
L 603.809792 339.84 
L 603.809792 158.88706 
L 600.052216 158.88706 
z
" clip-path="url(#paf0a14e131)" style="fill: #1f77b4; stroke: #000000; stroke-linejoin: miter"/>
   </g>
   <g id="patch_139">
    <path d="M 603.809792 339.84 
L 607.567367 339.84 
L 607.567367 199.460652 
L 603.809792 199.460652 
z
" clip-path="url(#paf0a14e131)" style="fill: #1f77b4; stroke: #000000; stroke-linejoin: miter"/>
   </g>
   <g id="patch_140">
    <path d="M 607.567367 339.84 
L 611.324943 339.84 
L 611.324943 212.261324 
L 607.567367 212.261324 
z
" clip-path="url(#paf0a14e131)" style="fill: #1f77b4; stroke: #000000; stroke-linejoin: miter"/>
   </g>
   <g id="patch_141">
    <path d="M 611.324943 339.84 
L 615.082519 339.84 
L 615.082519 173.169493 
L 611.324943 173.169493 
z
" clip-path="url(#paf0a14e131)" style="fill: #1f77b4; stroke: #000000; stroke-linejoin: miter"/>
   </g>
   <g id="patch_142">
    <path d="M 615.082519 339.84 
L 618.840095 339.84 
L 618.840095 81.759031 
L 615.082519 81.759031 
z
" clip-path="url(#paf0a14e131)" style="fill: #1f77b4; stroke: #000000; stroke-linejoin: miter"/>
   </g>
   <g id="patch_143">
    <path d="M 618.840095 339.84 
L 622.59767 339.84 
L 622.59767 174.010024 
L 618.840095 174.010024 
z
" clip-path="url(#paf0a14e131)" style="fill: #1f77b4; stroke: #000000; stroke-linejoin: miter"/>
   </g>
   <g id="patch_144">
    <path d="M 622.59767 339.84 
L 626.355246 339.84 
L 626.355246 115.877523 
L 622.59767 115.877523 
z
" clip-path="url(#paf0a14e131)" style="fill: #1f77b4; stroke: #000000; stroke-linejoin: miter"/>
   </g>
   <g id="patch_145">
    <path d="M 626.355246 339.84 
L 630.112822 339.84 
L 630.112822 133.740802 
L 626.355246 133.740802 
z
" clip-path="url(#paf0a14e131)" style="fill: #1f77b4; stroke: #000000; stroke-linejoin: miter"/>
   </g>
   <g id="patch_146">
    <path d="M 630.112822 339.84 
L 633.870398 339.84 
L 633.870398 115.256569 
L 630.112822 115.256569 
z
" clip-path="url(#paf0a14e131)" style="fill: #1f77b4; stroke: #000000; stroke-linejoin: miter"/>
   </g>
   <g id="patch_147">
    <path d="M 633.870398 339.84 
L 637.627973 339.84 
L 637.627973 122.958332 
L 633.870398 122.958332 
z
" clip-path="url(#paf0a14e131)" style="fill: #1f77b4; stroke: #000000; stroke-linejoin: miter"/>
   </g>
   <g id="patch_148">
    <path d="M 637.627973 339.84 
L 641.385549 339.84 
L 641.385549 157.906429 
L 637.627973 157.906429 
z
" clip-path="url(#paf0a14e131)" style="fill: #1f77b4; stroke: #000000; stroke-linejoin: miter"/>
   </g>
   <g id="patch_149">
    <path d="M 641.385549 339.84 
L 645.143125 339.84 
L 645.143125 210.291933 
L 641.385549 210.291933 
z
" clip-path="url(#paf0a14e131)" style="fill: #1f77b4; stroke: #000000; stroke-linejoin: miter"/>
   </g>
   <g id="patch_150">
    <path d="M 645.143125 339.84 
L 648.900701 339.84 
L 648.900701 112.908572 
L 645.143125 112.908572 
z
" clip-path="url(#paf0a14e131)" style="fill: #1f77b4; stroke: #000000; stroke-linejoin: miter"/>
   </g>
   <g id="patch_151">
    <path d="M 648.900701 339.84 
L 652.658277 339.84 
L 652.658277 135.789579 
L 648.900701 135.789579 
z
" clip-path="url(#paf0a14e131)" style="fill: #1f77b4; stroke: #000000; stroke-linejoin: miter"/>
   </g>
   <g id="patch_152">
    <path d="M 652.658277 339.84 
L 656.415852 339.84 
L 656.415852 97.405915 
L 652.658277 97.405915 
z
" clip-path="url(#paf0a14e131)" style="fill: #1f77b4; stroke: #000000; stroke-linejoin: miter"/>
   </g>
   <g id="patch_153">
    <path d="M 656.415852 339.84 
L 660.173428 339.84 
L 660.173428 153.85839 
L 656.415852 153.85839 
z
" clip-path="url(#paf0a14e131)" style="fill: #1f77b4; stroke: #000000; stroke-linejoin: miter"/>
   </g>
   <g id="patch_154">
    <path d="M 660.173428 339.84 
L 663.931004 339.84 
L 663.931004 74.930524 
L 660.173428 74.930524 
z
" clip-path="url(#paf0a14e131)" style="fill: #1f77b4; stroke: #000000; stroke-linejoin: miter"/>
   </g>
   <g id="patch_155">
    <path d="M 663.931004 339.84 
L 667.68858 339.84 
L 667.68858 75.226259 
L 663.931004 75.226259 
z
" clip-path="url(#paf0a14e131)" style="fill: #1f77b4; stroke: #000000; stroke-linejoin: miter"/>
   </g>
   <g id="patch_156">
    <path d="M 667.68858 339.84 
L 671.446155 339.84 
L 671.446155 175.213992 
L 667.68858 175.213992 
z
" clip-path="url(#paf0a14e131)" style="fill: #1f77b4; stroke: #000000; stroke-linejoin: miter"/>
   </g>
   <g id="patch_157">
    <path d="M 671.446155 339.84 
L 675.203731 339.84 
L 675.203731 134.102993 
L 671.446155 134.102993 
z
" clip-path="url(#paf0a14e131)" style="fill: #1f77b4; stroke: #000000; stroke-linejoin: miter"/>
   </g>
   <g id="patch_158">
    <path d="M 675.203731 339.84 
L 678.961307 339.84 
L 678.961307 108.787087 
L 675.203731 108.787087 
z
" clip-path="url(#paf0a14e131)" style="fill: #1f77b4; stroke: #000000; stroke-linejoin: miter"/>
   </g>
   <g id="patch_159">
    <path d="M 678.961307 339.84 
L 682.718883 339.84 
L 682.718883 138.733945 
L 678.961307 138.733945 
z
" clip-path="url(#paf0a14e131)" style="fill: #1f77b4; stroke: #000000; stroke-linejoin: miter"/>
   </g>
   <g id="patch_160">
    <path d="M 682.718883 339.84 
L 686.476458 339.84 
L 686.476458 100.729524 
L 682.718883 100.729524 
z
" clip-path="url(#paf0a14e131)" style="fill: #1f77b4; stroke: #000000; stroke-linejoin: miter"/>
   </g>
   <g id="patch_161">
    <path d="M 686.476458 339.84 
L 690.234034 339.84 
L 690.234034 144.697398 
L 686.476458 144.697398 
z
" clip-path="url(#paf0a14e131)" style="fill: #1f77b4; stroke: #000000; stroke-linejoin: miter"/>
   </g>
   <g id="patch_162">
    <path d="M 690.234034 339.84 
L 693.99161 339.84 
L 693.99161 218.34265 
L 690.234034 218.34265 
z
" clip-path="url(#paf0a14e131)" style="fill: #1f77b4; stroke: #000000; stroke-linejoin: miter"/>
   </g>
   <g id="patch_163">
    <path d="M 693.99161 339.84 
L 697.749186 339.84 
L 697.749186 206.60291 
L 693.99161 206.60291 
z
" clip-path="url(#paf0a14e131)" style="fill: #1f77b4; stroke: #000000; stroke-linejoin: miter"/>
   </g>
   <g id="patch_164">
    <path d="M 697.749186 339.84 
L 701.506761 339.84 
L 701.506761 339.84 
L 697.749186 339.84 
z
" clip-path="url(#paf0a14e131)" style="fill: #1f77b4; stroke: #000000; stroke-linejoin: miter"/>
   </g>
   <g id="matplotlib.axis_1">
    <g id="xtick_1">
     <g id="line2d_1">
      <defs>
       <path id="md168863d7b" d="M 0 0 
L 0 3.5 
" style="stroke: #000000; stroke-width: 0.8"/>
      </defs>
      <g>
       <use xlink:href="#md168863d7b" x="90.900701" y="339.84" style="stroke: #000000; stroke-width: 0.8"/>
      </g>
     </g>
     <g id="text_1">
      <!-- 0.0 -->
      <g transform="translate(79.768513 357.477813) scale(0.14 -0.14)">
       <defs>
        <path id="DejaVuSans-30" d="M 2034 4250 
Q 1547 4250 1301 3770 
Q 1056 3291 1056 2328 
Q 1056 1369 1301 889 
Q 1547 409 2034 409 
Q 2525 409 2770 889 
Q 3016 1369 3016 2328 
Q 3016 3291 2770 3770 
Q 2525 4250 2034 4250 
z
M 2034 4750 
Q 2819 4750 3233 4129 
Q 3647 3509 3647 2328 
Q 3647 1150 3233 529 
Q 2819 -91 2034 -91 
Q 1250 -91 836 529 
Q 422 1150 422 2328 
Q 422 3509 836 4129 
Q 1250 4750 2034 4750 
z
" transform="scale(0.015625)"/>
        <path id="DejaVuSans-2e" d="M 684 794 
L 1344 794 
L 1344 0 
L 684 0 
L 684 794 
z
" transform="scale(0.015625)"/>
       </defs>
       <use xlink:href="#DejaVuSans-30"/>
       <use xlink:href="#DejaVuSans-2e" x="63.623047"/>
       <use xlink:href="#DejaVuSans-30" x="95.410156"/>
      </g>
     </g>
    </g>
    <g id="xtick_2">
     <g id="line2d_2">
      <g>
       <use xlink:href="#md168863d7b" x="166.052216" y="339.84" style="stroke: #000000; stroke-width: 0.8"/>
      </g>
     </g>
     <g id="text_2">
      <!-- 0.2 -->
      <g transform="translate(154.920028 357.477813) scale(0.14 -0.14)">
       <defs>
        <path id="DejaVuSans-32" d="M 1228 531 
L 3431 531 
L 3431 0 
L 469 0 
L 469 531 
Q 828 903 1448 1529 
Q 2069 2156 2228 2338 
Q 2531 2678 2651 2914 
Q 2772 3150 2772 3378 
Q 2772 3750 2511 3984 
Q 2250 4219 1831 4219 
Q 1534 4219 1204 4116 
Q 875 4013 500 3803 
L 500 4441 
Q 881 4594 1212 4672 
Q 1544 4750 1819 4750 
Q 2544 4750 2975 4387 
Q 3406 4025 3406 3419 
Q 3406 3131 3298 2873 
Q 3191 2616 2906 2266 
Q 2828 2175 2409 1742 
Q 1991 1309 1228 531 
z
" transform="scale(0.015625)"/>
       </defs>
       <use xlink:href="#DejaVuSans-30"/>
       <use xlink:href="#DejaVuSans-2e" x="63.623047"/>
       <use xlink:href="#DejaVuSans-32" x="95.410156"/>
      </g>
     </g>
    </g>
    <g id="xtick_3">
     <g id="line2d_3">
      <g>
       <use xlink:href="#md168863d7b" x="241.203731" y="339.84" style="stroke: #000000; stroke-width: 0.8"/>
      </g>
     </g>
     <g id="text_3">
      <!-- 0.4 -->
      <g transform="translate(230.071544 357.477813) scale(0.14 -0.14)">
       <defs>
        <path id="DejaVuSans-34" d="M 2419 4116 
L 825 1625 
L 2419 1625 
L 2419 4116 
z
M 2253 4666 
L 3047 4666 
L 3047 1625 
L 3713 1625 
L 3713 1100 
L 3047 1100 
L 3047 0 
L 2419 0 
L 2419 1100 
L 313 1100 
L 313 1709 
L 2253 4666 
z
" transform="scale(0.015625)"/>
       </defs>
       <use xlink:href="#DejaVuSans-30"/>
       <use xlink:href="#DejaVuSans-2e" x="63.623047"/>
       <use xlink:href="#DejaVuSans-34" x="95.410156"/>
      </g>
     </g>
    </g>
    <g id="xtick_4">
     <g id="line2d_4">
      <g>
       <use xlink:href="#md168863d7b" x="316.355246" y="339.84" style="stroke: #000000; stroke-width: 0.8"/>
      </g>
     </g>
     <g id="text_4">
      <!-- 0.6 -->
      <g transform="translate(305.223059 357.477813) scale(0.14 -0.14)">
       <defs>
        <path id="DejaVuSans-36" d="M 2113 2584 
Q 1688 2584 1439 2293 
Q 1191 2003 1191 1497 
Q 1191 994 1439 701 
Q 1688 409 2113 409 
Q 2538 409 2786 701 
Q 3034 994 3034 1497 
Q 3034 2003 2786 2293 
Q 2538 2584 2113 2584 
z
M 3366 4563 
L 3366 3988 
Q 3128 4100 2886 4159 
Q 2644 4219 2406 4219 
Q 1781 4219 1451 3797 
Q 1122 3375 1075 2522 
Q 1259 2794 1537 2939 
Q 1816 3084 2150 3084 
Q 2853 3084 3261 2657 
Q 3669 2231 3669 1497 
Q 3669 778 3244 343 
Q 2819 -91 2113 -91 
Q 1303 -91 875 529 
Q 447 1150 447 2328 
Q 447 3434 972 4092 
Q 1497 4750 2381 4750 
Q 2619 4750 2861 4703 
Q 3103 4656 3366 4563 
z
" transform="scale(0.015625)"/>
       </defs>
       <use xlink:href="#DejaVuSans-30"/>
       <use xlink:href="#DejaVuSans-2e" x="63.623047"/>
       <use xlink:href="#DejaVuSans-36" x="95.410156"/>
      </g>
     </g>
    </g>
    <g id="xtick_5">
     <g id="line2d_5">
      <g>
       <use xlink:href="#md168863d7b" x="391.506761" y="339.84" style="stroke: #000000; stroke-width: 0.8"/>
      </g>
     </g>
     <g id="text_5">
      <!-- 0.8 -->
      <g transform="translate(380.374574 357.477813) scale(0.14 -0.14)">
       <defs>
        <path id="DejaVuSans-38" d="M 2034 2216 
Q 1584 2216 1326 1975 
Q 1069 1734 1069 1313 
Q 1069 891 1326 650 
Q 1584 409 2034 409 
Q 2484 409 2743 651 
Q 3003 894 3003 1313 
Q 3003 1734 2745 1975 
Q 2488 2216 2034 2216 
z
M 1403 2484 
Q 997 2584 770 2862 
Q 544 3141 544 3541 
Q 544 4100 942 4425 
Q 1341 4750 2034 4750 
Q 2731 4750 3128 4425 
Q 3525 4100 3525 3541 
Q 3525 3141 3298 2862 
Q 3072 2584 2669 2484 
Q 3125 2378 3379 2068 
Q 3634 1759 3634 1313 
Q 3634 634 3220 271 
Q 2806 -91 2034 -91 
Q 1263 -91 848 271 
Q 434 634 434 1313 
Q 434 1759 690 2068 
Q 947 2378 1403 2484 
z
M 1172 3481 
Q 1172 3119 1398 2916 
Q 1625 2713 2034 2713 
Q 2441 2713 2670 2916 
Q 2900 3119 2900 3481 
Q 2900 3844 2670 4047 
Q 2441 4250 2034 4250 
Q 1625 4250 1398 4047 
Q 1172 3844 1172 3481 
z
" transform="scale(0.015625)"/>
       </defs>
       <use xlink:href="#DejaVuSans-30"/>
       <use xlink:href="#DejaVuSans-2e" x="63.623047"/>
       <use xlink:href="#DejaVuSans-38" x="95.410156"/>
      </g>
     </g>
    </g>
    <g id="xtick_6">
     <g id="line2d_6">
      <g>
       <use xlink:href="#md168863d7b" x="466.658277" y="339.84" style="stroke: #000000; stroke-width: 0.8"/>
      </g>
     </g>
     <g id="text_6">
      <!-- 1.0 -->
      <g transform="translate(455.526089 357.477813) scale(0.14 -0.14)">
       <defs>
        <path id="DejaVuSans-31" d="M 794 531 
L 1825 531 
L 1825 4091 
L 703 3866 
L 703 4441 
L 1819 4666 
L 2450 4666 
L 2450 531 
L 3481 531 
L 3481 0 
L 794 0 
L 794 531 
z
" transform="scale(0.015625)"/>
       </defs>
       <use xlink:href="#DejaVuSans-31"/>
       <use xlink:href="#DejaVuSans-2e" x="63.623047"/>
       <use xlink:href="#DejaVuSans-30" x="95.410156"/>
      </g>
     </g>
    </g>
    <g id="xtick_7">
     <g id="line2d_7">
      <g>
       <use xlink:href="#md168863d7b" x="541.809792" y="339.84" style="stroke: #000000; stroke-width: 0.8"/>
      </g>
     </g>
     <g id="text_7">
      <!-- 1.2 -->
      <g transform="translate(530.677604 357.477813) scale(0.14 -0.14)">
       <use xlink:href="#DejaVuSans-31"/>
       <use xlink:href="#DejaVuSans-2e" x="63.623047"/>
       <use xlink:href="#DejaVuSans-32" x="95.410156"/>
      </g>
     </g>
    </g>
    <g id="xtick_8">
     <g id="line2d_8">
      <g>
       <use xlink:href="#md168863d7b" x="616.961307" y="339.84" style="stroke: #000000; stroke-width: 0.8"/>
      </g>
     </g>
     <g id="text_8">
      <!-- 1.4 -->
      <g transform="translate(605.829119 357.477813) scale(0.14 -0.14)">
       <use xlink:href="#DejaVuSans-31"/>
       <use xlink:href="#DejaVuSans-2e" x="63.623047"/>
       <use xlink:href="#DejaVuSans-34" x="95.410156"/>
      </g>
     </g>
    </g>
    <g id="xtick_9">
     <g id="line2d_9">
      <g>
       <use xlink:href="#md168863d7b" x="692.112822" y="339.84" style="stroke: #000000; stroke-width: 0.8"/>
      </g>
     </g>
     <g id="text_9">
      <!-- 1.6 -->
      <g transform="translate(680.980634 357.477813) scale(0.14 -0.14)">
       <use xlink:href="#DejaVuSans-31"/>
       <use xlink:href="#DejaVuSans-2e" x="63.623047"/>
       <use xlink:href="#DejaVuSans-36" x="95.410156"/>
      </g>
     </g>
    </g>
    <g id="text_10">
     <!-- Chromosome Position -->
     <g transform="translate(299.481875 378.066563) scale(0.18 -0.18)">
      <defs>
       <path id="DejaVuSans-43" d="M 4122 4306 
L 4122 3641 
Q 3803 3938 3442 4084 
Q 3081 4231 2675 4231 
Q 1875 4231 1450 3742 
Q 1025 3253 1025 2328 
Q 1025 1406 1450 917 
Q 1875 428 2675 428 
Q 3081 428 3442 575 
Q 3803 722 4122 1019 
L 4122 359 
Q 3791 134 3420 21 
Q 3050 -91 2638 -91 
Q 1578 -91 968 557 
Q 359 1206 359 2328 
Q 359 3453 968 4101 
Q 1578 4750 2638 4750 
Q 3056 4750 3426 4639 
Q 3797 4528 4122 4306 
z
" transform="scale(0.015625)"/>
       <path id="DejaVuSans-68" d="M 3513 2113 
L 3513 0 
L 2938 0 
L 2938 2094 
Q 2938 2591 2744 2837 
Q 2550 3084 2163 3084 
Q 1697 3084 1428 2787 
Q 1159 2491 1159 1978 
L 1159 0 
L 581 0 
L 581 4863 
L 1159 4863 
L 1159 2956 
Q 1366 3272 1645 3428 
Q 1925 3584 2291 3584 
Q 2894 3584 3203 3211 
Q 3513 2838 3513 2113 
z
" transform="scale(0.015625)"/>
       <path id="DejaVuSans-72" d="M 2631 2963 
Q 2534 3019 2420 3045 
Q 2306 3072 2169 3072 
Q 1681 3072 1420 2755 
Q 1159 2438 1159 1844 
L 1159 0 
L 581 0 
L 581 3500 
L 1159 3500 
L 1159 2956 
Q 1341 3275 1631 3429 
Q 1922 3584 2338 3584 
Q 2397 3584 2469 3576 
Q 2541 3569 2628 3553 
L 2631 2963 
z
" transform="scale(0.015625)"/>
       <path id="DejaVuSans-6f" d="M 1959 3097 
Q 1497 3097 1228 2736 
Q 959 2375 959 1747 
Q 959 1119 1226 758 
Q 1494 397 1959 397 
Q 2419 397 2687 759 
Q 2956 1122 2956 1747 
Q 2956 2369 2687 2733 
Q 2419 3097 1959 3097 
z
M 1959 3584 
Q 2709 3584 3137 3096 
Q 3566 2609 3566 1747 
Q 3566 888 3137 398 
Q 2709 -91 1959 -91 
Q 1206 -91 779 398 
Q 353 888 353 1747 
Q 353 2609 779 3096 
Q 1206 3584 1959 3584 
z
" transform="scale(0.015625)"/>
       <path id="DejaVuSans-6d" d="M 3328 2828 
Q 3544 3216 3844 3400 
Q 4144 3584 4550 3584 
Q 5097 3584 5394 3201 
Q 5691 2819 5691 2113 
L 5691 0 
L 5113 0 
L 5113 2094 
Q 5113 2597 4934 2840 
Q 4756 3084 4391 3084 
Q 3944 3084 3684 2787 
Q 3425 2491 3425 1978 
L 3425 0 
L 2847 0 
L 2847 2094 
Q 2847 2600 2669 2842 
Q 2491 3084 2119 3084 
Q 1678 3084 1418 2786 
Q 1159 2488 1159 1978 
L 1159 0 
L 581 0 
L 581 3500 
L 1159 3500 
L 1159 2956 
Q 1356 3278 1631 3431 
Q 1906 3584 2284 3584 
Q 2666 3584 2933 3390 
Q 3200 3197 3328 2828 
z
" transform="scale(0.015625)"/>
       <path id="DejaVuSans-73" d="M 2834 3397 
L 2834 2853 
Q 2591 2978 2328 3040 
Q 2066 3103 1784 3103 
Q 1356 3103 1142 2972 
Q 928 2841 928 2578 
Q 928 2378 1081 2264 
Q 1234 2150 1697 2047 
L 1894 2003 
Q 2506 1872 2764 1633 
Q 3022 1394 3022 966 
Q 3022 478 2636 193 
Q 2250 -91 1575 -91 
Q 1294 -91 989 -36 
Q 684 19 347 128 
L 347 722 
Q 666 556 975 473 
Q 1284 391 1588 391 
Q 1994 391 2212 530 
Q 2431 669 2431 922 
Q 2431 1156 2273 1281 
Q 2116 1406 1581 1522 
L 1381 1569 
Q 847 1681 609 1914 
Q 372 2147 372 2553 
Q 372 3047 722 3315 
Q 1072 3584 1716 3584 
Q 2034 3584 2315 3537 
Q 2597 3491 2834 3397 
z
" transform="scale(0.015625)"/>
       <path id="DejaVuSans-65" d="M 3597 1894 
L 3597 1613 
L 953 1613 
Q 991 1019 1311 708 
Q 1631 397 2203 397 
Q 2534 397 2845 478 
Q 3156 559 3463 722 
L 3463 178 
Q 3153 47 2828 -22 
Q 2503 -91 2169 -91 
Q 1331 -91 842 396 
Q 353 884 353 1716 
Q 353 2575 817 3079 
Q 1281 3584 2069 3584 
Q 2775 3584 3186 3129 
Q 3597 2675 3597 1894 
z
M 3022 2063 
Q 3016 2534 2758 2815 
Q 2500 3097 2075 3097 
Q 1594 3097 1305 2825 
Q 1016 2553 972 2059 
L 3022 2063 
z
" transform="scale(0.015625)"/>
       <path id="DejaVuSans-20" transform="scale(0.015625)"/>
       <path id="DejaVuSans-50" d="M 1259 4147 
L 1259 2394 
L 2053 2394 
Q 2494 2394 2734 2622 
Q 2975 2850 2975 3272 
Q 2975 3691 2734 3919 
Q 2494 4147 2053 4147 
L 1259 4147 
z
M 628 4666 
L 2053 4666 
Q 2838 4666 3239 4311 
Q 3641 3956 3641 3272 
Q 3641 2581 3239 2228 
Q 2838 1875 2053 1875 
L 1259 1875 
L 1259 0 
L 628 0 
L 628 4666 
z
" transform="scale(0.015625)"/>
       <path id="DejaVuSans-69" d="M 603 3500 
L 1178 3500 
L 1178 0 
L 603 0 
L 603 3500 
z
M 603 4863 
L 1178 4863 
L 1178 4134 
L 603 4134 
L 603 4863 
z
" transform="scale(0.015625)"/>
       <path id="DejaVuSans-74" d="M 1172 4494 
L 1172 3500 
L 2356 3500 
L 2356 3053 
L 1172 3053 
L 1172 1153 
Q 1172 725 1289 603 
Q 1406 481 1766 481 
L 2356 481 
L 2356 0 
L 1766 0 
Q 1100 0 847 248 
Q 594 497 594 1153 
L 594 3053 
L 172 3053 
L 172 3500 
L 594 3500 
L 594 4494 
L 1172 4494 
z
" transform="scale(0.015625)"/>
       <path id="DejaVuSans-6e" d="M 3513 2113 
L 3513 0 
L 2938 0 
L 2938 2094 
Q 2938 2591 2744 2837 
Q 2550 3084 2163 3084 
Q 1697 3084 1428 2787 
Q 1159 2491 1159 1978 
L 1159 0 
L 581 0 
L 581 3500 
L 1159 3500 
L 1159 2956 
Q 1366 3272 1645 3428 
Q 1925 3584 2291 3584 
Q 2894 3584 3203 3211 
Q 3513 2838 3513 2113 
z
" transform="scale(0.015625)"/>
      </defs>
      <use xlink:href="#DejaVuSans-43"/>
      <use xlink:href="#DejaVuSans-68" x="69.824219"/>
      <use xlink:href="#DejaVuSans-72" x="133.203125"/>
      <use xlink:href="#DejaVuSans-6f" x="172.066406"/>
      <use xlink:href="#DejaVuSans-6d" x="233.248047"/>
      <use xlink:href="#DejaVuSans-6f" x="330.660156"/>
      <use xlink:href="#DejaVuSans-73" x="391.841797"/>
      <use xlink:href="#DejaVuSans-6f" x="443.941406"/>
      <use xlink:href="#DejaVuSans-6d" x="505.123047"/>
      <use xlink:href="#DejaVuSans-65" x="602.535156"/>
      <use xlink:href="#DejaVuSans-20" x="664.058594"/>
      <use xlink:href="#DejaVuSans-50" x="695.845703"/>
      <use xlink:href="#DejaVuSans-6f" x="752.523438"/>
      <use xlink:href="#DejaVuSans-73" x="813.705078"/>
      <use xlink:href="#DejaVuSans-69" x="865.804688"/>
      <use xlink:href="#DejaVuSans-74" x="893.587891"/>
      <use xlink:href="#DejaVuSans-69" x="932.796875"/>
      <use xlink:href="#DejaVuSans-6f" x="960.580078"/>
      <use xlink:href="#DejaVuSans-6e" x="1021.761719"/>
     </g>
    </g>
    <g id="text_11">
     <!-- 1e6 -->
     <g transform="translate(713.065 370.987813) scale(0.1 -0.1)">
      <use xlink:href="#DejaVuSans-31"/>
      <use xlink:href="#DejaVuSans-65" x="63.623047"/>
      <use xlink:href="#DejaVuSans-36" x="125.146484"/>
     </g>
    </g>
   </g>
   <g id="matplotlib.axis_2">
    <g id="ytick_1">
     <g id="line2d_10">
      <defs>
       <path id="maf9f63cef8" d="M 0 0 
L -3.5 0 
" style="stroke: #000000; stroke-width: 0.8"/>
      </defs>
      <g>
       <use xlink:href="#maf9f63cef8" x="62.343125" y="339.84" style="stroke: #000000; stroke-width: 0.8"/>
      </g>
     </g>
     <g id="text_12">
      <!-- 0 -->
      <g transform="translate(46.435625 345.158906) scale(0.14 -0.14)">
       <use xlink:href="#DejaVuSans-30"/>
      </g>
     </g>
    </g>
    <g id="ytick_2">
     <g id="line2d_11">
      <g>
       <use xlink:href="#maf9f63cef8" x="62.343125" y="302.871534" style="stroke: #000000; stroke-width: 0.8"/>
      </g>
     </g>
     <g id="text_13">
      <!-- 20 -->
      <g transform="translate(37.528125 308.19044) scale(0.14 -0.14)">
       <use xlink:href="#DejaVuSans-32"/>
       <use xlink:href="#DejaVuSans-30" x="63.623047"/>
      </g>
     </g>
    </g>
    <g id="ytick_3">
     <g id="line2d_12">
      <g>
       <use xlink:href="#maf9f63cef8" x="62.343125" y="265.903068" style="stroke: #000000; stroke-width: 0.8"/>
      </g>
     </g>
     <g id="text_14">
      <!-- 40 -->
      <g transform="translate(37.528125 271.221974) scale(0.14 -0.14)">
       <use xlink:href="#DejaVuSans-34"/>
       <use xlink:href="#DejaVuSans-30" x="63.623047"/>
      </g>
     </g>
    </g>
    <g id="ytick_4">
     <g id="line2d_13">
      <g>
       <use xlink:href="#maf9f63cef8" x="62.343125" y="228.934602" style="stroke: #000000; stroke-width: 0.8"/>
      </g>
     </g>
     <g id="text_15">
      <!-- 60 -->
      <g transform="translate(37.528125 234.253508) scale(0.14 -0.14)">
       <use xlink:href="#DejaVuSans-36"/>
       <use xlink:href="#DejaVuSans-30" x="63.623047"/>
      </g>
     </g>
    </g>
    <g id="ytick_5">
     <g id="line2d_14">
      <g>
       <use xlink:href="#maf9f63cef8" x="62.343125" y="191.966136" style="stroke: #000000; stroke-width: 0.8"/>
      </g>
     </g>
     <g id="text_16">
      <!-- 80 -->
      <g transform="translate(37.528125 197.285042) scale(0.14 -0.14)">
       <use xlink:href="#DejaVuSans-38"/>
       <use xlink:href="#DejaVuSans-30" x="63.623047"/>
      </g>
     </g>
    </g>
    <g id="ytick_6">
     <g id="line2d_15">
      <g>
       <use xlink:href="#maf9f63cef8" x="62.343125" y="154.99767" style="stroke: #000000; stroke-width: 0.8"/>
      </g>
     </g>
     <g id="text_17">
      <!-- 100 -->
      <g transform="translate(28.620625 160.316576) scale(0.14 -0.14)">
       <use xlink:href="#DejaVuSans-31"/>
       <use xlink:href="#DejaVuSans-30" x="63.623047"/>
       <use xlink:href="#DejaVuSans-30" x="127.246094"/>
      </g>
     </g>
    </g>
    <g id="ytick_7">
     <g id="line2d_16">
      <g>
       <use xlink:href="#maf9f63cef8" x="62.343125" y="118.029204" style="stroke: #000000; stroke-width: 0.8"/>
      </g>
     </g>
     <g id="text_18">
      <!-- 120 -->
      <g transform="translate(28.620625 123.34811) scale(0.14 -0.14)">
       <use xlink:href="#DejaVuSans-31"/>
       <use xlink:href="#DejaVuSans-32" x="63.623047"/>
       <use xlink:href="#DejaVuSans-30" x="127.246094"/>
      </g>
     </g>
    </g>
    <g id="ytick_8">
     <g id="line2d_17">
      <g>
       <use xlink:href="#maf9f63cef8" x="62.343125" y="81.060738" style="stroke: #000000; stroke-width: 0.8"/>
      </g>
     </g>
     <g id="text_19">
      <!-- 140 -->
      <g transform="translate(28.620625 86.379644) scale(0.14 -0.14)">
       <use xlink:href="#DejaVuSans-31"/>
       <use xlink:href="#DejaVuSans-34" x="63.623047"/>
       <use xlink:href="#DejaVuSans-30" x="127.246094"/>
      </g>
     </g>
    </g>
    <g id="ytick_9">
     <g id="line2d_18">
      <g>
       <use xlink:href="#maf9f63cef8" x="62.343125" y="44.092272" style="stroke: #000000; stroke-width: 0.8"/>
      </g>
     </g>
     <g id="text_20">
      <!-- 160 -->
      <g transform="translate(28.620625 49.411178) scale(0.14 -0.14)">
       <use xlink:href="#DejaVuSans-31"/>
       <use xlink:href="#DejaVuSans-36" x="63.623047"/>
       <use xlink:href="#DejaVuSans-30" x="127.246094"/>
      </g>
     </g>
    </g>
    <g id="text_21">
     <!-- Mean of Reduced Reads Lengths -->
     <g transform="translate(20.877187 320.198906) rotate(-90) scale(0.18 -0.18)">
      <defs>
       <path id="DejaVuSans-4d" d="M 628 4666 
L 1569 4666 
L 2759 1491 
L 3956 4666 
L 4897 4666 
L 4897 0 
L 4281 0 
L 4281 4097 
L 3078 897 
L 2444 897 
L 1241 4097 
L 1241 0 
L 628 0 
L 628 4666 
z
" transform="scale(0.015625)"/>
       <path id="DejaVuSans-61" d="M 2194 1759 
Q 1497 1759 1228 1600 
Q 959 1441 959 1056 
Q 959 750 1161 570 
Q 1363 391 1709 391 
Q 2188 391 2477 730 
Q 2766 1069 2766 1631 
L 2766 1759 
L 2194 1759 
z
M 3341 1997 
L 3341 0 
L 2766 0 
L 2766 531 
Q 2569 213 2275 61 
Q 1981 -91 1556 -91 
Q 1019 -91 701 211 
Q 384 513 384 1019 
Q 384 1609 779 1909 
Q 1175 2209 1959 2209 
L 2766 2209 
L 2766 2266 
Q 2766 2663 2505 2880 
Q 2244 3097 1772 3097 
Q 1472 3097 1187 3025 
Q 903 2953 641 2809 
L 641 3341 
Q 956 3463 1253 3523 
Q 1550 3584 1831 3584 
Q 2591 3584 2966 3190 
Q 3341 2797 3341 1997 
z
" transform="scale(0.015625)"/>
       <path id="DejaVuSans-66" d="M 2375 4863 
L 2375 4384 
L 1825 4384 
Q 1516 4384 1395 4259 
Q 1275 4134 1275 3809 
L 1275 3500 
L 2222 3500 
L 2222 3053 
L 1275 3053 
L 1275 0 
L 697 0 
L 697 3053 
L 147 3053 
L 147 3500 
L 697 3500 
L 697 3744 
Q 697 4328 969 4595 
Q 1241 4863 1831 4863 
L 2375 4863 
z
" transform="scale(0.015625)"/>
       <path id="DejaVuSans-52" d="M 2841 2188 
Q 3044 2119 3236 1894 
Q 3428 1669 3622 1275 
L 4263 0 
L 3584 0 
L 2988 1197 
Q 2756 1666 2539 1819 
Q 2322 1972 1947 1972 
L 1259 1972 
L 1259 0 
L 628 0 
L 628 4666 
L 2053 4666 
Q 2853 4666 3247 4331 
Q 3641 3997 3641 3322 
Q 3641 2881 3436 2590 
Q 3231 2300 2841 2188 
z
M 1259 4147 
L 1259 2491 
L 2053 2491 
Q 2509 2491 2742 2702 
Q 2975 2913 2975 3322 
Q 2975 3731 2742 3939 
Q 2509 4147 2053 4147 
L 1259 4147 
z
" transform="scale(0.015625)"/>
       <path id="DejaVuSans-64" d="M 2906 2969 
L 2906 4863 
L 3481 4863 
L 3481 0 
L 2906 0 
L 2906 525 
Q 2725 213 2448 61 
Q 2172 -91 1784 -91 
Q 1150 -91 751 415 
Q 353 922 353 1747 
Q 353 2572 751 3078 
Q 1150 3584 1784 3584 
Q 2172 3584 2448 3432 
Q 2725 3281 2906 2969 
z
M 947 1747 
Q 947 1113 1208 752 
Q 1469 391 1925 391 
Q 2381 391 2643 752 
Q 2906 1113 2906 1747 
Q 2906 2381 2643 2742 
Q 2381 3103 1925 3103 
Q 1469 3103 1208 2742 
Q 947 2381 947 1747 
z
" transform="scale(0.015625)"/>
       <path id="DejaVuSans-75" d="M 544 1381 
L 544 3500 
L 1119 3500 
L 1119 1403 
Q 1119 906 1312 657 
Q 1506 409 1894 409 
Q 2359 409 2629 706 
Q 2900 1003 2900 1516 
L 2900 3500 
L 3475 3500 
L 3475 0 
L 2900 0 
L 2900 538 
Q 2691 219 2414 64 
Q 2138 -91 1772 -91 
Q 1169 -91 856 284 
Q 544 659 544 1381 
z
M 1991 3584 
L 1991 3584 
z
" transform="scale(0.015625)"/>
       <path id="DejaVuSans-63" d="M 3122 3366 
L 3122 2828 
Q 2878 2963 2633 3030 
Q 2388 3097 2138 3097 
Q 1578 3097 1268 2742 
Q 959 2388 959 1747 
Q 959 1106 1268 751 
Q 1578 397 2138 397 
Q 2388 397 2633 464 
Q 2878 531 3122 666 
L 3122 134 
Q 2881 22 2623 -34 
Q 2366 -91 2075 -91 
Q 1284 -91 818 406 
Q 353 903 353 1747 
Q 353 2603 823 3093 
Q 1294 3584 2113 3584 
Q 2378 3584 2631 3529 
Q 2884 3475 3122 3366 
z
" transform="scale(0.015625)"/>
       <path id="DejaVuSans-4c" d="M 628 4666 
L 1259 4666 
L 1259 531 
L 3531 531 
L 3531 0 
L 628 0 
L 628 4666 
z
" transform="scale(0.015625)"/>
       <path id="DejaVuSans-67" d="M 2906 1791 
Q 2906 2416 2648 2759 
Q 2391 3103 1925 3103 
Q 1463 3103 1205 2759 
Q 947 2416 947 1791 
Q 947 1169 1205 825 
Q 1463 481 1925 481 
Q 2391 481 2648 825 
Q 2906 1169 2906 1791 
z
M 3481 434 
Q 3481 -459 3084 -895 
Q 2688 -1331 1869 -1331 
Q 1566 -1331 1297 -1286 
Q 1028 -1241 775 -1147 
L 775 -588 
Q 1028 -725 1275 -790 
Q 1522 -856 1778 -856 
Q 2344 -856 2625 -561 
Q 2906 -266 2906 331 
L 2906 616 
Q 2728 306 2450 153 
Q 2172 0 1784 0 
Q 1141 0 747 490 
Q 353 981 353 1791 
Q 353 2603 747 3093 
Q 1141 3584 1784 3584 
Q 2172 3584 2450 3431 
Q 2728 3278 2906 2969 
L 2906 3500 
L 3481 3500 
L 3481 434 
z
" transform="scale(0.015625)"/>
      </defs>
      <use xlink:href="#DejaVuSans-4d"/>
      <use xlink:href="#DejaVuSans-65" x="86.279297"/>
      <use xlink:href="#DejaVuSans-61" x="147.802734"/>
      <use xlink:href="#DejaVuSans-6e" x="209.082031"/>
      <use xlink:href="#DejaVuSans-20" x="272.460938"/>
      <use xlink:href="#DejaVuSans-6f" x="304.248047"/>
      <use xlink:href="#DejaVuSans-66" x="365.429688"/>
      <use xlink:href="#DejaVuSans-20" x="400.634766"/>
      <use xlink:href="#DejaVuSans-52" x="432.421875"/>
      <use xlink:href="#DejaVuSans-65" x="497.404297"/>
      <use xlink:href="#DejaVuSans-64" x="558.927734"/>
      <use xlink:href="#DejaVuSans-75" x="622.404297"/>
      <use xlink:href="#DejaVuSans-63" x="685.783203"/>
      <use xlink:href="#DejaVuSans-65" x="740.763672"/>
      <use xlink:href="#DejaVuSans-64" x="802.287109"/>
      <use xlink:href="#DejaVuSans-20" x="865.763672"/>
      <use xlink:href="#DejaVuSans-52" x="897.550781"/>
      <use xlink:href="#DejaVuSans-65" x="962.533203"/>
      <use xlink:href="#DejaVuSans-61" x="1024.056641"/>
      <use xlink:href="#DejaVuSans-64" x="1085.335938"/>
      <use xlink:href="#DejaVuSans-73" x="1148.8125"/>
      <use xlink:href="#DejaVuSans-20" x="1200.912109"/>
      <use xlink:href="#DejaVuSans-4c" x="1232.699219"/>
      <use xlink:href="#DejaVuSans-65" x="1286.662109"/>
      <use xlink:href="#DejaVuSans-6e" x="1348.185547"/>
      <use xlink:href="#DejaVuSans-67" x="1411.564453"/>
      <use xlink:href="#DejaVuSans-74" x="1475.041016"/>
      <use xlink:href="#DejaVuSans-68" x="1514.25"/>
      <use xlink:href="#DejaVuSans-73" x="1577.628906"/>
     </g>
    </g>
   </g>
   <g id="patch_165">
    <path d="M 62.343125 339.84 
L 62.343125 7.2 
" style="fill: none; stroke: #000000; stroke-width: 0.8; stroke-linejoin: miter; stroke-linecap: square"/>
   </g>
   <g id="patch_166">
    <path d="M 731.943125 339.84 
L 731.943125 7.2 
" style="fill: none; stroke: #000000; stroke-width: 0.8; stroke-linejoin: miter; stroke-linecap: square"/>
   </g>
   <g id="patch_167">
    <path d="M 62.343125 339.84 
L 731.943125 339.84 
" style="fill: none; stroke: #000000; stroke-width: 0.8; stroke-linejoin: miter; stroke-linecap: square"/>
   </g>
   <g id="patch_168">
    <path d="M 62.343125 7.2 
L 731.943125 7.2 
" style="fill: none; stroke: #000000; stroke-width: 0.8; stroke-linejoin: miter; stroke-linecap: square"/>
   </g>
  </g>
 </g>
 <defs>
  <clipPath id="paf0a14e131">
   <rect x="62.343125" y="7.2" width="669.6" height="332.64"/>
  </clipPath>
 </defs>
</svg>
