<?xml version="1.0" encoding="utf-8" standalone="no"?>
<!DOCTYPE svg PUBLIC "-//W3C//DTD SVG 1.1//EN"
  "http://www.w3.org/Graphics/SVG/1.1/DTD/svg11.dtd">
<svg xmlns:xlink="http://www.w3.org/1999/xlink" width="818.533125pt" height="380.61pt" viewBox="0 0 818.533125 380.61" xmlns="http://www.w3.org/2000/svg" version="1.1">
 <metadata>
  <rdf:RDF xmlns:dc="http://purl.org/dc/elements/1.1/" xmlns:cc="http://creativecommons.org/ns#" xmlns:rdf="http://www.w3.org/1999/02/22-rdf-syntax-ns#">
   <cc:Work>
    <dc:type rdf:resource="http://purl.org/dc/dcmitype/StillImage"/>
    <dc:date>2025-06-24T15:50:42.051051</dc:date>
    <dc:format>image/svg+xml</dc:format>
    <dc:creator>
     <cc:Agent>
      <dc:title>Matplotlib v3.7.3, https://matplotlib.org/</dc:title>
     </cc:Agent>
    </dc:creator>
   </cc:Work>
  </rdf:RDF>
 </metadata>
 <defs>
  <style type="text/css">*{stroke-linejoin: round; stroke-linecap: butt}</style>
 </defs>
 <g id="figure_1">
  <g id="patch_1">
   <path d="M 0 380.61 
L 818.533125 380.61 
L 818.533125 0 
L 0 0 
z
" style="fill: #ffffff"/>
  </g>
  <g id="axes_1">
   <g id="patch_2">
    <path d="M 62.343125 331.44 
L 811.333125 331.44 
L 811.333125 7.2 
L 62.343125 7.2 
z
" style="fill: #ffffff"/>
   </g>
   <g id="patch_3">
    <path d="M 96.388125 331.44 
L 101.286686 331.44 
L 101.286686 301.676145 
L 96.388125 301.676145 
z
" clip-path="url(#peff2471d70)" style="fill: #1f77b4; opacity: 0.7; stroke: #000000; stroke-linejoin: miter"/>
   </g>
   <g id="patch_4">
    <path d="M 101.286686 331.44 
L 106.185247 331.44 
L 106.185247 328.959679 
L 101.286686 328.959679 
z
" clip-path="url(#peff2471d70)" style="fill: #1f77b4; opacity: 0.7; stroke: #000000; stroke-linejoin: miter"/>
   </g>
   <g id="patch_5">
    <path d="M 106.185247 331.44 
L 111.083808 331.44 
L 111.083808 201.223133 
L 106.185247 201.223133 
z
" clip-path="url(#peff2471d70)" style="fill: #1f77b4; opacity: 0.7; stroke: #000000; stroke-linejoin: miter"/>
   </g>
   <g id="patch_6">
    <path d="M 111.083808 331.44 
L 115.98237 331.44 
L 115.98237 187.581365 
L 111.083808 187.581365 
z
" clip-path="url(#peff2471d70)" style="fill: #1f77b4; opacity: 0.7; stroke: #000000; stroke-linejoin: miter"/>
   </g>
   <g id="patch_7">
    <path d="M 115.98237 331.44 
L 120.880931 331.44 
L 120.880931 113.171727 
L 115.98237 113.171727 
z
" clip-path="url(#peff2471d70)" style="fill: #1f77b4; opacity: 0.7; stroke: #000000; stroke-linejoin: miter"/>
   </g>
   <g id="patch_8">
    <path d="M 120.880931 331.44 
L 125.779492 331.44 
L 125.779492 124.333173 
L 120.880931 124.333173 
z
" clip-path="url(#peff2471d70)" style="fill: #1f77b4; opacity: 0.7; stroke: #000000; stroke-linejoin: miter"/>
   </g>
   <g id="patch_9">
    <path d="M 125.779492 331.44 
L 130.678053 331.44 
L 130.678053 78.447229 
L 125.779492 78.447229 
z
" clip-path="url(#peff2471d70)" style="fill: #1f77b4; opacity: 0.7; stroke: #000000; stroke-linejoin: miter"/>
   </g>
   <g id="patch_10">
    <path d="M 130.678053 331.44 
L 135.576614 331.44 
L 135.576614 149.136386 
L 130.678053 149.136386 
z
" clip-path="url(#peff2471d70)" style="fill: #1f77b4; opacity: 0.7; stroke: #000000; stroke-linejoin: miter"/>
   </g>
   <g id="patch_11">
    <path d="M 135.576614 331.44 
L 140.475175 331.44 
L 140.475175 62.325141 
L 135.576614 62.325141 
z
" clip-path="url(#peff2471d70)" style="fill: #1f77b4; opacity: 0.7; stroke: #000000; stroke-linejoin: miter"/>
   </g>
   <g id="patch_12">
    <path d="M 140.475175 331.44 
L 145.373737 331.44 
L 145.373737 133.014297 
L 140.475175 133.014297 
z
" clip-path="url(#peff2471d70)" style="fill: #1f77b4; opacity: 0.7; stroke: #000000; stroke-linejoin: miter"/>
   </g>
   <g id="patch_13">
    <path d="M 145.373737 331.44 
L 150.272298 331.44 
L 150.272298 78.447229 
L 145.373737 78.447229 
z
" clip-path="url(#peff2471d70)" style="fill: #1f77b4; opacity: 0.7; stroke: #000000; stroke-linejoin: miter"/>
   </g>
   <g id="patch_14">
    <path d="M 150.272298 331.44 
L 155.170859 331.44 
L 155.170859 69.766104 
L 150.272298 69.766104 
z
" clip-path="url(#peff2471d70)" style="fill: #1f77b4; opacity: 0.7; stroke: #000000; stroke-linejoin: miter"/>
   </g>
   <g id="patch_15">
    <path d="M 155.170859 331.44 
L 160.06942 331.44 
L 160.06942 33.801446 
L 155.170859 33.801446 
z
" clip-path="url(#peff2471d70)" style="fill: #1f77b4; opacity: 0.7; stroke: #000000; stroke-linejoin: miter"/>
   </g>
   <g id="patch_16">
    <path d="M 160.06942 331.44 
L 164.967981 331.44 
L 164.967981 49.923534 
L 160.06942 49.923534 
z
" clip-path="url(#peff2471d70)" style="fill: #1f77b4; opacity: 0.7; stroke: #000000; stroke-linejoin: miter"/>
   </g>
   <g id="patch_17">
    <path d="M 164.967981 331.44 
L 169.866542 331.44 
L 169.866542 73.486586 
L 164.967981 73.486586 
z
" clip-path="url(#peff2471d70)" style="fill: #1f77b4; opacity: 0.7; stroke: #000000; stroke-linejoin: miter"/>
   </g>
   <g id="patch_18">
    <path d="M 169.866542 331.44 
L 174.765103 331.44 
L 174.765103 64.805462 
L 169.866542 64.805462 
z
" clip-path="url(#peff2471d70)" style="fill: #1f77b4; opacity: 0.7; stroke: #000000; stroke-linejoin: miter"/>
   </g>
   <g id="patch_19">
    <path d="M 174.765103 331.44 
L 179.663665 331.44 
L 179.663665 53.644016 
L 174.765103 53.644016 
z
" clip-path="url(#peff2471d70)" style="fill: #1f77b4; opacity: 0.7; stroke: #000000; stroke-linejoin: miter"/>
   </g>
   <g id="patch_20">
    <path d="M 179.663665 331.44 
L 184.562226 331.44 
L 184.562226 26.360482 
L 179.663665 26.360482 
z
" clip-path="url(#peff2471d70)" style="fill: #1f77b4; opacity: 0.7; stroke: #000000; stroke-linejoin: miter"/>
   </g>
   <g id="patch_21">
    <path d="M 184.562226 331.44 
L 189.460787 331.44 
L 189.460787 47.443213 
L 184.562226 47.443213 
z
" clip-path="url(#peff2471d70)" style="fill: #1f77b4; opacity: 0.7; stroke: #000000; stroke-linejoin: miter"/>
   </g>
   <g id="patch_22">
    <path d="M 189.460787 331.44 
L 194.359348 331.44 
L 194.359348 140.455261 
L 189.460787 140.455261 
z
" clip-path="url(#peff2471d70)" style="fill: #1f77b4; opacity: 0.7; stroke: #000000; stroke-linejoin: miter"/>
   </g>
   <g id="patch_23">
    <path d="M 194.359348 331.44 
L 199.257909 331.44 
L 199.257909 229.746827 
L 194.359348 229.746827 
z
" clip-path="url(#peff2471d70)" style="fill: #1f77b4; opacity: 0.7; stroke: #000000; stroke-linejoin: miter"/>
   </g>
   <g id="patch_24">
    <path d="M 199.257909 331.44 
L 204.15647 331.44 
L 204.15647 190.061687 
L 199.257909 190.061687 
z
" clip-path="url(#peff2471d70)" style="fill: #1f77b4; opacity: 0.7; stroke: #000000; stroke-linejoin: miter"/>
   </g>
   <g id="patch_25">
    <path d="M 204.15647 331.44 
L 209.055031 331.44 
L 209.055031 178.900241 
L 204.15647 178.900241 
z
" clip-path="url(#peff2471d70)" style="fill: #1f77b4; opacity: 0.7; stroke: #000000; stroke-linejoin: miter"/>
   </g>
   <g id="patch_26">
    <path d="M 209.055031 331.44 
L 213.953593 331.44 
L 213.953593 211.144418 
L 209.055031 211.144418 
z
" clip-path="url(#peff2471d70)" style="fill: #1f77b4; opacity: 0.7; stroke: #000000; stroke-linejoin: miter"/>
   </g>
   <g id="patch_27">
    <path d="M 213.953593 331.44 
L 218.852154 331.44 
L 218.852154 178.900241 
L 213.953593 178.900241 
z
" clip-path="url(#peff2471d70)" style="fill: #1f77b4; opacity: 0.7; stroke: #000000; stroke-linejoin: miter"/>
   </g>
   <g id="patch_28">
    <path d="M 218.852154 331.44 
L 223.750715 331.44 
L 223.750715 212.384578 
L 218.852154 212.384578 
z
" clip-path="url(#peff2471d70)" style="fill: #1f77b4; opacity: 0.7; stroke: #000000; stroke-linejoin: miter"/>
   </g>
   <g id="patch_29">
    <path d="M 223.750715 331.44 
L 228.649276 331.44 
L 228.649276 147.896225 
L 223.750715 147.896225 
z
" clip-path="url(#peff2471d70)" style="fill: #1f77b4; opacity: 0.7; stroke: #000000; stroke-linejoin: miter"/>
   </g>
   <g id="patch_30">
    <path d="M 228.649276 331.44 
L 233.547837 331.44 
L 233.547837 182.620723 
L 228.649276 182.620723 
z
" clip-path="url(#peff2471d70)" style="fill: #1f77b4; opacity: 0.7; stroke: #000000; stroke-linejoin: miter"/>
   </g>
   <g id="patch_31">
    <path d="M 233.547837 331.44 
L 238.446398 331.44 
L 238.446398 207.423936 
L 233.547837 207.423936 
z
" clip-path="url(#peff2471d70)" style="fill: #1f77b4; opacity: 0.7; stroke: #000000; stroke-linejoin: miter"/>
   </g>
   <g id="patch_32">
    <path d="M 238.446398 331.44 
L 243.34496 331.44 
L 243.34496 177.66008 
L 238.446398 177.66008 
z
" clip-path="url(#peff2471d70)" style="fill: #1f77b4; opacity: 0.7; stroke: #000000; stroke-linejoin: miter"/>
   </g>
   <g id="patch_33">
    <path d="M 243.34496 331.44 
L 248.243521 331.44 
L 248.243521 191.301847 
L 243.34496 191.301847 
z
" clip-path="url(#peff2471d70)" style="fill: #1f77b4; opacity: 0.7; stroke: #000000; stroke-linejoin: miter"/>
   </g>
   <g id="patch_34">
    <path d="M 248.243521 331.44 
L 253.142082 331.44 
L 253.142082 249.589398 
L 248.243521 249.589398 
z
" clip-path="url(#peff2471d70)" style="fill: #1f77b4; opacity: 0.7; stroke: #000000; stroke-linejoin: miter"/>
   </g>
   <g id="patch_35">
    <path d="M 253.142082 331.44 
L 258.040643 331.44 
L 258.040643 115.652048 
L 253.142082 115.652048 
z
" clip-path="url(#peff2471d70)" style="fill: #1f77b4; opacity: 0.7; stroke: #000000; stroke-linejoin: miter"/>
   </g>
   <g id="patch_36">
    <path d="M 258.040643 331.44 
L 262.939204 331.44 
L 262.939204 181.380562 
L 258.040643 181.380562 
z
" clip-path="url(#peff2471d70)" style="fill: #1f77b4; opacity: 0.7; stroke: #000000; stroke-linejoin: miter"/>
   </g>
   <g id="patch_37">
    <path d="M 262.939204 331.44 
L 267.837765 331.44 
L 267.837765 255.790201 
L 262.939204 255.790201 
z
" clip-path="url(#peff2471d70)" style="fill: #1f77b4; opacity: 0.7; stroke: #000000; stroke-linejoin: miter"/>
   </g>
   <g id="patch_38">
    <path d="M 267.837765 331.44 
L 272.736326 331.44 
L 272.736326 233.467309 
L 267.837765 233.467309 
z
" clip-path="url(#peff2471d70)" style="fill: #1f77b4; opacity: 0.7; stroke: #000000; stroke-linejoin: miter"/>
   </g>
   <g id="patch_39">
    <path d="M 272.736326 331.44 
L 277.634888 331.44 
L 277.634888 137.97494 
L 272.736326 137.97494 
z
" clip-path="url(#peff2471d70)" style="fill: #1f77b4; opacity: 0.7; stroke: #000000; stroke-linejoin: miter"/>
   </g>
   <g id="patch_40">
    <path d="M 277.634888 331.44 
L 282.533449 331.44 
L 282.533449 89.608675 
L 277.634888 89.608675 
z
" clip-path="url(#peff2471d70)" style="fill: #1f77b4; opacity: 0.7; stroke: #000000; stroke-linejoin: miter"/>
   </g>
   <g id="patch_41">
    <path d="M 282.533449 331.44 
L 287.43201 331.44 
L 287.43201 149.136386 
L 282.533449 149.136386 
z
" clip-path="url(#peff2471d70)" style="fill: #1f77b4; opacity: 0.7; stroke: #000000; stroke-linejoin: miter"/>
   </g>
   <g id="patch_42">
    <path d="M 287.43201 331.44 
L 292.330571 331.44 
L 292.330571 185.101044 
L 287.43201 185.101044 
z
" clip-path="url(#peff2471d70)" style="fill: #1f77b4; opacity: 0.7; stroke: #000000; stroke-linejoin: miter"/>
   </g>
   <g id="patch_43">
    <path d="M 292.330571 331.44 
L 297.229132 331.44 
L 297.229132 185.101044 
L 292.330571 185.101044 
z
" clip-path="url(#peff2471d70)" style="fill: #1f77b4; opacity: 0.7; stroke: #000000; stroke-linejoin: miter"/>
   </g>
   <g id="patch_44">
    <path d="M 297.229132 331.44 
L 302.127693 331.44 
L 302.127693 224.786185 
L 297.229132 224.786185 
z
" clip-path="url(#peff2471d70)" style="fill: #1f77b4; opacity: 0.7; stroke: #000000; stroke-linejoin: miter"/>
   </g>
   <g id="patch_45">
    <path d="M 302.127693 331.44 
L 307.026254 331.44 
L 307.026254 239.668112 
L 302.127693 239.668112 
z
" clip-path="url(#peff2471d70)" style="fill: #1f77b4; opacity: 0.7; stroke: #000000; stroke-linejoin: miter"/>
   </g>
   <g id="patch_46">
    <path d="M 307.026254 331.44 
L 311.924816 331.44 
L 311.924816 151.616707 
L 307.026254 151.616707 
z
" clip-path="url(#peff2471d70)" style="fill: #1f77b4; opacity: 0.7; stroke: #000000; stroke-linejoin: miter"/>
   </g>
   <g id="patch_47">
    <path d="M 311.924816 331.44 
L 316.823377 331.44 
L 316.823377 175.179759 
L 311.924816 175.179759 
z
" clip-path="url(#peff2471d70)" style="fill: #1f77b4; opacity: 0.7; stroke: #000000; stroke-linejoin: miter"/>
   </g>
   <g id="patch_48">
    <path d="M 316.823377 331.44 
L 321.721938 331.44 
L 321.721938 123.093012 
L 316.823377 123.093012 
z
" clip-path="url(#peff2471d70)" style="fill: #1f77b4; opacity: 0.7; stroke: #000000; stroke-linejoin: miter"/>
   </g>
   <g id="patch_49">
    <path d="M 321.721938 331.44 
L 326.620499 331.44 
L 326.620499 89.608675 
L 321.721938 89.608675 
z
" clip-path="url(#peff2471d70)" style="fill: #1f77b4; opacity: 0.7; stroke: #000000; stroke-linejoin: miter"/>
   </g>
   <g id="patch_50">
    <path d="M 326.620499 331.44 
L 331.51906 331.44 
L 331.51906 106.970924 
L 326.620499 106.970924 
z
" clip-path="url(#peff2471d70)" style="fill: #1f77b4; opacity: 0.7; stroke: #000000; stroke-linejoin: miter"/>
   </g>
   <g id="patch_51">
    <path d="M 331.51906 331.44 
L 336.417621 331.44 
L 336.417621 130.533976 
L 331.51906 130.533976 
z
" clip-path="url(#peff2471d70)" style="fill: #1f77b4; opacity: 0.7; stroke: #000000; stroke-linejoin: miter"/>
   </g>
   <g id="patch_52">
    <path d="M 336.417621 331.44 
L 341.316183 331.44 
L 341.316183 115.652048 
L 336.417621 115.652048 
z
" clip-path="url(#peff2471d70)" style="fill: #1f77b4; opacity: 0.7; stroke: #000000; stroke-linejoin: miter"/>
   </g>
   <g id="patch_53">
    <path d="M 341.316183 331.44 
L 346.214744 331.44 
L 346.214744 105.730763 
L 341.316183 105.730763 
z
" clip-path="url(#peff2471d70)" style="fill: #1f77b4; opacity: 0.7; stroke: #000000; stroke-linejoin: miter"/>
   </g>
   <g id="patch_54">
    <path d="M 346.214744 331.44 
L 351.113305 331.44 
L 351.113305 84.648032 
L 346.214744 84.648032 
z
" clip-path="url(#peff2471d70)" style="fill: #1f77b4; opacity: 0.7; stroke: #000000; stroke-linejoin: miter"/>
   </g>
   <g id="patch_55">
    <path d="M 351.113305 331.44 
L 356.011866 331.44 
L 356.011866 93.329157 
L 351.113305 93.329157 
z
" clip-path="url(#peff2471d70)" style="fill: #1f77b4; opacity: 0.7; stroke: #000000; stroke-linejoin: miter"/>
   </g>
   <g id="patch_56">
    <path d="M 356.011866 331.44 
L 360.910427 331.44 
L 360.910427 113.171727 
L 356.011866 113.171727 
z
" clip-path="url(#peff2471d70)" style="fill: #1f77b4; opacity: 0.7; stroke: #000000; stroke-linejoin: miter"/>
   </g>
   <g id="patch_57">
    <path d="M 360.910427 331.44 
L 365.808988 331.44 
L 365.808988 145.415904 
L 360.910427 145.415904 
z
" clip-path="url(#peff2471d70)" style="fill: #1f77b4; opacity: 0.7; stroke: #000000; stroke-linejoin: miter"/>
   </g>
   <g id="patch_58">
    <path d="M 365.808988 331.44 
L 370.707549 331.44 
L 370.707549 139.2151 
L 365.808988 139.2151 
z
" clip-path="url(#peff2471d70)" style="fill: #1f77b4; opacity: 0.7; stroke: #000000; stroke-linejoin: miter"/>
   </g>
   <g id="patch_59">
    <path d="M 370.707549 331.44 
L 375.606111 331.44 
L 375.606111 187.581365 
L 370.707549 187.581365 
z
" clip-path="url(#peff2471d70)" style="fill: #1f77b4; opacity: 0.7; stroke: #000000; stroke-linejoin: miter"/>
   </g>
   <g id="patch_60">
    <path d="M 375.606111 331.44 
L 380.504672 331.44 
L 380.504672 188.821526 
L 375.606111 188.821526 
z
" clip-path="url(#peff2471d70)" style="fill: #1f77b4; opacity: 0.7; stroke: #000000; stroke-linejoin: miter"/>
   </g>
   <g id="patch_61">
    <path d="M 380.504672 331.44 
L 385.403233 331.44 
L 385.403233 64.805462 
L 380.504672 64.805462 
z
" clip-path="url(#peff2471d70)" style="fill: #1f77b4; opacity: 0.7; stroke: #000000; stroke-linejoin: miter"/>
   </g>
   <g id="patch_62">
    <path d="M 385.403233 331.44 
L 390.301794 331.44 
L 390.301794 22.64 
L 385.403233 22.64 
z
" clip-path="url(#peff2471d70)" style="fill: #1f77b4; opacity: 0.7; stroke: #000000; stroke-linejoin: miter"/>
   </g>
   <g id="patch_63">
    <path d="M 390.301794 331.44 
L 395.200355 331.44 
L 395.200355 149.136386 
L 390.301794 149.136386 
z
" clip-path="url(#peff2471d70)" style="fill: #1f77b4; opacity: 0.7; stroke: #000000; stroke-linejoin: miter"/>
   </g>
   <g id="patch_64">
    <path d="M 395.200355 331.44 
L 400.098916 331.44 
L 400.098916 141.695422 
L 395.200355 141.695422 
z
" clip-path="url(#peff2471d70)" style="fill: #1f77b4; opacity: 0.7; stroke: #000000; stroke-linejoin: miter"/>
   </g>
   <g id="patch_65">
    <path d="M 400.098916 331.44 
L 404.997478 331.44 
L 404.997478 136.734779 
L 400.098916 136.734779 
z
" clip-path="url(#peff2471d70)" style="fill: #1f77b4; opacity: 0.7; stroke: #000000; stroke-linejoin: miter"/>
   </g>
   <g id="patch_66">
    <path d="M 404.997478 331.44 
L 409.896039 331.44 
L 409.896039 126.813494 
L 404.997478 126.813494 
z
" clip-path="url(#peff2471d70)" style="fill: #1f77b4; opacity: 0.7; stroke: #000000; stroke-linejoin: miter"/>
   </g>
   <g id="patch_67">
    <path d="M 409.896039 331.44 
L 414.7946 331.44 
L 414.7946 26.360482 
L 409.896039 26.360482 
z
" clip-path="url(#peff2471d70)" style="fill: #1f77b4; opacity: 0.7; stroke: #000000; stroke-linejoin: miter"/>
   </g>
   <g id="patch_68">
    <path d="M 414.7946 331.44 
L 419.693161 331.44 
L 419.693161 80.92755 
L 414.7946 80.92755 
z
" clip-path="url(#peff2471d70)" style="fill: #1f77b4; opacity: 0.7; stroke: #000000; stroke-linejoin: miter"/>
   </g>
   <g id="patch_69">
    <path d="M 419.693161 331.44 
L 424.591722 331.44 
L 424.591722 111.931566 
L 419.693161 111.931566 
z
" clip-path="url(#peff2471d70)" style="fill: #1f77b4; opacity: 0.7; stroke: #000000; stroke-linejoin: miter"/>
   </g>
   <g id="patch_70">
    <path d="M 424.591722 331.44 
L 429.490283 331.44 
L 429.490283 187.581365 
L 424.591722 187.581365 
z
" clip-path="url(#peff2471d70)" style="fill: #1f77b4; opacity: 0.7; stroke: #000000; stroke-linejoin: miter"/>
   </g>
   <g id="patch_71">
    <path d="M 429.490283 331.44 
L 434.388844 331.44 
L 434.388844 108.211084 
L 429.490283 108.211084 
z
" clip-path="url(#peff2471d70)" style="fill: #1f77b4; opacity: 0.7; stroke: #000000; stroke-linejoin: miter"/>
   </g>
   <g id="patch_72">
    <path d="M 434.388844 331.44 
L 439.287406 331.44 
L 439.287406 187.581365 
L 434.388844 187.581365 
z
" clip-path="url(#peff2471d70)" style="fill: #1f77b4; opacity: 0.7; stroke: #000000; stroke-linejoin: miter"/>
   </g>
   <g id="patch_73">
    <path d="M 439.287406 331.44 
L 444.185967 331.44 
L 444.185967 214.8649 
L 439.287406 214.8649 
z
" clip-path="url(#peff2471d70)" style="fill: #1f77b4; opacity: 0.7; stroke: #000000; stroke-linejoin: miter"/>
   </g>
   <g id="patch_74">
    <path d="M 444.185967 331.44 
L 449.084528 331.44 
L 449.084528 212.384578 
L 444.185967 212.384578 
z
" clip-path="url(#peff2471d70)" style="fill: #1f77b4; opacity: 0.7; stroke: #000000; stroke-linejoin: miter"/>
   </g>
   <g id="patch_75">
    <path d="M 449.084528 331.44 
L 453.983089 331.44 
L 453.983089 221.065703 
L 449.084528 221.065703 
z
" clip-path="url(#peff2471d70)" style="fill: #1f77b4; opacity: 0.7; stroke: #000000; stroke-linejoin: miter"/>
   </g>
   <g id="patch_76">
    <path d="M 453.983089 331.44 
L 458.88165 331.44 
L 458.88165 73.486586 
L 453.983089 73.486586 
z
" clip-path="url(#peff2471d70)" style="fill: #1f77b4; opacity: 0.7; stroke: #000000; stroke-linejoin: miter"/>
   </g>
   <g id="patch_77">
    <path d="M 458.88165 331.44 
L 463.780211 331.44 
L 463.780211 140.455261 
L 458.88165 140.455261 
z
" clip-path="url(#peff2471d70)" style="fill: #1f77b4; opacity: 0.7; stroke: #000000; stroke-linejoin: miter"/>
   </g>
   <g id="patch_78">
    <path d="M 463.780211 331.44 
L 468.678772 331.44 
L 468.678772 164.018313 
L 463.780211 164.018313 
z
" clip-path="url(#peff2471d70)" style="fill: #1f77b4; opacity: 0.7; stroke: #000000; stroke-linejoin: miter"/>
   </g>
   <g id="patch_79">
    <path d="M 468.678772 331.44 
L 473.577334 331.44 
L 473.577334 154.097028 
L 468.678772 154.097028 
z
" clip-path="url(#peff2471d70)" style="fill: #1f77b4; opacity: 0.7; stroke: #000000; stroke-linejoin: miter"/>
   </g>
   <g id="patch_80">
    <path d="M 473.577334 331.44 
L 478.475895 331.44 
L 478.475895 159.057671 
L 473.577334 159.057671 
z
" clip-path="url(#peff2471d70)" style="fill: #1f77b4; opacity: 0.7; stroke: #000000; stroke-linejoin: miter"/>
   </g>
   <g id="patch_81">
    <path d="M 478.475895 331.44 
L 483.374456 331.44 
L 483.374456 203.703454 
L 478.475895 203.703454 
z
" clip-path="url(#peff2471d70)" style="fill: #1f77b4; opacity: 0.7; stroke: #000000; stroke-linejoin: miter"/>
   </g>
   <g id="patch_82">
    <path d="M 483.374456 331.44 
L 488.273017 331.44 
L 488.273017 176.41992 
L 483.374456 176.41992 
z
" clip-path="url(#peff2471d70)" style="fill: #1f77b4; opacity: 0.7; stroke: #000000; stroke-linejoin: miter"/>
   </g>
   <g id="patch_83">
    <path d="M 488.273017 331.44 
L 493.171578 331.44 
L 493.171578 144.175743 
L 488.273017 144.175743 
z
" clip-path="url(#peff2471d70)" style="fill: #1f77b4; opacity: 0.7; stroke: #000000; stroke-linejoin: miter"/>
   </g>
   <g id="patch_84">
    <path d="M 493.171578 331.44 
L 498.070139 331.44 
L 498.070139 206.183775 
L 493.171578 206.183775 
z
" clip-path="url(#peff2471d70)" style="fill: #1f77b4; opacity: 0.7; stroke: #000000; stroke-linejoin: miter"/>
   </g>
   <g id="patch_85">
    <path d="M 498.070139 331.44 
L 502.968701 331.44 
L 502.968701 253.30988 
L 498.070139 253.30988 
z
" clip-path="url(#peff2471d70)" style="fill: #1f77b4; opacity: 0.7; stroke: #000000; stroke-linejoin: miter"/>
   </g>
   <g id="patch_86">
    <path d="M 502.968701 331.44 
L 507.867262 331.44 
L 507.867262 201.223133 
L 502.968701 201.223133 
z
" clip-path="url(#peff2471d70)" style="fill: #1f77b4; opacity: 0.7; stroke: #000000; stroke-linejoin: miter"/>
   </g>
   <g id="patch_87">
    <path d="M 507.867262 331.44 
L 512.765823 331.44 
L 512.765823 230.986988 
L 507.867262 230.986988 
z
" clip-path="url(#peff2471d70)" style="fill: #1f77b4; opacity: 0.7; stroke: #000000; stroke-linejoin: miter"/>
   </g>
   <g id="patch_88">
    <path d="M 512.765823 331.44 
L 517.664384 331.44 
L 517.664384 168.978956 
L 512.765823 168.978956 
z
" clip-path="url(#peff2471d70)" style="fill: #1f77b4; opacity: 0.7; stroke: #000000; stroke-linejoin: miter"/>
   </g>
   <g id="patch_89">
    <path d="M 517.664384 331.44 
L 522.562945 331.44 
L 522.562945 172.699438 
L 517.664384 172.699438 
z
" clip-path="url(#peff2471d70)" style="fill: #1f77b4; opacity: 0.7; stroke: #000000; stroke-linejoin: miter"/>
   </g>
   <g id="patch_90">
    <path d="M 522.562945 331.44 
L 527.461506 331.44 
L 527.461506 146.656064 
L 522.562945 146.656064 
z
" clip-path="url(#peff2471d70)" style="fill: #1f77b4; opacity: 0.7; stroke: #000000; stroke-linejoin: miter"/>
   </g>
   <g id="patch_91">
    <path d="M 527.461506 331.44 
L 532.360067 331.44 
L 532.360067 320.278554 
L 527.461506 320.278554 
z
" clip-path="url(#peff2471d70)" style="fill: #1f77b4; opacity: 0.7; stroke: #000000; stroke-linejoin: miter"/>
   </g>
   <g id="patch_92">
    <path d="M 532.360067 331.44 
L 537.258629 331.44 
L 537.258629 159.057671 
L 532.360067 159.057671 
z
" clip-path="url(#peff2471d70)" style="fill: #1f77b4; opacity: 0.7; stroke: #000000; stroke-linejoin: miter"/>
   </g>
   <g id="patch_93">
    <path d="M 537.258629 331.44 
L 542.15719 331.44 
L 542.15719 185.101044 
L 537.258629 185.101044 
z
" clip-path="url(#peff2471d70)" style="fill: #1f77b4; opacity: 0.7; stroke: #000000; stroke-linejoin: miter"/>
   </g>
   <g id="patch_94">
    <path d="M 542.15719 331.44 
L 547.055751 331.44 
L 547.055751 252.069719 
L 542.15719 252.069719 
z
" clip-path="url(#peff2471d70)" style="fill: #1f77b4; opacity: 0.7; stroke: #000000; stroke-linejoin: miter"/>
   </g>
   <g id="patch_95">
    <path d="M 547.055751 331.44 
L 551.954312 331.44 
L 551.954312 171.459277 
L 547.055751 171.459277 
z
" clip-path="url(#peff2471d70)" style="fill: #1f77b4; opacity: 0.7; stroke: #000000; stroke-linejoin: miter"/>
   </g>
   <g id="patch_96">
    <path d="M 551.954312 331.44 
L 556.852873 331.44 
L 556.852873 226.026345 
L 551.954312 226.026345 
z
" clip-path="url(#peff2471d70)" style="fill: #1f77b4; opacity: 0.7; stroke: #000000; stroke-linejoin: miter"/>
   </g>
   <g id="patch_97">
    <path d="M 556.852873 331.44 
L 561.751434 331.44 
L 561.751434 226.026345 
L 556.852873 226.026345 
z
" clip-path="url(#peff2471d70)" style="fill: #1f77b4; opacity: 0.7; stroke: #000000; stroke-linejoin: miter"/>
   </g>
   <g id="patch_98">
    <path d="M 561.751434 331.44 
L 566.649996 331.44 
L 566.649996 279.353253 
L 561.751434 279.353253 
z
" clip-path="url(#peff2471d70)" style="fill: #1f77b4; opacity: 0.7; stroke: #000000; stroke-linejoin: miter"/>
   </g>
   <g id="patch_99">
    <path d="M 566.649996 331.44 
L 571.548557 331.44 
L 571.548557 244.628755 
L 566.649996 244.628755 
z
" clip-path="url(#peff2471d70)" style="fill: #1f77b4; opacity: 0.7; stroke: #000000; stroke-linejoin: miter"/>
   </g>
   <g id="patch_100">
    <path d="M 571.548557 331.44 
L 576.447118 331.44 
L 576.447118 253.30988 
L 571.548557 253.30988 
z
" clip-path="url(#peff2471d70)" style="fill: #1f77b4; opacity: 0.7; stroke: #000000; stroke-linejoin: miter"/>
   </g>
   <g id="patch_101">
    <path d="M 576.447118 331.44 
L 581.345679 331.44 
L 581.345679 269.431968 
L 576.447118 269.431968 
z
" clip-path="url(#peff2471d70)" style="fill: #1f77b4; opacity: 0.7; stroke: #000000; stroke-linejoin: miter"/>
   </g>
   <g id="patch_102">
    <path d="M 581.345679 331.44 
L 586.24424 331.44 
L 586.24424 79.68739 
L 581.345679 79.68739 
z
" clip-path="url(#peff2471d70)" style="fill: #1f77b4; opacity: 0.7; stroke: #000000; stroke-linejoin: miter"/>
   </g>
   <g id="patch_103">
    <path d="M 586.24424 331.44 
L 591.142801 331.44 
L 591.142801 214.8649 
L 586.24424 214.8649 
z
" clip-path="url(#peff2471d70)" style="fill: #1f77b4; opacity: 0.7; stroke: #000000; stroke-linejoin: miter"/>
   </g>
   <g id="patch_104">
    <path d="M 591.142801 331.44 
L 596.041362 331.44 
L 596.041362 260.750843 
L 591.142801 260.750843 
z
" clip-path="url(#peff2471d70)" style="fill: #1f77b4; opacity: 0.7; stroke: #000000; stroke-linejoin: miter"/>
   </g>
   <g id="patch_105">
    <path d="M 596.041362 331.44 
L 600.939924 331.44 
L 600.939924 214.8649 
L 596.041362 214.8649 
z
" clip-path="url(#peff2471d70)" style="fill: #1f77b4; opacity: 0.7; stroke: #000000; stroke-linejoin: miter"/>
   </g>
   <g id="patch_106">
    <path d="M 600.939924 331.44 
L 605.838485 331.44 
L 605.838485 250.829558 
L 600.939924 250.829558 
z
" clip-path="url(#peff2471d70)" style="fill: #1f77b4; opacity: 0.7; stroke: #000000; stroke-linejoin: miter"/>
   </g>
   <g id="patch_107">
    <path d="M 605.838485 331.44 
L 610.737046 331.44 
L 610.737046 232.227149 
L 605.838485 232.227149 
z
" clip-path="url(#peff2471d70)" style="fill: #1f77b4; opacity: 0.7; stroke: #000000; stroke-linejoin: miter"/>
   </g>
   <g id="patch_108">
    <path d="M 610.737046 331.44 
L 615.635607 331.44 
L 615.635607 244.628755 
L 610.737046 244.628755 
z
" clip-path="url(#peff2471d70)" style="fill: #1f77b4; opacity: 0.7; stroke: #000000; stroke-linejoin: miter"/>
   </g>
   <g id="patch_109">
    <path d="M 615.635607 331.44 
L 620.534168 331.44 
L 620.534168 247.109076 
L 615.635607 247.109076 
z
" clip-path="url(#peff2471d70)" style="fill: #1f77b4; opacity: 0.7; stroke: #000000; stroke-linejoin: miter"/>
   </g>
   <g id="patch_110">
    <path d="M 620.534168 331.44 
L 625.432729 331.44 
L 625.432729 273.15245 
L 620.534168 273.15245 
z
" clip-path="url(#peff2471d70)" style="fill: #1f77b4; opacity: 0.7; stroke: #000000; stroke-linejoin: miter"/>
   </g>
   <g id="patch_111">
    <path d="M 625.432729 331.44 
L 630.33129 331.44 
L 630.33129 160.297831 
L 625.432729 160.297831 
z
" clip-path="url(#peff2471d70)" style="fill: #1f77b4; opacity: 0.7; stroke: #000000; stroke-linejoin: miter"/>
   </g>
   <g id="patch_112">
    <path d="M 630.33129 331.44 
L 635.229852 331.44 
L 635.229852 222.305863 
L 630.33129 222.305863 
z
" clip-path="url(#peff2471d70)" style="fill: #1f77b4; opacity: 0.7; stroke: #000000; stroke-linejoin: miter"/>
   </g>
   <g id="patch_113">
    <path d="M 635.229852 331.44 
L 640.128413 331.44 
L 640.128413 263.231165 
L 635.229852 263.231165 
z
" clip-path="url(#peff2471d70)" style="fill: #1f77b4; opacity: 0.7; stroke: #000000; stroke-linejoin: miter"/>
   </g>
   <g id="patch_114">
    <path d="M 640.128413 331.44 
L 645.026974 331.44 
L 645.026974 264.471325 
L 640.128413 264.471325 
z
" clip-path="url(#peff2471d70)" style="fill: #1f77b4; opacity: 0.7; stroke: #000000; stroke-linejoin: miter"/>
   </g>
   <g id="patch_115">
    <path d="M 645.026974 331.44 
L 649.925535 331.44 
L 649.925535 224.786185 
L 645.026974 224.786185 
z
" clip-path="url(#peff2471d70)" style="fill: #1f77b4; opacity: 0.7; stroke: #000000; stroke-linejoin: miter"/>
   </g>
   <g id="patch_116">
    <path d="M 649.925535 331.44 
L 654.824096 331.44 
L 654.824096 209.904257 
L 649.925535 209.904257 
z
" clip-path="url(#peff2471d70)" style="fill: #1f77b4; opacity: 0.7; stroke: #000000; stroke-linejoin: miter"/>
   </g>
   <g id="patch_117">
    <path d="M 654.824096 331.44 
L 659.722657 331.44 
L 659.722657 152.856867 
L 654.824096 152.856867 
z
" clip-path="url(#peff2471d70)" style="fill: #1f77b4; opacity: 0.7; stroke: #000000; stroke-linejoin: miter"/>
   </g>
   <g id="patch_118">
    <path d="M 659.722657 331.44 
L 664.621219 331.44 
L 664.621219 147.896225 
L 659.722657 147.896225 
z
" clip-path="url(#peff2471d70)" style="fill: #1f77b4; opacity: 0.7; stroke: #000000; stroke-linejoin: miter"/>
   </g>
   <g id="patch_119">
    <path d="M 664.621219 331.44 
L 669.51978 331.44 
L 669.51978 191.301847 
L 664.621219 191.301847 
z
" clip-path="url(#peff2471d70)" style="fill: #1f77b4; opacity: 0.7; stroke: #000000; stroke-linejoin: miter"/>
   </g>
   <g id="patch_120">
    <path d="M 669.51978 331.44 
L 674.418341 331.44 
L 674.418341 186.341205 
L 669.51978 186.341205 
z
" clip-path="url(#peff2471d70)" style="fill: #1f77b4; opacity: 0.7; stroke: #000000; stroke-linejoin: miter"/>
   </g>
   <g id="patch_121">
    <path d="M 674.418341 331.44 
L 679.316902 331.44 
L 679.316902 283.073735 
L 674.418341 283.073735 
z
" clip-path="url(#peff2471d70)" style="fill: #1f77b4; opacity: 0.7; stroke: #000000; stroke-linejoin: miter"/>
   </g>
   <g id="patch_122">
    <path d="M 679.316902 331.44 
L 684.215463 331.44 
L 684.215463 289.274538 
L 679.316902 289.274538 
z
" clip-path="url(#peff2471d70)" style="fill: #1f77b4; opacity: 0.7; stroke: #000000; stroke-linejoin: miter"/>
   </g>
   <g id="patch_123">
    <path d="M 684.215463 331.44 
L 689.114024 331.44 
L 689.114024 327.719518 
L 684.215463 327.719518 
z
" clip-path="url(#peff2471d70)" style="fill: #1f77b4; opacity: 0.7; stroke: #000000; stroke-linejoin: miter"/>
   </g>
   <g id="patch_124">
    <path d="M 689.114024 331.44 
L 694.012585 331.44 
L 694.012585 326.479357 
L 689.114024 326.479357 
z
" clip-path="url(#peff2471d70)" style="fill: #1f77b4; opacity: 0.7; stroke: #000000; stroke-linejoin: miter"/>
   </g>
   <g id="patch_125">
    <path d="M 694.012585 331.44 
L 698.911147 331.44 
L 698.911147 307.876948 
L 694.012585 307.876948 
z
" clip-path="url(#peff2471d70)" style="fill: #1f77b4; opacity: 0.7; stroke: #000000; stroke-linejoin: miter"/>
   </g>
   <g id="patch_126">
    <path d="M 698.911147 331.44 
L 703.809708 331.44 
L 703.809708 292.99502 
L 698.911147 292.99502 
z
" clip-path="url(#peff2471d70)" style="fill: #1f77b4; opacity: 0.7; stroke: #000000; stroke-linejoin: miter"/>
   </g>
   <g id="patch_127">
    <path d="M 703.809708 331.44 
L 708.708269 331.44 
L 708.708269 299.195823 
L 703.809708 299.195823 
z
" clip-path="url(#peff2471d70)" style="fill: #1f77b4; opacity: 0.7; stroke: #000000; stroke-linejoin: miter"/>
   </g>
   <g id="patch_128">
    <path d="M 708.708269 331.44 
L 713.60683 331.44 
L 713.60683 316.558072 
L 708.708269 316.558072 
z
" clip-path="url(#peff2471d70)" style="fill: #1f77b4; opacity: 0.7; stroke: #000000; stroke-linejoin: miter"/>
   </g>
   <g id="patch_129">
    <path d="M 713.60683 331.44 
L 718.505391 331.44 
L 718.505391 311.59743 
L 713.60683 311.59743 
z
" clip-path="url(#peff2471d70)" style="fill: #1f77b4; opacity: 0.7; stroke: #000000; stroke-linejoin: miter"/>
   </g>
   <g id="patch_130">
    <path d="M 718.505391 331.44 
L 723.403952 331.44 
L 723.403952 323.999036 
L 718.505391 323.999036 
z
" clip-path="url(#peff2471d70)" style="fill: #1f77b4; opacity: 0.7; stroke: #000000; stroke-linejoin: miter"/>
   </g>
   <g id="patch_131">
    <path d="M 723.403952 331.44 
L 728.302513 331.44 
L 728.302513 323.999036 
L 723.403952 323.999036 
z
" clip-path="url(#peff2471d70)" style="fill: #1f77b4; opacity: 0.7; stroke: #000000; stroke-linejoin: miter"/>
   </g>
   <g id="patch_132">
    <path d="M 728.302513 331.44 
L 733.201075 331.44 
L 733.201075 310.357269 
L 728.302513 310.357269 
z
" clip-path="url(#peff2471d70)" style="fill: #1f77b4; opacity: 0.7; stroke: #000000; stroke-linejoin: miter"/>
   </g>
   <g id="patch_133">
    <path d="M 733.201075 331.44 
L 738.099636 331.44 
L 738.099636 330.199839 
L 733.201075 330.199839 
z
" clip-path="url(#peff2471d70)" style="fill: #1f77b4; opacity: 0.7; stroke: #000000; stroke-linejoin: miter"/>
   </g>
   <g id="patch_134">
    <path d="M 738.099636 331.44 
L 742.998197 331.44 
L 742.998197 323.999036 
L 738.099636 323.999036 
z
" clip-path="url(#peff2471d70)" style="fill: #1f77b4; opacity: 0.7; stroke: #000000; stroke-linejoin: miter"/>
   </g>
   <g id="patch_135">
    <path d="M 742.998197 331.44 
L 747.896758 331.44 
L 747.896758 321.518715 
L 742.998197 321.518715 
z
" clip-path="url(#peff2471d70)" style="fill: #1f77b4; opacity: 0.7; stroke: #000000; stroke-linejoin: miter"/>
   </g>
   <g id="patch_136">
    <path d="M 747.896758 331.44 
L 752.795319 331.44 
L 752.795319 319.038394 
L 747.896758 319.038394 
z
" clip-path="url(#peff2471d70)" style="fill: #1f77b4; opacity: 0.7; stroke: #000000; stroke-linejoin: miter"/>
   </g>
   <g id="patch_137">
    <path d="M 752.795319 331.44 
L 757.69388 331.44 
L 757.69388 301.676145 
L 752.795319 301.676145 
z
" clip-path="url(#peff2471d70)" style="fill: #1f77b4; opacity: 0.7; stroke: #000000; stroke-linejoin: miter"/>
   </g>
   <g id="patch_138">
    <path d="M 757.69388 331.44 
L 762.592442 331.44 
L 762.592442 327.719518 
L 757.69388 327.719518 
z
" clip-path="url(#peff2471d70)" style="fill: #1f77b4; opacity: 0.7; stroke: #000000; stroke-linejoin: miter"/>
   </g>
   <g id="patch_139">
    <path d="M 762.592442 331.44 
L 767.491003 331.44 
L 767.491003 317.798233 
L 762.592442 317.798233 
z
" clip-path="url(#peff2471d70)" style="fill: #1f77b4; opacity: 0.7; stroke: #000000; stroke-linejoin: miter"/>
   </g>
   <g id="patch_140">
    <path d="M 767.491003 331.44 
L 772.389564 331.44 
L 772.389564 317.798233 
L 767.491003 317.798233 
z
" clip-path="url(#peff2471d70)" style="fill: #1f77b4; opacity: 0.7; stroke: #000000; stroke-linejoin: miter"/>
   </g>
   <g id="patch_141">
    <path d="M 772.389564 331.44 
L 777.288125 331.44 
L 777.288125 296.715502 
L 772.389564 296.715502 
z
" clip-path="url(#peff2471d70)" style="fill: #1f77b4; opacity: 0.7; stroke: #000000; stroke-linejoin: miter"/>
   </g>
   <g id="matplotlib.axis_1">
    <g id="xtick_1">
     <g id="line2d_1">
      <defs>
       <path id="m5a51b10a15" d="M 0 0 
L 0 3.5 
" style="stroke: #000000; stroke-width: 0.8"/>
      </defs>
      <g>
       <use xlink:href="#m5a51b10a15" x="96.388125" y="331.44" style="stroke: #000000; stroke-width: 0.8"/>
      </g>
     </g>
     <g id="text_1">
      <!-- 0.0 -->
      <g transform="translate(85.255938 349.077812) scale(0.14 -0.14)">
       <defs>
        <path id="DejaVuSans-30" d="M 2034 4250 
Q 1547 4250 1301 3770 
Q 1056 3291 1056 2328 
Q 1056 1369 1301 889 
Q 1547 409 2034 409 
Q 2525 409 2770 889 
Q 3016 1369 3016 2328 
Q 3016 3291 2770 3770 
Q 2525 4250 2034 4250 
z
M 2034 4750 
Q 2819 4750 3233 4129 
Q 3647 3509 3647 2328 
Q 3647 1150 3233 529 
Q 2819 -91 2034 -91 
Q 1250 -91 836 529 
Q 422 1150 422 2328 
Q 422 3509 836 4129 
Q 1250 4750 2034 4750 
z
" transform="scale(0.015625)"/>
        <path id="DejaVuSans-2e" d="M 684 794 
L 1344 794 
L 1344 0 
L 684 0 
L 684 794 
z
" transform="scale(0.015625)"/>
       </defs>
       <use xlink:href="#DejaVuSans-30"/>
       <use xlink:href="#DejaVuSans-2e" x="63.623047"/>
       <use xlink:href="#DejaVuSans-30" x="95.410156"/>
      </g>
     </g>
    </g>
    <g id="xtick_2">
     <g id="line2d_2">
      <g>
       <use xlink:href="#m5a51b10a15" x="194.359348" y="331.44" style="stroke: #000000; stroke-width: 0.8"/>
      </g>
     </g>
     <g id="text_2">
      <!-- 0.2 -->
      <g transform="translate(183.227161 349.077812) scale(0.14 -0.14)">
       <defs>
        <path id="DejaVuSans-32" d="M 1228 531 
L 3431 531 
L 3431 0 
L 469 0 
L 469 531 
Q 828 903 1448 1529 
Q 2069 2156 2228 2338 
Q 2531 2678 2651 2914 
Q 2772 3150 2772 3378 
Q 2772 3750 2511 3984 
Q 2250 4219 1831 4219 
Q 1534 4219 1204 4116 
Q 875 4013 500 3803 
L 500 4441 
Q 881 4594 1212 4672 
Q 1544 4750 1819 4750 
Q 2544 4750 2975 4387 
Q 3406 4025 3406 3419 
Q 3406 3131 3298 2873 
Q 3191 2616 2906 2266 
Q 2828 2175 2409 1742 
Q 1991 1309 1228 531 
z
" transform="scale(0.015625)"/>
       </defs>
       <use xlink:href="#DejaVuSans-30"/>
       <use xlink:href="#DejaVuSans-2e" x="63.623047"/>
       <use xlink:href="#DejaVuSans-32" x="95.410156"/>
      </g>
     </g>
    </g>
    <g id="xtick_3">
     <g id="line2d_3">
      <g>
       <use xlink:href="#m5a51b10a15" x="292.330571" y="331.44" style="stroke: #000000; stroke-width: 0.8"/>
      </g>
     </g>
     <g id="text_3">
      <!-- 0.4 -->
      <g transform="translate(281.198384 349.077812) scale(0.14 -0.14)">
       <defs>
        <path id="DejaVuSans-34" d="M 2419 4116 
L 825 1625 
L 2419 1625 
L 2419 4116 
z
M 2253 4666 
L 3047 4666 
L 3047 1625 
L 3713 1625 
L 3713 1100 
L 3047 1100 
L 3047 0 
L 2419 0 
L 2419 1100 
L 313 1100 
L 313 1709 
L 2253 4666 
z
" transform="scale(0.015625)"/>
       </defs>
       <use xlink:href="#DejaVuSans-30"/>
       <use xlink:href="#DejaVuSans-2e" x="63.623047"/>
       <use xlink:href="#DejaVuSans-34" x="95.410156"/>
      </g>
     </g>
    </g>
    <g id="xtick_4">
     <g id="line2d_4">
      <g>
       <use xlink:href="#m5a51b10a15" x="390.301794" y="331.44" style="stroke: #000000; stroke-width: 0.8"/>
      </g>
     </g>
     <g id="text_4">
      <!-- 0.6 -->
      <g transform="translate(379.169607 349.077812) scale(0.14 -0.14)">
       <defs>
        <path id="DejaVuSans-36" d="M 2113 2584 
Q 1688 2584 1439 2293 
Q 1191 2003 1191 1497 
Q 1191 994 1439 701 
Q 1688 409 2113 409 
Q 2538 409 2786 701 
Q 3034 994 3034 1497 
Q 3034 2003 2786 2293 
Q 2538 2584 2113 2584 
z
M 3366 4563 
L 3366 3988 
Q 3128 4100 2886 4159 
Q 2644 4219 2406 4219 
Q 1781 4219 1451 3797 
Q 1122 3375 1075 2522 
Q 1259 2794 1537 2939 
Q 1816 3084 2150 3084 
Q 2853 3084 3261 2657 
Q 3669 2231 3669 1497 
Q 3669 778 3244 343 
Q 2819 -91 2113 -91 
Q 1303 -91 875 529 
Q 447 1150 447 2328 
Q 447 3434 972 4092 
Q 1497 4750 2381 4750 
Q 2619 4750 2861 4703 
Q 3103 4656 3366 4563 
z
" transform="scale(0.015625)"/>
       </defs>
       <use xlink:href="#DejaVuSans-30"/>
       <use xlink:href="#DejaVuSans-2e" x="63.623047"/>
       <use xlink:href="#DejaVuSans-36" x="95.410156"/>
      </g>
     </g>
    </g>
    <g id="xtick_5">
     <g id="line2d_5">
      <g>
       <use xlink:href="#m5a51b10a15" x="488.273017" y="331.44" style="stroke: #000000; stroke-width: 0.8"/>
      </g>
     </g>
     <g id="text_5">
      <!-- 0.8 -->
      <g transform="translate(477.14083 349.077812) scale(0.14 -0.14)">
       <defs>
        <path id="DejaVuSans-38" d="M 2034 2216 
Q 1584 2216 1326 1975 
Q 1069 1734 1069 1313 
Q 1069 891 1326 650 
Q 1584 409 2034 409 
Q 2484 409 2743 651 
Q 3003 894 3003 1313 
Q 3003 1734 2745 1975 
Q 2488 2216 2034 2216 
z
M 1403 2484 
Q 997 2584 770 2862 
Q 544 3141 544 3541 
Q 544 4100 942 4425 
Q 1341 4750 2034 4750 
Q 2731 4750 3128 4425 
Q 3525 4100 3525 3541 
Q 3525 3141 3298 2862 
Q 3072 2584 2669 2484 
Q 3125 2378 3379 2068 
Q 3634 1759 3634 1313 
Q 3634 634 3220 271 
Q 2806 -91 2034 -91 
Q 1263 -91 848 271 
Q 434 634 434 1313 
Q 434 1759 690 2068 
Q 947 2378 1403 2484 
z
M 1172 3481 
Q 1172 3119 1398 2916 
Q 1625 2713 2034 2713 
Q 2441 2713 2670 2916 
Q 2900 3119 2900 3481 
Q 2900 3844 2670 4047 
Q 2441 4250 2034 4250 
Q 1625 4250 1398 4047 
Q 1172 3844 1172 3481 
z
" transform="scale(0.015625)"/>
       </defs>
       <use xlink:href="#DejaVuSans-30"/>
       <use xlink:href="#DejaVuSans-2e" x="63.623047"/>
       <use xlink:href="#DejaVuSans-38" x="95.410156"/>
      </g>
     </g>
    </g>
    <g id="xtick_6">
     <g id="line2d_6">
      <g>
       <use xlink:href="#m5a51b10a15" x="586.24424" y="331.44" style="stroke: #000000; stroke-width: 0.8"/>
      </g>
     </g>
     <g id="text_6">
      <!-- 1.0 -->
      <g transform="translate(575.112053 349.077812) scale(0.14 -0.14)">
       <defs>
        <path id="DejaVuSans-31" d="M 794 531 
L 1825 531 
L 1825 4091 
L 703 3866 
L 703 4441 
L 1819 4666 
L 2450 4666 
L 2450 531 
L 3481 531 
L 3481 0 
L 794 0 
L 794 531 
z
" transform="scale(0.015625)"/>
       </defs>
       <use xlink:href="#DejaVuSans-31"/>
       <use xlink:href="#DejaVuSans-2e" x="63.623047"/>
       <use xlink:href="#DejaVuSans-30" x="95.410156"/>
      </g>
     </g>
    </g>
    <g id="xtick_7">
     <g id="line2d_7">
      <g>
       <use xlink:href="#m5a51b10a15" x="684.215463" y="331.44" style="stroke: #000000; stroke-width: 0.8"/>
      </g>
     </g>
     <g id="text_7">
      <!-- 1.2 -->
      <g transform="translate(673.083276 349.077812) scale(0.14 -0.14)">
       <use xlink:href="#DejaVuSans-31"/>
       <use xlink:href="#DejaVuSans-2e" x="63.623047"/>
       <use xlink:href="#DejaVuSans-32" x="95.410156"/>
      </g>
     </g>
    </g>
    <g id="xtick_8">
     <g id="line2d_8">
      <g>
       <use xlink:href="#m5a51b10a15" x="782.186686" y="331.44" style="stroke: #000000; stroke-width: 0.8"/>
      </g>
     </g>
     <g id="text_8">
      <!-- 1.4 -->
      <g transform="translate(771.054499 349.077812) scale(0.14 -0.14)">
       <use xlink:href="#DejaVuSans-31"/>
       <use xlink:href="#DejaVuSans-2e" x="63.623047"/>
       <use xlink:href="#DejaVuSans-34" x="95.410156"/>
      </g>
     </g>
    </g>
    <g id="text_9">
     <!-- Chromosome Positions -->
     <g transform="translate(334.488437 369.666562) scale(0.18 -0.18)">
      <defs>
       <path id="DejaVuSans-43" d="M 4122 4306 
L 4122 3641 
Q 3803 3938 3442 4084 
Q 3081 4231 2675 4231 
Q 1875 4231 1450 3742 
Q 1025 3253 1025 2328 
Q 1025 1406 1450 917 
Q 1875 428 2675 428 
Q 3081 428 3442 575 
Q 3803 722 4122 1019 
L 4122 359 
Q 3791 134 3420 21 
Q 3050 -91 2638 -91 
Q 1578 -91 968 557 
Q 359 1206 359 2328 
Q 359 3453 968 4101 
Q 1578 4750 2638 4750 
Q 3056 4750 3426 4639 
Q 3797 4528 4122 4306 
z
" transform="scale(0.015625)"/>
       <path id="DejaVuSans-68" d="M 3513 2113 
L 3513 0 
L 2938 0 
L 2938 2094 
Q 2938 2591 2744 2837 
Q 2550 3084 2163 3084 
Q 1697 3084 1428 2787 
Q 1159 2491 1159 1978 
L 1159 0 
L 581 0 
L 581 4863 
L 1159 4863 
L 1159 2956 
Q 1366 3272 1645 3428 
Q 1925 3584 2291 3584 
Q 2894 3584 3203 3211 
Q 3513 2838 3513 2113 
z
" transform="scale(0.015625)"/>
       <path id="DejaVuSans-72" d="M 2631 2963 
Q 2534 3019 2420 3045 
Q 2306 3072 2169 3072 
Q 1681 3072 1420 2755 
Q 1159 2438 1159 1844 
L 1159 0 
L 581 0 
L 581 3500 
L 1159 3500 
L 1159 2956 
Q 1341 3275 1631 3429 
Q 1922 3584 2338 3584 
Q 2397 3584 2469 3576 
Q 2541 3569 2628 3553 
L 2631 2963 
z
" transform="scale(0.015625)"/>
       <path id="DejaVuSans-6f" d="M 1959 3097 
Q 1497 3097 1228 2736 
Q 959 2375 959 1747 
Q 959 1119 1226 758 
Q 1494 397 1959 397 
Q 2419 397 2687 759 
Q 2956 1122 2956 1747 
Q 2956 2369 2687 2733 
Q 2419 3097 1959 3097 
z
M 1959 3584 
Q 2709 3584 3137 3096 
Q 3566 2609 3566 1747 
Q 3566 888 3137 398 
Q 2709 -91 1959 -91 
Q 1206 -91 779 398 
Q 353 888 353 1747 
Q 353 2609 779 3096 
Q 1206 3584 1959 3584 
z
" transform="scale(0.015625)"/>
       <path id="DejaVuSans-6d" d="M 3328 2828 
Q 3544 3216 3844 3400 
Q 4144 3584 4550 3584 
Q 5097 3584 5394 3201 
Q 5691 2819 5691 2113 
L 5691 0 
L 5113 0 
L 5113 2094 
Q 5113 2597 4934 2840 
Q 4756 3084 4391 3084 
Q 3944 3084 3684 2787 
Q 3425 2491 3425 1978 
L 3425 0 
L 2847 0 
L 2847 2094 
Q 2847 2600 2669 2842 
Q 2491 3084 2119 3084 
Q 1678 3084 1418 2786 
Q 1159 2488 1159 1978 
L 1159 0 
L 581 0 
L 581 3500 
L 1159 3500 
L 1159 2956 
Q 1356 3278 1631 3431 
Q 1906 3584 2284 3584 
Q 2666 3584 2933 3390 
Q 3200 3197 3328 2828 
z
" transform="scale(0.015625)"/>
       <path id="DejaVuSans-73" d="M 2834 3397 
L 2834 2853 
Q 2591 2978 2328 3040 
Q 2066 3103 1784 3103 
Q 1356 3103 1142 2972 
Q 928 2841 928 2578 
Q 928 2378 1081 2264 
Q 1234 2150 1697 2047 
L 1894 2003 
Q 2506 1872 2764 1633 
Q 3022 1394 3022 966 
Q 3022 478 2636 193 
Q 2250 -91 1575 -91 
Q 1294 -91 989 -36 
Q 684 19 347 128 
L 347 722 
Q 666 556 975 473 
Q 1284 391 1588 391 
Q 1994 391 2212 530 
Q 2431 669 2431 922 
Q 2431 1156 2273 1281 
Q 2116 1406 1581 1522 
L 1381 1569 
Q 847 1681 609 1914 
Q 372 2147 372 2553 
Q 372 3047 722 3315 
Q 1072 3584 1716 3584 
Q 2034 3584 2315 3537 
Q 2597 3491 2834 3397 
z
" transform="scale(0.015625)"/>
       <path id="DejaVuSans-65" d="M 3597 1894 
L 3597 1613 
L 953 1613 
Q 991 1019 1311 708 
Q 1631 397 2203 397 
Q 2534 397 2845 478 
Q 3156 559 3463 722 
L 3463 178 
Q 3153 47 2828 -22 
Q 2503 -91 2169 -91 
Q 1331 -91 842 396 
Q 353 884 353 1716 
Q 353 2575 817 3079 
Q 1281 3584 2069 3584 
Q 2775 3584 3186 3129 
Q 3597 2675 3597 1894 
z
M 3022 2063 
Q 3016 2534 2758 2815 
Q 2500 3097 2075 3097 
Q 1594 3097 1305 2825 
Q 1016 2553 972 2059 
L 3022 2063 
z
" transform="scale(0.015625)"/>
       <path id="DejaVuSans-20" transform="scale(0.015625)"/>
       <path id="DejaVuSans-50" d="M 1259 4147 
L 1259 2394 
L 2053 2394 
Q 2494 2394 2734 2622 
Q 2975 2850 2975 3272 
Q 2975 3691 2734 3919 
Q 2494 4147 2053 4147 
L 1259 4147 
z
M 628 4666 
L 2053 4666 
Q 2838 4666 3239 4311 
Q 3641 3956 3641 3272 
Q 3641 2581 3239 2228 
Q 2838 1875 2053 1875 
L 1259 1875 
L 1259 0 
L 628 0 
L 628 4666 
z
" transform="scale(0.015625)"/>
       <path id="DejaVuSans-69" d="M 603 3500 
L 1178 3500 
L 1178 0 
L 603 0 
L 603 3500 
z
M 603 4863 
L 1178 4863 
L 1178 4134 
L 603 4134 
L 603 4863 
z
" transform="scale(0.015625)"/>
       <path id="DejaVuSans-74" d="M 1172 4494 
L 1172 3500 
L 2356 3500 
L 2356 3053 
L 1172 3053 
L 1172 1153 
Q 1172 725 1289 603 
Q 1406 481 1766 481 
L 2356 481 
L 2356 0 
L 1766 0 
Q 1100 0 847 248 
Q 594 497 594 1153 
L 594 3053 
L 172 3053 
L 172 3500 
L 594 3500 
L 594 4494 
L 1172 4494 
z
" transform="scale(0.015625)"/>
       <path id="DejaVuSans-6e" d="M 3513 2113 
L 3513 0 
L 2938 0 
L 2938 2094 
Q 2938 2591 2744 2837 
Q 2550 3084 2163 3084 
Q 1697 3084 1428 2787 
Q 1159 2491 1159 1978 
L 1159 0 
L 581 0 
L 581 3500 
L 1159 3500 
L 1159 2956 
Q 1366 3272 1645 3428 
Q 1925 3584 2291 3584 
Q 2894 3584 3203 3211 
Q 3513 2838 3513 2113 
z
" transform="scale(0.015625)"/>
      </defs>
      <use xlink:href="#DejaVuSans-43"/>
      <use xlink:href="#DejaVuSans-68" x="69.824219"/>
      <use xlink:href="#DejaVuSans-72" x="133.203125"/>
      <use xlink:href="#DejaVuSans-6f" x="172.066406"/>
      <use xlink:href="#DejaVuSans-6d" x="233.248047"/>
      <use xlink:href="#DejaVuSans-6f" x="330.660156"/>
      <use xlink:href="#DejaVuSans-73" x="391.841797"/>
      <use xlink:href="#DejaVuSans-6f" x="443.941406"/>
      <use xlink:href="#DejaVuSans-6d" x="505.123047"/>
      <use xlink:href="#DejaVuSans-65" x="602.535156"/>
      <use xlink:href="#DejaVuSans-20" x="664.058594"/>
      <use xlink:href="#DejaVuSans-50" x="695.845703"/>
      <use xlink:href="#DejaVuSans-6f" x="752.523438"/>
      <use xlink:href="#DejaVuSans-73" x="813.705078"/>
      <use xlink:href="#DejaVuSans-69" x="865.804688"/>
      <use xlink:href="#DejaVuSans-74" x="893.587891"/>
      <use xlink:href="#DejaVuSans-69" x="932.796875"/>
      <use xlink:href="#DejaVuSans-6f" x="960.580078"/>
      <use xlink:href="#DejaVuSans-6e" x="1021.761719"/>
      <use xlink:href="#DejaVuSans-73" x="1085.140625"/>
     </g>
    </g>
    <g id="text_10">
     <!-- 1e6 -->
     <g transform="translate(792.455 362.587813) scale(0.1 -0.1)">
      <use xlink:href="#DejaVuSans-31"/>
      <use xlink:href="#DejaVuSans-65" x="63.623047"/>
      <use xlink:href="#DejaVuSans-36" x="125.146484"/>
     </g>
    </g>
   </g>
   <g id="matplotlib.axis_2">
    <g id="ytick_1">
     <g id="line2d_9">
      <defs>
       <path id="m0e73e9b188" d="M 0 0 
L -3.5 0 
" style="stroke: #000000; stroke-width: 0.8"/>
      </defs>
      <g>
       <use xlink:href="#m0e73e9b188" x="62.343125" y="331.44" style="stroke: #000000; stroke-width: 0.8"/>
      </g>
     </g>
     <g id="text_11">
      <!-- 0 -->
      <g transform="translate(46.435625 336.758906) scale(0.14 -0.14)">
       <use xlink:href="#DejaVuSans-30"/>
      </g>
     </g>
    </g>
    <g id="ytick_2">
     <g id="line2d_10">
      <g>
       <use xlink:href="#m0e73e9b188" x="62.343125" y="269.431968" style="stroke: #000000; stroke-width: 0.8"/>
      </g>
     </g>
     <g id="text_12">
      <!-- 50 -->
      <g transform="translate(37.528125 274.750874) scale(0.14 -0.14)">
       <defs>
        <path id="DejaVuSans-35" d="M 691 4666 
L 3169 4666 
L 3169 4134 
L 1269 4134 
L 1269 2991 
Q 1406 3038 1543 3061 
Q 1681 3084 1819 3084 
Q 2600 3084 3056 2656 
Q 3513 2228 3513 1497 
Q 3513 744 3044 326 
Q 2575 -91 1722 -91 
Q 1428 -91 1123 -41 
Q 819 9 494 109 
L 494 744 
Q 775 591 1075 516 
Q 1375 441 1709 441 
Q 2250 441 2565 725 
Q 2881 1009 2881 1497 
Q 2881 1984 2565 2268 
Q 2250 2553 1709 2553 
Q 1456 2553 1204 2497 
Q 953 2441 691 2322 
L 691 4666 
z
" transform="scale(0.015625)"/>
       </defs>
       <use xlink:href="#DejaVuSans-35"/>
       <use xlink:href="#DejaVuSans-30" x="63.623047"/>
      </g>
     </g>
    </g>
    <g id="ytick_3">
     <g id="line2d_11">
      <g>
       <use xlink:href="#m0e73e9b188" x="62.343125" y="207.423936" style="stroke: #000000; stroke-width: 0.8"/>
      </g>
     </g>
     <g id="text_13">
      <!-- 100 -->
      <g transform="translate(28.620625 212.742842) scale(0.14 -0.14)">
       <use xlink:href="#DejaVuSans-31"/>
       <use xlink:href="#DejaVuSans-30" x="63.623047"/>
       <use xlink:href="#DejaVuSans-30" x="127.246094"/>
      </g>
     </g>
    </g>
    <g id="ytick_4">
     <g id="line2d_12">
      <g>
       <use xlink:href="#m0e73e9b188" x="62.343125" y="145.415904" style="stroke: #000000; stroke-width: 0.8"/>
      </g>
     </g>
     <g id="text_14">
      <!-- 150 -->
      <g transform="translate(28.620625 150.73481) scale(0.14 -0.14)">
       <use xlink:href="#DejaVuSans-31"/>
       <use xlink:href="#DejaVuSans-35" x="63.623047"/>
       <use xlink:href="#DejaVuSans-30" x="127.246094"/>
      </g>
     </g>
    </g>
    <g id="ytick_5">
     <g id="line2d_13">
      <g>
       <use xlink:href="#m0e73e9b188" x="62.343125" y="83.407871" style="stroke: #000000; stroke-width: 0.8"/>
      </g>
     </g>
     <g id="text_15">
      <!-- 200 -->
      <g transform="translate(28.620625 88.726778) scale(0.14 -0.14)">
       <use xlink:href="#DejaVuSans-32"/>
       <use xlink:href="#DejaVuSans-30" x="63.623047"/>
       <use xlink:href="#DejaVuSans-30" x="127.246094"/>
      </g>
     </g>
    </g>
    <g id="ytick_6">
     <g id="line2d_14">
      <g>
       <use xlink:href="#m0e73e9b188" x="62.343125" y="21.399839" style="stroke: #000000; stroke-width: 0.8"/>
      </g>
     </g>
     <g id="text_16">
      <!-- 250 -->
      <g transform="translate(28.620625 26.718746) scale(0.14 -0.14)">
       <use xlink:href="#DejaVuSans-32"/>
       <use xlink:href="#DejaVuSans-35" x="63.623047"/>
       <use xlink:href="#DejaVuSans-30" x="127.246094"/>
      </g>
     </g>
    </g>
    <g id="text_17">
     <!-- Heterozygous SNPs Number -->
     <g transform="translate(20.877188 295.639219) rotate(-90) scale(0.18 -0.18)">
      <defs>
       <path id="DejaVuSans-48" d="M 628 4666 
L 1259 4666 
L 1259 2753 
L 3553 2753 
L 3553 4666 
L 4184 4666 
L 4184 0 
L 3553 0 
L 3553 2222 
L 1259 2222 
L 1259 0 
L 628 0 
L 628 4666 
z
" transform="scale(0.015625)"/>
       <path id="DejaVuSans-7a" d="M 353 3500 
L 3084 3500 
L 3084 2975 
L 922 459 
L 3084 459 
L 3084 0 
L 275 0 
L 275 525 
L 2438 3041 
L 353 3041 
L 353 3500 
z
" transform="scale(0.015625)"/>
       <path id="DejaVuSans-79" d="M 2059 -325 
Q 1816 -950 1584 -1140 
Q 1353 -1331 966 -1331 
L 506 -1331 
L 506 -850 
L 844 -850 
Q 1081 -850 1212 -737 
Q 1344 -625 1503 -206 
L 1606 56 
L 191 3500 
L 800 3500 
L 1894 763 
L 2988 3500 
L 3597 3500 
L 2059 -325 
z
" transform="scale(0.015625)"/>
       <path id="DejaVuSans-67" d="M 2906 1791 
Q 2906 2416 2648 2759 
Q 2391 3103 1925 3103 
Q 1463 3103 1205 2759 
Q 947 2416 947 1791 
Q 947 1169 1205 825 
Q 1463 481 1925 481 
Q 2391 481 2648 825 
Q 2906 1169 2906 1791 
z
M 3481 434 
Q 3481 -459 3084 -895 
Q 2688 -1331 1869 -1331 
Q 1566 -1331 1297 -1286 
Q 1028 -1241 775 -1147 
L 775 -588 
Q 1028 -725 1275 -790 
Q 1522 -856 1778 -856 
Q 2344 -856 2625 -561 
Q 2906 -266 2906 331 
L 2906 616 
Q 2728 306 2450 153 
Q 2172 0 1784 0 
Q 1141 0 747 490 
Q 353 981 353 1791 
Q 353 2603 747 3093 
Q 1141 3584 1784 3584 
Q 2172 3584 2450 3431 
Q 2728 3278 2906 2969 
L 2906 3500 
L 3481 3500 
L 3481 434 
z
" transform="scale(0.015625)"/>
       <path id="DejaVuSans-75" d="M 544 1381 
L 544 3500 
L 1119 3500 
L 1119 1403 
Q 1119 906 1312 657 
Q 1506 409 1894 409 
Q 2359 409 2629 706 
Q 2900 1003 2900 1516 
L 2900 3500 
L 3475 3500 
L 3475 0 
L 2900 0 
L 2900 538 
Q 2691 219 2414 64 
Q 2138 -91 1772 -91 
Q 1169 -91 856 284 
Q 544 659 544 1381 
z
M 1991 3584 
L 1991 3584 
z
" transform="scale(0.015625)"/>
       <path id="DejaVuSans-53" d="M 3425 4513 
L 3425 3897 
Q 3066 4069 2747 4153 
Q 2428 4238 2131 4238 
Q 1616 4238 1336 4038 
Q 1056 3838 1056 3469 
Q 1056 3159 1242 3001 
Q 1428 2844 1947 2747 
L 2328 2669 
Q 3034 2534 3370 2195 
Q 3706 1856 3706 1288 
Q 3706 609 3251 259 
Q 2797 -91 1919 -91 
Q 1588 -91 1214 -16 
Q 841 59 441 206 
L 441 856 
Q 825 641 1194 531 
Q 1563 422 1919 422 
Q 2459 422 2753 634 
Q 3047 847 3047 1241 
Q 3047 1584 2836 1778 
Q 2625 1972 2144 2069 
L 1759 2144 
Q 1053 2284 737 2584 
Q 422 2884 422 3419 
Q 422 4038 858 4394 
Q 1294 4750 2059 4750 
Q 2388 4750 2728 4690 
Q 3069 4631 3425 4513 
z
" transform="scale(0.015625)"/>
       <path id="DejaVuSans-4e" d="M 628 4666 
L 1478 4666 
L 3547 763 
L 3547 4666 
L 4159 4666 
L 4159 0 
L 3309 0 
L 1241 3903 
L 1241 0 
L 628 0 
L 628 4666 
z
" transform="scale(0.015625)"/>
       <path id="DejaVuSans-62" d="M 3116 1747 
Q 3116 2381 2855 2742 
Q 2594 3103 2138 3103 
Q 1681 3103 1420 2742 
Q 1159 2381 1159 1747 
Q 1159 1113 1420 752 
Q 1681 391 2138 391 
Q 2594 391 2855 752 
Q 3116 1113 3116 1747 
z
M 1159 2969 
Q 1341 3281 1617 3432 
Q 1894 3584 2278 3584 
Q 2916 3584 3314 3078 
Q 3713 2572 3713 1747 
Q 3713 922 3314 415 
Q 2916 -91 2278 -91 
Q 1894 -91 1617 61 
Q 1341 213 1159 525 
L 1159 0 
L 581 0 
L 581 4863 
L 1159 4863 
L 1159 2969 
z
" transform="scale(0.015625)"/>
      </defs>
      <use xlink:href="#DejaVuSans-48"/>
      <use xlink:href="#DejaVuSans-65" x="75.195312"/>
      <use xlink:href="#DejaVuSans-74" x="136.71875"/>
      <use xlink:href="#DejaVuSans-65" x="175.927734"/>
      <use xlink:href="#DejaVuSans-72" x="237.451172"/>
      <use xlink:href="#DejaVuSans-6f" x="276.314453"/>
      <use xlink:href="#DejaVuSans-7a" x="337.496094"/>
      <use xlink:href="#DejaVuSans-79" x="389.986328"/>
      <use xlink:href="#DejaVuSans-67" x="449.166016"/>
      <use xlink:href="#DejaVuSans-6f" x="512.642578"/>
      <use xlink:href="#DejaVuSans-75" x="573.824219"/>
      <use xlink:href="#DejaVuSans-73" x="637.203125"/>
      <use xlink:href="#DejaVuSans-20" x="689.302734"/>
      <use xlink:href="#DejaVuSans-53" x="721.089844"/>
      <use xlink:href="#DejaVuSans-4e" x="784.566406"/>
      <use xlink:href="#DejaVuSans-50" x="859.371094"/>
      <use xlink:href="#DejaVuSans-73" x="917.923828"/>
      <use xlink:href="#DejaVuSans-20" x="970.023438"/>
      <use xlink:href="#DejaVuSans-4e" x="1001.810547"/>
      <use xlink:href="#DejaVuSans-75" x="1076.615234"/>
      <use xlink:href="#DejaVuSans-6d" x="1139.994141"/>
      <use xlink:href="#DejaVuSans-62" x="1237.40625"/>
      <use xlink:href="#DejaVuSans-65" x="1300.882812"/>
      <use xlink:href="#DejaVuSans-72" x="1362.40625"/>
     </g>
    </g>
   </g>
   <g id="patch_142">
    <path d="M 62.343125 331.44 
L 62.343125 7.2 
" style="fill: none; stroke: #000000; stroke-width: 0.8; stroke-linejoin: miter; stroke-linecap: square"/>
   </g>
   <g id="patch_143">
    <path d="M 811.333125 331.44 
L 811.333125 7.2 
" style="fill: none; stroke: #000000; stroke-width: 0.8; stroke-linejoin: miter; stroke-linecap: square"/>
   </g>
   <g id="patch_144">
    <path d="M 62.343125 331.44 
L 811.333125 331.44 
" style="fill: none; stroke: #000000; stroke-width: 0.8; stroke-linejoin: miter; stroke-linecap: square"/>
   </g>
   <g id="patch_145">
    <path d="M 62.343125 7.2 
L 811.333125 7.2 
" style="fill: none; stroke: #000000; stroke-width: 0.8; stroke-linejoin: miter; stroke-linecap: square"/>
   </g>
  </g>
 </g>
 <defs>
  <clipPath id="peff2471d70">
   <rect x="62.343125" y="7.2" width="748.99" height="324.24"/>
  </clipPath>
 </defs>
</svg>
