<?xml version="1.0" encoding="utf-8" standalone="no"?>
<!DOCTYPE svg PUBLIC "-//W3C//DTD SVG 1.1//EN"
  "http://www.w3.org/Graphics/SVG/1.1/DTD/svg11.dtd">
<svg xmlns:xlink="http://www.w3.org/1999/xlink" width="739.143125pt" height="389.01pt" viewBox="0 0 739.143125 389.01" xmlns="http://www.w3.org/2000/svg" version="1.1">
 <metadata>
  <rdf:RDF xmlns:dc="http://purl.org/dc/elements/1.1/" xmlns:cc="http://creativecommons.org/ns#" xmlns:rdf="http://www.w3.org/1999/02/22-rdf-syntax-ns#">
   <cc:Work>
    <dc:type rdf:resource="http://purl.org/dc/dcmitype/StillImage"/>
    <dc:date>2025-06-24T15:53:14.684337</dc:date>
    <dc:format>image/svg+xml</dc:format>
    <dc:creator>
     <cc:Agent>
      <dc:title>Matplotlib v3.7.3, https://matplotlib.org/</dc:title>
     </cc:Agent>
    </dc:creator>
   </cc:Work>
  </rdf:RDF>
 </metadata>
 <defs>
  <style type="text/css">*{stroke-linejoin: round; stroke-linecap: butt}</style>
 </defs>
 <g id="figure_1">
  <g id="patch_1">
   <path d="M 0 389.01 
L 739.143125 389.01 
L 739.143125 0 
L 0 0 
z
" style="fill: #ffffff"/>
  </g>
  <g id="axes_1">
   <g id="patch_2">
    <path d="M 62.343125 339.84 
L 731.943125 339.84 
L 731.943125 7.2 
L 62.343125 7.2 
z
" style="fill: #ffffff"/>
   </g>
   <g id="patch_3">
    <path d="M 92.779489 339.84 
L 94.842971 339.84 
L 94.842971 295.960939 
L 92.779489 295.960939 
z
" clip-path="url(#p4564186365)" style="fill: #1f77b4; stroke: #000000; stroke-linejoin: miter"/>
   </g>
   <g id="patch_4">
    <path d="M 94.842971 339.84 
L 96.906453 339.84 
L 96.906453 265.080232 
L 94.842971 265.080232 
z
" clip-path="url(#p4564186365)" style="fill: #1f77b4; stroke: #000000; stroke-linejoin: miter"/>
   </g>
   <g id="patch_5">
    <path d="M 96.906453 339.84 
L 98.969935 339.84 
L 98.969935 281.460558 
L 96.906453 281.460558 
z
" clip-path="url(#p4564186365)" style="fill: #1f77b4; stroke: #000000; stroke-linejoin: miter"/>
   </g>
   <g id="patch_6">
    <path d="M 98.969935 339.84 
L 101.033418 339.84 
L 101.033418 313.431993 
L 98.969935 313.431993 
z
" clip-path="url(#p4564186365)" style="fill: #1f77b4; stroke: #000000; stroke-linejoin: miter"/>
   </g>
   <g id="patch_7">
    <path d="M 101.033418 339.84 
L 103.0969 339.84 
L 103.0969 287.857102 
L 101.033418 287.857102 
z
" clip-path="url(#p4564186365)" style="fill: #1f77b4; stroke: #000000; stroke-linejoin: miter"/>
   </g>
   <g id="patch_8">
    <path d="M 103.0969 339.84 
L 105.160382 339.84 
L 105.160382 289.64279 
L 103.0969 289.64279 
z
" clip-path="url(#p4564186365)" style="fill: #1f77b4; stroke: #000000; stroke-linejoin: miter"/>
   </g>
   <g id="patch_9">
    <path d="M 105.160382 339.84 
L 107.223865 339.84 
L 107.223865 306.282064 
L 105.160382 306.282064 
z
" clip-path="url(#p4564186365)" style="fill: #1f77b4; stroke: #000000; stroke-linejoin: miter"/>
   </g>
   <g id="patch_10">
    <path d="M 107.223865 339.84 
L 109.287347 339.84 
L 109.287347 273.714273 
L 107.223865 273.714273 
z
" clip-path="url(#p4564186365)" style="fill: #1f77b4; stroke: #000000; stroke-linejoin: miter"/>
   </g>
   <g id="patch_11">
    <path d="M 109.287347 339.84 
L 111.350829 339.84 
L 111.350829 282.444691 
L 109.287347 282.444691 
z
" clip-path="url(#p4564186365)" style="fill: #1f77b4; stroke: #000000; stroke-linejoin: miter"/>
   </g>
   <g id="patch_12">
    <path d="M 111.350829 339.84 
L 113.414311 339.84 
L 113.414311 285.84333 
L 111.350829 285.84333 
z
" clip-path="url(#p4564186365)" style="fill: #1f77b4; stroke: #000000; stroke-linejoin: miter"/>
   </g>
   <g id="patch_13">
    <path d="M 113.414311 339.84 
L 115.477794 339.84 
L 115.477794 274.949869 
L 113.414311 274.949869 
z
" clip-path="url(#p4564186365)" style="fill: #1f77b4; stroke: #000000; stroke-linejoin: miter"/>
   </g>
   <g id="patch_14">
    <path d="M 115.477794 339.84 
L 117.541276 339.84 
L 117.541276 302.862961 
L 115.477794 302.862961 
z
" clip-path="url(#p4564186365)" style="fill: #1f77b4; stroke: #000000; stroke-linejoin: miter"/>
   </g>
   <g id="patch_15">
    <path d="M 117.541276 339.84 
L 119.604758 339.84 
L 119.604758 335.383672 
L 117.541276 335.383672 
z
" clip-path="url(#p4564186365)" style="fill: #1f77b4; stroke: #000000; stroke-linejoin: miter"/>
   </g>
   <g id="patch_16">
    <path d="M 119.604758 339.84 
L 121.668241 339.84 
L 121.668241 338.267178 
L 119.604758 338.267178 
z
" clip-path="url(#p4564186365)" style="fill: #1f77b4; stroke: #000000; stroke-linejoin: miter"/>
   </g>
   <g id="patch_17">
    <path d="M 121.668241 339.84 
L 123.731723 339.84 
L 123.731723 324.421393 
L 121.668241 324.421393 
z
" clip-path="url(#p4564186365)" style="fill: #1f77b4; stroke: #000000; stroke-linejoin: miter"/>
   </g>
   <g id="patch_18">
    <path d="M 123.731723 339.84 
L 125.795205 339.84 
L 125.795205 322.814492 
L 123.731723 322.814492 
z
" clip-path="url(#p4564186365)" style="fill: #1f77b4; stroke: #000000; stroke-linejoin: miter"/>
   </g>
   <g id="patch_19">
    <path d="M 125.795205 339.84 
L 127.858687 339.84 
L 127.858687 329.227425 
L 125.795205 329.227425 
z
" clip-path="url(#p4564186365)" style="fill: #1f77b4; stroke: #000000; stroke-linejoin: miter"/>
   </g>
   <g id="patch_20">
    <path d="M 127.858687 339.84 
L 129.92217 339.84 
L 129.92217 330.751153 
L 127.858687 330.751153 
z
" clip-path="url(#p4564186365)" style="fill: #1f77b4; stroke: #000000; stroke-linejoin: miter"/>
   </g>
   <g id="patch_21">
    <path d="M 129.92217 339.84 
L 131.985652 339.84 
L 131.985652 333.641232 
L 129.92217 333.641232 
z
" clip-path="url(#p4564186365)" style="fill: #1f77b4; stroke: #000000; stroke-linejoin: miter"/>
   </g>
   <g id="patch_22">
    <path d="M 131.985652 339.84 
L 134.049134 339.84 
L 134.049134 332.466496 
L 131.985652 332.466496 
z
" clip-path="url(#p4564186365)" style="fill: #1f77b4; stroke: #000000; stroke-linejoin: miter"/>
   </g>
   <g id="patch_23">
    <path d="M 134.049134 339.84 
L 136.112617 339.84 
L 136.112617 303.940344 
L 134.049134 303.940344 
z
" clip-path="url(#p4564186365)" style="fill: #1f77b4; stroke: #000000; stroke-linejoin: miter"/>
   </g>
   <g id="patch_24">
    <path d="M 136.112617 339.84 
L 138.176099 339.84 
L 138.176099 307.176147 
L 136.112617 307.176147 
z
" clip-path="url(#p4564186365)" style="fill: #1f77b4; stroke: #000000; stroke-linejoin: miter"/>
   </g>
   <g id="patch_25">
    <path d="M 138.176099 339.84 
L 140.239581 339.84 
L 140.239581 310.936178 
L 138.176099 310.936178 
z
" clip-path="url(#p4564186365)" style="fill: #1f77b4; stroke: #000000; stroke-linejoin: miter"/>
   </g>
   <g id="patch_26">
    <path d="M 140.239581 339.84 
L 142.303063 339.84 
L 142.303063 332.864878 
L 140.239581 332.864878 
z
" clip-path="url(#p4564186365)" style="fill: #1f77b4; stroke: #000000; stroke-linejoin: miter"/>
   </g>
   <g id="patch_27">
    <path d="M 142.303063 339.84 
L 144.366546 339.84 
L 144.366546 317.497866 
L 142.303063 317.497866 
z
" clip-path="url(#p4564186365)" style="fill: #1f77b4; stroke: #000000; stroke-linejoin: miter"/>
   </g>
   <g id="patch_28">
    <path d="M 144.366546 339.84 
L 146.430028 339.84 
L 146.430028 337.231418 
L 144.366546 337.231418 
z
" clip-path="url(#p4564186365)" style="fill: #1f77b4; stroke: #000000; stroke-linejoin: miter"/>
   </g>
   <g id="patch_29">
    <path d="M 146.430028 339.84 
L 148.49351 339.84 
L 148.49351 328.633645 
L 146.430028 328.633645 
z
" clip-path="url(#p4564186365)" style="fill: #1f77b4; stroke: #000000; stroke-linejoin: miter"/>
   </g>
   <g id="patch_30">
    <path d="M 148.49351 339.84 
L 150.556992 339.84 
L 150.556992 324.736109 
L 148.49351 324.736109 
z
" clip-path="url(#p4564186365)" style="fill: #1f77b4; stroke: #000000; stroke-linejoin: miter"/>
   </g>
   <g id="patch_31">
    <path d="M 150.556992 339.84 
L 152.620475 339.84 
L 152.620475 324.80795 
L 150.556992 324.80795 
z
" clip-path="url(#p4564186365)" style="fill: #1f77b4; stroke: #000000; stroke-linejoin: miter"/>
   </g>
   <g id="patch_32">
    <path d="M 152.620475 339.84 
L 154.683957 339.84 
L 154.683957 330.558623 
L 152.620475 330.558623 
z
" clip-path="url(#p4564186365)" style="fill: #1f77b4; stroke: #000000; stroke-linejoin: miter"/>
   </g>
   <g id="patch_33">
    <path d="M 154.683957 339.84 
L 156.747439 339.84 
L 156.747439 331.649457 
L 154.683957 331.649457 
z
" clip-path="url(#p4564186365)" style="fill: #1f77b4; stroke: #000000; stroke-linejoin: miter"/>
   </g>
   <g id="patch_34">
    <path d="M 156.747439 339.84 
L 158.810922 339.84 
L 158.810922 312.673079 
L 156.747439 312.673079 
z
" clip-path="url(#p4564186365)" style="fill: #1f77b4; stroke: #000000; stroke-linejoin: miter"/>
   </g>
   <g id="patch_35">
    <path d="M 158.810922 339.84 
L 160.874404 339.84 
L 160.874404 323.237993 
L 158.810922 323.237993 
z
" clip-path="url(#p4564186365)" style="fill: #1f77b4; stroke: #000000; stroke-linejoin: miter"/>
   </g>
   <g id="patch_36">
    <path d="M 160.874404 339.84 
L 162.937886 339.84 
L 162.937886 327.201254 
L 160.874404 327.201254 
z
" clip-path="url(#p4564186365)" style="fill: #1f77b4; stroke: #000000; stroke-linejoin: miter"/>
   </g>
   <g id="patch_37">
    <path d="M 162.937886 339.84 
L 165.001368 339.84 
L 165.001368 323.858532 
L 162.937886 323.858532 
z
" clip-path="url(#p4564186365)" style="fill: #1f77b4; stroke: #000000; stroke-linejoin: miter"/>
   </g>
   <g id="patch_38">
    <path d="M 165.001368 339.84 
L 167.064851 339.84 
L 167.064851 322.348316 
L 165.001368 322.348316 
z
" clip-path="url(#p4564186365)" style="fill: #1f77b4; stroke: #000000; stroke-linejoin: miter"/>
   </g>
   <g id="patch_39">
    <path d="M 167.064851 339.84 
L 169.128333 339.84 
L 169.128333 312.609773 
L 167.064851 312.609773 
z
" clip-path="url(#p4564186365)" style="fill: #1f77b4; stroke: #000000; stroke-linejoin: miter"/>
   </g>
   <g id="patch_40">
    <path d="M 169.128333 339.84 
L 171.191815 339.84 
L 171.191815 156.647658 
L 169.128333 156.647658 
z
" clip-path="url(#p4564186365)" style="fill: #1f77b4; stroke: #000000; stroke-linejoin: miter"/>
   </g>
   <g id="patch_41">
    <path d="M 171.191815 339.84 
L 173.255298 339.84 
L 173.255298 171.247918 
L 171.191815 171.247918 
z
" clip-path="url(#p4564186365)" style="fill: #1f77b4; stroke: #000000; stroke-linejoin: miter"/>
   </g>
   <g id="patch_42">
    <path d="M 173.255298 339.84 
L 175.31878 339.84 
L 175.31878 162.28853 
L 173.255298 162.28853 
z
" clip-path="url(#p4564186365)" style="fill: #1f77b4; stroke: #000000; stroke-linejoin: miter"/>
   </g>
   <g id="patch_43">
    <path d="M 175.31878 339.84 
L 177.382262 339.84 
L 177.382262 147.568081 
L 175.31878 147.568081 
z
" clip-path="url(#p4564186365)" style="fill: #1f77b4; stroke: #000000; stroke-linejoin: miter"/>
   </g>
   <g id="patch_44">
    <path d="M 177.382262 339.84 
L 179.445744 339.84 
L 179.445744 136.25523 
L 177.382262 136.25523 
z
" clip-path="url(#p4564186365)" style="fill: #1f77b4; stroke: #000000; stroke-linejoin: miter"/>
   </g>
   <g id="patch_45">
    <path d="M 179.445744 339.84 
L 181.509227 339.84 
L 181.509227 143.309875 
L 179.445744 143.309875 
z
" clip-path="url(#p4564186365)" style="fill: #1f77b4; stroke: #000000; stroke-linejoin: miter"/>
   </g>
   <g id="patch_46">
    <path d="M 181.509227 339.84 
L 183.572709 339.84 
L 183.572709 334.172418 
L 181.509227 334.172418 
z
" clip-path="url(#p4564186365)" style="fill: #1f77b4; stroke: #000000; stroke-linejoin: miter"/>
   </g>
   <g id="patch_47">
    <path d="M 183.572709 339.84 
L 185.636191 339.84 
L 185.636191 335.171731 
L 183.572709 335.171731 
z
" clip-path="url(#p4564186365)" style="fill: #1f77b4; stroke: #000000; stroke-linejoin: miter"/>
   </g>
   <g id="patch_48">
    <path d="M 185.636191 339.84 
L 187.699674 339.84 
L 187.699674 329.363187 
L 185.636191 329.363187 
z
" clip-path="url(#p4564186365)" style="fill: #1f77b4; stroke: #000000; stroke-linejoin: miter"/>
   </g>
   <g id="patch_49">
    <path d="M 187.699674 339.84 
L 189.763156 339.84 
L 189.763156 251.147834 
L 187.699674 251.147834 
z
" clip-path="url(#p4564186365)" style="fill: #1f77b4; stroke: #000000; stroke-linejoin: miter"/>
   </g>
   <g id="patch_50">
    <path d="M 189.763156 339.84 
L 191.826638 339.84 
L 191.826638 167.318932 
L 189.763156 167.318932 
z
" clip-path="url(#p4564186365)" style="fill: #1f77b4; stroke: #000000; stroke-linejoin: miter"/>
   </g>
   <g id="patch_51">
    <path d="M 191.826638 339.84 
L 193.89012 339.84 
L 193.89012 167.361949 
L 191.826638 167.361949 
z
" clip-path="url(#p4564186365)" style="fill: #1f77b4; stroke: #000000; stroke-linejoin: miter"/>
   </g>
   <g id="patch_52">
    <path d="M 193.89012 339.84 
L 195.953603 339.84 
L 195.953603 183.414567 
L 193.89012 183.414567 
z
" clip-path="url(#p4564186365)" style="fill: #1f77b4; stroke: #000000; stroke-linejoin: miter"/>
   </g>
   <g id="patch_53">
    <path d="M 195.953603 339.84 
L 198.017085 339.84 
L 198.017085 217.808694 
L 195.953603 217.808694 
z
" clip-path="url(#p4564186365)" style="fill: #1f77b4; stroke: #000000; stroke-linejoin: miter"/>
   </g>
   <g id="patch_54">
    <path d="M 198.017085 339.84 
L 200.080567 339.84 
L 200.080567 277.788764 
L 198.017085 277.788764 
z
" clip-path="url(#p4564186365)" style="fill: #1f77b4; stroke: #000000; stroke-linejoin: miter"/>
   </g>
   <g id="patch_55">
    <path d="M 200.080567 339.84 
L 202.144049 339.84 
L 202.144049 235.565819 
L 200.080567 235.565819 
z
" clip-path="url(#p4564186365)" style="fill: #1f77b4; stroke: #000000; stroke-linejoin: miter"/>
   </g>
   <g id="patch_56">
    <path d="M 202.144049 339.84 
L 204.207532 339.84 
L 204.207532 197.043515 
L 202.144049 197.043515 
z
" clip-path="url(#p4564186365)" style="fill: #1f77b4; stroke: #000000; stroke-linejoin: miter"/>
   </g>
   <g id="patch_57">
    <path d="M 204.207532 339.84 
L 206.271014 339.84 
L 206.271014 227.421298 
L 204.207532 227.421298 
z
" clip-path="url(#p4564186365)" style="fill: #1f77b4; stroke: #000000; stroke-linejoin: miter"/>
   </g>
   <g id="patch_58">
    <path d="M 206.271014 339.84 
L 208.334496 339.84 
L 208.334496 176.79888 
L 206.271014 176.79888 
z
" clip-path="url(#p4564186365)" style="fill: #1f77b4; stroke: #000000; stroke-linejoin: miter"/>
   </g>
   <g id="patch_59">
    <path d="M 208.334496 339.84 
L 210.397979 339.84 
L 210.397979 183.90104 
L 208.334496 183.90104 
z
" clip-path="url(#p4564186365)" style="fill: #1f77b4; stroke: #000000; stroke-linejoin: miter"/>
   </g>
   <g id="patch_60">
    <path d="M 210.397979 339.84 
L 212.461461 339.84 
L 212.461461 200.278285 
L 210.397979 200.278285 
z
" clip-path="url(#p4564186365)" style="fill: #1f77b4; stroke: #000000; stroke-linejoin: miter"/>
   </g>
   <g id="patch_61">
    <path d="M 212.461461 339.84 
L 214.524943 339.84 
L 214.524943 201.018391 
L 212.461461 201.018391 
z
" clip-path="url(#p4564186365)" style="fill: #1f77b4; stroke: #000000; stroke-linejoin: miter"/>
   </g>
   <g id="patch_62">
    <path d="M 214.524943 339.84 
L 216.588425 339.84 
L 216.588425 233.188809 
L 214.524943 233.188809 
z
" clip-path="url(#p4564186365)" style="fill: #1f77b4; stroke: #000000; stroke-linejoin: miter"/>
   </g>
   <g id="patch_63">
    <path d="M 216.588425 339.84 
L 218.651908 339.84 
L 218.651908 273.206065 
L 216.588425 273.206065 
z
" clip-path="url(#p4564186365)" style="fill: #1f77b4; stroke: #000000; stroke-linejoin: miter"/>
   </g>
   <g id="patch_64">
    <path d="M 218.651908 339.84 
L 220.71539 339.84 
L 220.71539 229.672885 
L 218.651908 229.672885 
z
" clip-path="url(#p4564186365)" style="fill: #1f77b4; stroke: #000000; stroke-linejoin: miter"/>
   </g>
   <g id="patch_65">
    <path d="M 220.71539 339.84 
L 222.778872 339.84 
L 222.778872 226.464665 
L 220.71539 226.464665 
z
" clip-path="url(#p4564186365)" style="fill: #1f77b4; stroke: #000000; stroke-linejoin: miter"/>
   </g>
   <g id="patch_66">
    <path d="M 222.778872 339.84 
L 224.842355 339.84 
L 224.842355 219.288536 
L 222.778872 219.288536 
z
" clip-path="url(#p4564186365)" style="fill: #1f77b4; stroke: #000000; stroke-linejoin: miter"/>
   </g>
   <g id="patch_67">
    <path d="M 224.842355 339.84 
L 226.905837 339.84 
L 226.905837 140.759241 
L 224.842355 140.759241 
z
" clip-path="url(#p4564186365)" style="fill: #1f77b4; stroke: #000000; stroke-linejoin: miter"/>
   </g>
   <g id="patch_68">
    <path d="M 226.905837 339.84 
L 228.969319 339.84 
L 228.969319 184.346277 
L 226.905837 184.346277 
z
" clip-path="url(#p4564186365)" style="fill: #1f77b4; stroke: #000000; stroke-linejoin: miter"/>
   </g>
   <g id="patch_69">
    <path d="M 228.969319 339.84 
L 231.032801 339.84 
L 231.032801 286.854143 
L 228.969319 286.854143 
z
" clip-path="url(#p4564186365)" style="fill: #1f77b4; stroke: #000000; stroke-linejoin: miter"/>
   </g>
   <g id="patch_70">
    <path d="M 231.032801 339.84 
L 233.096284 339.84 
L 233.096284 210.472738 
L 231.032801 210.472738 
z
" clip-path="url(#p4564186365)" style="fill: #1f77b4; stroke: #000000; stroke-linejoin: miter"/>
   </g>
   <g id="patch_71">
    <path d="M 233.096284 339.84 
L 235.159766 339.84 
L 235.159766 223.679137 
L 233.096284 223.679137 
z
" clip-path="url(#p4564186365)" style="fill: #1f77b4; stroke: #000000; stroke-linejoin: miter"/>
   </g>
   <g id="patch_72">
    <path d="M 235.159766 339.84 
L 237.223248 339.84 
L 237.223248 151.948296 
L 235.159766 151.948296 
z
" clip-path="url(#p4564186365)" style="fill: #1f77b4; stroke: #000000; stroke-linejoin: miter"/>
   </g>
   <g id="patch_73">
    <path d="M 237.223248 339.84 
L 239.286731 339.84 
L 239.286731 209.73327 
L 237.223248 209.73327 
z
" clip-path="url(#p4564186365)" style="fill: #1f77b4; stroke: #000000; stroke-linejoin: miter"/>
   </g>
   <g id="patch_74">
    <path d="M 239.286731 339.84 
L 241.350213 339.84 
L 241.350213 231.404539 
L 239.286731 231.404539 
z
" clip-path="url(#p4564186365)" style="fill: #1f77b4; stroke: #000000; stroke-linejoin: miter"/>
   </g>
   <g id="patch_75">
    <path d="M 241.350213 339.84 
L 243.413695 339.84 
L 243.413695 144.656371 
L 241.350213 144.656371 
z
" clip-path="url(#p4564186365)" style="fill: #1f77b4; stroke: #000000; stroke-linejoin: miter"/>
   </g>
   <g id="patch_76">
    <path d="M 243.413695 339.84 
L 245.477177 339.84 
L 245.477177 191.023309 
L 243.413695 191.023309 
z
" clip-path="url(#p4564186365)" style="fill: #1f77b4; stroke: #000000; stroke-linejoin: miter"/>
   </g>
   <g id="patch_77">
    <path d="M 245.477177 339.84 
L 247.54066 339.84 
L 247.54066 166.736307 
L 245.477177 166.736307 
z
" clip-path="url(#p4564186365)" style="fill: #1f77b4; stroke: #000000; stroke-linejoin: miter"/>
   </g>
   <g id="patch_78">
    <path d="M 247.54066 339.84 
L 249.604142 339.84 
L 249.604142 157.261611 
L 247.54066 157.261611 
z
" clip-path="url(#p4564186365)" style="fill: #1f77b4; stroke: #000000; stroke-linejoin: miter"/>
   </g>
   <g id="patch_79">
    <path d="M 249.604142 339.84 
L 251.667624 339.84 
L 251.667624 146.423957 
L 249.604142 146.423957 
z
" clip-path="url(#p4564186365)" style="fill: #1f77b4; stroke: #000000; stroke-linejoin: miter"/>
   </g>
   <g id="patch_80">
    <path d="M 251.667624 339.84 
L 253.731107 339.84 
L 253.731107 219.154703 
L 251.667624 219.154703 
z
" clip-path="url(#p4564186365)" style="fill: #1f77b4; stroke: #000000; stroke-linejoin: miter"/>
   </g>
   <g id="patch_81">
    <path d="M 253.731107 339.84 
L 255.794589 339.84 
L 255.794589 167.831649 
L 253.731107 167.831649 
z
" clip-path="url(#p4564186365)" style="fill: #1f77b4; stroke: #000000; stroke-linejoin: miter"/>
   </g>
   <g id="patch_82">
    <path d="M 255.794589 339.84 
L 257.858071 339.84 
L 257.858071 198.498907 
L 255.794589 198.498907 
z
" clip-path="url(#p4564186365)" style="fill: #1f77b4; stroke: #000000; stroke-linejoin: miter"/>
   </g>
   <g id="patch_83">
    <path d="M 257.858071 339.84 
L 259.921553 339.84 
L 259.921553 144.941174 
L 257.858071 144.941174 
z
" clip-path="url(#p4564186365)" style="fill: #1f77b4; stroke: #000000; stroke-linejoin: miter"/>
   </g>
   <g id="patch_84">
    <path d="M 259.921553 339.84 
L 261.985036 339.84 
L 261.985036 168.026832 
L 259.921553 168.026832 
z
" clip-path="url(#p4564186365)" style="fill: #1f77b4; stroke: #000000; stroke-linejoin: miter"/>
   </g>
   <g id="patch_85">
    <path d="M 261.985036 339.84 
L 264.048518 339.84 
L 264.048518 175.247529 
L 261.985036 175.247529 
z
" clip-path="url(#p4564186365)" style="fill: #1f77b4; stroke: #000000; stroke-linejoin: miter"/>
   </g>
   <g id="patch_86">
    <path d="M 264.048518 339.84 
L 266.112 339.84 
L 266.112 214.417814 
L 264.048518 214.417814 
z
" clip-path="url(#p4564186365)" style="fill: #1f77b4; stroke: #000000; stroke-linejoin: miter"/>
   </g>
   <g id="patch_87">
    <path d="M 266.112 339.84 
L 268.175482 339.84 
L 268.175482 194.007529 
L 266.112 194.007529 
z
" clip-path="url(#p4564186365)" style="fill: #1f77b4; stroke: #000000; stroke-linejoin: miter"/>
   </g>
   <g id="patch_88">
    <path d="M 268.175482 339.84 
L 270.238965 339.84 
L 270.238965 233.929585 
L 268.175482 233.929585 
z
" clip-path="url(#p4564186365)" style="fill: #1f77b4; stroke: #000000; stroke-linejoin: miter"/>
   </g>
   <g id="patch_89">
    <path d="M 270.238965 339.84 
L 272.302447 339.84 
L 272.302447 172.91679 
L 270.238965 172.91679 
z
" clip-path="url(#p4564186365)" style="fill: #1f77b4; stroke: #000000; stroke-linejoin: miter"/>
   </g>
   <g id="patch_90">
    <path d="M 272.302447 339.84 
L 274.365929 339.84 
L 274.365929 155.31707 
L 272.302447 155.31707 
z
" clip-path="url(#p4564186365)" style="fill: #1f77b4; stroke: #000000; stroke-linejoin: miter"/>
   </g>
   <g id="patch_91">
    <path d="M 274.365929 339.84 
L 276.429412 339.84 
L 276.429412 190.803576 
L 274.365929 190.803576 
z
" clip-path="url(#p4564186365)" style="fill: #1f77b4; stroke: #000000; stroke-linejoin: miter"/>
   </g>
   <g id="patch_92">
    <path d="M 276.429412 339.84 
L 278.492894 339.84 
L 278.492894 165.757231 
L 276.429412 165.757231 
z
" clip-path="url(#p4564186365)" style="fill: #1f77b4; stroke: #000000; stroke-linejoin: miter"/>
   </g>
   <g id="patch_93">
    <path d="M 278.492894 339.84 
L 280.556376 339.84 
L 280.556376 218.531689 
L 278.492894 218.531689 
z
" clip-path="url(#p4564186365)" style="fill: #1f77b4; stroke: #000000; stroke-linejoin: miter"/>
   </g>
   <g id="patch_94">
    <path d="M 280.556376 339.84 
L 282.619858 339.84 
L 282.619858 124.953231 
L 280.556376 124.953231 
z
" clip-path="url(#p4564186365)" style="fill: #1f77b4; stroke: #000000; stroke-linejoin: miter"/>
   </g>
   <g id="patch_95">
    <path d="M 282.619858 339.84 
L 284.683341 339.84 
L 284.683341 100.569453 
L 282.619858 100.569453 
z
" clip-path="url(#p4564186365)" style="fill: #1f77b4; stroke: #000000; stroke-linejoin: miter"/>
   </g>
   <g id="patch_96">
    <path d="M 284.683341 339.84 
L 286.746823 339.84 
L 286.746823 171.381842 
L 284.683341 171.381842 
z
" clip-path="url(#p4564186365)" style="fill: #1f77b4; stroke: #000000; stroke-linejoin: miter"/>
   </g>
   <g id="patch_97">
    <path d="M 286.746823 339.84 
L 288.810305 339.84 
L 288.810305 218.071143 
L 286.746823 218.071143 
z
" clip-path="url(#p4564186365)" style="fill: #1f77b4; stroke: #000000; stroke-linejoin: miter"/>
   </g>
   <g id="patch_98">
    <path d="M 288.810305 339.84 
L 290.873788 339.84 
L 290.873788 184.089972 
L 288.810305 184.089972 
z
" clip-path="url(#p4564186365)" style="fill: #1f77b4; stroke: #000000; stroke-linejoin: miter"/>
   </g>
   <g id="patch_99">
    <path d="M 290.873788 339.84 
L 292.93727 339.84 
L 292.93727 232.80461 
L 290.873788 232.80461 
z
" clip-path="url(#p4564186365)" style="fill: #1f77b4; stroke: #000000; stroke-linejoin: miter"/>
   </g>
   <g id="patch_100">
    <path d="M 292.93727 339.84 
L 295.000752 339.84 
L 295.000752 229.302089 
L 292.93727 229.302089 
z
" clip-path="url(#p4564186365)" style="fill: #1f77b4; stroke: #000000; stroke-linejoin: miter"/>
   </g>
   <g id="patch_101">
    <path d="M 295.000752 339.84 
L 297.064234 339.84 
L 297.064234 194.699534 
L 295.000752 194.699534 
z
" clip-path="url(#p4564186365)" style="fill: #1f77b4; stroke: #000000; stroke-linejoin: miter"/>
   </g>
   <g id="patch_102">
    <path d="M 297.064234 339.84 
L 299.127717 339.84 
L 299.127717 180.204988 
L 297.064234 180.204988 
z
" clip-path="url(#p4564186365)" style="fill: #1f77b4; stroke: #000000; stroke-linejoin: miter"/>
   </g>
   <g id="patch_103">
    <path d="M 299.127717 339.84 
L 301.191199 339.84 
L 301.191199 236.747585 
L 299.127717 236.747585 
z
" clip-path="url(#p4564186365)" style="fill: #1f77b4; stroke: #000000; stroke-linejoin: miter"/>
   </g>
   <g id="patch_104">
    <path d="M 301.191199 339.84 
L 303.254681 339.84 
L 303.254681 215.147618 
L 301.191199 215.147618 
z
" clip-path="url(#p4564186365)" style="fill: #1f77b4; stroke: #000000; stroke-linejoin: miter"/>
   </g>
   <g id="patch_105">
    <path d="M 303.254681 339.84 
L 305.318164 339.84 
L 305.318164 268.341728 
L 303.254681 268.341728 
z
" clip-path="url(#p4564186365)" style="fill: #1f77b4; stroke: #000000; stroke-linejoin: miter"/>
   </g>
   <g id="patch_106">
    <path d="M 305.318164 339.84 
L 307.381646 339.84 
L 307.381646 242.261042 
L 305.318164 242.261042 
z
" clip-path="url(#p4564186365)" style="fill: #1f77b4; stroke: #000000; stroke-linejoin: miter"/>
   </g>
   <g id="patch_107">
    <path d="M 307.381646 339.84 
L 309.445128 339.84 
L 309.445128 262.444064 
L 307.381646 262.444064 
z
" clip-path="url(#p4564186365)" style="fill: #1f77b4; stroke: #000000; stroke-linejoin: miter"/>
   </g>
   <g id="patch_108">
    <path d="M 309.445128 339.84 
L 311.50861 339.84 
L 311.50861 247.530871 
L 309.445128 247.530871 
z
" clip-path="url(#p4564186365)" style="fill: #1f77b4; stroke: #000000; stroke-linejoin: miter"/>
   </g>
   <g id="patch_109">
    <path d="M 311.50861 339.84 
L 313.572093 339.84 
L 313.572093 270.11157 
L 311.50861 270.11157 
z
" clip-path="url(#p4564186365)" style="fill: #1f77b4; stroke: #000000; stroke-linejoin: miter"/>
   </g>
   <g id="patch_110">
    <path d="M 313.572093 339.84 
L 315.635575 339.84 
L 315.635575 283.515384 
L 313.572093 283.515384 
z
" clip-path="url(#p4564186365)" style="fill: #1f77b4; stroke: #000000; stroke-linejoin: miter"/>
   </g>
   <g id="patch_111">
    <path d="M 315.635575 339.84 
L 317.699057 339.84 
L 317.699057 273.893107 
L 315.635575 273.893107 
z
" clip-path="url(#p4564186365)" style="fill: #1f77b4; stroke: #000000; stroke-linejoin: miter"/>
   </g>
   <g id="patch_112">
    <path d="M 317.699057 339.84 
L 319.762539 339.84 
L 319.762539 281.884665 
L 317.699057 281.884665 
z
" clip-path="url(#p4564186365)" style="fill: #1f77b4; stroke: #000000; stroke-linejoin: miter"/>
   </g>
   <g id="patch_113">
    <path d="M 319.762539 339.84 
L 321.826022 339.84 
L 321.826022 267.211932 
L 319.762539 267.211932 
z
" clip-path="url(#p4564186365)" style="fill: #1f77b4; stroke: #000000; stroke-linejoin: miter"/>
   </g>
   <g id="patch_114">
    <path d="M 321.826022 339.84 
L 323.889504 339.84 
L 323.889504 318.849769 
L 321.826022 318.849769 
z
" clip-path="url(#p4564186365)" style="fill: #1f77b4; stroke: #000000; stroke-linejoin: miter"/>
   </g>
   <g id="patch_115">
    <path d="M 323.889504 339.84 
L 325.952986 339.84 
L 325.952986 303.535691 
L 323.889504 303.535691 
z
" clip-path="url(#p4564186365)" style="fill: #1f77b4; stroke: #000000; stroke-linejoin: miter"/>
   </g>
   <g id="patch_116">
    <path d="M 325.952986 339.84 
L 328.016469 339.84 
L 328.016469 293.634237 
L 325.952986 293.634237 
z
" clip-path="url(#p4564186365)" style="fill: #1f77b4; stroke: #000000; stroke-linejoin: miter"/>
   </g>
   <g id="patch_117">
    <path d="M 328.016469 339.84 
L 330.079951 339.84 
L 330.079951 296.171067 
L 328.016469 296.171067 
z
" clip-path="url(#p4564186365)" style="fill: #1f77b4; stroke: #000000; stroke-linejoin: miter"/>
   </g>
   <g id="patch_118">
    <path d="M 330.079951 339.84 
L 332.143433 339.84 
L 332.143433 269.59468 
L 330.079951 269.59468 
z
" clip-path="url(#p4564186365)" style="fill: #1f77b4; stroke: #000000; stroke-linejoin: miter"/>
   </g>
   <g id="patch_119">
    <path d="M 332.143433 339.84 
L 334.206915 339.84 
L 334.206915 259.974435 
L 332.143433 259.974435 
z
" clip-path="url(#p4564186365)" style="fill: #1f77b4; stroke: #000000; stroke-linejoin: miter"/>
   </g>
   <g id="patch_120">
    <path d="M 334.206915 339.84 
L 336.270398 339.84 
L 336.270398 294.459467 
L 334.206915 294.459467 
z
" clip-path="url(#p4564186365)" style="fill: #1f77b4; stroke: #000000; stroke-linejoin: miter"/>
   </g>
   <g id="patch_121">
    <path d="M 336.270398 339.84 
L 338.33388 339.84 
L 338.33388 232.858724 
L 336.270398 232.858724 
z
" clip-path="url(#p4564186365)" style="fill: #1f77b4; stroke: #000000; stroke-linejoin: miter"/>
   </g>
   <g id="patch_122">
    <path d="M 338.33388 339.84 
L 340.397362 339.84 
L 340.397362 272.119427 
L 338.33388 272.119427 
z
" clip-path="url(#p4564186365)" style="fill: #1f77b4; stroke: #000000; stroke-linejoin: miter"/>
   </g>
   <g id="patch_123">
    <path d="M 340.397362 339.84 
L 342.460845 339.84 
L 342.460845 253.160047 
L 340.397362 253.160047 
z
" clip-path="url(#p4564186365)" style="fill: #1f77b4; stroke: #000000; stroke-linejoin: miter"/>
   </g>
   <g id="patch_124">
    <path d="M 342.460845 339.84 
L 344.524327 339.84 
L 344.524327 325.890281 
L 342.460845 325.890281 
z
" clip-path="url(#p4564186365)" style="fill: #1f77b4; stroke: #000000; stroke-linejoin: miter"/>
   </g>
   <g id="patch_125">
    <path d="M 344.524327 339.84 
L 346.587809 339.84 
L 346.587809 316.839163 
L 344.524327 316.839163 
z
" clip-path="url(#p4564186365)" style="fill: #1f77b4; stroke: #000000; stroke-linejoin: miter"/>
   </g>
   <g id="patch_126">
    <path d="M 346.587809 339.84 
L 348.651291 339.84 
L 348.651291 264.511878 
L 346.587809 264.511878 
z
" clip-path="url(#p4564186365)" style="fill: #1f77b4; stroke: #000000; stroke-linejoin: miter"/>
   </g>
   <g id="patch_127">
    <path d="M 348.651291 339.84 
L 350.714774 339.84 
L 350.714774 238.355034 
L 348.651291 238.355034 
z
" clip-path="url(#p4564186365)" style="fill: #1f77b4; stroke: #000000; stroke-linejoin: miter"/>
   </g>
   <g id="patch_128">
    <path d="M 350.714774 339.84 
L 352.778256 339.84 
L 352.778256 223.590716 
L 350.714774 223.590716 
z
" clip-path="url(#p4564186365)" style="fill: #1f77b4; stroke: #000000; stroke-linejoin: miter"/>
   </g>
   <g id="patch_129">
    <path d="M 352.778256 339.84 
L 354.841738 339.84 
L 354.841738 191.438948 
L 352.778256 191.438948 
z
" clip-path="url(#p4564186365)" style="fill: #1f77b4; stroke: #000000; stroke-linejoin: miter"/>
   </g>
   <g id="patch_130">
    <path d="M 354.841738 339.84 
L 356.905221 339.84 
L 356.905221 211.618573 
L 354.841738 211.618573 
z
" clip-path="url(#p4564186365)" style="fill: #1f77b4; stroke: #000000; stroke-linejoin: miter"/>
   </g>
   <g id="patch_131">
    <path d="M 356.905221 339.84 
L 358.968703 339.84 
L 358.968703 206.94266 
L 356.905221 206.94266 
z
" clip-path="url(#p4564186365)" style="fill: #1f77b4; stroke: #000000; stroke-linejoin: miter"/>
   </g>
   <g id="patch_132">
    <path d="M 358.968703 339.84 
L 361.032185 339.84 
L 361.032185 219.22877 
L 358.968703 219.22877 
z
" clip-path="url(#p4564186365)" style="fill: #1f77b4; stroke: #000000; stroke-linejoin: miter"/>
   </g>
   <g id="patch_133">
    <path d="M 361.032185 339.84 
L 363.095667 339.84 
L 363.095667 212.715492 
L 361.032185 212.715492 
z
" clip-path="url(#p4564186365)" style="fill: #1f77b4; stroke: #000000; stroke-linejoin: miter"/>
   </g>
   <g id="patch_134">
    <path d="M 363.095667 339.84 
L 365.15915 339.84 
L 365.15915 235.207751 
L 363.095667 235.207751 
z
" clip-path="url(#p4564186365)" style="fill: #1f77b4; stroke: #000000; stroke-linejoin: miter"/>
   </g>
   <g id="patch_135">
    <path d="M 365.15915 339.84 
L 367.222632 339.84 
L 367.222632 249.55765 
L 365.15915 249.55765 
z
" clip-path="url(#p4564186365)" style="fill: #1f77b4; stroke: #000000; stroke-linejoin: miter"/>
   </g>
   <g id="patch_136">
    <path d="M 367.222632 339.84 
L 369.286114 339.84 
L 369.286114 224.117642 
L 367.222632 224.117642 
z
" clip-path="url(#p4564186365)" style="fill: #1f77b4; stroke: #000000; stroke-linejoin: miter"/>
   </g>
   <g id="patch_137">
    <path d="M 369.286114 339.84 
L 371.349596 339.84 
L 371.349596 261.167032 
L 369.286114 261.167032 
z
" clip-path="url(#p4564186365)" style="fill: #1f77b4; stroke: #000000; stroke-linejoin: miter"/>
   </g>
   <g id="patch_138">
    <path d="M 371.349596 339.84 
L 373.413079 339.84 
L 373.413079 282.666129 
L 371.349596 282.666129 
z
" clip-path="url(#p4564186365)" style="fill: #1f77b4; stroke: #000000; stroke-linejoin: miter"/>
   </g>
   <g id="patch_139">
    <path d="M 373.413079 339.84 
L 375.476561 339.84 
L 375.476561 214.976734 
L 373.413079 214.976734 
z
" clip-path="url(#p4564186365)" style="fill: #1f77b4; stroke: #000000; stroke-linejoin: miter"/>
   </g>
   <g id="patch_140">
    <path d="M 375.476561 339.84 
L 377.540043 339.84 
L 377.540043 238.346739 
L 375.476561 238.346739 
z
" clip-path="url(#p4564186365)" style="fill: #1f77b4; stroke: #000000; stroke-linejoin: miter"/>
   </g>
   <g id="patch_141">
    <path d="M 377.540043 339.84 
L 379.603526 339.84 
L 379.603526 244.776804 
L 377.540043 244.776804 
z
" clip-path="url(#p4564186365)" style="fill: #1f77b4; stroke: #000000; stroke-linejoin: miter"/>
   </g>
   <g id="patch_142">
    <path d="M 379.603526 339.84 
L 381.667008 339.84 
L 381.667008 259.51533 
L 379.603526 259.51533 
z
" clip-path="url(#p4564186365)" style="fill: #1f77b4; stroke: #000000; stroke-linejoin: miter"/>
   </g>
   <g id="patch_143">
    <path d="M 381.667008 339.84 
L 383.73049 339.84 
L 383.73049 250.685842 
L 381.667008 250.685842 
z
" clip-path="url(#p4564186365)" style="fill: #1f77b4; stroke: #000000; stroke-linejoin: miter"/>
   </g>
   <g id="patch_144">
    <path d="M 383.73049 339.84 
L 385.793972 339.84 
L 385.793972 247.622978 
L 383.73049 247.622978 
z
" clip-path="url(#p4564186365)" style="fill: #1f77b4; stroke: #000000; stroke-linejoin: miter"/>
   </g>
   <g id="patch_145">
    <path d="M 385.793972 339.84 
L 387.857455 339.84 
L 387.857455 225.868482 
L 385.793972 225.868482 
z
" clip-path="url(#p4564186365)" style="fill: #1f77b4; stroke: #000000; stroke-linejoin: miter"/>
   </g>
   <g id="patch_146">
    <path d="M 387.857455 339.84 
L 389.920937 339.84 
L 389.920937 267.675881 
L 387.857455 267.675881 
z
" clip-path="url(#p4564186365)" style="fill: #1f77b4; stroke: #000000; stroke-linejoin: miter"/>
   </g>
   <g id="patch_147">
    <path d="M 389.920937 339.84 
L 391.984419 339.84 
L 391.984419 208.573463 
L 389.920937 208.573463 
z
" clip-path="url(#p4564186365)" style="fill: #1f77b4; stroke: #000000; stroke-linejoin: miter"/>
   </g>
   <g id="patch_148">
    <path d="M 391.984419 339.84 
L 394.047902 339.84 
L 394.047902 213.894944 
L 391.984419 213.894944 
z
" clip-path="url(#p4564186365)" style="fill: #1f77b4; stroke: #000000; stroke-linejoin: miter"/>
   </g>
   <g id="patch_149">
    <path d="M 394.047902 339.84 
L 396.111384 339.84 
L 396.111384 222.773251 
L 394.047902 222.773251 
z
" clip-path="url(#p4564186365)" style="fill: #1f77b4; stroke: #000000; stroke-linejoin: miter"/>
   </g>
   <g id="patch_150">
    <path d="M 396.111384 339.84 
L 398.174866 339.84 
L 398.174866 261.54999 
L 396.111384 261.54999 
z
" clip-path="url(#p4564186365)" style="fill: #1f77b4; stroke: #000000; stroke-linejoin: miter"/>
   </g>
   <g id="patch_151">
    <path d="M 398.174866 339.84 
L 400.238348 339.84 
L 400.238348 235.461831 
L 398.174866 235.461831 
z
" clip-path="url(#p4564186365)" style="fill: #1f77b4; stroke: #000000; stroke-linejoin: miter"/>
   </g>
   <g id="patch_152">
    <path d="M 400.238348 339.84 
L 402.301831 339.84 
L 402.301831 238.828549 
L 400.238348 238.828549 
z
" clip-path="url(#p4564186365)" style="fill: #1f77b4; stroke: #000000; stroke-linejoin: miter"/>
   </g>
   <g id="patch_153">
    <path d="M 402.301831 339.84 
L 404.365313 339.84 
L 404.365313 253.384342 
L 402.301831 253.384342 
z
" clip-path="url(#p4564186365)" style="fill: #1f77b4; stroke: #000000; stroke-linejoin: miter"/>
   </g>
   <g id="patch_154">
    <path d="M 404.365313 339.84 
L 406.428795 339.84 
L 406.428795 243.897874 
L 404.365313 243.897874 
z
" clip-path="url(#p4564186365)" style="fill: #1f77b4; stroke: #000000; stroke-linejoin: miter"/>
   </g>
   <g id="patch_155">
    <path d="M 406.428795 339.84 
L 408.492278 339.84 
L 408.492278 267.539738 
L 406.428795 267.539738 
z
" clip-path="url(#p4564186365)" style="fill: #1f77b4; stroke: #000000; stroke-linejoin: miter"/>
   </g>
   <g id="patch_156">
    <path d="M 408.492278 339.84 
L 410.55576 339.84 
L 410.55576 232.630283 
L 408.492278 232.630283 
z
" clip-path="url(#p4564186365)" style="fill: #1f77b4; stroke: #000000; stroke-linejoin: miter"/>
   </g>
   <g id="patch_157">
    <path d="M 410.55576 339.84 
L 412.619242 339.84 
L 412.619242 280.684427 
L 410.55576 280.684427 
z
" clip-path="url(#p4564186365)" style="fill: #1f77b4; stroke: #000000; stroke-linejoin: miter"/>
   </g>
   <g id="patch_158">
    <path d="M 412.619242 339.84 
L 414.682724 339.84 
L 414.682724 262.729793 
L 412.619242 262.729793 
z
" clip-path="url(#p4564186365)" style="fill: #1f77b4; stroke: #000000; stroke-linejoin: miter"/>
   </g>
   <g id="patch_159">
    <path d="M 414.682724 339.84 
L 416.746207 339.84 
L 416.746207 268.483044 
L 414.682724 268.483044 
z
" clip-path="url(#p4564186365)" style="fill: #1f77b4; stroke: #000000; stroke-linejoin: miter"/>
   </g>
   <g id="patch_160">
    <path d="M 416.746207 339.84 
L 418.809689 339.84 
L 418.809689 253.519205 
L 416.746207 253.519205 
z
" clip-path="url(#p4564186365)" style="fill: #1f77b4; stroke: #000000; stroke-linejoin: miter"/>
   </g>
   <g id="patch_161">
    <path d="M 418.809689 339.84 
L 420.873171 339.84 
L 420.873171 242.95219 
L 418.809689 242.95219 
z
" clip-path="url(#p4564186365)" style="fill: #1f77b4; stroke: #000000; stroke-linejoin: miter"/>
   </g>
   <g id="patch_162">
    <path d="M 420.873171 339.84 
L 422.936654 339.84 
L 422.936654 267.460337 
L 420.873171 267.460337 
z
" clip-path="url(#p4564186365)" style="fill: #1f77b4; stroke: #000000; stroke-linejoin: miter"/>
   </g>
   <g id="patch_163">
    <path d="M 422.936654 339.84 
L 425.000136 339.84 
L 425.000136 244.362797 
L 422.936654 244.362797 
z
" clip-path="url(#p4564186365)" style="fill: #1f77b4; stroke: #000000; stroke-linejoin: miter"/>
   </g>
   <g id="patch_164">
    <path d="M 425.000136 339.84 
L 427.063618 339.84 
L 427.063618 260.789094 
L 425.000136 260.789094 
z
" clip-path="url(#p4564186365)" style="fill: #1f77b4; stroke: #000000; stroke-linejoin: miter"/>
   </g>
   <g id="patch_165">
    <path d="M 427.063618 339.84 
L 429.1271 339.84 
L 429.1271 234.38484 
L 427.063618 234.38484 
z
" clip-path="url(#p4564186365)" style="fill: #1f77b4; stroke: #000000; stroke-linejoin: miter"/>
   </g>
   <g id="patch_166">
    <path d="M 429.1271 339.84 
L 431.190583 339.84 
L 431.190583 279.391218 
L 429.1271 279.391218 
z
" clip-path="url(#p4564186365)" style="fill: #1f77b4; stroke: #000000; stroke-linejoin: miter"/>
   </g>
   <g id="patch_167">
    <path d="M 431.190583 339.84 
L 433.254065 339.84 
L 433.254065 255.058859 
L 431.190583 255.058859 
z
" clip-path="url(#p4564186365)" style="fill: #1f77b4; stroke: #000000; stroke-linejoin: miter"/>
   </g>
   <g id="patch_168">
    <path d="M 433.254065 339.84 
L 435.317547 339.84 
L 435.317547 252.272087 
L 433.254065 252.272087 
z
" clip-path="url(#p4564186365)" style="fill: #1f77b4; stroke: #000000; stroke-linejoin: miter"/>
   </g>
   <g id="patch_169">
    <path d="M 435.317547 339.84 
L 437.381029 339.84 
L 437.381029 264.831624 
L 435.317547 264.831624 
z
" clip-path="url(#p4564186365)" style="fill: #1f77b4; stroke: #000000; stroke-linejoin: miter"/>
   </g>
   <g id="patch_170">
    <path d="M 437.381029 339.84 
L 439.444512 339.84 
L 439.444512 175.022913 
L 437.381029 175.022913 
z
" clip-path="url(#p4564186365)" style="fill: #1f77b4; stroke: #000000; stroke-linejoin: miter"/>
   </g>
   <g id="patch_171">
    <path d="M 439.444512 339.84 
L 441.507994 339.84 
L 441.507994 248.765246 
L 439.444512 248.765246 
z
" clip-path="url(#p4564186365)" style="fill: #1f77b4; stroke: #000000; stroke-linejoin: miter"/>
   </g>
   <g id="patch_172">
    <path d="M 441.507994 339.84 
L 443.571476 339.84 
L 443.571476 257.367681 
L 441.507994 257.367681 
z
" clip-path="url(#p4564186365)" style="fill: #1f77b4; stroke: #000000; stroke-linejoin: miter"/>
   </g>
   <g id="patch_173">
    <path d="M 443.571476 339.84 
L 445.634959 339.84 
L 445.634959 261.779956 
L 443.571476 261.779956 
z
" clip-path="url(#p4564186365)" style="fill: #1f77b4; stroke: #000000; stroke-linejoin: miter"/>
   </g>
   <g id="patch_174">
    <path d="M 445.634959 339.84 
L 447.698441 339.84 
L 447.698441 221.544146 
L 445.634959 221.544146 
z
" clip-path="url(#p4564186365)" style="fill: #1f77b4; stroke: #000000; stroke-linejoin: miter"/>
   </g>
   <g id="patch_175">
    <path d="M 447.698441 339.84 
L 449.761923 339.84 
L 449.761923 271.72472 
L 447.698441 271.72472 
z
" clip-path="url(#p4564186365)" style="fill: #1f77b4; stroke: #000000; stroke-linejoin: miter"/>
   </g>
   <g id="patch_176">
    <path d="M 449.761923 339.84 
L 451.825405 339.84 
L 451.825405 272.851643 
L 449.761923 272.851643 
z
" clip-path="url(#p4564186365)" style="fill: #1f77b4; stroke: #000000; stroke-linejoin: miter"/>
   </g>
   <g id="patch_177">
    <path d="M 451.825405 339.84 
L 453.888888 339.84 
L 453.888888 239.707001 
L 451.825405 239.707001 
z
" clip-path="url(#p4564186365)" style="fill: #1f77b4; stroke: #000000; stroke-linejoin: miter"/>
   </g>
   <g id="patch_178">
    <path d="M 453.888888 339.84 
L 455.95237 339.84 
L 455.95237 257.313119 
L 453.888888 257.313119 
z
" clip-path="url(#p4564186365)" style="fill: #1f77b4; stroke: #000000; stroke-linejoin: miter"/>
   </g>
   <g id="patch_179">
    <path d="M 455.95237 339.84 
L 458.015852 339.84 
L 458.015852 255.855352 
L 455.95237 255.855352 
z
" clip-path="url(#p4564186365)" style="fill: #1f77b4; stroke: #000000; stroke-linejoin: miter"/>
   </g>
   <g id="patch_180">
    <path d="M 458.015852 339.84 
L 460.079335 339.84 
L 460.079335 226.653008 
L 458.015852 226.653008 
z
" clip-path="url(#p4564186365)" style="fill: #1f77b4; stroke: #000000; stroke-linejoin: miter"/>
   </g>
   <g id="patch_181">
    <path d="M 460.079335 339.84 
L 462.142817 339.84 
L 462.142817 242.839794 
L 460.079335 242.839794 
z
" clip-path="url(#p4564186365)" style="fill: #1f77b4; stroke: #000000; stroke-linejoin: miter"/>
   </g>
   <g id="patch_182">
    <path d="M 462.142817 339.84 
L 464.206299 339.84 
L 464.206299 273.872227 
L 462.142817 273.872227 
z
" clip-path="url(#p4564186365)" style="fill: #1f77b4; stroke: #000000; stroke-linejoin: miter"/>
   </g>
   <g id="patch_183">
    <path d="M 464.206299 339.84 
L 466.269781 339.84 
L 466.269781 247.276528 
L 464.206299 247.276528 
z
" clip-path="url(#p4564186365)" style="fill: #1f77b4; stroke: #000000; stroke-linejoin: miter"/>
   </g>
   <g id="patch_184">
    <path d="M 466.269781 339.84 
L 468.333264 339.84 
L 468.333264 258.096658 
L 466.269781 258.096658 
z
" clip-path="url(#p4564186365)" style="fill: #1f77b4; stroke: #000000; stroke-linejoin: miter"/>
   </g>
   <g id="patch_185">
    <path d="M 468.333264 339.84 
L 470.396746 339.84 
L 470.396746 274.429745 
L 468.333264 274.429745 
z
" clip-path="url(#p4564186365)" style="fill: #1f77b4; stroke: #000000; stroke-linejoin: miter"/>
   </g>
   <g id="patch_186">
    <path d="M 470.396746 339.84 
L 472.460228 339.84 
L 472.460228 241.051289 
L 470.396746 241.051289 
z
" clip-path="url(#p4564186365)" style="fill: #1f77b4; stroke: #000000; stroke-linejoin: miter"/>
   </g>
   <g id="patch_187">
    <path d="M 472.460228 339.84 
L 474.523711 339.84 
L 474.523711 179.643481 
L 472.460228 179.643481 
z
" clip-path="url(#p4564186365)" style="fill: #1f77b4; stroke: #000000; stroke-linejoin: miter"/>
   </g>
   <g id="patch_188">
    <path d="M 474.523711 339.84 
L 476.587193 339.84 
L 476.587193 319.833268 
L 474.523711 319.833268 
z
" clip-path="url(#p4564186365)" style="fill: #1f77b4; stroke: #000000; stroke-linejoin: miter"/>
   </g>
   <g id="patch_189">
    <path d="M 476.587193 339.84 
L 478.650675 339.84 
L 478.650675 259.442404 
L 476.587193 259.442404 
z
" clip-path="url(#p4564186365)" style="fill: #1f77b4; stroke: #000000; stroke-linejoin: miter"/>
   </g>
   <g id="patch_190">
    <path d="M 478.650675 339.84 
L 480.714157 339.84 
L 480.714157 317.397044 
L 478.650675 317.397044 
z
" clip-path="url(#p4564186365)" style="fill: #1f77b4; stroke: #000000; stroke-linejoin: miter"/>
   </g>
   <g id="patch_191">
    <path d="M 480.714157 339.84 
L 482.77764 339.84 
L 482.77764 313.055313 
L 480.714157 313.055313 
z
" clip-path="url(#p4564186365)" style="fill: #1f77b4; stroke: #000000; stroke-linejoin: miter"/>
   </g>
   <g id="patch_192">
    <path d="M 482.77764 339.84 
L 484.841122 339.84 
L 484.841122 320.446424 
L 482.77764 320.446424 
z
" clip-path="url(#p4564186365)" style="fill: #1f77b4; stroke: #000000; stroke-linejoin: miter"/>
   </g>
   <g id="patch_193">
    <path d="M 484.841122 339.84 
L 486.904604 339.84 
L 486.904604 125.968786 
L 484.841122 125.968786 
z
" clip-path="url(#p4564186365)" style="fill: #1f77b4; stroke: #000000; stroke-linejoin: miter"/>
   </g>
   <g id="patch_194">
    <path d="M 486.904604 339.84 
L 488.968086 339.84 
L 488.968086 23.04 
L 486.904604 23.04 
z
" clip-path="url(#p4564186365)" style="fill: #1f77b4; stroke: #000000; stroke-linejoin: miter"/>
   </g>
   <g id="patch_195">
    <path d="M 488.968086 339.84 
L 491.031569 339.84 
L 491.031569 200.750914 
L 488.968086 200.750914 
z
" clip-path="url(#p4564186365)" style="fill: #1f77b4; stroke: #000000; stroke-linejoin: miter"/>
   </g>
   <g id="patch_196">
    <path d="M 491.031569 339.84 
L 493.095051 339.84 
L 493.095051 242.220969 
L 491.031569 242.220969 
z
" clip-path="url(#p4564186365)" style="fill: #1f77b4; stroke: #000000; stroke-linejoin: miter"/>
   </g>
   <g id="patch_197">
    <path d="M 493.095051 339.84 
L 495.158533 339.84 
L 495.158533 276.721037 
L 493.095051 276.721037 
z
" clip-path="url(#p4564186365)" style="fill: #1f77b4; stroke: #000000; stroke-linejoin: miter"/>
   </g>
   <g id="patch_198">
    <path d="M 495.158533 339.84 
L 497.222016 339.84 
L 497.222016 245.183685 
L 495.158533 245.183685 
z
" clip-path="url(#p4564186365)" style="fill: #1f77b4; stroke: #000000; stroke-linejoin: miter"/>
   </g>
   <g id="patch_199">
    <path d="M 497.222016 339.84 
L 499.285498 339.84 
L 499.285498 224.232529 
L 497.222016 224.232529 
z
" clip-path="url(#p4564186365)" style="fill: #1f77b4; stroke: #000000; stroke-linejoin: miter"/>
   </g>
   <g id="patch_200">
    <path d="M 499.285498 339.84 
L 501.34898 339.84 
L 501.34898 252.484631 
L 499.285498 252.484631 
z
" clip-path="url(#p4564186365)" style="fill: #1f77b4; stroke: #000000; stroke-linejoin: miter"/>
   </g>
   <g id="patch_201">
    <path d="M 501.34898 339.84 
L 503.412462 339.84 
L 503.412462 237.730166 
L 501.34898 237.730166 
z
" clip-path="url(#p4564186365)" style="fill: #1f77b4; stroke: #000000; stroke-linejoin: miter"/>
   </g>
   <g id="patch_202">
    <path d="M 503.412462 339.84 
L 505.475945 339.84 
L 505.475945 192.307305 
L 503.412462 192.307305 
z
" clip-path="url(#p4564186365)" style="fill: #1f77b4; stroke: #000000; stroke-linejoin: miter"/>
   </g>
   <g id="patch_203">
    <path d="M 505.475945 339.84 
L 507.539427 339.84 
L 507.539427 227.139188 
L 505.475945 227.139188 
z
" clip-path="url(#p4564186365)" style="fill: #1f77b4; stroke: #000000; stroke-linejoin: miter"/>
   </g>
   <g id="patch_204">
    <path d="M 507.539427 339.84 
L 509.602909 339.84 
L 509.602909 229.586496 
L 507.539427 229.586496 
z
" clip-path="url(#p4564186365)" style="fill: #1f77b4; stroke: #000000; stroke-linejoin: miter"/>
   </g>
   <g id="patch_205">
    <path d="M 509.602909 339.84 
L 511.666392 339.84 
L 511.666392 251.740584 
L 509.602909 251.740584 
z
" clip-path="url(#p4564186365)" style="fill: #1f77b4; stroke: #000000; stroke-linejoin: miter"/>
   </g>
   <g id="patch_206">
    <path d="M 511.666392 339.84 
L 513.729874 339.84 
L 513.729874 268.979138 
L 511.666392 268.979138 
z
" clip-path="url(#p4564186365)" style="fill: #1f77b4; stroke: #000000; stroke-linejoin: miter"/>
   </g>
   <g id="patch_207">
    <path d="M 513.729874 339.84 
L 515.793356 339.84 
L 515.793356 243.223808 
L 513.729874 243.223808 
z
" clip-path="url(#p4564186365)" style="fill: #1f77b4; stroke: #000000; stroke-linejoin: miter"/>
   </g>
   <g id="patch_208">
    <path d="M 515.793356 339.84 
L 517.856838 339.84 
L 517.856838 206.816019 
L 515.793356 206.816019 
z
" clip-path="url(#p4564186365)" style="fill: #1f77b4; stroke: #000000; stroke-linejoin: miter"/>
   </g>
   <g id="patch_209">
    <path d="M 517.856838 339.84 
L 519.920321 339.84 
L 519.920321 301.514507 
L 517.856838 301.514507 
z
" clip-path="url(#p4564186365)" style="fill: #1f77b4; stroke: #000000; stroke-linejoin: miter"/>
   </g>
   <g id="patch_210">
    <path d="M 519.920321 339.84 
L 521.983803 339.84 
L 521.983803 301.761158 
L 519.920321 301.761158 
z
" clip-path="url(#p4564186365)" style="fill: #1f77b4; stroke: #000000; stroke-linejoin: miter"/>
   </g>
   <g id="patch_211">
    <path d="M 521.983803 339.84 
L 524.047285 339.84 
L 524.047285 262.364971 
L 521.983803 262.364971 
z
" clip-path="url(#p4564186365)" style="fill: #1f77b4; stroke: #000000; stroke-linejoin: miter"/>
   </g>
   <g id="patch_212">
    <path d="M 524.047285 339.84 
L 526.110768 339.84 
L 526.110768 272.936389 
L 524.047285 272.936389 
z
" clip-path="url(#p4564186365)" style="fill: #1f77b4; stroke: #000000; stroke-linejoin: miter"/>
   </g>
   <g id="patch_213">
    <path d="M 526.110768 339.84 
L 528.17425 339.84 
L 528.17425 261.398285 
L 526.110768 261.398285 
z
" clip-path="url(#p4564186365)" style="fill: #1f77b4; stroke: #000000; stroke-linejoin: miter"/>
   </g>
   <g id="patch_214">
    <path d="M 528.17425 339.84 
L 530.237732 339.84 
L 530.237732 238.05153 
L 528.17425 238.05153 
z
" clip-path="url(#p4564186365)" style="fill: #1f77b4; stroke: #000000; stroke-linejoin: miter"/>
   </g>
   <g id="patch_215">
    <path d="M 530.237732 339.84 
L 532.301214 339.84 
L 532.301214 235.302454 
L 530.237732 235.302454 
z
" clip-path="url(#p4564186365)" style="fill: #1f77b4; stroke: #000000; stroke-linejoin: miter"/>
   </g>
   <g id="patch_216">
    <path d="M 532.301214 339.84 
L 534.364697 339.84 
L 534.364697 250.189161 
L 532.301214 250.189161 
z
" clip-path="url(#p4564186365)" style="fill: #1f77b4; stroke: #000000; stroke-linejoin: miter"/>
   </g>
   <g id="patch_217">
    <path d="M 534.364697 339.84 
L 536.428179 339.84 
L 536.428179 208.852748 
L 534.364697 208.852748 
z
" clip-path="url(#p4564186365)" style="fill: #1f77b4; stroke: #000000; stroke-linejoin: miter"/>
   </g>
   <g id="patch_218">
    <path d="M 536.428179 339.84 
L 538.491661 339.84 
L 538.491661 242.85588 
L 536.428179 242.85588 
z
" clip-path="url(#p4564186365)" style="fill: #1f77b4; stroke: #000000; stroke-linejoin: miter"/>
   </g>
   <g id="patch_219">
    <path d="M 538.491661 339.84 
L 540.555143 339.84 
L 540.555143 235.961807 
L 538.491661 235.961807 
z
" clip-path="url(#p4564186365)" style="fill: #1f77b4; stroke: #000000; stroke-linejoin: miter"/>
   </g>
   <g id="patch_220">
    <path d="M 540.555143 339.84 
L 542.618626 339.84 
L 542.618626 219.30577 
L 540.555143 219.30577 
z
" clip-path="url(#p4564186365)" style="fill: #1f77b4; stroke: #000000; stroke-linejoin: miter"/>
   </g>
   <g id="patch_221">
    <path d="M 542.618626 339.84 
L 544.682108 339.84 
L 544.682108 259.692177 
L 542.618626 259.692177 
z
" clip-path="url(#p4564186365)" style="fill: #1f77b4; stroke: #000000; stroke-linejoin: miter"/>
   </g>
   <g id="patch_222">
    <path d="M 544.682108 339.84 
L 546.74559 339.84 
L 546.74559 245.427407 
L 544.682108 245.427407 
z
" clip-path="url(#p4564186365)" style="fill: #1f77b4; stroke: #000000; stroke-linejoin: miter"/>
   </g>
   <g id="patch_223">
    <path d="M 546.74559 339.84 
L 548.809073 339.84 
L 548.809073 282.067295 
L 546.74559 282.067295 
z
" clip-path="url(#p4564186365)" style="fill: #1f77b4; stroke: #000000; stroke-linejoin: miter"/>
   </g>
   <g id="patch_224">
    <path d="M 548.809073 339.84 
L 550.872555 339.84 
L 550.872555 261.076211 
L 548.809073 261.076211 
z
" clip-path="url(#p4564186365)" style="fill: #1f77b4; stroke: #000000; stroke-linejoin: miter"/>
   </g>
   <g id="patch_225">
    <path d="M 550.872555 339.84 
L 552.936037 339.84 
L 552.936037 231.23252 
L 550.872555 231.23252 
z
" clip-path="url(#p4564186365)" style="fill: #1f77b4; stroke: #000000; stroke-linejoin: miter"/>
   </g>
   <g id="patch_226">
    <path d="M 552.936037 339.84 
L 554.999519 339.84 
L 554.999519 221.394425 
L 552.936037 221.394425 
z
" clip-path="url(#p4564186365)" style="fill: #1f77b4; stroke: #000000; stroke-linejoin: miter"/>
   </g>
   <g id="patch_227">
    <path d="M 554.999519 339.84 
L 557.063002 339.84 
L 557.063002 230.770862 
L 554.999519 230.770862 
z
" clip-path="url(#p4564186365)" style="fill: #1f77b4; stroke: #000000; stroke-linejoin: miter"/>
   </g>
   <g id="patch_228">
    <path d="M 557.063002 339.84 
L 559.126484 339.84 
L 559.126484 278.511778 
L 557.063002 278.511778 
z
" clip-path="url(#p4564186365)" style="fill: #1f77b4; stroke: #000000; stroke-linejoin: miter"/>
   </g>
   <g id="patch_229">
    <path d="M 559.126484 339.84 
L 561.189966 339.84 
L 561.189966 246.582906 
L 559.126484 246.582906 
z
" clip-path="url(#p4564186365)" style="fill: #1f77b4; stroke: #000000; stroke-linejoin: miter"/>
   </g>
   <g id="patch_230">
    <path d="M 561.189966 339.84 
L 563.253449 339.84 
L 563.253449 205.251398 
L 561.189966 205.251398 
z
" clip-path="url(#p4564186365)" style="fill: #1f77b4; stroke: #000000; stroke-linejoin: miter"/>
   </g>
   <g id="patch_231">
    <path d="M 563.253449 339.84 
L 565.316931 339.84 
L 565.316931 199.616893 
L 563.253449 199.616893 
z
" clip-path="url(#p4564186365)" style="fill: #1f77b4; stroke: #000000; stroke-linejoin: miter"/>
   </g>
   <g id="patch_232">
    <path d="M 565.316931 339.84 
L 567.380413 339.84 
L 567.380413 208.222452 
L 565.316931 208.222452 
z
" clip-path="url(#p4564186365)" style="fill: #1f77b4; stroke: #000000; stroke-linejoin: miter"/>
   </g>
   <g id="patch_233">
    <path d="M 567.380413 339.84 
L 569.443895 339.84 
L 569.443895 213.173987 
L 567.380413 213.173987 
z
" clip-path="url(#p4564186365)" style="fill: #1f77b4; stroke: #000000; stroke-linejoin: miter"/>
   </g>
   <g id="patch_234">
    <path d="M 569.443895 339.84 
L 571.507378 339.84 
L 571.507378 208.913513 
L 569.443895 208.913513 
z
" clip-path="url(#p4564186365)" style="fill: #1f77b4; stroke: #000000; stroke-linejoin: miter"/>
   </g>
   <g id="patch_235">
    <path d="M 571.507378 339.84 
L 573.57086 339.84 
L 573.57086 243.007988 
L 571.507378 243.007988 
z
" clip-path="url(#p4564186365)" style="fill: #1f77b4; stroke: #000000; stroke-linejoin: miter"/>
   </g>
   <g id="patch_236">
    <path d="M 573.57086 339.84 
L 575.634342 339.84 
L 575.634342 170.461586 
L 573.57086 170.461586 
z
" clip-path="url(#p4564186365)" style="fill: #1f77b4; stroke: #000000; stroke-linejoin: miter"/>
   </g>
   <g id="patch_237">
    <path d="M 575.634342 339.84 
L 577.697825 339.84 
L 577.697825 188.016443 
L 575.634342 188.016443 
z
" clip-path="url(#p4564186365)" style="fill: #1f77b4; stroke: #000000; stroke-linejoin: miter"/>
   </g>
   <g id="patch_238">
    <path d="M 577.697825 339.84 
L 579.761307 339.84 
L 579.761307 236.649218 
L 577.697825 236.649218 
z
" clip-path="url(#p4564186365)" style="fill: #1f77b4; stroke: #000000; stroke-linejoin: miter"/>
   </g>
   <g id="patch_239">
    <path d="M 579.761307 339.84 
L 581.824789 339.84 
L 581.824789 248.811507 
L 579.761307 248.811507 
z
" clip-path="url(#p4564186365)" style="fill: #1f77b4; stroke: #000000; stroke-linejoin: miter"/>
   </g>
   <g id="patch_240">
    <path d="M 581.824789 339.84 
L 583.888271 339.84 
L 583.888271 226.77788 
L 581.824789 226.77788 
z
" clip-path="url(#p4564186365)" style="fill: #1f77b4; stroke: #000000; stroke-linejoin: miter"/>
   </g>
   <g id="patch_241">
    <path d="M 583.888271 339.84 
L 585.951754 339.84 
L 585.951754 216.903593 
L 583.888271 216.903593 
z
" clip-path="url(#p4564186365)" style="fill: #1f77b4; stroke: #000000; stroke-linejoin: miter"/>
   </g>
   <g id="patch_242">
    <path d="M 585.951754 339.84 
L 588.015236 339.84 
L 588.015236 254.967734 
L 585.951754 254.967734 
z
" clip-path="url(#p4564186365)" style="fill: #1f77b4; stroke: #000000; stroke-linejoin: miter"/>
   </g>
   <g id="patch_243">
    <path d="M 588.015236 339.84 
L 590.078718 339.84 
L 590.078718 196.768734 
L 588.015236 196.768734 
z
" clip-path="url(#p4564186365)" style="fill: #1f77b4; stroke: #000000; stroke-linejoin: miter"/>
   </g>
   <g id="patch_244">
    <path d="M 590.078718 339.84 
L 592.142201 339.84 
L 592.142201 205.268994 
L 590.078718 205.268994 
z
" clip-path="url(#p4564186365)" style="fill: #1f77b4; stroke: #000000; stroke-linejoin: miter"/>
   </g>
   <g id="patch_245">
    <path d="M 592.142201 339.84 
L 594.205683 339.84 
L 594.205683 215.804381 
L 592.142201 215.804381 
z
" clip-path="url(#p4564186365)" style="fill: #1f77b4; stroke: #000000; stroke-linejoin: miter"/>
   </g>
   <g id="patch_246">
    <path d="M 594.205683 339.84 
L 596.269165 339.84 
L 596.269165 287.636865 
L 594.205683 287.636865 
z
" clip-path="url(#p4564186365)" style="fill: #1f77b4; stroke: #000000; stroke-linejoin: miter"/>
   </g>
   <g id="patch_247">
    <path d="M 596.269165 339.84 
L 598.332647 339.84 
L 598.332647 207.426008 
L 596.269165 207.426008 
z
" clip-path="url(#p4564186365)" style="fill: #1f77b4; stroke: #000000; stroke-linejoin: miter"/>
   </g>
   <g id="patch_248">
    <path d="M 598.332647 339.84 
L 600.39613 339.84 
L 600.39613 198.41357 
L 598.332647 198.41357 
z
" clip-path="url(#p4564186365)" style="fill: #1f77b4; stroke: #000000; stroke-linejoin: miter"/>
   </g>
   <g id="patch_249">
    <path d="M 600.39613 339.84 
L 602.459612 339.84 
L 602.459612 182.907343 
L 600.39613 182.907343 
z
" clip-path="url(#p4564186365)" style="fill: #1f77b4; stroke: #000000; stroke-linejoin: miter"/>
   </g>
   <g id="patch_250">
    <path d="M 602.459612 339.84 
L 604.523094 339.84 
L 604.523094 205.215578 
L 602.459612 205.215578 
z
" clip-path="url(#p4564186365)" style="fill: #1f77b4; stroke: #000000; stroke-linejoin: miter"/>
   </g>
   <g id="patch_251">
    <path d="M 604.523094 339.84 
L 606.586576 339.84 
L 606.586576 201.58897 
L 604.523094 201.58897 
z
" clip-path="url(#p4564186365)" style="fill: #1f77b4; stroke: #000000; stroke-linejoin: miter"/>
   </g>
   <g id="patch_252">
    <path d="M 606.586576 339.84 
L 608.650059 339.84 
L 608.650059 171.570384 
L 606.586576 171.570384 
z
" clip-path="url(#p4564186365)" style="fill: #1f77b4; stroke: #000000; stroke-linejoin: miter"/>
   </g>
   <g id="patch_253">
    <path d="M 608.650059 339.84 
L 610.713541 339.84 
L 610.713541 180.223017 
L 608.650059 180.223017 
z
" clip-path="url(#p4564186365)" style="fill: #1f77b4; stroke: #000000; stroke-linejoin: miter"/>
   </g>
   <g id="patch_254">
    <path d="M 610.713541 339.84 
L 612.777023 339.84 
L 612.777023 157.75798 
L 610.713541 157.75798 
z
" clip-path="url(#p4564186365)" style="fill: #1f77b4; stroke: #000000; stroke-linejoin: miter"/>
   </g>
   <g id="patch_255">
    <path d="M 612.777023 339.84 
L 614.840506 339.84 
L 614.840506 187.752905 
L 612.777023 187.752905 
z
" clip-path="url(#p4564186365)" style="fill: #1f77b4; stroke: #000000; stroke-linejoin: miter"/>
   </g>
   <g id="patch_256">
    <path d="M 614.840506 339.84 
L 616.903988 339.84 
L 616.903988 141.755452 
L 614.840506 141.755452 
z
" clip-path="url(#p4564186365)" style="fill: #1f77b4; stroke: #000000; stroke-linejoin: miter"/>
   </g>
   <g id="patch_257">
    <path d="M 616.903988 339.84 
L 618.96747 339.84 
L 618.96747 149.947144 
L 616.903988 149.947144 
z
" clip-path="url(#p4564186365)" style="fill: #1f77b4; stroke: #000000; stroke-linejoin: miter"/>
   </g>
   <g id="patch_258">
    <path d="M 618.96747 339.84 
L 621.030952 339.84 
L 621.030952 148.180438 
L 618.96747 148.180438 
z
" clip-path="url(#p4564186365)" style="fill: #1f77b4; stroke: #000000; stroke-linejoin: miter"/>
   </g>
   <g id="patch_259">
    <path d="M 621.030952 339.84 
L 623.094435 339.84 
L 623.094435 173.390523 
L 621.030952 173.390523 
z
" clip-path="url(#p4564186365)" style="fill: #1f77b4; stroke: #000000; stroke-linejoin: miter"/>
   </g>
   <g id="patch_260">
    <path d="M 623.094435 339.84 
L 625.157917 339.84 
L 625.157917 162.217416 
L 623.094435 162.217416 
z
" clip-path="url(#p4564186365)" style="fill: #1f77b4; stroke: #000000; stroke-linejoin: miter"/>
   </g>
   <g id="patch_261">
    <path d="M 625.157917 339.84 
L 627.221399 339.84 
L 627.221399 176.525086 
L 625.157917 176.525086 
z
" clip-path="url(#p4564186365)" style="fill: #1f77b4; stroke: #000000; stroke-linejoin: miter"/>
   </g>
   <g id="patch_262">
    <path d="M 627.221399 339.84 
L 629.284882 339.84 
L 629.284882 132.604578 
L 627.221399 132.604578 
z
" clip-path="url(#p4564186365)" style="fill: #1f77b4; stroke: #000000; stroke-linejoin: miter"/>
   </g>
   <g id="patch_263">
    <path d="M 629.284882 339.84 
L 631.348364 339.84 
L 631.348364 149.668616 
L 629.284882 149.668616 
z
" clip-path="url(#p4564186365)" style="fill: #1f77b4; stroke: #000000; stroke-linejoin: miter"/>
   </g>
   <g id="patch_264">
    <path d="M 631.348364 339.84 
L 633.411846 339.84 
L 633.411846 200.826756 
L 631.348364 200.826756 
z
" clip-path="url(#p4564186365)" style="fill: #1f77b4; stroke: #000000; stroke-linejoin: miter"/>
   </g>
   <g id="patch_265">
    <path d="M 633.411846 339.84 
L 635.475328 339.84 
L 635.475328 182.410375 
L 633.411846 182.410375 
z
" clip-path="url(#p4564186365)" style="fill: #1f77b4; stroke: #000000; stroke-linejoin: miter"/>
   </g>
   <g id="patch_266">
    <path d="M 635.475328 339.84 
L 637.538811 339.84 
L 637.538811 223.003454 
L 635.475328 223.003454 
z
" clip-path="url(#p4564186365)" style="fill: #1f77b4; stroke: #000000; stroke-linejoin: miter"/>
   </g>
   <g id="patch_267">
    <path d="M 637.538811 339.84 
L 639.602293 339.84 
L 639.602293 195.247639 
L 637.538811 195.247639 
z
" clip-path="url(#p4564186365)" style="fill: #1f77b4; stroke: #000000; stroke-linejoin: miter"/>
   </g>
   <g id="patch_268">
    <path d="M 639.602293 339.84 
L 641.665775 339.84 
L 641.665775 234.557899 
L 639.602293 234.557899 
z
" clip-path="url(#p4564186365)" style="fill: #1f77b4; stroke: #000000; stroke-linejoin: miter"/>
   </g>
   <g id="patch_269">
    <path d="M 641.665775 339.84 
L 643.729258 339.84 
L 643.729258 227.602022 
L 641.665775 227.602022 
z
" clip-path="url(#p4564186365)" style="fill: #1f77b4; stroke: #000000; stroke-linejoin: miter"/>
   </g>
   <g id="patch_270">
    <path d="M 643.729258 339.84 
L 645.79274 339.84 
L 645.79274 199.97498 
L 643.729258 199.97498 
z
" clip-path="url(#p4564186365)" style="fill: #1f77b4; stroke: #000000; stroke-linejoin: miter"/>
   </g>
   <g id="patch_271">
    <path d="M 645.79274 339.84 
L 647.856222 339.84 
L 647.856222 169.006561 
L 645.79274 169.006561 
z
" clip-path="url(#p4564186365)" style="fill: #1f77b4; stroke: #000000; stroke-linejoin: miter"/>
   </g>
   <g id="patch_272">
    <path d="M 647.856222 339.84 
L 649.919704 339.84 
L 649.919704 192.699006 
L 647.856222 192.699006 
z
" clip-path="url(#p4564186365)" style="fill: #1f77b4; stroke: #000000; stroke-linejoin: miter"/>
   </g>
   <g id="patch_273">
    <path d="M 649.919704 339.84 
L 651.983187 339.84 
L 651.983187 177.957619 
L 649.919704 177.957619 
z
" clip-path="url(#p4564186365)" style="fill: #1f77b4; stroke: #000000; stroke-linejoin: miter"/>
   </g>
   <g id="patch_274">
    <path d="M 651.983187 339.84 
L 654.046669 339.84 
L 654.046669 161.111279 
L 651.983187 161.111279 
z
" clip-path="url(#p4564186365)" style="fill: #1f77b4; stroke: #000000; stroke-linejoin: miter"/>
   </g>
   <g id="patch_275">
    <path d="M 654.046669 339.84 
L 656.110151 339.84 
L 656.110151 131.301686 
L 654.046669 131.301686 
z
" clip-path="url(#p4564186365)" style="fill: #1f77b4; stroke: #000000; stroke-linejoin: miter"/>
   </g>
   <g id="patch_276">
    <path d="M 656.110151 339.84 
L 658.173633 339.84 
L 658.173633 157.868665 
L 656.110151 157.868665 
z
" clip-path="url(#p4564186365)" style="fill: #1f77b4; stroke: #000000; stroke-linejoin: miter"/>
   </g>
   <g id="patch_277">
    <path d="M 658.173633 339.84 
L 660.237116 339.84 
L 660.237116 157.675561 
L 658.173633 157.675561 
z
" clip-path="url(#p4564186365)" style="fill: #1f77b4; stroke: #000000; stroke-linejoin: miter"/>
   </g>
   <g id="patch_278">
    <path d="M 660.237116 339.84 
L 662.300598 339.84 
L 662.300598 186.50762 
L 660.237116 186.50762 
z
" clip-path="url(#p4564186365)" style="fill: #1f77b4; stroke: #000000; stroke-linejoin: miter"/>
   </g>
   <g id="patch_279">
    <path d="M 662.300598 339.84 
L 664.36408 339.84 
L 664.36408 160.841236 
L 662.300598 160.841236 
z
" clip-path="url(#p4564186365)" style="fill: #1f77b4; stroke: #000000; stroke-linejoin: miter"/>
   </g>
   <g id="patch_280">
    <path d="M 664.36408 339.84 
L 666.427563 339.84 
L 666.427563 142.162522 
L 664.36408 142.162522 
z
" clip-path="url(#p4564186365)" style="fill: #1f77b4; stroke: #000000; stroke-linejoin: miter"/>
   </g>
   <g id="patch_281">
    <path d="M 666.427563 339.84 
L 668.491045 339.84 
L 668.491045 153.283405 
L 666.427563 153.283405 
z
" clip-path="url(#p4564186365)" style="fill: #1f77b4; stroke: #000000; stroke-linejoin: miter"/>
   </g>
   <g id="patch_282">
    <path d="M 668.491045 339.84 
L 670.554527 339.84 
L 670.554527 168.692798 
L 668.491045 168.692798 
z
" clip-path="url(#p4564186365)" style="fill: #1f77b4; stroke: #000000; stroke-linejoin: miter"/>
   </g>
   <g id="patch_283">
    <path d="M 670.554527 339.84 
L 672.618009 339.84 
L 672.618009 128.24305 
L 670.554527 128.24305 
z
" clip-path="url(#p4564186365)" style="fill: #1f77b4; stroke: #000000; stroke-linejoin: miter"/>
   </g>
   <g id="patch_284">
    <path d="M 672.618009 339.84 
L 674.681492 339.84 
L 674.681492 125.888942 
L 672.618009 125.888942 
z
" clip-path="url(#p4564186365)" style="fill: #1f77b4; stroke: #000000; stroke-linejoin: miter"/>
   </g>
   <g id="patch_285">
    <path d="M 674.681492 339.84 
L 676.744974 339.84 
L 676.744974 142.975147 
L 674.681492 142.975147 
z
" clip-path="url(#p4564186365)" style="fill: #1f77b4; stroke: #000000; stroke-linejoin: miter"/>
   </g>
   <g id="patch_286">
    <path d="M 676.744974 339.84 
L 678.808456 339.84 
L 678.808456 151.046011 
L 676.744974 151.046011 
z
" clip-path="url(#p4564186365)" style="fill: #1f77b4; stroke: #000000; stroke-linejoin: miter"/>
   </g>
   <g id="patch_287">
    <path d="M 678.808456 339.84 
L 680.871939 339.84 
L 680.871939 180.722868 
L 678.808456 180.722868 
z
" clip-path="url(#p4564186365)" style="fill: #1f77b4; stroke: #000000; stroke-linejoin: miter"/>
   </g>
   <g id="patch_288">
    <path d="M 680.871939 339.84 
L 682.935421 339.84 
L 682.935421 95.12096 
L 680.871939 95.12096 
z
" clip-path="url(#p4564186365)" style="fill: #1f77b4; stroke: #000000; stroke-linejoin: miter"/>
   </g>
   <g id="patch_289">
    <path d="M 682.935421 339.84 
L 684.998903 339.84 
L 684.998903 144.353793 
L 682.935421 144.353793 
z
" clip-path="url(#p4564186365)" style="fill: #1f77b4; stroke: #000000; stroke-linejoin: miter"/>
   </g>
   <g id="patch_290">
    <path d="M 684.998903 339.84 
L 687.062385 339.84 
L 687.062385 107.838022 
L 684.998903 107.838022 
z
" clip-path="url(#p4564186365)" style="fill: #1f77b4; stroke: #000000; stroke-linejoin: miter"/>
   </g>
   <g id="patch_291">
    <path d="M 687.062385 339.84 
L 689.125868 339.84 
L 689.125868 116.575771 
L 687.062385 116.575771 
z
" clip-path="url(#p4564186365)" style="fill: #1f77b4; stroke: #000000; stroke-linejoin: miter"/>
   </g>
   <g id="patch_292">
    <path d="M 689.125868 339.84 
L 691.18935 339.84 
L 691.18935 133.399012 
L 689.125868 133.399012 
z
" clip-path="url(#p4564186365)" style="fill: #1f77b4; stroke: #000000; stroke-linejoin: miter"/>
   </g>
   <g id="patch_293">
    <path d="M 691.18935 339.84 
L 693.252832 339.84 
L 693.252832 234.411793 
L 691.18935 234.411793 
z
" clip-path="url(#p4564186365)" style="fill: #1f77b4; stroke: #000000; stroke-linejoin: miter"/>
   </g>
   <g id="patch_294">
    <path d="M 693.252832 339.84 
L 695.316315 339.84 
L 695.316315 314.211857 
L 693.252832 314.211857 
z
" clip-path="url(#p4564186365)" style="fill: #1f77b4; stroke: #000000; stroke-linejoin: miter"/>
   </g>
   <g id="patch_295">
    <path d="M 695.316315 339.84 
L 697.379797 339.84 
L 697.379797 319.838456 
L 695.316315 319.838456 
z
" clip-path="url(#p4564186365)" style="fill: #1f77b4; stroke: #000000; stroke-linejoin: miter"/>
   </g>
   <g id="patch_296">
    <path d="M 697.379797 339.84 
L 699.443279 339.84 
L 699.443279 333.548713 
L 697.379797 333.548713 
z
" clip-path="url(#p4564186365)" style="fill: #1f77b4; stroke: #000000; stroke-linejoin: miter"/>
   </g>
   <g id="patch_297">
    <path d="M 699.443279 339.84 
L 701.506761 339.84 
L 701.506761 339.84 
L 699.443279 339.84 
z
" clip-path="url(#p4564186365)" style="fill: #1f77b4; stroke: #000000; stroke-linejoin: miter"/>
   </g>
   <g id="matplotlib.axis_1">
    <g id="xtick_1">
     <g id="line2d_1">
      <defs>
       <path id="m5284c0bcc4" d="M 0 0 
L 0 3.5 
" style="stroke: #000000; stroke-width: 0.8"/>
      </defs>
      <g>
       <use xlink:href="#m5284c0bcc4" x="91.747747" y="339.84" style="stroke: #000000; stroke-width: 0.8"/>
      </g>
     </g>
     <g id="text_1">
      <!-- 0.0 -->
      <g transform="translate(80.61556 357.477813) scale(0.14 -0.14)">
       <defs>
        <path id="DejaVuSans-30" d="M 2034 4250 
Q 1547 4250 1301 3770 
Q 1056 3291 1056 2328 
Q 1056 1369 1301 889 
Q 1547 409 2034 409 
Q 2525 409 2770 889 
Q 3016 1369 3016 2328 
Q 3016 3291 2770 3770 
Q 2525 4250 2034 4250 
z
M 2034 4750 
Q 2819 4750 3233 4129 
Q 3647 3509 3647 2328 
Q 3647 1150 3233 529 
Q 2819 -91 2034 -91 
Q 1250 -91 836 529 
Q 422 1150 422 2328 
Q 422 3509 836 4129 
Q 1250 4750 2034 4750 
z
" transform="scale(0.015625)"/>
        <path id="DejaVuSans-2e" d="M 684 794 
L 1344 794 
L 1344 0 
L 684 0 
L 684 794 
z
" transform="scale(0.015625)"/>
       </defs>
       <use xlink:href="#DejaVuSans-30"/>
       <use xlink:href="#DejaVuSans-2e" x="63.623047"/>
       <use xlink:href="#DejaVuSans-30" x="95.410156"/>
      </g>
     </g>
    </g>
    <g id="xtick_2">
     <g id="line2d_2">
      <g>
       <use xlink:href="#m5284c0bcc4" x="194.921862" y="339.84" style="stroke: #000000; stroke-width: 0.8"/>
      </g>
     </g>
     <g id="text_2">
      <!-- 0.5 -->
      <g transform="translate(183.789674 357.477813) scale(0.14 -0.14)">
       <defs>
        <path id="DejaVuSans-35" d="M 691 4666 
L 3169 4666 
L 3169 4134 
L 1269 4134 
L 1269 2991 
Q 1406 3038 1543 3061 
Q 1681 3084 1819 3084 
Q 2600 3084 3056 2656 
Q 3513 2228 3513 1497 
Q 3513 744 3044 326 
Q 2575 -91 1722 -91 
Q 1428 -91 1123 -41 
Q 819 9 494 109 
L 494 744 
Q 775 591 1075 516 
Q 1375 441 1709 441 
Q 2250 441 2565 725 
Q 2881 1009 2881 1497 
Q 2881 1984 2565 2268 
Q 2250 2553 1709 2553 
Q 1456 2553 1204 2497 
Q 953 2441 691 2322 
L 691 4666 
z
" transform="scale(0.015625)"/>
       </defs>
       <use xlink:href="#DejaVuSans-30"/>
       <use xlink:href="#DejaVuSans-2e" x="63.623047"/>
       <use xlink:href="#DejaVuSans-35" x="95.410156"/>
      </g>
     </g>
    </g>
    <g id="xtick_3">
     <g id="line2d_3">
      <g>
       <use xlink:href="#m5284c0bcc4" x="298.095976" y="339.84" style="stroke: #000000; stroke-width: 0.8"/>
      </g>
     </g>
     <g id="text_3">
      <!-- 1.0 -->
      <g transform="translate(286.963788 357.477813) scale(0.14 -0.14)">
       <defs>
        <path id="DejaVuSans-31" d="M 794 531 
L 1825 531 
L 1825 4091 
L 703 3866 
L 703 4441 
L 1819 4666 
L 2450 4666 
L 2450 531 
L 3481 531 
L 3481 0 
L 794 0 
L 794 531 
z
" transform="scale(0.015625)"/>
       </defs>
       <use xlink:href="#DejaVuSans-31"/>
       <use xlink:href="#DejaVuSans-2e" x="63.623047"/>
       <use xlink:href="#DejaVuSans-30" x="95.410156"/>
      </g>
     </g>
    </g>
    <g id="xtick_4">
     <g id="line2d_4">
      <g>
       <use xlink:href="#m5284c0bcc4" x="401.27009" y="339.84" style="stroke: #000000; stroke-width: 0.8"/>
      </g>
     </g>
     <g id="text_4">
      <!-- 1.5 -->
      <g transform="translate(390.137902 357.477813) scale(0.14 -0.14)">
       <use xlink:href="#DejaVuSans-31"/>
       <use xlink:href="#DejaVuSans-2e" x="63.623047"/>
       <use xlink:href="#DejaVuSans-35" x="95.410156"/>
      </g>
     </g>
    </g>
    <g id="xtick_5">
     <g id="line2d_5">
      <g>
       <use xlink:href="#m5284c0bcc4" x="504.444204" y="339.84" style="stroke: #000000; stroke-width: 0.8"/>
      </g>
     </g>
     <g id="text_5">
      <!-- 2.0 -->
      <g transform="translate(493.312016 357.477813) scale(0.14 -0.14)">
       <defs>
        <path id="DejaVuSans-32" d="M 1228 531 
L 3431 531 
L 3431 0 
L 469 0 
L 469 531 
Q 828 903 1448 1529 
Q 2069 2156 2228 2338 
Q 2531 2678 2651 2914 
Q 2772 3150 2772 3378 
Q 2772 3750 2511 3984 
Q 2250 4219 1831 4219 
Q 1534 4219 1204 4116 
Q 875 4013 500 3803 
L 500 4441 
Q 881 4594 1212 4672 
Q 1544 4750 1819 4750 
Q 2544 4750 2975 4387 
Q 3406 4025 3406 3419 
Q 3406 3131 3298 2873 
Q 3191 2616 2906 2266 
Q 2828 2175 2409 1742 
Q 1991 1309 1228 531 
z
" transform="scale(0.015625)"/>
       </defs>
       <use xlink:href="#DejaVuSans-32"/>
       <use xlink:href="#DejaVuSans-2e" x="63.623047"/>
       <use xlink:href="#DejaVuSans-30" x="95.410156"/>
      </g>
     </g>
    </g>
    <g id="xtick_6">
     <g id="line2d_6">
      <g>
       <use xlink:href="#m5284c0bcc4" x="607.618318" y="339.84" style="stroke: #000000; stroke-width: 0.8"/>
      </g>
     </g>
     <g id="text_6">
      <!-- 2.5 -->
      <g transform="translate(596.48613 357.477813) scale(0.14 -0.14)">
       <use xlink:href="#DejaVuSans-32"/>
       <use xlink:href="#DejaVuSans-2e" x="63.623047"/>
       <use xlink:href="#DejaVuSans-35" x="95.410156"/>
      </g>
     </g>
    </g>
    <g id="xtick_7">
     <g id="line2d_7">
      <g>
       <use xlink:href="#m5284c0bcc4" x="710.792432" y="339.84" style="stroke: #000000; stroke-width: 0.8"/>
      </g>
     </g>
     <g id="text_7">
      <!-- 3.0 -->
      <g transform="translate(699.660244 357.477813) scale(0.14 -0.14)">
       <defs>
        <path id="DejaVuSans-33" d="M 2597 2516 
Q 3050 2419 3304 2112 
Q 3559 1806 3559 1356 
Q 3559 666 3084 287 
Q 2609 -91 1734 -91 
Q 1441 -91 1130 -33 
Q 819 25 488 141 
L 488 750 
Q 750 597 1062 519 
Q 1375 441 1716 441 
Q 2309 441 2620 675 
Q 2931 909 2931 1356 
Q 2931 1769 2642 2001 
Q 2353 2234 1838 2234 
L 1294 2234 
L 1294 2753 
L 1863 2753 
Q 2328 2753 2575 2939 
Q 2822 3125 2822 3475 
Q 2822 3834 2567 4026 
Q 2313 4219 1838 4219 
Q 1578 4219 1281 4162 
Q 984 4106 628 3988 
L 628 4550 
Q 988 4650 1302 4700 
Q 1616 4750 1894 4750 
Q 2613 4750 3031 4423 
Q 3450 4097 3450 3541 
Q 3450 3153 3228 2886 
Q 3006 2619 2597 2516 
z
" transform="scale(0.015625)"/>
       </defs>
       <use xlink:href="#DejaVuSans-33"/>
       <use xlink:href="#DejaVuSans-2e" x="63.623047"/>
       <use xlink:href="#DejaVuSans-30" x="95.410156"/>
      </g>
     </g>
    </g>
    <g id="text_8">
     <!-- Chromosome Position -->
     <g transform="translate(299.481875 378.066563) scale(0.18 -0.18)">
      <defs>
       <path id="DejaVuSans-43" d="M 4122 4306 
L 4122 3641 
Q 3803 3938 3442 4084 
Q 3081 4231 2675 4231 
Q 1875 4231 1450 3742 
Q 1025 3253 1025 2328 
Q 1025 1406 1450 917 
Q 1875 428 2675 428 
Q 3081 428 3442 575 
Q 3803 722 4122 1019 
L 4122 359 
Q 3791 134 3420 21 
Q 3050 -91 2638 -91 
Q 1578 -91 968 557 
Q 359 1206 359 2328 
Q 359 3453 968 4101 
Q 1578 4750 2638 4750 
Q 3056 4750 3426 4639 
Q 3797 4528 4122 4306 
z
" transform="scale(0.015625)"/>
       <path id="DejaVuSans-68" d="M 3513 2113 
L 3513 0 
L 2938 0 
L 2938 2094 
Q 2938 2591 2744 2837 
Q 2550 3084 2163 3084 
Q 1697 3084 1428 2787 
Q 1159 2491 1159 1978 
L 1159 0 
L 581 0 
L 581 4863 
L 1159 4863 
L 1159 2956 
Q 1366 3272 1645 3428 
Q 1925 3584 2291 3584 
Q 2894 3584 3203 3211 
Q 3513 2838 3513 2113 
z
" transform="scale(0.015625)"/>
       <path id="DejaVuSans-72" d="M 2631 2963 
Q 2534 3019 2420 3045 
Q 2306 3072 2169 3072 
Q 1681 3072 1420 2755 
Q 1159 2438 1159 1844 
L 1159 0 
L 581 0 
L 581 3500 
L 1159 3500 
L 1159 2956 
Q 1341 3275 1631 3429 
Q 1922 3584 2338 3584 
Q 2397 3584 2469 3576 
Q 2541 3569 2628 3553 
L 2631 2963 
z
" transform="scale(0.015625)"/>
       <path id="DejaVuSans-6f" d="M 1959 3097 
Q 1497 3097 1228 2736 
Q 959 2375 959 1747 
Q 959 1119 1226 758 
Q 1494 397 1959 397 
Q 2419 397 2687 759 
Q 2956 1122 2956 1747 
Q 2956 2369 2687 2733 
Q 2419 3097 1959 3097 
z
M 1959 3584 
Q 2709 3584 3137 3096 
Q 3566 2609 3566 1747 
Q 3566 888 3137 398 
Q 2709 -91 1959 -91 
Q 1206 -91 779 398 
Q 353 888 353 1747 
Q 353 2609 779 3096 
Q 1206 3584 1959 3584 
z
" transform="scale(0.015625)"/>
       <path id="DejaVuSans-6d" d="M 3328 2828 
Q 3544 3216 3844 3400 
Q 4144 3584 4550 3584 
Q 5097 3584 5394 3201 
Q 5691 2819 5691 2113 
L 5691 0 
L 5113 0 
L 5113 2094 
Q 5113 2597 4934 2840 
Q 4756 3084 4391 3084 
Q 3944 3084 3684 2787 
Q 3425 2491 3425 1978 
L 3425 0 
L 2847 0 
L 2847 2094 
Q 2847 2600 2669 2842 
Q 2491 3084 2119 3084 
Q 1678 3084 1418 2786 
Q 1159 2488 1159 1978 
L 1159 0 
L 581 0 
L 581 3500 
L 1159 3500 
L 1159 2956 
Q 1356 3278 1631 3431 
Q 1906 3584 2284 3584 
Q 2666 3584 2933 3390 
Q 3200 3197 3328 2828 
z
" transform="scale(0.015625)"/>
       <path id="DejaVuSans-73" d="M 2834 3397 
L 2834 2853 
Q 2591 2978 2328 3040 
Q 2066 3103 1784 3103 
Q 1356 3103 1142 2972 
Q 928 2841 928 2578 
Q 928 2378 1081 2264 
Q 1234 2150 1697 2047 
L 1894 2003 
Q 2506 1872 2764 1633 
Q 3022 1394 3022 966 
Q 3022 478 2636 193 
Q 2250 -91 1575 -91 
Q 1294 -91 989 -36 
Q 684 19 347 128 
L 347 722 
Q 666 556 975 473 
Q 1284 391 1588 391 
Q 1994 391 2212 530 
Q 2431 669 2431 922 
Q 2431 1156 2273 1281 
Q 2116 1406 1581 1522 
L 1381 1569 
Q 847 1681 609 1914 
Q 372 2147 372 2553 
Q 372 3047 722 3315 
Q 1072 3584 1716 3584 
Q 2034 3584 2315 3537 
Q 2597 3491 2834 3397 
z
" transform="scale(0.015625)"/>
       <path id="DejaVuSans-65" d="M 3597 1894 
L 3597 1613 
L 953 1613 
Q 991 1019 1311 708 
Q 1631 397 2203 397 
Q 2534 397 2845 478 
Q 3156 559 3463 722 
L 3463 178 
Q 3153 47 2828 -22 
Q 2503 -91 2169 -91 
Q 1331 -91 842 396 
Q 353 884 353 1716 
Q 353 2575 817 3079 
Q 1281 3584 2069 3584 
Q 2775 3584 3186 3129 
Q 3597 2675 3597 1894 
z
M 3022 2063 
Q 3016 2534 2758 2815 
Q 2500 3097 2075 3097 
Q 1594 3097 1305 2825 
Q 1016 2553 972 2059 
L 3022 2063 
z
" transform="scale(0.015625)"/>
       <path id="DejaVuSans-20" transform="scale(0.015625)"/>
       <path id="DejaVuSans-50" d="M 1259 4147 
L 1259 2394 
L 2053 2394 
Q 2494 2394 2734 2622 
Q 2975 2850 2975 3272 
Q 2975 3691 2734 3919 
Q 2494 4147 2053 4147 
L 1259 4147 
z
M 628 4666 
L 2053 4666 
Q 2838 4666 3239 4311 
Q 3641 3956 3641 3272 
Q 3641 2581 3239 2228 
Q 2838 1875 2053 1875 
L 1259 1875 
L 1259 0 
L 628 0 
L 628 4666 
z
" transform="scale(0.015625)"/>
       <path id="DejaVuSans-69" d="M 603 3500 
L 1178 3500 
L 1178 0 
L 603 0 
L 603 3500 
z
M 603 4863 
L 1178 4863 
L 1178 4134 
L 603 4134 
L 603 4863 
z
" transform="scale(0.015625)"/>
       <path id="DejaVuSans-74" d="M 1172 4494 
L 1172 3500 
L 2356 3500 
L 2356 3053 
L 1172 3053 
L 1172 1153 
Q 1172 725 1289 603 
Q 1406 481 1766 481 
L 2356 481 
L 2356 0 
L 1766 0 
Q 1100 0 847 248 
Q 594 497 594 1153 
L 594 3053 
L 172 3053 
L 172 3500 
L 594 3500 
L 594 4494 
L 1172 4494 
z
" transform="scale(0.015625)"/>
       <path id="DejaVuSans-6e" d="M 3513 2113 
L 3513 0 
L 2938 0 
L 2938 2094 
Q 2938 2591 2744 2837 
Q 2550 3084 2163 3084 
Q 1697 3084 1428 2787 
Q 1159 2491 1159 1978 
L 1159 0 
L 581 0 
L 581 3500 
L 1159 3500 
L 1159 2956 
Q 1366 3272 1645 3428 
Q 1925 3584 2291 3584 
Q 2894 3584 3203 3211 
Q 3513 2838 3513 2113 
z
" transform="scale(0.015625)"/>
      </defs>
      <use xlink:href="#DejaVuSans-43"/>
      <use xlink:href="#DejaVuSans-68" x="69.824219"/>
      <use xlink:href="#DejaVuSans-72" x="133.203125"/>
      <use xlink:href="#DejaVuSans-6f" x="172.066406"/>
      <use xlink:href="#DejaVuSans-6d" x="233.248047"/>
      <use xlink:href="#DejaVuSans-6f" x="330.660156"/>
      <use xlink:href="#DejaVuSans-73" x="391.841797"/>
      <use xlink:href="#DejaVuSans-6f" x="443.941406"/>
      <use xlink:href="#DejaVuSans-6d" x="505.123047"/>
      <use xlink:href="#DejaVuSans-65" x="602.535156"/>
      <use xlink:href="#DejaVuSans-20" x="664.058594"/>
      <use xlink:href="#DejaVuSans-50" x="695.845703"/>
      <use xlink:href="#DejaVuSans-6f" x="752.523438"/>
      <use xlink:href="#DejaVuSans-73" x="813.705078"/>
      <use xlink:href="#DejaVuSans-69" x="865.804688"/>
      <use xlink:href="#DejaVuSans-74" x="893.587891"/>
      <use xlink:href="#DejaVuSans-69" x="932.796875"/>
      <use xlink:href="#DejaVuSans-6f" x="960.580078"/>
      <use xlink:href="#DejaVuSans-6e" x="1021.761719"/>
     </g>
    </g>
    <g id="text_9">
     <!-- 1e6 -->
     <g transform="translate(713.065 370.987813) scale(0.1 -0.1)">
      <defs>
       <path id="DejaVuSans-36" d="M 2113 2584 
Q 1688 2584 1439 2293 
Q 1191 2003 1191 1497 
Q 1191 994 1439 701 
Q 1688 409 2113 409 
Q 2538 409 2786 701 
Q 3034 994 3034 1497 
Q 3034 2003 2786 2293 
Q 2538 2584 2113 2584 
z
M 3366 4563 
L 3366 3988 
Q 3128 4100 2886 4159 
Q 2644 4219 2406 4219 
Q 1781 4219 1451 3797 
Q 1122 3375 1075 2522 
Q 1259 2794 1537 2939 
Q 1816 3084 2150 3084 
Q 2853 3084 3261 2657 
Q 3669 2231 3669 1497 
Q 3669 778 3244 343 
Q 2819 -91 2113 -91 
Q 1303 -91 875 529 
Q 447 1150 447 2328 
Q 447 3434 972 4092 
Q 1497 4750 2381 4750 
Q 2619 4750 2861 4703 
Q 3103 4656 3366 4563 
z
" transform="scale(0.015625)"/>
      </defs>
      <use xlink:href="#DejaVuSans-31"/>
      <use xlink:href="#DejaVuSans-65" x="63.623047"/>
      <use xlink:href="#DejaVuSans-36" x="125.146484"/>
     </g>
    </g>
   </g>
   <g id="matplotlib.axis_2">
    <g id="ytick_1">
     <g id="line2d_8">
      <defs>
       <path id="mad845f94c3" d="M 0 0 
L -3.5 0 
" style="stroke: #000000; stroke-width: 0.8"/>
      </defs>
      <g>
       <use xlink:href="#mad845f94c3" x="62.343125" y="339.84" style="stroke: #000000; stroke-width: 0.8"/>
      </g>
     </g>
     <g id="text_10">
      <!-- 0 -->
      <g transform="translate(46.435625 345.158906) scale(0.14 -0.14)">
       <use xlink:href="#DejaVuSans-30"/>
      </g>
     </g>
    </g>
    <g id="ytick_2">
     <g id="line2d_9">
      <g>
       <use xlink:href="#mad845f94c3" x="62.343125" y="300.519457" style="stroke: #000000; stroke-width: 0.8"/>
      </g>
     </g>
     <g id="text_11">
      <!-- 25 -->
      <g transform="translate(37.528125 305.838363) scale(0.14 -0.14)">
       <use xlink:href="#DejaVuSans-32"/>
       <use xlink:href="#DejaVuSans-35" x="63.623047"/>
      </g>
     </g>
    </g>
    <g id="ytick_3">
     <g id="line2d_10">
      <g>
       <use xlink:href="#mad845f94c3" x="62.343125" y="261.198913" style="stroke: #000000; stroke-width: 0.8"/>
      </g>
     </g>
     <g id="text_12">
      <!-- 50 -->
      <g transform="translate(37.528125 266.51782) scale(0.14 -0.14)">
       <use xlink:href="#DejaVuSans-35"/>
       <use xlink:href="#DejaVuSans-30" x="63.623047"/>
      </g>
     </g>
    </g>
    <g id="ytick_4">
     <g id="line2d_11">
      <g>
       <use xlink:href="#mad845f94c3" x="62.343125" y="221.87837" style="stroke: #000000; stroke-width: 0.8"/>
      </g>
     </g>
     <g id="text_13">
      <!-- 75 -->
      <g transform="translate(37.528125 227.197276) scale(0.14 -0.14)">
       <defs>
        <path id="DejaVuSans-37" d="M 525 4666 
L 3525 4666 
L 3525 4397 
L 1831 0 
L 1172 0 
L 2766 4134 
L 525 4134 
L 525 4666 
z
" transform="scale(0.015625)"/>
       </defs>
       <use xlink:href="#DejaVuSans-37"/>
       <use xlink:href="#DejaVuSans-35" x="63.623047"/>
      </g>
     </g>
    </g>
    <g id="ytick_5">
     <g id="line2d_12">
      <g>
       <use xlink:href="#mad845f94c3" x="62.343125" y="182.557827" style="stroke: #000000; stroke-width: 0.8"/>
      </g>
     </g>
     <g id="text_14">
      <!-- 100 -->
      <g transform="translate(28.620625 187.876733) scale(0.14 -0.14)">
       <use xlink:href="#DejaVuSans-31"/>
       <use xlink:href="#DejaVuSans-30" x="63.623047"/>
       <use xlink:href="#DejaVuSans-30" x="127.246094"/>
      </g>
     </g>
    </g>
    <g id="ytick_6">
     <g id="line2d_13">
      <g>
       <use xlink:href="#mad845f94c3" x="62.343125" y="143.237284" style="stroke: #000000; stroke-width: 0.8"/>
      </g>
     </g>
     <g id="text_15">
      <!-- 125 -->
      <g transform="translate(28.620625 148.55619) scale(0.14 -0.14)">
       <use xlink:href="#DejaVuSans-31"/>
       <use xlink:href="#DejaVuSans-32" x="63.623047"/>
       <use xlink:href="#DejaVuSans-35" x="127.246094"/>
      </g>
     </g>
    </g>
    <g id="ytick_7">
     <g id="line2d_14">
      <g>
       <use xlink:href="#mad845f94c3" x="62.343125" y="103.91674" style="stroke: #000000; stroke-width: 0.8"/>
      </g>
     </g>
     <g id="text_16">
      <!-- 150 -->
      <g transform="translate(28.620625 109.235647) scale(0.14 -0.14)">
       <use xlink:href="#DejaVuSans-31"/>
       <use xlink:href="#DejaVuSans-35" x="63.623047"/>
       <use xlink:href="#DejaVuSans-30" x="127.246094"/>
      </g>
     </g>
    </g>
    <g id="ytick_8">
     <g id="line2d_15">
      <g>
       <use xlink:href="#mad845f94c3" x="62.343125" y="64.596197" style="stroke: #000000; stroke-width: 0.8"/>
      </g>
     </g>
     <g id="text_17">
      <!-- 175 -->
      <g transform="translate(28.620625 69.915103) scale(0.14 -0.14)">
       <use xlink:href="#DejaVuSans-31"/>
       <use xlink:href="#DejaVuSans-37" x="63.623047"/>
       <use xlink:href="#DejaVuSans-35" x="127.246094"/>
      </g>
     </g>
    </g>
    <g id="ytick_9">
     <g id="line2d_16">
      <g>
       <use xlink:href="#mad845f94c3" x="62.343125" y="25.275654" style="stroke: #000000; stroke-width: 0.8"/>
      </g>
     </g>
     <g id="text_18">
      <!-- 200 -->
      <g transform="translate(28.620625 30.59456) scale(0.14 -0.14)">
       <use xlink:href="#DejaVuSans-32"/>
       <use xlink:href="#DejaVuSans-30" x="63.623047"/>
       <use xlink:href="#DejaVuSans-30" x="127.246094"/>
      </g>
     </g>
    </g>
    <g id="text_19">
     <!-- Mean of Reduced Reads Lengths -->
     <g transform="translate(20.877187 320.198906) rotate(-90) scale(0.18 -0.18)">
      <defs>
       <path id="DejaVuSans-4d" d="M 628 4666 
L 1569 4666 
L 2759 1491 
L 3956 4666 
L 4897 4666 
L 4897 0 
L 4281 0 
L 4281 4097 
L 3078 897 
L 2444 897 
L 1241 4097 
L 1241 0 
L 628 0 
L 628 4666 
z
" transform="scale(0.015625)"/>
       <path id="DejaVuSans-61" d="M 2194 1759 
Q 1497 1759 1228 1600 
Q 959 1441 959 1056 
Q 959 750 1161 570 
Q 1363 391 1709 391 
Q 2188 391 2477 730 
Q 2766 1069 2766 1631 
L 2766 1759 
L 2194 1759 
z
M 3341 1997 
L 3341 0 
L 2766 0 
L 2766 531 
Q 2569 213 2275 61 
Q 1981 -91 1556 -91 
Q 1019 -91 701 211 
Q 384 513 384 1019 
Q 384 1609 779 1909 
Q 1175 2209 1959 2209 
L 2766 2209 
L 2766 2266 
Q 2766 2663 2505 2880 
Q 2244 3097 1772 3097 
Q 1472 3097 1187 3025 
Q 903 2953 641 2809 
L 641 3341 
Q 956 3463 1253 3523 
Q 1550 3584 1831 3584 
Q 2591 3584 2966 3190 
Q 3341 2797 3341 1997 
z
" transform="scale(0.015625)"/>
       <path id="DejaVuSans-66" d="M 2375 4863 
L 2375 4384 
L 1825 4384 
Q 1516 4384 1395 4259 
Q 1275 4134 1275 3809 
L 1275 3500 
L 2222 3500 
L 2222 3053 
L 1275 3053 
L 1275 0 
L 697 0 
L 697 3053 
L 147 3053 
L 147 3500 
L 697 3500 
L 697 3744 
Q 697 4328 969 4595 
Q 1241 4863 1831 4863 
L 2375 4863 
z
" transform="scale(0.015625)"/>
       <path id="DejaVuSans-52" d="M 2841 2188 
Q 3044 2119 3236 1894 
Q 3428 1669 3622 1275 
L 4263 0 
L 3584 0 
L 2988 1197 
Q 2756 1666 2539 1819 
Q 2322 1972 1947 1972 
L 1259 1972 
L 1259 0 
L 628 0 
L 628 4666 
L 2053 4666 
Q 2853 4666 3247 4331 
Q 3641 3997 3641 3322 
Q 3641 2881 3436 2590 
Q 3231 2300 2841 2188 
z
M 1259 4147 
L 1259 2491 
L 2053 2491 
Q 2509 2491 2742 2702 
Q 2975 2913 2975 3322 
Q 2975 3731 2742 3939 
Q 2509 4147 2053 4147 
L 1259 4147 
z
" transform="scale(0.015625)"/>
       <path id="DejaVuSans-64" d="M 2906 2969 
L 2906 4863 
L 3481 4863 
L 3481 0 
L 2906 0 
L 2906 525 
Q 2725 213 2448 61 
Q 2172 -91 1784 -91 
Q 1150 -91 751 415 
Q 353 922 353 1747 
Q 353 2572 751 3078 
Q 1150 3584 1784 3584 
Q 2172 3584 2448 3432 
Q 2725 3281 2906 2969 
z
M 947 1747 
Q 947 1113 1208 752 
Q 1469 391 1925 391 
Q 2381 391 2643 752 
Q 2906 1113 2906 1747 
Q 2906 2381 2643 2742 
Q 2381 3103 1925 3103 
Q 1469 3103 1208 2742 
Q 947 2381 947 1747 
z
" transform="scale(0.015625)"/>
       <path id="DejaVuSans-75" d="M 544 1381 
L 544 3500 
L 1119 3500 
L 1119 1403 
Q 1119 906 1312 657 
Q 1506 409 1894 409 
Q 2359 409 2629 706 
Q 2900 1003 2900 1516 
L 2900 3500 
L 3475 3500 
L 3475 0 
L 2900 0 
L 2900 538 
Q 2691 219 2414 64 
Q 2138 -91 1772 -91 
Q 1169 -91 856 284 
Q 544 659 544 1381 
z
M 1991 3584 
L 1991 3584 
z
" transform="scale(0.015625)"/>
       <path id="DejaVuSans-63" d="M 3122 3366 
L 3122 2828 
Q 2878 2963 2633 3030 
Q 2388 3097 2138 3097 
Q 1578 3097 1268 2742 
Q 959 2388 959 1747 
Q 959 1106 1268 751 
Q 1578 397 2138 397 
Q 2388 397 2633 464 
Q 2878 531 3122 666 
L 3122 134 
Q 2881 22 2623 -34 
Q 2366 -91 2075 -91 
Q 1284 -91 818 406 
Q 353 903 353 1747 
Q 353 2603 823 3093 
Q 1294 3584 2113 3584 
Q 2378 3584 2631 3529 
Q 2884 3475 3122 3366 
z
" transform="scale(0.015625)"/>
       <path id="DejaVuSans-4c" d="M 628 4666 
L 1259 4666 
L 1259 531 
L 3531 531 
L 3531 0 
L 628 0 
L 628 4666 
z
" transform="scale(0.015625)"/>
       <path id="DejaVuSans-67" d="M 2906 1791 
Q 2906 2416 2648 2759 
Q 2391 3103 1925 3103 
Q 1463 3103 1205 2759 
Q 947 2416 947 1791 
Q 947 1169 1205 825 
Q 1463 481 1925 481 
Q 2391 481 2648 825 
Q 2906 1169 2906 1791 
z
M 3481 434 
Q 3481 -459 3084 -895 
Q 2688 -1331 1869 -1331 
Q 1566 -1331 1297 -1286 
Q 1028 -1241 775 -1147 
L 775 -588 
Q 1028 -725 1275 -790 
Q 1522 -856 1778 -856 
Q 2344 -856 2625 -561 
Q 2906 -266 2906 331 
L 2906 616 
Q 2728 306 2450 153 
Q 2172 0 1784 0 
Q 1141 0 747 490 
Q 353 981 353 1791 
Q 353 2603 747 3093 
Q 1141 3584 1784 3584 
Q 2172 3584 2450 3431 
Q 2728 3278 2906 2969 
L 2906 3500 
L 3481 3500 
L 3481 434 
z
" transform="scale(0.015625)"/>
      </defs>
      <use xlink:href="#DejaVuSans-4d"/>
      <use xlink:href="#DejaVuSans-65" x="86.279297"/>
      <use xlink:href="#DejaVuSans-61" x="147.802734"/>
      <use xlink:href="#DejaVuSans-6e" x="209.082031"/>
      <use xlink:href="#DejaVuSans-20" x="272.460938"/>
      <use xlink:href="#DejaVuSans-6f" x="304.248047"/>
      <use xlink:href="#DejaVuSans-66" x="365.429688"/>
      <use xlink:href="#DejaVuSans-20" x="400.634766"/>
      <use xlink:href="#DejaVuSans-52" x="432.421875"/>
      <use xlink:href="#DejaVuSans-65" x="497.404297"/>
      <use xlink:href="#DejaVuSans-64" x="558.927734"/>
      <use xlink:href="#DejaVuSans-75" x="622.404297"/>
      <use xlink:href="#DejaVuSans-63" x="685.783203"/>
      <use xlink:href="#DejaVuSans-65" x="740.763672"/>
      <use xlink:href="#DejaVuSans-64" x="802.287109"/>
      <use xlink:href="#DejaVuSans-20" x="865.763672"/>
      <use xlink:href="#DejaVuSans-52" x="897.550781"/>
      <use xlink:href="#DejaVuSans-65" x="962.533203"/>
      <use xlink:href="#DejaVuSans-61" x="1024.056641"/>
      <use xlink:href="#DejaVuSans-64" x="1085.335938"/>
      <use xlink:href="#DejaVuSans-73" x="1148.8125"/>
      <use xlink:href="#DejaVuSans-20" x="1200.912109"/>
      <use xlink:href="#DejaVuSans-4c" x="1232.699219"/>
      <use xlink:href="#DejaVuSans-65" x="1286.662109"/>
      <use xlink:href="#DejaVuSans-6e" x="1348.185547"/>
      <use xlink:href="#DejaVuSans-67" x="1411.564453"/>
      <use xlink:href="#DejaVuSans-74" x="1475.041016"/>
      <use xlink:href="#DejaVuSans-68" x="1514.25"/>
      <use xlink:href="#DejaVuSans-73" x="1577.628906"/>
     </g>
    </g>
   </g>
   <g id="patch_298">
    <path d="M 62.343125 339.84 
L 62.343125 7.2 
" style="fill: none; stroke: #000000; stroke-width: 0.8; stroke-linejoin: miter; stroke-linecap: square"/>
   </g>
   <g id="patch_299">
    <path d="M 731.943125 339.84 
L 731.943125 7.2 
" style="fill: none; stroke: #000000; stroke-width: 0.8; stroke-linejoin: miter; stroke-linecap: square"/>
   </g>
   <g id="patch_300">
    <path d="M 62.343125 339.84 
L 731.943125 339.84 
" style="fill: none; stroke: #000000; stroke-width: 0.8; stroke-linejoin: miter; stroke-linecap: square"/>
   </g>
   <g id="patch_301">
    <path d="M 62.343125 7.2 
L 731.943125 7.2 
" style="fill: none; stroke: #000000; stroke-width: 0.8; stroke-linejoin: miter; stroke-linecap: square"/>
   </g>
  </g>
 </g>
 <defs>
  <clipPath id="p4564186365">
   <rect x="62.343125" y="7.2" width="669.6" height="332.64"/>
  </clipPath>
 </defs>
</svg>
