<?xml version="1.0" encoding="utf-8" standalone="no"?>
<!DOCTYPE svg PUBLIC "-//W3C//DTD SVG 1.1//EN"
  "http://www.w3.org/Graphics/SVG/1.1/DTD/svg11.dtd">
<svg xmlns:xlink="http://www.w3.org/1999/xlink" width="730.235625pt" height="389.01pt" viewBox="0 0 730.235625 389.01" xmlns="http://www.w3.org/2000/svg" version="1.1">
 <metadata>
  <rdf:RDF xmlns:dc="http://purl.org/dc/elements/1.1/" xmlns:cc="http://creativecommons.org/ns#" xmlns:rdf="http://www.w3.org/1999/02/22-rdf-syntax-ns#">
   <cc:Work>
    <dc:type rdf:resource="http://purl.org/dc/dcmitype/StillImage"/>
    <dc:date>2025-06-24T15:50:59.486717</dc:date>
    <dc:format>image/svg+xml</dc:format>
    <dc:creator>
     <cc:Agent>
      <dc:title>Matplotlib v3.7.3, https://matplotlib.org/</dc:title>
     </cc:Agent>
    </dc:creator>
   </cc:Work>
  </rdf:RDF>
 </metadata>
 <defs>
  <style type="text/css">*{stroke-linejoin: round; stroke-linecap: butt}</style>
 </defs>
 <g id="figure_1">
  <g id="patch_1">
   <path d="M 0 389.01 
L 730.235625 389.01 
L 730.235625 0 
L 0 0 
z
" style="fill: #ffffff"/>
  </g>
  <g id="axes_1">
   <g id="patch_2">
    <path d="M 53.435625 339.84 
L 723.035625 339.84 
L 723.035625 7.2 
L 53.435625 7.2 
z
" style="fill: #ffffff"/>
   </g>
   <g id="patch_3">
    <path d="M 83.871989 339.84 
L 88.220041 339.84 
L 88.220041 336.362026 
L 83.871989 336.362026 
z
" clip-path="url(#p2c485b3600)" style="fill: #1f77b4; stroke: #000000; stroke-linejoin: miter"/>
   </g>
   <g id="patch_4">
    <path d="M 88.220041 339.84 
L 92.568093 339.84 
L 92.568093 167.680263 
L 88.220041 167.680263 
z
" clip-path="url(#p2c485b3600)" style="fill: #1f77b4; stroke: #000000; stroke-linejoin: miter"/>
   </g>
   <g id="patch_5">
    <path d="M 92.568093 339.84 
L 96.916144 339.84 
L 96.916144 134.010158 
L 92.568093 134.010158 
z
" clip-path="url(#p2c485b3600)" style="fill: #1f77b4; stroke: #000000; stroke-linejoin: miter"/>
   </g>
   <g id="patch_6">
    <path d="M 96.916144 339.84 
L 101.264196 339.84 
L 101.264196 126.484255 
L 96.916144 126.484255 
z
" clip-path="url(#p2c485b3600)" style="fill: #1f77b4; stroke: #000000; stroke-linejoin: miter"/>
   </g>
   <g id="patch_7">
    <path d="M 101.264196 339.84 
L 105.612248 339.84 
L 105.612248 152.345558 
L 101.264196 152.345558 
z
" clip-path="url(#p2c485b3600)" style="fill: #1f77b4; stroke: #000000; stroke-linejoin: miter"/>
   </g>
   <g id="patch_8">
    <path d="M 105.612248 339.84 
L 109.9603 339.84 
L 109.9603 116.499891 
L 105.612248 116.499891 
z
" clip-path="url(#p2c485b3600)" style="fill: #1f77b4; stroke: #000000; stroke-linejoin: miter"/>
   </g>
   <g id="patch_9">
    <path d="M 109.9603 339.84 
L 114.308352 339.84 
L 114.308352 108.111426 
L 109.9603 108.111426 
z
" clip-path="url(#p2c485b3600)" style="fill: #1f77b4; stroke: #000000; stroke-linejoin: miter"/>
   </g>
   <g id="patch_10">
    <path d="M 114.308352 339.84 
L 118.656404 339.84 
L 118.656404 64.251927 
L 114.308352 64.251927 
z
" clip-path="url(#p2c485b3600)" style="fill: #1f77b4; stroke: #000000; stroke-linejoin: miter"/>
   </g>
   <g id="patch_11">
    <path d="M 118.656404 339.84 
L 123.004456 339.84 
L 123.004456 31.951108 
L 118.656404 31.951108 
z
" clip-path="url(#p2c485b3600)" style="fill: #1f77b4; stroke: #000000; stroke-linejoin: miter"/>
   </g>
   <g id="patch_12">
    <path d="M 123.004456 339.84 
L 127.352508 339.84 
L 127.352508 23.952968 
L 123.004456 23.952968 
z
" clip-path="url(#p2c485b3600)" style="fill: #1f77b4; stroke: #000000; stroke-linejoin: miter"/>
   </g>
   <g id="patch_13">
    <path d="M 127.352508 339.84 
L 131.70056 339.84 
L 131.70056 64.41511 
L 127.352508 64.41511 
z
" clip-path="url(#p2c485b3600)" style="fill: #1f77b4; stroke: #000000; stroke-linejoin: miter"/>
   </g>
   <g id="patch_14">
    <path d="M 131.70056 339.84 
L 136.048612 339.84 
L 136.048612 113.689243 
L 131.70056 113.689243 
z
" clip-path="url(#p2c485b3600)" style="fill: #1f77b4; stroke: #000000; stroke-linejoin: miter"/>
   </g>
   <g id="patch_15">
    <path d="M 136.048612 339.84 
L 140.396664 339.84 
L 140.396664 82.382939 
L 136.048612 82.382939 
z
" clip-path="url(#p2c485b3600)" style="fill: #1f77b4; stroke: #000000; stroke-linejoin: miter"/>
   </g>
   <g id="patch_16">
    <path d="M 140.396664 339.84 
L 144.744716 339.84 
L 144.744716 110.339649 
L 140.396664 110.339649 
z
" clip-path="url(#p2c485b3600)" style="fill: #1f77b4; stroke: #000000; stroke-linejoin: miter"/>
   </g>
   <g id="patch_17">
    <path d="M 144.744716 339.84 
L 149.092768 339.84 
L 149.092768 95.244757 
L 144.744716 95.244757 
z
" clip-path="url(#p2c485b3600)" style="fill: #1f77b4; stroke: #000000; stroke-linejoin: miter"/>
   </g>
   <g id="patch_18">
    <path d="M 149.092768 339.84 
L 153.44082 339.84 
L 153.44082 107.559835 
L 149.092768 107.559835 
z
" clip-path="url(#p2c485b3600)" style="fill: #1f77b4; stroke: #000000; stroke-linejoin: miter"/>
   </g>
   <g id="patch_19">
    <path d="M 153.44082 339.84 
L 157.788872 339.84 
L 157.788872 79.923515 
L 153.44082 79.923515 
z
" clip-path="url(#p2c485b3600)" style="fill: #1f77b4; stroke: #000000; stroke-linejoin: miter"/>
   </g>
   <g id="patch_20">
    <path d="M 157.788872 339.84 
L 162.136924 339.84 
L 162.136924 82.300232 
L 157.788872 82.300232 
z
" clip-path="url(#p2c485b3600)" style="fill: #1f77b4; stroke: #000000; stroke-linejoin: miter"/>
   </g>
   <g id="patch_21">
    <path d="M 162.136924 339.84 
L 166.484976 339.84 
L 166.484976 68.284613 
L 162.136924 68.284613 
z
" clip-path="url(#p2c485b3600)" style="fill: #1f77b4; stroke: #000000; stroke-linejoin: miter"/>
   </g>
   <g id="patch_22">
    <path d="M 166.484976 339.84 
L 170.833028 339.84 
L 170.833028 95.433248 
L 166.484976 95.433248 
z
" clip-path="url(#p2c485b3600)" style="fill: #1f77b4; stroke: #000000; stroke-linejoin: miter"/>
   </g>
   <g id="patch_23">
    <path d="M 170.833028 339.84 
L 175.18108 339.84 
L 175.18108 54.942993 
L 170.833028 54.942993 
z
" clip-path="url(#p2c485b3600)" style="fill: #1f77b4; stroke: #000000; stroke-linejoin: miter"/>
   </g>
   <g id="patch_24">
    <path d="M 175.18108 339.84 
L 179.529131 339.84 
L 179.529131 99.554676 
L 175.18108 99.554676 
z
" clip-path="url(#p2c485b3600)" style="fill: #1f77b4; stroke: #000000; stroke-linejoin: miter"/>
   </g>
   <g id="patch_25">
    <path d="M 179.529131 339.84 
L 183.877183 339.84 
L 183.877183 104.638442 
L 179.529131 104.638442 
z
" clip-path="url(#p2c485b3600)" style="fill: #1f77b4; stroke: #000000; stroke-linejoin: miter"/>
   </g>
   <g id="patch_26">
    <path d="M 183.877183 339.84 
L 188.225235 339.84 
L 188.225235 100.505159 
L 183.877183 100.505159 
z
" clip-path="url(#p2c485b3600)" style="fill: #1f77b4; stroke: #000000; stroke-linejoin: miter"/>
   </g>
   <g id="patch_27">
    <path d="M 188.225235 339.84 
L 192.573287 339.84 
L 192.573287 146.091373 
L 188.225235 146.091373 
z
" clip-path="url(#p2c485b3600)" style="fill: #1f77b4; stroke: #000000; stroke-linejoin: miter"/>
   </g>
   <g id="patch_28">
    <path d="M 192.573287 339.84 
L 196.921339 339.84 
L 196.921339 114.858526 
L 192.573287 114.858526 
z
" clip-path="url(#p2c485b3600)" style="fill: #1f77b4; stroke: #000000; stroke-linejoin: miter"/>
   </g>
   <g id="patch_29">
    <path d="M 196.921339 339.84 
L 201.269391 339.84 
L 201.269391 105.828717 
L 196.921339 105.828717 
z
" clip-path="url(#p2c485b3600)" style="fill: #1f77b4; stroke: #000000; stroke-linejoin: miter"/>
   </g>
   <g id="patch_30">
    <path d="M 201.269391 339.84 
L 205.617443 339.84 
L 205.617443 76.760214 
L 201.269391 76.760214 
z
" clip-path="url(#p2c485b3600)" style="fill: #1f77b4; stroke: #000000; stroke-linejoin: miter"/>
   </g>
   <g id="patch_31">
    <path d="M 205.617443 339.84 
L 209.965495 339.84 
L 209.965495 69.949181 
L 205.617443 69.949181 
z
" clip-path="url(#p2c485b3600)" style="fill: #1f77b4; stroke: #000000; stroke-linejoin: miter"/>
   </g>
   <g id="patch_32">
    <path d="M 209.965495 339.84 
L 214.313547 339.84 
L 214.313547 133.433434 
L 209.965495 133.433434 
z
" clip-path="url(#p2c485b3600)" style="fill: #1f77b4; stroke: #000000; stroke-linejoin: miter"/>
   </g>
   <g id="patch_33">
    <path d="M 214.313547 339.84 
L 218.661599 339.84 
L 218.661599 138.425266 
L 214.313547 138.425266 
z
" clip-path="url(#p2c485b3600)" style="fill: #1f77b4; stroke: #000000; stroke-linejoin: miter"/>
   </g>
   <g id="patch_34">
    <path d="M 218.661599 339.84 
L 223.009651 339.84 
L 223.009651 157.615216 
L 218.661599 157.615216 
z
" clip-path="url(#p2c485b3600)" style="fill: #1f77b4; stroke: #000000; stroke-linejoin: miter"/>
   </g>
   <g id="patch_35">
    <path d="M 223.009651 339.84 
L 227.357703 339.84 
L 227.357703 104.537037 
L 223.009651 104.537037 
z
" clip-path="url(#p2c485b3600)" style="fill: #1f77b4; stroke: #000000; stroke-linejoin: miter"/>
   </g>
   <g id="patch_36">
    <path d="M 227.357703 339.84 
L 231.705755 339.84 
L 231.705755 127.568583 
L 227.357703 127.568583 
z
" clip-path="url(#p2c485b3600)" style="fill: #1f77b4; stroke: #000000; stroke-linejoin: miter"/>
   </g>
   <g id="patch_37">
    <path d="M 231.705755 339.84 
L 236.053807 339.84 
L 236.053807 143.990126 
L 231.705755 143.990126 
z
" clip-path="url(#p2c485b3600)" style="fill: #1f77b4; stroke: #000000; stroke-linejoin: miter"/>
   </g>
   <g id="patch_38">
    <path d="M 236.053807 339.84 
L 240.401859 339.84 
L 240.401859 164.796626 
L 236.053807 164.796626 
z
" clip-path="url(#p2c485b3600)" style="fill: #1f77b4; stroke: #000000; stroke-linejoin: miter"/>
   </g>
   <g id="patch_39">
    <path d="M 240.401859 339.84 
L 244.749911 339.84 
L 244.749911 127.014716 
L 240.401859 127.014716 
z
" clip-path="url(#p2c485b3600)" style="fill: #1f77b4; stroke: #000000; stroke-linejoin: miter"/>
   </g>
   <g id="patch_40">
    <path d="M 244.749911 339.84 
L 249.097963 339.84 
L 249.097963 109.170031 
L 244.749911 109.170031 
z
" clip-path="url(#p2c485b3600)" style="fill: #1f77b4; stroke: #000000; stroke-linejoin: miter"/>
   </g>
   <g id="patch_41">
    <path d="M 249.097963 339.84 
L 253.446015 339.84 
L 253.446015 95.813954 
L 249.097963 95.813954 
z
" clip-path="url(#p2c485b3600)" style="fill: #1f77b4; stroke: #000000; stroke-linejoin: miter"/>
   </g>
   <g id="patch_42">
    <path d="M 253.446015 339.84 
L 257.794067 339.84 
L 257.794067 107.022031 
L 253.446015 107.022031 
z
" clip-path="url(#p2c485b3600)" style="fill: #1f77b4; stroke: #000000; stroke-linejoin: miter"/>
   </g>
   <g id="patch_43">
    <path d="M 257.794067 339.84 
L 262.142119 339.84 
L 262.142119 117.839121 
L 257.794067 117.839121 
z
" clip-path="url(#p2c485b3600)" style="fill: #1f77b4; stroke: #000000; stroke-linejoin: miter"/>
   </g>
   <g id="patch_44">
    <path d="M 262.142119 339.84 
L 266.49017 339.84 
L 266.49017 106.532619 
L 262.142119 106.532619 
z
" clip-path="url(#p2c485b3600)" style="fill: #1f77b4; stroke: #000000; stroke-linejoin: miter"/>
   </g>
   <g id="patch_45">
    <path d="M 266.49017 339.84 
L 270.838222 339.84 
L 270.838222 134.451507 
L 266.49017 134.451507 
z
" clip-path="url(#p2c485b3600)" style="fill: #1f77b4; stroke: #000000; stroke-linejoin: miter"/>
   </g>
   <g id="patch_46">
    <path d="M 270.838222 339.84 
L 275.186274 339.84 
L 275.186274 99.451999 
L 270.838222 99.451999 
z
" clip-path="url(#p2c485b3600)" style="fill: #1f77b4; stroke: #000000; stroke-linejoin: miter"/>
   </g>
   <g id="patch_47">
    <path d="M 275.186274 339.84 
L 279.534326 339.84 
L 279.534326 89.26022 
L 275.186274 89.26022 
z
" clip-path="url(#p2c485b3600)" style="fill: #1f77b4; stroke: #000000; stroke-linejoin: miter"/>
   </g>
   <g id="patch_48">
    <path d="M 279.534326 339.84 
L 283.882378 339.84 
L 283.882378 102.240518 
L 279.534326 102.240518 
z
" clip-path="url(#p2c485b3600)" style="fill: #1f77b4; stroke: #000000; stroke-linejoin: miter"/>
   </g>
   <g id="patch_49">
    <path d="M 283.882378 339.84 
L 288.23043 339.84 
L 288.23043 107.957199 
L 283.882378 107.957199 
z
" clip-path="url(#p2c485b3600)" style="fill: #1f77b4; stroke: #000000; stroke-linejoin: miter"/>
   </g>
   <g id="patch_50">
    <path d="M 288.23043 339.84 
L 292.578482 339.84 
L 292.578482 84.525929 
L 288.23043 84.525929 
z
" clip-path="url(#p2c485b3600)" style="fill: #1f77b4; stroke: #000000; stroke-linejoin: miter"/>
   </g>
   <g id="patch_51">
    <path d="M 292.578482 339.84 
L 296.926534 339.84 
L 296.926534 73.646139 
L 292.578482 73.646139 
z
" clip-path="url(#p2c485b3600)" style="fill: #1f77b4; stroke: #000000; stroke-linejoin: miter"/>
   </g>
   <g id="patch_52">
    <path d="M 296.926534 339.84 
L 301.274586 339.84 
L 301.274586 55.685488 
L 296.926534 55.685488 
z
" clip-path="url(#p2c485b3600)" style="fill: #1f77b4; stroke: #000000; stroke-linejoin: miter"/>
   </g>
   <g id="patch_53">
    <path d="M 301.274586 339.84 
L 305.622638 339.84 
L 305.622638 71.367124 
L 301.274586 71.367124 
z
" clip-path="url(#p2c485b3600)" style="fill: #1f77b4; stroke: #000000; stroke-linejoin: miter"/>
   </g>
   <g id="patch_54">
    <path d="M 305.622638 339.84 
L 309.97069 339.84 
L 309.97069 52.636208 
L 305.622638 52.636208 
z
" clip-path="url(#p2c485b3600)" style="fill: #1f77b4; stroke: #000000; stroke-linejoin: miter"/>
   </g>
   <g id="patch_55">
    <path d="M 309.97069 339.84 
L 314.318742 339.84 
L 314.318742 28.38014 
L 309.97069 28.38014 
z
" clip-path="url(#p2c485b3600)" style="fill: #1f77b4; stroke: #000000; stroke-linejoin: miter"/>
   </g>
   <g id="patch_56">
    <path d="M 314.318742 339.84 
L 318.666794 339.84 
L 318.666794 54.982034 
L 314.318742 54.982034 
z
" clip-path="url(#p2c485b3600)" style="fill: #1f77b4; stroke: #000000; stroke-linejoin: miter"/>
   </g>
   <g id="patch_57">
    <path d="M 318.666794 339.84 
L 323.014846 339.84 
L 323.014846 62.019399 
L 318.666794 62.019399 
z
" clip-path="url(#p2c485b3600)" style="fill: #1f77b4; stroke: #000000; stroke-linejoin: miter"/>
   </g>
   <g id="patch_58">
    <path d="M 323.014846 339.84 
L 327.362898 339.84 
L 327.362898 70.981354 
L 323.014846 70.981354 
z
" clip-path="url(#p2c485b3600)" style="fill: #1f77b4; stroke: #000000; stroke-linejoin: miter"/>
   </g>
   <g id="patch_59">
    <path d="M 327.362898 339.84 
L 331.71095 339.84 
L 331.71095 75.244097 
L 327.362898 75.244097 
z
" clip-path="url(#p2c485b3600)" style="fill: #1f77b4; stroke: #000000; stroke-linejoin: miter"/>
   </g>
   <g id="patch_60">
    <path d="M 331.71095 339.84 
L 336.059002 339.84 
L 336.059002 111.563901 
L 331.71095 111.563901 
z
" clip-path="url(#p2c485b3600)" style="fill: #1f77b4; stroke: #000000; stroke-linejoin: miter"/>
   </g>
   <g id="patch_61">
    <path d="M 336.059002 339.84 
L 340.407054 339.84 
L 340.407054 84.087551 
L 336.059002 84.087551 
z
" clip-path="url(#p2c485b3600)" style="fill: #1f77b4; stroke: #000000; stroke-linejoin: miter"/>
   </g>
   <g id="patch_62">
    <path d="M 340.407054 339.84 
L 344.755106 339.84 
L 344.755106 74.913326 
L 340.407054 74.913326 
z
" clip-path="url(#p2c485b3600)" style="fill: #1f77b4; stroke: #000000; stroke-linejoin: miter"/>
   </g>
   <g id="patch_63">
    <path d="M 344.755106 339.84 
L 349.103157 339.84 
L 349.103157 113.061868 
L 344.755106 113.061868 
z
" clip-path="url(#p2c485b3600)" style="fill: #1f77b4; stroke: #000000; stroke-linejoin: miter"/>
   </g>
   <g id="patch_64">
    <path d="M 349.103157 339.84 
L 353.451209 339.84 
L 353.451209 145.891776 
L 349.103157 145.891776 
z
" clip-path="url(#p2c485b3600)" style="fill: #1f77b4; stroke: #000000; stroke-linejoin: miter"/>
   </g>
   <g id="patch_65">
    <path d="M 353.451209 339.84 
L 357.799261 339.84 
L 357.799261 103.492805 
L 353.451209 103.492805 
z
" clip-path="url(#p2c485b3600)" style="fill: #1f77b4; stroke: #000000; stroke-linejoin: miter"/>
   </g>
   <g id="patch_66">
    <path d="M 357.799261 339.84 
L 362.147313 339.84 
L 362.147313 101.082322 
L 357.799261 101.082322 
z
" clip-path="url(#p2c485b3600)" style="fill: #1f77b4; stroke: #000000; stroke-linejoin: miter"/>
   </g>
   <g id="patch_67">
    <path d="M 362.147313 339.84 
L 366.495365 339.84 
L 366.495365 117.758605 
L 362.147313 117.758605 
z
" clip-path="url(#p2c485b3600)" style="fill: #1f77b4; stroke: #000000; stroke-linejoin: miter"/>
   </g>
   <g id="patch_68">
    <path d="M 366.495365 339.84 
L 370.843417 339.84 
L 370.843417 102.769552 
L 366.495365 102.769552 
z
" clip-path="url(#p2c485b3600)" style="fill: #1f77b4; stroke: #000000; stroke-linejoin: miter"/>
   </g>
   <g id="patch_69">
    <path d="M 370.843417 339.84 
L 375.191469 339.84 
L 375.191469 98.97553 
L 370.843417 98.97553 
z
" clip-path="url(#p2c485b3600)" style="fill: #1f77b4; stroke: #000000; stroke-linejoin: miter"/>
   </g>
   <g id="patch_70">
    <path d="M 375.191469 339.84 
L 379.539521 339.84 
L 379.539521 85.468143 
L 375.191469 85.468143 
z
" clip-path="url(#p2c485b3600)" style="fill: #1f77b4; stroke: #000000; stroke-linejoin: miter"/>
   </g>
   <g id="patch_71">
    <path d="M 379.539521 339.84 
L 383.887573 339.84 
L 383.887573 105.926894 
L 379.539521 105.926894 
z
" clip-path="url(#p2c485b3600)" style="fill: #1f77b4; stroke: #000000; stroke-linejoin: miter"/>
   </g>
   <g id="patch_72">
    <path d="M 383.887573 339.84 
L 388.235625 339.84 
L 388.235625 146.692486 
L 383.887573 146.692486 
z
" clip-path="url(#p2c485b3600)" style="fill: #1f77b4; stroke: #000000; stroke-linejoin: miter"/>
   </g>
   <g id="patch_73">
    <path d="M 388.235625 339.84 
L 392.583677 339.84 
L 392.583677 130.01454 
L 388.235625 130.01454 
z
" clip-path="url(#p2c485b3600)" style="fill: #1f77b4; stroke: #000000; stroke-linejoin: miter"/>
   </g>
   <g id="patch_74">
    <path d="M 392.583677 339.84 
L 396.931729 339.84 
L 396.931729 69.789774 
L 392.583677 69.789774 
z
" clip-path="url(#p2c485b3600)" style="fill: #1f77b4; stroke: #000000; stroke-linejoin: miter"/>
   </g>
   <g id="patch_75">
    <path d="M 396.931729 339.84 
L 401.279781 339.84 
L 401.279781 57.381579 
L 396.931729 57.381579 
z
" clip-path="url(#p2c485b3600)" style="fill: #1f77b4; stroke: #000000; stroke-linejoin: miter"/>
   </g>
   <g id="patch_76">
    <path d="M 401.279781 339.84 
L 405.627833 339.84 
L 405.627833 80.346318 
L 401.279781 80.346318 
z
" clip-path="url(#p2c485b3600)" style="fill: #1f77b4; stroke: #000000; stroke-linejoin: miter"/>
   </g>
   <g id="patch_77">
    <path d="M 405.627833 339.84 
L 409.975885 339.84 
L 409.975885 86.693144 
L 405.627833 86.693144 
z
" clip-path="url(#p2c485b3600)" style="fill: #1f77b4; stroke: #000000; stroke-linejoin: miter"/>
   </g>
   <g id="patch_78">
    <path d="M 409.975885 339.84 
L 414.323937 339.84 
L 414.323937 96.046871 
L 409.975885 96.046871 
z
" clip-path="url(#p2c485b3600)" style="fill: #1f77b4; stroke: #000000; stroke-linejoin: miter"/>
   </g>
   <g id="patch_79">
    <path d="M 414.323937 339.84 
L 418.671989 339.84 
L 418.671989 131.331782 
L 414.323937 131.331782 
z
" clip-path="url(#p2c485b3600)" style="fill: #1f77b4; stroke: #000000; stroke-linejoin: miter"/>
   </g>
   <g id="patch_80">
    <path d="M 418.671989 339.84 
L 423.020041 339.84 
L 423.020041 113.24621 
L 418.671989 113.24621 
z
" clip-path="url(#p2c485b3600)" style="fill: #1f77b4; stroke: #000000; stroke-linejoin: miter"/>
   </g>
   <g id="patch_81">
    <path d="M 423.020041 339.84 
L 427.368093 339.84 
L 427.368093 61.365675 
L 423.020041 61.365675 
z
" clip-path="url(#p2c485b3600)" style="fill: #1f77b4; stroke: #000000; stroke-linejoin: miter"/>
   </g>
   <g id="patch_82">
    <path d="M 427.368093 339.84 
L 431.716144 339.84 
L 431.716144 73.594098 
L 427.368093 73.594098 
z
" clip-path="url(#p2c485b3600)" style="fill: #1f77b4; stroke: #000000; stroke-linejoin: miter"/>
   </g>
   <g id="patch_83">
    <path d="M 431.716144 339.84 
L 436.064196 339.84 
L 436.064196 72.358427 
L 431.716144 72.358427 
z
" clip-path="url(#p2c485b3600)" style="fill: #1f77b4; stroke: #000000; stroke-linejoin: miter"/>
   </g>
   <g id="patch_84">
    <path d="M 436.064196 339.84 
L 440.412248 339.84 
L 440.412248 28.612938 
L 436.064196 28.612938 
z
" clip-path="url(#p2c485b3600)" style="fill: #1f77b4; stroke: #000000; stroke-linejoin: miter"/>
   </g>
   <g id="patch_85">
    <path d="M 440.412248 339.84 
L 444.7603 339.84 
L 444.7603 94.615197 
L 440.412248 94.615197 
z
" clip-path="url(#p2c485b3600)" style="fill: #1f77b4; stroke: #000000; stroke-linejoin: miter"/>
   </g>
   <g id="patch_86">
    <path d="M 444.7603 339.84 
L 449.108352 339.84 
L 449.108352 62.297637 
L 444.7603 62.297637 
z
" clip-path="url(#p2c485b3600)" style="fill: #1f77b4; stroke: #000000; stroke-linejoin: miter"/>
   </g>
   <g id="patch_87">
    <path d="M 449.108352 339.84 
L 453.456404 339.84 
L 453.456404 78.691349 
L 449.108352 78.691349 
z
" clip-path="url(#p2c485b3600)" style="fill: #1f77b4; stroke: #000000; stroke-linejoin: miter"/>
   </g>
   <g id="patch_88">
    <path d="M 453.456404 339.84 
L 457.804456 339.84 
L 457.804456 85.868215 
L 453.456404 85.868215 
z
" clip-path="url(#p2c485b3600)" style="fill: #1f77b4; stroke: #000000; stroke-linejoin: miter"/>
   </g>
   <g id="patch_89">
    <path d="M 457.804456 339.84 
L 462.152508 339.84 
L 462.152508 66.221227 
L 457.804456 66.221227 
z
" clip-path="url(#p2c485b3600)" style="fill: #1f77b4; stroke: #000000; stroke-linejoin: miter"/>
   </g>
   <g id="patch_90">
    <path d="M 462.152508 339.84 
L 466.50056 339.84 
L 466.50056 88.165364 
L 462.152508 88.165364 
z
" clip-path="url(#p2c485b3600)" style="fill: #1f77b4; stroke: #000000; stroke-linejoin: miter"/>
   </g>
   <g id="patch_91">
    <path d="M 466.50056 339.84 
L 470.848612 339.84 
L 470.848612 148.937845 
L 466.50056 148.937845 
z
" clip-path="url(#p2c485b3600)" style="fill: #1f77b4; stroke: #000000; stroke-linejoin: miter"/>
   </g>
   <g id="patch_92">
    <path d="M 470.848612 339.84 
L 475.196664 339.84 
L 475.196664 125.95708 
L 470.848612 125.95708 
z
" clip-path="url(#p2c485b3600)" style="fill: #1f77b4; stroke: #000000; stroke-linejoin: miter"/>
   </g>
   <g id="patch_93">
    <path d="M 475.196664 339.84 
L 479.544716 339.84 
L 479.544716 129.746762 
L 475.196664 129.746762 
z
" clip-path="url(#p2c485b3600)" style="fill: #1f77b4; stroke: #000000; stroke-linejoin: miter"/>
   </g>
   <g id="patch_94">
    <path d="M 479.544716 339.84 
L 483.892768 339.84 
L 483.892768 106.81571 
L 479.544716 106.81571 
z
" clip-path="url(#p2c485b3600)" style="fill: #1f77b4; stroke: #000000; stroke-linejoin: miter"/>
   </g>
   <g id="patch_95">
    <path d="M 483.892768 339.84 
L 488.24082 339.84 
L 488.24082 110.752022 
L 483.892768 110.752022 
z
" clip-path="url(#p2c485b3600)" style="fill: #1f77b4; stroke: #000000; stroke-linejoin: miter"/>
   </g>
   <g id="patch_96">
    <path d="M 488.24082 339.84 
L 492.588872 339.84 
L 492.588872 114.958262 
L 488.24082 114.958262 
z
" clip-path="url(#p2c485b3600)" style="fill: #1f77b4; stroke: #000000; stroke-linejoin: miter"/>
   </g>
   <g id="patch_97">
    <path d="M 492.588872 339.84 
L 496.936924 339.84 
L 496.936924 67.862396 
L 492.588872 67.862396 
z
" clip-path="url(#p2c485b3600)" style="fill: #1f77b4; stroke: #000000; stroke-linejoin: miter"/>
   </g>
   <g id="patch_98">
    <path d="M 496.936924 339.84 
L 501.284976 339.84 
L 501.284976 54.480475 
L 496.936924 54.480475 
z
" clip-path="url(#p2c485b3600)" style="fill: #1f77b4; stroke: #000000; stroke-linejoin: miter"/>
   </g>
   <g id="patch_99">
    <path d="M 501.284976 339.84 
L 505.633028 339.84 
L 505.633028 65.179387 
L 501.284976 65.179387 
z
" clip-path="url(#p2c485b3600)" style="fill: #1f77b4; stroke: #000000; stroke-linejoin: miter"/>
   </g>
   <g id="patch_100">
    <path d="M 505.633028 339.84 
L 509.98108 339.84 
L 509.98108 88.98419 
L 505.633028 88.98419 
z
" clip-path="url(#p2c485b3600)" style="fill: #1f77b4; stroke: #000000; stroke-linejoin: miter"/>
   </g>
   <g id="patch_101">
    <path d="M 509.98108 339.84 
L 514.329131 339.84 
L 514.329131 172.132071 
L 509.98108 172.132071 
z
" clip-path="url(#p2c485b3600)" style="fill: #1f77b4; stroke: #000000; stroke-linejoin: miter"/>
   </g>
   <g id="patch_102">
    <path d="M 514.329131 339.84 
L 518.677183 339.84 
L 518.677183 138.6486 
L 514.329131 138.6486 
z
" clip-path="url(#p2c485b3600)" style="fill: #1f77b4; stroke: #000000; stroke-linejoin: miter"/>
   </g>
   <g id="patch_103">
    <path d="M 518.677183 339.84 
L 523.025235 339.84 
L 523.025235 154.360361 
L 518.677183 154.360361 
z
" clip-path="url(#p2c485b3600)" style="fill: #1f77b4; stroke: #000000; stroke-linejoin: miter"/>
   </g>
   <g id="patch_104">
    <path d="M 523.025235 339.84 
L 527.373287 339.84 
L 527.373287 117.310651 
L 523.025235 117.310651 
z
" clip-path="url(#p2c485b3600)" style="fill: #1f77b4; stroke: #000000; stroke-linejoin: miter"/>
   </g>
   <g id="patch_105">
    <path d="M 527.373287 339.84 
L 531.721339 339.84 
L 531.721339 96.344787 
L 527.373287 96.344787 
z
" clip-path="url(#p2c485b3600)" style="fill: #1f77b4; stroke: #000000; stroke-linejoin: miter"/>
   </g>
   <g id="patch_106">
    <path d="M 531.721339 339.84 
L 536.069391 339.84 
L 536.069391 59.194214 
L 531.721339 59.194214 
z
" clip-path="url(#p2c485b3600)" style="fill: #1f77b4; stroke: #000000; stroke-linejoin: miter"/>
   </g>
   <g id="patch_107">
    <path d="M 536.069391 339.84 
L 540.417443 339.84 
L 540.417443 23.04 
L 536.069391 23.04 
z
" clip-path="url(#p2c485b3600)" style="fill: #1f77b4; stroke: #000000; stroke-linejoin: miter"/>
   </g>
   <g id="patch_108">
    <path d="M 540.417443 339.84 
L 544.765495 339.84 
L 544.765495 28.412228 
L 540.417443 28.412228 
z
" clip-path="url(#p2c485b3600)" style="fill: #1f77b4; stroke: #000000; stroke-linejoin: miter"/>
   </g>
   <g id="patch_109">
    <path d="M 544.765495 339.84 
L 549.113547 339.84 
L 549.113547 100.268935 
L 544.765495 100.268935 
z
" clip-path="url(#p2c485b3600)" style="fill: #1f77b4; stroke: #000000; stroke-linejoin: miter"/>
   </g>
   <g id="patch_110">
    <path d="M 549.113547 339.84 
L 553.461599 339.84 
L 553.461599 106.445713 
L 549.113547 106.445713 
z
" clip-path="url(#p2c485b3600)" style="fill: #1f77b4; stroke: #000000; stroke-linejoin: miter"/>
   </g>
   <g id="patch_111">
    <path d="M 553.461599 339.84 
L 557.809651 339.84 
L 557.809651 114.099294 
L 553.461599 114.099294 
z
" clip-path="url(#p2c485b3600)" style="fill: #1f77b4; stroke: #000000; stroke-linejoin: miter"/>
   </g>
   <g id="patch_112">
    <path d="M 557.809651 339.84 
L 562.157703 339.84 
L 562.157703 138.354615 
L 557.809651 138.354615 
z
" clip-path="url(#p2c485b3600)" style="fill: #1f77b4; stroke: #000000; stroke-linejoin: miter"/>
   </g>
   <g id="patch_113">
    <path d="M 562.157703 339.84 
L 566.505755 339.84 
L 566.505755 166.130984 
L 562.157703 166.130984 
z
" clip-path="url(#p2c485b3600)" style="fill: #1f77b4; stroke: #000000; stroke-linejoin: miter"/>
   </g>
   <g id="patch_114">
    <path d="M 566.505755 339.84 
L 570.853807 339.84 
L 570.853807 136.700528 
L 566.505755 136.700528 
z
" clip-path="url(#p2c485b3600)" style="fill: #1f77b4; stroke: #000000; stroke-linejoin: miter"/>
   </g>
   <g id="patch_115">
    <path d="M 570.853807 339.84 
L 575.201859 339.84 
L 575.201859 121.253348 
L 570.853807 121.253348 
z
" clip-path="url(#p2c485b3600)" style="fill: #1f77b4; stroke: #000000; stroke-linejoin: miter"/>
   </g>
   <g id="patch_116">
    <path d="M 575.201859 339.84 
L 579.549911 339.84 
L 579.549911 121.472888 
L 575.201859 121.472888 
z
" clip-path="url(#p2c485b3600)" style="fill: #1f77b4; stroke: #000000; stroke-linejoin: miter"/>
   </g>
   <g id="patch_117">
    <path d="M 579.549911 339.84 
L 583.897963 339.84 
L 583.897963 118.23989 
L 579.549911 118.23989 
z
" clip-path="url(#p2c485b3600)" style="fill: #1f77b4; stroke: #000000; stroke-linejoin: miter"/>
   </g>
   <g id="patch_118">
    <path d="M 583.897963 339.84 
L 588.246015 339.84 
L 588.246015 132.73602 
L 583.897963 132.73602 
z
" clip-path="url(#p2c485b3600)" style="fill: #1f77b4; stroke: #000000; stroke-linejoin: miter"/>
   </g>
   <g id="patch_119">
    <path d="M 588.246015 339.84 
L 592.594067 339.84 
L 592.594067 105.861576 
L 588.246015 105.861576 
z
" clip-path="url(#p2c485b3600)" style="fill: #1f77b4; stroke: #000000; stroke-linejoin: miter"/>
   </g>
   <g id="patch_120">
    <path d="M 592.594067 339.84 
L 596.942119 339.84 
L 596.942119 104.229524 
L 592.594067 104.229524 
z
" clip-path="url(#p2c485b3600)" style="fill: #1f77b4; stroke: #000000; stroke-linejoin: miter"/>
   </g>
   <g id="patch_121">
    <path d="M 596.942119 339.84 
L 601.29017 339.84 
L 601.29017 78.367663 
L 596.942119 78.367663 
z
" clip-path="url(#p2c485b3600)" style="fill: #1f77b4; stroke: #000000; stroke-linejoin: miter"/>
   </g>
   <g id="patch_122">
    <path d="M 601.29017 339.84 
L 605.638222 339.84 
L 605.638222 107.940937 
L 601.29017 107.940937 
z
" clip-path="url(#p2c485b3600)" style="fill: #1f77b4; stroke: #000000; stroke-linejoin: miter"/>
   </g>
   <g id="patch_123">
    <path d="M 605.638222 339.84 
L 609.986274 339.84 
L 609.986274 68.557991 
L 605.638222 68.557991 
z
" clip-path="url(#p2c485b3600)" style="fill: #1f77b4; stroke: #000000; stroke-linejoin: miter"/>
   </g>
   <g id="patch_124">
    <path d="M 609.986274 339.84 
L 614.334326 339.84 
L 614.334326 49.429131 
L 609.986274 49.429131 
z
" clip-path="url(#p2c485b3600)" style="fill: #1f77b4; stroke: #000000; stroke-linejoin: miter"/>
   </g>
   <g id="patch_125">
    <path d="M 614.334326 339.84 
L 618.682378 339.84 
L 618.682378 58.307119 
L 614.334326 58.307119 
z
" clip-path="url(#p2c485b3600)" style="fill: #1f77b4; stroke: #000000; stroke-linejoin: miter"/>
   </g>
   <g id="patch_126">
    <path d="M 618.682378 339.84 
L 623.03043 339.84 
L 623.03043 67.323871 
L 618.682378 67.323871 
z
" clip-path="url(#p2c485b3600)" style="fill: #1f77b4; stroke: #000000; stroke-linejoin: miter"/>
   </g>
   <g id="patch_127">
    <path d="M 623.03043 339.84 
L 627.378482 339.84 
L 627.378482 119.256157 
L 623.03043 119.256157 
z
" clip-path="url(#p2c485b3600)" style="fill: #1f77b4; stroke: #000000; stroke-linejoin: miter"/>
   </g>
   <g id="patch_128">
    <path d="M 627.378482 339.84 
L 631.726534 339.84 
L 631.726534 127.393726 
L 627.378482 127.393726 
z
" clip-path="url(#p2c485b3600)" style="fill: #1f77b4; stroke: #000000; stroke-linejoin: miter"/>
   </g>
   <g id="patch_129">
    <path d="M 631.726534 339.84 
L 636.074586 339.84 
L 636.074586 125.94457 
L 631.726534 125.94457 
z
" clip-path="url(#p2c485b3600)" style="fill: #1f77b4; stroke: #000000; stroke-linejoin: miter"/>
   </g>
   <g id="patch_130">
    <path d="M 636.074586 339.84 
L 640.422638 339.84 
L 640.422638 112.612334 
L 636.074586 112.612334 
z
" clip-path="url(#p2c485b3600)" style="fill: #1f77b4; stroke: #000000; stroke-linejoin: miter"/>
   </g>
   <g id="patch_131">
    <path d="M 640.422638 339.84 
L 644.77069 339.84 
L 644.77069 88.266513 
L 640.422638 88.266513 
z
" clip-path="url(#p2c485b3600)" style="fill: #1f77b4; stroke: #000000; stroke-linejoin: miter"/>
   </g>
   <g id="patch_132">
    <path d="M 644.77069 339.84 
L 649.118742 339.84 
L 649.118742 81.242368 
L 644.77069 81.242368 
z
" clip-path="url(#p2c485b3600)" style="fill: #1f77b4; stroke: #000000; stroke-linejoin: miter"/>
   </g>
   <g id="patch_133">
    <path d="M 649.118742 339.84 
L 653.466794 339.84 
L 653.466794 124.205583 
L 649.118742 124.205583 
z
" clip-path="url(#p2c485b3600)" style="fill: #1f77b4; stroke: #000000; stroke-linejoin: miter"/>
   </g>
   <g id="patch_134">
    <path d="M 653.466794 339.84 
L 657.814846 339.84 
L 657.814846 123.046258 
L 653.466794 123.046258 
z
" clip-path="url(#p2c485b3600)" style="fill: #1f77b4; stroke: #000000; stroke-linejoin: miter"/>
   </g>
   <g id="patch_135">
    <path d="M 657.814846 339.84 
L 662.162898 339.84 
L 662.162898 132.465772 
L 657.814846 132.465772 
z
" clip-path="url(#p2c485b3600)" style="fill: #1f77b4; stroke: #000000; stroke-linejoin: miter"/>
   </g>
   <g id="patch_136">
    <path d="M 662.162898 339.84 
L 666.51095 339.84 
L 666.51095 97.077382 
L 662.162898 97.077382 
z
" clip-path="url(#p2c485b3600)" style="fill: #1f77b4; stroke: #000000; stroke-linejoin: miter"/>
   </g>
   <g id="patch_137">
    <path d="M 666.51095 339.84 
L 670.859002 339.84 
L 670.859002 97.975858 
L 666.51095 97.975858 
z
" clip-path="url(#p2c485b3600)" style="fill: #1f77b4; stroke: #000000; stroke-linejoin: miter"/>
   </g>
   <g id="patch_138">
    <path d="M 670.859002 339.84 
L 675.207054 339.84 
L 675.207054 82.469889 
L 670.859002 82.469889 
z
" clip-path="url(#p2c485b3600)" style="fill: #1f77b4; stroke: #000000; stroke-linejoin: miter"/>
   </g>
   <g id="patch_139">
    <path d="M 675.207054 339.84 
L 679.555106 339.84 
L 679.555106 108.396608 
L 675.207054 108.396608 
z
" clip-path="url(#p2c485b3600)" style="fill: #1f77b4; stroke: #000000; stroke-linejoin: miter"/>
   </g>
   <g id="patch_140">
    <path d="M 679.555106 339.84 
L 683.903157 339.84 
L 683.903157 90.690556 
L 679.555106 90.690556 
z
" clip-path="url(#p2c485b3600)" style="fill: #1f77b4; stroke: #000000; stroke-linejoin: miter"/>
   </g>
   <g id="patch_141">
    <path d="M 683.903157 339.84 
L 688.251209 339.84 
L 688.251209 103.213522 
L 683.903157 103.213522 
z
" clip-path="url(#p2c485b3600)" style="fill: #1f77b4; stroke: #000000; stroke-linejoin: miter"/>
   </g>
   <g id="patch_142">
    <path d="M 688.251209 339.84 
L 692.599261 339.84 
L 692.599261 339.84 
L 688.251209 339.84 
z
" clip-path="url(#p2c485b3600)" style="fill: #1f77b4; stroke: #000000; stroke-linejoin: miter"/>
   </g>
   <g id="matplotlib.axis_1">
    <g id="xtick_1">
     <g id="line2d_1">
      <defs>
       <path id="m3220f87732" d="M 0 0 
L 0 3.5 
" style="stroke: #000000; stroke-width: 0.8"/>
      </defs>
      <g>
       <use xlink:href="#m3220f87732" x="81.697963" y="339.84" style="stroke: #000000; stroke-width: 0.8"/>
      </g>
     </g>
     <g id="text_1">
      <!-- 0.0 -->
      <g transform="translate(70.565775 357.477813) scale(0.14 -0.14)">
       <defs>
        <path id="DejaVuSans-30" d="M 2034 4250 
Q 1547 4250 1301 3770 
Q 1056 3291 1056 2328 
Q 1056 1369 1301 889 
Q 1547 409 2034 409 
Q 2525 409 2770 889 
Q 3016 1369 3016 2328 
Q 3016 3291 2770 3770 
Q 2525 4250 2034 4250 
z
M 2034 4750 
Q 2819 4750 3233 4129 
Q 3647 3509 3647 2328 
Q 3647 1150 3233 529 
Q 2819 -91 2034 -91 
Q 1250 -91 836 529 
Q 422 1150 422 2328 
Q 422 3509 836 4129 
Q 1250 4750 2034 4750 
z
" transform="scale(0.015625)"/>
        <path id="DejaVuSans-2e" d="M 684 794 
L 1344 794 
L 1344 0 
L 684 0 
L 684 794 
z
" transform="scale(0.015625)"/>
       </defs>
       <use xlink:href="#DejaVuSans-30"/>
       <use xlink:href="#DejaVuSans-2e" x="63.623047"/>
       <use xlink:href="#DejaVuSans-30" x="95.410156"/>
      </g>
     </g>
    </g>
    <g id="xtick_2">
     <g id="line2d_2">
      <g>
       <use xlink:href="#m3220f87732" x="168.659002" y="339.84" style="stroke: #000000; stroke-width: 0.8"/>
      </g>
     </g>
     <g id="text_2">
      <!-- 0.2 -->
      <g transform="translate(157.526814 357.477813) scale(0.14 -0.14)">
       <defs>
        <path id="DejaVuSans-32" d="M 1228 531 
L 3431 531 
L 3431 0 
L 469 0 
L 469 531 
Q 828 903 1448 1529 
Q 2069 2156 2228 2338 
Q 2531 2678 2651 2914 
Q 2772 3150 2772 3378 
Q 2772 3750 2511 3984 
Q 2250 4219 1831 4219 
Q 1534 4219 1204 4116 
Q 875 4013 500 3803 
L 500 4441 
Q 881 4594 1212 4672 
Q 1544 4750 1819 4750 
Q 2544 4750 2975 4387 
Q 3406 4025 3406 3419 
Q 3406 3131 3298 2873 
Q 3191 2616 2906 2266 
Q 2828 2175 2409 1742 
Q 1991 1309 1228 531 
z
" transform="scale(0.015625)"/>
       </defs>
       <use xlink:href="#DejaVuSans-30"/>
       <use xlink:href="#DejaVuSans-2e" x="63.623047"/>
       <use xlink:href="#DejaVuSans-32" x="95.410156"/>
      </g>
     </g>
    </g>
    <g id="xtick_3">
     <g id="line2d_3">
      <g>
       <use xlink:href="#m3220f87732" x="255.620041" y="339.84" style="stroke: #000000; stroke-width: 0.8"/>
      </g>
     </g>
     <g id="text_3">
      <!-- 0.4 -->
      <g transform="translate(244.487853 357.477813) scale(0.14 -0.14)">
       <defs>
        <path id="DejaVuSans-34" d="M 2419 4116 
L 825 1625 
L 2419 1625 
L 2419 4116 
z
M 2253 4666 
L 3047 4666 
L 3047 1625 
L 3713 1625 
L 3713 1100 
L 3047 1100 
L 3047 0 
L 2419 0 
L 2419 1100 
L 313 1100 
L 313 1709 
L 2253 4666 
z
" transform="scale(0.015625)"/>
       </defs>
       <use xlink:href="#DejaVuSans-30"/>
       <use xlink:href="#DejaVuSans-2e" x="63.623047"/>
       <use xlink:href="#DejaVuSans-34" x="95.410156"/>
      </g>
     </g>
    </g>
    <g id="xtick_4">
     <g id="line2d_4">
      <g>
       <use xlink:href="#m3220f87732" x="342.58108" y="339.84" style="stroke: #000000; stroke-width: 0.8"/>
      </g>
     </g>
     <g id="text_4">
      <!-- 0.6 -->
      <g transform="translate(331.448892 357.477813) scale(0.14 -0.14)">
       <defs>
        <path id="DejaVuSans-36" d="M 2113 2584 
Q 1688 2584 1439 2293 
Q 1191 2003 1191 1497 
Q 1191 994 1439 701 
Q 1688 409 2113 409 
Q 2538 409 2786 701 
Q 3034 994 3034 1497 
Q 3034 2003 2786 2293 
Q 2538 2584 2113 2584 
z
M 3366 4563 
L 3366 3988 
Q 3128 4100 2886 4159 
Q 2644 4219 2406 4219 
Q 1781 4219 1451 3797 
Q 1122 3375 1075 2522 
Q 1259 2794 1537 2939 
Q 1816 3084 2150 3084 
Q 2853 3084 3261 2657 
Q 3669 2231 3669 1497 
Q 3669 778 3244 343 
Q 2819 -91 2113 -91 
Q 1303 -91 875 529 
Q 447 1150 447 2328 
Q 447 3434 972 4092 
Q 1497 4750 2381 4750 
Q 2619 4750 2861 4703 
Q 3103 4656 3366 4563 
z
" transform="scale(0.015625)"/>
       </defs>
       <use xlink:href="#DejaVuSans-30"/>
       <use xlink:href="#DejaVuSans-2e" x="63.623047"/>
       <use xlink:href="#DejaVuSans-36" x="95.410156"/>
      </g>
     </g>
    </g>
    <g id="xtick_5">
     <g id="line2d_5">
      <g>
       <use xlink:href="#m3220f87732" x="429.542119" y="339.84" style="stroke: #000000; stroke-width: 0.8"/>
      </g>
     </g>
     <g id="text_5">
      <!-- 0.8 -->
      <g transform="translate(418.409931 357.477813) scale(0.14 -0.14)">
       <defs>
        <path id="DejaVuSans-38" d="M 2034 2216 
Q 1584 2216 1326 1975 
Q 1069 1734 1069 1313 
Q 1069 891 1326 650 
Q 1584 409 2034 409 
Q 2484 409 2743 651 
Q 3003 894 3003 1313 
Q 3003 1734 2745 1975 
Q 2488 2216 2034 2216 
z
M 1403 2484 
Q 997 2584 770 2862 
Q 544 3141 544 3541 
Q 544 4100 942 4425 
Q 1341 4750 2034 4750 
Q 2731 4750 3128 4425 
Q 3525 4100 3525 3541 
Q 3525 3141 3298 2862 
Q 3072 2584 2669 2484 
Q 3125 2378 3379 2068 
Q 3634 1759 3634 1313 
Q 3634 634 3220 271 
Q 2806 -91 2034 -91 
Q 1263 -91 848 271 
Q 434 634 434 1313 
Q 434 1759 690 2068 
Q 947 2378 1403 2484 
z
M 1172 3481 
Q 1172 3119 1398 2916 
Q 1625 2713 2034 2713 
Q 2441 2713 2670 2916 
Q 2900 3119 2900 3481 
Q 2900 3844 2670 4047 
Q 2441 4250 2034 4250 
Q 1625 4250 1398 4047 
Q 1172 3844 1172 3481 
z
" transform="scale(0.015625)"/>
       </defs>
       <use xlink:href="#DejaVuSans-30"/>
       <use xlink:href="#DejaVuSans-2e" x="63.623047"/>
       <use xlink:href="#DejaVuSans-38" x="95.410156"/>
      </g>
     </g>
    </g>
    <g id="xtick_6">
     <g id="line2d_6">
      <g>
       <use xlink:href="#m3220f87732" x="516.503157" y="339.84" style="stroke: #000000; stroke-width: 0.8"/>
      </g>
     </g>
     <g id="text_6">
      <!-- 1.0 -->
      <g transform="translate(505.37097 357.477813) scale(0.14 -0.14)">
       <defs>
        <path id="DejaVuSans-31" d="M 794 531 
L 1825 531 
L 1825 4091 
L 703 3866 
L 703 4441 
L 1819 4666 
L 2450 4666 
L 2450 531 
L 3481 531 
L 3481 0 
L 794 0 
L 794 531 
z
" transform="scale(0.015625)"/>
       </defs>
       <use xlink:href="#DejaVuSans-31"/>
       <use xlink:href="#DejaVuSans-2e" x="63.623047"/>
       <use xlink:href="#DejaVuSans-30" x="95.410156"/>
      </g>
     </g>
    </g>
    <g id="xtick_7">
     <g id="line2d_7">
      <g>
       <use xlink:href="#m3220f87732" x="603.464196" y="339.84" style="stroke: #000000; stroke-width: 0.8"/>
      </g>
     </g>
     <g id="text_7">
      <!-- 1.2 -->
      <g transform="translate(592.332009 357.477813) scale(0.14 -0.14)">
       <use xlink:href="#DejaVuSans-31"/>
       <use xlink:href="#DejaVuSans-2e" x="63.623047"/>
       <use xlink:href="#DejaVuSans-32" x="95.410156"/>
      </g>
     </g>
    </g>
    <g id="xtick_8">
     <g id="line2d_8">
      <g>
       <use xlink:href="#m3220f87732" x="690.425235" y="339.84" style="stroke: #000000; stroke-width: 0.8"/>
      </g>
     </g>
     <g id="text_8">
      <!-- 1.4 -->
      <g transform="translate(679.293048 357.477813) scale(0.14 -0.14)">
       <use xlink:href="#DejaVuSans-31"/>
       <use xlink:href="#DejaVuSans-2e" x="63.623047"/>
       <use xlink:href="#DejaVuSans-34" x="95.410156"/>
      </g>
     </g>
    </g>
    <g id="text_9">
     <!-- Chromosome Positions -->
     <g transform="translate(285.885938 378.066563) scale(0.18 -0.18)">
      <defs>
       <path id="DejaVuSans-43" d="M 4122 4306 
L 4122 3641 
Q 3803 3938 3442 4084 
Q 3081 4231 2675 4231 
Q 1875 4231 1450 3742 
Q 1025 3253 1025 2328 
Q 1025 1406 1450 917 
Q 1875 428 2675 428 
Q 3081 428 3442 575 
Q 3803 722 4122 1019 
L 4122 359 
Q 3791 134 3420 21 
Q 3050 -91 2638 -91 
Q 1578 -91 968 557 
Q 359 1206 359 2328 
Q 359 3453 968 4101 
Q 1578 4750 2638 4750 
Q 3056 4750 3426 4639 
Q 3797 4528 4122 4306 
z
" transform="scale(0.015625)"/>
       <path id="DejaVuSans-68" d="M 3513 2113 
L 3513 0 
L 2938 0 
L 2938 2094 
Q 2938 2591 2744 2837 
Q 2550 3084 2163 3084 
Q 1697 3084 1428 2787 
Q 1159 2491 1159 1978 
L 1159 0 
L 581 0 
L 581 4863 
L 1159 4863 
L 1159 2956 
Q 1366 3272 1645 3428 
Q 1925 3584 2291 3584 
Q 2894 3584 3203 3211 
Q 3513 2838 3513 2113 
z
" transform="scale(0.015625)"/>
       <path id="DejaVuSans-72" d="M 2631 2963 
Q 2534 3019 2420 3045 
Q 2306 3072 2169 3072 
Q 1681 3072 1420 2755 
Q 1159 2438 1159 1844 
L 1159 0 
L 581 0 
L 581 3500 
L 1159 3500 
L 1159 2956 
Q 1341 3275 1631 3429 
Q 1922 3584 2338 3584 
Q 2397 3584 2469 3576 
Q 2541 3569 2628 3553 
L 2631 2963 
z
" transform="scale(0.015625)"/>
       <path id="DejaVuSans-6f" d="M 1959 3097 
Q 1497 3097 1228 2736 
Q 959 2375 959 1747 
Q 959 1119 1226 758 
Q 1494 397 1959 397 
Q 2419 397 2687 759 
Q 2956 1122 2956 1747 
Q 2956 2369 2687 2733 
Q 2419 3097 1959 3097 
z
M 1959 3584 
Q 2709 3584 3137 3096 
Q 3566 2609 3566 1747 
Q 3566 888 3137 398 
Q 2709 -91 1959 -91 
Q 1206 -91 779 398 
Q 353 888 353 1747 
Q 353 2609 779 3096 
Q 1206 3584 1959 3584 
z
" transform="scale(0.015625)"/>
       <path id="DejaVuSans-6d" d="M 3328 2828 
Q 3544 3216 3844 3400 
Q 4144 3584 4550 3584 
Q 5097 3584 5394 3201 
Q 5691 2819 5691 2113 
L 5691 0 
L 5113 0 
L 5113 2094 
Q 5113 2597 4934 2840 
Q 4756 3084 4391 3084 
Q 3944 3084 3684 2787 
Q 3425 2491 3425 1978 
L 3425 0 
L 2847 0 
L 2847 2094 
Q 2847 2600 2669 2842 
Q 2491 3084 2119 3084 
Q 1678 3084 1418 2786 
Q 1159 2488 1159 1978 
L 1159 0 
L 581 0 
L 581 3500 
L 1159 3500 
L 1159 2956 
Q 1356 3278 1631 3431 
Q 1906 3584 2284 3584 
Q 2666 3584 2933 3390 
Q 3200 3197 3328 2828 
z
" transform="scale(0.015625)"/>
       <path id="DejaVuSans-73" d="M 2834 3397 
L 2834 2853 
Q 2591 2978 2328 3040 
Q 2066 3103 1784 3103 
Q 1356 3103 1142 2972 
Q 928 2841 928 2578 
Q 928 2378 1081 2264 
Q 1234 2150 1697 2047 
L 1894 2003 
Q 2506 1872 2764 1633 
Q 3022 1394 3022 966 
Q 3022 478 2636 193 
Q 2250 -91 1575 -91 
Q 1294 -91 989 -36 
Q 684 19 347 128 
L 347 722 
Q 666 556 975 473 
Q 1284 391 1588 391 
Q 1994 391 2212 530 
Q 2431 669 2431 922 
Q 2431 1156 2273 1281 
Q 2116 1406 1581 1522 
L 1381 1569 
Q 847 1681 609 1914 
Q 372 2147 372 2553 
Q 372 3047 722 3315 
Q 1072 3584 1716 3584 
Q 2034 3584 2315 3537 
Q 2597 3491 2834 3397 
z
" transform="scale(0.015625)"/>
       <path id="DejaVuSans-65" d="M 3597 1894 
L 3597 1613 
L 953 1613 
Q 991 1019 1311 708 
Q 1631 397 2203 397 
Q 2534 397 2845 478 
Q 3156 559 3463 722 
L 3463 178 
Q 3153 47 2828 -22 
Q 2503 -91 2169 -91 
Q 1331 -91 842 396 
Q 353 884 353 1716 
Q 353 2575 817 3079 
Q 1281 3584 2069 3584 
Q 2775 3584 3186 3129 
Q 3597 2675 3597 1894 
z
M 3022 2063 
Q 3016 2534 2758 2815 
Q 2500 3097 2075 3097 
Q 1594 3097 1305 2825 
Q 1016 2553 972 2059 
L 3022 2063 
z
" transform="scale(0.015625)"/>
       <path id="DejaVuSans-20" transform="scale(0.015625)"/>
       <path id="DejaVuSans-50" d="M 1259 4147 
L 1259 2394 
L 2053 2394 
Q 2494 2394 2734 2622 
Q 2975 2850 2975 3272 
Q 2975 3691 2734 3919 
Q 2494 4147 2053 4147 
L 1259 4147 
z
M 628 4666 
L 2053 4666 
Q 2838 4666 3239 4311 
Q 3641 3956 3641 3272 
Q 3641 2581 3239 2228 
Q 2838 1875 2053 1875 
L 1259 1875 
L 1259 0 
L 628 0 
L 628 4666 
z
" transform="scale(0.015625)"/>
       <path id="DejaVuSans-69" d="M 603 3500 
L 1178 3500 
L 1178 0 
L 603 0 
L 603 3500 
z
M 603 4863 
L 1178 4863 
L 1178 4134 
L 603 4134 
L 603 4863 
z
" transform="scale(0.015625)"/>
       <path id="DejaVuSans-74" d="M 1172 4494 
L 1172 3500 
L 2356 3500 
L 2356 3053 
L 1172 3053 
L 1172 1153 
Q 1172 725 1289 603 
Q 1406 481 1766 481 
L 2356 481 
L 2356 0 
L 1766 0 
Q 1100 0 847 248 
Q 594 497 594 1153 
L 594 3053 
L 172 3053 
L 172 3500 
L 594 3500 
L 594 4494 
L 1172 4494 
z
" transform="scale(0.015625)"/>
       <path id="DejaVuSans-6e" d="M 3513 2113 
L 3513 0 
L 2938 0 
L 2938 2094 
Q 2938 2591 2744 2837 
Q 2550 3084 2163 3084 
Q 1697 3084 1428 2787 
Q 1159 2491 1159 1978 
L 1159 0 
L 581 0 
L 581 3500 
L 1159 3500 
L 1159 2956 
Q 1366 3272 1645 3428 
Q 1925 3584 2291 3584 
Q 2894 3584 3203 3211 
Q 3513 2838 3513 2113 
z
" transform="scale(0.015625)"/>
      </defs>
      <use xlink:href="#DejaVuSans-43"/>
      <use xlink:href="#DejaVuSans-68" x="69.824219"/>
      <use xlink:href="#DejaVuSans-72" x="133.203125"/>
      <use xlink:href="#DejaVuSans-6f" x="172.066406"/>
      <use xlink:href="#DejaVuSans-6d" x="233.248047"/>
      <use xlink:href="#DejaVuSans-6f" x="330.660156"/>
      <use xlink:href="#DejaVuSans-73" x="391.841797"/>
      <use xlink:href="#DejaVuSans-6f" x="443.941406"/>
      <use xlink:href="#DejaVuSans-6d" x="505.123047"/>
      <use xlink:href="#DejaVuSans-65" x="602.535156"/>
      <use xlink:href="#DejaVuSans-20" x="664.058594"/>
      <use xlink:href="#DejaVuSans-50" x="695.845703"/>
      <use xlink:href="#DejaVuSans-6f" x="752.523438"/>
      <use xlink:href="#DejaVuSans-73" x="813.705078"/>
      <use xlink:href="#DejaVuSans-69" x="865.804688"/>
      <use xlink:href="#DejaVuSans-74" x="893.587891"/>
      <use xlink:href="#DejaVuSans-69" x="932.796875"/>
      <use xlink:href="#DejaVuSans-6f" x="960.580078"/>
      <use xlink:href="#DejaVuSans-6e" x="1021.761719"/>
      <use xlink:href="#DejaVuSans-73" x="1085.140625"/>
     </g>
    </g>
    <g id="text_10">
     <!-- 1e6 -->
     <g transform="translate(704.1575 370.987813) scale(0.1 -0.1)">
      <use xlink:href="#DejaVuSans-31"/>
      <use xlink:href="#DejaVuSans-65" x="63.623047"/>
      <use xlink:href="#DejaVuSans-36" x="125.146484"/>
     </g>
    </g>
   </g>
   <g id="matplotlib.axis_2">
    <g id="ytick_1">
     <g id="line2d_9">
      <defs>
       <path id="m163e9d9b8e" d="M 0 0 
L -3.5 0 
" style="stroke: #000000; stroke-width: 0.8"/>
      </defs>
      <g>
       <use xlink:href="#m163e9d9b8e" x="53.435625" y="339.84" style="stroke: #000000; stroke-width: 0.8"/>
      </g>
     </g>
     <g id="text_11">
      <!-- 0 -->
      <g transform="translate(37.528125 345.158906) scale(0.14 -0.14)">
       <use xlink:href="#DejaVuSans-30"/>
      </g>
     </g>
    </g>
    <g id="ytick_2">
     <g id="line2d_10">
      <g>
       <use xlink:href="#m163e9d9b8e" x="53.435625" y="270.28051" style="stroke: #000000; stroke-width: 0.8"/>
      </g>
     </g>
     <g id="text_12">
      <!-- 20 -->
      <g transform="translate(28.620625 275.599417) scale(0.14 -0.14)">
       <use xlink:href="#DejaVuSans-32"/>
       <use xlink:href="#DejaVuSans-30" x="63.623047"/>
      </g>
     </g>
    </g>
    <g id="ytick_3">
     <g id="line2d_11">
      <g>
       <use xlink:href="#m163e9d9b8e" x="53.435625" y="200.721021" style="stroke: #000000; stroke-width: 0.8"/>
      </g>
     </g>
     <g id="text_13">
      <!-- 40 -->
      <g transform="translate(28.620625 206.039927) scale(0.14 -0.14)">
       <use xlink:href="#DejaVuSans-34"/>
       <use xlink:href="#DejaVuSans-30" x="63.623047"/>
      </g>
     </g>
    </g>
    <g id="ytick_4">
     <g id="line2d_12">
      <g>
       <use xlink:href="#m163e9d9b8e" x="53.435625" y="131.161531" style="stroke: #000000; stroke-width: 0.8"/>
      </g>
     </g>
     <g id="text_14">
      <!-- 60 -->
      <g transform="translate(28.620625 136.480438) scale(0.14 -0.14)">
       <use xlink:href="#DejaVuSans-36"/>
       <use xlink:href="#DejaVuSans-30" x="63.623047"/>
      </g>
     </g>
    </g>
    <g id="ytick_5">
     <g id="line2d_13">
      <g>
       <use xlink:href="#m163e9d9b8e" x="53.435625" y="61.602042" style="stroke: #000000; stroke-width: 0.8"/>
      </g>
     </g>
     <g id="text_15">
      <!-- 80 -->
      <g transform="translate(28.620625 66.920948) scale(0.14 -0.14)">
       <use xlink:href="#DejaVuSans-38"/>
       <use xlink:href="#DejaVuSans-30" x="63.623047"/>
      </g>
     </g>
    </g>
    <g id="text_16">
     <!-- Coverage -->
     <g transform="translate(20.877187 216.642656) rotate(-90) scale(0.18 -0.18)">
      <defs>
       <path id="DejaVuSans-76" d="M 191 3500 
L 800 3500 
L 1894 563 
L 2988 3500 
L 3597 3500 
L 2284 0 
L 1503 0 
L 191 3500 
z
" transform="scale(0.015625)"/>
       <path id="DejaVuSans-61" d="M 2194 1759 
Q 1497 1759 1228 1600 
Q 959 1441 959 1056 
Q 959 750 1161 570 
Q 1363 391 1709 391 
Q 2188 391 2477 730 
Q 2766 1069 2766 1631 
L 2766 1759 
L 2194 1759 
z
M 3341 1997 
L 3341 0 
L 2766 0 
L 2766 531 
Q 2569 213 2275 61 
Q 1981 -91 1556 -91 
Q 1019 -91 701 211 
Q 384 513 384 1019 
Q 384 1609 779 1909 
Q 1175 2209 1959 2209 
L 2766 2209 
L 2766 2266 
Q 2766 2663 2505 2880 
Q 2244 3097 1772 3097 
Q 1472 3097 1187 3025 
Q 903 2953 641 2809 
L 641 3341 
Q 956 3463 1253 3523 
Q 1550 3584 1831 3584 
Q 2591 3584 2966 3190 
Q 3341 2797 3341 1997 
z
" transform="scale(0.015625)"/>
       <path id="DejaVuSans-67" d="M 2906 1791 
Q 2906 2416 2648 2759 
Q 2391 3103 1925 3103 
Q 1463 3103 1205 2759 
Q 947 2416 947 1791 
Q 947 1169 1205 825 
Q 1463 481 1925 481 
Q 2391 481 2648 825 
Q 2906 1169 2906 1791 
z
M 3481 434 
Q 3481 -459 3084 -895 
Q 2688 -1331 1869 -1331 
Q 1566 -1331 1297 -1286 
Q 1028 -1241 775 -1147 
L 775 -588 
Q 1028 -725 1275 -790 
Q 1522 -856 1778 -856 
Q 2344 -856 2625 -561 
Q 2906 -266 2906 331 
L 2906 616 
Q 2728 306 2450 153 
Q 2172 0 1784 0 
Q 1141 0 747 490 
Q 353 981 353 1791 
Q 353 2603 747 3093 
Q 1141 3584 1784 3584 
Q 2172 3584 2450 3431 
Q 2728 3278 2906 2969 
L 2906 3500 
L 3481 3500 
L 3481 434 
z
" transform="scale(0.015625)"/>
      </defs>
      <use xlink:href="#DejaVuSans-43"/>
      <use xlink:href="#DejaVuSans-6f" x="69.824219"/>
      <use xlink:href="#DejaVuSans-76" x="131.005859"/>
      <use xlink:href="#DejaVuSans-65" x="190.185547"/>
      <use xlink:href="#DejaVuSans-72" x="251.708984"/>
      <use xlink:href="#DejaVuSans-61" x="292.822266"/>
      <use xlink:href="#DejaVuSans-67" x="354.101562"/>
      <use xlink:href="#DejaVuSans-65" x="417.578125"/>
     </g>
    </g>
   </g>
   <g id="patch_143">
    <path d="M 53.435625 339.84 
L 53.435625 7.2 
" style="fill: none; stroke: #000000; stroke-width: 0.8; stroke-linejoin: miter; stroke-linecap: square"/>
   </g>
   <g id="patch_144">
    <path d="M 723.035625 339.84 
L 723.035625 7.2 
" style="fill: none; stroke: #000000; stroke-width: 0.8; stroke-linejoin: miter; stroke-linecap: square"/>
   </g>
   <g id="patch_145">
    <path d="M 53.435625 339.84 
L 723.035625 339.84 
" style="fill: none; stroke: #000000; stroke-width: 0.8; stroke-linejoin: miter; stroke-linecap: square"/>
   </g>
   <g id="patch_146">
    <path d="M 53.435625 7.2 
L 723.035625 7.2 
" style="fill: none; stroke: #000000; stroke-width: 0.8; stroke-linejoin: miter; stroke-linecap: square"/>
   </g>
  </g>
 </g>
 <defs>
  <clipPath id="p2c485b3600">
   <rect x="53.435625" y="7.2" width="669.6" height="332.64"/>
  </clipPath>
 </defs>
</svg>
