<?xml version="1.0" encoding="utf-8" standalone="no"?>
<!DOCTYPE svg PUBLIC "-//W3C//DTD SVG 1.1//EN"
  "http://www.w3.org/Graphics/SVG/1.1/DTD/svg11.dtd">
<svg xmlns:xlink="http://www.w3.org/1999/xlink" width="818.533125pt" height="380.61pt" viewBox="0 0 818.533125 380.61" xmlns="http://www.w3.org/2000/svg" version="1.1">
 <metadata>
  <rdf:RDF xmlns:dc="http://purl.org/dc/elements/1.1/" xmlns:cc="http://creativecommons.org/ns#" xmlns:rdf="http://www.w3.org/1999/02/22-rdf-syntax-ns#">
   <cc:Work>
    <dc:type rdf:resource="http://purl.org/dc/dcmitype/StillImage"/>
    <dc:date>2025-06-24T15:50:43.164195</dc:date>
    <dc:format>image/svg+xml</dc:format>
    <dc:creator>
     <cc:Agent>
      <dc:title>Matplotlib v3.7.3, https://matplotlib.org/</dc:title>
     </cc:Agent>
    </dc:creator>
   </cc:Work>
  </rdf:RDF>
 </metadata>
 <defs>
  <style type="text/css">*{stroke-linejoin: round; stroke-linecap: butt}</style>
 </defs>
 <g id="figure_1">
  <g id="patch_1">
   <path d="M 0 380.61 
L 818.533125 380.61 
L 818.533125 0 
L 0 0 
z
" style="fill: #ffffff"/>
  </g>
  <g id="axes_1">
   <g id="patch_2">
    <path d="M 62.343125 331.44 
L 811.333125 331.44 
L 811.333125 7.2 
L 62.343125 7.2 
z
" style="fill: #ffffff"/>
   </g>
   <g id="patch_3">
    <path d="M 96.388125 331.44 
L 98.704111 331.44 
L 98.704111 292.442062 
L 96.388125 292.442062 
z
" clip-path="url(#p52af3f089b)" style="fill: #1f77b4; opacity: 0.7; stroke: #000000; stroke-linejoin: miter"/>
   </g>
   <g id="patch_4">
    <path d="M 98.704111 331.44 
L 101.020098 331.44 
L 101.020098 258.219381 
L 98.704111 258.219381 
z
" clip-path="url(#p52af3f089b)" style="fill: #1f77b4; opacity: 0.7; stroke: #000000; stroke-linejoin: miter"/>
   </g>
   <g id="patch_5">
    <path d="M 101.020098 331.44 
L 103.336084 331.44 
L 103.336084 276.524536 
L 101.020098 276.524536 
z
" clip-path="url(#p52af3f089b)" style="fill: #1f77b4; opacity: 0.7; stroke: #000000; stroke-linejoin: miter"/>
   </g>
   <g id="patch_6">
    <path d="M 103.336084 331.44 
L 105.652071 331.44 
L 105.652071 305.176082 
L 103.336084 305.176082 
z
" clip-path="url(#p52af3f089b)" style="fill: #1f77b4; opacity: 0.7; stroke: #000000; stroke-linejoin: miter"/>
   </g>
   <g id="patch_7">
    <path d="M 105.652071 331.44 
L 107.968057 331.44 
L 107.968057 278.116289 
L 105.652071 278.116289 
z
" clip-path="url(#p52af3f089b)" style="fill: #1f77b4; opacity: 0.7; stroke: #000000; stroke-linejoin: miter"/>
   </g>
   <g id="patch_8">
    <path d="M 107.968057 331.44 
L 110.284043 331.44 
L 110.284043 278.912165 
L 107.968057 278.912165 
z
" clip-path="url(#p52af3f089b)" style="fill: #1f77b4; opacity: 0.7; stroke: #000000; stroke-linejoin: miter"/>
   </g>
   <g id="patch_9">
    <path d="M 110.284043 331.44 
L 112.60003 331.44 
L 112.60003 297.21732 
L 110.284043 297.21732 
z
" clip-path="url(#p52af3f089b)" style="fill: #1f77b4; opacity: 0.7; stroke: #000000; stroke-linejoin: miter"/>
   </g>
   <g id="patch_10">
    <path d="M 112.60003 331.44 
L 114.916016 331.44 
L 114.916016 266.974021 
L 112.60003 266.974021 
z
" clip-path="url(#p52af3f089b)" style="fill: #1f77b4; opacity: 0.7; stroke: #000000; stroke-linejoin: miter"/>
   </g>
   <g id="patch_11">
    <path d="M 114.916016 331.44 
L 117.232003 331.44 
L 117.232003 271.749278 
L 114.916016 271.749278 
z
" clip-path="url(#p52af3f089b)" style="fill: #1f77b4; opacity: 0.7; stroke: #000000; stroke-linejoin: miter"/>
   </g>
   <g id="patch_12">
    <path d="M 117.232003 331.44 
L 119.547989 331.44 
L 119.547989 270.157526 
L 117.232003 270.157526 
z
" clip-path="url(#p52af3f089b)" style="fill: #1f77b4; opacity: 0.7; stroke: #000000; stroke-linejoin: miter"/>
   </g>
   <g id="patch_13">
    <path d="M 119.547989 331.44 
L 121.863975 331.44 
L 121.863975 260.60701 
L 119.547989 260.60701 
z
" clip-path="url(#p52af3f089b)" style="fill: #1f77b4; opacity: 0.7; stroke: #000000; stroke-linejoin: miter"/>
   </g>
   <g id="patch_14">
    <path d="M 121.863975 331.44 
L 124.179962 331.44 
L 124.179962 301.992577 
L 121.863975 301.992577 
z
" clip-path="url(#p52af3f089b)" style="fill: #1f77b4; opacity: 0.7; stroke: #000000; stroke-linejoin: miter"/>
   </g>
   <g id="patch_15">
    <path d="M 124.179962 331.44 
L 126.495948 331.44 
L 126.495948 327.460619 
L 124.179962 327.460619 
z
" clip-path="url(#p52af3f089b)" style="fill: #1f77b4; opacity: 0.7; stroke: #000000; stroke-linejoin: miter"/>
   </g>
   <g id="patch_16">
    <path d="M 126.495948 331.44 
L 128.811935 331.44 
L 128.811935 330.644124 
L 126.495948 330.644124 
z
" clip-path="url(#p52af3f089b)" style="fill: #1f77b4; opacity: 0.7; stroke: #000000; stroke-linejoin: miter"/>
   </g>
   <g id="patch_17">
    <path d="M 128.811935 331.44 
L 131.127921 331.44 
L 131.127921 318.705979 
L 128.811935 318.705979 
z
" clip-path="url(#p52af3f089b)" style="fill: #1f77b4; opacity: 0.7; stroke: #000000; stroke-linejoin: miter"/>
   </g>
   <g id="patch_18">
    <path d="M 131.127921 331.44 
L 133.443907 331.44 
L 133.443907 314.726598 
L 131.127921 314.726598 
z
" clip-path="url(#p52af3f089b)" style="fill: #1f77b4; opacity: 0.7; stroke: #000000; stroke-linejoin: miter"/>
   </g>
   <g id="patch_19">
    <path d="M 133.443907 331.44 
L 135.759894 331.44 
L 135.759894 323.481237 
L 133.443907 323.481237 
z
" clip-path="url(#p52af3f089b)" style="fill: #1f77b4; opacity: 0.7; stroke: #000000; stroke-linejoin: miter"/>
   </g>
   <g id="patch_20">
    <path d="M 135.759894 331.44 
L 138.07588 331.44 
L 138.07588 321.889485 
L 135.759894 321.889485 
z
" clip-path="url(#p52af3f089b)" style="fill: #1f77b4; opacity: 0.7; stroke: #000000; stroke-linejoin: miter"/>
   </g>
   <g id="patch_21">
    <path d="M 138.07588 331.44 
L 140.391866 331.44 
L 140.391866 326.664742 
L 138.07588 326.664742 
z
" clip-path="url(#p52af3f089b)" style="fill: #1f77b4; opacity: 0.7; stroke: #000000; stroke-linejoin: miter"/>
   </g>
   <g id="patch_22">
    <path d="M 140.391866 331.44 
L 142.707853 331.44 
L 142.707853 324.277113 
L 140.391866 324.277113 
z
" clip-path="url(#p52af3f089b)" style="fill: #1f77b4; opacity: 0.7; stroke: #000000; stroke-linejoin: miter"/>
   </g>
   <g id="patch_23">
    <path d="M 142.707853 331.44 
L 145.023839 331.44 
L 145.023839 305.176082 
L 142.707853 305.176082 
z
" clip-path="url(#p52af3f089b)" style="fill: #1f77b4; opacity: 0.7; stroke: #000000; stroke-linejoin: miter"/>
   </g>
   <g id="patch_24">
    <path d="M 145.023839 331.44 
L 147.339826 331.44 
L 147.339826 297.21732 
L 145.023839 297.21732 
z
" clip-path="url(#p52af3f089b)" style="fill: #1f77b4; opacity: 0.7; stroke: #000000; stroke-linejoin: miter"/>
   </g>
   <g id="patch_25">
    <path d="M 147.339826 331.44 
L 149.655812 331.44 
L 149.655812 303.58433 
L 147.339826 303.58433 
z
" clip-path="url(#p52af3f089b)" style="fill: #1f77b4; opacity: 0.7; stroke: #000000; stroke-linejoin: miter"/>
   </g>
   <g id="patch_26">
    <path d="M 149.655812 331.44 
L 151.971798 331.44 
L 151.971798 325.868866 
L 149.655812 325.868866 
z
" clip-path="url(#p52af3f089b)" style="fill: #1f77b4; opacity: 0.7; stroke: #000000; stroke-linejoin: miter"/>
   </g>
   <g id="patch_27">
    <path d="M 151.971798 331.44 
L 154.287785 331.44 
L 154.287785 309.95134 
L 151.971798 309.95134 
z
" clip-path="url(#p52af3f089b)" style="fill: #1f77b4; opacity: 0.7; stroke: #000000; stroke-linejoin: miter"/>
   </g>
   <g id="patch_28">
    <path d="M 154.287785 331.44 
L 156.603771 331.44 
L 156.603771 329.848247 
L 154.287785 329.848247 
z
" clip-path="url(#p52af3f089b)" style="fill: #1f77b4; opacity: 0.7; stroke: #000000; stroke-linejoin: miter"/>
   </g>
   <g id="patch_29">
    <path d="M 156.603771 331.44 
L 158.919758 331.44 
L 158.919758 321.889485 
L 156.603771 321.889485 
z
" clip-path="url(#p52af3f089b)" style="fill: #1f77b4; opacity: 0.7; stroke: #000000; stroke-linejoin: miter"/>
   </g>
   <g id="patch_30">
    <path d="M 158.919758 331.44 
L 161.235744 331.44 
L 161.235744 317.114227 
L 158.919758 317.114227 
z
" clip-path="url(#p52af3f089b)" style="fill: #1f77b4; opacity: 0.7; stroke: #000000; stroke-linejoin: miter"/>
   </g>
   <g id="patch_31">
    <path d="M 161.235744 331.44 
L 163.55173 331.44 
L 163.55173 317.114227 
L 161.235744 317.114227 
z
" clip-path="url(#p52af3f089b)" style="fill: #1f77b4; opacity: 0.7; stroke: #000000; stroke-linejoin: miter"/>
   </g>
   <g id="patch_32">
    <path d="M 163.55173 331.44 
L 165.867717 331.44 
L 165.867717 324.277113 
L 163.55173 324.277113 
z
" clip-path="url(#p52af3f089b)" style="fill: #1f77b4; opacity: 0.7; stroke: #000000; stroke-linejoin: miter"/>
   </g>
   <g id="patch_33">
    <path d="M 165.867717 331.44 
L 168.183703 331.44 
L 168.183703 325.07299 
L 165.867717 325.07299 
z
" clip-path="url(#p52af3f089b)" style="fill: #1f77b4; opacity: 0.7; stroke: #000000; stroke-linejoin: miter"/>
   </g>
   <g id="patch_34">
    <path d="M 168.183703 331.44 
L 170.49969 331.44 
L 170.49969 308.359588 
L 168.183703 308.359588 
z
" clip-path="url(#p52af3f089b)" style="fill: #1f77b4; opacity: 0.7; stroke: #000000; stroke-linejoin: miter"/>
   </g>
   <g id="patch_35">
    <path d="M 170.49969 331.44 
L 172.815676 331.44 
L 172.815676 319.501856 
L 170.49969 319.501856 
z
" clip-path="url(#p52af3f089b)" style="fill: #1f77b4; opacity: 0.7; stroke: #000000; stroke-linejoin: miter"/>
   </g>
   <g id="patch_36">
    <path d="M 172.815676 331.44 
L 175.131662 331.44 
L 175.131662 321.093608 
L 172.815676 321.093608 
z
" clip-path="url(#p52af3f089b)" style="fill: #1f77b4; opacity: 0.7; stroke: #000000; stroke-linejoin: miter"/>
   </g>
   <g id="patch_37">
    <path d="M 175.131662 331.44 
L 177.447649 331.44 
L 177.447649 318.705979 
L 175.131662 318.705979 
z
" clip-path="url(#p52af3f089b)" style="fill: #1f77b4; opacity: 0.7; stroke: #000000; stroke-linejoin: miter"/>
   </g>
   <g id="patch_38">
    <path d="M 177.447649 331.44 
L 179.763635 331.44 
L 179.763635 316.318351 
L 177.447649 316.318351 
z
" clip-path="url(#p52af3f089b)" style="fill: #1f77b4; opacity: 0.7; stroke: #000000; stroke-linejoin: miter"/>
   </g>
   <g id="patch_39">
    <path d="M 179.763635 331.44 
L 182.079622 331.44 
L 182.079622 307.563711 
L 179.763635 307.563711 
z
" clip-path="url(#p52af3f089b)" style="fill: #1f77b4; opacity: 0.7; stroke: #000000; stroke-linejoin: miter"/>
   </g>
   <g id="patch_40">
    <path d="M 182.079622 331.44 
L 184.395608 331.44 
L 184.395608 134.858557 
L 182.079622 134.858557 
z
" clip-path="url(#p52af3f089b)" style="fill: #1f77b4; opacity: 0.7; stroke: #000000; stroke-linejoin: miter"/>
   </g>
   <g id="patch_41">
    <path d="M 184.395608 331.44 
L 186.711594 331.44 
L 186.711594 155.55134 
L 184.395608 155.55134 
z
" clip-path="url(#p52af3f089b)" style="fill: #1f77b4; opacity: 0.7; stroke: #000000; stroke-linejoin: miter"/>
   </g>
   <g id="patch_42">
    <path d="M 186.711594 331.44 
L 189.027581 331.44 
L 189.027581 149.980206 
L 186.711594 149.980206 
z
" clip-path="url(#p52af3f089b)" style="fill: #1f77b4; opacity: 0.7; stroke: #000000; stroke-linejoin: miter"/>
   </g>
   <g id="patch_43">
    <path d="M 189.027581 331.44 
L 191.343567 331.44 
L 191.343567 140.429691 
L 189.027581 140.429691 
z
" clip-path="url(#p52af3f089b)" style="fill: #1f77b4; opacity: 0.7; stroke: #000000; stroke-linejoin: miter"/>
   </g>
   <g id="patch_44">
    <path d="M 191.343567 331.44 
L 193.659554 331.44 
L 193.659554 124.512165 
L 191.343567 124.512165 
z
" clip-path="url(#p52af3f089b)" style="fill: #1f77b4; opacity: 0.7; stroke: #000000; stroke-linejoin: miter"/>
   </g>
   <g id="patch_45">
    <path d="M 193.659554 331.44 
L 195.97554 331.44 
L 195.97554 159.530722 
L 193.659554 159.530722 
z
" clip-path="url(#p52af3f089b)" style="fill: #1f77b4; opacity: 0.7; stroke: #000000; stroke-linejoin: miter"/>
   </g>
   <g id="patch_46">
    <path d="M 195.97554 331.44 
L 198.291526 331.44 
L 198.291526 326.664742 
L 195.97554 326.664742 
z
" clip-path="url(#p52af3f089b)" style="fill: #1f77b4; opacity: 0.7; stroke: #000000; stroke-linejoin: miter"/>
   </g>
   <g id="patch_47">
    <path d="M 198.291526 331.44 
L 200.607513 331.44 
L 200.607513 328.256495 
L 198.291526 328.256495 
z
" clip-path="url(#p52af3f089b)" style="fill: #1f77b4; opacity: 0.7; stroke: #000000; stroke-linejoin: miter"/>
   </g>
   <g id="patch_48">
    <path d="M 200.607513 331.44 
L 202.923499 331.44 
L 202.923499 321.889485 
L 200.607513 321.889485 
z
" clip-path="url(#p52af3f089b)" style="fill: #1f77b4; opacity: 0.7; stroke: #000000; stroke-linejoin: miter"/>
   </g>
   <g id="patch_49">
    <path d="M 202.923499 331.44 
L 205.239486 331.44 
L 205.239486 268.565773 
L 202.923499 268.565773 
z
" clip-path="url(#p52af3f089b)" style="fill: #1f77b4; opacity: 0.7; stroke: #000000; stroke-linejoin: miter"/>
   </g>
   <g id="patch_50">
    <path d="M 205.239486 331.44 
L 207.555472 331.44 
L 207.555472 165.101856 
L 205.239486 165.101856 
z
" clip-path="url(#p52af3f089b)" style="fill: #1f77b4; opacity: 0.7; stroke: #000000; stroke-linejoin: miter"/>
   </g>
   <g id="patch_51">
    <path d="M 207.555472 331.44 
L 209.871458 331.44 
L 209.871458 162.714227 
L 207.555472 162.714227 
z
" clip-path="url(#p52af3f089b)" style="fill: #1f77b4; opacity: 0.7; stroke: #000000; stroke-linejoin: miter"/>
   </g>
   <g id="patch_52">
    <path d="M 209.871458 331.44 
L 212.187445 331.44 
L 212.187445 174.652371 
L 209.871458 174.652371 
z
" clip-path="url(#p52af3f089b)" style="fill: #1f77b4; opacity: 0.7; stroke: #000000; stroke-linejoin: miter"/>
   </g>
   <g id="patch_53">
    <path d="M 212.187445 331.44 
L 214.503431 331.44 
L 214.503431 239.914227 
L 212.187445 239.914227 
z
" clip-path="url(#p52af3f089b)" style="fill: #1f77b4; opacity: 0.7; stroke: #000000; stroke-linejoin: miter"/>
   </g>
   <g id="patch_54">
    <path d="M 214.503431 331.44 
L 216.819418 331.44 
L 216.819418 237.526598 
L 214.503431 237.526598 
z
" clip-path="url(#p52af3f089b)" style="fill: #1f77b4; opacity: 0.7; stroke: #000000; stroke-linejoin: miter"/>
   </g>
   <g id="patch_55">
    <path d="M 216.819418 331.44 
L 219.135404 331.44 
L 219.135404 230.363711 
L 216.819418 230.363711 
z
" clip-path="url(#p52af3f089b)" style="fill: #1f77b4; opacity: 0.7; stroke: #000000; stroke-linejoin: miter"/>
   </g>
   <g id="patch_56">
    <path d="M 219.135404 331.44 
L 221.45139 331.44 
L 221.45139 208.079175 
L 219.135404 208.079175 
z
" clip-path="url(#p52af3f089b)" style="fill: #1f77b4; opacity: 0.7; stroke: #000000; stroke-linejoin: miter"/>
   </g>
   <g id="patch_57">
    <path d="M 221.45139 331.44 
L 223.767377 331.44 
L 223.767377 196.141031 
L 221.45139 196.141031 
z
" clip-path="url(#p52af3f089b)" style="fill: #1f77b4; opacity: 0.7; stroke: #000000; stroke-linejoin: miter"/>
   </g>
   <g id="patch_58">
    <path d="M 223.767377 331.44 
L 226.083363 331.44 
L 226.083363 183.40701 
L 223.767377 183.40701 
z
" clip-path="url(#p52af3f089b)" style="fill: #1f77b4; opacity: 0.7; stroke: #000000; stroke-linejoin: miter"/>
   </g>
   <g id="patch_59">
    <path d="M 226.083363 331.44 
L 228.399349 331.44 
L 228.399349 172.264742 
L 226.083363 172.264742 
z
" clip-path="url(#p52af3f089b)" style="fill: #1f77b4; opacity: 0.7; stroke: #000000; stroke-linejoin: miter"/>
   </g>
   <g id="patch_60">
    <path d="M 228.399349 331.44 
L 230.715336 331.44 
L 230.715336 197.732784 
L 228.399349 197.732784 
z
" clip-path="url(#p52af3f089b)" style="fill: #1f77b4; opacity: 0.7; stroke: #000000; stroke-linejoin: miter"/>
   </g>
   <g id="patch_61">
    <path d="M 230.715336 331.44 
L 233.031322 331.44 
L 233.031322 201.712165 
L 230.715336 201.712165 
z
" clip-path="url(#p52af3f089b)" style="fill: #1f77b4; opacity: 0.7; stroke: #000000; stroke-linejoin: miter"/>
   </g>
   <g id="patch_62">
    <path d="M 233.031322 331.44 
L 235.347309 331.44 
L 235.347309 221.609072 
L 233.031322 221.609072 
z
" clip-path="url(#p52af3f089b)" style="fill: #1f77b4; opacity: 0.7; stroke: #000000; stroke-linejoin: miter"/>
   </g>
   <g id="patch_63">
    <path d="M 235.347309 331.44 
L 237.663295 331.44 
L 237.663295 284.483299 
L 235.347309 284.483299 
z
" clip-path="url(#p52af3f089b)" style="fill: #1f77b4; opacity: 0.7; stroke: #000000; stroke-linejoin: miter"/>
   </g>
   <g id="patch_64">
    <path d="M 237.663295 331.44 
L 239.979281 331.44 
L 239.979281 216.037938 
L 237.663295 216.037938 
z
" clip-path="url(#p52af3f089b)" style="fill: #1f77b4; opacity: 0.7; stroke: #000000; stroke-linejoin: miter"/>
   </g>
   <g id="patch_65">
    <path d="M 239.979281 331.44 
L 242.295268 331.44 
L 242.295268 220.01732 
L 239.979281 220.01732 
z
" clip-path="url(#p52af3f089b)" style="fill: #1f77b4; opacity: 0.7; stroke: #000000; stroke-linejoin: miter"/>
   </g>
   <g id="patch_66">
    <path d="M 242.295268 331.44 
L 244.611254 331.44 
L 244.611254 191.365773 
L 242.295268 191.365773 
z
" clip-path="url(#p52af3f089b)" style="fill: #1f77b4; opacity: 0.7; stroke: #000000; stroke-linejoin: miter"/>
   </g>
   <g id="patch_67">
    <path d="M 244.611254 331.44 
L 246.927241 331.44 
L 246.927241 138.042062 
L 244.611254 138.042062 
z
" clip-path="url(#p52af3f089b)" style="fill: #1f77b4; opacity: 0.7; stroke: #000000; stroke-linejoin: miter"/>
   </g>
   <g id="patch_68">
    <path d="M 246.927241 331.44 
L 249.243227 331.44 
L 249.243227 176.244124 
L 246.927241 176.244124 
z
" clip-path="url(#p52af3f089b)" style="fill: #1f77b4; opacity: 0.7; stroke: #000000; stroke-linejoin: miter"/>
   </g>
   <g id="patch_69">
    <path d="M 249.243227 331.44 
L 251.559213 331.44 
L 251.559213 276.524536 
L 249.243227 276.524536 
z
" clip-path="url(#p52af3f089b)" style="fill: #1f77b4; opacity: 0.7; stroke: #000000; stroke-linejoin: miter"/>
   </g>
   <g id="patch_70">
    <path d="M 251.559213 331.44 
L 253.8752 331.44 
L 253.8752 207.283299 
L 251.559213 207.283299 
z
" clip-path="url(#p52af3f089b)" style="fill: #1f77b4; opacity: 0.7; stroke: #000000; stroke-linejoin: miter"/>
   </g>
   <g id="patch_71">
    <path d="M 253.8752 331.44 
L 256.191186 331.44 
L 256.191186 203.303918 
L 253.8752 203.303918 
z
" clip-path="url(#p52af3f089b)" style="fill: #1f77b4; opacity: 0.7; stroke: #000000; stroke-linejoin: miter"/>
   </g>
   <g id="patch_72">
    <path d="M 256.191186 331.44 
L 258.507173 331.44 
L 258.507173 150.776082 
L 256.191186 150.776082 
z
" clip-path="url(#p52af3f089b)" style="fill: #1f77b4; opacity: 0.7; stroke: #000000; stroke-linejoin: miter"/>
   </g>
   <g id="patch_73">
    <path d="M 258.507173 331.44 
L 260.823159 331.44 
L 260.823159 188.182268 
L 258.507173 188.182268 
z
" clip-path="url(#p52af3f089b)" style="fill: #1f77b4; opacity: 0.7; stroke: #000000; stroke-linejoin: miter"/>
   </g>
   <g id="patch_74">
    <path d="M 260.823159 331.44 
L 263.139145 331.44 
L 263.139145 209.670928 
L 260.823159 209.670928 
z
" clip-path="url(#p52af3f089b)" style="fill: #1f77b4; opacity: 0.7; stroke: #000000; stroke-linejoin: miter"/>
   </g>
   <g id="patch_75">
    <path d="M 263.139145 331.44 
L 265.455132 331.44 
L 265.455132 138.042062 
L 263.139145 138.042062 
z
" clip-path="url(#p52af3f089b)" style="fill: #1f77b4; opacity: 0.7; stroke: #000000; stroke-linejoin: miter"/>
   </g>
   <g id="patch_76">
    <path d="M 265.455132 331.44 
L 267.771118 331.44 
L 267.771118 181.019381 
L 265.455132 181.019381 
z
" clip-path="url(#p52af3f089b)" style="fill: #1f77b4; opacity: 0.7; stroke: #000000; stroke-linejoin: miter"/>
   </g>
   <g id="patch_77">
    <path d="M 267.771118 331.44 
L 270.087105 331.44 
L 270.087105 161.122474 
L 267.771118 161.122474 
z
" clip-path="url(#p52af3f089b)" style="fill: #1f77b4; opacity: 0.7; stroke: #000000; stroke-linejoin: miter"/>
   </g>
   <g id="patch_78">
    <path d="M 270.087105 331.44 
L 272.403091 331.44 
L 272.403091 150.776082 
L 270.087105 150.776082 
z
" clip-path="url(#p52af3f089b)" style="fill: #1f77b4; opacity: 0.7; stroke: #000000; stroke-linejoin: miter"/>
   </g>
   <g id="patch_79">
    <path d="M 272.403091 331.44 
L 274.719077 331.44 
L 274.719077 138.042062 
L 272.403091 138.042062 
z
" clip-path="url(#p52af3f089b)" style="fill: #1f77b4; opacity: 0.7; stroke: #000000; stroke-linejoin: miter"/>
   </g>
   <g id="patch_80">
    <path d="M 274.719077 331.44 
L 277.035064 331.44 
L 277.035064 198.52866 
L 274.719077 198.52866 
z
" clip-path="url(#p52af3f089b)" style="fill: #1f77b4; opacity: 0.7; stroke: #000000; stroke-linejoin: miter"/>
   </g>
   <g id="patch_81">
    <path d="M 277.035064 331.44 
L 279.35105 331.44 
L 279.35105 166.693608 
L 277.035064 166.693608 
z
" clip-path="url(#p52af3f089b)" style="fill: #1f77b4; opacity: 0.7; stroke: #000000; stroke-linejoin: miter"/>
   </g>
   <g id="patch_82">
    <path d="M 279.35105 331.44 
L 281.667037 331.44 
L 281.667037 174.652371 
L 279.35105 174.652371 
z
" clip-path="url(#p52af3f089b)" style="fill: #1f77b4; opacity: 0.7; stroke: #000000; stroke-linejoin: miter"/>
   </g>
   <g id="patch_83">
    <path d="M 281.667037 331.44 
L 283.983023 331.44 
L 283.983023 145.204948 
L 281.667037 145.204948 
z
" clip-path="url(#p52af3f089b)" style="fill: #1f77b4; opacity: 0.7; stroke: #000000; stroke-linejoin: miter"/>
   </g>
   <g id="patch_84">
    <path d="M 283.983023 331.44 
L 286.299009 331.44 
L 286.299009 157.143093 
L 283.983023 157.143093 
z
" clip-path="url(#p52af3f089b)" style="fill: #1f77b4; opacity: 0.7; stroke: #000000; stroke-linejoin: miter"/>
   </g>
   <g id="patch_85">
    <path d="M 286.299009 331.44 
L 288.614996 331.44 
L 288.614996 149.18433 
L 286.299009 149.18433 
z
" clip-path="url(#p52af3f089b)" style="fill: #1f77b4; opacity: 0.7; stroke: #000000; stroke-linejoin: miter"/>
   </g>
   <g id="patch_86">
    <path d="M 288.614996 331.44 
L 290.930982 331.44 
L 290.930982 189.774021 
L 288.614996 189.774021 
z
" clip-path="url(#p52af3f089b)" style="fill: #1f77b4; opacity: 0.7; stroke: #000000; stroke-linejoin: miter"/>
   </g>
   <g id="patch_87">
    <path d="M 290.930982 331.44 
L 293.246969 331.44 
L 293.246969 182.611134 
L 290.930982 182.611134 
z
" clip-path="url(#p52af3f089b)" style="fill: #1f77b4; opacity: 0.7; stroke: #000000; stroke-linejoin: miter"/>
   </g>
   <g id="patch_88">
    <path d="M 293.246969 331.44 
L 295.562955 331.44 
L 295.562955 202.508041 
L 293.246969 202.508041 
z
" clip-path="url(#p52af3f089b)" style="fill: #1f77b4; opacity: 0.7; stroke: #000000; stroke-linejoin: miter"/>
   </g>
   <g id="patch_89">
    <path d="M 295.562955 331.44 
L 297.878941 331.44 
L 297.878941 162.714227 
L 295.562955 162.714227 
z
" clip-path="url(#p52af3f089b)" style="fill: #1f77b4; opacity: 0.7; stroke: #000000; stroke-linejoin: miter"/>
   </g>
   <g id="patch_90">
    <path d="M 297.878941 331.44 
L 300.194928 331.44 
L 300.194928 145.204948 
L 297.878941 145.204948 
z
" clip-path="url(#p52af3f089b)" style="fill: #1f77b4; opacity: 0.7; stroke: #000000; stroke-linejoin: miter"/>
   </g>
   <g id="patch_91">
    <path d="M 300.194928 331.44 
L 302.510914 331.44 
L 302.510914 171.468866 
L 300.194928 171.468866 
z
" clip-path="url(#p52af3f089b)" style="fill: #1f77b4; opacity: 0.7; stroke: #000000; stroke-linejoin: miter"/>
   </g>
   <g id="patch_92">
    <path d="M 302.510914 331.44 
L 304.826901 331.44 
L 304.826901 158.734845 
L 302.510914 158.734845 
z
" clip-path="url(#p52af3f089b)" style="fill: #1f77b4; opacity: 0.7; stroke: #000000; stroke-linejoin: miter"/>
   </g>
   <g id="patch_93">
    <path d="M 304.826901 331.44 
L 307.142887 331.44 
L 307.142887 206.487423 
L 304.826901 206.487423 
z
" clip-path="url(#p52af3f089b)" style="fill: #1f77b4; opacity: 0.7; stroke: #000000; stroke-linejoin: miter"/>
   </g>
   <g id="patch_94">
    <path d="M 307.142887 331.44 
L 309.458873 331.44 
L 309.458873 110.186392 
L 307.142887 110.186392 
z
" clip-path="url(#p52af3f089b)" style="fill: #1f77b4; opacity: 0.7; stroke: #000000; stroke-linejoin: miter"/>
   </g>
   <g id="patch_95">
    <path d="M 309.458873 331.44 
L 311.77486 331.44 
L 311.77486 101.431753 
L 309.458873 101.431753 
z
" clip-path="url(#p52af3f089b)" style="fill: #1f77b4; opacity: 0.7; stroke: #000000; stroke-linejoin: miter"/>
   </g>
   <g id="patch_96">
    <path d="M 311.77486 331.44 
L 314.090846 331.44 
L 314.090846 146.796701 
L 311.77486 146.796701 
z
" clip-path="url(#p52af3f089b)" style="fill: #1f77b4; opacity: 0.7; stroke: #000000; stroke-linejoin: miter"/>
   </g>
   <g id="patch_97">
    <path d="M 314.090846 331.44 
L 316.406832 331.44 
L 316.406832 200.120412 
L 314.090846 200.120412 
z
" clip-path="url(#p52af3f089b)" style="fill: #1f77b4; opacity: 0.7; stroke: #000000; stroke-linejoin: miter"/>
   </g>
   <g id="patch_98">
    <path d="M 316.406832 331.44 
L 318.722819 331.44 
L 318.722819 168.285361 
L 316.406832 168.285361 
z
" clip-path="url(#p52af3f089b)" style="fill: #1f77b4; opacity: 0.7; stroke: #000000; stroke-linejoin: miter"/>
   </g>
   <g id="patch_99">
    <path d="M 318.722819 331.44 
L 321.038805 331.44 
L 321.038805 227.180206 
L 318.722819 227.180206 
z
" clip-path="url(#p52af3f089b)" style="fill: #1f77b4; opacity: 0.7; stroke: #000000; stroke-linejoin: miter"/>
   </g>
   <g id="patch_100">
    <path d="M 321.038805 331.44 
L 323.354792 331.44 
L 323.354792 220.813196 
L 321.038805 220.813196 
z
" clip-path="url(#p52af3f089b)" style="fill: #1f77b4; opacity: 0.7; stroke: #000000; stroke-linejoin: miter"/>
   </g>
   <g id="patch_101">
    <path d="M 323.354792 331.44 
L 325.670778 331.44 
L 325.670778 180.223505 
L 323.354792 180.223505 
z
" clip-path="url(#p52af3f089b)" style="fill: #1f77b4; opacity: 0.7; stroke: #000000; stroke-linejoin: miter"/>
   </g>
   <g id="patch_102">
    <path d="M 325.670778 331.44 
L 327.986764 331.44 
L 327.986764 181.815258 
L 325.670778 181.815258 
z
" clip-path="url(#p52af3f089b)" style="fill: #1f77b4; opacity: 0.7; stroke: #000000; stroke-linejoin: miter"/>
   </g>
   <g id="patch_103">
    <path d="M 327.986764 331.44 
L 330.302751 331.44 
L 330.302751 231.955464 
L 327.986764 231.955464 
z
" clip-path="url(#p52af3f089b)" style="fill: #1f77b4; opacity: 0.7; stroke: #000000; stroke-linejoin: miter"/>
   </g>
   <g id="patch_104">
    <path d="M 330.302751 331.44 
L 332.618737 331.44 
L 332.618737 204.099794 
L 330.302751 204.099794 
z
" clip-path="url(#p52af3f089b)" style="fill: #1f77b4; opacity: 0.7; stroke: #000000; stroke-linejoin: miter"/>
   </g>
   <g id="patch_105">
    <path d="M 332.618737 331.44 
L 334.934724 331.44 
L 334.934724 256.627629 
L 332.618737 256.627629 
z
" clip-path="url(#p52af3f089b)" style="fill: #1f77b4; opacity: 0.7; stroke: #000000; stroke-linejoin: miter"/>
   </g>
   <g id="patch_106">
    <path d="M 334.934724 331.44 
L 337.25071 331.44 
L 337.25071 231.955464 
L 334.934724 231.955464 
z
" clip-path="url(#p52af3f089b)" style="fill: #1f77b4; opacity: 0.7; stroke: #000000; stroke-linejoin: miter"/>
   </g>
   <g id="patch_107">
    <path d="M 337.25071 331.44 
L 339.566696 331.44 
L 339.566696 261.402887 
L 337.25071 261.402887 
z
" clip-path="url(#p52af3f089b)" style="fill: #1f77b4; opacity: 0.7; stroke: #000000; stroke-linejoin: miter"/>
   </g>
   <g id="patch_108">
    <path d="M 339.566696 331.44 
L 341.882683 331.44 
L 341.882683 245.485361 
L 339.566696 245.485361 
z
" clip-path="url(#p52af3f089b)" style="fill: #1f77b4; opacity: 0.7; stroke: #000000; stroke-linejoin: miter"/>
   </g>
   <g id="patch_109">
    <path d="M 341.882683 331.44 
L 344.198669 331.44 
L 344.198669 268.565773 
L 341.882683 268.565773 
z
" clip-path="url(#p52af3f089b)" style="fill: #1f77b4; opacity: 0.7; stroke: #000000; stroke-linejoin: miter"/>
   </g>
   <g id="patch_110">
    <path d="M 344.198669 331.44 
L 346.514656 331.44 
L 346.514656 272.545155 
L 344.198669 272.545155 
z
" clip-path="url(#p52af3f089b)" style="fill: #1f77b4; opacity: 0.7; stroke: #000000; stroke-linejoin: miter"/>
   </g>
   <g id="patch_111">
    <path d="M 346.514656 331.44 
L 348.830642 331.44 
L 348.830642 255.831753 
L 346.514656 255.831753 
z
" clip-path="url(#p52af3f089b)" style="fill: #1f77b4; opacity: 0.7; stroke: #000000; stroke-linejoin: miter"/>
   </g>
   <g id="patch_112">
    <path d="M 348.830642 331.44 
L 351.146628 331.44 
L 351.146628 274.136907 
L 348.830642 274.136907 
z
" clip-path="url(#p52af3f089b)" style="fill: #1f77b4; opacity: 0.7; stroke: #000000; stroke-linejoin: miter"/>
   </g>
   <g id="patch_113">
    <path d="M 351.146628 331.44 
L 353.462615 331.44 
L 353.462615 261.402887 
L 351.146628 261.402887 
z
" clip-path="url(#p52af3f089b)" style="fill: #1f77b4; opacity: 0.7; stroke: #000000; stroke-linejoin: miter"/>
   </g>
   <g id="patch_114">
    <path d="M 353.462615 331.44 
L 355.778601 331.44 
L 355.778601 311.543093 
L 353.462615 311.543093 
z
" clip-path="url(#p52af3f089b)" style="fill: #1f77b4; opacity: 0.7; stroke: #000000; stroke-linejoin: miter"/>
   </g>
   <g id="patch_115">
    <path d="M 355.778601 331.44 
L 358.094588 331.44 
L 358.094588 289.258557 
L 355.778601 289.258557 
z
" clip-path="url(#p52af3f089b)" style="fill: #1f77b4; opacity: 0.7; stroke: #000000; stroke-linejoin: miter"/>
   </g>
   <g id="patch_116">
    <path d="M 358.094588 331.44 
L 360.410574 331.44 
L 360.410574 288.46268 
L 358.094588 288.46268 
z
" clip-path="url(#p52af3f089b)" style="fill: #1f77b4; opacity: 0.7; stroke: #000000; stroke-linejoin: miter"/>
   </g>
   <g id="patch_117">
    <path d="M 360.410574 331.44 
L 362.72656 331.44 
L 362.72656 292.442062 
L 360.410574 292.442062 
z
" clip-path="url(#p52af3f089b)" style="fill: #1f77b4; opacity: 0.7; stroke: #000000; stroke-linejoin: miter"/>
   </g>
   <g id="patch_118">
    <path d="M 362.72656 331.44 
L 365.042547 331.44 
L 365.042547 259.015258 
L 362.72656 259.015258 
z
" clip-path="url(#p52af3f089b)" style="fill: #1f77b4; opacity: 0.7; stroke: #000000; stroke-linejoin: miter"/>
   </g>
   <g id="patch_119">
    <path d="M 365.042547 331.44 
L 367.358533 331.44 
L 367.358533 247.87299 
L 365.042547 247.87299 
z
" clip-path="url(#p52af3f089b)" style="fill: #1f77b4; opacity: 0.7; stroke: #000000; stroke-linejoin: miter"/>
   </g>
   <g id="patch_120">
    <path d="M 367.358533 331.44 
L 369.67452 331.44 
L 369.67452 284.483299 
L 367.358533 284.483299 
z
" clip-path="url(#p52af3f089b)" style="fill: #1f77b4; opacity: 0.7; stroke: #000000; stroke-linejoin: miter"/>
   </g>
   <g id="patch_121">
    <path d="M 369.67452 331.44 
L 371.990506 331.44 
L 371.990506 231.159588 
L 369.67452 231.159588 
z
" clip-path="url(#p52af3f089b)" style="fill: #1f77b4; opacity: 0.7; stroke: #000000; stroke-linejoin: miter"/>
   </g>
   <g id="patch_122">
    <path d="M 371.990506 331.44 
L 374.306492 331.44 
L 374.306492 251.852371 
L 371.990506 251.852371 
z
" clip-path="url(#p52af3f089b)" style="fill: #1f77b4; opacity: 0.7; stroke: #000000; stroke-linejoin: miter"/>
   </g>
   <g id="patch_123">
    <path d="M 374.306492 331.44 
L 376.622479 331.44 
L 376.622479 235.934845 
L 374.306492 235.934845 
z
" clip-path="url(#p52af3f089b)" style="fill: #1f77b4; opacity: 0.7; stroke: #000000; stroke-linejoin: miter"/>
   </g>
   <g id="patch_124">
    <path d="M 376.622479 331.44 
L 378.938465 331.44 
L 378.938465 317.114227 
L 376.622479 317.114227 
z
" clip-path="url(#p52af3f089b)" style="fill: #1f77b4; opacity: 0.7; stroke: #000000; stroke-linejoin: miter"/>
   </g>
   <g id="patch_125">
    <path d="M 378.938465 331.44 
L 381.254452 331.44 
L 381.254452 309.95134 
L 378.938465 309.95134 
z
" clip-path="url(#p52af3f089b)" style="fill: #1f77b4; opacity: 0.7; stroke: #000000; stroke-linejoin: miter"/>
   </g>
   <g id="patch_126">
    <path d="M 381.254452 331.44 
L 383.570438 331.44 
L 383.570438 244.689485 
L 381.254452 244.689485 
z
" clip-path="url(#p52af3f089b)" style="fill: #1f77b4; opacity: 0.7; stroke: #000000; stroke-linejoin: miter"/>
   </g>
   <g id="patch_127">
    <path d="M 383.570438 331.44 
L 385.886424 331.44 
L 385.886424 226.38433 
L 383.570438 226.38433 
z
" clip-path="url(#p52af3f089b)" style="fill: #1f77b4; opacity: 0.7; stroke: #000000; stroke-linejoin: miter"/>
   </g>
   <g id="patch_128">
    <path d="M 385.886424 331.44 
L 388.202411 331.44 
L 388.202411 219.221443 
L 385.886424 219.221443 
z
" clip-path="url(#p52af3f089b)" style="fill: #1f77b4; opacity: 0.7; stroke: #000000; stroke-linejoin: miter"/>
   </g>
   <g id="patch_129">
    <path d="M 388.202411 331.44 
L 390.518397 331.44 
L 390.518397 168.285361 
L 388.202411 168.285361 
z
" clip-path="url(#p52af3f089b)" style="fill: #1f77b4; opacity: 0.7; stroke: #000000; stroke-linejoin: miter"/>
   </g>
   <g id="patch_130">
    <path d="M 390.518397 331.44 
L 392.834384 331.44 
L 392.834384 200.120412 
L 390.518397 200.120412 
z
" clip-path="url(#p52af3f089b)" style="fill: #1f77b4; opacity: 0.7; stroke: #000000; stroke-linejoin: miter"/>
   </g>
   <g id="patch_131">
    <path d="M 392.834384 331.44 
L 395.15037 331.44 
L 395.15037 200.120412 
L 392.834384 200.120412 
z
" clip-path="url(#p52af3f089b)" style="fill: #1f77b4; opacity: 0.7; stroke: #000000; stroke-linejoin: miter"/>
   </g>
   <g id="patch_132">
    <path d="M 395.15037 331.44 
L 397.466356 331.44 
L 397.466356 216.833814 
L 395.15037 216.833814 
z
" clip-path="url(#p52af3f089b)" style="fill: #1f77b4; opacity: 0.7; stroke: #000000; stroke-linejoin: miter"/>
   </g>
   <g id="patch_133">
    <path d="M 397.466356 331.44 
L 399.782343 331.44 
L 399.782343 217.629691 
L 397.466356 217.629691 
z
" clip-path="url(#p52af3f089b)" style="fill: #1f77b4; opacity: 0.7; stroke: #000000; stroke-linejoin: miter"/>
   </g>
   <g id="patch_134">
    <path d="M 399.782343 331.44 
L 402.098329 331.44 
L 402.098329 224.792577 
L 399.782343 224.792577 
z
" clip-path="url(#p52af3f089b)" style="fill: #1f77b4; opacity: 0.7; stroke: #000000; stroke-linejoin: miter"/>
   </g>
   <g id="patch_135">
    <path d="M 402.098329 331.44 
L 404.414315 331.44 
L 404.414315 244.689485 
L 402.098329 244.689485 
z
" clip-path="url(#p52af3f089b)" style="fill: #1f77b4; opacity: 0.7; stroke: #000000; stroke-linejoin: miter"/>
   </g>
   <g id="patch_136">
    <path d="M 404.414315 331.44 
L 406.730302 331.44 
L 406.730302 229.567835 
L 404.414315 229.567835 
z
" clip-path="url(#p52af3f089b)" style="fill: #1f77b4; opacity: 0.7; stroke: #000000; stroke-linejoin: miter"/>
   </g>
   <g id="patch_137">
    <path d="M 406.730302 331.44 
L 409.046288 331.44 
L 409.046288 246.281237 
L 406.730302 246.281237 
z
" clip-path="url(#p52af3f089b)" style="fill: #1f77b4; opacity: 0.7; stroke: #000000; stroke-linejoin: miter"/>
   </g>
   <g id="patch_138">
    <path d="M 409.046288 331.44 
L 411.362275 331.44 
L 411.362275 271.749278 
L 409.046288 271.749278 
z
" clip-path="url(#p52af3f089b)" style="fill: #1f77b4; opacity: 0.7; stroke: #000000; stroke-linejoin: miter"/>
   </g>
   <g id="patch_139">
    <path d="M 411.362275 331.44 
L 413.678261 331.44 
L 413.678261 190.569897 
L 411.362275 190.569897 
z
" clip-path="url(#p52af3f089b)" style="fill: #1f77b4; opacity: 0.7; stroke: #000000; stroke-linejoin: miter"/>
   </g>
   <g id="patch_140">
    <path d="M 413.678261 331.44 
L 415.994247 331.44 
L 415.994247 220.813196 
L 413.678261 220.813196 
z
" clip-path="url(#p52af3f089b)" style="fill: #1f77b4; opacity: 0.7; stroke: #000000; stroke-linejoin: miter"/>
   </g>
   <g id="patch_141">
    <path d="M 415.994247 331.44 
L 418.310234 331.44 
L 418.310234 239.118351 
L 415.994247 239.118351 
z
" clip-path="url(#p52af3f089b)" style="fill: #1f77b4; opacity: 0.7; stroke: #000000; stroke-linejoin: miter"/>
   </g>
   <g id="patch_142">
    <path d="M 418.310234 331.44 
L 420.62622 331.44 
L 420.62622 247.077113 
L 418.310234 247.077113 
z
" clip-path="url(#p52af3f089b)" style="fill: #1f77b4; opacity: 0.7; stroke: #000000; stroke-linejoin: miter"/>
   </g>
   <g id="patch_143">
    <path d="M 420.62622 331.44 
L 422.942207 331.44 
L 422.942207 235.934845 
L 420.62622 235.934845 
z
" clip-path="url(#p52af3f089b)" style="fill: #1f77b4; opacity: 0.7; stroke: #000000; stroke-linejoin: miter"/>
   </g>
   <g id="patch_144">
    <path d="M 422.942207 331.44 
L 425.258193 331.44 
L 425.258193 236.730722 
L 422.942207 236.730722 
z
" clip-path="url(#p52af3f089b)" style="fill: #1f77b4; opacity: 0.7; stroke: #000000; stroke-linejoin: miter"/>
   </g>
   <g id="patch_145">
    <path d="M 425.258193 331.44 
L 427.574179 331.44 
L 427.574179 212.854433 
L 425.258193 212.854433 
z
" clip-path="url(#p52af3f089b)" style="fill: #1f77b4; opacity: 0.7; stroke: #000000; stroke-linejoin: miter"/>
   </g>
   <g id="patch_146">
    <path d="M 427.574179 331.44 
L 429.890166 331.44 
L 429.890166 257.423505 
L 427.574179 257.423505 
z
" clip-path="url(#p52af3f089b)" style="fill: #1f77b4; opacity: 0.7; stroke: #000000; stroke-linejoin: miter"/>
   </g>
   <g id="patch_147">
    <path d="M 429.890166 331.44 
L 432.206152 331.44 
L 432.206152 201.712165 
L 429.890166 201.712165 
z
" clip-path="url(#p52af3f089b)" style="fill: #1f77b4; opacity: 0.7; stroke: #000000; stroke-linejoin: miter"/>
   </g>
   <g id="patch_148">
    <path d="M 432.206152 331.44 
L 434.522139 331.44 
L 434.522139 204.89567 
L 432.206152 204.89567 
z
" clip-path="url(#p52af3f089b)" style="fill: #1f77b4; opacity: 0.7; stroke: #000000; stroke-linejoin: miter"/>
   </g>
   <g id="patch_149">
    <path d="M 434.522139 331.44 
L 436.838125 331.44 
L 436.838125 206.487423 
L 434.522139 206.487423 
z
" clip-path="url(#p52af3f089b)" style="fill: #1f77b4; opacity: 0.7; stroke: #000000; stroke-linejoin: miter"/>
   </g>
   <g id="patch_150">
    <path d="M 436.838125 331.44 
L 439.154111 331.44 
L 439.154111 251.056495 
L 436.838125 251.056495 
z
" clip-path="url(#p52af3f089b)" style="fill: #1f77b4; opacity: 0.7; stroke: #000000; stroke-linejoin: miter"/>
   </g>
   <g id="patch_151">
    <path d="M 439.154111 331.44 
L 441.470098 331.44 
L 441.470098 200.916289 
L 439.154111 200.916289 
z
" clip-path="url(#p52af3f089b)" style="fill: #1f77b4; opacity: 0.7; stroke: #000000; stroke-linejoin: miter"/>
   </g>
   <g id="patch_152">
    <path d="M 441.470098 331.44 
L 443.786084 331.44 
L 443.786084 228.771959 
L 441.470098 228.771959 
z
" clip-path="url(#p52af3f089b)" style="fill: #1f77b4; opacity: 0.7; stroke: #000000; stroke-linejoin: miter"/>
   </g>
   <g id="patch_153">
    <path d="M 443.786084 331.44 
L 446.102071 331.44 
L 446.102071 233.547216 
L 443.786084 233.547216 
z
" clip-path="url(#p52af3f089b)" style="fill: #1f77b4; opacity: 0.7; stroke: #000000; stroke-linejoin: miter"/>
   </g>
   <g id="patch_154">
    <path d="M 446.102071 331.44 
L 448.418057 331.44 
L 448.418057 220.01732 
L 446.102071 220.01732 
z
" clip-path="url(#p52af3f089b)" style="fill: #1f77b4; opacity: 0.7; stroke: #000000; stroke-linejoin: miter"/>
   </g>
   <g id="patch_155">
    <path d="M 448.418057 331.44 
L 450.734043 331.44 
L 450.734043 253.444124 
L 448.418057 253.444124 
z
" clip-path="url(#p52af3f089b)" style="fill: #1f77b4; opacity: 0.7; stroke: #000000; stroke-linejoin: miter"/>
   </g>
   <g id="patch_156">
    <path d="M 450.734043 331.44 
L 453.05003 331.44 
L 453.05003 214.446186 
L 450.734043 214.446186 
z
" clip-path="url(#p52af3f089b)" style="fill: #1f77b4; opacity: 0.7; stroke: #000000; stroke-linejoin: miter"/>
   </g>
   <g id="patch_157">
    <path d="M 453.05003 331.44 
L 455.366016 331.44 
L 455.366016 278.116289 
L 453.05003 278.116289 
z
" clip-path="url(#p52af3f089b)" style="fill: #1f77b4; opacity: 0.7; stroke: #000000; stroke-linejoin: miter"/>
   </g>
   <g id="patch_158">
    <path d="M 455.366016 331.44 
L 457.682003 331.44 
L 457.682003 252.648247 
L 455.366016 252.648247 
z
" clip-path="url(#p52af3f089b)" style="fill: #1f77b4; opacity: 0.7; stroke: #000000; stroke-linejoin: miter"/>
   </g>
   <g id="patch_159">
    <path d="M 457.682003 331.44 
L 459.997989 331.44 
L 459.997989 247.87299 
L 457.682003 247.87299 
z
" clip-path="url(#p52af3f089b)" style="fill: #1f77b4; opacity: 0.7; stroke: #000000; stroke-linejoin: miter"/>
   </g>
   <g id="patch_160">
    <path d="M 459.997989 331.44 
L 462.313975 331.44 
L 462.313975 246.281237 
L 459.997989 246.281237 
z
" clip-path="url(#p52af3f089b)" style="fill: #1f77b4; opacity: 0.7; stroke: #000000; stroke-linejoin: miter"/>
   </g>
   <g id="patch_161">
    <path d="M 462.313975 331.44 
L 464.629962 331.44 
L 464.629962 231.159588 
L 462.313975 231.159588 
z
" clip-path="url(#p52af3f089b)" style="fill: #1f77b4; opacity: 0.7; stroke: #000000; stroke-linejoin: miter"/>
   </g>
   <g id="patch_162">
    <path d="M 464.629962 331.44 
L 466.945948 331.44 
L 466.945948 256.627629 
L 464.629962 256.627629 
z
" clip-path="url(#p52af3f089b)" style="fill: #1f77b4; opacity: 0.7; stroke: #000000; stroke-linejoin: miter"/>
   </g>
   <g id="patch_163">
    <path d="M 466.945948 331.44 
L 469.261935 331.44 
L 469.261935 231.955464 
L 466.945948 231.955464 
z
" clip-path="url(#p52af3f089b)" style="fill: #1f77b4; opacity: 0.7; stroke: #000000; stroke-linejoin: miter"/>
   </g>
   <g id="patch_164">
    <path d="M 469.261935 331.44 
L 471.577921 331.44 
L 471.577921 249.464742 
L 469.261935 249.464742 
z
" clip-path="url(#p52af3f089b)" style="fill: #1f77b4; opacity: 0.7; stroke: #000000; stroke-linejoin: miter"/>
   </g>
   <g id="patch_165">
    <path d="M 471.577921 331.44 
L 473.893907 331.44 
L 473.893907 231.159588 
L 471.577921 231.159588 
z
" clip-path="url(#p52af3f089b)" style="fill: #1f77b4; opacity: 0.7; stroke: #000000; stroke-linejoin: miter"/>
   </g>
   <g id="patch_166">
    <path d="M 473.893907 331.44 
L 476.209894 331.44 
L 476.209894 247.87299 
L 473.893907 247.87299 
z
" clip-path="url(#p52af3f089b)" style="fill: #1f77b4; opacity: 0.7; stroke: #000000; stroke-linejoin: miter"/>
   </g>
   <g id="patch_167">
    <path d="M 476.209894 331.44 
L 478.52588 331.44 
L 478.52588 237.526598 
L 476.209894 237.526598 
z
" clip-path="url(#p52af3f089b)" style="fill: #1f77b4; opacity: 0.7; stroke: #000000; stroke-linejoin: miter"/>
   </g>
   <g id="patch_168">
    <path d="M 478.52588 331.44 
L 480.841866 331.44 
L 480.841866 246.281237 
L 478.52588 246.281237 
z
" clip-path="url(#p52af3f089b)" style="fill: #1f77b4; opacity: 0.7; stroke: #000000; stroke-linejoin: miter"/>
   </g>
   <g id="patch_169">
    <path d="M 480.841866 331.44 
L 483.157853 331.44 
L 483.157853 253.444124 
L 480.841866 253.444124 
z
" clip-path="url(#p52af3f089b)" style="fill: #1f77b4; opacity: 0.7; stroke: #000000; stroke-linejoin: miter"/>
   </g>
   <g id="patch_170">
    <path d="M 483.157853 331.44 
L 485.473839 331.44 
L 485.473839 165.101856 
L 483.157853 165.101856 
z
" clip-path="url(#p52af3f089b)" style="fill: #1f77b4; opacity: 0.7; stroke: #000000; stroke-linejoin: miter"/>
   </g>
   <g id="patch_171">
    <path d="M 485.473839 331.44 
L 487.789826 331.44 
L 487.789826 237.526598 
L 485.473839 237.526598 
z
" clip-path="url(#p52af3f089b)" style="fill: #1f77b4; opacity: 0.7; stroke: #000000; stroke-linejoin: miter"/>
   </g>
   <g id="patch_172">
    <path d="M 487.789826 331.44 
L 490.105812 331.44 
L 490.105812 246.281237 
L 487.789826 246.281237 
z
" clip-path="url(#p52af3f089b)" style="fill: #1f77b4; opacity: 0.7; stroke: #000000; stroke-linejoin: miter"/>
   </g>
   <g id="patch_173">
    <path d="M 490.105812 331.44 
L 492.421798 331.44 
L 492.421798 256.627629 
L 490.105812 256.627629 
z
" clip-path="url(#p52af3f089b)" style="fill: #1f77b4; opacity: 0.7; stroke: #000000; stroke-linejoin: miter"/>
   </g>
   <g id="patch_174">
    <path d="M 492.421798 331.44 
L 494.737785 331.44 
L 494.737785 207.283299 
L 492.421798 207.283299 
z
" clip-path="url(#p52af3f089b)" style="fill: #1f77b4; opacity: 0.7; stroke: #000000; stroke-linejoin: miter"/>
   </g>
   <g id="patch_175">
    <path d="M 494.737785 331.44 
L 497.053771 331.44 
L 497.053771 258.219381 
L 494.737785 258.219381 
z
" clip-path="url(#p52af3f089b)" style="fill: #1f77b4; opacity: 0.7; stroke: #000000; stroke-linejoin: miter"/>
   </g>
   <g id="patch_176">
    <path d="M 497.053771 331.44 
L 499.369758 331.44 
L 499.369758 258.219381 
L 497.053771 258.219381 
z
" clip-path="url(#p52af3f089b)" style="fill: #1f77b4; opacity: 0.7; stroke: #000000; stroke-linejoin: miter"/>
   </g>
   <g id="patch_177">
    <path d="M 499.369758 331.44 
L 501.685744 331.44 
L 501.685744 224.792577 
L 499.369758 224.792577 
z
" clip-path="url(#p52af3f089b)" style="fill: #1f77b4; opacity: 0.7; stroke: #000000; stroke-linejoin: miter"/>
   </g>
   <g id="patch_178">
    <path d="M 501.685744 331.44 
L 504.00173 331.44 
L 504.00173 243.893608 
L 501.685744 243.893608 
z
" clip-path="url(#p52af3f089b)" style="fill: #1f77b4; opacity: 0.7; stroke: #000000; stroke-linejoin: miter"/>
   </g>
   <g id="patch_179">
    <path d="M 504.00173 331.44 
L 506.317717 331.44 
L 506.317717 251.056495 
L 504.00173 251.056495 
z
" clip-path="url(#p52af3f089b)" style="fill: #1f77b4; opacity: 0.7; stroke: #000000; stroke-linejoin: miter"/>
   </g>
   <g id="patch_180">
    <path d="M 506.317717 331.44 
L 508.633703 331.44 
L 508.633703 224.792577 
L 506.317717 224.792577 
z
" clip-path="url(#p52af3f089b)" style="fill: #1f77b4; opacity: 0.7; stroke: #000000; stroke-linejoin: miter"/>
   </g>
   <g id="patch_181">
    <path d="M 508.633703 331.44 
L 510.94969 331.44 
L 510.94969 236.730722 
L 508.633703 236.730722 
z
" clip-path="url(#p52af3f089b)" style="fill: #1f77b4; opacity: 0.7; stroke: #000000; stroke-linejoin: miter"/>
   </g>
   <g id="patch_182">
    <path d="M 510.94969 331.44 
L 513.265676 331.44 
L 513.265676 266.974021 
L 510.94969 266.974021 
z
" clip-path="url(#p52af3f089b)" style="fill: #1f77b4; opacity: 0.7; stroke: #000000; stroke-linejoin: miter"/>
   </g>
   <g id="patch_183">
    <path d="M 513.265676 331.44 
L 515.581662 331.44 
L 515.581662 237.526598 
L 513.265676 237.526598 
z
" clip-path="url(#p52af3f089b)" style="fill: #1f77b4; opacity: 0.7; stroke: #000000; stroke-linejoin: miter"/>
   </g>
   <g id="patch_184">
    <path d="M 515.581662 331.44 
L 517.897649 331.44 
L 517.897649 251.056495 
L 515.581662 251.056495 
z
" clip-path="url(#p52af3f089b)" style="fill: #1f77b4; opacity: 0.7; stroke: #000000; stroke-linejoin: miter"/>
   </g>
   <g id="patch_185">
    <path d="M 517.897649 331.44 
L 520.213635 331.44 
L 520.213635 264.586392 
L 517.897649 264.586392 
z
" clip-path="url(#p52af3f089b)" style="fill: #1f77b4; opacity: 0.7; stroke: #000000; stroke-linejoin: miter"/>
   </g>
   <g id="patch_186">
    <path d="M 520.213635 331.44 
L 522.529622 331.44 
L 522.529622 228.771959 
L 520.213635 228.771959 
z
" clip-path="url(#p52af3f089b)" style="fill: #1f77b4; opacity: 0.7; stroke: #000000; stroke-linejoin: miter"/>
   </g>
   <g id="patch_187">
    <path d="M 522.529622 331.44 
L 524.845608 331.44 
L 524.845608 169.877113 
L 522.529622 169.877113 
z
" clip-path="url(#p52af3f089b)" style="fill: #1f77b4; opacity: 0.7; stroke: #000000; stroke-linejoin: miter"/>
   </g>
   <g id="patch_188">
    <path d="M 524.845608 331.44 
L 527.161594 331.44 
L 527.161594 310.747216 
L 524.845608 310.747216 
z
" clip-path="url(#p52af3f089b)" style="fill: #1f77b4; opacity: 0.7; stroke: #000000; stroke-linejoin: miter"/>
   </g>
   <g id="patch_189">
    <path d="M 527.161594 331.44 
L 529.477581 331.44 
L 529.477581 248.668866 
L 527.161594 248.668866 
z
" clip-path="url(#p52af3f089b)" style="fill: #1f77b4; opacity: 0.7; stroke: #000000; stroke-linejoin: miter"/>
   </g>
   <g id="patch_190">
    <path d="M 529.477581 331.44 
L 531.793567 331.44 
L 531.793567 313.930722 
L 529.477581 313.930722 
z
" clip-path="url(#p52af3f089b)" style="fill: #1f77b4; opacity: 0.7; stroke: #000000; stroke-linejoin: miter"/>
   </g>
   <g id="patch_191">
    <path d="M 531.793567 331.44 
L 534.109554 331.44 
L 534.109554 307.563711 
L 531.793567 307.563711 
z
" clip-path="url(#p52af3f089b)" style="fill: #1f77b4; opacity: 0.7; stroke: #000000; stroke-linejoin: miter"/>
   </g>
   <g id="patch_192">
    <path d="M 534.109554 331.44 
L 536.42554 331.44 
L 536.42554 314.726598 
L 534.109554 314.726598 
z
" clip-path="url(#p52af3f089b)" style="fill: #1f77b4; opacity: 0.7; stroke: #000000; stroke-linejoin: miter"/>
   </g>
   <g id="patch_193">
    <path d="M 536.42554 331.44 
L 538.741526 331.44 
L 538.741526 99.044124 
L 536.42554 99.044124 
z
" clip-path="url(#p52af3f089b)" style="fill: #1f77b4; opacity: 0.7; stroke: #000000; stroke-linejoin: miter"/>
   </g>
   <g id="patch_194">
    <path d="M 538.741526 331.44 
L 541.057513 331.44 
L 541.057513 22.64 
L 538.741526 22.64 
z
" clip-path="url(#p52af3f089b)" style="fill: #1f77b4; opacity: 0.7; stroke: #000000; stroke-linejoin: miter"/>
   </g>
   <g id="patch_195">
    <path d="M 541.057513 331.44 
L 543.373499 331.44 
L 543.373499 196.936907 
L 541.057513 196.936907 
z
" clip-path="url(#p52af3f089b)" style="fill: #1f77b4; opacity: 0.7; stroke: #000000; stroke-linejoin: miter"/>
   </g>
   <g id="patch_196">
    <path d="M 543.373499 331.44 
L 545.689486 331.44 
L 545.689486 235.138969 
L 543.373499 235.138969 
z
" clip-path="url(#p52af3f089b)" style="fill: #1f77b4; opacity: 0.7; stroke: #000000; stroke-linejoin: miter"/>
   </g>
   <g id="patch_197">
    <path d="M 545.689486 331.44 
L 548.005472 331.44 
L 548.005472 265.382268 
L 545.689486 265.382268 
z
" clip-path="url(#p52af3f089b)" style="fill: #1f77b4; opacity: 0.7; stroke: #000000; stroke-linejoin: miter"/>
   </g>
   <g id="patch_198">
    <path d="M 548.005472 331.44 
L 550.321458 331.44 
L 550.321458 235.138969 
L 548.005472 235.138969 
z
" clip-path="url(#p52af3f089b)" style="fill: #1f77b4; opacity: 0.7; stroke: #000000; stroke-linejoin: miter"/>
   </g>
   <g id="patch_199">
    <path d="M 550.321458 331.44 
L 552.637445 331.44 
L 552.637445 205.691546 
L 550.321458 205.691546 
z
" clip-path="url(#p52af3f089b)" style="fill: #1f77b4; opacity: 0.7; stroke: #000000; stroke-linejoin: miter"/>
   </g>
   <g id="patch_200">
    <path d="M 552.637445 331.44 
L 554.953431 331.44 
L 554.953431 241.505979 
L 552.637445 241.505979 
z
" clip-path="url(#p52af3f089b)" style="fill: #1f77b4; opacity: 0.7; stroke: #000000; stroke-linejoin: miter"/>
   </g>
   <g id="patch_201">
    <path d="M 554.953431 331.44 
L 557.269418 331.44 
L 557.269418 235.934845 
L 554.953431 235.934845 
z
" clip-path="url(#p52af3f089b)" style="fill: #1f77b4; opacity: 0.7; stroke: #000000; stroke-linejoin: miter"/>
   </g>
   <g id="patch_202">
    <path d="M 557.269418 331.44 
L 559.585404 331.44 
L 559.585404 184.202887 
L 557.269418 184.202887 
z
" clip-path="url(#p52af3f089b)" style="fill: #1f77b4; opacity: 0.7; stroke: #000000; stroke-linejoin: miter"/>
   </g>
   <g id="patch_203">
    <path d="M 559.585404 331.44 
L 561.90139 331.44 
L 561.90139 211.26268 
L 559.585404 211.26268 
z
" clip-path="url(#p52af3f089b)" style="fill: #1f77b4; opacity: 0.7; stroke: #000000; stroke-linejoin: miter"/>
   </g>
   <g id="patch_204">
    <path d="M 561.90139 331.44 
L 564.217377 331.44 
L 564.217377 212.058557 
L 561.90139 212.058557 
z
" clip-path="url(#p52af3f089b)" style="fill: #1f77b4; opacity: 0.7; stroke: #000000; stroke-linejoin: miter"/>
   </g>
   <g id="patch_205">
    <path d="M 564.217377 331.44 
L 566.533363 331.44 
L 566.533363 228.771959 
L 564.217377 228.771959 
z
" clip-path="url(#p52af3f089b)" style="fill: #1f77b4; opacity: 0.7; stroke: #000000; stroke-linejoin: miter"/>
   </g>
   <g id="patch_206">
    <path d="M 566.533363 331.44 
L 568.849349 331.44 
L 568.849349 265.382268 
L 566.533363 265.382268 
z
" clip-path="url(#p52af3f089b)" style="fill: #1f77b4; opacity: 0.7; stroke: #000000; stroke-linejoin: miter"/>
   </g>
   <g id="patch_207">
    <path d="M 568.849349 331.44 
L 571.165336 331.44 
L 571.165336 240.710103 
L 568.849349 240.710103 
z
" clip-path="url(#p52af3f089b)" style="fill: #1f77b4; opacity: 0.7; stroke: #000000; stroke-linejoin: miter"/>
   </g>
   <g id="patch_208">
    <path d="M 571.165336 331.44 
L 573.481322 331.44 
L 573.481322 204.099794 
L 571.165336 204.099794 
z
" clip-path="url(#p52af3f089b)" style="fill: #1f77b4; opacity: 0.7; stroke: #000000; stroke-linejoin: miter"/>
   </g>
   <g id="patch_209">
    <path d="M 573.481322 331.44 
L 575.797309 331.44 
L 575.797309 278.116289 
L 573.481322 278.116289 
z
" clip-path="url(#p52af3f089b)" style="fill: #1f77b4; opacity: 0.7; stroke: #000000; stroke-linejoin: miter"/>
   </g>
   <g id="patch_210">
    <path d="M 575.797309 331.44 
L 578.113295 331.44 
L 578.113295 276.524536 
L 575.797309 276.524536 
z
" clip-path="url(#p52af3f089b)" style="fill: #1f77b4; opacity: 0.7; stroke: #000000; stroke-linejoin: miter"/>
   </g>
   <g id="patch_211">
    <path d="M 578.113295 331.44 
L 580.429281 331.44 
L 580.429281 256.627629 
L 578.113295 256.627629 
z
" clip-path="url(#p52af3f089b)" style="fill: #1f77b4; opacity: 0.7; stroke: #000000; stroke-linejoin: miter"/>
   </g>
   <g id="patch_212">
    <path d="M 580.429281 331.44 
L 582.745268 331.44 
L 582.745268 263.790515 
L 580.429281 263.790515 
z
" clip-path="url(#p52af3f089b)" style="fill: #1f77b4; opacity: 0.7; stroke: #000000; stroke-linejoin: miter"/>
   </g>
   <g id="patch_213">
    <path d="M 582.745268 331.44 
L 585.061254 331.44 
L 585.061254 251.852371 
L 582.745268 251.852371 
z
" clip-path="url(#p52af3f089b)" style="fill: #1f77b4; opacity: 0.7; stroke: #000000; stroke-linejoin: miter"/>
   </g>
   <g id="patch_214">
    <path d="M 585.061254 331.44 
L 587.377241 331.44 
L 587.377241 227.180206 
L 585.061254 227.180206 
z
" clip-path="url(#p52af3f089b)" style="fill: #1f77b4; opacity: 0.7; stroke: #000000; stroke-linejoin: miter"/>
   </g>
   <g id="patch_215">
    <path d="M 587.377241 331.44 
L 589.693227 331.44 
L 589.693227 229.567835 
L 587.377241 229.567835 
z
" clip-path="url(#p52af3f089b)" style="fill: #1f77b4; opacity: 0.7; stroke: #000000; stroke-linejoin: miter"/>
   </g>
   <g id="patch_216">
    <path d="M 589.693227 331.44 
L 592.009213 331.44 
L 592.009213 226.38433 
L 589.693227 226.38433 
z
" clip-path="url(#p52af3f089b)" style="fill: #1f77b4; opacity: 0.7; stroke: #000000; stroke-linejoin: miter"/>
   </g>
   <g id="patch_217">
    <path d="M 592.009213 331.44 
L 594.3252 331.44 
L 594.3252 210.466804 
L 592.009213 210.466804 
z
" clip-path="url(#p52af3f089b)" style="fill: #1f77b4; opacity: 0.7; stroke: #000000; stroke-linejoin: miter"/>
   </g>
   <g id="patch_218">
    <path d="M 594.3252 331.44 
L 596.641186 331.44 
L 596.641186 236.730722 
L 594.3252 236.730722 
z
" clip-path="url(#p52af3f089b)" style="fill: #1f77b4; opacity: 0.7; stroke: #000000; stroke-linejoin: miter"/>
   </g>
   <g id="patch_219">
    <path d="M 596.641186 331.44 
L 598.957173 331.44 
L 598.957173 235.138969 
L 596.641186 235.138969 
z
" clip-path="url(#p52af3f089b)" style="fill: #1f77b4; opacity: 0.7; stroke: #000000; stroke-linejoin: miter"/>
   </g>
   <g id="patch_220">
    <path d="M 598.957173 331.44 
L 601.273159 331.44 
L 601.273159 218.425567 
L 598.957173 218.425567 
z
" clip-path="url(#p52af3f089b)" style="fill: #1f77b4; opacity: 0.7; stroke: #000000; stroke-linejoin: miter"/>
   </g>
   <g id="patch_221">
    <path d="M 601.273159 331.44 
L 603.589145 331.44 
L 603.589145 249.464742 
L 601.273159 249.464742 
z
" clip-path="url(#p52af3f089b)" style="fill: #1f77b4; opacity: 0.7; stroke: #000000; stroke-linejoin: miter"/>
   </g>
   <g id="patch_222">
    <path d="M 603.589145 331.44 
L 605.905132 331.44 
L 605.905132 242.301856 
L 603.589145 242.301856 
z
" clip-path="url(#p52af3f089b)" style="fill: #1f77b4; opacity: 0.7; stroke: #000000; stroke-linejoin: miter"/>
   </g>
   <g id="patch_223">
    <path d="M 605.905132 331.44 
L 608.221118 331.44 
L 608.221118 255.035876 
L 605.905132 255.035876 
z
" clip-path="url(#p52af3f089b)" style="fill: #1f77b4; opacity: 0.7; stroke: #000000; stroke-linejoin: miter"/>
   </g>
   <g id="patch_224">
    <path d="M 608.221118 331.44 
L 610.537105 331.44 
L 610.537105 243.097732 
L 608.221118 243.097732 
z
" clip-path="url(#p52af3f089b)" style="fill: #1f77b4; opacity: 0.7; stroke: #000000; stroke-linejoin: miter"/>
   </g>
   <g id="patch_225">
    <path d="M 610.537105 331.44 
L 612.853091 331.44 
L 612.853091 209.670928 
L 610.537105 209.670928 
z
" clip-path="url(#p52af3f089b)" style="fill: #1f77b4; opacity: 0.7; stroke: #000000; stroke-linejoin: miter"/>
   </g>
   <g id="patch_226">
    <path d="M 612.853091 331.44 
L 615.169077 331.44 
L 615.169077 200.120412 
L 612.853091 200.120412 
z
" clip-path="url(#p52af3f089b)" style="fill: #1f77b4; opacity: 0.7; stroke: #000000; stroke-linejoin: miter"/>
   </g>
   <g id="patch_227">
    <path d="M 615.169077 331.44 
L 617.485064 331.44 
L 617.485064 206.487423 
L 615.169077 206.487423 
z
" clip-path="url(#p52af3f089b)" style="fill: #1f77b4; opacity: 0.7; stroke: #000000; stroke-linejoin: miter"/>
   </g>
   <g id="patch_228">
    <path d="M 617.485064 331.44 
L 619.80105 331.44 
L 619.80105 245.485361 
L 617.485064 245.485361 
z
" clip-path="url(#p52af3f089b)" style="fill: #1f77b4; opacity: 0.7; stroke: #000000; stroke-linejoin: miter"/>
   </g>
   <g id="patch_229">
    <path d="M 619.80105 331.44 
L 622.117037 331.44 
L 622.117037 225.588454 
L 619.80105 225.588454 
z
" clip-path="url(#p52af3f089b)" style="fill: #1f77b4; opacity: 0.7; stroke: #000000; stroke-linejoin: miter"/>
   </g>
   <g id="patch_230">
    <path d="M 622.117037 331.44 
L 624.433023 331.44 
L 624.433023 195.345155 
L 622.117037 195.345155 
z
" clip-path="url(#p52af3f089b)" style="fill: #1f77b4; opacity: 0.7; stroke: #000000; stroke-linejoin: miter"/>
   </g>
   <g id="patch_231">
    <path d="M 624.433023 331.44 
L 626.749009 331.44 
L 626.749009 198.52866 
L 624.433023 198.52866 
z
" clip-path="url(#p52af3f089b)" style="fill: #1f77b4; opacity: 0.7; stroke: #000000; stroke-linejoin: miter"/>
   </g>
   <g id="patch_232">
    <path d="M 626.749009 331.44 
L 629.064996 331.44 
L 629.064996 195.345155 
L 626.749009 195.345155 
z
" clip-path="url(#p52af3f089b)" style="fill: #1f77b4; opacity: 0.7; stroke: #000000; stroke-linejoin: miter"/>
   </g>
   <g id="patch_233">
    <path d="M 629.064996 331.44 
L 631.380982 331.44 
L 631.380982 192.161649 
L 629.064996 192.161649 
z
" clip-path="url(#p52af3f089b)" style="fill: #1f77b4; opacity: 0.7; stroke: #000000; stroke-linejoin: miter"/>
   </g>
   <g id="patch_234">
    <path d="M 631.380982 331.44 
L 633.696969 331.44 
L 633.696969 204.89567 
L 631.380982 204.89567 
z
" clip-path="url(#p52af3f089b)" style="fill: #1f77b4; opacity: 0.7; stroke: #000000; stroke-linejoin: miter"/>
   </g>
   <g id="patch_235">
    <path d="M 633.696969 331.44 
L 636.012955 331.44 
L 636.012955 227.976082 
L 633.696969 227.976082 
z
" clip-path="url(#p52af3f089b)" style="fill: #1f77b4; opacity: 0.7; stroke: #000000; stroke-linejoin: miter"/>
   </g>
   <g id="patch_236">
    <path d="M 636.012955 331.44 
L 638.328941 331.44 
L 638.328941 147.592577 
L 636.012955 147.592577 
z
" clip-path="url(#p52af3f089b)" style="fill: #1f77b4; opacity: 0.7; stroke: #000000; stroke-linejoin: miter"/>
   </g>
   <g id="patch_237">
    <path d="M 638.328941 331.44 
L 640.644928 331.44 
L 640.644928 177.835876 
L 638.328941 177.835876 
z
" clip-path="url(#p52af3f089b)" style="fill: #1f77b4; opacity: 0.7; stroke: #000000; stroke-linejoin: miter"/>
   </g>
   <g id="patch_238">
    <path d="M 640.644928 331.44 
L 642.960914 331.44 
L 642.960914 230.363711 
L 640.644928 230.363711 
z
" clip-path="url(#p52af3f089b)" style="fill: #1f77b4; opacity: 0.7; stroke: #000000; stroke-linejoin: miter"/>
   </g>
   <g id="patch_239">
    <path d="M 642.960914 331.44 
L 645.276901 331.44 
L 645.276901 243.893608 
L 642.960914 243.893608 
z
" clip-path="url(#p52af3f089b)" style="fill: #1f77b4; opacity: 0.7; stroke: #000000; stroke-linejoin: miter"/>
   </g>
   <g id="patch_240">
    <path d="M 645.276901 331.44 
L 647.592887 331.44 
L 647.592887 215.242062 
L 645.276901 215.242062 
z
" clip-path="url(#p52af3f089b)" style="fill: #1f77b4; opacity: 0.7; stroke: #000000; stroke-linejoin: miter"/>
   </g>
   <g id="patch_241">
    <path d="M 647.592887 331.44 
L 649.908873 331.44 
L 649.908873 206.487423 
L 647.592887 206.487423 
z
" clip-path="url(#p52af3f089b)" style="fill: #1f77b4; opacity: 0.7; stroke: #000000; stroke-linejoin: miter"/>
   </g>
   <g id="patch_242">
    <path d="M 649.908873 331.44 
L 652.22486 331.44 
L 652.22486 247.077113 
L 649.908873 247.077113 
z
" clip-path="url(#p52af3f089b)" style="fill: #1f77b4; opacity: 0.7; stroke: #000000; stroke-linejoin: miter"/>
   </g>
   <g id="patch_243">
    <path d="M 652.22486 331.44 
L 654.540846 331.44 
L 654.540846 196.936907 
L 652.22486 196.936907 
z
" clip-path="url(#p52af3f089b)" style="fill: #1f77b4; opacity: 0.7; stroke: #000000; stroke-linejoin: miter"/>
   </g>
   <g id="patch_244">
    <path d="M 654.540846 331.44 
L 656.856832 331.44 
L 656.856832 200.120412 
L 654.540846 200.120412 
z
" clip-path="url(#p52af3f089b)" style="fill: #1f77b4; opacity: 0.7; stroke: #000000; stroke-linejoin: miter"/>
   </g>
   <g id="patch_245">
    <path d="M 656.856832 331.44 
L 659.172819 331.44 
L 659.172819 210.466804 
L 656.856832 210.466804 
z
" clip-path="url(#p52af3f089b)" style="fill: #1f77b4; opacity: 0.7; stroke: #000000; stroke-linejoin: miter"/>
   </g>
   <g id="patch_246">
    <path d="M 659.172819 331.44 
L 661.488805 331.44 
L 661.488805 259.015258 
L 659.172819 259.015258 
z
" clip-path="url(#p52af3f089b)" style="fill: #1f77b4; opacity: 0.7; stroke: #000000; stroke-linejoin: miter"/>
   </g>
   <g id="patch_247">
    <path d="M 661.488805 331.44 
L 663.804792 331.44 
L 663.804792 190.569897 
L 661.488805 190.569897 
z
" clip-path="url(#p52af3f089b)" style="fill: #1f77b4; opacity: 0.7; stroke: #000000; stroke-linejoin: miter"/>
   </g>
   <g id="patch_248">
    <path d="M 663.804792 331.44 
L 666.120778 331.44 
L 666.120778 181.019381 
L 663.804792 181.019381 
z
" clip-path="url(#p52af3f089b)" style="fill: #1f77b4; opacity: 0.7; stroke: #000000; stroke-linejoin: miter"/>
   </g>
   <g id="patch_249">
    <path d="M 666.120778 331.44 
L 668.436764 331.44 
L 668.436764 173.856495 
L 666.120778 173.856495 
z
" clip-path="url(#p52af3f089b)" style="fill: #1f77b4; opacity: 0.7; stroke: #000000; stroke-linejoin: miter"/>
   </g>
   <g id="patch_250">
    <path d="M 668.436764 331.44 
L 670.752751 331.44 
L 670.752751 192.957526 
L 668.436764 192.957526 
z
" clip-path="url(#p52af3f089b)" style="fill: #1f77b4; opacity: 0.7; stroke: #000000; stroke-linejoin: miter"/>
   </g>
   <g id="patch_251">
    <path d="M 670.752751 331.44 
L 673.068737 331.44 
L 673.068737 196.936907 
L 670.752751 196.936907 
z
" clip-path="url(#p52af3f089b)" style="fill: #1f77b4; opacity: 0.7; stroke: #000000; stroke-linejoin: miter"/>
   </g>
   <g id="patch_252">
    <path d="M 673.068737 331.44 
L 675.384724 331.44 
L 675.384724 180.223505 
L 673.068737 180.223505 
z
" clip-path="url(#p52af3f089b)" style="fill: #1f77b4; opacity: 0.7; stroke: #000000; stroke-linejoin: miter"/>
   </g>
   <g id="patch_253">
    <path d="M 675.384724 331.44 
L 677.70071 331.44 
L 677.70071 166.693608 
L 675.384724 166.693608 
z
" clip-path="url(#p52af3f089b)" style="fill: #1f77b4; opacity: 0.7; stroke: #000000; stroke-linejoin: miter"/>
   </g>
   <g id="patch_254">
    <path d="M 677.70071 331.44 
L 680.016696 331.44 
L 680.016696 132.470928 
L 677.70071 132.470928 
z
" clip-path="url(#p52af3f089b)" style="fill: #1f77b4; opacity: 0.7; stroke: #000000; stroke-linejoin: miter"/>
   </g>
   <g id="patch_255">
    <path d="M 680.016696 331.44 
L 682.332683 331.44 
L 682.332683 172.264742 
L 680.016696 172.264742 
z
" clip-path="url(#p52af3f089b)" style="fill: #1f77b4; opacity: 0.7; stroke: #000000; stroke-linejoin: miter"/>
   </g>
   <g id="patch_256">
    <path d="M 682.332683 331.44 
L 684.648669 331.44 
L 684.648669 125.308041 
L 682.332683 125.308041 
z
" clip-path="url(#p52af3f089b)" style="fill: #1f77b4; opacity: 0.7; stroke: #000000; stroke-linejoin: miter"/>
   </g>
   <g id="patch_257">
    <path d="M 684.648669 331.44 
L 686.964656 331.44 
L 686.964656 144.409072 
L 684.648669 144.409072 
z
" clip-path="url(#p52af3f089b)" style="fill: #1f77b4; opacity: 0.7; stroke: #000000; stroke-linejoin: miter"/>
   </g>
   <g id="patch_258">
    <path d="M 686.964656 331.44 
L 689.280642 331.44 
L 689.280642 134.858557 
L 686.964656 134.858557 
z
" clip-path="url(#p52af3f089b)" style="fill: #1f77b4; opacity: 0.7; stroke: #000000; stroke-linejoin: miter"/>
   </g>
   <g id="patch_259">
    <path d="M 689.280642 331.44 
L 691.596628 331.44 
L 691.596628 158.734845 
L 689.280642 158.734845 
z
" clip-path="url(#p52af3f089b)" style="fill: #1f77b4; opacity: 0.7; stroke: #000000; stroke-linejoin: miter"/>
   </g>
   <g id="patch_260">
    <path d="M 691.596628 331.44 
L 693.912615 331.44 
L 693.912615 154.755464 
L 691.596628 154.755464 
z
" clip-path="url(#p52af3f089b)" style="fill: #1f77b4; opacity: 0.7; stroke: #000000; stroke-linejoin: miter"/>
   </g>
   <g id="patch_261">
    <path d="M 693.912615 331.44 
L 696.228601 331.44 
L 696.228601 168.285361 
L 693.912615 168.285361 
z
" clip-path="url(#p52af3f089b)" style="fill: #1f77b4; opacity: 0.7; stroke: #000000; stroke-linejoin: miter"/>
   </g>
   <g id="patch_262">
    <path d="M 696.228601 331.44 
L 698.544588 331.44 
L 698.544588 130.879175 
L 696.228601 130.879175 
z
" clip-path="url(#p52af3f089b)" style="fill: #1f77b4; opacity: 0.7; stroke: #000000; stroke-linejoin: miter"/>
   </g>
   <g id="patch_263">
    <path d="M 698.544588 331.44 
L 700.860574 331.44 
L 700.860574 144.409072 
L 698.544588 144.409072 
z
" clip-path="url(#p52af3f089b)" style="fill: #1f77b4; opacity: 0.7; stroke: #000000; stroke-linejoin: miter"/>
   </g>
   <g id="patch_264">
    <path d="M 700.860574 331.44 
L 703.17656 331.44 
L 703.17656 198.52866 
L 700.860574 198.52866 
z
" clip-path="url(#p52af3f089b)" style="fill: #1f77b4; opacity: 0.7; stroke: #000000; stroke-linejoin: miter"/>
   </g>
   <g id="patch_265">
    <path d="M 703.17656 331.44 
L 705.492547 331.44 
L 705.492547 181.019381 
L 703.17656 181.019381 
z
" clip-path="url(#p52af3f089b)" style="fill: #1f77b4; opacity: 0.7; stroke: #000000; stroke-linejoin: miter"/>
   </g>
   <g id="patch_266">
    <path d="M 705.492547 331.44 
L 707.808533 331.44 
L 707.808533 205.691546 
L 705.492547 205.691546 
z
" clip-path="url(#p52af3f089b)" style="fill: #1f77b4; opacity: 0.7; stroke: #000000; stroke-linejoin: miter"/>
   </g>
   <g id="patch_267">
    <path d="M 707.808533 331.44 
L 710.12452 331.44 
L 710.12452 173.856495 
L 707.808533 173.856495 
z
" clip-path="url(#p52af3f089b)" style="fill: #1f77b4; opacity: 0.7; stroke: #000000; stroke-linejoin: miter"/>
   </g>
   <g id="patch_268">
    <path d="M 710.12452 331.44 
L 712.440506 331.44 
L 712.440506 213.650309 
L 710.12452 213.650309 
z
" clip-path="url(#p52af3f089b)" style="fill: #1f77b4; opacity: 0.7; stroke: #000000; stroke-linejoin: miter"/>
   </g>
   <g id="patch_269">
    <path d="M 712.440506 331.44 
L 714.756492 331.44 
L 714.756492 228.771959 
L 712.440506 228.771959 
z
" clip-path="url(#p52af3f089b)" style="fill: #1f77b4; opacity: 0.7; stroke: #000000; stroke-linejoin: miter"/>
   </g>
   <g id="patch_270">
    <path d="M 714.756492 331.44 
L 717.072479 331.44 
L 717.072479 173.856495 
L 714.756492 173.856495 
z
" clip-path="url(#p52af3f089b)" style="fill: #1f77b4; opacity: 0.7; stroke: #000000; stroke-linejoin: miter"/>
   </g>
   <g id="patch_271">
    <path d="M 717.072479 331.44 
L 719.388465 331.44 
L 719.388465 162.714227 
L 717.072479 162.714227 
z
" clip-path="url(#p52af3f089b)" style="fill: #1f77b4; opacity: 0.7; stroke: #000000; stroke-linejoin: miter"/>
   </g>
   <g id="patch_272">
    <path d="M 719.388465 331.44 
L 721.704452 331.44 
L 721.704452 189.774021 
L 719.388465 189.774021 
z
" clip-path="url(#p52af3f089b)" style="fill: #1f77b4; opacity: 0.7; stroke: #000000; stroke-linejoin: miter"/>
   </g>
   <g id="patch_273">
    <path d="M 721.704452 331.44 
L 724.020438 331.44 
L 724.020438 180.223505 
L 721.704452 180.223505 
z
" clip-path="url(#p52af3f089b)" style="fill: #1f77b4; opacity: 0.7; stroke: #000000; stroke-linejoin: miter"/>
   </g>
   <g id="patch_274">
    <path d="M 724.020438 331.44 
L 726.336424 331.44 
L 726.336424 146.000825 
L 724.020438 146.000825 
z
" clip-path="url(#p52af3f089b)" style="fill: #1f77b4; opacity: 0.7; stroke: #000000; stroke-linejoin: miter"/>
   </g>
   <g id="patch_275">
    <path d="M 726.336424 331.44 
L 728.652411 331.44 
L 728.652411 122.920412 
L 726.336424 122.920412 
z
" clip-path="url(#p52af3f089b)" style="fill: #1f77b4; opacity: 0.7; stroke: #000000; stroke-linejoin: miter"/>
   </g>
   <g id="patch_276">
    <path d="M 728.652411 331.44 
L 730.968397 331.44 
L 730.968397 152.367835 
L 728.652411 152.367835 
z
" clip-path="url(#p52af3f089b)" style="fill: #1f77b4; opacity: 0.7; stroke: #000000; stroke-linejoin: miter"/>
   </g>
   <g id="patch_277">
    <path d="M 730.968397 331.44 
L 733.284384 331.44 
L 733.284384 162.714227 
L 730.968397 162.714227 
z
" clip-path="url(#p52af3f089b)" style="fill: #1f77b4; opacity: 0.7; stroke: #000000; stroke-linejoin: miter"/>
   </g>
   <g id="patch_278">
    <path d="M 733.284384 331.44 
L 735.60037 331.44 
L 735.60037 170.67299 
L 733.284384 170.67299 
z
" clip-path="url(#p52af3f089b)" style="fill: #1f77b4; opacity: 0.7; stroke: #000000; stroke-linejoin: miter"/>
   </g>
   <g id="patch_279">
    <path d="M 735.60037 331.44 
L 737.916356 331.44 
L 737.916356 150.776082 
L 735.60037 150.776082 
z
" clip-path="url(#p52af3f089b)" style="fill: #1f77b4; opacity: 0.7; stroke: #000000; stroke-linejoin: miter"/>
   </g>
   <g id="patch_280">
    <path d="M 737.916356 331.44 
L 740.232343 331.44 
L 740.232343 141.225567 
L 737.916356 141.225567 
z
" clip-path="url(#p52af3f089b)" style="fill: #1f77b4; opacity: 0.7; stroke: #000000; stroke-linejoin: miter"/>
   </g>
   <g id="patch_281">
    <path d="M 740.232343 331.44 
L 742.548329 331.44 
L 742.548329 126.103918 
L 740.232343 126.103918 
z
" clip-path="url(#p52af3f089b)" style="fill: #1f77b4; opacity: 0.7; stroke: #000000; stroke-linejoin: miter"/>
   </g>
   <g id="patch_282">
    <path d="M 742.548329 331.44 
L 744.864315 331.44 
L 744.864315 161.918351 
L 742.548329 161.918351 
z
" clip-path="url(#p52af3f089b)" style="fill: #1f77b4; opacity: 0.7; stroke: #000000; stroke-linejoin: miter"/>
   </g>
   <g id="patch_283">
    <path d="M 744.864315 331.44 
L 747.180302 331.44 
L 747.180302 115.757526 
L 744.864315 115.757526 
z
" clip-path="url(#p52af3f089b)" style="fill: #1f77b4; opacity: 0.7; stroke: #000000; stroke-linejoin: miter"/>
   </g>
   <g id="patch_284">
    <path d="M 747.180302 331.44 
L 749.496288 331.44 
L 749.496288 123.716289 
L 747.180302 123.716289 
z
" clip-path="url(#p52af3f089b)" style="fill: #1f77b4; opacity: 0.7; stroke: #000000; stroke-linejoin: miter"/>
   </g>
   <g id="patch_285">
    <path d="M 749.496288 331.44 
L 751.812275 331.44 
L 751.812275 136.450309 
L 749.496288 136.450309 
z
" clip-path="url(#p52af3f089b)" style="fill: #1f77b4; opacity: 0.7; stroke: #000000; stroke-linejoin: miter"/>
   </g>
   <g id="patch_286">
    <path d="M 751.812275 331.44 
L 754.128261 331.44 
L 754.128261 166.693608 
L 751.812275 166.693608 
z
" clip-path="url(#p52af3f089b)" style="fill: #1f77b4; opacity: 0.7; stroke: #000000; stroke-linejoin: miter"/>
   </g>
   <g id="patch_287">
    <path d="M 754.128261 331.44 
L 756.444247 331.44 
L 756.444247 163.510103 
L 754.128261 163.510103 
z
" clip-path="url(#p52af3f089b)" style="fill: #1f77b4; opacity: 0.7; stroke: #000000; stroke-linejoin: miter"/>
   </g>
   <g id="patch_288">
    <path d="M 756.444247 331.44 
L 758.760234 331.44 
L 758.760234 88.697732 
L 756.444247 88.697732 
z
" clip-path="url(#p52af3f089b)" style="fill: #1f77b4; opacity: 0.7; stroke: #000000; stroke-linejoin: miter"/>
   </g>
   <g id="patch_289">
    <path d="M 758.760234 331.44 
L 761.07622 331.44 
L 761.07622 130.879175 
L 758.760234 130.879175 
z
" clip-path="url(#p52af3f089b)" style="fill: #1f77b4; opacity: 0.7; stroke: #000000; stroke-linejoin: miter"/>
   </g>
   <g id="patch_290">
    <path d="M 761.07622 331.44 
L 763.392207 331.44 
L 763.392207 126.103918 
L 761.07622 126.103918 
z
" clip-path="url(#p52af3f089b)" style="fill: #1f77b4; opacity: 0.7; stroke: #000000; stroke-linejoin: miter"/>
   </g>
   <g id="patch_291">
    <path d="M 763.392207 331.44 
L 765.708193 331.44 
L 765.708193 107.002887 
L 763.392207 107.002887 
z
" clip-path="url(#p52af3f089b)" style="fill: #1f77b4; opacity: 0.7; stroke: #000000; stroke-linejoin: miter"/>
   </g>
   <g id="patch_292">
    <path d="M 765.708193 331.44 
L 768.024179 331.44 
L 768.024179 110.186392 
L 765.708193 110.186392 
z
" clip-path="url(#p52af3f089b)" style="fill: #1f77b4; opacity: 0.7; stroke: #000000; stroke-linejoin: miter"/>
   </g>
   <g id="patch_293">
    <path d="M 768.024179 331.44 
L 770.340166 331.44 
L 770.340166 235.138969 
L 768.024179 235.138969 
z
" clip-path="url(#p52af3f089b)" style="fill: #1f77b4; opacity: 0.7; stroke: #000000; stroke-linejoin: miter"/>
   </g>
   <g id="patch_294">
    <path d="M 770.340166 331.44 
L 772.656152 331.44 
L 772.656152 295.625567 
L 770.340166 295.625567 
z
" clip-path="url(#p52af3f089b)" style="fill: #1f77b4; opacity: 0.7; stroke: #000000; stroke-linejoin: miter"/>
   </g>
   <g id="patch_295">
    <path d="M 772.656152 331.44 
L 774.972139 331.44 
L 774.972139 309.155464 
L 772.656152 309.155464 
z
" clip-path="url(#p52af3f089b)" style="fill: #1f77b4; opacity: 0.7; stroke: #000000; stroke-linejoin: miter"/>
   </g>
   <g id="patch_296">
    <path d="M 774.972139 331.44 
L 777.288125 331.44 
L 777.288125 322.685361 
L 774.972139 322.685361 
z
" clip-path="url(#p52af3f089b)" style="fill: #1f77b4; opacity: 0.7; stroke: #000000; stroke-linejoin: miter"/>
   </g>
   <g id="matplotlib.axis_1">
    <g id="xtick_1">
     <g id="line2d_1">
      <defs>
       <path id="ma2cc697393" d="M 0 0 
L 0 3.5 
" style="stroke: #000000; stroke-width: 0.8"/>
      </defs>
      <g>
       <use xlink:href="#ma2cc697393" x="96.388125" y="331.44" style="stroke: #000000; stroke-width: 0.8"/>
      </g>
     </g>
     <g id="text_1">
      <!-- 0.0 -->
      <g transform="translate(85.255938 349.077812) scale(0.14 -0.14)">
       <defs>
        <path id="DejaVuSans-30" d="M 2034 4250 
Q 1547 4250 1301 3770 
Q 1056 3291 1056 2328 
Q 1056 1369 1301 889 
Q 1547 409 2034 409 
Q 2525 409 2770 889 
Q 3016 1369 3016 2328 
Q 3016 3291 2770 3770 
Q 2525 4250 2034 4250 
z
M 2034 4750 
Q 2819 4750 3233 4129 
Q 3647 3509 3647 2328 
Q 3647 1150 3233 529 
Q 2819 -91 2034 -91 
Q 1250 -91 836 529 
Q 422 1150 422 2328 
Q 422 3509 836 4129 
Q 1250 4750 2034 4750 
z
" transform="scale(0.015625)"/>
        <path id="DejaVuSans-2e" d="M 684 794 
L 1344 794 
L 1344 0 
L 684 0 
L 684 794 
z
" transform="scale(0.015625)"/>
       </defs>
       <use xlink:href="#DejaVuSans-30"/>
       <use xlink:href="#DejaVuSans-2e" x="63.623047"/>
       <use xlink:href="#DejaVuSans-30" x="95.410156"/>
      </g>
     </g>
    </g>
    <g id="xtick_2">
     <g id="line2d_2">
      <g>
       <use xlink:href="#ma2cc697393" x="212.187445" y="331.44" style="stroke: #000000; stroke-width: 0.8"/>
      </g>
     </g>
     <g id="text_2">
      <!-- 0.5 -->
      <g transform="translate(201.055257 349.077812) scale(0.14 -0.14)">
       <defs>
        <path id="DejaVuSans-35" d="M 691 4666 
L 3169 4666 
L 3169 4134 
L 1269 4134 
L 1269 2991 
Q 1406 3038 1543 3061 
Q 1681 3084 1819 3084 
Q 2600 3084 3056 2656 
Q 3513 2228 3513 1497 
Q 3513 744 3044 326 
Q 2575 -91 1722 -91 
Q 1428 -91 1123 -41 
Q 819 9 494 109 
L 494 744 
Q 775 591 1075 516 
Q 1375 441 1709 441 
Q 2250 441 2565 725 
Q 2881 1009 2881 1497 
Q 2881 1984 2565 2268 
Q 2250 2553 1709 2553 
Q 1456 2553 1204 2497 
Q 953 2441 691 2322 
L 691 4666 
z
" transform="scale(0.015625)"/>
       </defs>
       <use xlink:href="#DejaVuSans-30"/>
       <use xlink:href="#DejaVuSans-2e" x="63.623047"/>
       <use xlink:href="#DejaVuSans-35" x="95.410156"/>
      </g>
     </g>
    </g>
    <g id="xtick_3">
     <g id="line2d_3">
      <g>
       <use xlink:href="#ma2cc697393" x="327.986764" y="331.44" style="stroke: #000000; stroke-width: 0.8"/>
      </g>
     </g>
     <g id="text_3">
      <!-- 1.0 -->
      <g transform="translate(316.854577 349.077812) scale(0.14 -0.14)">
       <defs>
        <path id="DejaVuSans-31" d="M 794 531 
L 1825 531 
L 1825 4091 
L 703 3866 
L 703 4441 
L 1819 4666 
L 2450 4666 
L 2450 531 
L 3481 531 
L 3481 0 
L 794 0 
L 794 531 
z
" transform="scale(0.015625)"/>
       </defs>
       <use xlink:href="#DejaVuSans-31"/>
       <use xlink:href="#DejaVuSans-2e" x="63.623047"/>
       <use xlink:href="#DejaVuSans-30" x="95.410156"/>
      </g>
     </g>
    </g>
    <g id="xtick_4">
     <g id="line2d_4">
      <g>
       <use xlink:href="#ma2cc697393" x="443.786084" y="331.44" style="stroke: #000000; stroke-width: 0.8"/>
      </g>
     </g>
     <g id="text_4">
      <!-- 1.5 -->
      <g transform="translate(432.653897 349.077812) scale(0.14 -0.14)">
       <use xlink:href="#DejaVuSans-31"/>
       <use xlink:href="#DejaVuSans-2e" x="63.623047"/>
       <use xlink:href="#DejaVuSans-35" x="95.410156"/>
      </g>
     </g>
    </g>
    <g id="xtick_5">
     <g id="line2d_5">
      <g>
       <use xlink:href="#ma2cc697393" x="559.585404" y="331.44" style="stroke: #000000; stroke-width: 0.8"/>
      </g>
     </g>
     <g id="text_5">
      <!-- 2.0 -->
      <g transform="translate(548.453216 349.077812) scale(0.14 -0.14)">
       <defs>
        <path id="DejaVuSans-32" d="M 1228 531 
L 3431 531 
L 3431 0 
L 469 0 
L 469 531 
Q 828 903 1448 1529 
Q 2069 2156 2228 2338 
Q 2531 2678 2651 2914 
Q 2772 3150 2772 3378 
Q 2772 3750 2511 3984 
Q 2250 4219 1831 4219 
Q 1534 4219 1204 4116 
Q 875 4013 500 3803 
L 500 4441 
Q 881 4594 1212 4672 
Q 1544 4750 1819 4750 
Q 2544 4750 2975 4387 
Q 3406 4025 3406 3419 
Q 3406 3131 3298 2873 
Q 3191 2616 2906 2266 
Q 2828 2175 2409 1742 
Q 1991 1309 1228 531 
z
" transform="scale(0.015625)"/>
       </defs>
       <use xlink:href="#DejaVuSans-32"/>
       <use xlink:href="#DejaVuSans-2e" x="63.623047"/>
       <use xlink:href="#DejaVuSans-30" x="95.410156"/>
      </g>
     </g>
    </g>
    <g id="xtick_6">
     <g id="line2d_6">
      <g>
       <use xlink:href="#ma2cc697393" x="675.384724" y="331.44" style="stroke: #000000; stroke-width: 0.8"/>
      </g>
     </g>
     <g id="text_6">
      <!-- 2.5 -->
      <g transform="translate(664.252536 349.077812) scale(0.14 -0.14)">
       <use xlink:href="#DejaVuSans-32"/>
       <use xlink:href="#DejaVuSans-2e" x="63.623047"/>
       <use xlink:href="#DejaVuSans-35" x="95.410156"/>
      </g>
     </g>
    </g>
    <g id="xtick_7">
     <g id="line2d_7">
      <g>
       <use xlink:href="#ma2cc697393" x="791.184043" y="331.44" style="stroke: #000000; stroke-width: 0.8"/>
      </g>
     </g>
     <g id="text_7">
      <!-- 3.0 -->
      <g transform="translate(780.051856 349.077812) scale(0.14 -0.14)">
       <defs>
        <path id="DejaVuSans-33" d="M 2597 2516 
Q 3050 2419 3304 2112 
Q 3559 1806 3559 1356 
Q 3559 666 3084 287 
Q 2609 -91 1734 -91 
Q 1441 -91 1130 -33 
Q 819 25 488 141 
L 488 750 
Q 750 597 1062 519 
Q 1375 441 1716 441 
Q 2309 441 2620 675 
Q 2931 909 2931 1356 
Q 2931 1769 2642 2001 
Q 2353 2234 1838 2234 
L 1294 2234 
L 1294 2753 
L 1863 2753 
Q 2328 2753 2575 2939 
Q 2822 3125 2822 3475 
Q 2822 3834 2567 4026 
Q 2313 4219 1838 4219 
Q 1578 4219 1281 4162 
Q 984 4106 628 3988 
L 628 4550 
Q 988 4650 1302 4700 
Q 1616 4750 1894 4750 
Q 2613 4750 3031 4423 
Q 3450 4097 3450 3541 
Q 3450 3153 3228 2886 
Q 3006 2619 2597 2516 
z
" transform="scale(0.015625)"/>
       </defs>
       <use xlink:href="#DejaVuSans-33"/>
       <use xlink:href="#DejaVuSans-2e" x="63.623047"/>
       <use xlink:href="#DejaVuSans-30" x="95.410156"/>
      </g>
     </g>
    </g>
    <g id="text_8">
     <!-- Chromosome Positions -->
     <g transform="translate(334.488437 369.666562) scale(0.18 -0.18)">
      <defs>
       <path id="DejaVuSans-43" d="M 4122 4306 
L 4122 3641 
Q 3803 3938 3442 4084 
Q 3081 4231 2675 4231 
Q 1875 4231 1450 3742 
Q 1025 3253 1025 2328 
Q 1025 1406 1450 917 
Q 1875 428 2675 428 
Q 3081 428 3442 575 
Q 3803 722 4122 1019 
L 4122 359 
Q 3791 134 3420 21 
Q 3050 -91 2638 -91 
Q 1578 -91 968 557 
Q 359 1206 359 2328 
Q 359 3453 968 4101 
Q 1578 4750 2638 4750 
Q 3056 4750 3426 4639 
Q 3797 4528 4122 4306 
z
" transform="scale(0.015625)"/>
       <path id="DejaVuSans-68" d="M 3513 2113 
L 3513 0 
L 2938 0 
L 2938 2094 
Q 2938 2591 2744 2837 
Q 2550 3084 2163 3084 
Q 1697 3084 1428 2787 
Q 1159 2491 1159 1978 
L 1159 0 
L 581 0 
L 581 4863 
L 1159 4863 
L 1159 2956 
Q 1366 3272 1645 3428 
Q 1925 3584 2291 3584 
Q 2894 3584 3203 3211 
Q 3513 2838 3513 2113 
z
" transform="scale(0.015625)"/>
       <path id="DejaVuSans-72" d="M 2631 2963 
Q 2534 3019 2420 3045 
Q 2306 3072 2169 3072 
Q 1681 3072 1420 2755 
Q 1159 2438 1159 1844 
L 1159 0 
L 581 0 
L 581 3500 
L 1159 3500 
L 1159 2956 
Q 1341 3275 1631 3429 
Q 1922 3584 2338 3584 
Q 2397 3584 2469 3576 
Q 2541 3569 2628 3553 
L 2631 2963 
z
" transform="scale(0.015625)"/>
       <path id="DejaVuSans-6f" d="M 1959 3097 
Q 1497 3097 1228 2736 
Q 959 2375 959 1747 
Q 959 1119 1226 758 
Q 1494 397 1959 397 
Q 2419 397 2687 759 
Q 2956 1122 2956 1747 
Q 2956 2369 2687 2733 
Q 2419 3097 1959 3097 
z
M 1959 3584 
Q 2709 3584 3137 3096 
Q 3566 2609 3566 1747 
Q 3566 888 3137 398 
Q 2709 -91 1959 -91 
Q 1206 -91 779 398 
Q 353 888 353 1747 
Q 353 2609 779 3096 
Q 1206 3584 1959 3584 
z
" transform="scale(0.015625)"/>
       <path id="DejaVuSans-6d" d="M 3328 2828 
Q 3544 3216 3844 3400 
Q 4144 3584 4550 3584 
Q 5097 3584 5394 3201 
Q 5691 2819 5691 2113 
L 5691 0 
L 5113 0 
L 5113 2094 
Q 5113 2597 4934 2840 
Q 4756 3084 4391 3084 
Q 3944 3084 3684 2787 
Q 3425 2491 3425 1978 
L 3425 0 
L 2847 0 
L 2847 2094 
Q 2847 2600 2669 2842 
Q 2491 3084 2119 3084 
Q 1678 3084 1418 2786 
Q 1159 2488 1159 1978 
L 1159 0 
L 581 0 
L 581 3500 
L 1159 3500 
L 1159 2956 
Q 1356 3278 1631 3431 
Q 1906 3584 2284 3584 
Q 2666 3584 2933 3390 
Q 3200 3197 3328 2828 
z
" transform="scale(0.015625)"/>
       <path id="DejaVuSans-73" d="M 2834 3397 
L 2834 2853 
Q 2591 2978 2328 3040 
Q 2066 3103 1784 3103 
Q 1356 3103 1142 2972 
Q 928 2841 928 2578 
Q 928 2378 1081 2264 
Q 1234 2150 1697 2047 
L 1894 2003 
Q 2506 1872 2764 1633 
Q 3022 1394 3022 966 
Q 3022 478 2636 193 
Q 2250 -91 1575 -91 
Q 1294 -91 989 -36 
Q 684 19 347 128 
L 347 722 
Q 666 556 975 473 
Q 1284 391 1588 391 
Q 1994 391 2212 530 
Q 2431 669 2431 922 
Q 2431 1156 2273 1281 
Q 2116 1406 1581 1522 
L 1381 1569 
Q 847 1681 609 1914 
Q 372 2147 372 2553 
Q 372 3047 722 3315 
Q 1072 3584 1716 3584 
Q 2034 3584 2315 3537 
Q 2597 3491 2834 3397 
z
" transform="scale(0.015625)"/>
       <path id="DejaVuSans-65" d="M 3597 1894 
L 3597 1613 
L 953 1613 
Q 991 1019 1311 708 
Q 1631 397 2203 397 
Q 2534 397 2845 478 
Q 3156 559 3463 722 
L 3463 178 
Q 3153 47 2828 -22 
Q 2503 -91 2169 -91 
Q 1331 -91 842 396 
Q 353 884 353 1716 
Q 353 2575 817 3079 
Q 1281 3584 2069 3584 
Q 2775 3584 3186 3129 
Q 3597 2675 3597 1894 
z
M 3022 2063 
Q 3016 2534 2758 2815 
Q 2500 3097 2075 3097 
Q 1594 3097 1305 2825 
Q 1016 2553 972 2059 
L 3022 2063 
z
" transform="scale(0.015625)"/>
       <path id="DejaVuSans-20" transform="scale(0.015625)"/>
       <path id="DejaVuSans-50" d="M 1259 4147 
L 1259 2394 
L 2053 2394 
Q 2494 2394 2734 2622 
Q 2975 2850 2975 3272 
Q 2975 3691 2734 3919 
Q 2494 4147 2053 4147 
L 1259 4147 
z
M 628 4666 
L 2053 4666 
Q 2838 4666 3239 4311 
Q 3641 3956 3641 3272 
Q 3641 2581 3239 2228 
Q 2838 1875 2053 1875 
L 1259 1875 
L 1259 0 
L 628 0 
L 628 4666 
z
" transform="scale(0.015625)"/>
       <path id="DejaVuSans-69" d="M 603 3500 
L 1178 3500 
L 1178 0 
L 603 0 
L 603 3500 
z
M 603 4863 
L 1178 4863 
L 1178 4134 
L 603 4134 
L 603 4863 
z
" transform="scale(0.015625)"/>
       <path id="DejaVuSans-74" d="M 1172 4494 
L 1172 3500 
L 2356 3500 
L 2356 3053 
L 1172 3053 
L 1172 1153 
Q 1172 725 1289 603 
Q 1406 481 1766 481 
L 2356 481 
L 2356 0 
L 1766 0 
Q 1100 0 847 248 
Q 594 497 594 1153 
L 594 3053 
L 172 3053 
L 172 3500 
L 594 3500 
L 594 4494 
L 1172 4494 
z
" transform="scale(0.015625)"/>
       <path id="DejaVuSans-6e" d="M 3513 2113 
L 3513 0 
L 2938 0 
L 2938 2094 
Q 2938 2591 2744 2837 
Q 2550 3084 2163 3084 
Q 1697 3084 1428 2787 
Q 1159 2491 1159 1978 
L 1159 0 
L 581 0 
L 581 3500 
L 1159 3500 
L 1159 2956 
Q 1366 3272 1645 3428 
Q 1925 3584 2291 3584 
Q 2894 3584 3203 3211 
Q 3513 2838 3513 2113 
z
" transform="scale(0.015625)"/>
      </defs>
      <use xlink:href="#DejaVuSans-43"/>
      <use xlink:href="#DejaVuSans-68" x="69.824219"/>
      <use xlink:href="#DejaVuSans-72" x="133.203125"/>
      <use xlink:href="#DejaVuSans-6f" x="172.066406"/>
      <use xlink:href="#DejaVuSans-6d" x="233.248047"/>
      <use xlink:href="#DejaVuSans-6f" x="330.660156"/>
      <use xlink:href="#DejaVuSans-73" x="391.841797"/>
      <use xlink:href="#DejaVuSans-6f" x="443.941406"/>
      <use xlink:href="#DejaVuSans-6d" x="505.123047"/>
      <use xlink:href="#DejaVuSans-65" x="602.535156"/>
      <use xlink:href="#DejaVuSans-20" x="664.058594"/>
      <use xlink:href="#DejaVuSans-50" x="695.845703"/>
      <use xlink:href="#DejaVuSans-6f" x="752.523438"/>
      <use xlink:href="#DejaVuSans-73" x="813.705078"/>
      <use xlink:href="#DejaVuSans-69" x="865.804688"/>
      <use xlink:href="#DejaVuSans-74" x="893.587891"/>
      <use xlink:href="#DejaVuSans-69" x="932.796875"/>
      <use xlink:href="#DejaVuSans-6f" x="960.580078"/>
      <use xlink:href="#DejaVuSans-6e" x="1021.761719"/>
      <use xlink:href="#DejaVuSans-73" x="1085.140625"/>
     </g>
    </g>
    <g id="text_9">
     <!-- 1e6 -->
     <g transform="translate(792.455 362.587813) scale(0.1 -0.1)">
      <defs>
       <path id="DejaVuSans-36" d="M 2113 2584 
Q 1688 2584 1439 2293 
Q 1191 2003 1191 1497 
Q 1191 994 1439 701 
Q 1688 409 2113 409 
Q 2538 409 2786 701 
Q 3034 994 3034 1497 
Q 3034 2003 2786 2293 
Q 2538 2584 2113 2584 
z
M 3366 4563 
L 3366 3988 
Q 3128 4100 2886 4159 
Q 2644 4219 2406 4219 
Q 1781 4219 1451 3797 
Q 1122 3375 1075 2522 
Q 1259 2794 1537 2939 
Q 1816 3084 2150 3084 
Q 2853 3084 3261 2657 
Q 3669 2231 3669 1497 
Q 3669 778 3244 343 
Q 2819 -91 2113 -91 
Q 1303 -91 875 529 
Q 447 1150 447 2328 
Q 447 3434 972 4092 
Q 1497 4750 2381 4750 
Q 2619 4750 2861 4703 
Q 3103 4656 3366 4563 
z
" transform="scale(0.015625)"/>
      </defs>
      <use xlink:href="#DejaVuSans-31"/>
      <use xlink:href="#DejaVuSans-65" x="63.623047"/>
      <use xlink:href="#DejaVuSans-36" x="125.146484"/>
     </g>
    </g>
   </g>
   <g id="matplotlib.axis_2">
    <g id="ytick_1">
     <g id="line2d_8">
      <defs>
       <path id="mfce753ffcb" d="M 0 0 
L -3.5 0 
" style="stroke: #000000; stroke-width: 0.8"/>
      </defs>
      <g>
       <use xlink:href="#mfce753ffcb" x="62.343125" y="331.44" style="stroke: #000000; stroke-width: 0.8"/>
      </g>
     </g>
     <g id="text_10">
      <!-- 0 -->
      <g transform="translate(46.435625 336.758906) scale(0.14 -0.14)">
       <use xlink:href="#DejaVuSans-30"/>
      </g>
     </g>
    </g>
    <g id="ytick_2">
     <g id="line2d_9">
      <g>
       <use xlink:href="#mfce753ffcb" x="62.343125" y="291.646186" style="stroke: #000000; stroke-width: 0.8"/>
      </g>
     </g>
     <g id="text_11">
      <!-- 50 -->
      <g transform="translate(37.528125 296.965092) scale(0.14 -0.14)">
       <use xlink:href="#DejaVuSans-35"/>
       <use xlink:href="#DejaVuSans-30" x="63.623047"/>
      </g>
     </g>
    </g>
    <g id="ytick_3">
     <g id="line2d_10">
      <g>
       <use xlink:href="#mfce753ffcb" x="62.343125" y="251.852371" style="stroke: #000000; stroke-width: 0.8"/>
      </g>
     </g>
     <g id="text_12">
      <!-- 100 -->
      <g transform="translate(28.620625 257.171277) scale(0.14 -0.14)">
       <use xlink:href="#DejaVuSans-31"/>
       <use xlink:href="#DejaVuSans-30" x="63.623047"/>
       <use xlink:href="#DejaVuSans-30" x="127.246094"/>
      </g>
     </g>
    </g>
    <g id="ytick_4">
     <g id="line2d_11">
      <g>
       <use xlink:href="#mfce753ffcb" x="62.343125" y="212.058557" style="stroke: #000000; stroke-width: 0.8"/>
      </g>
     </g>
     <g id="text_13">
      <!-- 150 -->
      <g transform="translate(28.620625 217.377463) scale(0.14 -0.14)">
       <use xlink:href="#DejaVuSans-31"/>
       <use xlink:href="#DejaVuSans-35" x="63.623047"/>
       <use xlink:href="#DejaVuSans-30" x="127.246094"/>
      </g>
     </g>
    </g>
    <g id="ytick_5">
     <g id="line2d_12">
      <g>
       <use xlink:href="#mfce753ffcb" x="62.343125" y="172.264742" style="stroke: #000000; stroke-width: 0.8"/>
      </g>
     </g>
     <g id="text_14">
      <!-- 200 -->
      <g transform="translate(28.620625 177.583649) scale(0.14 -0.14)">
       <use xlink:href="#DejaVuSans-32"/>
       <use xlink:href="#DejaVuSans-30" x="63.623047"/>
       <use xlink:href="#DejaVuSans-30" x="127.246094"/>
      </g>
     </g>
    </g>
    <g id="ytick_6">
     <g id="line2d_13">
      <g>
       <use xlink:href="#mfce753ffcb" x="62.343125" y="132.470928" style="stroke: #000000; stroke-width: 0.8"/>
      </g>
     </g>
     <g id="text_15">
      <!-- 250 -->
      <g transform="translate(28.620625 137.789834) scale(0.14 -0.14)">
       <use xlink:href="#DejaVuSans-32"/>
       <use xlink:href="#DejaVuSans-35" x="63.623047"/>
       <use xlink:href="#DejaVuSans-30" x="127.246094"/>
      </g>
     </g>
    </g>
    <g id="ytick_7">
     <g id="line2d_14">
      <g>
       <use xlink:href="#mfce753ffcb" x="62.343125" y="92.677113" style="stroke: #000000; stroke-width: 0.8"/>
      </g>
     </g>
     <g id="text_16">
      <!-- 300 -->
      <g transform="translate(28.620625 97.99602) scale(0.14 -0.14)">
       <use xlink:href="#DejaVuSans-33"/>
       <use xlink:href="#DejaVuSans-30" x="63.623047"/>
       <use xlink:href="#DejaVuSans-30" x="127.246094"/>
      </g>
     </g>
    </g>
    <g id="ytick_8">
     <g id="line2d_15">
      <g>
       <use xlink:href="#mfce753ffcb" x="62.343125" y="52.883299" style="stroke: #000000; stroke-width: 0.8"/>
      </g>
     </g>
     <g id="text_17">
      <!-- 350 -->
      <g transform="translate(28.620625 58.202205) scale(0.14 -0.14)">
       <use xlink:href="#DejaVuSans-33"/>
       <use xlink:href="#DejaVuSans-35" x="63.623047"/>
       <use xlink:href="#DejaVuSans-30" x="127.246094"/>
      </g>
     </g>
    </g>
    <g id="ytick_9">
     <g id="line2d_16">
      <g>
       <use xlink:href="#mfce753ffcb" x="62.343125" y="13.089485" style="stroke: #000000; stroke-width: 0.8"/>
      </g>
     </g>
     <g id="text_18">
      <!-- 400 -->
      <g transform="translate(28.620625 18.408391) scale(0.14 -0.14)">
       <defs>
        <path id="DejaVuSans-34" d="M 2419 4116 
L 825 1625 
L 2419 1625 
L 2419 4116 
z
M 2253 4666 
L 3047 4666 
L 3047 1625 
L 3713 1625 
L 3713 1100 
L 3047 1100 
L 3047 0 
L 2419 0 
L 2419 1100 
L 313 1100 
L 313 1709 
L 2253 4666 
z
" transform="scale(0.015625)"/>
       </defs>
       <use xlink:href="#DejaVuSans-34"/>
       <use xlink:href="#DejaVuSans-30" x="63.623047"/>
       <use xlink:href="#DejaVuSans-30" x="127.246094"/>
      </g>
     </g>
    </g>
    <g id="text_19">
     <!-- Heterozygous SNPs Number -->
     <g transform="translate(20.877188 295.639219) rotate(-90) scale(0.18 -0.18)">
      <defs>
       <path id="DejaVuSans-48" d="M 628 4666 
L 1259 4666 
L 1259 2753 
L 3553 2753 
L 3553 4666 
L 4184 4666 
L 4184 0 
L 3553 0 
L 3553 2222 
L 1259 2222 
L 1259 0 
L 628 0 
L 628 4666 
z
" transform="scale(0.015625)"/>
       <path id="DejaVuSans-7a" d="M 353 3500 
L 3084 3500 
L 3084 2975 
L 922 459 
L 3084 459 
L 3084 0 
L 275 0 
L 275 525 
L 2438 3041 
L 353 3041 
L 353 3500 
z
" transform="scale(0.015625)"/>
       <path id="DejaVuSans-79" d="M 2059 -325 
Q 1816 -950 1584 -1140 
Q 1353 -1331 966 -1331 
L 506 -1331 
L 506 -850 
L 844 -850 
Q 1081 -850 1212 -737 
Q 1344 -625 1503 -206 
L 1606 56 
L 191 3500 
L 800 3500 
L 1894 763 
L 2988 3500 
L 3597 3500 
L 2059 -325 
z
" transform="scale(0.015625)"/>
       <path id="DejaVuSans-67" d="M 2906 1791 
Q 2906 2416 2648 2759 
Q 2391 3103 1925 3103 
Q 1463 3103 1205 2759 
Q 947 2416 947 1791 
Q 947 1169 1205 825 
Q 1463 481 1925 481 
Q 2391 481 2648 825 
Q 2906 1169 2906 1791 
z
M 3481 434 
Q 3481 -459 3084 -895 
Q 2688 -1331 1869 -1331 
Q 1566 -1331 1297 -1286 
Q 1028 -1241 775 -1147 
L 775 -588 
Q 1028 -725 1275 -790 
Q 1522 -856 1778 -856 
Q 2344 -856 2625 -561 
Q 2906 -266 2906 331 
L 2906 616 
Q 2728 306 2450 153 
Q 2172 0 1784 0 
Q 1141 0 747 490 
Q 353 981 353 1791 
Q 353 2603 747 3093 
Q 1141 3584 1784 3584 
Q 2172 3584 2450 3431 
Q 2728 3278 2906 2969 
L 2906 3500 
L 3481 3500 
L 3481 434 
z
" transform="scale(0.015625)"/>
       <path id="DejaVuSans-75" d="M 544 1381 
L 544 3500 
L 1119 3500 
L 1119 1403 
Q 1119 906 1312 657 
Q 1506 409 1894 409 
Q 2359 409 2629 706 
Q 2900 1003 2900 1516 
L 2900 3500 
L 3475 3500 
L 3475 0 
L 2900 0 
L 2900 538 
Q 2691 219 2414 64 
Q 2138 -91 1772 -91 
Q 1169 -91 856 284 
Q 544 659 544 1381 
z
M 1991 3584 
L 1991 3584 
z
" transform="scale(0.015625)"/>
       <path id="DejaVuSans-53" d="M 3425 4513 
L 3425 3897 
Q 3066 4069 2747 4153 
Q 2428 4238 2131 4238 
Q 1616 4238 1336 4038 
Q 1056 3838 1056 3469 
Q 1056 3159 1242 3001 
Q 1428 2844 1947 2747 
L 2328 2669 
Q 3034 2534 3370 2195 
Q 3706 1856 3706 1288 
Q 3706 609 3251 259 
Q 2797 -91 1919 -91 
Q 1588 -91 1214 -16 
Q 841 59 441 206 
L 441 856 
Q 825 641 1194 531 
Q 1563 422 1919 422 
Q 2459 422 2753 634 
Q 3047 847 3047 1241 
Q 3047 1584 2836 1778 
Q 2625 1972 2144 2069 
L 1759 2144 
Q 1053 2284 737 2584 
Q 422 2884 422 3419 
Q 422 4038 858 4394 
Q 1294 4750 2059 4750 
Q 2388 4750 2728 4690 
Q 3069 4631 3425 4513 
z
" transform="scale(0.015625)"/>
       <path id="DejaVuSans-4e" d="M 628 4666 
L 1478 4666 
L 3547 763 
L 3547 4666 
L 4159 4666 
L 4159 0 
L 3309 0 
L 1241 3903 
L 1241 0 
L 628 0 
L 628 4666 
z
" transform="scale(0.015625)"/>
       <path id="DejaVuSans-62" d="M 3116 1747 
Q 3116 2381 2855 2742 
Q 2594 3103 2138 3103 
Q 1681 3103 1420 2742 
Q 1159 2381 1159 1747 
Q 1159 1113 1420 752 
Q 1681 391 2138 391 
Q 2594 391 2855 752 
Q 3116 1113 3116 1747 
z
M 1159 2969 
Q 1341 3281 1617 3432 
Q 1894 3584 2278 3584 
Q 2916 3584 3314 3078 
Q 3713 2572 3713 1747 
Q 3713 922 3314 415 
Q 2916 -91 2278 -91 
Q 1894 -91 1617 61 
Q 1341 213 1159 525 
L 1159 0 
L 581 0 
L 581 4863 
L 1159 4863 
L 1159 2969 
z
" transform="scale(0.015625)"/>
      </defs>
      <use xlink:href="#DejaVuSans-48"/>
      <use xlink:href="#DejaVuSans-65" x="75.195312"/>
      <use xlink:href="#DejaVuSans-74" x="136.71875"/>
      <use xlink:href="#DejaVuSans-65" x="175.927734"/>
      <use xlink:href="#DejaVuSans-72" x="237.451172"/>
      <use xlink:href="#DejaVuSans-6f" x="276.314453"/>
      <use xlink:href="#DejaVuSans-7a" x="337.496094"/>
      <use xlink:href="#DejaVuSans-79" x="389.986328"/>
      <use xlink:href="#DejaVuSans-67" x="449.166016"/>
      <use xlink:href="#DejaVuSans-6f" x="512.642578"/>
      <use xlink:href="#DejaVuSans-75" x="573.824219"/>
      <use xlink:href="#DejaVuSans-73" x="637.203125"/>
      <use xlink:href="#DejaVuSans-20" x="689.302734"/>
      <use xlink:href="#DejaVuSans-53" x="721.089844"/>
      <use xlink:href="#DejaVuSans-4e" x="784.566406"/>
      <use xlink:href="#DejaVuSans-50" x="859.371094"/>
      <use xlink:href="#DejaVuSans-73" x="917.923828"/>
      <use xlink:href="#DejaVuSans-20" x="970.023438"/>
      <use xlink:href="#DejaVuSans-4e" x="1001.810547"/>
      <use xlink:href="#DejaVuSans-75" x="1076.615234"/>
      <use xlink:href="#DejaVuSans-6d" x="1139.994141"/>
      <use xlink:href="#DejaVuSans-62" x="1237.40625"/>
      <use xlink:href="#DejaVuSans-65" x="1300.882812"/>
      <use xlink:href="#DejaVuSans-72" x="1362.40625"/>
     </g>
    </g>
   </g>
   <g id="patch_297">
    <path d="M 62.343125 331.44 
L 62.343125 7.2 
" style="fill: none; stroke: #000000; stroke-width: 0.8; stroke-linejoin: miter; stroke-linecap: square"/>
   </g>
   <g id="patch_298">
    <path d="M 811.333125 331.44 
L 811.333125 7.2 
" style="fill: none; stroke: #000000; stroke-width: 0.8; stroke-linejoin: miter; stroke-linecap: square"/>
   </g>
   <g id="patch_299">
    <path d="M 62.343125 331.44 
L 811.333125 331.44 
" style="fill: none; stroke: #000000; stroke-width: 0.8; stroke-linejoin: miter; stroke-linecap: square"/>
   </g>
   <g id="patch_300">
    <path d="M 62.343125 7.2 
L 811.333125 7.2 
" style="fill: none; stroke: #000000; stroke-width: 0.8; stroke-linejoin: miter; stroke-linecap: square"/>
   </g>
  </g>
 </g>
 <defs>
  <clipPath id="p52af3f089b">
   <rect x="62.343125" y="7.2" width="748.99" height="324.24"/>
  </clipPath>
 </defs>
</svg>
