<?xml version="1.0" encoding="utf-8" standalone="no"?>
<!DOCTYPE svg PUBLIC "-//W3C//DTD SVG 1.1//EN"
  "http://www.w3.org/Graphics/SVG/1.1/DTD/svg11.dtd">
<svg xmlns:xlink="http://www.w3.org/1999/xlink" width="730.235625pt" height="389.01pt" viewBox="0 0 730.235625 389.01" xmlns="http://www.w3.org/2000/svg" version="1.1">
 <metadata>
  <rdf:RDF xmlns:dc="http://purl.org/dc/elements/1.1/" xmlns:cc="http://creativecommons.org/ns#" xmlns:rdf="http://www.w3.org/1999/02/22-rdf-syntax-ns#">
   <cc:Work>
    <dc:type rdf:resource="http://purl.org/dc/dcmitype/StillImage"/>
    <dc:date>2025-06-24T15:51:01.200176</dc:date>
    <dc:format>image/svg+xml</dc:format>
    <dc:creator>
     <cc:Agent>
      <dc:title>Matplotlib v3.7.3, https://matplotlib.org/</dc:title>
     </cc:Agent>
    </dc:creator>
   </cc:Work>
  </rdf:RDF>
 </metadata>
 <defs>
  <style type="text/css">*{stroke-linejoin: round; stroke-linecap: butt}</style>
 </defs>
 <g id="figure_1">
  <g id="patch_1">
   <path d="M 0 389.01 
L 730.235625 389.01 
L 730.235625 0 
L 0 0 
z
" style="fill: #ffffff"/>
  </g>
  <g id="axes_1">
   <g id="patch_2">
    <path d="M 53.435625 339.84 
L 723.035625 339.84 
L 723.035625 7.2 
L 53.435625 7.2 
z
" style="fill: #ffffff"/>
   </g>
   <g id="patch_3">
    <path d="M 83.871989 339.84 
L 85.935471 339.84 
L 85.935471 218.589927 
L 83.871989 218.589927 
z
" clip-path="url(#pd29e166252)" style="fill: #1f77b4; stroke: #000000; stroke-linejoin: miter"/>
   </g>
   <g id="patch_4">
    <path d="M 85.935471 339.84 
L 87.998953 339.84 
L 87.998953 118.034485 
L 85.935471 118.034485 
z
" clip-path="url(#pd29e166252)" style="fill: #1f77b4; stroke: #000000; stroke-linejoin: miter"/>
   </g>
   <g id="patch_5">
    <path d="M 87.998953 339.84 
L 90.062435 339.84 
L 90.062435 86.548689 
L 87.998953 86.548689 
z
" clip-path="url(#pd29e166252)" style="fill: #1f77b4; stroke: #000000; stroke-linejoin: miter"/>
   </g>
   <g id="patch_6">
    <path d="M 90.062435 339.84 
L 92.125918 339.84 
L 92.125918 87.939948 
L 90.062435 87.939948 
z
" clip-path="url(#pd29e166252)" style="fill: #1f77b4; stroke: #000000; stroke-linejoin: miter"/>
   </g>
   <g id="patch_7">
    <path d="M 92.125918 339.84 
L 94.1894 339.84 
L 94.1894 104.153175 
L 92.125918 104.153175 
z
" clip-path="url(#pd29e166252)" style="fill: #1f77b4; stroke: #000000; stroke-linejoin: miter"/>
   </g>
   <g id="patch_8">
    <path d="M 94.1894 339.84 
L 96.252882 339.84 
L 96.252882 122.194578 
L 94.1894 122.194578 
z
" clip-path="url(#pd29e166252)" style="fill: #1f77b4; stroke: #000000; stroke-linejoin: miter"/>
   </g>
   <g id="patch_9">
    <path d="M 96.252882 339.84 
L 98.316365 339.84 
L 98.316365 135.410163 
L 96.252882 135.410163 
z
" clip-path="url(#pd29e166252)" style="fill: #1f77b4; stroke: #000000; stroke-linejoin: miter"/>
   </g>
   <g id="patch_10">
    <path d="M 98.316365 339.84 
L 100.379847 339.84 
L 100.379847 129.587175 
L 98.316365 129.587175 
z
" clip-path="url(#pd29e166252)" style="fill: #1f77b4; stroke: #000000; stroke-linejoin: miter"/>
   </g>
   <g id="patch_11">
    <path d="M 100.379847 339.84 
L 102.443329 339.84 
L 102.443329 130.954951 
L 100.379847 130.954951 
z
" clip-path="url(#pd29e166252)" style="fill: #1f77b4; stroke: #000000; stroke-linejoin: miter"/>
   </g>
   <g id="patch_12">
    <path d="M 102.443329 339.84 
L 104.506811 339.84 
L 104.506811 111.380877 
L 102.443329 111.380877 
z
" clip-path="url(#pd29e166252)" style="fill: #1f77b4; stroke: #000000; stroke-linejoin: miter"/>
   </g>
   <g id="patch_13">
    <path d="M 104.506811 339.84 
L 106.570294 339.84 
L 106.570294 115.148205 
L 104.506811 115.148205 
z
" clip-path="url(#pd29e166252)" style="fill: #1f77b4; stroke: #000000; stroke-linejoin: miter"/>
   </g>
   <g id="patch_14">
    <path d="M 106.570294 339.84 
L 108.633776 339.84 
L 108.633776 119.851012 
L 106.570294 119.851012 
z
" clip-path="url(#pd29e166252)" style="fill: #1f77b4; stroke: #000000; stroke-linejoin: miter"/>
   </g>
   <g id="patch_15">
    <path d="M 108.633776 339.84 
L 110.697258 339.84 
L 110.697258 139.725815 
L 108.633776 139.725815 
z
" clip-path="url(#pd29e166252)" style="fill: #1f77b4; stroke: #000000; stroke-linejoin: miter"/>
   </g>
   <g id="patch_16">
    <path d="M 110.697258 339.84 
L 112.760741 339.84 
L 112.760741 52.4788 
L 110.697258 52.4788 
z
" clip-path="url(#pd29e166252)" style="fill: #1f77b4; stroke: #000000; stroke-linejoin: miter"/>
   </g>
   <g id="patch_17">
    <path d="M 112.760741 339.84 
L 114.824223 339.84 
L 114.824223 70.438875 
L 112.760741 70.438875 
z
" clip-path="url(#pd29e166252)" style="fill: #1f77b4; stroke: #000000; stroke-linejoin: miter"/>
   </g>
   <g id="patch_18">
    <path d="M 114.824223 339.84 
L 116.887705 339.84 
L 116.887705 95.343924 
L 114.824223 95.343924 
z
" clip-path="url(#pd29e166252)" style="fill: #1f77b4; stroke: #000000; stroke-linejoin: miter"/>
   </g>
   <g id="patch_19">
    <path d="M 116.887705 339.84 
L 118.951187 339.84 
L 118.951187 108.566167 
L 116.887705 108.566167 
z
" clip-path="url(#pd29e166252)" style="fill: #1f77b4; stroke: #000000; stroke-linejoin: miter"/>
   </g>
   <g id="patch_20">
    <path d="M 118.951187 339.84 
L 121.01467 339.84 
L 121.01467 136.436741 
L 118.951187 136.436741 
z
" clip-path="url(#pd29e166252)" style="fill: #1f77b4; stroke: #000000; stroke-linejoin: miter"/>
   </g>
   <g id="patch_21">
    <path d="M 121.01467 339.84 
L 123.078152 339.84 
L 123.078152 107.87373 
L 121.01467 107.87373 
z
" clip-path="url(#pd29e166252)" style="fill: #1f77b4; stroke: #000000; stroke-linejoin: miter"/>
   </g>
   <g id="patch_22">
    <path d="M 123.078152 339.84 
L 125.141634 339.84 
L 125.141634 143.264935 
L 123.078152 143.264935 
z
" clip-path="url(#pd29e166252)" style="fill: #1f77b4; stroke: #000000; stroke-linejoin: miter"/>
   </g>
   <g id="patch_23">
    <path d="M 125.141634 339.84 
L 127.205117 339.84 
L 127.205117 148.265867 
L 125.141634 148.265867 
z
" clip-path="url(#pd29e166252)" style="fill: #1f77b4; stroke: #000000; stroke-linejoin: miter"/>
   </g>
   <g id="patch_24">
    <path d="M 127.205117 339.84 
L 129.268599 339.84 
L 129.268599 174.299337 
L 127.205117 174.299337 
z
" clip-path="url(#pd29e166252)" style="fill: #1f77b4; stroke: #000000; stroke-linejoin: miter"/>
   </g>
   <g id="patch_25">
    <path d="M 129.268599 339.84 
L 131.332081 339.84 
L 131.332081 118.06244 
L 129.268599 118.06244 
z
" clip-path="url(#pd29e166252)" style="fill: #1f77b4; stroke: #000000; stroke-linejoin: miter"/>
   </g>
   <g id="patch_26">
    <path d="M 131.332081 339.84 
L 133.395563 339.84 
L 133.395563 87.595229 
L 131.332081 87.595229 
z
" clip-path="url(#pd29e166252)" style="fill: #1f77b4; stroke: #000000; stroke-linejoin: miter"/>
   </g>
   <g id="patch_27">
    <path d="M 133.395563 339.84 
L 135.459046 339.84 
L 135.459046 55.684525 
L 133.395563 55.684525 
z
" clip-path="url(#pd29e166252)" style="fill: #1f77b4; stroke: #000000; stroke-linejoin: miter"/>
   </g>
   <g id="patch_28">
    <path d="M 135.459046 339.84 
L 137.522528 339.84 
L 137.522528 104.411547 
L 135.459046 104.411547 
z
" clip-path="url(#pd29e166252)" style="fill: #1f77b4; stroke: #000000; stroke-linejoin: miter"/>
   </g>
   <g id="patch_29">
    <path d="M 137.522528 339.84 
L 139.58601 339.84 
L 139.58601 109.604822 
L 137.522528 109.604822 
z
" clip-path="url(#pd29e166252)" style="fill: #1f77b4; stroke: #000000; stroke-linejoin: miter"/>
   </g>
   <g id="patch_30">
    <path d="M 139.58601 339.84 
L 141.649492 339.84 
L 141.649492 97.871868 
L 139.58601 97.871868 
z
" clip-path="url(#pd29e166252)" style="fill: #1f77b4; stroke: #000000; stroke-linejoin: miter"/>
   </g>
   <g id="patch_31">
    <path d="M 141.649492 339.84 
L 143.712975 339.84 
L 143.712975 115.56747 
L 141.649492 115.56747 
z
" clip-path="url(#pd29e166252)" style="fill: #1f77b4; stroke: #000000; stroke-linejoin: miter"/>
   </g>
   <g id="patch_32">
    <path d="M 143.712975 339.84 
L 145.776457 339.84 
L 145.776457 133.263073 
L 143.712975 133.263073 
z
" clip-path="url(#pd29e166252)" style="fill: #1f77b4; stroke: #000000; stroke-linejoin: miter"/>
   </g>
   <g id="patch_33">
    <path d="M 145.776457 339.84 
L 147.839939 339.84 
L 147.839939 100.949364 
L 145.776457 100.949364 
z
" clip-path="url(#pd29e166252)" style="fill: #1f77b4; stroke: #000000; stroke-linejoin: miter"/>
   </g>
   <g id="patch_34">
    <path d="M 147.839939 339.84 
L 149.903422 339.84 
L 149.903422 90.324043 
L 147.839939 90.324043 
z
" clip-path="url(#pd29e166252)" style="fill: #1f77b4; stroke: #000000; stroke-linejoin: miter"/>
   </g>
   <g id="patch_35">
    <path d="M 149.903422 339.84 
L 151.966904 339.84 
L 151.966904 120.568401 
L 149.903422 120.568401 
z
" clip-path="url(#pd29e166252)" style="fill: #1f77b4; stroke: #000000; stroke-linejoin: miter"/>
   </g>
   <g id="patch_36">
    <path d="M 151.966904 339.84 
L 154.030386 339.84 
L 154.030386 160.072799 
L 151.966904 160.072799 
z
" clip-path="url(#pd29e166252)" style="fill: #1f77b4; stroke: #000000; stroke-linejoin: miter"/>
   </g>
   <g id="patch_37">
    <path d="M 154.030386 339.84 
L 156.093868 339.84 
L 156.093868 80.392651 
L 154.030386 80.392651 
z
" clip-path="url(#pd29e166252)" style="fill: #1f77b4; stroke: #000000; stroke-linejoin: miter"/>
   </g>
   <g id="patch_38">
    <path d="M 156.093868 339.84 
L 158.157351 339.84 
L 158.157351 72.340798 
L 156.093868 72.340798 
z
" clip-path="url(#pd29e166252)" style="fill: #1f77b4; stroke: #000000; stroke-linejoin: miter"/>
   </g>
   <g id="patch_39">
    <path d="M 158.157351 339.84 
L 160.220833 339.84 
L 160.220833 78.098955 
L 158.157351 78.098955 
z
" clip-path="url(#pd29e166252)" style="fill: #1f77b4; stroke: #000000; stroke-linejoin: miter"/>
   </g>
   <g id="patch_40">
    <path d="M 160.220833 339.84 
L 162.284315 339.84 
L 162.284315 91.684169 
L 160.220833 91.684169 
z
" clip-path="url(#pd29e166252)" style="fill: #1f77b4; stroke: #000000; stroke-linejoin: miter"/>
   </g>
   <g id="patch_41">
    <path d="M 162.284315 339.84 
L 164.347798 339.84 
L 164.347798 119.85821 
L 162.284315 119.85821 
z
" clip-path="url(#pd29e166252)" style="fill: #1f77b4; stroke: #000000; stroke-linejoin: miter"/>
   </g>
   <g id="patch_42">
    <path d="M 164.347798 339.84 
L 166.41128 339.84 
L 166.41128 111.852204 
L 164.347798 111.852204 
z
" clip-path="url(#pd29e166252)" style="fill: #1f77b4; stroke: #000000; stroke-linejoin: miter"/>
   </g>
   <g id="patch_43">
    <path d="M 166.41128 339.84 
L 168.474762 339.84 
L 168.474762 89.423179 
L 166.41128 89.423179 
z
" clip-path="url(#pd29e166252)" style="fill: #1f77b4; stroke: #000000; stroke-linejoin: miter"/>
   </g>
   <g id="patch_44">
    <path d="M 168.474762 339.84 
L 170.538244 339.84 
L 170.538244 84.743683 
L 168.474762 84.743683 
z
" clip-path="url(#pd29e166252)" style="fill: #1f77b4; stroke: #000000; stroke-linejoin: miter"/>
   </g>
   <g id="patch_45">
    <path d="M 170.538244 339.84 
L 172.601727 339.84 
L 172.601727 79.471005 
L 170.538244 79.471005 
z
" clip-path="url(#pd29e166252)" style="fill: #1f77b4; stroke: #000000; stroke-linejoin: miter"/>
   </g>
   <g id="patch_46">
    <path d="M 172.601727 339.84 
L 174.665209 339.84 
L 174.665209 98.641242 
L 172.601727 98.641242 
z
" clip-path="url(#pd29e166252)" style="fill: #1f77b4; stroke: #000000; stroke-linejoin: miter"/>
   </g>
   <g id="patch_47">
    <path d="M 174.665209 339.84 
L 176.728691 339.84 
L 176.728691 98.352726 
L 174.665209 98.352726 
z
" clip-path="url(#pd29e166252)" style="fill: #1f77b4; stroke: #000000; stroke-linejoin: miter"/>
   </g>
   <g id="patch_48">
    <path d="M 176.728691 339.84 
L 178.792174 339.84 
L 178.792174 107.296699 
L 176.728691 107.296699 
z
" clip-path="url(#pd29e166252)" style="fill: #1f77b4; stroke: #000000; stroke-linejoin: miter"/>
   </g>
   <g id="patch_49">
    <path d="M 178.792174 339.84 
L 180.855656 339.84 
L 180.855656 80.351565 
L 178.792174 80.351565 
z
" clip-path="url(#pd29e166252)" style="fill: #1f77b4; stroke: #000000; stroke-linejoin: miter"/>
   </g>
   <g id="patch_50">
    <path d="M 180.855656 339.84 
L 182.919138 339.84 
L 182.919138 94.538527 
L 180.855656 94.538527 
z
" clip-path="url(#pd29e166252)" style="fill: #1f77b4; stroke: #000000; stroke-linejoin: miter"/>
   </g>
   <g id="patch_51">
    <path d="M 182.919138 339.84 
L 184.98262 339.84 
L 184.98262 107.024515 
L 182.919138 107.024515 
z
" clip-path="url(#pd29e166252)" style="fill: #1f77b4; stroke: #000000; stroke-linejoin: miter"/>
   </g>
   <g id="patch_52">
    <path d="M 184.98262 339.84 
L 187.046103 339.84 
L 187.046103 124.850729 
L 184.98262 124.850729 
z
" clip-path="url(#pd29e166252)" style="fill: #1f77b4; stroke: #000000; stroke-linejoin: miter"/>
   </g>
   <g id="patch_53">
    <path d="M 187.046103 339.84 
L 189.109585 339.84 
L 189.109585 152.972429 
L 187.046103 152.972429 
z
" clip-path="url(#pd29e166252)" style="fill: #1f77b4; stroke: #000000; stroke-linejoin: miter"/>
   </g>
   <g id="patch_54">
    <path d="M 189.109585 339.84 
L 191.173067 339.84 
L 191.173067 206.721993 
L 189.109585 206.721993 
z
" clip-path="url(#pd29e166252)" style="fill: #1f77b4; stroke: #000000; stroke-linejoin: miter"/>
   </g>
   <g id="patch_55">
    <path d="M 191.173067 339.84 
L 193.236549 339.84 
L 193.236549 121.149976 
L 191.173067 121.149976 
z
" clip-path="url(#pd29e166252)" style="fill: #1f77b4; stroke: #000000; stroke-linejoin: miter"/>
   </g>
   <g id="patch_56">
    <path d="M 193.236549 339.84 
L 195.300032 339.84 
L 195.300032 137.045415 
L 193.236549 137.045415 
z
" clip-path="url(#pd29e166252)" style="fill: #1f77b4; stroke: #000000; stroke-linejoin: miter"/>
   </g>
   <g id="patch_57">
    <path d="M 195.300032 339.84 
L 197.363514 339.84 
L 197.363514 159.338064 
L 195.300032 159.338064 
z
" clip-path="url(#pd29e166252)" style="fill: #1f77b4; stroke: #000000; stroke-linejoin: miter"/>
   </g>
   <g id="patch_58">
    <path d="M 197.363514 339.84 
L 199.426996 339.84 
L 199.426996 88.999248 
L 197.363514 88.999248 
z
" clip-path="url(#pd29e166252)" style="fill: #1f77b4; stroke: #000000; stroke-linejoin: miter"/>
   </g>
   <g id="patch_59">
    <path d="M 199.426996 339.84 
L 201.490479 339.84 
L 201.490479 104.705832 
L 199.426996 104.705832 
z
" clip-path="url(#pd29e166252)" style="fill: #1f77b4; stroke: #000000; stroke-linejoin: miter"/>
   </g>
   <g id="patch_60">
    <path d="M 201.490479 339.84 
L 203.553961 339.84 
L 203.553961 92.973978 
L 201.490479 92.973978 
z
" clip-path="url(#pd29e166252)" style="fill: #1f77b4; stroke: #000000; stroke-linejoin: miter"/>
   </g>
   <g id="patch_61">
    <path d="M 203.553961 339.84 
L 205.617443 339.84 
L 205.617443 83.001236 
L 203.553961 83.001236 
z
" clip-path="url(#pd29e166252)" style="fill: #1f77b4; stroke: #000000; stroke-linejoin: miter"/>
   </g>
   <g id="patch_62">
    <path d="M 205.617443 339.84 
L 207.680925 339.84 
L 207.680925 108.475849 
L 205.617443 108.475849 
z
" clip-path="url(#pd29e166252)" style="fill: #1f77b4; stroke: #000000; stroke-linejoin: miter"/>
   </g>
   <g id="patch_63">
    <path d="M 207.680925 339.84 
L 209.744408 339.84 
L 209.744408 135.981963 
L 207.680925 135.981963 
z
" clip-path="url(#pd29e166252)" style="fill: #1f77b4; stroke: #000000; stroke-linejoin: miter"/>
   </g>
   <g id="patch_64">
    <path d="M 209.744408 339.84 
L 211.80789 339.84 
L 211.80789 150.852555 
L 209.744408 150.852555 
z
" clip-path="url(#pd29e166252)" style="fill: #1f77b4; stroke: #000000; stroke-linejoin: miter"/>
   </g>
   <g id="patch_65">
    <path d="M 211.80789 339.84 
L 213.871372 339.84 
L 213.871372 127.707093 
L 211.80789 127.707093 
z
" clip-path="url(#pd29e166252)" style="fill: #1f77b4; stroke: #000000; stroke-linejoin: miter"/>
   </g>
   <g id="patch_66">
    <path d="M 213.871372 339.84 
L 215.934855 339.84 
L 215.934855 139.308779 
L 213.871372 139.308779 
z
" clip-path="url(#pd29e166252)" style="fill: #1f77b4; stroke: #000000; stroke-linejoin: miter"/>
   </g>
   <g id="patch_67">
    <path d="M 215.934855 339.84 
L 217.998337 339.84 
L 217.998337 89.166543 
L 215.934855 89.166543 
z
" clip-path="url(#pd29e166252)" style="fill: #1f77b4; stroke: #000000; stroke-linejoin: miter"/>
   </g>
   <g id="patch_68">
    <path d="M 217.998337 339.84 
L 220.061819 339.84 
L 220.061819 122.184087 
L 217.998337 122.184087 
z
" clip-path="url(#pd29e166252)" style="fill: #1f77b4; stroke: #000000; stroke-linejoin: miter"/>
   </g>
   <g id="patch_69">
    <path d="M 220.061819 339.84 
L 222.125301 339.84 
L 222.125301 106.569139 
L 220.061819 106.569139 
z
" clip-path="url(#pd29e166252)" style="fill: #1f77b4; stroke: #000000; stroke-linejoin: miter"/>
   </g>
   <g id="patch_70">
    <path d="M 222.125301 339.84 
L 224.188784 339.84 
L 224.188784 71.498614 
L 222.125301 71.498614 
z
" clip-path="url(#pd29e166252)" style="fill: #1f77b4; stroke: #000000; stroke-linejoin: miter"/>
   </g>
   <g id="patch_71">
    <path d="M 224.188784 339.84 
L 226.252266 339.84 
L 226.252266 120.668755 
L 224.188784 120.668755 
z
" clip-path="url(#pd29e166252)" style="fill: #1f77b4; stroke: #000000; stroke-linejoin: miter"/>
   </g>
   <g id="patch_72">
    <path d="M 226.252266 339.84 
L 228.315748 339.84 
L 228.315748 79.291654 
L 226.252266 79.291654 
z
" clip-path="url(#pd29e166252)" style="fill: #1f77b4; stroke: #000000; stroke-linejoin: miter"/>
   </g>
   <g id="patch_73">
    <path d="M 228.315748 339.84 
L 230.379231 339.84 
L 230.379231 99.583725 
L 228.315748 99.583725 
z
" clip-path="url(#pd29e166252)" style="fill: #1f77b4; stroke: #000000; stroke-linejoin: miter"/>
   </g>
   <g id="patch_74">
    <path d="M 230.379231 339.84 
L 232.442713 339.84 
L 232.442713 119.866913 
L 230.379231 119.866913 
z
" clip-path="url(#pd29e166252)" style="fill: #1f77b4; stroke: #000000; stroke-linejoin: miter"/>
   </g>
   <g id="patch_75">
    <path d="M 232.442713 339.84 
L 234.506195 339.84 
L 234.506195 104.682252 
L 232.442713 104.682252 
z
" clip-path="url(#pd29e166252)" style="fill: #1f77b4; stroke: #000000; stroke-linejoin: miter"/>
   </g>
   <g id="patch_76">
    <path d="M 234.506195 339.84 
L 236.569677 339.84 
L 236.569677 104.118452 
L 234.506195 104.118452 
z
" clip-path="url(#pd29e166252)" style="fill: #1f77b4; stroke: #000000; stroke-linejoin: miter"/>
   </g>
   <g id="patch_77">
    <path d="M 236.569677 339.84 
L 238.63316 339.84 
L 238.63316 129.730783 
L 236.569677 129.730783 
z
" clip-path="url(#pd29e166252)" style="fill: #1f77b4; stroke: #000000; stroke-linejoin: miter"/>
   </g>
   <g id="patch_78">
    <path d="M 238.63316 339.84 
L 240.696642 339.84 
L 240.696642 127.38092 
L 238.63316 127.38092 
z
" clip-path="url(#pd29e166252)" style="fill: #1f77b4; stroke: #000000; stroke-linejoin: miter"/>
   </g>
   <g id="patch_79">
    <path d="M 240.696642 339.84 
L 242.760124 339.84 
L 242.760124 138.34949 
L 240.696642 138.34949 
z
" clip-path="url(#pd29e166252)" style="fill: #1f77b4; stroke: #000000; stroke-linejoin: miter"/>
   </g>
   <g id="patch_80">
    <path d="M 242.760124 339.84 
L 244.823607 339.84 
L 244.823607 144.174824 
L 242.760124 144.174824 
z
" clip-path="url(#pd29e166252)" style="fill: #1f77b4; stroke: #000000; stroke-linejoin: miter"/>
   </g>
   <g id="patch_81">
    <path d="M 244.823607 339.84 
L 246.887089 339.84 
L 246.887089 113.025191 
L 244.823607 113.025191 
z
" clip-path="url(#pd29e166252)" style="fill: #1f77b4; stroke: #000000; stroke-linejoin: miter"/>
   </g>
   <g id="patch_82">
    <path d="M 246.887089 339.84 
L 248.950571 339.84 
L 248.950571 129.789173 
L 246.887089 129.789173 
z
" clip-path="url(#pd29e166252)" style="fill: #1f77b4; stroke: #000000; stroke-linejoin: miter"/>
   </g>
   <g id="patch_83">
    <path d="M 248.950571 339.84 
L 251.014053 339.84 
L 251.014053 141.829757 
L 248.950571 141.829757 
z
" clip-path="url(#pd29e166252)" style="fill: #1f77b4; stroke: #000000; stroke-linejoin: miter"/>
   </g>
   <g id="patch_84">
    <path d="M 251.014053 339.84 
L 253.077536 339.84 
L 253.077536 108.427047 
L 251.014053 108.427047 
z
" clip-path="url(#pd29e166252)" style="fill: #1f77b4; stroke: #000000; stroke-linejoin: miter"/>
   </g>
   <g id="patch_85">
    <path d="M 253.077536 339.84 
L 255.141018 339.84 
L 255.141018 115.176064 
L 253.077536 115.176064 
z
" clip-path="url(#pd29e166252)" style="fill: #1f77b4; stroke: #000000; stroke-linejoin: miter"/>
   </g>
   <g id="patch_86">
    <path d="M 255.141018 339.84 
L 257.2045 339.84 
L 257.2045 104.080889 
L 255.141018 104.080889 
z
" clip-path="url(#pd29e166252)" style="fill: #1f77b4; stroke: #000000; stroke-linejoin: miter"/>
   </g>
   <g id="patch_87">
    <path d="M 257.2045 339.84 
L 259.267982 339.84 
L 259.267982 94.358256 
L 257.2045 94.358256 
z
" clip-path="url(#pd29e166252)" style="fill: #1f77b4; stroke: #000000; stroke-linejoin: miter"/>
   </g>
   <g id="patch_88">
    <path d="M 259.267982 339.84 
L 261.331465 339.84 
L 261.331465 126.851623 
L 259.267982 126.851623 
z
" clip-path="url(#pd29e166252)" style="fill: #1f77b4; stroke: #000000; stroke-linejoin: miter"/>
   </g>
   <g id="patch_89">
    <path d="M 261.331465 339.84 
L 263.394947 339.84 
L 263.394947 112.789377 
L 261.331465 112.789377 
z
" clip-path="url(#pd29e166252)" style="fill: #1f77b4; stroke: #000000; stroke-linejoin: miter"/>
   </g>
   <g id="patch_90">
    <path d="M 263.394947 339.84 
L 265.458429 339.84 
L 265.458429 128.069798 
L 263.394947 128.069798 
z
" clip-path="url(#pd29e166252)" style="fill: #1f77b4; stroke: #000000; stroke-linejoin: miter"/>
   </g>
   <g id="patch_91">
    <path d="M 265.458429 339.84 
L 267.521912 339.84 
L 267.521912 117.864109 
L 265.458429 117.864109 
z
" clip-path="url(#pd29e166252)" style="fill: #1f77b4; stroke: #000000; stroke-linejoin: miter"/>
   </g>
   <g id="patch_92">
    <path d="M 267.521912 339.84 
L 269.585394 339.84 
L 269.585394 106.740942 
L 267.521912 106.740942 
z
" clip-path="url(#pd29e166252)" style="fill: #1f77b4; stroke: #000000; stroke-linejoin: miter"/>
   </g>
   <g id="patch_93">
    <path d="M 269.585394 339.84 
L 271.648876 339.84 
L 271.648876 113.629334 
L 269.585394 113.629334 
z
" clip-path="url(#pd29e166252)" style="fill: #1f77b4; stroke: #000000; stroke-linejoin: miter"/>
   </g>
   <g id="patch_94">
    <path d="M 271.648876 339.84 
L 273.712358 339.84 
L 273.712358 122.046264 
L 271.648876 122.046264 
z
" clip-path="url(#pd29e166252)" style="fill: #1f77b4; stroke: #000000; stroke-linejoin: miter"/>
   </g>
   <g id="patch_95">
    <path d="M 273.712358 339.84 
L 275.775841 339.84 
L 275.775841 126.61025 
L 273.712358 126.61025 
z
" clip-path="url(#pd29e166252)" style="fill: #1f77b4; stroke: #000000; stroke-linejoin: miter"/>
   </g>
   <g id="patch_96">
    <path d="M 275.775841 339.84 
L 277.839323 339.84 
L 277.839323 143.241721 
L 275.775841 143.241721 
z
" clip-path="url(#pd29e166252)" style="fill: #1f77b4; stroke: #000000; stroke-linejoin: miter"/>
   </g>
   <g id="patch_97">
    <path d="M 277.839323 339.84 
L 279.902805 339.84 
L 279.902805 135.151536 
L 277.839323 135.151536 
z
" clip-path="url(#pd29e166252)" style="fill: #1f77b4; stroke: #000000; stroke-linejoin: miter"/>
   </g>
   <g id="patch_98">
    <path d="M 279.902805 339.84 
L 281.966288 339.84 
L 281.966288 145.839524 
L 279.902805 145.839524 
z
" clip-path="url(#pd29e166252)" style="fill: #1f77b4; stroke: #000000; stroke-linejoin: miter"/>
   </g>
   <g id="patch_99">
    <path d="M 281.966288 339.84 
L 284.02977 339.84 
L 284.02977 136.601921 
L 281.966288 136.601921 
z
" clip-path="url(#pd29e166252)" style="fill: #1f77b4; stroke: #000000; stroke-linejoin: miter"/>
   </g>
   <g id="patch_100">
    <path d="M 284.02977 339.84 
L 286.093252 339.84 
L 286.093252 121.025044 
L 284.02977 121.025044 
z
" clip-path="url(#pd29e166252)" style="fill: #1f77b4; stroke: #000000; stroke-linejoin: miter"/>
   </g>
   <g id="patch_101">
    <path d="M 286.093252 339.84 
L 288.156734 339.84 
L 288.156734 117.877617 
L 286.093252 117.877617 
z
" clip-path="url(#pd29e166252)" style="fill: #1f77b4; stroke: #000000; stroke-linejoin: miter"/>
   </g>
   <g id="patch_102">
    <path d="M 288.156734 339.84 
L 290.220217 339.84 
L 290.220217 109.936307 
L 288.156734 109.936307 
z
" clip-path="url(#pd29e166252)" style="fill: #1f77b4; stroke: #000000; stroke-linejoin: miter"/>
   </g>
   <g id="patch_103">
    <path d="M 290.220217 339.84 
L 292.283699 339.84 
L 292.283699 103.8299 
L 290.220217 103.8299 
z
" clip-path="url(#pd29e166252)" style="fill: #1f77b4; stroke: #000000; stroke-linejoin: miter"/>
   </g>
   <g id="patch_104">
    <path d="M 292.283699 339.84 
L 294.347181 339.84 
L 294.347181 106.532134 
L 292.283699 106.532134 
z
" clip-path="url(#pd29e166252)" style="fill: #1f77b4; stroke: #000000; stroke-linejoin: miter"/>
   </g>
   <g id="patch_105">
    <path d="M 294.347181 339.84 
L 296.410664 339.84 
L 296.410664 76.971904 
L 294.347181 76.971904 
z
" clip-path="url(#pd29e166252)" style="fill: #1f77b4; stroke: #000000; stroke-linejoin: miter"/>
   </g>
   <g id="patch_106">
    <path d="M 296.410664 339.84 
L 298.474146 339.84 
L 298.474146 44.28035 
L 296.410664 44.28035 
z
" clip-path="url(#pd29e166252)" style="fill: #1f77b4; stroke: #000000; stroke-linejoin: miter"/>
   </g>
   <g id="patch_107">
    <path d="M 298.474146 339.84 
L 300.537628 339.84 
L 300.537628 61.055572 
L 298.474146 61.055572 
z
" clip-path="url(#pd29e166252)" style="fill: #1f77b4; stroke: #000000; stroke-linejoin: miter"/>
   </g>
   <g id="patch_108">
    <path d="M 300.537628 339.84 
L 302.60111 339.84 
L 302.60111 72.674868 
L 300.537628 72.674868 
z
" clip-path="url(#pd29e166252)" style="fill: #1f77b4; stroke: #000000; stroke-linejoin: miter"/>
   </g>
   <g id="patch_109">
    <path d="M 302.60111 339.84 
L 304.664593 339.84 
L 304.664593 89.204236 
L 302.60111 89.204236 
z
" clip-path="url(#pd29e166252)" style="fill: #1f77b4; stroke: #000000; stroke-linejoin: miter"/>
   </g>
   <g id="patch_110">
    <path d="M 304.664593 339.84 
L 306.728075 339.84 
L 306.728075 100.24757 
L 304.664593 100.24757 
z
" clip-path="url(#pd29e166252)" style="fill: #1f77b4; stroke: #000000; stroke-linejoin: miter"/>
   </g>
   <g id="patch_111">
    <path d="M 306.728075 339.84 
L 308.791557 339.84 
L 308.791557 102.99023 
L 306.728075 102.99023 
z
" clip-path="url(#pd29e166252)" style="fill: #1f77b4; stroke: #000000; stroke-linejoin: miter"/>
   </g>
   <g id="patch_112">
    <path d="M 308.791557 339.84 
L 310.855039 339.84 
L 310.855039 118.356451 
L 308.791557 118.356451 
z
" clip-path="url(#pd29e166252)" style="fill: #1f77b4; stroke: #000000; stroke-linejoin: miter"/>
   </g>
   <g id="patch_113">
    <path d="M 310.855039 339.84 
L 312.918522 339.84 
L 312.918522 103.66403 
L 310.855039 103.66403 
z
" clip-path="url(#pd29e166252)" style="fill: #1f77b4; stroke: #000000; stroke-linejoin: miter"/>
   </g>
   <g id="patch_114">
    <path d="M 312.918522 339.84 
L 314.982004 339.84 
L 314.982004 88.485504 
L 312.918522 88.485504 
z
" clip-path="url(#pd29e166252)" style="fill: #1f77b4; stroke: #000000; stroke-linejoin: miter"/>
   </g>
   <g id="patch_115">
    <path d="M 314.982004 339.84 
L 317.045486 339.84 
L 317.045486 101.602606 
L 314.982004 101.602606 
z
" clip-path="url(#pd29e166252)" style="fill: #1f77b4; stroke: #000000; stroke-linejoin: miter"/>
   </g>
   <g id="patch_116">
    <path d="M 317.045486 339.84 
L 319.108969 339.84 
L 319.108969 70.494975 
L 317.045486 70.494975 
z
" clip-path="url(#pd29e166252)" style="fill: #1f77b4; stroke: #000000; stroke-linejoin: miter"/>
   </g>
   <g id="patch_117">
    <path d="M 319.108969 339.84 
L 321.172451 339.84 
L 321.172451 106.389937 
L 319.108969 106.389937 
z
" clip-path="url(#pd29e166252)" style="fill: #1f77b4; stroke: #000000; stroke-linejoin: miter"/>
   </g>
   <g id="patch_118">
    <path d="M 321.172451 339.84 
L 323.235933 339.84 
L 323.235933 98.552468 
L 321.172451 98.552468 
z
" clip-path="url(#pd29e166252)" style="fill: #1f77b4; stroke: #000000; stroke-linejoin: miter"/>
   </g>
   <g id="patch_119">
    <path d="M 323.235933 339.84 
L 325.299415 339.84 
L 325.299415 90.364975 
L 323.235933 90.364975 
z
" clip-path="url(#pd29e166252)" style="fill: #1f77b4; stroke: #000000; stroke-linejoin: miter"/>
   </g>
   <g id="patch_120">
    <path d="M 325.299415 339.84 
L 327.362898 339.84 
L 327.362898 167.141611 
L 325.299415 167.141611 
z
" clip-path="url(#pd29e166252)" style="fill: #1f77b4; stroke: #000000; stroke-linejoin: miter"/>
   </g>
   <g id="patch_121">
    <path d="M 327.362898 339.84 
L 329.42638 339.84 
L 329.42638 139.857707 
L 327.362898 139.857707 
z
" clip-path="url(#pd29e166252)" style="fill: #1f77b4; stroke: #000000; stroke-linejoin: miter"/>
   </g>
   <g id="patch_122">
    <path d="M 329.42638 339.84 
L 331.489862 339.84 
L 331.489862 129.650862 
L 329.42638 129.650862 
z
" clip-path="url(#pd29e166252)" style="fill: #1f77b4; stroke: #000000; stroke-linejoin: miter"/>
   </g>
   <g id="patch_123">
    <path d="M 331.489862 339.84 
L 333.553345 339.84 
L 333.553345 125.184646 
L 331.489862 125.184646 
z
" clip-path="url(#pd29e166252)" style="fill: #1f77b4; stroke: #000000; stroke-linejoin: miter"/>
   </g>
   <g id="patch_124">
    <path d="M 333.553345 339.84 
L 335.616827 339.84 
L 335.616827 118.067936 
L 333.553345 118.067936 
z
" clip-path="url(#pd29e166252)" style="fill: #1f77b4; stroke: #000000; stroke-linejoin: miter"/>
   </g>
   <g id="patch_125">
    <path d="M 335.616827 339.84 
L 337.680309 339.84 
L 337.680309 120.440172 
L 335.616827 120.440172 
z
" clip-path="url(#pd29e166252)" style="fill: #1f77b4; stroke: #000000; stroke-linejoin: miter"/>
   </g>
   <g id="patch_126">
    <path d="M 337.680309 339.84 
L 339.743791 339.84 
L 339.743791 119.272805 
L 337.680309 119.272805 
z
" clip-path="url(#pd29e166252)" style="fill: #1f77b4; stroke: #000000; stroke-linejoin: miter"/>
   </g>
   <g id="patch_127">
    <path d="M 339.743791 339.84 
L 341.807274 339.84 
L 341.807274 94.444656 
L 339.743791 94.444656 
z
" clip-path="url(#pd29e166252)" style="fill: #1f77b4; stroke: #000000; stroke-linejoin: miter"/>
   </g>
   <g id="patch_128">
    <path d="M 341.807274 339.84 
L 343.870756 339.84 
L 343.870756 114.798096 
L 341.807274 114.798096 
z
" clip-path="url(#pd29e166252)" style="fill: #1f77b4; stroke: #000000; stroke-linejoin: miter"/>
   </g>
   <g id="patch_129">
    <path d="M 343.870756 339.84 
L 345.934238 339.84 
L 345.934238 127.903726 
L 343.870756 127.903726 
z
" clip-path="url(#pd29e166252)" style="fill: #1f77b4; stroke: #000000; stroke-linejoin: miter"/>
   </g>
   <g id="patch_130">
    <path d="M 345.934238 339.84 
L 347.997721 339.84 
L 347.997721 81.540155 
L 345.934238 81.540155 
z
" clip-path="url(#pd29e166252)" style="fill: #1f77b4; stroke: #000000; stroke-linejoin: miter"/>
   </g>
   <g id="patch_131">
    <path d="M 347.997721 339.84 
L 350.061203 339.84 
L 350.061203 111.126084 
L 347.997721 111.126084 
z
" clip-path="url(#pd29e166252)" style="fill: #1f77b4; stroke: #000000; stroke-linejoin: miter"/>
   </g>
   <g id="patch_132">
    <path d="M 350.061203 339.84 
L 352.124685 339.84 
L 352.124685 100.155947 
L 350.061203 100.155947 
z
" clip-path="url(#pd29e166252)" style="fill: #1f77b4; stroke: #000000; stroke-linejoin: miter"/>
   </g>
   <g id="patch_133">
    <path d="M 352.124685 339.84 
L 354.188167 339.84 
L 354.188167 81.532085 
L 352.124685 81.532085 
z
" clip-path="url(#pd29e166252)" style="fill: #1f77b4; stroke: #000000; stroke-linejoin: miter"/>
   </g>
   <g id="patch_134">
    <path d="M 354.188167 339.84 
L 356.25165 339.84 
L 356.25165 100.923526 
L 354.188167 100.923526 
z
" clip-path="url(#pd29e166252)" style="fill: #1f77b4; stroke: #000000; stroke-linejoin: miter"/>
   </g>
   <g id="patch_135">
    <path d="M 356.25165 339.84 
L 358.315132 339.84 
L 358.315132 99.170627 
L 356.25165 99.170627 
z
" clip-path="url(#pd29e166252)" style="fill: #1f77b4; stroke: #000000; stroke-linejoin: miter"/>
   </g>
   <g id="patch_136">
    <path d="M 358.315132 339.84 
L 360.378614 339.84 
L 360.378614 105.00661 
L 358.315132 105.00661 
z
" clip-path="url(#pd29e166252)" style="fill: #1f77b4; stroke: #000000; stroke-linejoin: miter"/>
   </g>
   <g id="patch_137">
    <path d="M 360.378614 339.84 
L 362.442096 339.84 
L 362.442096 100.302227 
L 360.378614 100.302227 
z
" clip-path="url(#pd29e166252)" style="fill: #1f77b4; stroke: #000000; stroke-linejoin: miter"/>
   </g>
   <g id="patch_138">
    <path d="M 362.442096 339.84 
L 364.505579 339.84 
L 364.505579 120.014452 
L 362.442096 120.014452 
z
" clip-path="url(#pd29e166252)" style="fill: #1f77b4; stroke: #000000; stroke-linejoin: miter"/>
   </g>
   <g id="patch_139">
    <path d="M 364.505579 339.84 
L 366.569061 339.84 
L 366.569061 131.756925 
L 364.505579 131.756925 
z
" clip-path="url(#pd29e166252)" style="fill: #1f77b4; stroke: #000000; stroke-linejoin: miter"/>
   </g>
   <g id="patch_140">
    <path d="M 366.569061 339.84 
L 368.632543 339.84 
L 368.632543 148.573063 
L 366.569061 148.573063 
z
" clip-path="url(#pd29e166252)" style="fill: #1f77b4; stroke: #000000; stroke-linejoin: miter"/>
   </g>
   <g id="patch_141">
    <path d="M 368.632543 339.84 
L 370.696026 339.84 
L 370.696026 94.50254 
L 368.632543 94.50254 
z
" clip-path="url(#pd29e166252)" style="fill: #1f77b4; stroke: #000000; stroke-linejoin: miter"/>
   </g>
   <g id="patch_142">
    <path d="M 370.696026 339.84 
L 372.759508 339.84 
L 372.759508 102.974414 
L 370.696026 102.974414 
z
" clip-path="url(#pd29e166252)" style="fill: #1f77b4; stroke: #000000; stroke-linejoin: miter"/>
   </g>
   <g id="patch_143">
    <path d="M 372.759508 339.84 
L 374.82299 339.84 
L 374.82299 91.255251 
L 372.759508 91.255251 
z
" clip-path="url(#pd29e166252)" style="fill: #1f77b4; stroke: #000000; stroke-linejoin: miter"/>
   </g>
   <g id="patch_144">
    <path d="M 374.82299 339.84 
L 376.886472 339.84 
L 376.886472 80.554487 
L 374.82299 80.554487 
z
" clip-path="url(#pd29e166252)" style="fill: #1f77b4; stroke: #000000; stroke-linejoin: miter"/>
   </g>
   <g id="patch_145">
    <path d="M 376.886472 339.84 
L 378.949955 339.84 
L 378.949955 88.959521 
L 376.886472 88.959521 
z
" clip-path="url(#pd29e166252)" style="fill: #1f77b4; stroke: #000000; stroke-linejoin: miter"/>
   </g>
   <g id="patch_146">
    <path d="M 378.949955 339.84 
L 381.013437 339.84 
L 381.013437 93.876086 
L 378.949955 93.876086 
z
" clip-path="url(#pd29e166252)" style="fill: #1f77b4; stroke: #000000; stroke-linejoin: miter"/>
   </g>
   <g id="patch_147">
    <path d="M 381.013437 339.84 
L 383.076919 339.84 
L 383.076919 100.524556 
L 381.013437 100.524556 
z
" clip-path="url(#pd29e166252)" style="fill: #1f77b4; stroke: #000000; stroke-linejoin: miter"/>
   </g>
   <g id="patch_148">
    <path d="M 383.076919 339.84 
L 385.140402 339.84 
L 385.140402 87.013532 
L 383.076919 87.013532 
z
" clip-path="url(#pd29e166252)" style="fill: #1f77b4; stroke: #000000; stroke-linejoin: miter"/>
   </g>
   <g id="patch_149">
    <path d="M 385.140402 339.84 
L 387.203884 339.84 
L 387.203884 149.44198 
L 385.140402 149.44198 
z
" clip-path="url(#pd29e166252)" style="fill: #1f77b4; stroke: #000000; stroke-linejoin: miter"/>
   </g>
   <g id="patch_150">
    <path d="M 387.203884 339.84 
L 389.267366 339.84 
L 389.267366 148.734347 
L 387.203884 148.734347 
z
" clip-path="url(#pd29e166252)" style="fill: #1f77b4; stroke: #000000; stroke-linejoin: miter"/>
   </g>
   <g id="patch_151">
    <path d="M 389.267366 339.84 
L 391.330848 339.84 
L 391.330848 139.497817 
L 389.267366 139.497817 
z
" clip-path="url(#pd29e166252)" style="fill: #1f77b4; stroke: #000000; stroke-linejoin: miter"/>
   </g>
   <g id="patch_152">
    <path d="M 391.330848 339.84 
L 393.394331 339.84 
L 393.394331 115.764287 
L 391.330848 115.764287 
z
" clip-path="url(#pd29e166252)" style="fill: #1f77b4; stroke: #000000; stroke-linejoin: miter"/>
   </g>
   <g id="patch_153">
    <path d="M 393.394331 339.84 
L 395.457813 339.84 
L 395.457813 143.339996 
L 393.394331 143.339996 
z
" clip-path="url(#pd29e166252)" style="fill: #1f77b4; stroke: #000000; stroke-linejoin: miter"/>
   </g>
   <g id="patch_154">
    <path d="M 395.457813 339.84 
L 397.521295 339.84 
L 397.521295 169.37694 
L 395.457813 169.37694 
z
" clip-path="url(#pd29e166252)" style="fill: #1f77b4; stroke: #000000; stroke-linejoin: miter"/>
   </g>
   <g id="patch_155">
    <path d="M 397.521295 339.84 
L 399.584778 339.84 
L 399.584778 133.592805 
L 397.521295 133.592805 
z
" clip-path="url(#pd29e166252)" style="fill: #1f77b4; stroke: #000000; stroke-linejoin: miter"/>
   </g>
   <g id="patch_156">
    <path d="M 399.584778 339.84 
L 401.64826 339.84 
L 401.64826 143.979354 
L 399.584778 143.979354 
z
" clip-path="url(#pd29e166252)" style="fill: #1f77b4; stroke: #000000; stroke-linejoin: miter"/>
   </g>
   <g id="patch_157">
    <path d="M 401.64826 339.84 
L 403.711742 339.84 
L 403.711742 164.92224 
L 401.64826 164.92224 
z
" clip-path="url(#pd29e166252)" style="fill: #1f77b4; stroke: #000000; stroke-linejoin: miter"/>
   </g>
   <g id="patch_158">
    <path d="M 403.711742 339.84 
L 405.775224 339.84 
L 405.775224 82.659245 
L 403.711742 82.659245 
z
" clip-path="url(#pd29e166252)" style="fill: #1f77b4; stroke: #000000; stroke-linejoin: miter"/>
   </g>
   <g id="patch_159">
    <path d="M 405.775224 339.84 
L 407.838707 339.84 
L 407.838707 100.487739 
L 405.775224 100.487739 
z
" clip-path="url(#pd29e166252)" style="fill: #1f77b4; stroke: #000000; stroke-linejoin: miter"/>
   </g>
   <g id="patch_160">
    <path d="M 407.838707 339.84 
L 409.902189 339.84 
L 409.902189 82.344174 
L 407.838707 82.344174 
z
" clip-path="url(#pd29e166252)" style="fill: #1f77b4; stroke: #000000; stroke-linejoin: miter"/>
   </g>
   <g id="patch_161">
    <path d="M 409.902189 339.84 
L 411.965671 339.84 
L 411.965671 72.400092 
L 409.902189 72.400092 
z
" clip-path="url(#pd29e166252)" style="fill: #1f77b4; stroke: #000000; stroke-linejoin: miter"/>
   </g>
   <g id="patch_162">
    <path d="M 411.965671 339.84 
L 414.029154 339.84 
L 414.029154 72.036451 
L 411.965671 72.036451 
z
" clip-path="url(#pd29e166252)" style="fill: #1f77b4; stroke: #000000; stroke-linejoin: miter"/>
   </g>
   <g id="patch_163">
    <path d="M 414.029154 339.84 
L 416.092636 339.84 
L 416.092636 72.504067 
L 414.029154 72.504067 
z
" clip-path="url(#pd29e166252)" style="fill: #1f77b4; stroke: #000000; stroke-linejoin: miter"/>
   </g>
   <g id="patch_164">
    <path d="M 416.092636 339.84 
L 418.156118 339.84 
L 418.156118 99.940961 
L 416.092636 99.940961 
z
" clip-path="url(#pd29e166252)" style="fill: #1f77b4; stroke: #000000; stroke-linejoin: miter"/>
   </g>
   <g id="patch_165">
    <path d="M 418.156118 339.84 
L 420.2196 339.84 
L 420.2196 111.390868 
L 418.156118 111.390868 
z
" clip-path="url(#pd29e166252)" style="fill: #1f77b4; stroke: #000000; stroke-linejoin: miter"/>
   </g>
   <g id="patch_166">
    <path d="M 420.2196 339.84 
L 422.283083 339.84 
L 422.283083 149.749659 
L 420.2196 149.749659 
z
" clip-path="url(#pd29e166252)" style="fill: #1f77b4; stroke: #000000; stroke-linejoin: miter"/>
   </g>
   <g id="patch_167">
    <path d="M 422.283083 339.84 
L 424.346565 339.84 
L 424.346565 93.115441 
L 422.283083 93.115441 
z
" clip-path="url(#pd29e166252)" style="fill: #1f77b4; stroke: #000000; stroke-linejoin: miter"/>
   </g>
   <g id="patch_168">
    <path d="M 424.346565 339.84 
L 426.410047 339.84 
L 426.410047 73.219542 
L 424.346565 73.219542 
z
" clip-path="url(#pd29e166252)" style="fill: #1f77b4; stroke: #000000; stroke-linejoin: miter"/>
   </g>
   <g id="patch_169">
    <path d="M 426.410047 339.84 
L 428.473529 339.84 
L 428.473529 78.692472 
L 426.410047 78.692472 
z
" clip-path="url(#pd29e166252)" style="fill: #1f77b4; stroke: #000000; stroke-linejoin: miter"/>
   </g>
   <g id="patch_170">
    <path d="M 428.473529 339.84 
L 430.537012 339.84 
L 430.537012 41.263977 
L 428.473529 41.263977 
z
" clip-path="url(#pd29e166252)" style="fill: #1f77b4; stroke: #000000; stroke-linejoin: miter"/>
   </g>
   <g id="patch_171">
    <path d="M 430.537012 339.84 
L 432.600494 339.84 
L 432.600494 52.713524 
L 430.537012 52.713524 
z
" clip-path="url(#pd29e166252)" style="fill: #1f77b4; stroke: #000000; stroke-linejoin: miter"/>
   </g>
   <g id="patch_172">
    <path d="M 432.600494 339.84 
L 434.663976 339.84 
L 434.663976 75.160953 
L 432.600494 75.160953 
z
" clip-path="url(#pd29e166252)" style="fill: #1f77b4; stroke: #000000; stroke-linejoin: miter"/>
   </g>
   <g id="patch_173">
    <path d="M 434.663976 339.84 
L 436.727459 339.84 
L 436.727459 52.847117 
L 434.663976 52.847117 
z
" clip-path="url(#pd29e166252)" style="fill: #1f77b4; stroke: #000000; stroke-linejoin: miter"/>
   </g>
   <g id="patch_174">
    <path d="M 436.727459 339.84 
L 438.790941 339.84 
L 438.790941 72.763642 
L 436.727459 72.763642 
z
" clip-path="url(#pd29e166252)" style="fill: #1f77b4; stroke: #000000; stroke-linejoin: miter"/>
   </g>
   <g id="patch_175">
    <path d="M 438.790941 339.84 
L 440.854423 339.84 
L 440.854423 85.595334 
L 438.790941 85.595334 
z
" clip-path="url(#pd29e166252)" style="fill: #1f77b4; stroke: #000000; stroke-linejoin: miter"/>
   </g>
   <g id="patch_176">
    <path d="M 440.854423 339.84 
L 442.917905 339.84 
L 442.917905 84.993215 
L 440.854423 84.993215 
z
" clip-path="url(#pd29e166252)" style="fill: #1f77b4; stroke: #000000; stroke-linejoin: miter"/>
   </g>
   <g id="patch_177">
    <path d="M 442.917905 339.84 
L 444.981388 339.84 
L 444.981388 79.94373 
L 442.917905 79.94373 
z
" clip-path="url(#pd29e166252)" style="fill: #1f77b4; stroke: #000000; stroke-linejoin: miter"/>
   </g>
   <g id="patch_178">
    <path d="M 444.981388 339.84 
L 447.04487 339.84 
L 447.04487 87.16358 
L 444.981388 87.16358 
z
" clip-path="url(#pd29e166252)" style="fill: #1f77b4; stroke: #000000; stroke-linejoin: miter"/>
   </g>
   <g id="patch_179">
    <path d="M 447.04487 339.84 
L 449.108352 339.84 
L 449.108352 54.295589 
L 447.04487 54.295589 
z
" clip-path="url(#pd29e166252)" style="fill: #1f77b4; stroke: #000000; stroke-linejoin: miter"/>
   </g>
   <g id="patch_180">
    <path d="M 449.108352 339.84 
L 451.171835 339.84 
L 451.171835 27.468402 
L 449.108352 27.468402 
z
" clip-path="url(#pd29e166252)" style="fill: #1f77b4; stroke: #000000; stroke-linejoin: miter"/>
   </g>
   <g id="patch_181">
    <path d="M 451.171835 339.84 
L 453.235317 339.84 
L 453.235317 43.779701 
L 451.171835 43.779701 
z
" clip-path="url(#pd29e166252)" style="fill: #1f77b4; stroke: #000000; stroke-linejoin: miter"/>
   </g>
   <g id="patch_182">
    <path d="M 453.235317 339.84 
L 455.298799 339.84 
L 455.298799 60.17254 
L 453.235317 60.17254 
z
" clip-path="url(#pd29e166252)" style="fill: #1f77b4; stroke: #000000; stroke-linejoin: miter"/>
   </g>
   <g id="patch_183">
    <path d="M 455.298799 339.84 
L 457.362281 339.84 
L 457.362281 60.107339 
L 455.298799 60.107339 
z
" clip-path="url(#pd29e166252)" style="fill: #1f77b4; stroke: #000000; stroke-linejoin: miter"/>
   </g>
   <g id="patch_184">
    <path d="M 457.362281 339.84 
L 459.425764 339.84 
L 459.425764 81.513147 
L 457.362281 81.513147 
z
" clip-path="url(#pd29e166252)" style="fill: #1f77b4; stroke: #000000; stroke-linejoin: miter"/>
   </g>
   <g id="patch_185">
    <path d="M 459.425764 339.84 
L 461.489246 339.84 
L 461.489246 86.152652 
L 459.425764 86.152652 
z
" clip-path="url(#pd29e166252)" style="fill: #1f77b4; stroke: #000000; stroke-linejoin: miter"/>
   </g>
   <g id="patch_186">
    <path d="M 461.489246 339.84 
L 463.552728 339.84 
L 463.552728 100.466268 
L 461.489246 100.466268 
z
" clip-path="url(#pd29e166252)" style="fill: #1f77b4; stroke: #000000; stroke-linejoin: miter"/>
   </g>
   <g id="patch_187">
    <path d="M 463.552728 339.84 
L 465.616211 339.84 
L 465.616211 103.592903 
L 463.552728 103.592903 
z
" clip-path="url(#pd29e166252)" style="fill: #1f77b4; stroke: #000000; stroke-linejoin: miter"/>
   </g>
   <g id="patch_188">
    <path d="M 465.616211 339.84 
L 467.679693 339.84 
L 467.679693 97.620341 
L 465.616211 97.620341 
z
" clip-path="url(#pd29e166252)" style="fill: #1f77b4; stroke: #000000; stroke-linejoin: miter"/>
   </g>
   <g id="patch_189">
    <path d="M 467.679693 339.84 
L 469.743175 339.84 
L 469.743175 106.708572 
L 467.679693 106.708572 
z
" clip-path="url(#pd29e166252)" style="fill: #1f77b4; stroke: #000000; stroke-linejoin: miter"/>
   </g>
   <g id="patch_190">
    <path d="M 469.743175 339.84 
L 471.806657 339.84 
L 471.806657 147.169509 
L 469.743175 147.169509 
z
" clip-path="url(#pd29e166252)" style="fill: #1f77b4; stroke: #000000; stroke-linejoin: miter"/>
   </g>
   <g id="patch_191">
    <path d="M 471.806657 339.84 
L 473.87014 339.84 
L 473.87014 141.3415 
L 471.806657 141.3415 
z
" clip-path="url(#pd29e166252)" style="fill: #1f77b4; stroke: #000000; stroke-linejoin: miter"/>
   </g>
   <g id="patch_192">
    <path d="M 473.87014 339.84 
L 475.933622 339.84 
L 475.933622 106.060205 
L 473.87014 106.060205 
z
" clip-path="url(#pd29e166252)" style="fill: #1f77b4; stroke: #000000; stroke-linejoin: miter"/>
   </g>
   <g id="patch_193">
    <path d="M 475.933622 339.84 
L 477.997104 339.84 
L 477.997104 106.059641 
L 475.933622 106.059641 
z
" clip-path="url(#pd29e166252)" style="fill: #1f77b4; stroke: #000000; stroke-linejoin: miter"/>
   </g>
   <g id="patch_194">
    <path d="M 477.997104 339.84 
L 480.060586 339.84 
L 480.060586 88.216025 
L 477.997104 88.216025 
z
" clip-path="url(#pd29e166252)" style="fill: #1f77b4; stroke: #000000; stroke-linejoin: miter"/>
   </g>
   <g id="patch_195">
    <path d="M 480.060586 339.84 
L 482.124069 339.84 
L 482.124069 97.077455 
L 480.060586 97.077455 
z
" clip-path="url(#pd29e166252)" style="fill: #1f77b4; stroke: #000000; stroke-linejoin: miter"/>
   </g>
   <g id="patch_196">
    <path d="M 482.124069 339.84 
L 484.187551 339.84 
L 484.187551 98.31696 
L 482.124069 98.31696 
z
" clip-path="url(#pd29e166252)" style="fill: #1f77b4; stroke: #000000; stroke-linejoin: miter"/>
   </g>
   <g id="patch_197">
    <path d="M 484.187551 339.84 
L 486.251033 339.84 
L 486.251033 97.111763 
L 484.187551 97.111763 
z
" clip-path="url(#pd29e166252)" style="fill: #1f77b4; stroke: #000000; stroke-linejoin: miter"/>
   </g>
   <g id="patch_198">
    <path d="M 486.251033 339.84 
L 488.314516 339.84 
L 488.314516 103.925124 
L 486.251033 103.925124 
z
" clip-path="url(#pd29e166252)" style="fill: #1f77b4; stroke: #000000; stroke-linejoin: miter"/>
   </g>
   <g id="patch_199">
    <path d="M 488.314516 339.84 
L 490.377998 339.84 
L 490.377998 90.190301 
L 488.314516 90.190301 
z
" clip-path="url(#pd29e166252)" style="fill: #1f77b4; stroke: #000000; stroke-linejoin: miter"/>
   </g>
   <g id="patch_200">
    <path d="M 490.377998 339.84 
L 492.44148 339.84 
L 492.44148 87.989156 
L 490.377998 87.989156 
z
" clip-path="url(#pd29e166252)" style="fill: #1f77b4; stroke: #000000; stroke-linejoin: miter"/>
   </g>
   <g id="patch_201">
    <path d="M 492.44148 339.84 
L 494.504962 339.84 
L 494.504962 77.608479 
L 492.44148 77.608479 
z
" clip-path="url(#pd29e166252)" style="fill: #1f77b4; stroke: #000000; stroke-linejoin: miter"/>
   </g>
   <g id="patch_202">
    <path d="M 494.504962 339.84 
L 496.568445 339.84 
L 496.568445 65.990671 
L 494.504962 65.990671 
z
" clip-path="url(#pd29e166252)" style="fill: #1f77b4; stroke: #000000; stroke-linejoin: miter"/>
   </g>
   <g id="patch_203">
    <path d="M 496.568445 339.84 
L 498.631927 339.84 
L 498.631927 101.614286 
L 496.568445 101.614286 
z
" clip-path="url(#pd29e166252)" style="fill: #1f77b4; stroke: #000000; stroke-linejoin: miter"/>
   </g>
   <g id="patch_204">
    <path d="M 498.631927 339.84 
L 500.695409 339.84 
L 500.695409 144.065084 
L 498.631927 144.065084 
z
" clip-path="url(#pd29e166252)" style="fill: #1f77b4; stroke: #000000; stroke-linejoin: miter"/>
   </g>
   <g id="patch_205">
    <path d="M 500.695409 339.84 
L 502.758892 339.84 
L 502.758892 118.850729 
L 500.695409 118.850729 
z
" clip-path="url(#pd29e166252)" style="fill: #1f77b4; stroke: #000000; stroke-linejoin: miter"/>
   </g>
   <g id="patch_206">
    <path d="M 502.758892 339.84 
L 504.822374 339.84 
L 504.822374 57.943209 
L 502.758892 57.943209 
z
" clip-path="url(#pd29e166252)" style="fill: #1f77b4; stroke: #000000; stroke-linejoin: miter"/>
   </g>
   <g id="patch_207">
    <path d="M 504.822374 339.84 
L 506.885856 339.84 
L 506.885856 78.657763 
L 504.822374 78.657763 
z
" clip-path="url(#pd29e166252)" style="fill: #1f77b4; stroke: #000000; stroke-linejoin: miter"/>
   </g>
   <g id="patch_208">
    <path d="M 506.885856 339.84 
L 508.949338 339.84 
L 508.949338 89.113025 
L 506.885856 89.113025 
z
" clip-path="url(#pd29e166252)" style="fill: #1f77b4; stroke: #000000; stroke-linejoin: miter"/>
   </g>
   <g id="patch_209">
    <path d="M 508.949338 339.84 
L 511.012821 339.84 
L 511.012821 93.043184 
L 508.949338 93.043184 
z
" clip-path="url(#pd29e166252)" style="fill: #1f77b4; stroke: #000000; stroke-linejoin: miter"/>
   </g>
   <g id="patch_210">
    <path d="M 511.012821 339.84 
L 513.076303 339.84 
L 513.076303 155.190233 
L 511.012821 155.190233 
z
" clip-path="url(#pd29e166252)" style="fill: #1f77b4; stroke: #000000; stroke-linejoin: miter"/>
   </g>
   <g id="patch_211">
    <path d="M 513.076303 339.84 
L 515.139785 339.84 
L 515.139785 129.383463 
L 513.076303 129.383463 
z
" clip-path="url(#pd29e166252)" style="fill: #1f77b4; stroke: #000000; stroke-linejoin: miter"/>
   </g>
   <g id="patch_212">
    <path d="M 515.139785 339.84 
L 517.203268 339.84 
L 517.203268 107.670072 
L 515.139785 107.670072 
z
" clip-path="url(#pd29e166252)" style="fill: #1f77b4; stroke: #000000; stroke-linejoin: miter"/>
   </g>
   <g id="patch_213">
    <path d="M 517.203268 339.84 
L 519.26675 339.84 
L 519.26675 94.64819 
L 517.203268 94.64819 
z
" clip-path="url(#pd29e166252)" style="fill: #1f77b4; stroke: #000000; stroke-linejoin: miter"/>
   </g>
   <g id="patch_214">
    <path d="M 519.26675 339.84 
L 521.330232 339.84 
L 521.330232 79.859118 
L 519.26675 79.859118 
z
" clip-path="url(#pd29e166252)" style="fill: #1f77b4; stroke: #000000; stroke-linejoin: miter"/>
   </g>
   <g id="patch_215">
    <path d="M 521.330232 339.84 
L 523.393714 339.84 
L 523.393714 57.59093 
L 521.330232 57.59093 
z
" clip-path="url(#pd29e166252)" style="fill: #1f77b4; stroke: #000000; stroke-linejoin: miter"/>
   </g>
   <g id="patch_216">
    <path d="M 523.393714 339.84 
L 525.457197 339.84 
L 525.457197 102.129653 
L 523.393714 102.129653 
z
" clip-path="url(#pd29e166252)" style="fill: #1f77b4; stroke: #000000; stroke-linejoin: miter"/>
   </g>
   <g id="patch_217">
    <path d="M 525.457197 339.84 
L 527.520679 339.84 
L 527.520679 70.473041 
L 525.457197 70.473041 
z
" clip-path="url(#pd29e166252)" style="fill: #1f77b4; stroke: #000000; stroke-linejoin: miter"/>
   </g>
   <g id="patch_218">
    <path d="M 527.520679 339.84 
L 529.584161 339.84 
L 529.584161 52.798834 
L 527.520679 52.798834 
z
" clip-path="url(#pd29e166252)" style="fill: #1f77b4; stroke: #000000; stroke-linejoin: miter"/>
   </g>
   <g id="patch_219">
    <path d="M 529.584161 339.84 
L 531.647643 339.84 
L 531.647643 50.704789 
L 529.584161 50.704789 
z
" clip-path="url(#pd29e166252)" style="fill: #1f77b4; stroke: #000000; stroke-linejoin: miter"/>
   </g>
   <g id="patch_220">
    <path d="M 531.647643 339.84 
L 533.711126 339.84 
L 533.711126 98.803785 
L 531.647643 98.803785 
z
" clip-path="url(#pd29e166252)" style="fill: #1f77b4; stroke: #000000; stroke-linejoin: miter"/>
   </g>
   <g id="patch_221">
    <path d="M 533.711126 339.84 
L 535.774608 339.84 
L 535.774608 136.00817 
L 533.711126 136.00817 
z
" clip-path="url(#pd29e166252)" style="fill: #1f77b4; stroke: #000000; stroke-linejoin: miter"/>
   </g>
   <g id="patch_222">
    <path d="M 535.774608 339.84 
L 537.83809 339.84 
L 537.83809 137.580498 
L 535.774608 137.580498 
z
" clip-path="url(#pd29e166252)" style="fill: #1f77b4; stroke: #000000; stroke-linejoin: miter"/>
   </g>
   <g id="patch_223">
    <path d="M 537.83809 339.84 
L 539.901573 339.84 
L 539.901573 157.029518 
L 537.83809 157.029518 
z
" clip-path="url(#pd29e166252)" style="fill: #1f77b4; stroke: #000000; stroke-linejoin: miter"/>
   </g>
   <g id="patch_224">
    <path d="M 539.901573 339.84 
L 541.965055 339.84 
L 541.965055 119.601485 
L 539.901573 119.601485 
z
" clip-path="url(#pd29e166252)" style="fill: #1f77b4; stroke: #000000; stroke-linejoin: miter"/>
   </g>
   <g id="patch_225">
    <path d="M 541.965055 339.84 
L 544.028537 339.84 
L 544.028537 132.018497 
L 541.965055 132.018497 
z
" clip-path="url(#pd29e166252)" style="fill: #1f77b4; stroke: #000000; stroke-linejoin: miter"/>
   </g>
   <g id="patch_226">
    <path d="M 544.028537 339.84 
L 546.092019 339.84 
L 546.092019 134.417134 
L 544.028537 134.417134 
z
" clip-path="url(#pd29e166252)" style="fill: #1f77b4; stroke: #000000; stroke-linejoin: miter"/>
   </g>
   <g id="patch_227">
    <path d="M 546.092019 339.84 
L 548.155502 339.84 
L 548.155502 139.765763 
L 546.092019 139.765763 
z
" clip-path="url(#pd29e166252)" style="fill: #1f77b4; stroke: #000000; stroke-linejoin: miter"/>
   </g>
   <g id="patch_228">
    <path d="M 548.155502 339.84 
L 550.218984 339.84 
L 550.218984 173.591095 
L 548.155502 173.591095 
z
" clip-path="url(#pd29e166252)" style="fill: #1f77b4; stroke: #000000; stroke-linejoin: miter"/>
   </g>
   <g id="patch_229">
    <path d="M 550.218984 339.84 
L 552.282466 339.84 
L 552.282466 123.752916 
L 550.218984 123.752916 
z
" clip-path="url(#pd29e166252)" style="fill: #1f77b4; stroke: #000000; stroke-linejoin: miter"/>
   </g>
   <g id="patch_230">
    <path d="M 552.282466 339.84 
L 554.345949 339.84 
L 554.345949 121.540242 
L 552.282466 121.540242 
z
" clip-path="url(#pd29e166252)" style="fill: #1f77b4; stroke: #000000; stroke-linejoin: miter"/>
   </g>
   <g id="patch_231">
    <path d="M 554.345949 339.84 
L 556.409431 339.84 
L 556.409431 99.560344 
L 554.345949 99.560344 
z
" clip-path="url(#pd29e166252)" style="fill: #1f77b4; stroke: #000000; stroke-linejoin: miter"/>
   </g>
   <g id="patch_232">
    <path d="M 556.409431 339.84 
L 558.472913 339.84 
L 558.472913 89.084806 
L 556.409431 89.084806 
z
" clip-path="url(#pd29e166252)" style="fill: #1f77b4; stroke: #000000; stroke-linejoin: miter"/>
   </g>
   <g id="patch_233">
    <path d="M 558.472913 339.84 
L 560.536395 339.84 
L 560.536395 107.220861 
L 558.472913 107.220861 
z
" clip-path="url(#pd29e166252)" style="fill: #1f77b4; stroke: #000000; stroke-linejoin: miter"/>
   </g>
   <g id="patch_234">
    <path d="M 560.536395 339.84 
L 562.599878 339.84 
L 562.599878 78.826231 
L 560.536395 78.826231 
z
" clip-path="url(#pd29e166252)" style="fill: #1f77b4; stroke: #000000; stroke-linejoin: miter"/>
   </g>
   <g id="patch_235">
    <path d="M 562.599878 339.84 
L 564.66336 339.84 
L 564.66336 90.616079 
L 562.599878 90.616079 
z
" clip-path="url(#pd29e166252)" style="fill: #1f77b4; stroke: #000000; stroke-linejoin: miter"/>
   </g>
   <g id="patch_236">
    <path d="M 564.66336 339.84 
L 566.726842 339.84 
L 566.726842 94.504607 
L 564.66336 94.504607 
z
" clip-path="url(#pd29e166252)" style="fill: #1f77b4; stroke: #000000; stroke-linejoin: miter"/>
   </g>
   <g id="patch_237">
    <path d="M 566.726842 339.84 
L 568.790325 339.84 
L 568.790325 74.902266 
L 566.726842 74.902266 
z
" clip-path="url(#pd29e166252)" style="fill: #1f77b4; stroke: #000000; stroke-linejoin: miter"/>
   </g>
   <g id="patch_238">
    <path d="M 568.790325 339.84 
L 570.853807 339.84 
L 570.853807 93.01633 
L 568.790325 93.01633 
z
" clip-path="url(#pd29e166252)" style="fill: #1f77b4; stroke: #000000; stroke-linejoin: miter"/>
   </g>
   <g id="patch_239">
    <path d="M 570.853807 339.84 
L 572.917289 339.84 
L 572.917289 90.279545 
L 570.853807 90.279545 
z
" clip-path="url(#pd29e166252)" style="fill: #1f77b4; stroke: #000000; stroke-linejoin: miter"/>
   </g>
   <g id="patch_240">
    <path d="M 572.917289 339.84 
L 574.980771 339.84 
L 574.980771 102.893877 
L 572.917289 102.893877 
z
" clip-path="url(#pd29e166252)" style="fill: #1f77b4; stroke: #000000; stroke-linejoin: miter"/>
   </g>
   <g id="patch_241">
    <path d="M 574.980771 339.84 
L 577.044254 339.84 
L 577.044254 107.14601 
L 574.980771 107.14601 
z
" clip-path="url(#pd29e166252)" style="fill: #1f77b4; stroke: #000000; stroke-linejoin: miter"/>
   </g>
   <g id="patch_242">
    <path d="M 577.044254 339.84 
L 579.107736 339.84 
L 579.107736 63.126646 
L 577.044254 63.126646 
z
" clip-path="url(#pd29e166252)" style="fill: #1f77b4; stroke: #000000; stroke-linejoin: miter"/>
   </g>
   <g id="patch_243">
    <path d="M 579.107736 339.84 
L 581.171218 339.84 
L 581.171218 23.04 
L 579.107736 23.04 
z
" clip-path="url(#pd29e166252)" style="fill: #1f77b4; stroke: #000000; stroke-linejoin: miter"/>
   </g>
   <g id="patch_244">
    <path d="M 581.171218 339.84 
L 583.234701 339.84 
L 583.234701 41.819472 
L 581.171218 41.819472 
z
" clip-path="url(#pd29e166252)" style="fill: #1f77b4; stroke: #000000; stroke-linejoin: miter"/>
   </g>
   <g id="patch_245">
    <path d="M 583.234701 339.84 
L 585.298183 339.84 
L 585.298183 66.80586 
L 583.234701 66.80586 
z
" clip-path="url(#pd29e166252)" style="fill: #1f77b4; stroke: #000000; stroke-linejoin: miter"/>
   </g>
   <g id="patch_246">
    <path d="M 585.298183 339.84 
L 587.361665 339.84 
L 587.361665 121.380049 
L 585.298183 121.380049 
z
" clip-path="url(#pd29e166252)" style="fill: #1f77b4; stroke: #000000; stroke-linejoin: miter"/>
   </g>
   <g id="patch_247">
    <path d="M 587.361665 339.84 
L 589.425147 339.84 
L 589.425147 104.352866 
L 587.361665 104.352866 
z
" clip-path="url(#pd29e166252)" style="fill: #1f77b4; stroke: #000000; stroke-linejoin: miter"/>
   </g>
   <g id="patch_248">
    <path d="M 589.425147 339.84 
L 591.48863 339.84 
L 591.48863 96.058343 
L 589.425147 96.058343 
z
" clip-path="url(#pd29e166252)" style="fill: #1f77b4; stroke: #000000; stroke-linejoin: miter"/>
   </g>
   <g id="patch_249">
    <path d="M 591.48863 339.84 
L 593.552112 339.84 
L 593.552112 88.604408 
L 591.48863 88.604408 
z
" clip-path="url(#pd29e166252)" style="fill: #1f77b4; stroke: #000000; stroke-linejoin: miter"/>
   </g>
   <g id="patch_250">
    <path d="M 593.552112 339.84 
L 595.615594 339.84 
L 595.615594 104.809499 
L 593.552112 104.809499 
z
" clip-path="url(#pd29e166252)" style="fill: #1f77b4; stroke: #000000; stroke-linejoin: miter"/>
   </g>
   <g id="patch_251">
    <path d="M 595.615594 339.84 
L 597.679076 339.84 
L 597.679076 87.735706 
L 595.615594 87.735706 
z
" clip-path="url(#pd29e166252)" style="fill: #1f77b4; stroke: #000000; stroke-linejoin: miter"/>
   </g>
   <g id="patch_252">
    <path d="M 597.679076 339.84 
L 599.742559 339.84 
L 599.742559 64.960881 
L 597.679076 64.960881 
z
" clip-path="url(#pd29e166252)" style="fill: #1f77b4; stroke: #000000; stroke-linejoin: miter"/>
   </g>
   <g id="patch_253">
    <path d="M 599.742559 339.84 
L 601.806041 339.84 
L 601.806041 66.56169 
L 599.742559 66.56169 
z
" clip-path="url(#pd29e166252)" style="fill: #1f77b4; stroke: #000000; stroke-linejoin: miter"/>
   </g>
   <g id="patch_254">
    <path d="M 601.806041 339.84 
L 603.869523 339.84 
L 603.869523 91.338343 
L 601.806041 91.338343 
z
" clip-path="url(#pd29e166252)" style="fill: #1f77b4; stroke: #000000; stroke-linejoin: miter"/>
   </g>
   <g id="patch_255">
    <path d="M 603.869523 339.84 
L 605.933006 339.84 
L 605.933006 118.883472 
L 603.869523 118.883472 
z
" clip-path="url(#pd29e166252)" style="fill: #1f77b4; stroke: #000000; stroke-linejoin: miter"/>
   </g>
   <g id="patch_256">
    <path d="M 605.933006 339.84 
L 607.996488 339.84 
L 607.996488 136.13263 
L 605.933006 136.13263 
z
" clip-path="url(#pd29e166252)" style="fill: #1f77b4; stroke: #000000; stroke-linejoin: miter"/>
   </g>
   <g id="patch_257">
    <path d="M 607.996488 339.84 
L 610.05997 339.84 
L 610.05997 119.276835 
L 607.996488 119.276835 
z
" clip-path="url(#pd29e166252)" style="fill: #1f77b4; stroke: #000000; stroke-linejoin: miter"/>
   </g>
   <g id="patch_258">
    <path d="M 610.05997 339.84 
L 612.123452 339.84 
L 612.123452 88.75463 
L 610.05997 88.75463 
z
" clip-path="url(#pd29e166252)" style="fill: #1f77b4; stroke: #000000; stroke-linejoin: miter"/>
   </g>
   <g id="patch_259">
    <path d="M 612.123452 339.84 
L 614.186935 339.84 
L 614.186935 103.454261 
L 612.123452 103.454261 
z
" clip-path="url(#pd29e166252)" style="fill: #1f77b4; stroke: #000000; stroke-linejoin: miter"/>
   </g>
   <g id="patch_260">
    <path d="M 614.186935 339.84 
L 616.250417 339.84 
L 616.250417 79.178158 
L 614.186935 79.178158 
z
" clip-path="url(#pd29e166252)" style="fill: #1f77b4; stroke: #000000; stroke-linejoin: miter"/>
   </g>
   <g id="patch_261">
    <path d="M 616.250417 339.84 
L 618.313899 339.84 
L 618.313899 83.807335 
L 616.250417 83.807335 
z
" clip-path="url(#pd29e166252)" style="fill: #1f77b4; stroke: #000000; stroke-linejoin: miter"/>
   </g>
   <g id="patch_262">
    <path d="M 618.313899 339.84 
L 620.377382 339.84 
L 620.377382 75.546282 
L 618.313899 75.546282 
z
" clip-path="url(#pd29e166252)" style="fill: #1f77b4; stroke: #000000; stroke-linejoin: miter"/>
   </g>
   <g id="patch_263">
    <path d="M 620.377382 339.84 
L 622.440864 339.84 
L 622.440864 79.763749 
L 620.377382 79.763749 
z
" clip-path="url(#pd29e166252)" style="fill: #1f77b4; stroke: #000000; stroke-linejoin: miter"/>
   </g>
   <g id="patch_264">
    <path d="M 622.440864 339.84 
L 624.504346 339.84 
L 624.504346 77.812858 
L 622.440864 77.812858 
z
" clip-path="url(#pd29e166252)" style="fill: #1f77b4; stroke: #000000; stroke-linejoin: miter"/>
   </g>
   <g id="patch_265">
    <path d="M 624.504346 339.84 
L 626.567828 339.84 
L 626.567828 105.144284 
L 624.504346 105.144284 
z
" clip-path="url(#pd29e166252)" style="fill: #1f77b4; stroke: #000000; stroke-linejoin: miter"/>
   </g>
   <g id="patch_266">
    <path d="M 626.567828 339.84 
L 628.631311 339.84 
L 628.631311 116.835964 
L 626.567828 116.835964 
z
" clip-path="url(#pd29e166252)" style="fill: #1f77b4; stroke: #000000; stroke-linejoin: miter"/>
   </g>
   <g id="patch_267">
    <path d="M 628.631311 339.84 
L 630.694793 339.84 
L 630.694793 127.65014 
L 628.631311 127.65014 
z
" clip-path="url(#pd29e166252)" style="fill: #1f77b4; stroke: #000000; stroke-linejoin: miter"/>
   </g>
   <g id="patch_268">
    <path d="M 630.694793 339.84 
L 632.758275 339.84 
L 632.758275 111.218947 
L 630.694793 111.218947 
z
" clip-path="url(#pd29e166252)" style="fill: #1f77b4; stroke: #000000; stroke-linejoin: miter"/>
   </g>
   <g id="patch_269">
    <path d="M 632.758275 339.84 
L 634.821758 339.84 
L 634.821758 85.114573 
L 632.758275 85.114573 
z
" clip-path="url(#pd29e166252)" style="fill: #1f77b4; stroke: #000000; stroke-linejoin: miter"/>
   </g>
   <g id="patch_270">
    <path d="M 634.821758 339.84 
L 636.88524 339.84 
L 636.88524 108.153502 
L 634.821758 108.153502 
z
" clip-path="url(#pd29e166252)" style="fill: #1f77b4; stroke: #000000; stroke-linejoin: miter"/>
   </g>
   <g id="patch_271">
    <path d="M 636.88524 339.84 
L 638.948722 339.84 
L 638.948722 71.994408 
L 636.88524 71.994408 
z
" clip-path="url(#pd29e166252)" style="fill: #1f77b4; stroke: #000000; stroke-linejoin: miter"/>
   </g>
   <g id="patch_272">
    <path d="M 638.948722 339.84 
L 641.012204 339.84 
L 641.012204 96.008945 
L 638.948722 96.008945 
z
" clip-path="url(#pd29e166252)" style="fill: #1f77b4; stroke: #000000; stroke-linejoin: miter"/>
   </g>
   <g id="patch_273">
    <path d="M 641.012204 339.84 
L 643.075687 339.84 
L 643.075687 90.398816 
L 641.012204 90.398816 
z
" clip-path="url(#pd29e166252)" style="fill: #1f77b4; stroke: #000000; stroke-linejoin: miter"/>
   </g>
   <g id="patch_274">
    <path d="M 643.075687 339.84 
L 645.139169 339.84 
L 645.139169 103.445702 
L 643.075687 103.445702 
z
" clip-path="url(#pd29e166252)" style="fill: #1f77b4; stroke: #000000; stroke-linejoin: miter"/>
   </g>
   <g id="patch_275">
    <path d="M 645.139169 339.84 
L 647.202651 339.84 
L 647.202651 92.796055 
L 645.139169 92.796055 
z
" clip-path="url(#pd29e166252)" style="fill: #1f77b4; stroke: #000000; stroke-linejoin: miter"/>
   </g>
   <g id="patch_276">
    <path d="M 647.202651 339.84 
L 649.266133 339.84 
L 649.266133 69.235766 
L 647.202651 69.235766 
z
" clip-path="url(#pd29e166252)" style="fill: #1f77b4; stroke: #000000; stroke-linejoin: miter"/>
   </g>
   <g id="patch_277">
    <path d="M 649.266133 339.84 
L 651.329616 339.84 
L 651.329616 76.926385 
L 649.266133 76.926385 
z
" clip-path="url(#pd29e166252)" style="fill: #1f77b4; stroke: #000000; stroke-linejoin: miter"/>
   </g>
   <g id="patch_278">
    <path d="M 651.329616 339.84 
L 653.393098 339.84 
L 653.393098 117.608978 
L 651.329616 117.608978 
z
" clip-path="url(#pd29e166252)" style="fill: #1f77b4; stroke: #000000; stroke-linejoin: miter"/>
   </g>
   <g id="patch_279">
    <path d="M 653.393098 339.84 
L 655.45658 339.84 
L 655.45658 105.509684 
L 653.393098 105.509684 
z
" clip-path="url(#pd29e166252)" style="fill: #1f77b4; stroke: #000000; stroke-linejoin: miter"/>
   </g>
   <g id="patch_280">
    <path d="M 655.45658 339.84 
L 657.520063 339.84 
L 657.520063 121.360309 
L 655.45658 121.360309 
z
" clip-path="url(#pd29e166252)" style="fill: #1f77b4; stroke: #000000; stroke-linejoin: miter"/>
   </g>
   <g id="patch_281">
    <path d="M 657.520063 339.84 
L 659.583545 339.84 
L 659.583545 113.818486 
L 657.520063 113.818486 
z
" clip-path="url(#pd29e166252)" style="fill: #1f77b4; stroke: #000000; stroke-linejoin: miter"/>
   </g>
   <g id="patch_282">
    <path d="M 659.583545 339.84 
L 661.647027 339.84 
L 661.647027 109.905528 
L 659.583545 109.905528 
z
" clip-path="url(#pd29e166252)" style="fill: #1f77b4; stroke: #000000; stroke-linejoin: miter"/>
   </g>
   <g id="patch_283">
    <path d="M 661.647027 339.84 
L 663.710509 339.84 
L 663.710509 133.59098 
L 661.647027 133.59098 
z
" clip-path="url(#pd29e166252)" style="fill: #1f77b4; stroke: #000000; stroke-linejoin: miter"/>
   </g>
   <g id="patch_284">
    <path d="M 663.710509 339.84 
L 665.773992 339.84 
L 665.773992 99.848363 
L 663.710509 99.848363 
z
" clip-path="url(#pd29e166252)" style="fill: #1f77b4; stroke: #000000; stroke-linejoin: miter"/>
   </g>
   <g id="patch_285">
    <path d="M 665.773992 339.84 
L 667.837474 339.84 
L 667.837474 74.523721 
L 665.773992 74.523721 
z
" clip-path="url(#pd29e166252)" style="fill: #1f77b4; stroke: #000000; stroke-linejoin: miter"/>
   </g>
   <g id="patch_286">
    <path d="M 667.837474 339.84 
L 669.900956 339.84 
L 669.900956 54.753471 
L 667.837474 54.753471 
z
" clip-path="url(#pd29e166252)" style="fill: #1f77b4; stroke: #000000; stroke-linejoin: miter"/>
   </g>
   <g id="patch_287">
    <path d="M 669.900956 339.84 
L 671.964439 339.84 
L 671.964439 70.921899 
L 669.900956 70.921899 
z
" clip-path="url(#pd29e166252)" style="fill: #1f77b4; stroke: #000000; stroke-linejoin: miter"/>
   </g>
   <g id="patch_288">
    <path d="M 671.964439 339.84 
L 674.027921 339.84 
L 674.027921 62.547509 
L 671.964439 62.547509 
z
" clip-path="url(#pd29e166252)" style="fill: #1f77b4; stroke: #000000; stroke-linejoin: miter"/>
   </g>
   <g id="patch_289">
    <path d="M 674.027921 339.84 
L 676.091403 339.84 
L 676.091403 63.20882 
L 674.027921 63.20882 
z
" clip-path="url(#pd29e166252)" style="fill: #1f77b4; stroke: #000000; stroke-linejoin: miter"/>
   </g>
   <g id="patch_290">
    <path d="M 676.091403 339.84 
L 678.154885 339.84 
L 678.154885 50.841643 
L 676.091403 50.841643 
z
" clip-path="url(#pd29e166252)" style="fill: #1f77b4; stroke: #000000; stroke-linejoin: miter"/>
   </g>
   <g id="patch_291">
    <path d="M 678.154885 339.84 
L 680.218368 339.84 
L 680.218368 88.880832 
L 678.154885 88.880832 
z
" clip-path="url(#pd29e166252)" style="fill: #1f77b4; stroke: #000000; stroke-linejoin: miter"/>
   </g>
   <g id="patch_292">
    <path d="M 680.218368 339.84 
L 682.28185 339.84 
L 682.28185 102.817448 
L 680.218368 102.817448 
z
" clip-path="url(#pd29e166252)" style="fill: #1f77b4; stroke: #000000; stroke-linejoin: miter"/>
   </g>
   <g id="patch_293">
    <path d="M 682.28185 339.84 
L 684.345332 339.84 
L 684.345332 94.339741 
L 682.28185 94.339741 
z
" clip-path="url(#pd29e166252)" style="fill: #1f77b4; stroke: #000000; stroke-linejoin: miter"/>
   </g>
   <g id="patch_294">
    <path d="M 684.345332 339.84 
L 686.408815 339.84 
L 686.408815 50.247615 
L 684.345332 50.247615 
z
" clip-path="url(#pd29e166252)" style="fill: #1f77b4; stroke: #000000; stroke-linejoin: miter"/>
   </g>
   <g id="patch_295">
    <path d="M 686.408815 339.84 
L 688.472297 339.84 
L 688.472297 173.160612 
L 686.408815 173.160612 
z
" clip-path="url(#pd29e166252)" style="fill: #1f77b4; stroke: #000000; stroke-linejoin: miter"/>
   </g>
   <g id="patch_296">
    <path d="M 688.472297 339.84 
L 690.535779 339.84 
L 690.535779 325.991267 
L 688.472297 325.991267 
z
" clip-path="url(#pd29e166252)" style="fill: #1f77b4; stroke: #000000; stroke-linejoin: miter"/>
   </g>
   <g id="patch_297">
    <path d="M 690.535779 339.84 
L 692.599261 339.84 
L 692.599261 339.84 
L 690.535779 339.84 
z
" clip-path="url(#pd29e166252)" style="fill: #1f77b4; stroke: #000000; stroke-linejoin: miter"/>
   </g>
   <g id="matplotlib.axis_1">
    <g id="xtick_1">
     <g id="line2d_1">
      <defs>
       <path id="mf531bea2f7" d="M 0 0 
L 0 3.5 
" style="stroke: #000000; stroke-width: 0.8"/>
      </defs>
      <g>
       <use xlink:href="#mf531bea2f7" x="82.840247" y="339.84" style="stroke: #000000; stroke-width: 0.8"/>
      </g>
     </g>
     <g id="text_1">
      <!-- 0.0 -->
      <g transform="translate(71.70806 357.477813) scale(0.14 -0.14)">
       <defs>
        <path id="DejaVuSans-30" d="M 2034 4250 
Q 1547 4250 1301 3770 
Q 1056 3291 1056 2328 
Q 1056 1369 1301 889 
Q 1547 409 2034 409 
Q 2525 409 2770 889 
Q 3016 1369 3016 2328 
Q 3016 3291 2770 3770 
Q 2525 4250 2034 4250 
z
M 2034 4750 
Q 2819 4750 3233 4129 
Q 3647 3509 3647 2328 
Q 3647 1150 3233 529 
Q 2819 -91 2034 -91 
Q 1250 -91 836 529 
Q 422 1150 422 2328 
Q 422 3509 836 4129 
Q 1250 4750 2034 4750 
z
" transform="scale(0.015625)"/>
        <path id="DejaVuSans-2e" d="M 684 794 
L 1344 794 
L 1344 0 
L 684 0 
L 684 794 
z
" transform="scale(0.015625)"/>
       </defs>
       <use xlink:href="#DejaVuSans-30"/>
       <use xlink:href="#DejaVuSans-2e" x="63.623047"/>
       <use xlink:href="#DejaVuSans-30" x="95.410156"/>
      </g>
     </g>
    </g>
    <g id="xtick_2">
     <g id="line2d_2">
      <g>
       <use xlink:href="#mf531bea2f7" x="186.014362" y="339.84" style="stroke: #000000; stroke-width: 0.8"/>
      </g>
     </g>
     <g id="text_2">
      <!-- 0.5 -->
      <g transform="translate(174.882174 357.477813) scale(0.14 -0.14)">
       <defs>
        <path id="DejaVuSans-35" d="M 691 4666 
L 3169 4666 
L 3169 4134 
L 1269 4134 
L 1269 2991 
Q 1406 3038 1543 3061 
Q 1681 3084 1819 3084 
Q 2600 3084 3056 2656 
Q 3513 2228 3513 1497 
Q 3513 744 3044 326 
Q 2575 -91 1722 -91 
Q 1428 -91 1123 -41 
Q 819 9 494 109 
L 494 744 
Q 775 591 1075 516 
Q 1375 441 1709 441 
Q 2250 441 2565 725 
Q 2881 1009 2881 1497 
Q 2881 1984 2565 2268 
Q 2250 2553 1709 2553 
Q 1456 2553 1204 2497 
Q 953 2441 691 2322 
L 691 4666 
z
" transform="scale(0.015625)"/>
       </defs>
       <use xlink:href="#DejaVuSans-30"/>
       <use xlink:href="#DejaVuSans-2e" x="63.623047"/>
       <use xlink:href="#DejaVuSans-35" x="95.410156"/>
      </g>
     </g>
    </g>
    <g id="xtick_3">
     <g id="line2d_3">
      <g>
       <use xlink:href="#mf531bea2f7" x="289.188476" y="339.84" style="stroke: #000000; stroke-width: 0.8"/>
      </g>
     </g>
     <g id="text_3">
      <!-- 1.0 -->
      <g transform="translate(278.056288 357.477813) scale(0.14 -0.14)">
       <defs>
        <path id="DejaVuSans-31" d="M 794 531 
L 1825 531 
L 1825 4091 
L 703 3866 
L 703 4441 
L 1819 4666 
L 2450 4666 
L 2450 531 
L 3481 531 
L 3481 0 
L 794 0 
L 794 531 
z
" transform="scale(0.015625)"/>
       </defs>
       <use xlink:href="#DejaVuSans-31"/>
       <use xlink:href="#DejaVuSans-2e" x="63.623047"/>
       <use xlink:href="#DejaVuSans-30" x="95.410156"/>
      </g>
     </g>
    </g>
    <g id="xtick_4">
     <g id="line2d_4">
      <g>
       <use xlink:href="#mf531bea2f7" x="392.36259" y="339.84" style="stroke: #000000; stroke-width: 0.8"/>
      </g>
     </g>
     <g id="text_4">
      <!-- 1.5 -->
      <g transform="translate(381.230402 357.477813) scale(0.14 -0.14)">
       <use xlink:href="#DejaVuSans-31"/>
       <use xlink:href="#DejaVuSans-2e" x="63.623047"/>
       <use xlink:href="#DejaVuSans-35" x="95.410156"/>
      </g>
     </g>
    </g>
    <g id="xtick_5">
     <g id="line2d_5">
      <g>
       <use xlink:href="#mf531bea2f7" x="495.536704" y="339.84" style="stroke: #000000; stroke-width: 0.8"/>
      </g>
     </g>
     <g id="text_5">
      <!-- 2.0 -->
      <g transform="translate(484.404516 357.477813) scale(0.14 -0.14)">
       <defs>
        <path id="DejaVuSans-32" d="M 1228 531 
L 3431 531 
L 3431 0 
L 469 0 
L 469 531 
Q 828 903 1448 1529 
Q 2069 2156 2228 2338 
Q 2531 2678 2651 2914 
Q 2772 3150 2772 3378 
Q 2772 3750 2511 3984 
Q 2250 4219 1831 4219 
Q 1534 4219 1204 4116 
Q 875 4013 500 3803 
L 500 4441 
Q 881 4594 1212 4672 
Q 1544 4750 1819 4750 
Q 2544 4750 2975 4387 
Q 3406 4025 3406 3419 
Q 3406 3131 3298 2873 
Q 3191 2616 2906 2266 
Q 2828 2175 2409 1742 
Q 1991 1309 1228 531 
z
" transform="scale(0.015625)"/>
       </defs>
       <use xlink:href="#DejaVuSans-32"/>
       <use xlink:href="#DejaVuSans-2e" x="63.623047"/>
       <use xlink:href="#DejaVuSans-30" x="95.410156"/>
      </g>
     </g>
    </g>
    <g id="xtick_6">
     <g id="line2d_6">
      <g>
       <use xlink:href="#mf531bea2f7" x="598.710818" y="339.84" style="stroke: #000000; stroke-width: 0.8"/>
      </g>
     </g>
     <g id="text_6">
      <!-- 2.5 -->
      <g transform="translate(587.57863 357.477813) scale(0.14 -0.14)">
       <use xlink:href="#DejaVuSans-32"/>
       <use xlink:href="#DejaVuSans-2e" x="63.623047"/>
       <use xlink:href="#DejaVuSans-35" x="95.410156"/>
      </g>
     </g>
    </g>
    <g id="xtick_7">
     <g id="line2d_7">
      <g>
       <use xlink:href="#mf531bea2f7" x="701.884932" y="339.84" style="stroke: #000000; stroke-width: 0.8"/>
      </g>
     </g>
     <g id="text_7">
      <!-- 3.0 -->
      <g transform="translate(690.752744 357.477813) scale(0.14 -0.14)">
       <defs>
        <path id="DejaVuSans-33" d="M 2597 2516 
Q 3050 2419 3304 2112 
Q 3559 1806 3559 1356 
Q 3559 666 3084 287 
Q 2609 -91 1734 -91 
Q 1441 -91 1130 -33 
Q 819 25 488 141 
L 488 750 
Q 750 597 1062 519 
Q 1375 441 1716 441 
Q 2309 441 2620 675 
Q 2931 909 2931 1356 
Q 2931 1769 2642 2001 
Q 2353 2234 1838 2234 
L 1294 2234 
L 1294 2753 
L 1863 2753 
Q 2328 2753 2575 2939 
Q 2822 3125 2822 3475 
Q 2822 3834 2567 4026 
Q 2313 4219 1838 4219 
Q 1578 4219 1281 4162 
Q 984 4106 628 3988 
L 628 4550 
Q 988 4650 1302 4700 
Q 1616 4750 1894 4750 
Q 2613 4750 3031 4423 
Q 3450 4097 3450 3541 
Q 3450 3153 3228 2886 
Q 3006 2619 2597 2516 
z
" transform="scale(0.015625)"/>
       </defs>
       <use xlink:href="#DejaVuSans-33"/>
       <use xlink:href="#DejaVuSans-2e" x="63.623047"/>
       <use xlink:href="#DejaVuSans-30" x="95.410156"/>
      </g>
     </g>
    </g>
    <g id="text_8">
     <!-- Chromosome Positions -->
     <g transform="translate(285.885938 378.066563) scale(0.18 -0.18)">
      <defs>
       <path id="DejaVuSans-43" d="M 4122 4306 
L 4122 3641 
Q 3803 3938 3442 4084 
Q 3081 4231 2675 4231 
Q 1875 4231 1450 3742 
Q 1025 3253 1025 2328 
Q 1025 1406 1450 917 
Q 1875 428 2675 428 
Q 3081 428 3442 575 
Q 3803 722 4122 1019 
L 4122 359 
Q 3791 134 3420 21 
Q 3050 -91 2638 -91 
Q 1578 -91 968 557 
Q 359 1206 359 2328 
Q 359 3453 968 4101 
Q 1578 4750 2638 4750 
Q 3056 4750 3426 4639 
Q 3797 4528 4122 4306 
z
" transform="scale(0.015625)"/>
       <path id="DejaVuSans-68" d="M 3513 2113 
L 3513 0 
L 2938 0 
L 2938 2094 
Q 2938 2591 2744 2837 
Q 2550 3084 2163 3084 
Q 1697 3084 1428 2787 
Q 1159 2491 1159 1978 
L 1159 0 
L 581 0 
L 581 4863 
L 1159 4863 
L 1159 2956 
Q 1366 3272 1645 3428 
Q 1925 3584 2291 3584 
Q 2894 3584 3203 3211 
Q 3513 2838 3513 2113 
z
" transform="scale(0.015625)"/>
       <path id="DejaVuSans-72" d="M 2631 2963 
Q 2534 3019 2420 3045 
Q 2306 3072 2169 3072 
Q 1681 3072 1420 2755 
Q 1159 2438 1159 1844 
L 1159 0 
L 581 0 
L 581 3500 
L 1159 3500 
L 1159 2956 
Q 1341 3275 1631 3429 
Q 1922 3584 2338 3584 
Q 2397 3584 2469 3576 
Q 2541 3569 2628 3553 
L 2631 2963 
z
" transform="scale(0.015625)"/>
       <path id="DejaVuSans-6f" d="M 1959 3097 
Q 1497 3097 1228 2736 
Q 959 2375 959 1747 
Q 959 1119 1226 758 
Q 1494 397 1959 397 
Q 2419 397 2687 759 
Q 2956 1122 2956 1747 
Q 2956 2369 2687 2733 
Q 2419 3097 1959 3097 
z
M 1959 3584 
Q 2709 3584 3137 3096 
Q 3566 2609 3566 1747 
Q 3566 888 3137 398 
Q 2709 -91 1959 -91 
Q 1206 -91 779 398 
Q 353 888 353 1747 
Q 353 2609 779 3096 
Q 1206 3584 1959 3584 
z
" transform="scale(0.015625)"/>
       <path id="DejaVuSans-6d" d="M 3328 2828 
Q 3544 3216 3844 3400 
Q 4144 3584 4550 3584 
Q 5097 3584 5394 3201 
Q 5691 2819 5691 2113 
L 5691 0 
L 5113 0 
L 5113 2094 
Q 5113 2597 4934 2840 
Q 4756 3084 4391 3084 
Q 3944 3084 3684 2787 
Q 3425 2491 3425 1978 
L 3425 0 
L 2847 0 
L 2847 2094 
Q 2847 2600 2669 2842 
Q 2491 3084 2119 3084 
Q 1678 3084 1418 2786 
Q 1159 2488 1159 1978 
L 1159 0 
L 581 0 
L 581 3500 
L 1159 3500 
L 1159 2956 
Q 1356 3278 1631 3431 
Q 1906 3584 2284 3584 
Q 2666 3584 2933 3390 
Q 3200 3197 3328 2828 
z
" transform="scale(0.015625)"/>
       <path id="DejaVuSans-73" d="M 2834 3397 
L 2834 2853 
Q 2591 2978 2328 3040 
Q 2066 3103 1784 3103 
Q 1356 3103 1142 2972 
Q 928 2841 928 2578 
Q 928 2378 1081 2264 
Q 1234 2150 1697 2047 
L 1894 2003 
Q 2506 1872 2764 1633 
Q 3022 1394 3022 966 
Q 3022 478 2636 193 
Q 2250 -91 1575 -91 
Q 1294 -91 989 -36 
Q 684 19 347 128 
L 347 722 
Q 666 556 975 473 
Q 1284 391 1588 391 
Q 1994 391 2212 530 
Q 2431 669 2431 922 
Q 2431 1156 2273 1281 
Q 2116 1406 1581 1522 
L 1381 1569 
Q 847 1681 609 1914 
Q 372 2147 372 2553 
Q 372 3047 722 3315 
Q 1072 3584 1716 3584 
Q 2034 3584 2315 3537 
Q 2597 3491 2834 3397 
z
" transform="scale(0.015625)"/>
       <path id="DejaVuSans-65" d="M 3597 1894 
L 3597 1613 
L 953 1613 
Q 991 1019 1311 708 
Q 1631 397 2203 397 
Q 2534 397 2845 478 
Q 3156 559 3463 722 
L 3463 178 
Q 3153 47 2828 -22 
Q 2503 -91 2169 -91 
Q 1331 -91 842 396 
Q 353 884 353 1716 
Q 353 2575 817 3079 
Q 1281 3584 2069 3584 
Q 2775 3584 3186 3129 
Q 3597 2675 3597 1894 
z
M 3022 2063 
Q 3016 2534 2758 2815 
Q 2500 3097 2075 3097 
Q 1594 3097 1305 2825 
Q 1016 2553 972 2059 
L 3022 2063 
z
" transform="scale(0.015625)"/>
       <path id="DejaVuSans-20" transform="scale(0.015625)"/>
       <path id="DejaVuSans-50" d="M 1259 4147 
L 1259 2394 
L 2053 2394 
Q 2494 2394 2734 2622 
Q 2975 2850 2975 3272 
Q 2975 3691 2734 3919 
Q 2494 4147 2053 4147 
L 1259 4147 
z
M 628 4666 
L 2053 4666 
Q 2838 4666 3239 4311 
Q 3641 3956 3641 3272 
Q 3641 2581 3239 2228 
Q 2838 1875 2053 1875 
L 1259 1875 
L 1259 0 
L 628 0 
L 628 4666 
z
" transform="scale(0.015625)"/>
       <path id="DejaVuSans-69" d="M 603 3500 
L 1178 3500 
L 1178 0 
L 603 0 
L 603 3500 
z
M 603 4863 
L 1178 4863 
L 1178 4134 
L 603 4134 
L 603 4863 
z
" transform="scale(0.015625)"/>
       <path id="DejaVuSans-74" d="M 1172 4494 
L 1172 3500 
L 2356 3500 
L 2356 3053 
L 1172 3053 
L 1172 1153 
Q 1172 725 1289 603 
Q 1406 481 1766 481 
L 2356 481 
L 2356 0 
L 1766 0 
Q 1100 0 847 248 
Q 594 497 594 1153 
L 594 3053 
L 172 3053 
L 172 3500 
L 594 3500 
L 594 4494 
L 1172 4494 
z
" transform="scale(0.015625)"/>
       <path id="DejaVuSans-6e" d="M 3513 2113 
L 3513 0 
L 2938 0 
L 2938 2094 
Q 2938 2591 2744 2837 
Q 2550 3084 2163 3084 
Q 1697 3084 1428 2787 
Q 1159 2491 1159 1978 
L 1159 0 
L 581 0 
L 581 3500 
L 1159 3500 
L 1159 2956 
Q 1366 3272 1645 3428 
Q 1925 3584 2291 3584 
Q 2894 3584 3203 3211 
Q 3513 2838 3513 2113 
z
" transform="scale(0.015625)"/>
      </defs>
      <use xlink:href="#DejaVuSans-43"/>
      <use xlink:href="#DejaVuSans-68" x="69.824219"/>
      <use xlink:href="#DejaVuSans-72" x="133.203125"/>
      <use xlink:href="#DejaVuSans-6f" x="172.066406"/>
      <use xlink:href="#DejaVuSans-6d" x="233.248047"/>
      <use xlink:href="#DejaVuSans-6f" x="330.660156"/>
      <use xlink:href="#DejaVuSans-73" x="391.841797"/>
      <use xlink:href="#DejaVuSans-6f" x="443.941406"/>
      <use xlink:href="#DejaVuSans-6d" x="505.123047"/>
      <use xlink:href="#DejaVuSans-65" x="602.535156"/>
      <use xlink:href="#DejaVuSans-20" x="664.058594"/>
      <use xlink:href="#DejaVuSans-50" x="695.845703"/>
      <use xlink:href="#DejaVuSans-6f" x="752.523438"/>
      <use xlink:href="#DejaVuSans-73" x="813.705078"/>
      <use xlink:href="#DejaVuSans-69" x="865.804688"/>
      <use xlink:href="#DejaVuSans-74" x="893.587891"/>
      <use xlink:href="#DejaVuSans-69" x="932.796875"/>
      <use xlink:href="#DejaVuSans-6f" x="960.580078"/>
      <use xlink:href="#DejaVuSans-6e" x="1021.761719"/>
      <use xlink:href="#DejaVuSans-73" x="1085.140625"/>
     </g>
    </g>
    <g id="text_9">
     <!-- 1e6 -->
     <g transform="translate(704.1575 370.987813) scale(0.1 -0.1)">
      <defs>
       <path id="DejaVuSans-36" d="M 2113 2584 
Q 1688 2584 1439 2293 
Q 1191 2003 1191 1497 
Q 1191 994 1439 701 
Q 1688 409 2113 409 
Q 2538 409 2786 701 
Q 3034 994 3034 1497 
Q 3034 2003 2786 2293 
Q 2538 2584 2113 2584 
z
M 3366 4563 
L 3366 3988 
Q 3128 4100 2886 4159 
Q 2644 4219 2406 4219 
Q 1781 4219 1451 3797 
Q 1122 3375 1075 2522 
Q 1259 2794 1537 2939 
Q 1816 3084 2150 3084 
Q 2853 3084 3261 2657 
Q 3669 2231 3669 1497 
Q 3669 778 3244 343 
Q 2819 -91 2113 -91 
Q 1303 -91 875 529 
Q 447 1150 447 2328 
Q 447 3434 972 4092 
Q 1497 4750 2381 4750 
Q 2619 4750 2861 4703 
Q 3103 4656 3366 4563 
z
" transform="scale(0.015625)"/>
      </defs>
      <use xlink:href="#DejaVuSans-31"/>
      <use xlink:href="#DejaVuSans-65" x="63.623047"/>
      <use xlink:href="#DejaVuSans-36" x="125.146484"/>
     </g>
    </g>
   </g>
   <g id="matplotlib.axis_2">
    <g id="ytick_1">
     <g id="line2d_8">
      <defs>
       <path id="m334e126fc7" d="M 0 0 
L -3.5 0 
" style="stroke: #000000; stroke-width: 0.8"/>
      </defs>
      <g>
       <use xlink:href="#m334e126fc7" x="53.435625" y="339.84" style="stroke: #000000; stroke-width: 0.8"/>
      </g>
     </g>
     <g id="text_10">
      <!-- 0 -->
      <g transform="translate(37.528125 345.158906) scale(0.14 -0.14)">
       <use xlink:href="#DejaVuSans-30"/>
      </g>
     </g>
    </g>
    <g id="ytick_2">
     <g id="line2d_9">
      <g>
       <use xlink:href="#m334e126fc7" x="53.435625" y="270.596337" style="stroke: #000000; stroke-width: 0.8"/>
      </g>
     </g>
     <g id="text_11">
      <!-- 20 -->
      <g transform="translate(28.620625 275.915244) scale(0.14 -0.14)">
       <use xlink:href="#DejaVuSans-32"/>
       <use xlink:href="#DejaVuSans-30" x="63.623047"/>
      </g>
     </g>
    </g>
    <g id="ytick_3">
     <g id="line2d_10">
      <g>
       <use xlink:href="#m334e126fc7" x="53.435625" y="201.352675" style="stroke: #000000; stroke-width: 0.8"/>
      </g>
     </g>
     <g id="text_12">
      <!-- 40 -->
      <g transform="translate(28.620625 206.671581) scale(0.14 -0.14)">
       <defs>
        <path id="DejaVuSans-34" d="M 2419 4116 
L 825 1625 
L 2419 1625 
L 2419 4116 
z
M 2253 4666 
L 3047 4666 
L 3047 1625 
L 3713 1625 
L 3713 1100 
L 3047 1100 
L 3047 0 
L 2419 0 
L 2419 1100 
L 313 1100 
L 313 1709 
L 2253 4666 
z
" transform="scale(0.015625)"/>
       </defs>
       <use xlink:href="#DejaVuSans-34"/>
       <use xlink:href="#DejaVuSans-30" x="63.623047"/>
      </g>
     </g>
    </g>
    <g id="ytick_4">
     <g id="line2d_11">
      <g>
       <use xlink:href="#m334e126fc7" x="53.435625" y="132.109012" style="stroke: #000000; stroke-width: 0.8"/>
      </g>
     </g>
     <g id="text_13">
      <!-- 60 -->
      <g transform="translate(28.620625 137.427918) scale(0.14 -0.14)">
       <use xlink:href="#DejaVuSans-36"/>
       <use xlink:href="#DejaVuSans-30" x="63.623047"/>
      </g>
     </g>
    </g>
    <g id="ytick_5">
     <g id="line2d_12">
      <g>
       <use xlink:href="#m334e126fc7" x="53.435625" y="62.865349" style="stroke: #000000; stroke-width: 0.8"/>
      </g>
     </g>
     <g id="text_14">
      <!-- 80 -->
      <g transform="translate(28.620625 68.184255) scale(0.14 -0.14)">
       <defs>
        <path id="DejaVuSans-38" d="M 2034 2216 
Q 1584 2216 1326 1975 
Q 1069 1734 1069 1313 
Q 1069 891 1326 650 
Q 1584 409 2034 409 
Q 2484 409 2743 651 
Q 3003 894 3003 1313 
Q 3003 1734 2745 1975 
Q 2488 2216 2034 2216 
z
M 1403 2484 
Q 997 2584 770 2862 
Q 544 3141 544 3541 
Q 544 4100 942 4425 
Q 1341 4750 2034 4750 
Q 2731 4750 3128 4425 
Q 3525 4100 3525 3541 
Q 3525 3141 3298 2862 
Q 3072 2584 2669 2484 
Q 3125 2378 3379 2068 
Q 3634 1759 3634 1313 
Q 3634 634 3220 271 
Q 2806 -91 2034 -91 
Q 1263 -91 848 271 
Q 434 634 434 1313 
Q 434 1759 690 2068 
Q 947 2378 1403 2484 
z
M 1172 3481 
Q 1172 3119 1398 2916 
Q 1625 2713 2034 2713 
Q 2441 2713 2670 2916 
Q 2900 3119 2900 3481 
Q 2900 3844 2670 4047 
Q 2441 4250 2034 4250 
Q 1625 4250 1398 4047 
Q 1172 3844 1172 3481 
z
" transform="scale(0.015625)"/>
       </defs>
       <use xlink:href="#DejaVuSans-38"/>
       <use xlink:href="#DejaVuSans-30" x="63.623047"/>
      </g>
     </g>
    </g>
    <g id="text_15">
     <!-- Coverage -->
     <g transform="translate(20.877187 216.642656) rotate(-90) scale(0.18 -0.18)">
      <defs>
       <path id="DejaVuSans-76" d="M 191 3500 
L 800 3500 
L 1894 563 
L 2988 3500 
L 3597 3500 
L 2284 0 
L 1503 0 
L 191 3500 
z
" transform="scale(0.015625)"/>
       <path id="DejaVuSans-61" d="M 2194 1759 
Q 1497 1759 1228 1600 
Q 959 1441 959 1056 
Q 959 750 1161 570 
Q 1363 391 1709 391 
Q 2188 391 2477 730 
Q 2766 1069 2766 1631 
L 2766 1759 
L 2194 1759 
z
M 3341 1997 
L 3341 0 
L 2766 0 
L 2766 531 
Q 2569 213 2275 61 
Q 1981 -91 1556 -91 
Q 1019 -91 701 211 
Q 384 513 384 1019 
Q 384 1609 779 1909 
Q 1175 2209 1959 2209 
L 2766 2209 
L 2766 2266 
Q 2766 2663 2505 2880 
Q 2244 3097 1772 3097 
Q 1472 3097 1187 3025 
Q 903 2953 641 2809 
L 641 3341 
Q 956 3463 1253 3523 
Q 1550 3584 1831 3584 
Q 2591 3584 2966 3190 
Q 3341 2797 3341 1997 
z
" transform="scale(0.015625)"/>
       <path id="DejaVuSans-67" d="M 2906 1791 
Q 2906 2416 2648 2759 
Q 2391 3103 1925 3103 
Q 1463 3103 1205 2759 
Q 947 2416 947 1791 
Q 947 1169 1205 825 
Q 1463 481 1925 481 
Q 2391 481 2648 825 
Q 2906 1169 2906 1791 
z
M 3481 434 
Q 3481 -459 3084 -895 
Q 2688 -1331 1869 -1331 
Q 1566 -1331 1297 -1286 
Q 1028 -1241 775 -1147 
L 775 -588 
Q 1028 -725 1275 -790 
Q 1522 -856 1778 -856 
Q 2344 -856 2625 -561 
Q 2906 -266 2906 331 
L 2906 616 
Q 2728 306 2450 153 
Q 2172 0 1784 0 
Q 1141 0 747 490 
Q 353 981 353 1791 
Q 353 2603 747 3093 
Q 1141 3584 1784 3584 
Q 2172 3584 2450 3431 
Q 2728 3278 2906 2969 
L 2906 3500 
L 3481 3500 
L 3481 434 
z
" transform="scale(0.015625)"/>
      </defs>
      <use xlink:href="#DejaVuSans-43"/>
      <use xlink:href="#DejaVuSans-6f" x="69.824219"/>
      <use xlink:href="#DejaVuSans-76" x="131.005859"/>
      <use xlink:href="#DejaVuSans-65" x="190.185547"/>
      <use xlink:href="#DejaVuSans-72" x="251.708984"/>
      <use xlink:href="#DejaVuSans-61" x="292.822266"/>
      <use xlink:href="#DejaVuSans-67" x="354.101562"/>
      <use xlink:href="#DejaVuSans-65" x="417.578125"/>
     </g>
    </g>
   </g>
   <g id="patch_298">
    <path d="M 53.435625 339.84 
L 53.435625 7.2 
" style="fill: none; stroke: #000000; stroke-width: 0.8; stroke-linejoin: miter; stroke-linecap: square"/>
   </g>
   <g id="patch_299">
    <path d="M 723.035625 339.84 
L 723.035625 7.2 
" style="fill: none; stroke: #000000; stroke-width: 0.8; stroke-linejoin: miter; stroke-linecap: square"/>
   </g>
   <g id="patch_300">
    <path d="M 53.435625 339.84 
L 723.035625 339.84 
" style="fill: none; stroke: #000000; stroke-width: 0.8; stroke-linejoin: miter; stroke-linecap: square"/>
   </g>
   <g id="patch_301">
    <path d="M 53.435625 7.2 
L 723.035625 7.2 
" style="fill: none; stroke: #000000; stroke-width: 0.8; stroke-linejoin: miter; stroke-linecap: square"/>
   </g>
  </g>
 </g>
 <defs>
  <clipPath id="pd29e166252">
   <rect x="53.435625" y="7.2" width="669.6" height="332.64"/>
  </clipPath>
 </defs>
</svg>
